<?xml version="1.0" encoding="utf-8"?>
<!-- Generator: Adobe Illustrator 25.0.0, SVG Export Plug-In . SVG Version: 6.00 Build 0)  -->
<svg version="1.1" id="Layer_1" xmlns="http://www.w3.org/2000/svg" xmlns:xlink="http://www.w3.org/1999/xlink" x="0px" y="0px"
	 viewBox="0 0 512 512" enable-background="new 0 0 512 512" xml:space="preserve">
<g id="XMLID_1469_">
	<g id="XMLID_180_">
		<path id="XMLID_181_" fill="#587CF8" d="M377,74h7v7c0,5.52,4.48,10,10,10s10-4.48,10-10v-7h7c5.52,0,10-4.48,10-10
			s-4.48-10-10-10h-7v-7c0-5.52-4.48-10-10-10s-10,4.48-10,10v7h-7c-5.52,0-10,4.48-10,10S371.48,74,377,74z"/>
		<path id="XMLID_182_" fill="#587CF8" d="M70.5,320.97h-7v-7c0-5.52-4.48-10-10-10s-10,4.48-10,10v7h-7c-5.52,0-10,4.48-10,10
			s4.48,10,10,10h7v7c0,5.52,4.48,10,10,10s10-4.48,10-10v-7h7c5.52,0,10-4.48,10-10S76.02,320.97,70.5,320.97z"/>
		<path id="XMLID_183_" fill="#587CF8" d="M491.82,337.97h-7v-7c0-5.52-4.48-10-10-10s-10,4.48-10,10v7h-7c-5.52,0-10,4.48-10,10
			s4.48,10,10,10h7v7c0,5.52,4.48,10,10,10s10-4.48,10-10v-7h7c5.52,0,10-4.48,10-10S497.34,337.97,491.82,337.97z"/>
		<path id="XMLID_186_" fill="#587CF8" d="M383.72,297.57l100.15-72.43c15.47-11.19,21.66-30.15,15.78-48.31
			c-5.88-18.16-22.01-29.9-41.1-29.9H334.94L297.11,29.91C291.23,11.74,275.1,0,256,0s-35.23,11.74-41.11,29.91l-37.83,117.02H53.45
			c-19.09,0-35.22,11.74-41.1,29.9c-5.88,18.16,0.32,37.12,15.78,48.31l100.15,72.43l-38.33,117.1c-7.1,21.7,3.44,40.75,18.33,50.15
			V502c0,5.52,4.48,10,10,10H211c5.52,0,10-4.48,10-10s-4.48-10-10-10h-82.71v-31.17c0-30.19,24.56-54.75,54.75-54.75h37.91
			l25.95,57c1.62,3.57,5.18,5.86,9.1,5.86s7.48-2.29,9.1-5.86l25.95-57h37.91c30.19,0,54.75,24.56,54.75,54.75V492H301
			c-5.52,0-10,4.48-10,10s4.48,10,10,10h92.72c5.52,0,10-4.48,10-10v-37.18c14.89-9.4,25.44-28.45,18.33-50.15L383.72,297.57z
			 M208.76,293.76h69.27c9.09,0,17.66-2.24,25.2-6.19v22.44c0,30.54-19.86,52.7-47.24,52.7c-26.05,0-47.24-21.19-47.24-47.24
			L208.76,293.76L208.76,293.76z M312.64,239.16c0,19.08-15.52,34.6-34.61,34.6h-69.27v-14.9c0-19.08,15.52-34.6,34.6-34.6h69.27
			V239.16z M256,434.8l-18.62-40.89v-13.84c5.92,1.71,12.16,2.64,18.62,2.64c6.51,0,12.74-0.92,18.62-2.62v13.82L256,434.8z
			 M400.83,440.31c-8.94-31.27-37.76-54.23-71.86-54.23h-34.35v-15.82c17.53-12.85,28.62-34.59,28.62-60.25v-40.25
			c5.93-8.73,9.4-19.27,9.4-30.6v-24.9c0-5.52-4.48-10-10-10h-79.27c-30.11,0-54.6,24.5-54.6,54.61v56.62
			c0,22.71,11.33,42.81,28.62,54.99v15.61h-34.34c-34.1,0-62.92,22.96-71.87,54.23c-3.34-5.25-4.64-12-2.21-19.42l40.6-124.04
			c1.35-4.13-0.12-8.67-3.64-11.21l-106.06-76.7c-10.08-7.29-10.99-18.18-8.48-25.95s9.63-16.06,22.07-16.06h130.89
			c4.34,0,8.18-2.8,9.52-6.92l40.07-123.95C237.75,24.22,247.84,20,256,20s18.25,4.22,22.08,16.07l40.07,123.95
			c1.33,4.13,5.18,6.92,9.52,6.92h130.89c12.44,0,19.56,8.29,22.07,16.06s1.61,18.65-8.48,25.95l-106.06,76.71
			c-3.52,2.55-5,7.08-3.64,11.21l40.6,124.04C405.47,428.32,404.17,435.06,400.83,440.31L400.83,440.31z"/>
		<path id="XMLID_192_" fill="#587CF8" d="M256,492c-2.63,0-5.21,1.07-7.07,2.93S246,499.37,246,502s1.07,5.21,2.93,7.07
			S253.37,512,256,512s5.21-1.07,7.07-2.93c1.86-1.86,2.93-4.44,2.93-7.07s-1.07-5.21-2.93-7.07C261.21,493.07,258.63,492,256,492z"
			/>
	</g>
</g>
</svg>
