<?xml version="1.0" encoding="utf-8"?>
<!-- Generator: Adobe Illustrator 25.0.0, SVG Export Plug-In . SVG Version: 6.00 Build 0)  -->
<svg version="1.1" xmlns="http://www.w3.org/2000/svg" xmlns:xlink="http://www.w3.org/1999/xlink" x="0px" y="0px"
	 viewBox="0 0 500 150.65" enable-background="new 0 0 500 150.65" xml:space="preserve">
<g id="BACKGROUND">
</g>
<g id="OBJECTS">
	<g>
		<path fill="#FFDD40" d="M66.99,22.96c-10.62,0-20.49,3.17-28.74,8.61l-3.23,84.91c8.83,6.85,19.92,10.93,31.96,10.93
			c28.84,0,52.22-23.38,52.22-52.22S95.83,22.96,66.99,22.96z"/>
		<path fill="#ADA2FF" d="M112.59,31.57H38.25c-5.4,3.56-10.1,8.1-13.84,13.37h74.81c6.22,0,11.32,5.09,11.32,11.32v47.23h2.05
			c6.22,0,11.32-5.09,11.32-11.32V42.89C123.9,36.67,118.81,31.57,112.59,31.57L112.59,31.57z"/>
		<path fill="#4D4DC1" d="M99.6,44.56H24.69c-6.24,8.6-9.92,19.18-9.92,30.62c0,16.8,7.93,31.75,20.26,41.3h38.8
			c2.28,0,4.39,1.09,5.78,2.9c10.94,10.59,29,12.05,21.97,3.92c-1.29-1.14-2.45-2.39-3.49-3.73c-0.97-1.26-0.09-3.09,1.5-3.09
			c6.22,0,11.32-5.09,11.32-11.32V55.88C110.91,49.65,105.82,44.56,99.6,44.56L99.6,44.56z"/>
		<path fill="#7373E0" d="M83.05,82.49l2.49-1.97V66.15c0,0-1.81-9.95-12.04-9.95s-17.8,0-17.8,0l-1.94,2.36
			c0,0-2.11,5.81,3.29,8.37c5.4,2.56,18.33,13.59,18.33,13.59S77.29,85.9,83.05,82.49z"/>
		<g>
			<path fill="#E9EFFF" d="M61.08,94.81c-7.88,0-14.29-6.41-14.29-14.29s6.41-14.29,14.29-14.29s14.29,6.41,14.29,14.29
				S68.96,94.81,61.08,94.81z M61.08,71.7c-4.86,0-8.82,3.96-8.82,8.82c0,4.86,3.96,8.82,8.82,8.82c4.86,0,8.82-3.96,8.82-8.82
				S65.95,71.7,61.08,71.7L61.08,71.7z"/>
		</g>
		<g>
			<path fill="#E9EFFF" d="M72.74,107.95H49.43c-8.7,0-15.77-7.08-15.77-15.77V68.86c0-8.7,7.08-15.77,15.77-15.77h23.31
				c8.7,0,15.77,7.08,15.77,15.77v23.31C88.51,100.87,81.44,107.95,72.74,107.95L72.74,107.95z M49.43,58.56
				c-5.68,0-10.3,4.62-10.3,10.3v23.31c0,5.68,4.62,10.3,10.3,10.3h23.31c5.68,0,10.3-4.62,10.3-10.3V68.86
				c0-5.68-4.62-10.3-10.3-10.3H49.43z"/>
		</g>
		<g>
			<ellipse fill="#E9EFFF" cx="75.51" cy="66.14" rx="2.82" ry="2.82"/>
		</g>
		<g>
			<path fill="#BEC8F7" d="M49.43,53.09c-8.7,0-15.77,7.08-15.77,15.77v23.31c0,8.7,7.08,15.77,15.77,15.77h18.84
				c-3.17-3.17,1.07-5.47,1.07-5.47H49.43c-5.68,0-10.3-4.62-10.3-10.3V68.86c0-5.68,4.62-10.3,10.3-10.3h4.33
				c-3.18-2-1.05-5.47-1.05-5.47L49.43,53.09z"/>
			<path fill="#BEC8F7" d="M64.85,88.49c-1.14,0.54-2.42,0.85-3.77,0.85c-4.86,0-8.82-3.96-8.82-8.82c0-3.95,2.61-7.31,6.2-8.42
				c-3.72-1.55-1.71-5.04-1.59-5.24c-5.83,1.8-10.09,7.24-10.09,13.66c0,7.88,6.41,14.29,14.29,14.29c2.26,0,4.4-0.53,6.3-1.47
				C64.04,92.37,64.44,89.76,64.85,88.49L64.85,88.49z"/>
		</g>
	</g>
	<g>
		<path fill="#282828" d="M174.49,72.39h9.19v17.64c-2.36,1.78-5.09,3.15-8.2,4.1s-6.23,1.43-9.38,1.43
			c-4.51,0-8.57-0.96-12.17-2.89c-3.6-1.92-6.43-4.6-8.48-8.01c-2.05-3.42-3.07-7.28-3.07-11.58c0-4.31,1.02-8.17,3.07-11.58
			c2.05-3.42,4.89-6.09,8.54-8.01s7.74-2.89,12.3-2.89c3.81,0,7.27,0.64,10.37,1.92c3.1,1.28,5.71,3.15,7.82,5.59l-6.46,5.96
			c-3.1-3.27-6.85-4.91-11.24-4.91c-2.77,0-5.24,0.58-7.39,1.74c-2.15,1.16-3.83,2.79-5.03,4.91c-1.2,2.11-1.8,4.53-1.8,7.27
			c0,2.69,0.6,5.09,1.8,7.2c1.2,2.11,2.87,3.76,5,4.94c2.13,1.18,4.56,1.77,7.3,1.77c2.9,0,5.51-0.62,7.82-1.86V72.39z"/>
		<path fill="#282828" d="M204.7,62.15c1.97-0.83,4.23-1.24,6.8-1.24v8.94c-1.08-0.08-1.8-0.12-2.17-0.12
			c-2.77,0-4.95,0.78-6.52,2.33c-1.57,1.55-2.36,3.88-2.36,6.99v15.77h-9.69V61.4h9.25v4.41C201.17,64.2,202.74,62.97,204.7,62.15z"
			/>
		<path fill="#282828" d="M240.94,64.6c2.77,2.46,4.16,6.18,4.16,11.15v19.06h-9.07v-4.16c-1.82,3.1-5.22,4.66-10.18,4.66
			c-2.57,0-4.79-0.43-6.67-1.3c-1.88-0.87-3.32-2.07-4.32-3.6c-0.99-1.53-1.49-3.27-1.49-5.22c0-3.1,1.17-5.55,3.51-7.33
			c2.34-1.78,5.95-2.67,10.84-2.67h7.7c0-2.11-0.64-3.74-1.93-4.87c-1.28-1.14-3.21-1.71-5.77-1.71c-1.78,0-3.53,0.28-5.25,0.84
			c-1.72,0.56-3.18,1.31-4.38,2.27l-3.48-6.77c1.82-1.28,4-2.28,6.55-2.98c2.55-0.7,5.16-1.06,7.86-1.06
			C234.19,60.9,238.16,62.14,240.94,64.6z M232.68,87.64c1.28-0.77,2.19-1.89,2.73-3.38v-3.42h-6.64c-3.97,0-5.96,1.3-5.96,3.91
			c0,1.24,0.49,2.23,1.46,2.95c0.97,0.73,2.31,1.09,4.01,1.09C229.93,88.79,231.39,88.4,232.68,87.64z"/>
		<path fill="#282828" d="M305.05,64.6c2.46,2.46,3.69,6.16,3.69,11.08v19.13h-9.69V77.17c0-2.65-0.55-4.63-1.65-5.93
			s-2.66-1.96-4.69-1.96c-2.28,0-4.08,0.74-5.4,2.2c-1.32,1.47-1.99,3.65-1.99,6.55v16.77h-9.69V77.17c0-5.26-2.11-7.89-6.33-7.89
			c-2.24,0-4.02,0.74-5.34,2.2c-1.33,1.47-1.99,3.65-1.99,6.55v16.77h-9.69V61.4h9.25v3.85c1.24-1.41,2.76-2.48,4.56-3.23
			c1.8-0.75,3.78-1.12,5.93-1.12c2.36,0,4.49,0.47,6.4,1.4c1.9,0.93,3.44,2.29,4.6,4.07c1.37-1.74,3.09-3.08,5.18-4.04
			c2.09-0.95,4.38-1.43,6.86-1.43C299.27,60.9,302.59,62.14,305.05,64.6z"/>
		<path fill="#282828" d="M349.11,73.08h4.41v16.58c-2.03,1.78-4.43,3.15-7.2,4.1c-2.77,0.95-5.69,1.43-8.76,1.43
			c-4.35,0-8.26-0.95-11.74-2.86c-3.48-1.9-6.21-4.54-8.2-7.92c-1.99-3.37-2.98-7.15-2.98-11.33c0-4.18,0.99-7.96,2.98-11.33
			c1.99-3.37,4.72-6.01,8.2-7.92c3.48-1.9,7.41-2.86,11.8-2.86c3.31,0,6.35,0.53,9.13,1.58c2.77,1.06,5.11,2.62,7.02,4.69
			l-2.86,2.92c-3.44-3.39-7.8-5.09-13.1-5.09c-3.52,0-6.7,0.78-9.53,2.33c-2.84,1.55-5.06,3.71-6.68,6.46
			c-1.61,2.75-2.42,5.83-2.42,9.22s0.81,6.46,2.42,9.19c1.61,2.73,3.83,4.89,6.64,6.46c2.82,1.57,5.98,2.36,9.5,2.36
			c4.47,0,8.26-1.12,11.36-3.35V73.08z"/>
		<path fill="#282828" d="M392.46,79.84h-27.32c0.25,3.4,1.55,6.14,3.91,8.23c2.36,2.09,5.34,3.14,8.94,3.14
			c2.03,0,3.89-0.36,5.59-1.09c1.7-0.72,3.17-1.79,4.41-3.2l2.49,2.86c-1.45,1.74-3.26,3.06-5.43,3.97
			c-2.17,0.91-4.56,1.37-7.17,1.37c-3.35,0-6.32-0.71-8.91-2.14c-2.59-1.43-4.61-3.4-6.05-5.93c-1.45-2.52-2.17-5.38-2.17-8.57
			c0-3.19,0.69-6.04,2.08-8.57c1.39-2.52,3.29-4.49,5.71-5.9c2.42-1.41,5.14-2.11,8.17-2.11c3.02,0,5.73,0.7,8.14,2.11
			c2.4,1.41,4.29,3.36,5.65,5.87c1.37,2.51,2.05,5.37,2.05,8.6L392.46,79.84z M368.77,68.7c-2.13,2.01-3.34,4.63-3.63,7.86h23.16
			c-0.29-3.23-1.5-5.85-3.63-7.86c-2.13-2.01-4.79-3.01-7.98-3.01C373.54,65.69,370.9,66.69,368.77,68.7z"/>
		<path fill="#282828" d="M426.39,65.47c2.42,2.38,3.63,5.85,3.63,10.4v18.94h-4.41V76.3c0-3.39-0.85-5.98-2.55-7.76
			c-1.7-1.78-4.12-2.67-7.26-2.67c-3.52,0-6.3,1.05-8.35,3.14c-2.05,2.09-3.07,4.98-3.07,8.66v17.14h-4.41V62.15h4.22v6.02
			c1.2-1.99,2.87-3.53,5-4.63c2.13-1.1,4.61-1.65,7.42-1.65C420.71,61.9,423.97,63.09,426.39,65.47z"/>
		<path fill="#282828" d="M440.4,54.07c-0.62-0.62-0.93-1.37-0.93-2.24c0-0.83,0.31-1.55,0.93-2.17c0.62-0.62,1.39-0.93,2.3-0.93
			c0.91,0,1.68,0.3,2.3,0.9c0.62,0.6,0.93,1.31,0.93,2.14c0,0.91-0.31,1.68-0.93,2.3c-0.62,0.62-1.39,0.93-2.3,0.93
			C441.78,55,441.02,54.69,440.4,54.07z M440.46,62.15h4.41v32.66h-4.41V62.15z"/>
		<path fill="#282828" d="M484.05,79.84h-27.32c0.25,3.4,1.55,6.14,3.91,8.23c2.36,2.09,5.34,3.14,8.94,3.14
			c2.03,0,3.89-0.36,5.59-1.09c1.7-0.72,3.17-1.79,4.41-3.2l2.49,2.86c-1.45,1.74-3.26,3.06-5.43,3.97
			c-2.17,0.91-4.56,1.37-7.17,1.37c-3.35,0-6.33-0.71-8.91-2.14c-2.59-1.43-4.61-3.4-6.05-5.93c-1.45-2.52-2.17-5.38-2.17-8.57
			c0-3.19,0.69-6.04,2.08-8.57c1.39-2.52,3.29-4.49,5.71-5.9c2.42-1.41,5.14-2.11,8.17-2.11c3.02,0,5.73,0.7,8.14,2.11
			c2.4,1.41,4.29,3.36,5.65,5.87c1.37,2.51,2.05,5.37,2.05,8.6L484.05,79.84z M460.36,68.7c-2.13,2.01-3.34,4.63-3.63,7.86h23.16
			c-0.29-3.23-1.5-5.85-3.63-7.86c-2.13-2.01-4.79-3.01-7.98-3.01C465.13,65.69,462.49,66.69,460.36,68.7z"/>
	</g>
</g>
</svg>
