<?xml version="1.0" encoding="utf-8"?>
<!-- Generator: Adobe Illustrator 25.0.0, SVG Export Plug-In . SVG Version: 6.00 Build 0)  -->
<svg version="1.1" id="Layer_1" xmlns="http://www.w3.org/2000/svg" xmlns:xlink="http://www.w3.org/1999/xlink" x="0px" y="0px"
	 viewBox="0 0 500 500" enable-background="new 0 0 500 500" xml:space="preserve">
<g>
	<g id="freepik--background-complete--inject-36">
		<path fill="#E0E0E0" d="M398.78,332.97c6.61-2.85,10.89-9.38,10.87-16.58c0.13-9.95-7.33-18.12-16.67-18.24s-17,7.85-17.12,17.8
			c-0.2,7.28,4,13.96,10.64,16.93c-26,3.69-25.1,32-25.1,32l61.49,0.81C422.89,365.69,424.5,337.08,398.78,332.97z"/>
		<path fill="#E0E0E0" d="M54.12,277.76l3.66-0.77l5.62-12.82l-1.54-7.29c0,0,5.58-1.54,6.94,8.16c1.36,9.7,1.56,7.11,1.56,7.11
			s12-2.49,13.23-1.66c0.89,0.6,3.74,12.45,5.24,18.89c0.84,3.18-0.59,6.52-3.47,8.11c-0.4,0.2-0.82,0.35-1.25,0.45
			c-3,0.63-18.81,1.44-18.81,1.44l-6.32,1.34L54.12,277.76z"/>
		<polygon fill="#E0E0E0" points="43.23,277.98 50.78,302.52 57.04,301.19 51.85,276.68 		"/>
		<path fill="#EBEBEB" d="M190.55,139.88h-43.38c-1.89,0-3.42,1.53-3.42,3.42v28.75c0,1.89,1.53,3.42,3.42,3.42h22.84l10.86,10.85
			v-10.81h9.68c1.4-0.01,2.53-1.14,2.53-2.54v-30.51c0.02-1.4-1.1-2.56-2.5-2.58C190.57,139.88,190.56,139.88,190.55,139.88z"/>
		<circle fill="#FAFAFA" cx="178.71" cy="158.32" r="2.55"/>
		<path fill="#FAFAFA" d="M166.06,158.32c-0.01,1.41,1.14,2.56,2.55,2.57s2.56-1.14,2.57-2.55c0.01-1.41-1.14-2.56-2.55-2.57
			c-0.01,0-0.01,0-0.02,0C167.2,155.77,166.06,156.91,166.06,158.32L166.06,158.32z"/>
		<circle fill="#FAFAFA" cx="158.52" cy="158.32" r="2.55"/>
		<path fill="#E0E0E0" d="M448.5,78.77c-0.48-2.4-2.82-3.96-5.23-3.48c-1.85,0.37-3.26,1.87-3.52,3.74
			c-0.37-2.42-2.63-4.09-5.05-3.73c-1.86,0.28-3.34,1.7-3.7,3.55c-0.21,1.53,0.18,3.07,1.08,4.32c0.9,1.23,1.94,2.34,3.12,3.3
			c1.6,1.42,3.07,2.75,4.66,4.17c1.58-1.43,2.92-2.78,4.5-4.21c1.17-0.97,2.21-2.09,3.1-3.33C448.34,81.85,448.72,80.3,448.5,78.77z
			"/>
	</g>
	<g id="freepik--Character--inject-36">
		<path fill="#587CF8" d="M313.26,459.96L282.73,347.5l-90.84-0.87c-9,32.71-14.35,74.44-16.78,113.33"/>
		<path fill="#FAFAFA" d="M212.42,429.82c0.9,0.51,1.87,0.88,2.87,1.12c3.64,0.68,7.14-1.73,7.81-5.36
			c0.25-1.37,0.08-2.78-0.51-4.05c-0.47-0.92-1.07-1.76-1.79-2.5c0,0,0.29,0.13,0.7,0.49c0.59,0.52,1.07,1.15,1.43,1.85
			c0.53,1.05,0.79,2.22,0.74,3.4c-0.06,1.45-0.56,2.85-1.45,4c-0.9,1.14-2.13,1.98-3.52,2.4c-1.13,0.34-2.33,0.38-3.48,0.12
			c-0.77-0.17-1.5-0.49-2.15-0.92C212.62,430.06,212.4,429.88,212.42,429.82z"/>
		<path fill="#FAFAFA" d="M242.9,402.12c-0.51-0.3-1.1-0.44-1.69-0.39c-0.6,0.11-1.11,0.51-1.37,1.07c-0.41,0.91,0,1.97,0.9,2.38
			c0.47,0.21,1.01,0.21,1.48,0c0.56-0.25,0.96-0.77,1.07-1.37C243.33,403.22,243.2,402.63,242.9,402.12c0,0,0.18,0.07,0.39,0.35
			c0.29,0.4,0.42,0.9,0.36,1.39c-0.07,0.76-0.54,1.42-1.23,1.75c-1.12,0.54-2.46,0.06-3-1.06c-0.29-0.61-0.29-1.33,0-1.94
			c0.33-0.69,0.99-1.15,1.75-1.23c0.49-0.06,0.99,0.07,1.39,0.36C242.83,401.94,242.92,402.11,242.9,402.12z"/>
		<path fill="#FAFAFA" d="M261,447.43c-0.51-0.3-1.1-0.44-1.69-0.39c-0.6,0.11-1.12,0.51-1.37,1.07c-0.41,0.91,0,1.97,0.9,2.38
			c0.47,0.21,1.01,0.21,1.48,0c0.56-0.26,0.96-0.77,1.07-1.37C261.43,448.53,261.3,447.94,261,447.43c0,0,0.18,0.07,0.39,0.35
			c0.29,0.4,0.41,0.89,0.36,1.38c-0.09,0.75-0.56,1.4-1.25,1.72c-1.12,0.54-2.46,0.06-3-1.06c-0.29-0.61-0.29-1.33,0-1.94
			c0.33-0.69,0.99-1.16,1.75-1.23c0.49-0.06,0.99,0.07,1.39,0.36C260.93,447.25,261.02,447.41,261,447.43z"/>
		<path fill="#FAFAFA" d="M190.2,420.94c0,0.05-0.37,0.05-1,0.23c-0.88,0.26-1.65,0.8-2.19,1.54c-1.31,1.78-0.93,4.28,0.85,5.59
			c0.68,0.5,1.5,0.77,2.34,0.78c2.21-0.01,3.99-1.81,3.98-4.02c0-0.85-0.28-1.67-0.78-2.35c-0.55-0.74-1.32-1.28-2.2-1.54
			C190.58,420.99,190.2,420.99,190.2,420.94c0.34-0.08,0.71-0.08,1.05,0c0.97,0.2,1.83,0.74,2.44,1.52
			c0.93,1.18,1.19,2.75,0.69,4.17c-0.82,2.31-3.35,3.51-5.66,2.69c-1.26-0.45-2.25-1.44-2.69-2.69c-0.5-1.42-0.24-2.99,0.69-4.17
			c0.6-0.78,1.47-1.32,2.43-1.52C189.49,420.86,189.85,420.86,190.2,420.94z"/>
		<path fill="#FAFAFA" d="M257.17,421.79c0,0-0.38,0-1,0.23c-0.88,0.26-1.65,0.8-2.2,1.54c-1.33,1.76-0.98,4.27,0.79,5.6
			c1.76,1.33,4.27,0.98,5.6-0.79c1.07-1.42,1.07-3.39,0-4.81c-0.54-0.74-1.31-1.28-2.19-1.54
			C257.54,421.84,257.17,421.84,257.17,421.79c0.35-0.08,0.7-0.08,1.05,0c0.97,0.2,1.83,0.73,2.44,1.51
			c0.92,1.18,1.18,2.76,0.68,4.17c-0.81,2.3-3.33,3.51-5.64,2.7c-1.27-0.44-2.26-1.44-2.7-2.7c-0.5-1.41-0.24-2.99,0.68-4.17
			c0.61-0.78,1.47-1.31,2.44-1.51C256.46,421.71,256.82,421.71,257.17,421.79z"/>
		<circle fill="#FAFAFA" cx="195.58" cy="446.25" r="2.03"/>
		<circle fill="#FAFAFA" cx="232.51" cy="388.43" r="2.03"/>
		<circle fill="#FAFAFA" cx="272.51" cy="402.12" r="2.03"/>
		<path fill="#FAFAFA" d="M225.26,399.42c-0.1,0.22-0.22,0.42-0.36,0.62l-1.13,1.69l-4.17,6.09l-0.16,0.23l-0.17-0.23
			c-1.77-2.38-3.86-5.19-6.12-8.25h0.4l-3.24,4.31l-2.94,4l-0.22,0.29l-0.2-0.3l-5.58-8.3h0.33l-5.24,6l-1.47,1.63
			c-0.17,0.2-0.36,0.39-0.56,0.55c0.14-0.22,0.29-0.43,0.46-0.63l1.39-1.71l5.1-6.08l0.18-0.21l0.16,0.23
			c1.66,2.43,3.58,5.22,5.65,8.26h-0.41l2.93-3.94l3.26-4.34l0.2-0.28l0.21,0.28l6,8.31h-0.34l4.32-6l1.22-1.63
			C224.9,399.8,225.06,399.6,225.26,399.42z"/>
		<path fill="#FAFAFA" d="M245.38,438.69c-0.04,0.24-0.11,0.47-0.2,0.69c-0.19,0.49-0.42,1.13-0.71,1.9l-2.66,6.88l-0.11,0.27
			l-0.22-0.19l-7.85-6.62l0.4-0.1c-0.7,1.6-1.42,3.27-2.16,5l-2,4.5l-0.15,0.33l-0.26-0.24c-2.7-2.5-5.18-4.81-7.34-6.8l0.33-0.06
			l-3.73,7c-0.43,0.79-0.79,1.43-1.07,1.93c-0.11,0.23-0.25,0.46-0.41,0.66c0.08-0.25,0.18-0.49,0.3-0.72l1-2
			c0.89-1.77,2.11-4.18,3.57-7.09l0.13-0.25l0.21,0.19l7.39,6.74l-0.4,0.09l1.95-4.5c0.75-1.71,1.47-3.38,2.17-5l0.14-0.32
			l0.26,0.23l7.79,6.7l-0.33,0.08c1.17-2.8,2.13-5.12,2.83-6.81l0.81-1.87C245.14,439.09,245.25,438.89,245.38,438.69z"/>
		<path fill="#FAFAFA" d="M279.81,420.94c0.21,0.11,0.42,0.24,0.6,0.39l1.63,1.21l5.86,4.48l0.23,0.17l-0.24,0.16l-8.55,5.69v-0.41
			l4.18,3.47l3.77,3.14l0.28,0.23l-0.31,0.18l-8.58,5.15v-0.33l5.68,5.54l1.56,1.56c0.2,0.17,0.37,0.36,0.51,0.58
			c-0.21-0.15-0.41-0.31-0.6-0.49l-1.63-1.48l-5.82-5.4l-0.2-0.19l0.24-0.15l8.53-5.23v0.42l-3.77-3.13
			c-1.44-1.19-2.83-2.36-4.18-3.47l-0.26-0.23l0.29-0.18l8.6-5.61v0.33c-2.37-1.89-4.32-3.47-5.75-4.62l-1.57-1.29
			C279.98,421.12,279.79,420.96,279.81,420.94z"/>
		<g opacity="0.2">
			<polygon points="178.31,422.61 300.64,413.49 297.99,403.71 180.66,403.71 			"/>
		</g>
		<path fill="#263238" d="M242.56,451.48c-0.14,0-0.17-8.46-0.06-18.89s0.33-18.89,0.47-18.88s0.17,8.45,0.06,18.88
			S242.7,451.48,242.56,451.48z"/>
		<path fill="#263238" d="M268.11,451.48c-0.18-0.43-0.33-0.88-0.44-1.34c-0.27-1-0.62-2.21-1-3.7c-0.86-3.12-2.07-7.42-3.46-12.16
			s-2.73-9-3.7-12.09l-1.14-3.66c-0.16-0.44-0.28-0.9-0.36-1.36c0.23,0.41,0.41,0.84,0.55,1.29c0.32,0.85,0.77,2.08,1.3,3.61
			c1.06,3.07,2.44,7.32,3.85,12.07s2.54,9.06,3.31,12.21c0.39,1.57,0.69,2.85,0.88,3.74C268.01,450.55,268.09,451.01,268.11,451.48z
			"/>
		<polygon fill="#F5F5F5" points="369.95,303.15 351.76,315 351.76,132.37 369.95,132.37 		"/>
		<path fill="#E0E0E0" d="M351.66,292.47c8.34-25.59,4.61-54.18,13.84-79.59c0.88-2.44,1.9-4.94,1.64-7.49
			c-0.33-2.21-1.3-4.27-2.8-5.93c-1.64-2-4.09-3.78-6.89-3.59c-2.32,0.25-4.35,1.69-5.33,3.81c-0.77,1.96-1.11,4.06-1,6.16
			c-0.15,7.77-0.11,15.54-0.06,23.3c0.1,19.55,0.2,39.1,0.31,58.63"/>
		<polygon fill="#E0E0E0" points="351.59,179 351.59,172.24 369.78,167.03 369.78,174.83 		"/>
		<path fill="#FECAD0" d="M131.11,207.07c0,0-1.31-10.16-0.72-13.75c0.63-3.82,7-11.91,7-11.91c-0.09-0.35-1.14-1.23-4.4,0
			s-4.4,3.52-7.49,5.72l-15.82-9.81l-5.18,16.56l13.44,21.16L131.11,207.07z"/>
		<path fill="#263238" d="M201,168.22c-8.17,8-0.32,20.45-5.56,28.49c-3.17,4.87-10,7.23-11.43,12.85
			c-0.72,2.79,0.09,5.71,0.52,8.55s0.33,6.12-1.74,8.12c-1.05,0.82-2.14,1.57-3.29,2.25c-3.2,2.35-4.28,6.73-3.92,10.68
			s1.9,7.67,3,11.49c3.03,10.85,2.36,22.41-1.91,32.84c3.8,0.02,7.4-1.71,9.76-4.69c-0.09,2.65-0.19,5.29-0.29,7.94
			c3.52,0.22,6.92-1.67,9.27-4.3c2.23-2.74,3.92-5.88,5-9.24c5.54-14.93,7.37-30.99,5.32-46.78"/>
		<path fill="#263238" d="M268.42,145.36c4.67,6.93,6.62,15.33,5.49,23.6c-0.65,4.65-2.26,9.48-0.66,13.9c1.37,3.8,5,6.9,4.83,10.94
			c-0.23,4.6-5.42,7.71-5.88,12.29c-0.65,6.35,7.87,10.62,7.78,17c-0.05,3.29-2.41,6-4,8.86s-2.36,7,0.2,9.05l-29.68-2.12
			l5.28-92.79L268.42,145.36z"/>
		<path fill="#FECAD0" d="M355.25,224.41h-0.33l1.31-4.37l4.19-16.7c0.38-1.55-0.49-3.13-2-3.64l-3-0.1l-10.31-4.83
			c-1.66-0.65-3.52,0.17-4.17,1.83c-0.08,0.22-0.14,0.44-0.18,0.67c-0.38,3.07-2.47,11.31-4.69,8.42c0-0.06-0.11-0.12-0.16-0.19
			c-3.12-4.29-7-6.61-8.61-6.55c-0.99,0.09-1.72,0.96-1.63,1.95c0.04,0.43,0.23,0.84,0.54,1.14c0.16,0.21,0.36,0.38,0.59,0.51
			c0.1,0.05,0.22,0.15,0.33,0.22c1.38,1.23,2.62,2.6,3.72,4.08c1,1.3,1.77,2.77,2.27,4.34c0.55,1.74,1,3.25,1.27,4.54l-0.8,8.53"/>
		<path fill="#455A64" d="M327.73,148.76c0,0,12-2.31,29.37-18s25.84-37,27.9-36.87s11.19-3.76,27.27,34s9.08,46.22,5.67,46.05
			s-26.37-7.27-40.88-6s-33.31,8.25-33.31,8.25L327.73,148.76z"/>
		<path fill="#263238" d="M301.7,168.36l3.87,7.88l1.73,3.53c2.37,4.85,8.13,6.99,13.09,4.87l25.93-8.22l-14-34.56l-26,13
			C301.34,157.34,299.28,163.36,301.7,168.36z"/>
		<path fill="#263238" d="M316.15,181.22l7.73,16.26l4.13-1l26.1,22.5l7.88-14.41c0,0-15.6-7.25-18.36-13s0.65-6.9,0.65-6.9
			l-7.19-8.65L316.15,181.22z"/>
		<path fill="#263238" d="M410.87,128.49c8.54,20.45,11.83,38.55,7.33,40.42s-15.06-13.17-23.61-33.62s-11.83-38.55-7.33-40.41
			S402.32,108.04,410.87,128.49z"/>
		<polygon fill="#455A64" points="299.18,179.52 306.2,177.53 302.13,169.22 296.82,172.32 		"/>
		<polygon fill="#455A64" points="339.56,179 320.52,190.4 318.31,185.76 		"/>
		<polygon fill="#455A64" points="302.13,169.22 306.2,177.53 304.76,177.94 301.49,169.59 		"/>
		<path fill="#455A64" d="M306.87,171.25c0.1,0.23,3.61-1,7.84-2.8s7.6-3.39,7.5-3.62s-3.6,1-7.84,2.8S306.78,171.02,306.87,171.25z
			"/>
		<path fill="#455A64" d="M304.87,166.31c0.1,0.23,3.28-1,7.1-2.76s6.84-3.35,6.73-3.57s-3.28,1-7.1,2.76
			S304.77,166.09,304.87,166.31z"/>
		<path fill="#455A64" d="M309.42,176.44c0,0.12,0.87-0.05,2.2-0.42c0.66-0.18,1.45-0.42,2.33-0.69s1.77-0.71,2.73-1.12
			c3.86-1.66,6.82-3.31,6.73-3.51s-3.26,1-7.08,2.69c-1,0.4-1.85,0.85-2.68,1.17s-1.6,0.6-2.23,0.86
			C310.16,175.94,309.39,176.32,309.42,176.44z"/>
		<path fill="#455A64" d="M392.4,123.47c0,0,10.6-6.16,15.89,8.07s-5.72,16.23-5.72,16.23C398.05,140.19,394.62,132.01,392.4,123.47
			z"/>
		<path fill="#263238" d="M381.8,106.39c0.03,0.91,0.15,1.81,0.34,2.7c0.28,1.73,0.67,4.24,1.25,7.32c0.4,1.52,0.83,3.18,1.3,5
			c0.24,0.9,0.48,1.82,0.73,2.77c0.13,0.47,0.26,1,0.39,1.44s0.33,1,0.49,1.46c0.7,2,1.43,4,2.18,6.13
			c0.19,0.53,0.38,1.07,0.58,1.61s0.46,1.06,0.69,1.59c0.47,1.07,1,2.15,1.45,3.24s1,2.17,1.46,3.23c0.25,0.53,0.46,1.07,0.74,1.57
			s0.56,1,0.83,1.5l3.16,5.69c0.26,0.46,0.49,0.91,0.76,1.34l0.83,1.25l1.59,2.38l2.87,4.26c1.92,2.47,3.53,4.42,4.64,5.77
			c0.54,0.72,1.15,1.39,1.81,2c-0.44-0.79-0.96-1.55-1.53-2.25c-1.07-1.44-2.58-3.46-4.42-5.95c-0.85-1.31-1.77-2.75-2.76-4.29
			c-0.49-0.77-1-1.56-1.54-2.38l-0.8-1.25c-0.26-0.42-0.49-0.88-0.74-1.33c-1-1.81-2-3.72-3.09-5.69l-0.82-1.48
			c-0.28-0.5-0.48-1-0.73-1.57l-1.44-3.21c-0.49-1.08-1-2.15-1.45-3.21c-0.23-0.53-0.5-1-0.69-1.58s-0.39-1.07-0.58-1.59
			c-0.77-2.11-1.51-4.13-2.21-6.08c-0.17-0.49-0.37-1-0.52-1.44s-0.26-1-0.4-1.43c-0.26-0.94-0.52-1.85-0.77-2.73
			c-0.5-1.77-0.96-3.4-1.39-4.91l-1.51-7.24C382.34,108.13,382.11,107.25,381.8,106.39z"/>
		<path fill="#587CF8" d="M329.98,220.82l-5.22,46.34l-26.05-26c0,0-13.94,29-14.13,30.17c-0.13,0.79,14.62,15.37,25.58,23.78
			c5.93,4.56,13.94,11.61,21.33,10.42c12.32-2,19.64-10.11,20.71-22.55l4.72-61.48L329.98,220.82z"/>
		<path fill="#587CF8" d="M193.61,263.88l-19.11-12.7c5.23-29.37,47.65-32.31,47.65-32.31l32.3-0.57c0,0,23.94-3.26,38.74,13.38
			c15.31,17.2,26.86,30.78,26.86,30.78l-21,22.94l-20.55-16.13c3.16,4.56,4.9,9.96,5,15.51c0,9.56-7.13,18.7-7.13,18.7l-1.78,16.33
			l7.91,31.65l-91.49,0.25c6.23-9.89,10.7-18.45,16.25-33.07l-8.55-30.76L193.61,263.88z"/>
		<path fill="#587CF8" d="M195,227.62l-46.34,24.52l-16.77-45.81l-20.46,9.73l14.47,58.31c2.88,11.59,15.15,18.56,26.36,14.43
			c0.38-0.14,0.75-0.29,1.12-0.45l50.22-21.74L195,227.62z"/>
		<path fill="#FAFAFA" d="M225.85,263.63c-1.02,0.16-2.01,0.45-2.95,0.88c-3.29,1.71-4.57,5.76-2.86,9.05
			c0.64,1.23,1.64,2.23,2.86,2.86c0.94,0.43,1.93,0.72,2.95,0.88c-0.28,0.06-0.57,0.06-0.85,0c-0.78-0.06-1.55-0.26-2.26-0.59
			c-1.07-0.5-1.99-1.27-2.68-2.23c-1.73-2.43-1.73-5.69,0-8.12c0.69-0.96,1.61-1.72,2.68-2.22c0.71-0.34,1.48-0.54,2.26-0.59
			C225.28,263.52,225.57,263.55,225.85,263.63z"/>
		<path fill="#FAFAFA" d="M258.5,279.56c0.47,0.92,1.07,1.76,1.79,2.5c0.8,0.76,1.78,1.31,2.84,1.61c2.66,0.75,5.51-0.23,7.16-2.45
			c0.66-0.88,1.09-1.91,1.26-3c0.11-1.03,0.07-2.06-0.12-3.08c0.15,0.25,0.26,0.52,0.32,0.8c0.2,0.76,0.25,1.55,0.17,2.33
			c-0.13,1.17-0.56,2.29-1.24,3.25c-1.74,2.42-4.82,3.48-7.68,2.63c-1.14-0.33-2.18-0.95-3-1.81c-0.55-0.56-0.99-1.22-1.3-1.94
			C258.58,280.14,258.51,279.85,258.5,279.56z"/>
		<path fill="#FAFAFA" d="M235.07,331.72c0.9,0.51,1.86,0.89,2.87,1.12c3.65,0.67,7.14-1.75,7.81-5.39
			c0.25-1.36,0.07-2.76-0.51-4.02c-0.47-0.92-1.07-1.76-1.79-2.5c0,0,0.28,0.13,0.7,0.49c0.59,0.52,1.07,1.15,1.42,1.85
			c0.54,1.05,0.8,2.22,0.75,3.4c-0.06,1.45-0.56,2.85-1.45,4c-0.9,1.14-2.13,1.98-3.52,2.4c-1.13,0.34-2.33,0.38-3.48,0.12
			c-0.77-0.17-1.5-0.49-2.15-0.92C235.27,331.96,235.05,331.75,235.07,331.72z"/>
		<path fill="#FAFAFA" d="M331.22,251.51c0.9,0.5,1.87,0.88,2.87,1.11c3.65,0.66,7.14-1.75,7.8-5.4c0.25-1.35,0.07-2.75-0.5-4
			c-0.47-0.92-1.07-1.77-1.79-2.51c0.26,0.12,0.5,0.28,0.7,0.49c0.59,0.52,1.07,1.16,1.42,1.86c0.54,1.04,0.8,2.21,0.75,3.39
			c-0.12,2.99-2.13,5.57-5,6.42c-1.13,0.33-2.32,0.37-3.47,0.11c-0.77-0.16-1.5-0.47-2.15-0.91
			C331.6,251.92,331.39,251.74,331.22,251.51z"/>
		<path fill="#FAFAFA" d="M339.9,298.28c-0.22-1.01-0.59-1.98-1.08-2.88c-0.58-0.95-1.38-1.74-2.33-2.3
			c-3.19-1.88-7.31-0.81-9.18,2.38c-0.14,0.23-0.26,0.47-0.36,0.72c-0.36,0.96-0.59,1.97-0.68,3c-0.09-0.27-0.12-0.56-0.1-0.85
			c0.01-0.79,0.16-1.57,0.44-2.3c0.42-1.09,1.11-2.06,2-2.81c2.95-2.44,7.33-2.03,9.77,0.93c0.28,0.33,0.52,0.69,0.73,1.07
			c0.39,0.69,0.64,1.44,0.74,2.22C339.91,297.73,339.93,298.01,339.9,298.28z"/>
		<path fill="#FAFAFA" d="M269.21,239.49c0.67,0.77,1.44,1.44,2.3,2c0.95,0.56,2.03,0.88,3.13,0.93c3.7,0.17,6.84-2.69,7.01-6.39
			c0.01-0.27,0.01-0.54-0.01-0.81c-0.12-1.03-0.39-2.04-0.8-3c0.2,0.2,0.37,0.44,0.48,0.7c0.37,0.7,0.61,1.46,0.69,2.24
			c0.14,1.17-0.02,2.35-0.48,3.44c-1.16,2.75-3.93,4.47-6.91,4.27c-1.18-0.08-2.31-0.46-3.3-1.1c-0.66-0.43-1.23-0.97-1.69-1.61
			C269.31,239.79,269.18,239.51,269.21,239.49z"/>
		<path fill="#FAFAFA" d="M178.37,264.44c0.67,0.77,1.44,1.45,2.3,2c3.19,1.89,7.3,0.85,9.2-2.34c0.7-1.18,1.02-2.55,0.92-3.92
			c-0.12-1.03-0.39-2.04-0.8-3c0.2,0.21,0.36,0.45,0.48,0.71c0.36,0.7,0.6,1.45,0.69,2.23c0.14,1.17-0.03,2.36-0.49,3.45
			c-1.16,2.75-3.93,4.46-6.9,4.27c-1.18-0.08-2.31-0.46-3.3-1.1c-0.66-0.43-1.23-0.97-1.69-1.61
			C178.5,264.73,178.34,264.45,178.37,264.44z"/>
		<path fill="#FAFAFA" d="M141.5,266.28c0.48-0.92,0.81-1.9,1-2.92c0.49-3.67-2.08-7.05-5.76-7.54c-1.37-0.18-2.76,0.06-3.98,0.69
			c-0.89,0.51-1.7,1.16-2.41,1.91c0,0,0.11-0.29,0.45-0.72c0.49-0.61,1.1-1.13,1.79-1.51c1.02-0.59,2.18-0.9,3.36-0.91
			c1.45,0,2.88,0.44,4.07,1.27c1.19,0.84,2.08,2.03,2.56,3.4c0.39,1.11,0.49,2.31,0.29,3.47c-0.14,0.77-0.42,1.51-0.82,2.19
			C141.77,266.07,141.56,266.3,141.5,266.28z"/>
		<path fill="#FAFAFA" d="M244.87,272.55c-0.51-0.3-1.09-0.44-1.68-0.39c-0.61,0.11-1.12,0.51-1.37,1.07c-0.41,0.91,0,1.97,0.9,2.38
			c0.47,0.21,1.01,0.21,1.48,0c0.56-0.25,0.95-0.77,1.06-1.37C245.31,273.65,245.18,273.06,244.87,272.55c0,0,0.19,0.07,0.4,0.35
			c0.28,0.4,0.41,0.9,0.36,1.39c-0.08,0.76-0.54,1.42-1.23,1.75c-1.13,0.52-2.48,0.03-3-1.1c-0.28-0.6-0.28-1.3,0-1.9
			c0.33-0.69,1-1.16,1.76-1.23c0.49-0.06,0.99,0.07,1.39,0.36C244.8,272.37,244.89,272.53,244.87,272.55z"/>
		<path fill="#FAFAFA" d="M276.97,256.88c-0.51-0.31-1.1-0.45-1.69-0.39c-0.61,0.11-1.12,0.51-1.37,1.07
			c-0.4,0.91,0.01,1.97,0.92,2.37c0.46,0.2,0.99,0.2,1.46,0c0.56-0.25,0.96-0.77,1.07-1.37
			C277.4,257.98,277.27,257.39,276.97,256.88c0,0,0.18,0.07,0.39,0.34c0.29,0.4,0.42,0.9,0.36,1.39c-0.08,0.76-0.54,1.42-1.23,1.76
			c-1.13,0.52-2.48,0.03-3-1.1c-0.28-0.6-0.28-1.3,0-1.9c0.33-0.69,0.99-1.15,1.75-1.23c0.49-0.05,0.99,0.08,1.39,0.37
			C276.9,256.71,276.99,256.88,276.97,256.88z"/>
		<path fill="#FAFAFA" d="M346.66,230.88c-0.51-0.3-1.09-0.44-1.68-0.39c-0.61,0.11-1.12,0.51-1.38,1.07c-0.41,0.91,0,1.97,0.9,2.38
			c0.47,0.21,1.01,0.21,1.48,0c0.56-0.25,0.96-0.77,1.07-1.37C347.1,231.98,346.96,231.39,346.66,230.88c0,0,0.19,0.07,0.39,0.35
			c0.29,0.4,0.42,0.9,0.36,1.39c-0.07,0.76-0.54,1.42-1.23,1.75c-1.12,0.54-2.46,0.06-3-1.06c-0.29-0.61-0.29-1.33,0-1.94
			c0.33-0.69,1-1.16,1.76-1.23c0.49-0.06,0.99,0.07,1.39,0.36C346.59,230.68,346.68,230.88,346.66,230.88z"/>
		<path fill="#FAFAFA" d="M268.03,306.17c-0.51-0.3-1.09-0.44-1.68-0.39c-0.61,0.11-1.12,0.51-1.38,1.07c-0.41,0.91,0,1.97,0.9,2.38
			c0.47,0.21,1.01,0.21,1.48,0c0.56-0.25,0.96-0.77,1.07-1.37C268.46,307.27,268.33,306.68,268.03,306.17c0,0,0.19,0.07,0.39,0.35
			c0.29,0.4,0.42,0.9,0.36,1.39c-0.07,0.76-0.54,1.42-1.23,1.75c-1.12,0.54-2.46,0.06-3-1.06c-0.29-0.61-0.29-1.33,0-1.94
			c0.33-0.69,1-1.15,1.76-1.23c0.49-0.05,0.98,0.07,1.38,0.36C267.96,305.99,268.05,306.16,268.03,306.17z"/>
		<path fill="#FAFAFA" d="M159.7,272.55c-0.51-0.3-1.09-0.44-1.68-0.39c-0.61,0.11-1.12,0.51-1.38,1.07c-0.41,0.91,0,1.97,0.9,2.38
			c0.47,0.21,1.01,0.21,1.48,0c0.56-0.25,0.96-0.77,1.07-1.37C160.13,273.65,160,273.06,159.7,272.55c0,0,0.19,0.07,0.39,0.35
			c0.29,0.4,0.42,0.9,0.36,1.39c-0.07,0.76-0.54,1.42-1.23,1.75c-1.12,0.54-2.46,0.06-3-1.06c-0.29-0.61-0.29-1.33,0-1.94
			c0.33-0.69,1-1.16,1.76-1.23c0.49-0.05,0.98,0.07,1.38,0.36C159.63,272.37,159.72,272.53,159.7,272.55z"/>
		<path fill="#FAFAFA" d="M219.02,318.95c0,0-0.38,0-1,0.23c-0.88,0.26-1.66,0.8-2.2,1.54c-1.33,1.76-0.98,4.27,0.79,5.6
			c1.76,1.33,4.27,0.98,5.6-0.79c1.07-1.42,1.07-3.39,0-4.81c-0.55-0.74-1.31-1.28-2.19-1.55
			C219.39,318.99,219.02,318.99,219.02,318.95c0.33-0.08,0.67-0.08,1,0c0.96,0.2,1.82,0.74,2.43,1.51c0.93,1.18,1.19,2.75,0.69,4.17
			c-0.82,2.31-3.35,3.51-5.66,2.69c-1.26-0.45-2.25-1.44-2.69-2.69c-0.5-1.42-0.24-2.99,0.69-4.17c0.61-0.77,1.47-1.31,2.44-1.51
			C218.27,318.85,218.66,318.85,219.02,318.95z"/>
		<path fill="#FAFAFA" d="M313.63,263.63c0,0.05-0.38,0.05-1,0.23c-0.88,0.26-1.66,0.8-2.2,1.54c-0.81,1.09-1,2.51-0.53,3.78
			c0.72,2.09,2.99,3.2,5.08,2.49s3.2-2.99,2.49-5.08c-0.15-0.43-0.37-0.83-0.65-1.19c-0.54-0.74-1.31-1.28-2.19-1.54
			C314,263.68,313.63,263.68,313.63,263.63c0.34-0.09,0.71-0.09,1.05,0c0.96,0.2,1.83,0.74,2.43,1.52c0.93,1.18,1.19,2.75,0.69,4.17
			c-0.82,2.31-3.35,3.51-5.66,2.69c-1.26-0.45-2.25-1.44-2.69-2.69c-0.5-1.42-0.24-2.99,0.69-4.17c0.61-0.78,1.47-1.32,2.44-1.52
			C312.92,263.55,313.28,263.55,313.63,263.63z"/>
		<path fill="#FAFAFA" d="M212.15,288.71c0.79-0.77,2.06-0.75,2.83,0.04c0.77,0.79,0.75,2.06-0.04,2.83c-0.78,0.75-2.01,0.75-2.79,0
			c-0.79-0.77-0.81-2.04-0.04-2.83C212.12,288.74,212.13,288.73,212.15,288.71z"/>
		<circle fill="#FAFAFA" cx="137.4" cy="273.99" r="2.03"/>
		<circle fill="#FAFAFA" cx="346.32" cy="260.36" r="2.03"/>
		<path fill="#FAFAFA" d="M269.44,227.63c0.79-0.77,2.06-0.75,2.83,0.04c0.77,0.79,0.75,2.06-0.04,2.83c-0.78,0.75-2.01,0.75-2.79,0
			c-0.79-0.77-0.81-2.04-0.04-2.83C269.41,227.66,269.42,227.65,269.44,227.63z"/>
		<path fill="#FAFAFA" d="M222.96,342.88c0.79-0.77,2.06-0.75,2.83,0.04c0.77,0.79,0.75,2.06-0.04,2.83c-0.78,0.75-2.01,0.75-2.79,0
			c-0.79-0.77-0.81-2.04-0.04-2.83C222.93,342.91,222.94,342.9,222.96,342.88z"/>
		<path fill="#FAFAFA" d="M254.07,297.43c-0.1,0.22-0.22,0.42-0.36,0.61l-1.12,1.7l-4.18,6.08l-0.16,0.24l-0.17-0.23l-6.12-8.25
			h0.41l-3.25,4.35c-1,1.35-2,2.66-2.94,3.93l-0.21,0.29l-0.2-0.3l-5.59-8.3h0.32l-5.24,6l-1.48,1.63c-0.16,0.2-0.35,0.38-0.55,0.54
			c0.13-0.22,0.28-0.43,0.45-0.62l1.39-1.71l5.11-6.08l0.17-0.21l0.16,0.23l5.66,8.25h-0.42l2.94-3.93l3.25-4.35l0.21-0.27l0.2,0.28
			l6,8.3h-0.33l4.32-6l1.21-1.63C253.89,297.6,254.05,297.41,254.07,297.43z"/>
		<path fill="#FAFAFA" d="M274.2,331.5c-0.04,0.24-0.11,0.47-0.21,0.69c-0.18,0.5-0.42,1.13-0.71,1.9
			c-0.66,1.72-1.57,4.06-2.66,6.88l-0.1,0.27l-0.23-0.19l-7.85-6.62l0.4-0.09c-0.69,1.6-1.42,3.26-2.16,5l-2,4.49l-0.14,0.33
			l-0.27-0.24l-7.34-6.8l0.34-0.06l-3.74,7l-1.03,1.91c-0.11,0.23-0.25,0.46-0.41,0.66c0.07-0.25,0.17-0.49,0.3-0.72l1-2
			c0.89-1.76,2.11-4.18,3.57-7.09l0.12-0.24l0.21,0.19l7.4,6.73l-0.41,0.09l2-4.5c0.74-1.71,1.47-3.38,2.17-5l0.13-0.31l0.27,0.22
			l7.78,6.7l-0.32,0.08c1.16-2.8,2.12-5.12,2.83-6.81c0.33-0.76,0.59-1.38,0.81-1.87C274.01,331.9,274.09,331.69,274.2,331.5z"/>
		<path fill="#FAFAFA" d="M290.91,242.88c0.22,0.1,0.43,0.22,0.62,0.36l1.69,1.13l6.06,4.19l0.24,0.17l-0.23,0.17l-8.28,6.09v-0.41
			l4.34,3.26l3.91,3l0.29,0.21l-0.3,0.2l-8.32,5.56v-0.34l5.94,5.26l1.62,1.49c0.2,0.16,0.39,0.35,0.55,0.55
			c-0.23-0.13-0.44-0.28-0.63-0.46l-1.7-1.39l-6.06-5.13l-0.21-0.18l0.23-0.16l8.27-5.62v0.42l-3.92-2.95l-4.33-3.27l-0.28-0.21
			l0.28-0.2l8.33-6v0.33l-6-4.34l-1.52-1.24C291.28,243.23,291.09,243.06,290.91,242.88z"/>
		<path fill="#FAFAFA" d="M315.78,289.25c0.05-0.23,0.12-0.46,0.22-0.68l0.75-1.9c0.7-1.69,1.65-4,2.8-6.82l0.11-0.27l0.22,0.2
			l7.71,6.78l-0.4,0.09c0.73-1.59,1.49-3.24,2.26-4.94c0.71-1.52,1.39-3,2.06-4.46l0.15-0.32l0.26,0.25l7.2,6.95l-0.34,0.05
			l3.88-6.93c0.45-0.78,0.81-1.41,1.1-1.9c0.12-0.23,0.26-0.45,0.43-0.65c-0.08,0.25-0.19,0.49-0.32,0.71l-1,2l-3.71,7l-0.13,0.25
			l-0.21-0.2l-7.26-6.88l0.41-0.08l-2,4.46c-0.78,1.69-1.54,3.34-2.28,4.93l-0.14,0.31l-0.26-0.23l-7.64-6.85l0.32-0.08l-3,6.76
			l-0.84,1.84C316.03,288.86,315.91,289.06,315.78,289.25z"/>
		<path fill="#FAFAFA" d="M157.29,260.13c0.05-0.23,0.13-0.46,0.23-0.68l0.74-1.89l2.81-6.83l0.1-0.26l0.22,0.19l7.71,6.79
			l-0.4,0.08l2.27-4.93l2.05-4.46l0.15-0.33l0.26,0.25l7.2,6.95l-0.34,0.05l3.88-6.93c0.45-0.77,0.82-1.4,1.1-1.9
			c0.12-0.23,0.26-0.45,0.43-0.65c-0.08,0.25-0.19,0.49-0.32,0.71l-1,2l-3.71,7l-0.13,0.24l-0.21-0.19l-7.25-6.89l0.4-0.08
			c-0.66,1.44-1.34,2.94-2,4.46l-2.27,4.93l-0.15,0.32l-0.25-0.23l-7.65-6.86l0.34-0.11c-1.22,2.77-2.24,5.07-3,6.75
			c-0.35,0.75-0.63,1.36-0.85,1.85C157.55,259.71,157.43,259.93,157.29,260.13z"/>
		<path fill="#FAFAFA" d="M229.23,248.15c0.19-0.15,0.38-0.28,0.59-0.4l1.74-1.05l6.38-3.7l0.25-0.15l0.06,0.29
			c0.57,2.9,1.25,6.34,2,10.08l-0.36-0.18l4.79-2.54l4.35-2.28l0.32-0.17v0.35c0.54,3.64,1,7,1.48,9.9l-0.3-0.16
			c3-1.29,5.48-2.35,7.29-3.14l2-0.84c0.23-0.11,0.48-0.19,0.73-0.25c-0.21,0.15-0.44,0.27-0.68,0.37l-2,0.94l-7.22,3.31l-0.25,0.11
			v-0.27c-0.46-2.91-1-6.26-1.57-9.89l0.38,0.19l-4.34,2.29l-4.81,2.53l-0.3,0.16l-0.07-0.34c-0.7-3.74-1.34-7.18-1.89-10.09
			l0.31,0.14l-6.43,3.52l-1.8,0.95C229.67,247.97,229.45,248.07,229.23,248.15z"/>
		<path fill="#FECAD0" d="M253.88,224.36c0.21-9,0.59-18.63,0.59-18.63s13.68-1.73,14.27-15.68c0.45-10.63,0.63-27.33,0.7-34.7
			c0.01-2.2-1.42-4.15-3.52-4.8l-22.76-7l-19.15,14.14l-0.45,66.19c-0.06,8.42,5.44,13.61,13.85,13.61l0,0
			C245.65,237.51,253.7,232.6,253.88,224.36z"/>
		<path fill="#ED91B6" d="M254.5,205.73c-6.48-0.17-12.77-2.23-18.1-5.93c0,0,4.25,10.17,17.87,9.35L254.5,205.73z"/>
		<path fill="#ED91B6" d="M253.24,189.47c0.38-0.82,0.02-1.8-0.8-2.18c-0.27-0.13-0.57-0.18-0.87-0.14
			c-0.15-1.32-1.28-2.31-2.61-2.28c-1.32,0.1-2.4,1.07-2.65,2.37c-0.19,1.3,0.4,2.59,1.5,3.31c1.11,0.68,2.48,0.78,3.68,0.27
			c0.96-0.35,1.66-1.19,1.85-2.19"/>
		<path fill="#263238" d="M264.23,168.6c0.02,1.04-0.8,1.9-1.84,1.93c-1.01,0.1-1.9-0.64-1.99-1.65c0-0.02,0-0.05-0.01-0.07
			c-0.01-1.04,0.81-1.9,1.85-1.94c1.01-0.09,1.9,0.65,1.99,1.66C264.22,168.56,264.22,168.58,264.23,168.6z"/>
		<path fill="#263238" d="M266.56,167c-0.24,0.25-1.69-0.83-3.75-0.82s-3.57,1-3.79,0.78s0.13-0.56,0.79-1
			c0.88-0.61,1.93-0.94,3-0.94c1.08,0,2.13,0.35,3,1C266.5,166.43,266.68,166.88,266.56,167z"/>
		<path fill="#263238" d="M253.78,182.67c1.09-0.34,2.21-0.55,3.35-0.61c0.53-0.05,1-0.16,1.11-0.52c0.05-0.54-0.07-1.09-0.35-1.56
			l-1.55-4c-2.17-5.71-3.73-10.4-3.5-10.49s2.17,4.47,4.33,10.18l1.49,4c0.33,0.64,0.43,1.37,0.27,2.07
			c-0.15,0.38-0.47,0.66-0.86,0.77c-0.29,0.08-0.59,0.12-0.89,0.12C256.05,182.78,254.91,182.79,253.78,182.67z"/>
		<path fill="#263238" d="M247.72,184.09c0.33,0,0.34,2.22,2.25,3.81s4.3,1.34,4.31,1.65c0,0.14-0.53,0.44-1.53,0.46
			c-1.31,0.02-2.59-0.42-3.6-1.25c-0.98-0.79-1.61-1.94-1.75-3.19C247.31,184.63,247.56,184.08,247.72,184.09z"/>
		<path fill="#263238" d="M247.35,165.97c-0.22,0.54-1.95,0.14-4,0.27s-3.8,0.66-4,0.14c-0.11-0.25,0.22-0.75,0.94-1.24
			c0.91-0.6,1.96-0.95,3.05-1c1.07-0.07,2.14,0.17,3.09,0.68C247.1,165.24,247.44,165.71,247.35,165.97z"/>
		<path fill="#263238" d="M267.02,161.95c-0.44,0.47-2.17,0-4.24,0s-3.82,0.31-4.22-0.18c-0.18-0.24,0.09-0.7,0.86-1.15
			c1.06-0.55,2.25-0.81,3.44-0.76c1.19,0,2.36,0.33,3.38,0.94C266.97,161.24,267.21,161.72,267.02,161.95z"/>
		<path fill="#263238" d="M246.76,169.98c-0.08,0-0.32-0.37-0.91-0.78c-0.77-0.53-1.69-0.77-2.62-0.7c-0.94,0.1-1.84,0.42-2.63,0.94
			c-0.63,0.39-1,0.69-1,0.63s0.22-0.44,0.83-0.93c0.79-0.66,1.77-1.07,2.8-1.16c1.05-0.09,2.1,0.24,2.9,0.93
			C246.68,169.46,246.81,169.96,246.76,169.98z"/>
		<path fill="#ED91B6" d="M239.71,174.7c-0.07,0.12-0.37,0.07-0.66-0.11s-0.47-0.42-0.39-0.54s0.37-0.08,0.66,0.1
			S239.79,174.58,239.71,174.7z"/>
		<path fill="#ED91B6" d="M243.28,174.95c-0.15,0-0.22-0.29-0.18-0.6s0.2-0.56,0.34-0.54s0.22,0.29,0.18,0.61
			S243.42,174.97,243.28,174.95z"/>
		<path fill="#ED91B6" d="M241.33,180.88c-0.13-0.06-0.14-0.31,0-0.55s0.31-0.4,0.44-0.34s0.14,0.3,0,0.55
			S241.5,180.94,241.33,180.88z"/>
		<path fill="#ED91B6" d="M264.23,174.38c-0.08,0.12-0.31,0.11-0.51,0s-0.3-0.34-0.22-0.46s0.31-0.11,0.51,0
			S264.31,174.26,264.23,174.38z"/>
		<path fill="#ED91B6" d="M266.5,174.05c-0.12-0.07-0.1-0.35,0.06-0.62s0.38-0.43,0.51-0.36s0.1,0.35-0.06,0.62
			S266.62,174.12,266.5,174.05z"/>
		<path fill="#ED91B6" d="M264.97,179.99c-0.14,0-0.2-0.37-0.13-0.78s0.23-0.71,0.38-0.68s0.2,0.37,0.13,0.77
			S265.11,180.01,264.97,179.99z"/>
		<linearGradient id="SVGID_1_" gradientUnits="userSpaceOnUse" x1="264.225" y1="193.7688" x2="277.4415" y2="193.7688">
			<stop  offset="6.425827e-07" style="stop-color:#A770EF"/>
			<stop  offset="0.5139" style="stop-color:#CF8BF3"/>
			<stop  offset="1" style="stop-color:#FDB99B"/>
		</linearGradient>
		<path fill="url(#SVGID_1_)" d="M264.23,201.88c0,0,0.43,0.17,1.21,0.39c1.09,0.31,2.24,0.41,3.37,0.29
			c1.67-0.2,3.26-0.84,4.6-1.87c1.62-1.25,2.77-3.01,3.25-5c0.46-2,0.32-4.08-0.4-6c-0.59-1.58-1.66-2.93-3.06-3.87
			c-0.95-0.62-2.03-1.02-3.16-1.17c-0.8-0.1-1.25,0-1.26-0.1c0.11-0.04,0.22-0.06,0.33-0.07c0.32-0.03,0.63-0.03,0.95,0
			c1.18,0.08,2.33,0.44,3.34,1.06c1.51,0.94,2.67,2.34,3.3,4c0.8,2.02,0.96,4.23,0.46,6.34c-0.49,2.12-1.72,4-3.46,5.31
			c-1.41,1.06-3.09,1.71-4.85,1.86c-1.18,0.09-2.36-0.07-3.47-0.47C264.95,202.43,264.56,202.19,264.23,201.88z"/>
		<g opacity="0.2">
			<path d="M245.1,294.74c0.28,0.13-0.38,2.36-2.79,5.16c-1.44,1.63-3.13,3.02-5,4.13c-4.62,2.8-10.13,3.73-15.41,2.59
				c-2.11-0.45-4.13-1.22-6-2.29c-3.19-1.85-4.54-3.74-4.32-4s2,1,5.14,2.31c8.19,3.56,17.7,1.96,24.28-4.08
				C243.5,296.36,244.75,294.53,245.1,294.74z"/>
		</g>
		<g opacity="0.2">
			<path d="M194.99,270.33c0,0,17.45,40.73,16.52,46.06s-13.15,22.68-13.15,22.68l8.9-20.43
				C202.35,302.76,198.25,286.63,194.99,270.33z"/>
		</g>
		<path fill="#263238" d="M328.38,278.69c-1.98-3.51-3.29-7.35-3.88-11.34c0.15,0,0.83,2.56,1.9,5.68S328.5,278.62,328.38,278.69z"
			/>
		<path fill="#263238" d="M330.5,275.88c-1.33-1.3-2.49-2.78-3.43-4.39c-1.09-1.52-1.96-3.18-2.59-4.93c0.13-0.07,1.36,2.09,3,4.65
			S330.65,275.78,330.5,275.88z"/>
		<path fill="#263238" d="M266.8,312.5c-0.4,0.37-0.82,0.7-1.27,1l-3.55,2.38l-11.73,8l-11.7,8.12l-3.55,2.45
			c-0.42,0.32-0.87,0.6-1.34,0.84c0.38-0.37,0.79-0.7,1.22-1c0.81-0.63,2-1.51,3.46-2.59c2.94-2.16,7-5.08,11.61-8.25
			s8.77-6,11.83-7.93c1.53-1,2.77-1.78,3.64-2.32C265.86,312.93,266.32,312.7,266.8,312.5z"/>
		<path fill="#263238" d="M143.87,262.73c0.36-1.92,0.97-3.79,1.81-5.56c0.68-1.83,1.6-3.57,2.73-5.17c0.13,0.07-1,2.42-2.25,5.37
			C145.49,259.2,144.72,260.99,143.87,262.73z"/>
		<path fill="#263238" d="M147.17,267.18c-0.1-0.75-0.1-1.52,0-2.27c0-1.4,0.17-3.34,0.43-5.46s0.58-4,0.87-5.41
			c0.11-0.75,0.31-1.49,0.59-2.2c0,0.76-0.08,1.52-0.23,2.26c-0.19,1.38-0.46,3.29-0.72,5.41s-0.44,4-0.58,5.42
			C147.49,265.69,147.37,266.45,147.17,267.18z"/>
		<path fill="#263238" d="M243.04,135.35c4.12,7.47,2.78,16.77-3.27,22.78c-3,2.88-7.12,4.84-9,8.57c-2,3.92-0.93,8.66,0.5,12.81
			s3.24,8.43,2.63,12.78c-0.75,5.41-5.08,9.77-6,15.15c-1.76,10.29,9.31,19.37,8,29.73c-0.56,4.54-3.43,8.4-5.92,12.24
			s-4.75,8.31-3.89,12.81c0.41,2.13,2.22,4,2,6.19c-0.81,8.76-13.2,9.93-15,8.4c2.26-4.31-0.41-11-0.68-11.34
			c-0.81,3.91-4.03,6.87-8,7.35c0.48-3.35,0.21-6.77-0.79-10c-1.51,2.5-4.03,4.2-6.91,4.67c2.34-12.18,0.87-24.79-4.21-36.11
			c-1.79-3.94-4.07-8-3.49-12.32c0.76-5.56,6-9.34,8.44-14.38c2.77-5.67,1.84-12.35,1.08-18.62s-1.14-13.15,2.46-18.33
			c2.2-3.16,5.68-5.35,7.45-8.77c1.65-3.17,1.58-6.94,2.58-10.37c1.82-6.22,6.38-13.24,12.5-15.36s15.64-4.17,19.49,2.12"/>
		<path fill="#263238" d="M199.27,254.43c-1.5,4.32-3,8.8-2.7,13.36s3,9.29,7.41,10.56c1.67,0.48,3.63,0.51,4.81,1.79
			c0.92,1.15,1.17,2.69,0.65,4.07c-0.52,1.35-1.28,2.59-2.24,3.67c2.75-1.3,5.08-3.36,6.7-5.93c0.78,3.56-0.26,7.28-2.77,9.93
			c3.37,0.13,6.31-2.19,8.7-4.58c5.44-5.46,10-12.67,9.33-20.34s-6.43-14.29-6.41-22c0-3,0.89-5.83,1-8.78s-0.65-6.22-3.11-7.85"/>
		<path fill="#263238" d="M241.65,135.88c2.99-3.5,7.54-5.26,12.11-4.69c4.53,0.63,8.66,2.9,11.62,6.38c2.93,3.48,5,7.58,6.07,12
			c0.41,1.29,0.57,2.65,0.47,4c-0.11,1.36-0.85,2.59-2,3.32c-1.27,0.6-2.76,0.57-4-0.1c-1.22-0.66-2.32-1.51-3.27-2.52
			c-0.77,3.35-4.11,5.43-7.46,4.66c-2.16-0.5-3.88-2.1-4.54-4.21c-1.9,4.59-7.16,6.78-11.76,4.88c-2.79-1.15-4.82-3.63-5.39-6.59
			c-0.69-3.48,0.74-7.06,2.74-10s4.59-5.42,6.65-8.31"/>
		<path fill="#455A64" d="M190.17,228.59c0.27-0.32,0.52-0.65,0.75-1c0.61-1.02,0.97-2.17,1.06-3.35c0.1-1.88-0.02-3.76-0.34-5.61
			c-0.16-1.18-0.2-2.37-0.12-3.56c0.11-1.35,0.52-2.65,1.18-3.83c1.37-2.49,3.78-4.53,6.4-6.46c1.31-1,2.67-2,4-3.13
			c1.34-1.15,2.46-2.53,3.3-4.08c0.81-1.67,1.22-3.5,1.19-5.35c-0.04-1.95-0.26-3.89-0.66-5.79c-0.38-1.95-0.84-3.95-1-6
			c-0.27-2.11-0.13-4.26,0.41-6.32c0.31-1.04,0.79-2.03,1.42-2.91c0.64-0.85,1.4-1.61,2.25-2.25c1.69-1.16,3.46-2.18,5.31-3.06
			c1.75-0.82,3.34-1.96,4.69-3.35c1.21-1.41,1.94-3.15,2.09-5c0.23-1.8,0.17-3.59,0.22-5.34c0-1.69,0.25-3.38,0.74-5
			c0.92-2.94,2.63-5.58,4.95-7.61c1.9-1.68,4.2-2.86,6.68-3.42c1.87-0.41,3.82-0.35,5.66,0.17c1.16,0.33,2.23,0.92,3.14,1.72
			c0.23,0.21,0.45,0.44,0.64,0.68c0.13,0.16,0.2,0.25,0.19,0.26s-0.28-0.34-0.9-0.86c-0.91-0.75-1.98-1.3-3.12-1.61
			c-1.82-0.47-3.72-0.49-5.55-0.07c-2.42,0.57-4.65,1.74-6.49,3.41c-2.26,1.99-3.92,4.58-4.79,7.46c-0.47,1.6-0.7,3.26-0.7,4.93
			c0.03,1.8-0.03,3.6-0.19,5.39c-0.17,1.94-0.94,3.77-2.2,5.25c-1.38,1.44-3.02,2.61-4.82,3.47c-1.82,0.86-3.57,1.87-5.24,3
			c-0.81,0.61-1.53,1.33-2.14,2.14c-0.6,0.83-1.05,1.76-1.34,2.75c-0.52,2-0.66,4.07-0.39,6.12c0.19,2,0.65,4,1,6
			c0.41,1.93,0.63,3.9,0.66,5.88c0.02,1.93-0.41,3.84-1.26,5.57c-0.87,1.6-2.03,3.02-3.42,4.2c-1.31,1.18-2.69,2.17-4,3.14
			c-2.63,1.9-5,3.89-6.34,6.29c-0.65,1.13-1.05,2.38-1.17,3.68c-0.09,1.17-0.06,2.34,0.08,3.5c0.31,1.87,0.39,3.78,0.25,5.67
			c-0.11,1.2-0.51,2.36-1.17,3.38C190.83,228.04,190.52,228.35,190.17,228.59z"/>
		<path fill="#455A64" d="M214.1,251.54c-0.17-0.38-0.3-0.78-0.39-1.18c-0.21-1.18-0.17-2.4,0.13-3.56c0.49-1.82,1.13-3.59,1.91-5.3
			c0.79-2,1.78-4.42,1.39-7.13c-0.25-1.4-0.77-2.74-1.55-3.93c-0.85-1.31-1.76-2.58-2.74-3.8c-1.06-1.32-1.97-2.76-2.71-4.28
			c-2.39-5.28-2.01-11.39,1-16.34c2.13-3.47,5.52-6,8.48-8.93c1.48-1.42,2.76-3.05,3.78-4.84c0.47-0.88,0.84-1.81,1.1-2.77
			c0.23-0.95,0.34-1.93,0.33-2.91c-0.1-3.93-1.67-7.54-2.19-11.19c-0.66-3.52,0.31-7.15,2.63-9.88c1.99-2.3,4.29-4.32,6.83-6
			c2.06-1.37,4.01-2.91,5.83-4.59c1.37-1.27,2.53-2.75,3.42-4.39c0.73-1.42,1.15-2.97,1.23-4.56c0.03,0.41,0.03,0.83,0,1.24
			c-0.13,1.19-0.47,2.34-1,3.41c-0.87,1.68-2.02,3.21-3.4,4.51c-1.81,1.72-3.75,3.29-5.82,4.68c-2.49,1.67-4.74,3.66-6.7,5.92
			c-2.23,2.64-3.15,6.15-2.5,9.54c0.52,3.57,2.11,7.17,2.23,11.25c0.01,1.01-0.11,2.02-0.34,3c-0.27,1-0.65,1.97-1.15,2.89
			c-1.05,1.84-2.35,3.53-3.87,5c-3,3-6.36,5.47-8.42,8.83c-2.93,4.81-3.3,10.74-1,15.88c0.72,1.5,1.61,2.91,2.64,4.21
			c1,1.3,1.94,2.54,2.73,3.85c0.79,1.24,1.33,2.63,1.58,4.08c0.38,2.85-0.68,5.3-1.49,7.3c-0.8,1.69-1.47,3.44-2,5.24
			c-0.31,1.14-0.38,2.32-0.21,3.49C213.98,251.13,214.13,251.53,214.1,251.54z"/>
		<path fill="#455A64" d="M266.5,152.65c-0.09,0-0.29-1.65-0.78-4.28c-0.29-1.53-0.73-3.03-1.32-4.47c-0.71-1.75-1.81-3.33-3.21-4.6
			c-1.43-1.23-3.2-2.01-5.07-2.23c-1.54-0.2-3.11-0.2-4.65,0c-2.65,0.34-4.27,0.73-4.29,0.64c0.36-0.16,0.73-0.28,1.12-0.35
			c1.03-0.27,2.07-0.49,3.12-0.65c1.57-0.27,3.17-0.33,4.76-0.16c1.97,0.22,3.82,1.03,5.32,2.33c1.46,1.33,2.6,2.97,3.32,4.81
			c0.58,1.48,0.99,3.02,1.23,4.59c0.22,1.33,0.32,2.42,0.38,3.17C266.49,151.85,266.52,152.25,266.5,152.65z"/>
		<path fill="#455A64" d="M253.34,155.58c0.01-1.06,0.09-2.12,0.22-3.17c0.27-2.52,0.07-5.06-0.61-7.5
			c-0.4-1.32-1.05-2.55-1.93-3.61c-0.73-0.86-1.61-1.56-2.61-2.08c-0.95-0.44-1.96-0.73-3-0.87c0.28-0.08,0.57-0.1,0.86-0.05
			c0.79,0.06,1.57,0.26,2.29,0.59c1.07,0.49,2.03,1.21,2.81,2.1c0.94,1.1,1.65,2.38,2.07,3.76c0.7,2.5,0.86,5.12,0.48,7.69
			c-0.12,1-0.26,1.77-0.37,2.31C253.53,155.04,253.45,155.32,253.34,155.58z"/>
		<path fill="#F5F5F5" d="M369.78,116.58V79.42H109.69v325.61h260.09v-111.3l-18.19,12v42.26H128.82v-231.8h222.77v19.24
			C356.99,131.88,364.9,123.31,369.78,116.58z"/>
		<path fill="#455A64" d="M135.74,97.64c1.02-0.45,1.66-1.46,1.65-2.57c0.09-1.44-1-2.68-2.44-2.77c-1.44-0.09-2.68,1-2.77,2.44
			c-0.01,0.11-0.01,0.22,0,0.32c-0.02,1.12,0.64,2.14,1.66,2.59c-1.67,0.2-3.06,1.38-3.52,3c0.94,1.05,2.22,1.74,3.62,1.94h1.61
			c1.42-0.2,2.72-0.91,3.66-2C138.75,99,137.38,97.84,135.74,97.64z"/>
		<path fill="#455A64" d="M134.77,102.69c0,0,0.53,0,1.42-0.27c1.26-0.36,2.37-1.13,3.15-2.18c1.16-1.56,1.45-3.6,0.78-5.43
			c-1.1-2.97-4.4-4.48-7.37-3.37c-1.56,0.58-2.79,1.81-3.37,3.37c-0.66,1.83-0.36,3.87,0.8,5.43c0.78,1.05,1.9,1.81,3.16,2.16
			c0.9,0.24,1.43,0.22,1.43,0.27s-0.13,0-0.38,0c-0.37,0-0.73-0.04-1.09-0.13c-1.34-0.3-2.53-1.05-3.37-2.13
			c-0.59-0.74-0.99-1.61-1.18-2.53c-0.21-1.08-0.12-2.19,0.24-3.22c0.4-1.15,1.14-2.15,2.12-2.87c2.16-1.61,5.11-1.61,7.27,0
			c0.98,0.72,1.72,1.72,2.12,2.87c0.37,1.03,0.46,2.14,0.25,3.22c-0.17,0.93-0.57,1.81-1.16,2.56c-0.84,1.08-2.03,1.84-3.36,2.15
			c-0.36,0.08-0.72,0.12-1.09,0.13C134.9,102.71,134.77,102.71,134.77,102.69z"/>
		<path fill="#455A64" d="M351.5,90.7c0.01,0.72-0.57,1.3-1.29,1.31s-1.3-0.57-1.31-1.29c-0.01-0.72,0.57-1.3,1.29-1.31
			C350.9,89.41,351.49,89.98,351.5,90.7C351.5,90.7,351.5,90.7,351.5,90.7z"/>
		<path fill="#455A64" d="M351.5,95.36c0.01,0.72-0.56,1.31-1.28,1.32c-0.72,0.01-1.31-0.56-1.32-1.28
			c-0.01-0.72,0.56-1.31,1.28-1.32c0,0,0.01,0,0.01,0C350.9,94.08,351.48,94.65,351.5,95.36z"/>
		<path fill="#455A64" d="M351.59,100.03c0.01,0.72-0.56,1.31-1.28,1.32c-0.72,0.01-1.31-0.56-1.32-1.28
			c-0.01-0.72,0.56-1.31,1.28-1.32c0,0,0.01,0,0.01,0C350.99,98.75,351.57,99.32,351.59,100.03z"/>
		<path fill="#263238" d="M262,96.88c0,0.15-25.64,0.26-57.25,0.26s-57.25-0.11-57.25-0.26s25.63-0.26,57.26-0.26
			S262,96.74,262,96.88z"/>
		<path fill="#263238" d="M169.25,376.59l-2.64-1.17c-3.53,1.86-7.89,0.51-9.76-3.02c-1.86-3.53-0.51-7.89,3.02-9.76
			c3.53-1.86,7.89-0.51,9.76,3.02c0.55,1.05,0.84,2.22,0.83,3.41c0.01,1.8-0.63,3.53-1.82,4.88L169.25,376.59z M163.08,362.32
			c-3.76-0.14-6.93,2.8-7.07,6.56c-0.14,3.76,2.8,6.93,6.56,7.07c1.39,0.05,2.76-0.32,3.93-1.07l0.11-0.06l1.94,0.86l-0.44-1.91
			l0.09-0.09c2.53-2.79,2.32-7.1-0.47-9.63c-1.27-1.15-2.92-1.78-4.63-1.77L163.08,362.32z"/>
		<path fill="#263238" d="M186.19,375.44l-3-7.36l-5.69-5.2l13.74-0.12L186.19,375.44z M178.77,363.44l4.83,4.44l2.58,6.28l4.3-10.8
			L178.77,363.44z"/>
		
			<rect x="182.64" y="365.25" transform="matrix(0.8377 -0.5461 0.5461 0.8377 -169.2341 161.4931)" fill="#263238" width="8.93" height="0.5"/>
		<path fill="#263238" d="M350.95,375.67l-5.74-5.63l-5.34,5.45l-0.15-16.29l11.08-0.1L350.95,375.67z M345.21,369.33l0.18,0.18l5,5
			l-0.13-14.87l-10.07,0.09l0.13,14.58L345.21,369.33z"/>
		<linearGradient id="SVGID_2_" gradientUnits="userSpaceOnUse" x1="130.8057" y1="368.5007" x2="147.6879" y2="368.5007">
			<stop  offset="6.425827e-07" style="stop-color:#A770EF"/>
			<stop  offset="0.5139" style="stop-color:#CF8BF3"/>
			<stop  offset="1" style="stop-color:#FDB99B"/>
		</linearGradient>
		<path fill="url(#SVGID_2_)" d="M147.63,364.49c-0.46-2.3-2.7-3.79-5-3.33c-1.78,0.36-3.14,1.81-3.38,3.61
			c-0.36-2.32-2.52-3.91-4.84-3.56c-1.79,0.27-3.21,1.65-3.54,3.43c-0.21,1.45,0.15,2.93,1,4.13c0.86,1.18,1.87,2.24,3,3.15l4.47,4
			c1.51-1.38,2.79-2.67,4.3-4.05c1.13-0.93,2.14-2.01,3-3.2C147.49,367.46,147.84,365.96,147.63,364.49z"/>
		<path fill="#E0E0E0" d="M109.69,202.42c1.11,0.79,1.58,1.27,2.67,2.09c1.03,0.92,2.5,1.19,3.79,0.69c1.28-0.66,1.7-2.33,1.51-3.77
			s-0.84-2.76-1.13-4.17c0.89,0.34,1.89,0.04,2.46-0.72c0.52-0.78,0.71-1.74,0.51-2.66c-0.18-0.9-0.48-1.77-0.9-2.59
			c0.33,0.52,1.23,0.33,1.53-0.21c0.23-0.58,0.23-1.24,0-1.82c-0.29-1.52-1.03-2.92-2.14-4c-1.16-1.08-2.89-1.28-4.26-0.49
			c-1,0.7-2.84,1.73-3.14,2.93c-1.05,4.22-0.69,10.44-1,14.78"/>
		<path fill="#FECAD0" d="M348.5,191.65c1.15,0.48,1.72,1.78,1.29,2.95c-0.83,2.25-2.17,5.77-3.17,7.91
			c-0.29,0.71-0.7,1.35-1.23,1.9c-0.69,0.8-1.9,0.88-2.69,0.19c-0.44-0.39-0.69-0.95-0.66-1.54c-0.01-0.81,0.14-1.6,0.45-2.35
			c0.71-2.1,1.92-5.24,3-7.79c0.49-1.17,1.82-1.73,3-1.27L348.5,191.65z"/>
		<path fill="#FECAD0" d="M351.8,195.79c1.18,0.47,1.76,1.81,1.3,3c-0.83,2.25-2.17,5.77-3.17,7.91c-0.29,0.7-0.71,1.35-1.24,1.9
			c-0.68,0.8-1.88,0.89-2.68,0.21c-0.45-0.39-0.7-0.96-0.66-1.56c-0.01-0.8,0.14-1.6,0.44-2.35c0.71-2.09,1.93-5.24,3-7.79
			c0.49-1.17,1.82-1.73,3-1.27L351.8,195.79z"/>
		<path fill="#FECAD0" d="M354.89,198.86c1,0.41,1.5,1.54,1.12,2.55c-0.72,1.95-1.88,5-2.75,6.85c-0.25,0.61-0.61,1.17-1.06,1.65
			c-0.59,0.69-1.63,0.77-2.33,0.18c-0.39-0.34-0.6-0.83-0.57-1.35c0-0.68,0.13-1.36,0.38-2c0.62-1.82,1.67-4.54,2.58-6.75
			c0.41-1.03,1.58-1.52,2.6-1.11c0.01,0,0.02,0.01,0.03,0.01V198.86z"/>
		<path fill="#FECAD0" d="M358.87,199.74c1.01,0.41,1.51,1.55,1.12,2.57c-0.72,1.95-1.88,5-2.76,6.88
			c-0.25,0.61-0.61,1.17-1.07,1.65c-0.47,0.48-1.17,0.67-1.82,0.48c-0.65-0.29-1.08-0.94-1.09-1.65c0-0.69,0.13-1.36,0.39-2
			c0.61-1.83,1.67-4.56,2.58-6.78c0.4-1.03,1.56-1.54,2.59-1.13c0.02,0.01,0.04,0.02,0.06,0.02L358.87,199.74z"/>
		<path fill="#ED91B6" d="M345.64,204.5c0.39-1.61,0.95-3.02,1.55-4.2c0.51-1.4,1.18-2.75,2-4c-0.35,1.46-0.86,2.87-1.54,4.2
			C347.13,201.91,346.46,203.25,345.64,204.5z"/>
		<path fill="#ED91B6" d="M349.51,207.88c0.41-1.65,0.98-3.26,1.71-4.8c0.57-1.6,1.3-3.14,2.18-4.59c-0.4,1.65-0.97,3.25-1.7,4.79
			C351.14,204.89,350.4,206.43,349.51,207.88z"/>
		<path fill="#ED91B6" d="M353.26,208.33c0.44-1.43,0.98-2.82,1.64-4.16c0.49-1.41,1.09-2.78,1.8-4.1
			C356.1,203.02,354.94,205.83,353.26,208.33L353.26,208.33z"/>
		<path fill="#263238" d="M369.78,116.58c0,0,0-0.79,0-2.37s0-3.93,0-7c0-6.24,0-15.53-0.05-27.74l0.09,0.09L109.73,79.7l0.23-0.23
			c0,77.19,0,167,0,262.29v63.32l-0.26-0.25h260.09l-0.21,0.21c0-71.61,0.07-130.65,0.09-171.8c0-20.56,0-36.65,0.06-47.61
			c0-5.47,0-9.66,0-12.49s0-4.27,0-4.27s0,1.45,0,4.27s0,7,0,12.49c0,11,0,27,0,47.61c0,41.15,0.06,100.19,0.1,171.8v0.22h-0.22
			H109.52h-0.26v-63.55c0-95.34,0-185.1,0-262.29v-0.23h0.23l260.09,0.14h0.1v0.09c0,12.21,0,21.5,0,27.74c0,3.12,0,5.45,0,7
			C369.8,115.79,369.78,116.58,369.78,116.58z"/>
		<path fill="#FECAD0" d="M104.38,192.78c0.56-0.99,1.81-1.35,2.8-0.79c0.03,0.02,0.06,0.03,0.09,0.05c1.69,1.07,3.52,2.2,5.11,3.23
			c0.73,0.38,1.35,0.92,1.83,1.59c0.46,0.69,0.34,1.63-0.3,2.17c-0.77,0.37-1.68,0.35-2.43-0.06c-0.25-0.1-4.23-2.5-6.44-3.84
			C104.21,194.66,103.92,193.62,104.38,192.78L104.38,192.78z"/>
		<path fill="#FECAD0" d="M103.9,187.28c0.57-1.12,1.94-1.56,3.05-0.99c0.09,0.05,0.18,0.1,0.27,0.16c1.93,1.36,4,2.8,5.84,4.1
			c0.84,0.5,1.55,1.19,2.09,2c0.53,0.85,0.37,1.96-0.37,2.64c-0.89,0.44-1.95,0.39-2.79-0.14c-0.28-0.12-4.82-3.18-7.34-4.88
			C103.69,189.54,103.37,188.29,103.9,187.28L103.9,187.28z"/>
		<path fill="#FECAD0" d="M104.74,182.62c0.58-1.11,1.94-1.53,3.05-0.96c0.09,0.05,0.18,0.1,0.27,0.17c1.91,1.38,4,2.86,5.79,4.18
			c0.82,0.51,1.53,1.19,2.06,2c0.51,0.87,0.34,1.98-0.41,2.65c-0.9,0.42-1.95,0.36-2.78-0.18c-0.28-0.13-4.78-3.25-7.28-5
			c-0.94-0.65-1.24-1.9-0.7-2.91V182.62z"/>
		<path fill="#FECAD0" d="M105.19,177.26c0.6-1.25,2.11-1.77,3.35-1.17c0.13,0.06,0.26,0.14,0.38,0.23
			c2.17,1.57,4.53,3.24,6.58,4.75c0.95,0.58,1.76,1.37,2.36,2.31c0.6,0.99,0.43,2.26-0.41,3.06c-0.88,0.65-2.13,0.29-3.13-0.17
			c-0.32-0.15-5.44-3.69-8.28-5.66C104.96,179.86,104.6,178.44,105.19,177.26L105.19,177.26z"/>
		<path fill="#ED91B6" d="M115.01,186.88c-1.44-0.69-2.8-1.54-4.06-2.52c-1.35-0.85-2.61-1.84-3.76-2.95
			c1.44,0.69,2.8,1.54,4.06,2.52C112.6,184.77,113.87,185.76,115.01,186.88z"/>
		<path fill="#ED91B6" d="M113.74,191.05c-1.37-0.59-2.67-1.35-3.87-2.24c-1.29-0.76-2.5-1.66-3.59-2.69
			c1.38,0.6,2.68,1.35,3.88,2.25C111.45,189.13,112.65,190.03,113.74,191.05z"/>
		<path fill="#ED91B6" d="M113.83,196.31c-1.37-0.6-2.67-1.35-3.87-2.25c-1.29-0.75-2.5-1.65-3.58-2.68
			c1.37,0.59,2.67,1.35,3.87,2.24C111.54,194.38,112.74,195.28,113.83,196.31z"/>
		<path fill="#263238" d="M351.59,135.43c0,0,0-0.41,0-1.24s0-2.05,0-3.67c0-3.24,0-8,0-14.33l0.08,0.08l-222.77,0.16l0.24-0.24
			c0,42.16,0,88.45,0,136.85c0,32.8,0,64.62,0,94.92l-0.25-0.25l222.77,0.11l-0.14,0.14c0-19.46,0.05-34.77,0.07-45.21
			c0-5.22,0-9.22,0-11.92c0-1.35,0-2.37,0-3.06s0-1,0-1s0,0.34,0,1s0,1.71,0,3.06c0,2.7,0,6.7,0,11.92c0,10.44,0,25.75,0.06,45.21
			v0.14h-0.14l-222.77,0.11h-0.25v-0.25c0-30.3,0-62.12,0-94.92c0-48.4,0-94.69,0-136.85v-0.25h0.24l222.77,0.16h0.08v0.09
			c0,6.28,0,11.09,0,14.33c0,1.62,0,2.84,0,3.67S351.59,135.43,351.59,135.43z"/>
		<path fill="#263238" d="M351.59,195.79c-0.14,0-0.26-5-0.26-11.16s0.12-11.16,0.26-11.16s0.26,5,0.26,11.16
			S351.74,195.79,351.59,195.79z"/>
		<path fill="#263238" d="M457.18,459.96c0,0.15-92.68,0.26-207,0.26s-207-0.11-207-0.26s92.65-0.26,207-0.26
			S457.18,459.82,457.18,459.96z"/>
	</g>
	<g id="freepik--Icons--inject-36">
		<path fill="#455A64" d="M322.86,50.6c2.11-0.91,3.47-2.99,3.46-5.28c0.26-2.97-1.94-5.58-4.9-5.84c-2.97-0.26-5.58,1.94-5.84,4.9
			c-0.02,0.26-0.03,0.53-0.01,0.79c-0.07,2.31,1.27,4.44,3.38,5.39c-8.29,1.17-8,10.17-8,10.17L330.52,61
			C330.52,61,331.05,51.88,322.86,50.6z"/>
		<path fill="#455A64" d="M439.77,284.99h1.86l4.06-5.65v-3.71c0,0,2.87-0.18,2.53,4.68s0,3.62,0,3.62s6.1,0,6.61,0.55
			s0.53,6.45,0.6,9.74c0.08,1.63-0.96,3.11-2.52,3.58c-0.21,0.06-0.44,0.09-0.66,0.09c-1.52,0-9.3-1.24-9.3-1.24h-3.21
			L439.77,284.99z"/>
		<polygon fill="#455A64" points="434.45,283.97 435.6,296.69 438.78,296.69 438.78,284.23 		"/>
		<path fill="#455A64" d="M95.87,65.65c-0.69-3.5-4.08-5.77-7.57-5.08c-2.71,0.53-4.77,2.73-5.15,5.46
			c-0.5-3.53-3.76-5.98-7.29-5.49c-2.75,0.39-4.94,2.49-5.44,5.22c-0.31,2.22,0.25,4.47,1.56,6.28c1.29,1.8,2.81,3.43,4.52,4.84
			c2.35,2,4.49,4,6.81,6c2.29-2.08,4.25-4,6.55-6.12c1.7-1.41,3.22-3.04,4.5-4.84C95.64,70.1,96.18,67.86,95.87,65.65z"/>
	</g>
	<g id="freepik--Plants--inject-36">
		<path fill="#587CF8" d="M413.71,411.57c-2.23,3.17-6.54,2.12-8.55,0.19s-2.85-4.75-3.62-7.43c-1.76-6.11-3.53-12.53-2.22-18.76
			c0.32-1.89,1.14-3.65,2.39-5.1c1.29-1.45,3.26-2.11,5.16-1.72c2.18,0.58,3.54,2.71,4.51,4.74c2.89,5.99,4.4,12.54,4.42,19.19
			C415.8,405.77,415.45,409.02,413.71,411.57"/>
		<g opacity="0.2">
			<path d="M413.71,411.57c-2.23,3.17-6.54,2.12-8.55,0.19s-2.85-4.75-3.62-7.43c-1.76-6.11-3.53-12.53-2.22-18.76
				c0.32-1.89,1.14-3.65,2.39-5.1c1.29-1.45,3.26-2.11,5.16-1.72c2.18,0.58,3.54,2.71,4.51,4.74c2.89,5.99,4.4,12.54,4.42,19.19
				C415.8,405.77,415.45,409.02,413.71,411.57"/>
		</g>
		<path fill="#587CF8" d="M405.38,427.64c-3.73-1.75-7.91-2.26-11.95-1.45c-2.16,0.36-4.42,1-5.9,2.63s-1.75,4.5-0.06,5.9
			c1.09,0.74,2.41,1.07,3.72,0.94c3.16,0,6.66-0.59,9.19,1.31c1.44,1.08,2.4,2.88,4.12,3.42c1.77,0.41,3.6-0.41,4.47-2
			c0.83-1.58,1.01-3.43,0.51-5.14C409.06,430.85,407.54,428.77,405.38,427.64z"/>
		<path fill="#587CF8" d="M419.81,416.12c-2.31-3.03-2.99-7-1.8-10.62c1.22-3.57,3.4-6.73,6.3-9.13c3.29-2.93,7.11-5.19,11.27-6.65
			c1.6-0.65,3.33-0.95,5.06-0.86c1.76,0.1,3.35,1.06,4.26,2.57c1.18,2.26,0.05,5-1.18,7.24c-2.17,3.95-4.65,7.72-7.41,11.28
			c-2.21,2.86-4.76,5.68-8.14,7s-6.89,1.14-8.68-1.2"/>
		<path fill="#263238" d="M413.86,459.44c-0.12-0.47-0.19-0.95-0.2-1.44c-0.11-1.05-0.23-2.37-0.39-3.93
			c-0.19-1.94-0.49-3.87-0.88-5.78c-0.52-2.32-1.22-4.6-2.1-6.81c-0.87-2.21-2.04-4.29-3.48-6.17c-1.18-1.53-2.68-2.77-4.4-3.65
			c-1.17-0.58-2.41-0.97-3.7-1.16c-0.49-0.02-0.97-0.08-1.44-0.2c0.49-0.05,0.97-0.05,1.46,0c1.34,0.1,2.65,0.44,3.87,1
			c1.81,0.85,3.39,2.12,4.63,3.69c1.51,1.9,2.73,4.03,3.61,6.29c0.9,2.24,1.59,4.56,2.08,6.92c0.38,1.93,0.63,3.89,0.77,5.85
			c0.13,1.67,0.17,3,0.2,4C413.92,458.52,413.91,458.98,413.86,459.44z"/>
		<path fill="#263238" d="M413.59,456.41c-0.04-0.22-0.04-0.44,0-0.66v-1.87c0-1.66,0-4.06-0.08-7c-0.15-5.93-0.66-14.13-1.65-23.13
			s-2.31-17.11-3.51-22.93c-0.29-1.45-0.57-2.76-0.84-3.91s-0.48-2.15-0.69-2.95s-0.33-1.37-0.44-1.86
			c-0.07-0.21-0.11-0.44-0.12-0.66c0.1,0.2,0.18,0.41,0.23,0.63c0.15,0.48,0.33,1.09,0.56,1.83s0.49,1.78,0.78,2.93
			s0.62,2.45,0.93,3.91c1.64,7.57,2.87,15.23,3.69,22.94c1,9,1.44,17.24,1.48,23.19c0,3,0,5.39-0.11,7c0,0.78-0.08,1.41-0.11,1.91
			C413.69,456,413.65,456.21,413.59,456.41z"/>
		<path fill="#263238" d="M413.55,440.57c-0.06-0.67-0.06-1.33,0-2c0.07-1.29,0.25-3.14,0.61-5.42c0.44-2.66,1.03-5.29,1.76-7.89
			c0.88-3.18,1.98-6.3,3.3-9.33c2.3-5.56,5.58-10.66,9.7-15.05c0.72-0.75,1.48-1.46,2.28-2.12c0.35-0.3,0.66-0.59,1-0.82l0.88-0.61
			c0.53-0.41,1.09-0.77,1.68-1.08c-1.93,1.53-3.77,3.17-5.51,4.92c-3.98,4.43-7.18,9.5-9.45,15c-1.31,3.01-2.42,6.1-3.32,9.25
			c-0.75,2.57-1.38,5.18-1.87,7.82c-0.42,2.25-0.66,4.08-0.8,5.36C413.77,439.26,413.68,439.92,413.55,440.57z"/>
		<path fill="#455A64" d="M75.41,396.36c3.29,0.55,6.22,2.42,8.1,5.18c1.85,2.75,3.05,5.88,3.51,9.16c1,6.3-0.65,13.44-3,19.38
			c-6.42-3-9.84-10.48-11.34-14.39c-2.36-6.16-2.89-18.75,2.71-19.33"/>
		<path fill="#455A64" d="M93.5,438.94c-1.96-3.21-2.05-7.22-0.24-10.52c1.85-3.24,4.93-5.6,8.54-6.55
			c1.64-0.46,3.53-0.63,4.92,0.35c1.28,1.01,1.9,2.64,1.63,4.25c-0.28,1.57-0.97,3.04-2,4.26c-3.34,4.32-7.37,7.89-12.83,8.21"/>
		<path fill="#263238" d="M91.87,458.88c-0.12-0.43-0.19-0.88-0.21-1.33c-0.09-0.85-0.2-2.09-0.28-3.63c-0.3-4.01-0.05-8.05,0.73-12
			c0.82-4,2.71-7.7,5.47-10.71c0.84-0.9,1.8-1.68,2.84-2.33c0.36-0.27,0.77-0.47,1.2-0.61c-1.31,1-2.53,2.09-3.67,3.28
			c-2.57,3.02-4.34,6.64-5.14,10.53c-0.75,3.89-1.07,7.84-0.93,11.8C91.98,455.55,91.97,457.22,91.87,458.88z"/>
		<path fill="#263238" d="M76.9,405.88c0.33,0.66,0.6,1.35,0.81,2.06c0.48,1.33,1.14,3.28,1.92,5.7c1.58,4.83,3.66,11.55,5.76,19
			s3.84,14.28,5,19.22c0.58,2.48,1,4.48,1.33,5.87c0.18,0.72,0.31,1.45,0.39,2.18c-0.26-0.66-0.46-1.34-0.61-2.03l-1.55-5.81
			c-1.3-4.92-3.12-11.7-5.22-19.16s-4.09-14.19-5.55-19.06c-0.69-2.34-1.27-4.29-1.71-5.77C77.21,407.37,77.02,406.63,76.9,405.88z"
			/>
		<path fill="#455A64" d="M84.95,444.88c-3.24-7.22-9.77-12.44-17.53-14c-1.94-0.37-4.34-0.32-5.42,1.34s-0.15,3.88,1,5.49
			c5.1,6.74,13.76,9.77,21.95,7.67"/>
		<path fill="#263238" d="M69.56,436.55c0.43-0.02,0.86,0.02,1.27,0.13c0.5,0.07,1,0.18,1.48,0.32c0.65,0.15,1.29,0.34,1.91,0.57
			c1.64,0.57,3.22,1.31,4.72,2.2c1.83,1.11,3.53,2.41,5.07,3.88c1.5,1.5,2.84,3.16,4,4.94c0.94,1.47,1.73,3.02,2.35,4.65
			c0.25,0.62,0.46,1.25,0.64,1.89c0.15,0.48,0.27,0.97,0.36,1.46c0.12,0.42,0.17,0.85,0.17,1.28c-0.14,0-0.49-1.77-1.64-4.44
			c-0.66-1.56-1.46-3.06-2.39-4.48c-1.18-1.72-2.52-3.32-4-4.79c-1.51-1.43-3.15-2.72-4.91-3.83c-1.45-0.89-2.97-1.66-4.55-2.28
			C71.33,436.98,69.5,436.69,69.56,436.55z"/>
	</g>
	<g id="freepik--speech-bubbles--inject-36">
		<path fill="#263238" d="M412.04,228.16c0.04,0.11,0.07,0.22,0.09,0.34c0.05,0.33,0.08,0.67,0.08,1c-0.05,1.3-0.44,2.56-1.11,3.67
			c-1.07,1.67-2.4,3.16-3.92,4.43l-5.53,5.21l-0.15,0.15l-0.16-0.15l-5.4-4.8c-1.87-1.68-4.07-3.48-5.11-6.17
			c-0.72-1.65-0.67-3.54,0.13-5.15c0.82-1.52,2.24-2.61,3.92-3c1.58-0.33,3.22,0.06,4.49,1.06c1.18,0.9,1.97,2.21,2.2,3.67h-0.43
			c0.36-2.16,1.91-3.94,4-4.6c1.6-0.46,3.33-0.15,4.67,0.85c0.85,0.61,1.52,1.44,1.92,2.41c0.14,0.33,0.23,0.69,0.27,1.05
			c0,0-0.1-0.37-0.39-1c-0.43-0.91-1.09-1.68-1.91-2.25c-1.28-0.92-2.91-1.19-4.41-0.72c-1.95,0.63-3.39,2.3-3.72,4.32l-0.21,1.45
			l-0.22-1.45c-0.23-1.34-0.97-2.54-2.06-3.35c-1.16-0.91-2.66-1.26-4.1-0.95c-1.53,0.36-2.82,1.36-3.56,2.74
			c-0.73,1.48-0.77,3.2-0.11,4.71c1,2.53,3.09,4.29,5,6l5.38,4.84h-0.31l5.58-5.16c1.52-1.22,2.85-2.67,3.94-4.28
			c0.68-1.06,1.09-2.27,1.2-3.53C412.12,228.64,412,228.17,412.04,228.16z"/>
		<path fill="#263238" d="M383.25,211.67c0,0,0,0.25,0,0.72s0,1.18,0,2.08c0,1.82,0,4.49,0,7.91c0,6.85,0.06,16.72,0.1,28.89
			l-0.19-0.19h25.43h0.23v0.23c0,3.82,0,7.89,0,12.08l-0.41-0.17l12.07-12.09l0.08-0.07h36.52l-0.26,0.26c0-14,0-27.33,0-39.6
			l0.24,0.24l-53.2-0.11l-15.24-0.07h-4.07h-1.05h-0.37h1.37h4l15.19-0.07l53.35-0.12h0.24v0.24c0,12.27,0,25.6,0,39.6v0.26h-36.52
			l0.18-0.07l-12.09,12.08l-0.42,0.41v-0.59c0-4.19,0-8.26,0-12.08l0.23,0.23h-25.43h-0.19v-0.19c0-12.21,0.08-22.13,0.1-29
			c0-3.4,0-6,0-7.87c0-0.88,0-1.56,0-2S383.25,211.67,383.25,211.67z"/>
		<path fill="#263238" d="M424.01,232.13h-3.12v3h-0.73v-3h-3.12v-0.71h3.12v-3h0.73v3h3.12V232.13z"/>
		<path fill="#263238" d="M428.73,226.02v11.49h-0.84v-10.73h-2.81v-0.76H428.73z"/>
		<path fill="#263238" d="M431.63,231.77c0-3.6,1.86-5.83,4.5-5.83s4.5,2.23,4.5,5.83s-1.86,5.83-4.5,5.83
			S431.63,235.36,431.63,231.77z M439.79,231.77c0-3.2-1.49-5.06-3.66-5.06s-3.66,1.86-3.66,5.06s1.49,5.05,3.66,5.05
			S439.79,234.97,439.79,231.77z"/>
		<path fill="#263238" d="M442.43,231.77c0-3.6,1.86-5.83,4.5-5.83s4.5,2.23,4.5,5.83s-1.86,5.83-4.5,5.83
			S442.43,235.36,442.43,231.77z M450.59,231.77c0-3.2-1.49-5.06-3.66-5.06s-3.66,1.86-3.66,5.06s1.49,5.05,3.66,5.05
			S450.59,234.97,450.59,231.77z"/>
		<linearGradient id="SVGID_3_" gradientUnits="userSpaceOnUse" x1="42.725" y1="146.9625" x2="123.575" y2="146.9625">
			<stop  offset="6.425827e-07" style="stop-color:#A770EF"/>
			<stop  offset="0.5139" style="stop-color:#CF8BF3"/>
			<stop  offset="1" style="stop-color:#FDB99B"/>
		</linearGradient>
		<polygon fill="url(#SVGID_3_)" points="42.73,118.7 123.58,118.7 123.58,162.01 83.75,162.01 70.53,175.22 70.53,162.01 
			42.73,162.01 		"/>
		<path fill="#FFFFFF" d="M56.43,139.16c0,0,0,0.3,0.08,0.84s0.1,1.34,0.17,2.29c0.13,2,0.32,4.83,0.54,8.25l-0.21-0.18l3.14-0.18
			l0,0c2.67,0.24,5.66,0.58,8.81,0.7c0.19,0.01,0.37-0.01,0.55-0.06c0.18-0.02,0.36-0.07,0.53-0.13c0.35-0.14,0.67-0.35,0.93-0.62
			c0.56-0.55,0.92-1.28,1-2.07c0.03-0.41,0.03-0.82,0-1.23c0-0.43-0.07-0.85-0.1-1.28c-0.07-0.86-0.15-1.73-0.22-2.61
			s-0.19-2-0.31-3c-0.07-0.48-0.13-1-0.23-1.43c-0.02-0.11-0.05-0.22-0.09-0.32c0,0,0,0,0-0.06s0,0-0.08,0
			c-0.22-0.05-0.44-0.09-0.66-0.11c-1.85-0.1-3.7-0.1-5.55,0l0.22-0.19c0,0.04,0,0.08,0,0.12v0.08l-0.08,0.07
			c-0.05,0.05-0.11,0.07-0.18,0.06h-0.13l0,0v-0.06v-0.09c0-0.04,0-0.07,0-0.11c-0.01-0.12-0.01-0.24,0-0.36v-0.68
			c0-0.44,0-0.88,0-1.31c0.05-0.82,0.05-1.65,0-2.47c-0.06-0.75-0.3-1.48-0.7-2.12c-0.39-0.56-1.03-0.89-1.71-0.89l0.18-0.21
			c0.06,1.32,0.11,2.52,0.16,3.63v0.06l0,0c-1.65,2.51-2.92,4.42-3.75,5.68l0,0l0,0h-1.35h-0.47c0.14-0.03,0.28-0.05,0.42-0.05
			l1.39-0.12h-0.06c0.79-1.28,2-3.22,3.59-5.77v0.1c-0.06-1.11-0.13-2.31-0.21-3.62v-0.2h0.19c0.82-0.04,1.61,0.33,2.09,1
			c0.46,0.69,0.73,1.48,0.8,2.31c0.07,0.84,0.1,1.69,0.07,2.54c0,0.42,0,0.85,0,1.29v0.65c0,0.1,0,0.21,0,0.3c0,0.02,0,0.03,0,0.05
			c0,0,0,0-0.07,0s-0.12,0.11-0.11,0.08s0-0.07-0.08-0.06l-0.1-0.06l0,0l0,0v-0.18h0.17c1.88-0.11,3.75-0.11,5.63,0
			c0.26,0.02,0.52,0.07,0.77,0.14c0.09,0.03,0.18,0.07,0.26,0.13c0.07,0.08,0.12,0.16,0.16,0.26c0.04,0.12,0.07,0.25,0.1,0.38
			c0.11,0.5,0.18,1,0.24,1.49c0.13,1,0.22,2,0.32,3s0.14,1.75,0.22,2.62l0.09,1.28c0.04,0.44,0.04,0.88,0,1.32
			c-0.09,0.9-0.48,1.73-1.11,2.38c-0.31,0.31-0.69,0.56-1.1,0.72c-0.41,0.15-0.84,0.22-1.27,0.23c-3.22-0.14-6.17-0.5-8.85-0.78l0,0
			l-3.14,0.15h-0.19v-0.2c-0.14-3.47-0.25-6.32-0.34-8.38c0-0.93-0.05-1.68-0.06-2.26C56.6,139.68,56.5,139.42,56.43,139.16z"/>
		<path fill="#FFFFFF" d="M51.18,138.44c0.35-0.05,0.71-0.07,1.07-0.07c0.72,0,1.8-0.06,3.17-0.08h0.16v0.17
			c0.21,2.88,0.46,7.08,0.7,11.75v0.41v0.27h-0.26l-3.11,0.15h-0.24v-0.23c-0.5-3.6-0.89-6.75-1.15-9c-0.12-1-0.22-1.87-0.3-2.57
			c-0.05-0.29-0.07-0.59-0.06-0.88c0.09,0.33,0.15,0.66,0.2,1c0.12,0.71,0.27,1.58,0.45,2.61c0.36,2.21,0.86,5.24,1.37,8.72
			l-0.27-0.21l3.11-0.17l-0.25,0.27v-0.41c-0.24-4.67-0.43-8.87-0.53-11.76l0.18,0.17c-1.28,0-2.32-0.09-3.06-0.12
			C51.96,138.48,51.57,138.47,51.18,138.44z"/>
		<path fill="#FFFFFF" d="M87.31,141.07h-3.42v3.32h-0.8v-3.32h-3.42v-0.77h3.42v-3.34h0.8v3.34h3.42V141.07z"/>
		<path fill="#FFFFFF" d="M92.5,134.39v12.57h-1v-11.74h-3v-0.83H92.5z"/>
		<path fill="#FFFFFF" d="M95.64,140.68c0-3.94,2-6.38,4.92-6.38s4.92,2.44,4.92,6.38s-2,6.37-4.92,6.37S95.64,144.61,95.64,140.68z
			 M104.56,140.68c0-3.51-1.63-5.53-4-5.53s-4,2-4,5.53s1.64,5.53,4,5.53S104.56,144.18,104.56,140.68z"/>
		<path fill="#FFFFFF" d="M107.5,140.68c0-3.94,2-6.38,4.92-6.38s4.92,2.44,4.92,6.38s-2,6.37-4.92,6.37S107.5,144.61,107.5,140.68z
			 M116.43,140.68c0-3.51-1.64-5.53-4-5.53s-4,2-4,5.53s1.63,5.53,4,5.53s3.95-2.03,3.95-5.53H116.43z"/>
	</g>
</g>
</svg>
