<?xml version="1.0" encoding="utf-8"?>
<!-- Generator: Adobe Illustrator 25.0.0, SVG Export Plug-In . SVG Version: 6.00 Build 0)  -->
<svg version="1.1" id="Layer_1" xmlns="http://www.w3.org/2000/svg" xmlns:xlink="http://www.w3.org/1999/xlink" x="0px" y="0px"
	 viewBox="0 0 500 500" enable-background="new 0 0 500 500" xml:space="preserve">
<g id="freepik--background-complete--inject-29">
	<path fill="#E0E0E0" d="M466.89,316.2H303v-94.84h163.89V316.2z M304,315.2h161.89v-92.84H304V315.2z"/>
	<rect x="324.95" y="271.93" fill="#F0F0F0" width="108.13" height="3.17"/>
	<rect x="324.95" y="283.75" fill="#F0F0F0" width="115.58" height="3.46"/>
	<rect x="324.95" y="295.71" fill="#F0F0F0" width="115.58" height="3.46"/>
	<rect x="324.95" y="254.76" fill="#F0F0F0" width="37.79" height="8.23"/>
	<rect x="303.53" y="221.86" fill="#E0E0E0" width="162.86" height="15.1"/>
	<path fill="#FFFFFF" d="M453.86,234.7c-0.21-0.2,1.89-2.73,4.68-5.65s5.24-5.13,5.44-4.94s-1.89,2.73-4.68,5.66
		S454.06,234.9,453.86,234.7z"/>
	<path fill="#FFFFFF" d="M464,234.7c-0.2,0.2-2.64-2-5.44-4.93s-4.89-5.46-4.68-5.66s2.64,2,5.44,4.94S464.19,234.5,464,234.7z"/>
	<rect x="102.36" y="34.05" fill="#E6E6E6" width="162.86" height="93.85"/>
	<rect x="123.79" y="84.13" fill="#F0F0F0" width="108.13" height="3.17"/>
	<rect x="123.79" y="95.95" fill="#F0F0F0" width="115.58" height="3.46"/>
	<rect x="123.79" y="107.91" fill="#F0F0F0" width="115.58" height="3.46"/>
	<rect x="123.79" y="66.96" fill="#F0F0F0" width="37.79" height="8.23"/>
	<rect x="102.36" y="34.05" fill="#E0E0E0" width="162.86" height="15.1"/>
	<path fill="#FFFFFF" d="M252.14,46.82c-0.21-0.19,1.89-2.73,4.68-5.65s5.24-5.13,5.44-4.93s-1.89,2.73-4.68,5.65
		S252.34,47,252.14,46.82z"/>
	<path fill="#FFFFFF" d="M262.26,46.82c-0.2,0.2-2.64-2-5.44-4.93s-4.89-5.45-4.68-5.65s2.64,2,5.44,4.93
		C260.38,44.1,262.47,46.63,262.26,46.82z"/>
	<path fill="#E0E0E0" d="M203.54,208.39H39.68v-94.85h163.86V208.39z M40.68,207.39h161.86v-92.85H40.68L40.68,207.39z"/>
	<rect x="61.61" y="164.12" fill="#F0F0F0" width="108.13" height="3.17"/>
	<rect x="61.61" y="175.94" fill="#F0F0F0" width="115.58" height="3.46"/>
	<rect x="61.61" y="187.9" fill="#F0F0F0" width="115.58" height="3.46"/>
	<rect x="61.61" y="146.95" fill="#F0F0F0" width="37.79" height="8.23"/>
	<rect x="40.18" y="114.04" fill="#E0E0E0" width="162.86" height="15.1"/>
	<rect x="200.35" y="230.12" fill="#E6E6E6" width="192.3" height="172.16"/>
	<rect x="59.38" y="175.89" fill="#F0F0F0" width="150.64" height="156.51"/>
	<rect x="59.38" y="175.89" fill="#E0E0E0" width="150.64" height="17.05"/>
	<path fill="#FFFFFF" d="M71.82,184.24c-0.08,1.74-1.55,3.09-3.3,3.02c-1.74-0.08-3.09-1.55-3.02-3.3c0.07-1.69,1.46-3.02,3.15-3.02
		C70.44,180.98,71.85,182.46,71.82,184.24z"/>
	<path fill="#FFFFFF" d="M84.65,184.24c-0.07,1.75-1.55,3.11-3.3,3.04c-1.75-0.07-3.11-1.55-3.04-3.3c0.07-1.7,1.47-3.04,3.17-3.04
		C83.27,180.98,84.68,182.46,84.65,184.24z"/>
	<path fill="#FFFFFF" d="M97.48,184.24c-0.07,1.75-1.55,3.11-3.3,3.04c-1.75-0.07-3.11-1.55-3.04-3.3c0.07-1.7,1.47-3.04,3.17-3.04
		C96.1,180.98,97.51,182.46,97.48,184.24z"/>
	<rect x="253.08" y="68.28" fill="#F0F0F0" width="192.3" height="191.66"/>
	<rect x="253.08" y="68.28" fill="#E0E0E0" width="192.3" height="22.45"/>
	<path fill="#FFFFFF" d="M269.46,79.28c-0.1,2.3-2.05,4.09-4.35,3.99c-2.3-0.1-4.09-2.05-3.99-4.35c0.1-2.23,1.93-3.99,4.16-3.99
		C267.64,74.98,269.5,76.93,269.46,79.28z"/>
	<path fill="#FFFFFF" d="M285.13,76.34c1.56,1.69,1.45,4.33-0.24,5.89c-1.69,1.56-4.33,1.45-5.89-0.24
		c-1.52-1.65-1.46-4.21,0.14-5.79C280.83,74.59,283.51,74.65,285.13,76.34z"/>
	<path fill="#FFFFFF" d="M303.24,79.28c-0.1,2.3-2.05,4.09-4.35,3.99c-2.3-0.1-4.09-2.05-3.99-4.35c0.1-2.23,1.93-3.99,4.16-3.99
		C301.42,74.98,303.28,76.93,303.24,79.28z"/>
</g>
<g id="freepik--Floor--inject-29">
	<path fill="#263238" d="M403.84,453.13c0,0.14-69.44,0.26-155.07,0.26s-155.1-0.12-155.1-0.26s69.43-0.26,155.1-0.26
		S403.84,453,403.84,453.13z"/>
</g>
<g id="freepik--Plant--inject-29">
	<path fill="#587CF8" d="M336.18,330.71c-15.45-10.79-18.95-30.82-18.34-48.83c0.1-3-0.23-6.18,1.2-8.81s4.77-4.44,7.46-3.18
		c2.23,1.05,3.2,3.65,4.45,5.8c1.67,2.86,4.11,5.2,7.05,6.73c1.91,1,4.28,1.6,6.17,0.56c2.6-1.43,2.9-5,2.88-8
		c0-5.58-0.03-11.15-0.1-16.72c-0.18-2.99,0.12-5.99,0.9-8.88c0.93-2.84,3-5.47,5.83-6.27s6.36,0.85,7,3.77
		c0.11,1.24,0.14,2.48,0.09,3.72c0.08,1.25,0.66,2.62,1.83,3s2.39-0.49,3.29-1.37c3.08-3,5.18-6.91,7.13-10.77s3.86-7.83,6.66-11.12
		s6.67-5.9,11-6.15s8.84,2.41,9.92,6.61s-1.37,8.49-4,11.9c-3.97,5.06-8.65,9.52-13.89,13.25c-1.02,0.56-1.84,1.43-2.33,2.49
		c-0.65,2,1.24,4,3.21,4.63c2.23,0.74,4.65,0.51,7,0.79s4.85,1.3,5.74,3.5c1.22,3.06-1.34,6.26-3.85,8.36
		c-5.04,4.2-10.76,7.5-16.92,9.77c-2.2,0.8-4.51,1.51-6.29,3.05s-2.84,4.23-1.77,6.34s3.82,2.78,6.13,2.35s4.36-1.67,6.56-2.5
		c4.11-1.55,9.41-1.27,12,2.28c1.63,2.48,2,5.58,1,8.37c-1,2.74-2.54,5.25-4.53,7.39C382.11,320.6,373.6,326.54,364,330
		c-9.53,3.3-18.36,4.2-27.83,0.73"/>
	<path fill="#263238" d="M396.2,226.66c0,0-0.09,0.1-0.29,0.28l-0.89,0.79c-0.78,0.7-1.93,1.72-3.38,3.07
		c-4.11,3.82-7.93,7.94-11.42,12.33c-2.23,2.77-4.54,5.91-7,9.32s-5,7.09-7.52,11c-2.69,4.12-5.15,8.39-7.37,12.78
		c-1.16,2.29-2.18,4.68-3.23,7.12l-3.1,7.45c-4.09,9.38-7.65,18.99-10.66,28.77c-2.43,8-4.1,16.22-5,24.53
		c-0.58,5.61-0.68,11.26-0.28,16.89c0.16,2,0.31,3.53,0.45,4.57c0.06,0.5,0.1,0.9,0.14,1.19v0.41c-0.04-0.13-0.07-0.26-0.09-0.4
		c-0.05-0.29-0.11-0.68-0.19-1.18c-0.18-1-0.37-2.58-0.55-4.58c-0.48-5.64-0.45-11.31,0.1-16.94c0.84-8.35,2.48-16.6,4.89-24.64
		c2.99-9.81,6.54-19.44,10.63-28.84l3.18-7.42c1.05-2.43,2.08-4.84,3.25-7.14c2.24-4.4,4.72-8.68,7.43-12.81
		c2.56-4,5.14-7.62,7.57-11s4.78-6.54,7-9.3c3.53-4.38,7.4-8.47,11.57-12.24c1.48-1.33,2.66-2.33,3.46-3l0.93-0.75
		C395.94,226.82,396.07,226.73,396.2,226.66z"/>
	<path fill="#263238" d="M358,276c-0.14-0.41-0.24-0.84-0.29-1.27c-0.16-0.83-0.34-2-0.55-3.52c-0.43-3-0.87-7.11-1.34-11.66
		s-1-8.67-1.44-11.64c-0.23-1.48-0.43-2.67-0.57-3.5c-0.11-0.42-0.17-0.86-0.17-1.3c0.17,0.4,0.3,0.82,0.37,1.25
		c0.22,0.82,0.47,2,0.75,3.49c0.57,3,1.13,7.08,1.6,11.64s0.87,8.56,1.18,11.67c0.15,1.4,0.28,2.59,0.38,3.54
		C358,275.13,358.02,275.57,358,276z"/>
	<path fill="#263238" d="M396.48,268.82c-0.49,0.11-0.98,0.17-1.48,0.18c-1,0.09-2.42,0.21-4.18,0.41
		c-3.52,0.38-8.36,1.08-13.67,2.08s-10.08,2.13-13.51,3c-1.71,0.44-3.09,0.84-4,1.11c-0.49,0.17-0.99,0.29-1.5,0.36
		c0.46-0.23,0.94-0.42,1.44-0.57c0.94-0.33,2.3-0.79,4-1.28c3.41-1,8.18-2.19,13.51-3.21c4.52-0.86,9.07-1.5,13.65-1.9
		c1.77-0.15,3.2-0.21,4.2-0.23C395.45,268.74,395.97,268.75,396.48,268.82z"/>
	<path fill="#263238" d="M341.3,318.72c-0.11-0.14-0.19-0.3-0.26-0.47l-0.66-1.39c-0.57-1.21-1.34-3-2.26-5.19
		c-1.86-4.4-4.23-10.56-6.75-17.4s-4.84-13-6.6-17.45c-0.86-2.16-1.57-3.93-2.1-5.25l-0.56-1.43c-0.08-0.16-0.13-0.34-0.16-0.52
		c0.11,0.14,0.19,0.3,0.26,0.47l0.66,1.39c0.56,1.21,1.34,3,2.26,5.19c1.86,4.4,4.23,10.56,6.75,17.4s4.84,13,6.6,17.45
		c0.86,2.16,1.57,3.93,2.09,5.25c0.23,0.57,0.42,1,0.57,1.43C341.22,318.36,341.27,318.54,341.3,318.72z"/>
	<path fill="#263238" d="M392.38,302.25c-0.16,0.09-0.33,0.16-0.51,0.21l-1.48,0.5l-5.47,1.77c-4.62,1.5-11,3.64-18,6
		s-13.41,4.46-18.06,5.86c-2.32,0.71-4.21,1.25-5.52,1.61l-1.51,0.39c-0.18,0.06-0.36,0.09-0.54,0.11c0.16-0.09,0.33-0.16,0.51-0.21
		l1.48-0.5l5.47-1.77c4.62-1.5,11-3.64,18-6s13.4-4.46,18.05-5.86c2.33-0.71,4.21-1.25,5.53-1.61l1.51-0.39
		C392.02,302.3,392.2,302.27,392.38,302.25z"/>
</g>
<g id="freepik--Padlock--inject-29">
	<linearGradient id="SVGID_1_" gradientUnits="userSpaceOnUse" x1="312.9207" y1="88.5359" x2="396.2234" y2="88.5359">
		<stop  offset="6.425827e-07" style="stop-color:#A770EF"/>
		<stop  offset="0.5139" style="stop-color:#CF8BF3"/>
		<stop  offset="1" style="stop-color:#FDB99B"/>
	</linearGradient>
	<path fill="url(#SVGID_1_)" d="M371.54,59.68l-5.15,1.84l-2.21-6.73c-4.06-12.41-17-19-28.89-14.81s-18.22,17.8-14.16,30.21
		l2.21,6.73l-5.17,1.85c-4.1,1.59-6.22,6.12-4.82,10.28l14.33,43.79c1.23,4.09,5.53,6.41,9.62,5.18c0.08-0.02,0.16-0.05,0.24-0.07
		l53.37-19.09c4.15-1.59,6.3-6.17,4.87-10.38l-14.34-43.79c-1.25-4.07-5.57-6.35-9.64-5.1C371.71,59.62,371.63,59.65,371.54,59.68z
		 M330.86,66.68c-2.27-6.71,1.15-14.01,7.76-16.55c6.46-2.21,13.49,1.23,15.7,7.69c0.05,0.14,0.09,0.28,0.13,0.42l2.2,6.73
		l-23.59,8.44L330.86,66.68z M360.86,105.54l3.66,11.18c0.14,0.47-0.11,0.96-0.57,1.12l-5.13,1.83c-0.42,0.12-0.87-0.12-1-0.54
		L354.13,108c-4.17-0.23-7.75-3.02-9-7c-1.81-5.34,0.92-11.16,6.19-13.18c5.15-1.76,10.75,0.99,12.51,6.14
		c0.04,0.11,0.07,0.22,0.1,0.32c1.31,4.04,0.11,8.47-3.06,11.29L360.86,105.54z"/>
	<path fill="#263238" d="M366.16,61.4c0,0.14-9.55,3.73-21.43,8s-21.57,7.7-21.62,7.6s9.55-3.72,21.44-8S366.11,61.27,366.16,61.4z"
		/>
	<path fill="#263238" d="M377.5,63.24c0.04,0.09,0.08,0.18,0.11,0.27c0.08,0.2,0.17,0.46,0.29,0.78c0.26,0.73,0.62,1.74,1.07,3
		l3.84,11.18c1.6,4.74,3.51,10.36,5.63,16.6c1,3.13,2.18,6.39,3.28,9.82c0.59,1.77,0.84,3.63,0.75,5.49
		c-0.08,0.97-0.36,1.91-0.81,2.77c-0.48,0.86-1.12,1.62-1.89,2.23c-1.54,1.13-3.26,2-5.08,2.59l-5.15,1.85l-9.75,3.49l-16.51,5.88
		l-11.15,3.92l-3,1l-0.8,0.26c-0.09,0.04-0.18,0.06-0.27,0.07c0,0,0.08,0,0.25-0.12l0.78-0.31l3-1.13l11.09-4.08l16.48-6l9.73-3.52
		l5.15-1.86c1.77-0.56,3.43-1.41,4.93-2.51c0.71-0.57,1.31-1.27,1.76-2.07c0.42-0.8,0.68-1.67,0.75-2.57
		c0.09-1.79-0.15-3.59-0.72-5.29c-1.08-3.4-2.22-6.69-3.25-9.82c-2.08-6.25-4-11.89-5.52-16.63s-2.8-8.55-3.68-11.23
		c-0.42-1.31-0.74-2.33-1-3.07l-0.24-0.8C377.54,63.37,377.52,63.31,377.5,63.24z"/>
	<path fill="#263238" d="M349.34,49.45c0,0-0.53-0.26-1.51-0.66c-1.4-0.54-2.87-0.83-4.37-0.88c-2.22-0.08-4.42,0.34-6.46,1.22
		c-2.48,1.09-4.59,2.87-6.11,5.11c-1.53,2.24-2.34,4.88-2.35,7.59c0.02,2.22,0.36,4.43,1,6.55c0.52,1.82,1.06,3.27,1.42,4.28
		c0.21,0.51,0.39,1.04,0.52,1.58c-0.28-0.48-0.52-0.99-0.71-1.51c-0.41-1-1-2.42-1.58-4.25c-0.71-2.15-1.1-4.39-1.15-6.65
		c-0.03-2.81,0.81-5.56,2.4-7.88c1.57-2.33,3.77-4.15,6.35-5.26c2.1-0.88,4.38-1.27,6.65-1.14c1.53,0.08,3.03,0.43,4.43,1.05
		c0.37,0.17,0.74,0.37,1.08,0.6C349.09,49.26,349.22,49.35,349.34,49.45z"/>
	<path fill="#263238" d="M349.8,88.58c0.16-0.1,0.33-0.18,0.5-0.25c0.5-0.23,1.02-0.41,1.55-0.55c0.84-0.25,1.71-0.4,2.59-0.44
		c1.19-0.06,2.39,0.12,3.51,0.53c2.56,0.9,4.91,3.51,6.07,7c0.56,1.87,0.56,3.87,0,5.74c-0.62,2.03-1.72,3.88-3.22,5.39l0.06-0.27
		c1.33,3.65,2.78,7.61,4.28,11.74l0.09,0.25l-0.25,0.09l-2.29,0.76l-5,1.67l-0.25,0.08l-0.08-0.25c-1.37-4.14-2.87-8-4-11.79
		l0.22,0.17c-1.95-0.16-3.82-0.9-5.36-2.11c-1.39-1.07-2.54-2.44-3.35-4c-0.73-1.38-1.1-2.93-1.06-4.5
		c0.09-3.24,1.63-6.27,4.19-8.26c0.52-0.42,1.1-0.76,1.73-1c-0.56,0.34-1.11,0.7-1.64,1.09c-1.39,1.17-2.45,2.69-3.09,4.39
		c-1.11,2.6-0.99,5.56,0.31,8.07c0.8,1.5,1.91,2.81,3.27,3.84c1.47,1.15,3.25,1.85,5.11,2h0.17l0.05,0.15
		c1.1,3.72,2.61,7.61,4,11.77l-0.33-0.16l5-1.67l2.28-0.77l-0.16,0.34c-1.49-4.13-2.93-8.1-4.25-11.75v-0.15l0.12-0.12
		c1.45-1.44,2.54-3.22,3.16-5.17c0.53-1.79,0.53-3.7,0-5.49c-1.09-3.36-3.34-5.91-5.78-6.81c-1.08-0.42-2.23-0.61-3.39-0.57
		c-0.86,0.02-1.72,0.14-2.56,0.35C350.51,88.29,349.81,88.63,349.8,88.58z"/>
</g>
<g id="freepik--Device--inject-29">
	<path fill="#455A64" d="M318.89,377.32L219,376.86c-12.01-0.07-21.7-9.85-21.65-21.86l1.06-250.41
		c0.05-12.01,9.83-21.71,21.84-21.66c0.01,0,0.01,0,0.02,0l99.88,0.46c12.01,0.06,21.7,9.84,21.66,21.85l-1.06,250.4
		C340.7,367.66,330.91,377.37,318.89,377.32C318.89,377.32,318.89,377.32,318.89,377.32z"/>
	<path fill="#FFFFFF" d="M320,92h-19.36c-2.66,0.05-4.77,2.24-4.72,4.9c0,0,0,0,0,0v3.51c0.05,2.65-2.06,4.84-4.71,4.89
		c0,0-0.01,0-0.01,0l-37.74-0.17c-2.66-0.07-4.76-2.28-4.69-4.94v-3.51c0.07-2.65-2.03-4.86-4.68-4.94h-6.81l-16.95-0.08
		c-8.39-0.05-15.25,6.7-15.33,15.09l-1,244.42c-0.04,8.41,6.75,15.26,15.16,15.3c0,0,0,0,0,0l99.68,0.46
		c8.42,0.04,15.27-6.75,15.31-15.17c0,0,0,0,0,0l1-244.42C335.2,98.92,328.42,92.06,320,92z"/>
	<linearGradient id="SVGID_2_" gradientUnits="userSpaceOnUse" x1="255.3037" y1="347.3488" x2="283.842" y2="297.9191">
		<stop  offset="6.425827e-07" style="stop-color:#A770EF"/>
		<stop  offset="0.5139" style="stop-color:#CF8BF3"/>
		<stop  offset="1" style="stop-color:#FDB99B"/>
	</linearGradient>
	<path fill="url(#SVGID_2_)" d="M306.59,334.32L232.47,334c-0.77,0-1.39-0.84-1.38-1.86l0.08-19.39c0-1,0.63-1.86,1.4-1.86
		l74.12,0.34c0.89,0.15,1.49,0.98,1.38,1.87L308,332.47C308,333.5,307.36,334.33,306.59,334.32z"/>
	<text transform="matrix(0.96 0 0 1 252.5898 324.9502)" fill="#E8E8E3" font-family="'Montserrat-Regular'" font-size="8.299px">SIGN UP</text>
	
		<rect x="232.02" y="153.29" transform="matrix(4.537840e-03 -1 1 4.537840e-03 67.1698 399.779)" fill="#FF725E" width="4.72" height="25.72"/>
	
		<rect x="232.02" y="153.29" transform="matrix(4.537840e-03 -1 1 4.537840e-03 67.1698 399.779)" fill="#587CF8" width="4.72" height="25.72"/>
	<path fill="#E0E0E0" d="M322.65,192.83c0.2-0.02,0.4-0.07,0.59-0.14c0.56-0.22,0.95-0.75,1-1.35c0-1.59,0-3.91,0-6.89
		c0-1.49,0-3.16,0-5c0-0.45,0-0.92,0-1.39c0.07-0.46-0.03-0.92-0.28-1.31c-0.28-0.38-0.72-0.6-1.19-0.61h-1.56h-14.45l-83.64-0.31
		c-0.43-0.01-0.85,0.2-1.1,0.55c-0.24,0.39-0.33,0.86-0.26,1.31c0,1,0,2,0,3c0,2,0,4,0,6c0,1,0,2,0,3c-0.04,0.47-0.04,0.93,0,1.4
		c0.11,0.4,0.39,0.74,0.78,0.9c0.2,0.08,0.41,0.12,0.62,0.11h5.09l22.21,0.12l37.6,0.23l25.35,0.2l6.89,0.08h1.79
		c0.41,0,0.61,0,0.61,0h-0.61h-1.79h-6.89h-25.35l-37.6-0.12l-22.21-0.09h-5.09c-0.28,0.01-0.56-0.04-0.82-0.14
		c-0.53-0.23-0.93-0.69-1.08-1.25c-0.06-0.26-0.08-0.53-0.06-0.8v-0.74c0-1,0-2,0-3c0-2,0-4,0-6c0-1,0-2,0-3
		c-0.02-0.27-0.02-0.53,0-0.8c0.04-0.29,0.15-0.57,0.33-0.81c0.35-0.49,0.92-0.78,1.52-0.77l83.64,0.46l14.45,0.1h1.56
		c0.56,0,1.08,0.27,1.4,0.73c0.28,0.43,0.4,0.96,0.32,1.47c0,0.47,0,0.94,0,1.39c0,1.82,0,3.49,0,5c0,3-0.07,5.3-0.09,6.9
		c-0.05,0.63-0.46,1.17-1.05,1.39C323.09,192.77,322.87,192.83,322.65,192.83z"/>
	<rect x="229.26" y="180.85" fill="#FF725E" width="47.04" height="4.41"/>
	<rect x="229.26" y="180.85" fill="#89A9F7" width="47.04" height="4.41"/>
	
		<rect x="231.85" y="196.35" transform="matrix(4.537840e-03 -1 1 4.537840e-03 23.9369 442.4669)" fill="#FF725E" width="4.72" height="25.72"/>
	
		<rect x="231.85" y="196.35" transform="matrix(4.537840e-03 -1 1 4.537840e-03 23.9369 442.4669)" fill="#587CF8" width="4.72" height="25.72"/>
	<path fill="#E0E0E0" d="M322,235.89c0.2-0.02,0.4-0.06,0.6-0.11c0.57-0.18,1.02-0.6,1.26-1.14c0.16-0.4,0.22-0.84,0.18-1.27
		c0-0.48,0-1,0-1.58c0-1.16,0-2.48,0-4v-6.35c0.05-0.46-0.05-0.92-0.29-1.32c-0.25-0.41-0.63-0.71-1.09-0.85
		c-0.5-0.09-1.01-0.12-1.51-0.08h-14.39l-83.35-0.31c-0.93,0-1.71,0.69-1.83,1.61c0,0.95,0,2,0,3c0,2,0,4,0,6c0,1,0,2,0,3
		c-0.04,0.47-0.02,0.94,0.06,1.4c0.12,0.41,0.38,0.76,0.73,1c0.37,0.23,0.8,0.35,1.24,0.32H225h2.89l22.13,0.11l37.47,0.23
		l25.26,0.2l6.87,0.08h1.79h0.6h-0.6h-1.79h-6.87h-25.26L250,235.79l-22.13-0.08h-4.35c-0.54,0.03-1.08-0.11-1.53-0.41
		c-0.46-0.32-0.79-0.78-0.94-1.31c-0.09-0.51-0.12-1.03-0.08-1.54c0-1,0-2,0-3c0-2,0-4,0-6c0-1,0-2,0-3
		c0.15-1.18,1.16-2.07,2.35-2.07l83.35,0.46l14.39,0.11c0.54-0.03,1.07,0,1.6,0.11c0.52,0.17,0.96,0.53,1.23,1
		c0.26,0.44,0.37,0.95,0.32,1.46c0,0.47,0,0.93,0,1.39c0,1.81,0,3.47,0,5s0,2.82,0,4c0,0.57,0,1.1,0,1.59
		c0.04,0.45-0.04,0.9-0.21,1.31c-0.26,0.56-0.76,0.97-1.35,1.14C322.43,235.97,322.21,235.95,322,235.89z"/>
	
		<rect x="231.65" y="241.28" transform="matrix(4.537840e-03 -1 1 4.537840e-03 -21.1842 486.9979)" fill="#FF725E" width="4.72" height="25.72"/>
	
		<rect x="231.65" y="241.28" transform="matrix(4.537840e-03 -1 1 4.537840e-03 -21.1842 486.9979)" fill="#587CF8" width="4.72" height="25.72"/>
	<path fill="#E0E0E0" d="M321.8,280.8c0.2-0.02,0.4-0.06,0.6-0.11c0.56-0.18,1.02-0.59,1.26-1.13c0.16-0.4,0.22-0.84,0.18-1.27
		c0-0.49,0-1,0-1.59c0-1.15,0-2.48,0-4v-6.35c0.05-0.46-0.05-0.92-0.29-1.32c-0.25-0.4-0.64-0.7-1.09-0.84
		c-0.5-0.09-1-0.12-1.51-0.09h-14.39l-83.35-0.31c-0.93,0-1.71,0.69-1.83,1.61c0,1,0,2,0,3c0,2,0,4,0,6c0,1,0,2,0,3
		c-0.04,0.46-0.02,0.93,0.06,1.39c0.12,0.41,0.38,0.76,0.73,1c0.37,0.24,0.8,0.35,1.24,0.32h4.35l22.13,0.12l37.47,0.23l25.26,0.2
		l6.87,0.08h1.79c0.4,0,0.6,0,0.6,0s-0.2,0-0.6,0h-1.79h-6.87h-25.26l-37.47-0.11l-22.13-0.09h-4.35c-0.54,0.04-1.08-0.11-1.53-0.41
		c-0.46-0.32-0.79-0.78-0.94-1.31c-0.09-0.51-0.12-1.03-0.08-1.54c0-1,0-2,0-3c0-2,0-4,0-6c0-1,0-2,0-3.05
		c0.15-1.18,1.15-2.07,2.34-2.07l83.35,0.46l14.39,0.11c0.54-0.03,1.07,0,1.6,0.11c0.52,0.17,0.96,0.53,1.23,1
		c0.26,0.44,0.37,0.95,0.32,1.46c0,0.47,0,0.94,0,1.39c0,1.81,0,3.47,0,5s0,2.82,0,4c0,0.57,0,1.1,0,1.59
		c0.04,0.45-0.03,0.9-0.21,1.31c-0.26,0.56-0.76,0.97-1.35,1.14C322.3,280.81,322.05,280.83,321.8,280.8z"/>
	
		<rect x="249.56" y="203.74" transform="matrix(4.537840e-03 -1 1 4.537840e-03 23.3709 477.9873)" fill="#FF725E" width="4.41" height="47.04"/>
	
		<rect x="249.56" y="203.74" transform="matrix(4.537840e-03 -1 1 4.537840e-03 23.3709 477.9873)" fill="#89A9F7" width="4.41" height="47.04"/>
	<path fill="#FF725E" d="M232.51,272.64c-0.08,1.13-1.07,1.99-2.21,1.9c-1.13-0.08-1.99-1.07-1.9-2.21c0.08-1.1,1.01-1.94,2.11-1.91
		C231.67,270.49,232.56,271.48,232.51,272.64z"/>
	<path fill="#FF725E" d="M238.88,272.67c0.08,1.13-0.78,2.12-1.91,2.2c-1.13,0.08-2.12-0.78-2.2-1.91c-0.01-0.1-0.01-0.19,0-0.29
		c-0.08-1.13,0.78-2.12,1.91-2.2c1.13-0.08,2.12,0.78,2.2,1.91C238.89,272.48,238.89,272.57,238.88,272.67z"/>
	<path fill="#FF725E" d="M245.26,272.7c-0.08,1.13-1.07,1.99-2.21,1.9c-1.13-0.08-1.99-1.07-1.9-2.21c0.08-1.1,1.01-1.94,2.11-1.91
		C244.42,270.56,245.31,271.54,245.26,272.7z"/>
	<path fill="#FF725E" d="M251.63,272.73c-0.08,1.13-1.07,1.99-2.21,1.9c-1.13-0.08-1.99-1.07-1.9-2.21c0.08-1.1,1.01-1.94,2.11-1.91
		C250.79,270.59,251.68,271.57,251.63,272.73z"/>
	<path fill="#FF725E" d="M258,272.75c-0.08,1.14-1.06,1.99-2.2,1.91c-1.14-0.08-1.99-1.06-1.91-2.2c0.08-1.1,1.01-1.95,2.11-1.92
		C257.15,270.62,258.04,271.6,258,272.75z"/>
	<path fill="#FF725E" d="M264.38,272.78c-0.08,1.14-1.06,1.99-2.2,1.92s-1.99-1.06-1.92-2.2c0.07-1.08,0.98-1.92,2.06-1.92
		C263.5,270.62,264.42,271.61,264.38,272.78z"/>
	<path fill="#FF725E" d="M270.75,272.81c0.08,1.13-0.78,2.12-1.91,2.2c-1.13,0.08-2.12-0.78-2.2-1.91c-0.01-0.1-0.01-0.19,0-0.29
		c-0.08-1.13,0.78-2.12,1.91-2.2c1.13-0.08,2.12,0.78,2.2,1.91C270.76,272.62,270.76,272.71,270.75,272.81z"/>
	<path fill="#FF725E" d="M277.12,272.84c-0.08,1.14-1.06,1.99-2.2,1.92s-1.99-1.06-1.92-2.2c0.07-1.08,0.98-1.92,2.06-1.92
		C276.24,270.68,277.16,271.67,277.12,272.84z"/>
	<path fill="#FF725E" d="M283.49,272.87c-0.08,1.14-1.06,1.99-2.2,1.91c-1.14-0.08-1.99-1.06-1.91-2.2c0.08-1.1,1.01-1.95,2.11-1.92
		C282.64,270.74,283.53,271.72,283.49,272.87z"/>
	<g>
		<path fill="#587CF8" d="M232.51,272.64c-0.08,1.13-1.07,1.99-2.21,1.9c-1.13-0.08-1.99-1.07-1.9-2.21
			c0.08-1.1,1.01-1.94,2.11-1.91C231.67,270.49,232.56,271.48,232.51,272.64z"/>
		<path fill="#587CF8" d="M238.88,272.67c0.08,1.13-0.78,2.12-1.91,2.2c-1.13,0.08-2.12-0.78-2.2-1.91c-0.01-0.1-0.01-0.19,0-0.29
			c-0.08-1.13,0.78-2.12,1.91-2.2c1.13-0.08,2.12,0.78,2.2,1.91C238.89,272.48,238.89,272.57,238.88,272.67z"/>
		<path fill="#587CF8" d="M245.26,272.7c-0.08,1.13-1.07,1.99-2.21,1.9c-1.13-0.08-1.99-1.07-1.9-2.21c0.08-1.1,1.01-1.94,2.11-1.91
			C244.42,270.56,245.31,271.54,245.26,272.7z"/>
		<path fill="#587CF8" d="M251.63,272.73c-0.08,1.13-1.07,1.99-2.21,1.9c-1.13-0.08-1.99-1.07-1.9-2.21
			c0.08-1.1,1.01-1.94,2.11-1.91C250.79,270.59,251.68,271.57,251.63,272.73z"/>
		<path fill="#587CF8" d="M258,272.75c-0.08,1.14-1.06,1.99-2.2,1.91c-1.14-0.08-1.99-1.06-1.91-2.2c0.08-1.1,1.01-1.95,2.11-1.92
			C257.15,270.62,258.04,271.6,258,272.75z"/>
		<path fill="#587CF8" d="M264.38,272.78c-0.08,1.14-1.06,1.99-2.2,1.92s-1.99-1.06-1.92-2.2c0.07-1.08,0.98-1.92,2.06-1.92
			C263.5,270.62,264.42,271.61,264.38,272.78z"/>
		<path fill="#587CF8" d="M270.75,272.81c0.08,1.13-0.78,2.12-1.91,2.2c-1.13,0.08-2.12-0.78-2.2-1.91c-0.01-0.1-0.01-0.19,0-0.29
			c-0.08-1.13,0.78-2.12,1.91-2.2c1.13-0.08,2.12,0.78,2.2,1.91C270.76,272.62,270.76,272.71,270.75,272.81z"/>
		<path fill="#587CF8" d="M277.12,272.84c-0.08,1.14-1.06,1.99-2.2,1.92s-1.99-1.06-1.92-2.2c0.07-1.08,0.98-1.92,2.06-1.92
			C276.24,270.68,277.16,271.67,277.12,272.84z"/>
		<path fill="#587CF8" d="M283.49,272.87c-0.08,1.14-1.06,1.99-2.2,1.91c-1.14-0.08-1.99-1.06-1.91-2.2
			c0.08-1.1,1.01-1.95,2.11-1.92C282.64,270.74,283.53,271.72,283.49,272.87z"/>
	</g>
	<path fill="#FF725E" d="M274.44,128.51c1.42-0.63,2.33-2.04,2.31-3.59c0.11-2.01-1.44-3.72-3.44-3.83
		c-2.01-0.11-3.72,1.44-3.83,3.44c-0.01,0.13-0.01,0.25,0,0.38c-0.03,1.57,0.88,3,2.32,3.63c-5.6,0.84-5.35,6.92-5.35,6.92
		l13.24,0.06C279.69,135.53,280,129.34,274.44,128.51z"/>
	<linearGradient id="SVGID_3_" gradientUnits="userSpaceOnUse" x1="270.0254" y1="137.5343" x2="278.163" y2="123.4396">
		<stop  offset="6.425827e-07" style="stop-color:#A770EF"/>
		<stop  offset="0.3441" style="stop-color:#CF8BF3"/>
		<stop  offset="1" style="stop-color:#FDB99B"/>
	</linearGradient>
	<path fill="url(#SVGID_3_)" d="M274.44,128.51c1.42-0.63,2.33-2.04,2.31-3.59c0.11-2.01-1.44-3.72-3.44-3.83
		c-2.01-0.11-3.72,1.44-3.83,3.44c-0.01,0.13-0.01,0.25,0,0.38c-0.03,1.57,0.88,3,2.32,3.63c-5.6,0.84-5.35,6.92-5.35,6.92
		l13.24,0.06C279.69,135.53,280,129.34,274.44,128.51z"/>
	
		<rect x="269.53" y="118.57" transform="matrix(4.537840e-03 -1 1 4.537840e-03 128.9482 413.8634)" fill="#FF725E" width="5.64" height="47.19"/>
	
		<rect x="269.53" y="118.57" transform="matrix(4.537840e-03 -1 1 4.537840e-03 128.9482 413.8634)" fill="#89A9F7" width="5.64" height="47.19"/>
</g>
<g id="freepik--speech-bubble--inject-29">
	<linearGradient id="SVGID_4_" gradientUnits="userSpaceOnUse" x1="96.7449" y1="197.9599" x2="148.3135" y2="197.9599">
		<stop  offset="6.425827e-07" style="stop-color:#A770EF"/>
		<stop  offset="0.5139" style="stop-color:#CF8BF3"/>
		<stop  offset="1" style="stop-color:#FDB99B"/>
	</linearGradient>
	<path fill="url(#SVGID_4_)" d="M122.47,168.68H122l-1.36,0.1c-0.74,0.04-1.47,0.14-2.19,0.29c-0.47,0.07-0.93,0.16-1.39,0.27
		l-1.55,0.43c-2.64,0.81-5.13,2.04-7.37,3.65c-2.96,2.15-5.44,4.9-7.26,8.08c-1.07,1.83-1.92,3.78-2.54,5.81
		c-0.65,2.21-1.02,4.48-1.11,6.78c-0.06,1.21-0.04,2.42,0.06,3.62c0,0.61,0.17,1.22,0.25,1.84c0.07,0.62,0.18,1.24,0.35,1.85
		c1.82,8.14,7.38,14.93,15,18.33c2.72,1.17,5.63,1.83,8.59,1.93c3.06,0.17,6.11-0.27,9-1.29l0.88-0.33h0.12l0.1,0.06l12.61,6.4
		l-0.37,0.32c-1.35-4.18-2.65-8.23-3.91-12.12v-0.15l0.11-0.11c3.06-3.08,5.33-6.85,6.62-11c1.17-3.79,1.51-7.79,1-11.72
		c-0.45-3.5-1.58-6.87-3.31-9.94c-1.49-2.64-3.42-5-5.7-7c-1.88-1.58-3.96-2.91-6.19-3.94c-1.69-0.73-3.44-1.28-5.24-1.65l-2-0.33
		l-1.45-0.11l-0.88-0.06h-0.3c0.1-0.01,0.2-0.01,0.3,0h0.89l1.45,0.06l2,0.29c1.82,0.34,3.6,0.88,5.31,1.59
		c2.27,1.02,4.39,2.34,6.3,3.93c2.32,1.99,4.29,4.35,5.82,7c1.78,3.1,2.94,6.52,3.41,10.07c0.55,3.99,0.23,8.06-0.93,11.92
		c-1.3,4.23-3.6,8.09-6.72,11.23l0.06-0.26c1.26,3.89,2.57,7.94,3.93,12.11l0.19,0.61l-0.57-0.29l-12.61-6.39h0.22l-0.9,0.33
		c-2.94,1.03-6.06,1.48-9.17,1.32c-3.02-0.12-6-0.79-8.77-2c-5.29-2.27-9.69-6.2-12.53-11.21c-1.31-2.31-2.26-4.81-2.83-7.4
		c-0.16-0.62-0.27-1.25-0.35-1.89c-0.08-0.63-0.21-1.25-0.24-1.87c-0.27-3.56,0.11-7.14,1.11-10.56c0.63-2.06,1.51-4.03,2.61-5.88
		c1.87-3.2,4.39-5.98,7.41-8.13c2.28-1.61,4.81-2.84,7.49-3.62l1.57-0.4c0.46-0.11,0.93-0.19,1.4-0.25
		c0.73-0.14,1.47-0.22,2.21-0.24l1.37-0.05C122.16,168.69,122.31,168.68,122.47,168.68z"/>
	<linearGradient id="SVGID_5_" gradientUnits="userSpaceOnUse" x1="116.1699" y1="205.4322" x2="127.5551" y2="185.7125">
		<stop  offset="6.425827e-07" style="stop-color:#A770EF"/>
		<stop  offset="0.5139" style="stop-color:#CF8BF3"/>
		<stop  offset="1" style="stop-color:#FDB99B"/>
	</linearGradient>
	<path fill="url(#SVGID_5_)" d="M128.17,192h-1.85l-4-5.62v-3.69c0,0-2.86-0.18-2.52,4.65s0,3.6,0,3.6s-6.07,0-6.57,0.55
		s-0.53,6.41-0.6,9.68c-0.08,1.62,0.96,3.09,2.51,3.56c0.21,0.06,0.43,0.09,0.65,0.09c1.52,0,9.25-1.23,9.25-1.23h3.19L128.17,192z"
		/>
	<linearGradient id="SVGID_6_" gradientUnits="userSpaceOnUse" x1="127.6647" y1="202.7867" x2="134.2129" y2="191.4447">
		<stop  offset="6.425827e-07" style="stop-color:#A770EF"/>
		<stop  offset="0.5139" style="stop-color:#CF8BF3"/>
		<stop  offset="1" style="stop-color:#FDB99B"/>
	</linearGradient>
	<polygon fill="url(#SVGID_6_)" points="133.46,191.01 132.32,203.65 129.16,203.65 129.16,191.27 	"/>
</g>
<g id="freepik--Character--inject-29">
	<path fill="#587CF8" d="M171.15,448.34v-8.55l-15.33-0.11l-0.13,12.93l0.95,0.07c4.23,0.27,21.52,0.67,24.36-0.21
		C184.16,451.49,171.15,448.34,171.15,448.34z"/>
	<path fill="#263238" d="M181.36,451.67c0,0.14-5.74,0.26-12.81,0.26s-12.81-0.12-12.81-0.26s5.74-0.26,12.81-0.26
		S181.36,451.53,181.36,451.67z"/>
	<path fill="#263238" d="M171.42,450.09c-0.13-0.07,0-0.52,0.31-1s0.73-0.68,0.83-0.58s-0.11,0.48-0.41,0.89
		S171.55,450.16,171.42,450.09z"/>
	<path fill="#263238" d="M172.4,450.65c-0.14,0-0.07-0.56,0.23-1.09s0.7-0.85,0.81-0.77s-0.07,0.53-0.35,1
		S172.53,450.7,172.4,450.65z"/>
	<path fill="#263238" d="M160.36,451.63c-0.06,0-0.29-0.18-0.62-0.56c-0.4-0.49-0.85-0.94-1.34-1.34c-0.48-0.38-1.05-0.64-1.66-0.73
		c-0.47-0.06-0.77,0-0.8-0.06s0.26-0.27,0.81-0.31c0.73-0.02,1.43,0.23,2,0.68c0.53,0.43,0.98,0.96,1.32,1.55
		C160.3,451.3,160.42,451.59,160.36,451.63z"/>
	<path fill="#263238" d="M171.47,448.48c0.07,0.12-0.19,0.42-0.63,0.58s-0.83,0.1-0.85,0s0.29-0.31,0.67-0.45
		S171.39,448.36,171.47,448.48z"/>
	<path fill="#263238" d="M171.23,447.65c0,0.15-0.4,0.27-0.92,0.28s-0.93-0.11-0.92-0.25s0.42-0.27,0.92-0.28
		S171.21,447.51,171.23,447.65z"/>
	<path fill="#587CF8" d="M208.9,448.34v-8.55l-15.33-0.11l-0.13,12.8l0.95,0.07c4.23,0.27,21.53,0.8,24.36-0.08
		C221.91,451.49,208.9,448.34,208.9,448.34z"/>
	<path fill="#263238" d="M219.11,451.69c0,0.14-5.73,0.26-12.81,0.26s-12.8-0.12-12.8-0.26s5.73-0.26,12.8-0.26
		S219.11,451.55,219.11,451.69z"/>
	<path fill="#263238" d="M209.17,450.09c-0.12-0.07,0-0.52,0.31-1s0.73-0.68,0.83-0.58s-0.11,0.48-0.41,0.89
		S209.3,450.16,209.17,450.09z"/>
	<path fill="#263238" d="M210.15,450.65c-0.13,0-0.07-0.56,0.24-1.09s0.7-0.85,0.81-0.77s-0.08,0.53-0.36,1
		S210.29,450.7,210.15,450.65z"/>
	<path fill="#263238" d="M198.11,451.63c-0.06,0-0.28-0.18-0.62-0.56c-0.4-0.49-0.85-0.94-1.34-1.34c-0.48-0.38-1.05-0.64-1.66-0.73
		c-0.46-0.06-0.77,0-0.8-0.06s0.26-0.27,0.81-0.31c0.73-0.02,1.43,0.23,2,0.68c0.53,0.43,0.98,0.96,1.32,1.55
		C198.05,451.3,198.17,451.59,198.11,451.63z"/>
	<path fill="#263238" d="M209.22,448.48c0.07,0.12-0.19,0.42-0.63,0.58s-0.83,0.1-0.85,0s0.29-0.31,0.67-0.45
		S209.14,448.36,209.22,448.48z"/>
	<path fill="#263238" d="M209,447.65c0,0.15-0.4,0.27-0.92,0.28s-0.92-0.11-0.91-0.25s0.41-0.27,0.91-0.28S209,447.51,209,447.65z"
		/>
	<path fill="#FFBE9D" d="M265.38,194.44c-0.4-0.41-1.39-0.21-1.39-0.21c0.1-0.58,0.1-1.16,0-1.74c-0.18-0.56-1.44-0.45-1.44-0.45
		c-0.06-0.47-0.06-0.95,0-1.42c0.02-0.21-0.1-0.42-0.29-0.51c-0.6-0.24-1.24-0.36-1.88-0.34c-0.77-0.55,2.35-4.92,3.51-6.32
		s0.95-2.49-0.08-2.49c-0.71,0-4.35,4.2-5.47,5.61s-4.09,5.33-4.19,2.2s-1.36-5.49-2.15-5.89s-1.63,0.54-1.2,1.41
		c0.38,0.99,0.61,2.03,0.7,3.08c0.11,0.84,0.07,1.69-0.11,2.52c-0.33,1.54-0.78,3.05-1.35,4.52h-0.08c0,0-21.82,20.93-23.4,22.42
		c-1.41,1.34-29.77-1.59-35.46-2.19c-1.93-0.28-3.89-0.42-5.84-0.4c-2.47,0.11-2.91,0.46-5.37,0.49
		c-6.21,0.07-12.41,0.61-18.54,1.63c-5.66,0.96-10.31,5-12.06,10.46c-5.73,17.9-18.71,60.27-21,84.07
		c-1.73,3.14-3.29,6.37-4.68,9.67c-1.61,4.38-1.22,4.53-0.68,4.63c1.46,0.27,3.12-7.59,3.74-5.69s-3.15,9.37-1.62,9.59
		c2,0.28,3.59-8,3.78-8.66s1.18-0.45,1,0.17c-0.29,0.88-3.1,10.21-1.14,10.51c1.08,0.16,1.2-1.81,1.2-1.81s2-8.93,2.91-8.75
		s-0.06,5.45-0.52,7.21s0.18,2.65,1.12,2.22c0.64-0.3,2.17-5.65,2.59-7.39s1.47-6.56,2.88-3.77s3.55,4.41,4.43,4.45
		c0.55-0.06,0.94-0.56,0.88-1.11c-0.03-0.27-0.17-0.52-0.39-0.68c-0.76-0.74-1.41-1.58-1.93-2.5c-0.47-0.72-0.8-1.51-1-2.34
		c-0.4-1.66-0.64-3.35-0.7-5.06l-0.16-1c2.24-11.09,8.69-43.64,18-64.43l3.82,7.86l1.66,5.82l-10.18,25.13l43.42-0.57l-6.48-24.94
		l7.87-26l0,0c8.51,0.19,30.36,0.51,34-1.14c4.58-2,28.27-31.92,28.27-31.92l0,0c1.54-1.2,3.02-2.48,4.43-3.84
		C264.81,196.55,266.25,195.34,265.38,194.44z"/>
	<path fill="#587CF8" d="M151.39,266.39c1.26-4.3,7.73-25.56,7.73-25.56s3.18,17.33,2.34,19.42c-0.77,1.79-1.69,3.51-2.73,5.16
		c-7.34,11.17-6.38,16.76-6.38,16.76l44.35-1.35c0.1-6.2-3.57-20.62-4.33-22.92s1.77-9.83,1.77-9.83s5-5.09,4.82-7.71
		c-0.09-2.35-0.39-4.69-0.87-7l27,1l-0.85-18.3l-38.78-3.88c-1.35,3.81-13.56,1.94-13.56,1.94c-13.18,0.44-14,2.86-19.48,7.12
		s-14.55,40.82-14.55,40.82L151.39,266.39z"/>
	<path fill="#263238" d="M177.61,262.06c-0.77,0.14-1.55,0.18-2.33,0.12c-1.45,0-3.44-0.1-5.63-0.32s-4.17-0.53-5.58-0.81
		c-0.78-0.1-1.54-0.29-2.27-0.58c0.78,0,1.56,0.07,2.33,0.22c1.42,0.18,3.39,0.43,5.57,0.65s4.16,0.37,5.59,0.47
		C176.07,261.82,176.85,261.9,177.61,262.06z"/>
	<path fill="#263238" d="M180.65,258.29c-0.77,0.38-1.58,0.66-2.42,0.83c-3.99,1.05-8.11,1.54-12.23,1.45
		c-0.85,0.03-1.71-0.05-2.54-0.24c0.84-0.11,1.69-0.15,2.54-0.13c1.57-0.05,3.73-0.16,6.11-0.44s4.5-0.68,6-1
		C178.94,258.54,179.79,258.38,180.65,258.29z"/>
	<path fill="#263238" d="M195.57,241.47c-0.02,0.76-0.12,1.52-0.31,2.26c-0.26,1.39-0.66,3.29-1.17,5.37s-1,4-1.44,5.3
		c-0.18,0.74-0.44,1.47-0.78,2.15c0.06-0.76,0.2-1.51,0.42-2.24c0.38-1.56,0.81-3.36,1.29-5.33s0.94-3.77,1.32-5.33
		C195.04,242.9,195.26,242.17,195.57,241.47z"/>
	<path fill="#263238" d="M151.86,263.84c-2.31-0.36-4.6-0.89-6.83-1.59c-2.28-0.53-4.52-1.24-6.7-2.1c2.31,0.36,4.6,0.89,6.83,1.59
		C147.44,262.27,149.68,262.97,151.86,263.84z"/>
	<path fill="#263238" d="M198.57,233.14c-0.38,0.06-0.76,0.06-1.14,0c-1.04-0.11-2.07-0.35-3.05-0.73
		c-3.31-1.24-5.94-3.83-7.24-7.11c-0.71-1.79-1.02-3.71-0.89-5.63c0.04-1.58,0.52-3.12,1.37-4.46c0.6-0.9,1.49-1.56,2.53-1.87
		c0.28-0.08,0.56-0.11,0.85-0.11c0.2,0,0.3,0,0.3,0s-0.42,0-1.09,0.27c-0.95,0.35-1.76,1.01-2.29,1.87
		c-1.36,2.14-1.74,6.05-0.29,9.7c0.67,1.72,1.73,3.27,3.09,4.52c1.11,1.03,2.4,1.85,3.79,2.44
		C195.82,232.55,197.18,232.92,198.57,233.14z"/>
	<path fill="#263238" d="M221.88,234c-0.25-3.07-0.33-6.14-0.24-9.22c-0.08-3.07,0.02-6.15,0.28-9.21c0.25,3.06,0.33,6.14,0.24,9.21
		C222.24,227.86,222.15,230.93,221.88,234z"/>
	<path fill="#FFBE9D" d="M185.2,213.3c0.11-2.23,0.34-4.75,0.34-4.75s5.52-0.61,5.85-6.31s0-18.85,0-18.85l-10-5.12l-11.1,8.73
		l1.71,28.5l10.18,0.65C183.8,216.19,185.15,214.92,185.2,213.3z"/>
	<path fill="#EB996E" d="M186.19,197.73c0,0,0,0.11-0.09,0.24c-0.15,0.19-0.39,0.3-0.63,0.28c-0.64,0-1.26-0.74-1.48-1.6
		c-0.1-0.42-0.1-0.85,0-1.27c0.04-0.37,0.27-0.69,0.6-0.86c0.13-0.06,0.29-0.06,0.42,0c0.1,0.05,0.18,0.13,0.23,0.23
		c0.07,0.17,0,0.28,0,0.27s0-0.1-0.1-0.2c-0.11-0.15-0.31-0.19-0.47-0.1c-0.25,0.15-0.4,0.42-0.41,0.71c-0.08,0.37-0.08,0.76,0,1.13
		c0.2,0.78,0.74,1.41,1.22,1.47c0.19,0.03,0.38-0.03,0.53-0.15C186.13,197.8,186.17,197.72,186.19,197.73z"/>
	<path fill="#263238" d="M194.82,180.31c-0.77-2.62-3.56-3.92-6.1-4.64c-3.87-1.1-8.05-1.58-11.83-0.19s-8.32,3.83-8.32,8
		c-2.23-0.18-3.51,1.77-4.39,4.19c-0.56,1.47-0.9,3.03-1,4.6l0,0c-0.28,5.46-1.81,13-5.35,17c-2,2.23-4.77,3.77-5.91,6.55
		c-1,2.41-0.48,5.27-1.41,7.71c-0.83,2.15-2.66,3.68-4,5.55c-2.78,4.31-3.13,9.75-0.95,14.39c2.19,4.49,6.12,7.89,10.89,9.4
		c4.67,1.42,9.65,1.47,14.35,0.14c3.53-0.84,6.81-2.47,9.62-4.77c2.87-2.34,4.84-5.61,5.58-9.24c0.71-4.08-0.43-8.23-1.28-12.29
		c-2.66-12.83-1.9-13.5,1.46-25.41c0.08-0.21,0.12-0.43,0.18-0.64s0.09-0.31,0.13-0.47l0,0c0.1-0.47,0.15-0.95,0.15-1.43
		c-1,0.37-2.13,0.13-2.89-0.62c-0.76-0.8-1.02-1.95-0.68-3c0.48-1.14,1.41-2.02,2.58-2.43c1.11-0.46,2.3-0.7,3.39-1.21
		c2.31-1.1,3.91-3.38,5-5.77C194.94,184.07,195.21,182.15,194.82,180.31z"/>
	<path fill="#587CF8" d="M186.59,198c0.21,0.31,0.39,0.65,0.52,1c0.3,0.63,0.7,1.52,1.14,2.55l0.08,0.19h-0.21l-1,0.09
		c-0.69,0-1.27,0.13-1.95,0.12c-0.12-0.03-0.22-0.11-0.26-0.23c-0.03-0.09-0.03-0.19,0-0.28c0.02-0.13,0.05-0.27,0.09-0.4l0.18-0.71
		c0.09-0.47,0.23-0.94,0.42-1.38c-0.02,0.48-0.09,0.96-0.21,1.43l-0.14,0.71c-0.05,0.24-0.14,0.61,0,0.58c0.5,0,1.21-0.11,1.87-0.15
		l1-0.09l-0.13,0.22c-0.43-1-0.79-1.94-1-2.59C186.81,198.73,186.67,198.37,186.59,198z"/>
	<path fill="#263238" d="M152.35,282.17l44.35-1.35l19.3,75.34l-3.55,86.42H189l2.87-84.58l-17.15-52.45l2.64,140.38l-23.7,0.35
		l-2.49-131.95c-0.11-3.67-1.31-11.94-0.86-15.58L152.35,282.17z"/>
	<path fill="#455A64" d="M180.62,306.62c-0.73,0.05-1.45,0-2.17-0.13c-1.34-0.16-3.17-0.44-5.18-0.84s-3.81-0.86-5.11-1.23
		c-0.69-0.15-1.37-0.39-2-0.72c0-0.15,3.26,0.63,7.26,1.44S180.64,306.47,180.62,306.62z"/>
	<path fill="#455A64" d="M212.21,437.84c0,0.14-5.31,0.26-11.86,0.26s-11.87-0.12-11.87-0.26s5.31-0.26,11.87-0.26
		S212.21,437.69,212.21,437.84z"/>
	<path fill="#455A64" d="M177.15,442.28c0,0.15-5.16,0.26-11.52,0.26s-11.51-0.11-11.51-0.26s5.16-0.26,11.51-0.26
		S177.15,442.14,177.15,442.28z"/>
	<path fill="#455A64" d="M174.09,441.92c-0.14,0-0.76-30.67-1.39-68.5s-1-68.52-0.87-68.52s0.77,30.66,1.39,68.51
		S174.24,441.92,174.09,441.92z"/>
	<path fill="#455A64" d="M209.06,437.84c-0.01-0.14-0.01-0.27,0-0.41v-1.2c0-1.08,0.08-2.63,0.14-4.6c0.14-4,0.34-9.81,0.59-16.93
		c0.54-14.32,1.3-34.06,2.13-55.85c0-0.21,0-0.41,0-0.59v0.07c-5.25-21-10-40.06-13.45-53.85l-4-16.31
		c-0.46-1.91-0.81-3.4-1.06-4.44c-0.12-0.49-0.2-0.87-0.27-1.16c-0.04-0.13-0.06-0.26-0.07-0.4c0.05,0.13,0.09,0.26,0.12,0.39
		c0.08,0.28,0.18,0.66,0.32,1.14c0.27,1,0.66,2.52,1.16,4.42c1,3.86,2.41,9.42,4.17,16.27c3.48,13.78,8.28,32.79,13.6,53.82v0.07
		c0,0.18,0,0.39,0,0.59c-0.89,21.79-1.7,41.52-2.29,55.84c-0.31,7.13-0.57,12.9-0.75,16.92c-0.1,2-0.18,3.52-0.23,4.6
		c0,0.51-0.06,0.91-0.07,1.2C209.1,437.57,209.09,437.71,209.06,437.84z"/>
	<path fill="#455A64" d="M201.41,356.5c-1.68,0.55-3.42,0.94-5.18,1.15c-2.16,0.37-4,0.63-4.83,0.67v-0.2
		c0.27,0.08,0.41,0.13,0.41,0.17s-0.17,0-0.45,0h-0.6l0.6-0.18c0.78-0.23,2.62-0.61,4.78-1
		C197.87,356.73,199.64,356.53,201.41,356.5z"/>
	<path fill="#455A64" d="M201,359.37c-1.56,0.07-3.12,0-4.67-0.21c-1.56-0.03-3.12-0.2-4.65-0.51
		C194.81,358.4,197.95,358.64,201,359.37z"/>
	<path opacity="0.2" enable-background="new    " d="M152.16,283.76c1.06,1.36,2.66,2.21,4.38,2.33c1.79,0.21,3.59,0.18,5.37-0.1
		c11.45-1.27,23.58-2.44,34.79-5.17c-14.51,0.81-29.84,0.54-44.35,1.35l-0.15,1.24"/>
	<g opacity="0.2">
		<polygon points="167.11,304.21 175.29,335.95 174.72,305.55 		"/>
	</g>
</g>
</svg>
