<?xml version="1.0" encoding="utf-8"?>
<!-- Generator: Adobe Illustrator 25.0.0, SVG Export Plug-In . SVG Version: 6.00 Build 0)  -->
<svg version="1.1" id="Capa_1" xmlns="http://www.w3.org/2000/svg" xmlns:xlink="http://www.w3.org/1999/xlink" x="0px" y="0px"
	 viewBox="0 0 512 512" enable-background="new 0 0 512 512" xml:space="preserve">
<g>
	<g>
		<path fill="#587CF8" d="M383.84,171.84c-7.88-8.31-21.02-8.68-29.34-0.77L221.99,296.73l-63.2-64.89
			c-8.01-8.21-21.13-8.39-29.35-0.39c-8.21,8-8.39,21.14-0.39,29.35l77.49,79.56c4.06,4.17,9.46,6.27,14.87,6.27
			c5.13,0,10.27-1.9,14.29-5.69l147.37-139.76C391.38,193.29,391.73,180.15,383.84,171.84z"/>
	</g>
</g>
<g>
	<g>
		<path fill="#587CF8" d="M256,0C114.84,0,0,114.84,0,256s114.84,256,256,256s256-114.84,256-256S397.16,0,256,0z M256,470.49
			c-118.26,0-214.49-96.21-214.49-214.49c0-118.26,96.22-214.49,214.49-214.49c118.27,0,214.49,96.22,214.49,214.49
			C470.49,374.27,374.27,470.49,256,470.49z"/>
	</g>
</g>
</svg>
