<?xml version="1.0" encoding="utf-8"?>
<!-- Generator: Adobe Illustrator 25.0.0, SVG Export Plug-In . SVG Version: 6.00 Build 0)  -->
<svg version="1.1" id="light" xmlns="http://www.w3.org/2000/svg" xmlns:xlink="http://www.w3.org/1999/xlink" x="0px" y="0px"
	 viewBox="0 0 512 512" style="enable-background:new 0 0 512 512;" xml:space="preserve">
<style type="text/css">
	.st0{display:none;}
	.st1{display:inline;fill:url(#SVGID_1_);}
	.st2{display:inline;fill:#FFFFFF;}
	.st3{fill:#FFFFFF;}
</style>
<g class="st0">
	
		<linearGradient id="SVGID_1_" gradientUnits="userSpaceOnUse" x1="74.964" y1="74.9861" x2="437.036" y2="437.0139" gradientTransform="matrix(1 0 0 -1 0 512)">
		<stop  offset="0" style="stop-color:#FFDD55"/>
		<stop  offset="0.5" style="stop-color:#FF543E"/>
		<stop  offset="1" style="stop-color:#C837AB"/>
	</linearGradient>
	<path class="st1" d="M256,512L256,512C114.6,512,0,397.4,0,256l0,0C0,114.6,114.6,0,256,0l0,0c141.4,0,256,114.6,256,256l0,0
		C512,397.4,397.4,512,256,512z"/>
	<path class="st2" d="M256,110.2c-59.7,0-116.5-5.3-138.1,50.3c-8.9,23-7.7,52.8-7.7,95.5c0,37.5-1.2,72.7,7.7,95.5
		c21.6,55.6,78.8,50.3,138.1,50.3c57.2,0,116.2,6,138.1-50.3c9-23.2,7.7-52.6,7.7-95.5c0-57,3.1-93.7-24.5-121.3
		C349.2,106.7,311.4,110.2,256,110.2L256,110.2z M242.9,136.5c124.6-0.2,140.5-14.1,131.7,178.4c-3.1,68.1-54.9,60.6-118.6,60.6
		c-116.2,0-119.5-3.3-119.5-119.5C136.5,138.4,145.7,136.6,242.9,136.5L242.9,136.5z M333.8,160.7c-9.7,0-17.5,7.8-17.5,17.5
		s7.8,17.5,17.5,17.5s17.5-7.8,17.5-17.5S343.4,160.7,333.8,160.7z M256,181.2c-41.3,0-74.9,33.5-74.9,74.9S214.6,331,256,331
		s74.8-33.5,74.8-74.9S297.3,181.2,256,181.2L256,181.2z M256,207.4c64.2,0,64.3,97.2,0,97.2C191.7,304.6,191.6,207.4,256,207.4z"/>
</g>
<g>
	<path class="st3" d="M255.4-0.2c-105,0-204.9-9.3-242.8,88.4C-3,128.5-0.9,180.9-0.9,255.9c0,65.9-2.1,127.7,13.5,167.8
		c38,97.7,138.6,88.4,242.8,88.4c100.6,0,204.3,10.5,242.8-88.4c15.8-40.8,13.5-92.4,13.5-167.8c0-100.1,5.5-164.6-43.1-213.1
		C419.3-6.4,352.9-0.2,255.4-0.2L255.4-0.2z M232.4,46C451.5,45.6,479.5,21.2,464,359.4c-5.5,119.6-96.5,106.5-208.5,106.5
		c-204.3,0-210.1-5.8-210.1-209.9C45.3,49.3,61.5,46.1,232.4,46L232.4,46z M392.2,88.5c-17.1,0-30.8,13.7-30.8,30.7
		s13.7,30.7,30.8,30.7s30.8-13.7,30.8-30.7S409.1,88.5,392.2,88.5z M255.4,124.5c-72.6,0-131.7,58.9-131.7,131.6
		s58.9,131.6,131.7,131.6S387,328.8,387,256.1S328.1,124.5,255.4,124.5L255.4,124.5z M255.4,170.5c112.9,0,113.1,170.8,0,170.8
		C142.4,341.3,142.2,170.5,255.4,170.5z"/>
</g>
</svg>
