<?xml version="1.0" encoding="utf-8"?>
<!-- Generator: Adobe Illustrator 25.0.0, SVG Export Plug-In . SVG Version: 6.00 Build 0)  -->
<svg version="1.1" id="light" xmlns="http://www.w3.org/2000/svg" xmlns:xlink="http://www.w3.org/1999/xlink" x="0px" y="0px"
	 viewBox="0 0 512 512" style="enable-background:new 0 0 512 512;" xml:space="preserve">
<style type="text/css">
	.st0{fill:#587BF7;}
	.st1{fill:url(#SVGID_1_);}
	.st2{fill:#FFFFFF;}
	.st3{fill:#FF0000;}
	.st4{fill:#F00044;}
	.st5{fill:#08FFF9;}
	.st6{fill:#A0A0A0;}
	.st7{fill:#41479B;}
	.st8{fill:#F5F5F5;}
	.st9{fill:#FF4B55;}
	.st10{fill:#CFCFCF;}
	.st11{fill:#F8F8F8;stroke:#CFCFCF;stroke-width:0.6081;stroke-miterlimit:10;}
	.st12{fill:#B4B6B9;}
	.st13{fill:#3791FF;}
	.st14{fill:#1432B9;}
	.st15{fill:#8C9196;}
	.st16{fill:#FFFFFF;stroke:#CFCFCF;stroke-width:2.8378;stroke-miterlimit:10;}
	.st17{fill:#2387F5;}
	.st18{fill:#071EA0;}
</style>
<g>
	<path class="st0" d="M373.9,308.3c-1.4-4.8-7.4-7.1-13.5-7.1c-5.9,0-11.9,2.3-13.3,7.1l-31,101.1c-0.2,0.6-0.3,1.3-0.3,1.6
		c0,5.1,7.6,8.7,13.2,8.7c3.5,0,6.3-1.1,7.1-4.2l6.1-21.4h36.8l6.1,21.4c0.8,3.1,3.5,4.2,7.1,4.2c5.6,0,13.2-3.7,13.2-8.7
		c0-0.5-0.2-1-0.3-1.6L373.9,308.3z M346.4,377.7l14-49.3l14,49.3H346.4z"/>
	<path class="st0" d="M456.8,208.9H303.1v-65.6l50-35.7c3.9-2.8,6.3-7.4,6.3-12.2c0-4.8-2.3-9.4-6.3-12.2L302.5,47
		C298.6,20.4,275.6,0,248,0H55.2C24.7,0,0,24.7,0,55.2V248c0,30.4,24.7,55.2,55.2,55.2h153.7v65.6l-50,35.7
		c-3.9,2.8-6.3,7.4-6.3,12.2s2.3,9.4,6.3,12.2l50.6,36.1c3.9,26.6,26.9,47,54.6,47h192.8c30.4,0,55.2-24.8,55.2-55.2V264
		C512,233.6,487.3,208.9,456.8,208.9z M47.3,281.2c-14.8,0-26.8-12-26.8-26.8V48.8c0-14.8,12-26.8,26.8-26.8h205.6
		c14.8,0,26.8,12,26.8,26.8c0,5.2,2.5,10,6.7,13l41.7,29.8l-41.7,29.8c-4.2,3-6.7,7.9-6.7,13v78.2H270c-32.4,0-58.8,26.4-58.8,58.8
		v9.7H47.3z M492.2,463.6c0,14.9-12.1,26.9-26.9,26.9H258.8c-14.9,0-26.9-12.1-26.9-26.9c0-5.2-2.5-10.1-6.7-13.1l-41.9-29.9
		l41.9-29.9c4.2-3,6.7-7.9,6.7-13.1V257.3c0-14.9,12.1-26.9,26.9-26.9h25.7h0h0h180.5c14.9,0,26.9,12.1,26.9,26.9V463.6z"/>
	<path class="st0" d="M197.7,138.3c4.7,0,8.5-3.8,8.5-8.5s-3.8-8.5-8.5-8.5H160v-20.5c0-4.7-3.8-8.5-8.5-8.5c-4.7,0-8.5,3.8-8.5,8.5
		v20.5h-37.6c-4.7,0-8.5,3.8-8.5,8.5s3.8,8.5,8.5,8.5h11.7c1.9,17.9,9.6,34,21.2,46.5c-9.6,5.8-20.8,9.1-32.8,9.1
		c-4.7,0-8.5,3.8-8.5,8.5s3.8,8.5,8.5,8.5c17.1,0,33-5.4,46.1-14.5c13.1,9.1,29,14.5,46.1,14.5c4.7,0,8.5-3.8,8.5-8.5
		s-3.8-8.5-8.5-8.5c-12,0-23.2-3.3-32.8-9.1c11.6-12.5,19.3-28.6,21.2-46.5H197.7z M151.6,174.2c-9.3-9.6-15.5-22.1-17.4-35.9h34.8
		C167.1,152.1,160.8,164.6,151.6,174.2z"/>
</g>
</svg>
