<?xml version="1.0" encoding="utf-8"?>
<!-- Generator: Adobe Illustrator 25.0.0, SVG Export Plug-In . SVG Version: 6.00 Build 0)  -->
<svg version="1.1" id="light" xmlns="http://www.w3.org/2000/svg" xmlns:xlink="http://www.w3.org/1999/xlink" x="0px" y="0px"
	 viewBox="0 0 512 512" style="enable-background:new 0 0 512 512;" xml:space="preserve">
<style type="text/css">
	.st0{fill:#587BF7;}
	.st1{fill:url(#SVGID_1_);}
	.st2{fill:#FFFFFF;}
	.st3{fill:#FF0000;}
	.st4{fill:#F00044;}
	.st5{fill:#08FFF9;}
	.st6{fill:#A0A0A0;}
	.st7{fill:#41479B;}
	.st8{fill:#F5F5F5;}
	.st9{fill:#FF4B55;}
	.st10{fill:#CFCFCF;}
	.st11{fill:#F8F8F8;stroke:#CFCFCF;stroke-width:0.6081;stroke-miterlimit:10;}
	.st12{fill:#B4B6B9;}
	.st13{fill:#3791FF;}
	.st14{fill:#1432B9;}
	.st15{fill:#8C9196;}
	.st16{fill:#FFFFFF;stroke:#CFCFCF;stroke-width:2.8378;stroke-miterlimit:10;}
	.st17{fill:#2387F5;}
	.st18{fill:#071EA0;}
</style>
<path class="st0" d="M400,512H112c-26.5,0-48-21.5-48-48V240c0-26.5,21.5-48,48-48h288c26.5,0,48,21.5,48,48v224
	C448,490.5,426.5,512,400,512z M112,224c-8.8,0-16,7.2-16,16v224c0,8.8,7.2,16,16,16h288c8.8,0,16-7.2,16-16V240c0-8.8-7.2-16-16-16
	H112z"/>
<path class="st0" d="M368,224c-8.8,0-16-7.2-16-16v-80c0-52.9-43.1-96-96-96s-96,43.1-96,96v80c0,8.8-7.2,16-16,16s-16-7.2-16-16
	v-80C128,57.4,185.4,0,256,0s128,57.4,128,128v80C384,216.8,376.8,224,368,224z"/>
<path class="st0" d="M256,362.7c-23.5,0-42.7-19.1-42.7-42.7c0-23.5,19.1-42.7,42.7-42.7s42.7,19.1,42.7,42.7
	C298.7,343.5,279.5,362.7,256,362.7z M256,309.3c-5.9,0-10.7,4.8-10.7,10.7s4.8,10.7,10.7,10.7c5.9,0,10.7-4.8,10.7-10.7
	S261.9,309.3,256,309.3z"/>
<path class="st0" d="M256,426.7c-8.8,0-16-7.2-16-16V352c0-8.8,7.2-16,16-16c8.8,0,16,7.2,16,16v58.7
	C272,419.5,264.8,426.7,256,426.7z"/>
</svg>
