<?xml version="1.0" encoding="utf-8"?>
<!-- Generator: Adobe Illustrator 25.0.0, SVG Export Plug-In . SVG Version: 6.00 Build 0)  -->
<svg version="1.1" id="light" xmlns="http://www.w3.org/2000/svg" xmlns:xlink="http://www.w3.org/1999/xlink" x="0px" y="0px"
	 viewBox="0 0 512 512" style="enable-background:new 0 0 512 512;" xml:space="preserve">
<style type="text/css">
	.st0{fill:#587BF7;}
	.st1{fill:url(#SVGID_1_);}
	.st2{fill:#FFFFFF;}
	.st3{fill:#FF0000;}
	.st4{fill:#F00044;}
	.st5{fill:#08FFF9;}
	.st6{fill:#A0A0A0;}
	.st7{fill:#41479B;}
	.st8{fill:#F5F5F5;}
	.st9{fill:#FF4B55;}
	.st10{fill:#CFCFCF;}
	.st11{fill:#F8F8F8;stroke:#CFCFCF;stroke-width:0.6081;stroke-miterlimit:10;}
	.st12{fill:#B4B6B9;}
	.st13{fill:#3791FF;}
	.st14{fill:#1432B9;}
	.st15{fill:#8C9196;}
	.st16{fill:#FFFFFF;stroke:#CFCFCF;stroke-width:2.8378;stroke-miterlimit:10;}
	.st17{fill:#2387F5;}
	.st18{fill:#071EA0;}
</style>
<g>
	<path class="st0" d="M511.4,38.2c-1.1-20.3-17.3-36.5-37.6-37.6c-41-2.2-121.3-0.1-198.1,39.7c-39.1,20.2-80.5,54.6-113.6,94.2
		c-0.4,0.5-0.8,1-1.2,1.5l-75,5.8c-12.3,1-23.3,7.4-30.2,17.7L4.6,236.8c-5.2,7.8-6,17.6-2.2,26.2c3.8,8.6,11.6,14.6,20.9,16
		l63.2,9.8c-0.2,1.2-0.4,2.5-0.7,3.7c-2.1,12.6,2.1,25.5,11.2,34.6l88,88c7.5,7.5,17.7,11.7,28.1,11.7c2.1,0,4.3-0.2,6.5-0.5
		c1.2-0.2,2.5-0.4,3.7-0.7l9.8,63.2c1.4,9.3,7.4,17.1,16,20.9c3.6,1.6,7.4,2.4,11.1,2.4c5.3,0,10.5-1.5,15.1-4.6l77.4-51.2
		c10.3-6.8,16.8-17.8,17.7-30.2l5.8-75c0.5-0.4,1-0.8,1.5-1.2c39.6-33,73.9-74.4,94.2-113.6C511.5,159.6,513.6,79.3,511.4,38.2
		L511.4,38.2z M343.8,436.9l-89.2,59L243,421.6c37.7-11.1,75-28.8,110.5-52.6l-4.5,58.9C348.8,431.5,346.8,434.8,343.8,436.9
		L343.8,436.9z M209,404.4L107.6,303c-2.6-2.6-3.8-6.2-3.2-9.7c3-18,7.7-35.2,13.5-51.4l152.2,152.2c-19.4,7-36.8,11.1-51.3,13.5
		C215.2,408.2,211.6,407,209,404.4L209,404.4z M81,161.5l58.1-4.5c-23.5,35.1-41,71.9-51.9,109.1l-73.2-11.3l58.2-88
		C74.1,163.7,77.4,161.8,81,161.5z M361.2,334.3c-25.7,21.4-50.6,36.9-73.6,48.1L129.5,224.4c14.7-30,32.6-54.9,48.1-73.5
		C210,112,250.3,78.5,288.2,58.9c74.6-38.6,153.3-40.7,193.5-38.5c5.3,0.3,9.6,4.5,9.9,9.9c2.2,40.2,0.1,118.9-38.5,193.5
		C433.5,261.7,400,302,361.2,334.3L361.2,334.3z"/>
	<path class="st0" d="M350.7,236.2c19.2,0,38.4-7.3,53-21.9c14.2-14.2,22-33,22-53s-7.8-38.9-22-53c-29.2-29.2-76.8-29.2-106.1,0
		c-14.2,14.2-22,33-22,53s7.8,38.9,22,53C312.3,228.9,331.5,236.2,350.7,236.2L350.7,236.2z M312,122.6c10.7-10.7,24.7-16,38.7-16
		c14,0,28,5.3,38.7,16c10.3,10.3,16,24.1,16,38.7s-5.7,28.4-16,38.7c-21.3,21.3-56.1,21.3-77.4,0c-10.3-10.3-16-24.1-16-38.7
		C296,146.7,301.7,132.9,312,122.6z"/>
	<path class="st0" d="M36.6,423.6c2.7,0,5.3-1,7.3-3l33.9-33.9c4.1-4.1,4.1-10.6,0-14.7c-4.1-4.1-10.6-4.1-14.7,0l-33.9,33.9
		c-4.1,4.1-4.1,10.6,0,14.7C31.3,422.6,34,423.6,36.6,423.6z"/>
	<path class="st0" d="M108.9,403.1c-4.1-4.1-10.6-4.1-14.7,0l-65.2,65.2c-4.1,4.1-4.1,10.6,0,14.7c2,2,4.7,3,7.3,3s5.3-1,7.3-3
		l65.2-65.2C113,413.7,113,407.1,108.9,403.1L108.9,403.1z"/>
	<path class="st0" d="M125.3,434.2L91.4,468c-4.1,4.1-4.1,10.6,0,14.7c2,2,4.7,3,7.3,3c2.7,0,5.3-1,7.3-3l33.9-33.9
		c4.1-4.1,4.1-10.6,0-14.7C135.9,430.1,129.3,430.1,125.3,434.2z"/>
</g>
</svg>
