<?xml version="1.0" encoding="utf-8"?>
<!-- Generator: Adobe Illustrator 25.0.0, SVG Export Plug-In . SVG Version: 6.00 Build 0)  -->
<svg version="1.1" id="light" xmlns="http://www.w3.org/2000/svg" xmlns:xlink="http://www.w3.org/1999/xlink" x="0px" y="0px"
	 viewBox="0 0 512 512" style="enable-background:new 0 0 512 512;" xml:space="preserve">
<style type="text/css">
	.st0{fill:#587BF7;}
	.st1{fill:url(#SVGID_1_);}
	.st2{fill:#FFFFFF;}
	.st3{fill:#FF0000;}
	.st4{fill:#F00044;}
	.st5{fill:#08FFF9;}
	.st6{fill:#A0A0A0;}
	.st7{fill:#41479B;}
	.st8{fill:#F5F5F5;}
	.st9{fill:#FF4B55;}
	.st10{fill:#CFCFCF;}
	.st11{fill:#F8F8F8;stroke:#CFCFCF;stroke-width:0.6081;stroke-miterlimit:10;}
	.st12{fill:#B4B6B9;}
	.st13{fill:#3791FF;}
	.st14{fill:#1432B9;}
	.st15{fill:#8C9196;}
	.st16{fill:#FFFFFF;stroke:#CFCFCF;stroke-width:2.8378;stroke-miterlimit:10;}
	.st17{fill:#2387F5;}
	.st18{fill:#071EA0;}
</style>
<g>
	<g>
		<path class="st0" d="M202.7,320h-128c-5.9,0-10.7-4.8-10.7-10.7s4.8-10.7,10.7-10.7h128c5.9,0,10.7,4.8,10.7,10.7
			S208.6,320,202.7,320z"/>
	</g>
	<g>
		<path class="st0" d="M181.3,384H74.7c-5.9,0-10.7-4.8-10.7-10.7s4.8-10.7,10.7-10.7h106.7c5.9,0,10.7,4.8,10.7,10.7
			S187.2,384,181.3,384z"/>
	</g>
	<g>
		<path class="st0" d="M181.3,149.3c-23.5,0-42.7-19.1-42.7-42.7S157.8,64,181.3,64S224,83.1,224,106.7S204.9,149.3,181.3,149.3z
			 M181.3,85.3c-11.8,0-21.3,9.6-21.3,21.3s9.6,21.3,21.3,21.3s21.3-9.6,21.3-21.3S193.1,85.3,181.3,85.3z"/>
	</g>
	<g>
		<path class="st0" d="M256,256c-5.9,0-10.7-4.8-10.7-10.7V224c0-17.6-14.4-32-32-32h-64c-17.6,0-32,14.4-32,32v21.3
			c0,5.9-4.8,10.7-10.7,10.7S96,251.2,96,245.3V224c0-29.4,23.9-53.3,53.3-53.3h64c29.4,0,53.3,23.9,53.3,53.3v21.3
			C266.7,251.2,261.9,256,256,256z"/>
	</g>
	<g>
		<path class="st0" d="M202.7,448H53.3C23.9,448,0,424.1,0,394.7V53.3C0,23.9,23.9,0,53.3,0h256c29.4,0,53.3,23.9,53.3,53.3v129.3
			c0,5.9-4.8,10.7-10.7,10.7c-5.9,0-10.7-4.8-10.7-10.7V53.3c0-17.6-14.4-32-32-32h-256c-17.6,0-32,14.4-32,32v341.3
			c0,17.6,14.4,32,32,32h149.3c5.9,0,10.7,4.8,10.7,10.7S208.6,448,202.7,448z"/>
	</g>
	<g>
		<path class="st0" d="M373.3,512c-76.5,0-138.7-62.2-138.7-138.7s62.2-138.7,138.7-138.7S512,296.9,512,373.3S449.8,512,373.3,512z
			 M373.3,256C308.6,256,256,308.6,256,373.3s52.6,117.3,117.3,117.3S490.7,438,490.7,373.3S438,256,373.3,256z"/>
	</g>
	<g>
		<path class="st0" d="M352,426.7c-2.8,0-5.5-1.1-7.6-3.1l-42.7-42.7c-4.2-4.2-4.2-10.9,0-15.1s10.9-4.2,15.1,0l34.6,34.6l67.2-76.8
			c3.9-4.5,10.6-4.9,15.1-1c4.4,3.9,4.9,10.6,1,15.1L360,423c-1.9,2.2-4.7,3.5-7.7,3.6C352.2,426.7,352.1,426.7,352,426.7z"/>
	</g>
</g>
</svg>
