<?xml version="1.0" encoding="utf-8"?>
<!-- Generator: Adobe Illustrator 25.0.0, SVG Export Plug-In . SVG Version: 6.00 Build 0)  -->
<svg version="1.1" id="light" xmlns="http://www.w3.org/2000/svg" xmlns:xlink="http://www.w3.org/1999/xlink" x="0px" y="0px"
	 viewBox="0 0 512 512" style="enable-background:new 0 0 512 512;" xml:space="preserve">
<style type="text/css">
	.st0{fill:#587BF7;}
	.st1{fill:url(#SVGID_1_);}
	.st2{fill:#FFFFFF;}
	.st3{fill:#FF0000;}
	.st4{fill:#F00044;}
	.st5{fill:#08FFF9;}
	.st6{fill:#A0A0A0;}
	.st7{fill:#41479B;}
	.st8{fill:#F5F5F5;}
	.st9{fill:#FF4B55;}
	.st10{fill:#CFCFCF;}
	.st11{fill:#F8F8F8;stroke:#CFCFCF;stroke-width:0.6081;stroke-miterlimit:10;}
	.st12{fill:#B4B6B9;}
	.st13{fill:#3791FF;}
	.st14{fill:#1432B9;}
	.st15{fill:#8C9196;}
	.st16{fill:#FFFFFF;stroke:#CFCFCF;stroke-width:2.8378;stroke-miterlimit:10;}
	.st17{fill:#2387F5;}
	.st18{fill:#071EA0;}
</style>
<g id="Smartphone">
	<path class="st0" d="M352,8H160c-22.1,0-40,17.9-40,40v416c0,22.1,17.9,40,40,40h192c22.1,0,40-17.9,40-40V48
		C392,25.9,374.1,8,352,8z M310.2,24l-4.8,24h-98.9l-4.8-24H310.2z M376,464c0,13.2-10.8,24-24,24H160c-13.2,0-24-10.8-24-24V48
		c0-13.2,10.8-24,24-24h25.4l6.7,33.6c0.7,3.7,4,6.4,7.8,6.4h112c3.8,0,7.1-2.7,7.8-6.4l6.7-33.6H352c13.2,0,24,10.8,24,24V464z"/>
	<path class="st0" d="M208,456h-48c-4.4,0-8,3.6-8,8s3.6,8,8,8h48c4.4,0,8-3.6,8-8S212.4,456,208,456z"/>
	<path class="st0" d="M240,456h-8c-4.4,0-8,3.6-8,8s3.6,8,8,8h8c4.4,0,8-3.6,8-8S244.4,456,240,456z"/>
</g>
</svg>
