<?xml version="1.0" encoding="utf-8"?>
<!-- Generator: Adobe Illustrator 25.0.0, SVG Export Plug-In . SVG Version: 6.00 Build 0)  -->
<svg version="1.1" id="light" xmlns="http://www.w3.org/2000/svg" xmlns:xlink="http://www.w3.org/1999/xlink" x="0px" y="0px"
	 viewBox="0 0 512 512" style="enable-background:new 0 0 512 512;" xml:space="preserve">
<style type="text/css">
	.st0{fill:#587BF7;}
	.st1{fill:url(#SVGID_1_);}
	.st2{fill:#FFFFFF;}
	.st3{fill:#FF0000;}
	.st4{fill:#F00044;}
	.st5{fill:#08FFF9;}
	.st6{fill:#A0A0A0;}
	.st7{fill:#41479B;}
	.st8{fill:#F5F5F5;}
	.st9{fill:#FF4B55;}
	.st10{fill:#CFCFCF;}
	.st11{fill:#F8F8F8;stroke:#CFCFCF;stroke-width:0.6081;stroke-miterlimit:10;}
	.st12{fill:#B4B6B9;}
	.st13{fill:#3791FF;}
	.st14{fill:#1432B9;}
	.st15{fill:#8C9196;}
	.st16{fill:#FFFFFF;stroke:#CFCFCF;stroke-width:2.8378;stroke-miterlimit:10;}
	.st17{fill:#2387F5;}
	.st18{fill:#071EA0;}
</style>
<g>
	<path class="st0" d="M372.3,512c-3.6,0-7.3-0.4-10.9-1.4L31.6,422.3C9,416-4.5,392.6,1.4,370L43,214.8c1.5-5.7,7.4-9,13.1-7.6
		c5.7,1.5,9.1,7.4,7.6,13.1L22,375.4c-3,11.3,3.8,23.1,15.1,26.2L366.9,490c11.3,3,23-3.8,26-15l16.7-61.7c1.5-5.7,7.4-9.1,13.1-7.5
		c5.7,1.5,9,7.4,7.5,13.1l-16.6,61.7C408.5,499.4,391.2,512,372.3,512L372.3,512z"/>
</g>
<g>
	<path class="st0" d="M469.3,384H128c-23.5,0-42.7-19.1-42.7-42.7v-256c0-23.5,19.1-42.7,42.7-42.7h341.3
		c23.5,0,42.7,19.1,42.7,42.7v256C512,364.9,492.9,384,469.3,384z M128,64c-11.8,0-21.3,9.6-21.3,21.3v256
		c0,11.8,9.6,21.3,21.3,21.3h341.3c11.8,0,21.3-9.6,21.3-21.3v-256c0-11.8-9.6-21.3-21.3-21.3H128z"/>
</g>
<g>
	<path class="st0" d="M192,192c-23.5,0-42.7-19.1-42.7-42.7s19.1-42.7,42.7-42.7s42.7,19.1,42.7,42.7S215.5,192,192,192z M192,128
		c-11.8,0-21.3,9.6-21.3,21.3s9.6,21.3,21.3,21.3c11.8,0,21.3-9.6,21.3-21.3S203.8,128,192,128z"/>
</g>
<g>
	<path class="st0" d="M97.5,361.2c-2.7,0-5.5-1-7.6-3.1c-4.2-4.2-4.2-10.9,0-15.1l100.8-100.8c12.1-12.1,33.2-12.1,45.2,0l30,30
		l83-99.6c6-7.2,14.9-11.4,24.4-11.5h0.2c9.3,0,18.2,4.1,24.3,11.2l111.6,130.2c3.8,4.5,3.3,11.2-1.2,15c-4.5,3.8-11.2,3.3-15-1.2
		L381.7,186.1c-2.1-2.4-4.9-3.7-8.1-3.7c-2.2-0.2-6.1,1.3-8.2,3.8l-90.5,108.6c-1.9,2.3-4.7,3.7-7.7,3.8c-3,0.2-5.9-1-8-3.1
		l-38.3-38.3c-4-4-11.1-4-15.1,0L105,358.1C103,360.1,100.2,361.2,97.5,361.2L97.5,361.2z"/>
</g>
</svg>
