<?xml version="1.0" encoding="utf-8"?>
<!-- Generator: Adobe Illustrator 25.0.0, SVG Export Plug-In . SVG Version: 6.00 Build 0)  -->
<svg version="1.1" id="light" xmlns="http://www.w3.org/2000/svg" xmlns:xlink="http://www.w3.org/1999/xlink" x="0px" y="0px"
	 viewBox="0 0 512 512" style="enable-background:new 0 0 512 512;" xml:space="preserve">
<style type="text/css">
	.st0{fill:#587BF7;}
	.st1{fill:url(#SVGID_1_);}
	.st2{fill:#FFFFFF;}
	.st3{fill:#FF0000;}
	.st4{fill:#F00044;}
	.st5{fill:#08FFF9;}
	.st6{fill:#A0A0A0;}
	.st7{fill:#41479B;}
	.st8{fill:#F5F5F5;}
	.st9{fill:#FF4B55;}
	.st10{fill:#CFCFCF;}
	.st11{fill:#F8F8F8;stroke:#CFCFCF;stroke-width:0.6081;stroke-miterlimit:10;}
	.st12{fill:#B4B6B9;}
	.st13{fill:#3791FF;}
	.st14{fill:#1432B9;}
	.st15{fill:#8C9196;}
	.st16{fill:#FFFFFF;stroke:#CFCFCF;stroke-width:2.8378;stroke-miterlimit:10;}
	.st17{fill:#2387F5;}
	.st18{fill:#071EA0;}
</style>
<g>
	<path class="st0" d="M72,496h296c61.9,0,112-50.1,112-112c0-43.3-24.9-82.7-64-101.2V120c0-2.1-0.8-4.2-2.3-5.7l-96-96
		c-1.5-1.5-3.5-2.3-5.7-2.3H72c-22.1,0-40,17.9-40,40v400C32,478.1,49.9,496,72,496z M464,384c0,53-43,96-96,96s-96-43-96-96
		s43-96,96-96C421,288.1,463.9,331,464,384z M320,43.3l68.7,68.7H344c-13.2,0-24-10.8-24-24V43.3z M48,56c0-13.2,10.8-24,24-24h232
		v56c0,22.1,17.9,40,40,40h56v148.7c-59.3-17.7-121.6,16-139.3,75.3c-14.6,49,5.8,101.7,49.7,128H72c-13.2,0-24-10.8-24-24V56z"/>
	<path class="st0" d="M160,168c0,4.4,3.6,8,8,8h192c4.4,0,8-3.6,8-8s-3.6-8-8-8H168C163.6,160,160,163.6,160,168z"/>
	<path class="st0" d="M88,224h160c4.4,0,8-3.6,8-8s-3.6-8-8-8H88c-4.4,0-8,3.6-8,8S83.6,224,88,224z"/>
	<path class="st0" d="M280,256h-64c-4.4,0-8,3.6-8,8s3.6,8,8,8h64c4.4,0,8-3.6,8-8S284.4,256,280,256z"/>
	<path class="st0" d="M88,320h144c4.4,0,8-3.6,8-8s-3.6-8-8-8H88c-4.4,0-8,3.6-8,8S83.6,320,88,320z"/>
	<path class="st0" d="M88,176h48c4.4,0,8-3.6,8-8s-3.6-8-8-8H88c-4.4,0-8,3.6-8,8S83.6,176,88,176z"/>
	<path class="st0" d="M360,208h-80c-4.4,0-8,3.6-8,8s3.6,8,8,8h80c4.4,0,8-3.6,8-8S364.4,208,360,208z"/>
	<path class="st0" d="M88,272h96c4.4,0,8-3.6,8-8s-3.6-8-8-8H88c-4.4,0-8,3.6-8,8S83.6,272,88,272z"/>
	<path class="st0" d="M216,400h-32c-4.4,0-8,3.6-8,8s3.6,8,8,8h32c4.4,0,8-3.6,8-8S220.4,400,216,400z"/>
	<path class="st0" d="M88,416h64c4.4,0,8-3.6,8-8s-3.6-8-8-8H88c-4.4,0-8,3.6-8,8S83.6,416,88,416z"/>
	<path class="st0" d="M88,368h48c4.4,0,8-3.6,8-8s-3.6-8-8-8H88c-4.4,0-8,3.6-8,8S83.6,368,88,368z"/>
	<path class="st0" d="M88,128h96c4.4,0,8-3.6,8-8s-3.6-8-8-8H88c-4.4,0-8,3.6-8,8S83.6,128,88,128z"/>
	<path class="st0" d="M216,352h-48c-4.4,0-8,3.6-8,8s3.6,8,8,8h48c4.4,0,8-3.6,8-8S220.4,352,216,352z"/>
	<path class="st0" d="M325.7,402.3c-3.1-3.1-8.2-3.1-11.3,0s-3.1,8.2,0,11.3l32,32c1.5,1.5,3.5,2.3,5.7,2.3c0.3,0,0.5,0,0.8,0
		c2.4-0.2,4.5-1.5,5.9-3.5l64-96c2.4-3.7,1.4-8.7-2.3-11.1c-3.7-2.4-8.6-1.4-11,2.2l-58.6,87.9L325.7,402.3z"/>
</g>
</svg>
