<?xml version="1.0" encoding="utf-8"?>
<!-- Generator: Adobe Illustrator 25.0.0, SVG Export Plug-In . SVG Version: 6.00 Build 0)  -->
<svg version="1.1" id="Layer_1" xmlns="http://www.w3.org/2000/svg" xmlns:xlink="http://www.w3.org/1999/xlink" x="0px" y="0px"
	 viewBox="0 0 474.99 338.4" enable-background="new 0 0 474.99 338.4" xml:space="preserve">
<g id="freepik--background-complete--inject-31">
	<path fill="#EBEBEB" d="M94.9,314.71c13.84-11.33,15.63-30.37,13.67-47.19c-0.33-2.81-0.26-5.8-1.82-8.16s-4.86-3.79-7.32-2.39
		c-2,1.16-2.76,3.67-3.78,5.78c-1.37,2.83-3.51,5.23-6.18,6.9c-1.74,1.08-3.94,1.83-5.82,1c-2.57-1.14-3.13-4.47-3.34-7.27
		c-0.4-5.22-0.79-10.44-1.18-15.67c-0.07-2.81-0.59-5.6-1.54-8.25c-1.1-2.58-3.25-4.89-6-5.41s-6,1.28-6.32,4.07
		c-0.01,1.17,0.05,2.34,0.2,3.5c0.12,1.19-0.48,2.33-1.52,2.91c-1.1,0.42-2.3-0.28-3.22-1c-3.16-2.58-5.45-6.06-7.6-9.53
		s-4.26-7-7.17-9.9s-6.79-5-10.87-4.9s-8.21,2.95-8.91,7s1.95,7.85,4.75,10.83c4.17,4.4,8.95,8.18,14.2,11.22
		c1.01,0.45,1.84,1.2,2.39,2.16c0.77,1.82-0.87,3.82-2.68,4.59c-2.06,0.87-4.38,0.84-6.57,1.28s-4.51,1.6-5.18,3.73
		c-0.92,3,1.75,5.76,4.29,7.53c5.12,3.54,10.8,6.19,16.81,7.83c2.15,0.58,4.4,1.06,6.2,2.37s3,3.74,2.17,5.8s-3.41,2.9-5.63,2.68
		s-4.27-1.23-6.42-1.83c-4-1.13-9-0.45-11.26,3.08c-1.36,2.44-1.47,5.38-0.31,7.92c1.16,2.49,2.82,4.72,4.86,6.56
		c6.81,6.84,15.3,11.75,24.62,14.24C77.72,318.54,86.17,318.69,94.9,314.71"/>
	<path fill="#E0E0E0" d="M96.11,327.2c-1.44-7.76-3.62-15.36-6.53-22.69c-3.59-8.96-7.7-17.7-12.31-26.18l-3.61-6.68
		c-1.18-2.2-2.35-4.38-3.63-6.44c-2.45-3.95-5.12-7.76-8-11.41c-2.73-3.51-5.46-6.75-8-9.75s-5-5.75-7.37-8.17
		c-3.69-3.83-7.67-7.36-11.91-10.56c-1.5-1.14-2.7-2-3.51-2.54l-0.93-0.64c-0.11-0.07-0.22-0.14-0.33-0.2c0,0,0.1,0.09,0.3,0.24
		l0.91,0.67c0.8,0.58,2,1.44,3.46,2.6c4.19,3.25,8.13,6.8,11.79,10.64c2.33,2.42,4.77,5.18,7.33,8.19s5.26,6.25,8,9.76
		c2.88,3.65,5.55,7.45,8,11.39c1.27,2.05,2.43,4.22,3.61,6.42l3.58,6.69c4.57,8.47,8.66,17.18,12.26,26.11
		c2.91,7.31,5.12,14.88,6.6,22.6"/>
	<path fill="#E0E0E0" d="M69.95,265.16c0.09-0.4,0.15-0.81,0.16-1.22c0.08-0.78,0.16-1.93,0.24-3.34c0.17-2.82,0.27-6.72,0.37-11
		s0.26-8.2,0.49-11c0.1-1.41,0.21-2.54,0.29-3.33c0.06-0.4,0.09-0.81,0.08-1.22c-0.12,0.39-0.21,0.79-0.25,1.2
		c-0.13,0.78-0.28,1.92-0.42,3.32c-0.31,2.82-0.52,6.72-0.62,11s-0.17,8.13-0.23,11c-0.05,1.35-0.08,2.48-0.11,3.34
		C69.91,264.33,69.91,264.75,69.95,265.16z"/>
	<path fill="#E0E0E0" d="M32.92,261.44h0.38h1.09c0.94,0,2.3,0,4,0.05c3.37,0.07,8,0.33,13.15,0.86s9.73,1.21,13.05,1.8
		c1.66,0.29,3,0.55,3.93,0.73l1.06,0.21c0.25,0,0.38,0.06,0.38,0c-0.11-0.06-0.23-0.1-0.36-0.12l-1.05-0.29
		c-0.91-0.23-2.25-0.54-3.91-0.86c-3.31-0.67-7.93-1.4-13.06-1.94s-9.8-0.74-13.19-0.73c-1.69,0-3,0-4,0.09l-1.08,0.07
		C33.17,261.33,33.04,261.38,32.92,261.44z"/>
	<path fill="#E0E0E0" d="M89.12,303.87c0.08-0.15,0.15-0.31,0.2-0.47c0.14-0.35,0.3-0.8,0.51-1.35c0.44-1.18,1-2.91,1.74-5
		c1.41-4.27,3.18-10.23,5.06-16.84s3.59-12.57,4.93-16.86c0.67-2.1,1.21-3.82,1.61-5.08c0.18-0.56,0.32-1,0.43-1.38
		c0.06-0.16,0.11-0.32,0.13-0.49c-0.09,0.14-0.16,0.3-0.21,0.46c-0.13,0.36-0.3,0.81-0.51,1.36c-0.44,1.18-1,2.9-1.73,5
		c-1.42,4.27-3.19,10.23-5.06,16.84s-3.56,12.59-4.94,16.86c-0.66,2.1-1.21,3.82-1.6,5.07c-0.18,0.57-0.32,1-0.44,1.39
		C89.18,303.54,89.14,303.7,89.12,303.87z"/>
	<path fill="#E0E0E0" d="M39.38,292.44c0.15,0.07,0.32,0.12,0.49,0.15l1.45,0.34l5.34,1.22c4.5,1,10.7,2.53,17.55,4.21
		s13.06,3.14,17.58,4.1c2.26,0.48,4.09,0.85,5.36,1.08l1.46,0.26c0.17,0.04,0.34,0.06,0.52,0.07c-0.16-0.07-0.33-0.12-0.5-0.15
		l-1.45-0.34l-5.33-1.22c-4.5-1-10.7-2.53-17.54-4.21s-13.06-3.14-17.58-4.1c-2.26-0.48-4.09-0.85-5.36-1.08l-1.47-0.27
		C39.73,292.47,39.55,292.45,39.38,292.44z"/>
	
		<rect x="159.7" y="38.76" transform="matrix(0.9576 -0.288 0.288 0.9576 -10.1253 59.5913)" fill="#FFFFFF" width="75.5" height="50.89"/>
	<path fill="#E0E0E0" d="M240.94,77.65c0,0-0.11-0.31-0.29-0.89s-0.45-1.46-0.8-2.58c-0.69-2.26-1.71-5.57-3-9.79
		c-2.58-8.47-6.27-20.62-10.77-35.41l0.26,0.14l-72.28,21.83l0,0l0.18-0.33l14.64,48.74l-0.3-0.16l52.08-15.55l14.91-4.41l4-1.17
		l1-0.3l0.36-0.09l-0.32,0.11l-1,0.32l-3.92,1.2l-14.82,4.53l-52.16,15.81l-0.23,0.07l-0.07-0.23
		c-4.47-14.85-9.45-31.36-14.68-48.73l-0.07-0.25l0.24-0.07l0,0l72.31-21.7l0.2-0.06l0.06,0.2c4.43,14.87,8.06,27.08,10.6,35.59
		c1.24,4.22,2.22,7.52,2.88,9.79c0.33,1.1,0.57,1.95,0.75,2.55S240.94,77.65,240.94,77.65z"/>
	<path fill="#E0E0E0" d="M226.28,28.95c-0.03,0.08-0.06,0.15-0.1,0.22l-0.34,0.62c-0.33,0.57-0.78,1.36-1.34,2.36l-5.05,8.67
		l-16.94,28.73l-0.12,0.19l-0.2-0.08l-2.21-0.85L167.41,56.1l-9.85-3.9l-2.66-1.09l-0.69-0.29c-0.08-0.03-0.16-0.07-0.23-0.12
		c0.09,0.01,0.17,0.03,0.25,0.07l0.7,0.24l2.71,1l9.9,3.75l32.62,12.56l2.22,0.86l-0.32,0.11c6.7-11.25,12.72-21.33,17.08-28.66
		l5.19-8.58c0.6-1,1.08-1.75,1.42-2.32l0.39-0.59C226.22,29.01,226.27,28.94,226.28,28.95z"/>
	<path fill="#EBEBEB" d="M436.66,223.65c0,0-4.69-4.64-13.83,6.95c-4.79,5.87-9.19,12.04-13.17,18.49c0,0-2.28,2.36-3.78,0.22
		s-3.05-7.66-6.39-7.38s-5.26,3.72-5.71,9.21s-1.86,17.5-2,18.58s-1,2.49-2.29,1.2s-7.78-12.27-12.83-8.89s-3.77,18.92-3.66,20.61
		s-0.35,2.33-1.19,2.57s-2.69-3.66-4.68-6.71s-4.82-6.26-7.56-4.05s-5.65,13.08,1.27,33.05l3.81,9l9.75,1.39
		c21.07,1.69,30.87-3.84,32.32-7.05s-2.35-5.15-5.81-6.31s-7.7-2-7.67-2.85s0.52-1.47,2.19-1.79s17-3,19-8.71
		s-10.25-9.29-11.82-10.19s-0.41-2.13,0.59-2.52s12.28-4.78,17.49-6.58s8.08-4.42,7.49-7.84s-6.3-3.41-8.75-4.34
		S418.7,256,418.7,256c5.27-5.45,10.17-11.25,14.67-17.35c8.93-11.76,3.11-15.19,3.11-15.19"/>
	<path fill="#E0E0E0" d="M428.42,233.97c-0.04,0.09-0.1,0.17-0.16,0.25l-0.51,0.72c-0.48,0.64-1.15,1.55-2,2.71
		c-1.75,2.35-4.3,5.73-7.48,9.89c-6.35,8.32-15.23,19.74-25.09,32.3l-25.22,32.21l-7.61,9.79l-2.08,2.65l-0.55,0.68
		c-0.13,0.15-0.19,0.23-0.2,0.22c0.04-0.09,0.1-0.17,0.16-0.25l0.51-0.71l2-2.72c1.74-2.35,4.3-5.73,7.47-9.89
		c6.35-8.32,15.24-19.74,25.11-32.3s18.74-23.94,25.21-32.21c3.19-4.11,5.79-7.44,7.61-9.78c0.88-1.13,1.58-2,2.07-2.66l0.56-0.68
		C428.34,234.04,428.41,233.96,428.42,233.97z"/>
	<path fill="#E0E0E0" d="M401.35,249.74c0.22,0.86,0.34,1.74,0.37,2.62c0.15,1.62,0.28,3.87,0.37,6.36s0.13,4.55,0.18,6.36
		c0.07,0.88,0.07,1.76,0,2.64c-0.22-0.86-0.34-1.74-0.36-2.62c-0.13-1.63-0.24-3.88-0.33-6.36s-0.15-4.55-0.22-6.36
		C401.28,251.5,401.28,250.62,401.35,249.74z"/>
	<path fill="#E0E0E0" d="M403.11,268.07c3.42-0.55,6.87-0.93,10.33-1.13c5.71-0.47,10.36-0.74,10.37-0.6
		c-3.42,0.55-6.87,0.92-10.33,1.12C407.77,267.94,403.13,268.21,403.11,268.07z"/>
	<path fill="#E0E0E0" d="M386.52,287.35c0.9,0.07,1.79,0.21,2.66,0.43c1.64,0.31,3.89,0.74,6.39,1.14s4.77,0.7,6.42,0.91
		c0.9,0.07,1.79,0.22,2.67,0.43c-0.9,0.08-1.8,0.06-2.7-0.06c-1.67-0.12-4-0.36-6.47-0.77s-4.77-0.89-6.39-1.29
		C388.21,287.97,387.35,287.71,386.52,287.35z"/>
	<path fill="#E0E0E0" d="M381.28,271.13c0.42,0.72,0.75,1.49,1,2.29c0.53,1.45,1.24,3.45,2,5.67s1.4,4.24,1.85,5.72
		c0.28,0.78,0.49,1.59,0.62,2.41c-0.42-0.73-0.76-1.5-1-2.3c-0.54-1.44-1.24-3.44-2-5.66s-1.4-4.25-1.85-5.72
		C381.6,272.76,381.4,271.95,381.28,271.13z"/>
	<path fill="#E0E0E0" d="M364.47,286.29c0.48,0.95,0.89,1.94,1.22,2.95c0.69,1.85,1.61,4.41,2.6,7.25s1.85,5.42,2.46,7.29
		c0.38,1,0.67,2.03,0.87,3.08c-0.49-0.96-0.9-1.97-1.22-3c-0.69-1.84-1.61-4.4-2.6-7.24s-1.86-5.42-2.46-7.3
		C364.96,288.34,364.67,287.32,364.47,286.29z"/>
	<path fill="#E0E0E0" d="M371.59,306.32c1.14,0.07,2.27,0.21,3.39,0.44c2.08,0.33,5,0.78,8.15,1.2s6.08,0.74,8.17,1
		c1.14,0.07,2.27,0.23,3.39,0.45c-1.14,0.07-2.28,0.04-3.42-0.08c-2.11-0.14-5-0.4-8.21-0.83s-6.08-0.93-8.15-1.34
		C373.78,306.97,372.67,306.69,371.59,306.32z"/>
	
		<rect x="380.88" y="136.56" transform="matrix(0.0305 -0.9995 0.9995 0.0305 242.0249 579.3442)" fill="#F5F5F5" width="77.59" height="56.7"/>
	
		<rect x="370.44" y="146.87" transform="matrix(0.0305 -0.9995 0.9995 0.0305 221.6051 578.9103)" fill="#FFFFFF" width="77.59" height="56.7"/>
	<path fill="#E0E0E0" d="M436.38,214.84c-0.01-0.13-0.01-0.25,0-0.38c0-0.26,0-0.62,0-1.09c0-1,0.05-2.4,0.1-4.24
		c0.1-3.71,0.24-9.1,0.42-15.93c0.39-13.65,0.94-33,1.59-55.91l0.23,0.24l-56.67-1.71l0,0l0.27-0.25c-0.91,29-1.74,55.79-2.42,77.55
		l-0.21-0.22l41.16,1.37l11.45,0.4l3,0.12l1.05,0.05h-1l-3-0.07l-11.4-0.29l-41.29-1.15h-0.21v-0.21
		c0.65-21.77,1.45-48.59,2.32-77.56v-0.26h0.27l56.66,1.76h0.24v0.24c-0.75,23-1.38,42.38-1.83,56.06
		c-0.23,6.8-0.42,12.18-0.54,15.87c-0.07,1.82-0.12,3.22-0.16,4.19c0,0.46,0,0.82-0.05,1.07S436.38,214.84,436.38,214.84z"/>
	<path fill="#E0E0E0" d="M416.66,153.51c0,0.15-6.17,0.07-13.77-0.16s-13.77-0.54-13.77-0.68s6.18-0.07,13.78,0.16
		S416.66,153.37,416.66,153.51z"/>
	<path fill="#E0E0E0" d="M431.3,160.71c0,0.14-9.5,0-21.22-0.39s-21.22-0.77-21.21-0.91s9.5,0,21.23,0.39
		S431.31,160.56,431.3,160.71z"/>
	<path fill="#E0E0E0" d="M431.09,167.74c0,0.14-9.51,0-21.23-0.39s-21.21-0.77-21.21-0.91s9.51,0,21.23,0.39
		S431.09,167.59,431.09,167.74z"/>
	<path fill="#E0E0E0" d="M430.87,174.77c0,0.14-9.5,0-21.22-0.39s-21.21-0.77-21.21-0.91s9.51,0,21.23,0.39
		S430.88,174.65,430.87,174.77z"/>
	<path fill="#E0E0E0" d="M430.66,181.8c0,0.14-9.51,0-21.22-0.39s-21.22-0.77-21.22-0.91s9.51,0,21.23,0.39
		S430.66,181.65,430.66,181.8z"/>
	<path fill="#E0E0E0" d="M430.45,188.83c0,0.14-9.51,0-21.23-0.39s-21.21-0.77-21.21-0.91s9.51,0,21.23,0.39
		S430.45,188.65,430.45,188.83z"/>
	<path fill="#E0E0E0" d="M430.23,195.86c0,0.14-9.51,0-21.22-0.39s-21.22-0.77-21.21-0.91s9.5,0,21.22,0.39
		S430.24,195.71,430.23,195.86z"/>
	<path fill="#E0E0E0" d="M410.39,202.29c0,0.14-5.11,0.1-11.41-0.09s-11.4-0.47-11.4-0.61s5.11-0.1,11.41,0.09
		S410.39,202.14,410.39,202.29z"/>
	
		<rect x="263.53" y="68" transform="matrix(0.3699 -0.9291 0.9291 0.3699 90.1229 328.8402)" fill="#FFFFFF" width="47.94" height="59.96"/>
	<path fill="#E0E0E0" d="M324.21,86.8l-0.27-0.1l-0.78-0.3l-3-1.2l-11.43-4.55l-40.26-16l0.12-0.05l-17.72,44.53l0,0l-0.06-0.14
		l55.7,22.2h-0.11c5.36-13.42,9.81-24.54,12.91-32.31c1.56-3.88,2.78-6.93,3.61-9l1-2.37l0.33-0.82l-0.31,0.81
		c-0.21,0.54-0.52,1.33-0.93,2.36c-0.82,2.08-2,5.13-3.56,9c-3.09,7.78-7.52,18.93-12.85,32.38v0.08h-0.08l-55.78-22.07h-0.1v-0.1
		l0,0c6.41-16.08,12.46-31.28,17.74-44.53v-0.09h0.08l40.36,16.12l11.37,4.56l3,1.2l0.77,0.31L324.21,86.8z"/>
	
		<rect x="266.47" y="70.14" transform="matrix(0.3699 -0.9291 0.9291 0.3699 90.0436 328.7904)" fill="#EBEBEB" width="41.9" height="55.75"/>
	<polygon fill="#E0E0E0" points="253.98,107.28 281.71,90.28 286.89,109.88 297.71,104.82 305.78,127.9 	"/>
	<path fill="#E0E0E0" d="M298.85,93.65c-0.9,2.25-3.45,3.35-5.7,2.46c-2.25-0.9-3.35-3.45-2.46-5.7c0.9-2.25,3.45-3.35,5.7-2.46
		c0,0,0,0,0.01,0c2.25,0.89,3.35,3.44,2.46,5.69C298.85,93.64,298.85,93.65,298.85,93.65z"/>
	<path fill="#E0E0E0" d="M125.11,155.51c0.38,0.16,0.78,0.22,1.19,0.19c0.49-0.06,0.94-0.28,1.28-0.63c0.4-0.55,0.75-1.13,1.05-1.73
		l6.49-11.32l2.16-3.74l1.15-2c0.2-0.32,0.37-0.65,0.52-1c0.11-0.35,0.11-0.71,0-1.06c-0.09-0.36-0.29-0.67-0.57-0.91
		c-0.32-0.23-0.65-0.43-1-0.62l-2.23-1.24l-4.64-2.6l-20.66-11.59c-0.84-0.45-1.89-0.19-2.43,0.6l-1.55,2.66c-1,1.76-2,3.51-3,5.22
		l-5.8,9.91c-0.23,0.39-0.46,0.78-0.68,1.17c-0.22,0.34-0.34,0.74-0.33,1.14c0.02,0.39,0.16,0.77,0.41,1.08
		c0.28,0.29,0.62,0.53,1,0.69l4.37,2.48l7.82,4.44l11.32,6.47l3.07,1.78l0.79,0.47c0.18,0.11,0.27,0.17,0.26,0.18l-0.28-0.13
		l-0.82-0.43l-3.11-1.7l-11.41-6.32l-7.82-4.43l-4.38-2.45c-0.42-0.19-0.81-0.46-1.13-0.79c-0.31-0.39-0.49-0.86-0.51-1.36
		c-0.02-0.49,0.11-0.98,0.38-1.4c0.22-0.39,0.45-0.78,0.68-1.17l5.73-9.89l3-5.22l1.57-2.69c0.69-1.02,2.03-1.35,3.11-0.77
		l20.64,11.63l4.64,2.62l2.21,1.26c0.38,0.19,0.75,0.41,1.1,0.66c0.35,0.3,0.6,0.7,0.71,1.14c0.12,0.43,0.12,0.88,0,1.3
		c-0.16,0.38-0.35,0.74-0.57,1.09l-1.17,2l-2.18,3.73c-2.79,4.72-5.05,8.55-6.63,11.24c-0.33,0.6-0.7,1.18-1.12,1.73
		c-0.37,0.36-0.86,0.59-1.38,0.63c-0.31,0.02-0.63-0.03-0.92-0.15C125.32,155.64,125.21,155.58,125.11,155.51z"/>
	<polygon fill="#E0E0E0" points="119.83,135.01 122.35,139.48 117.15,139.58 111.95,139.67 114.63,135.1 117.31,130.53 	"/>
</g>
<g id="freepik--Table--inject-31">
	<path fill="#263238" d="M458.96,325.65c0,0.15-95.65,0.27-213.6,0.27s-213.63-0.1-213.63-0.27s95.63-0.28,213.63-0.28
		S458.96,325.52,458.96,325.65z"/>
</g>
<g id="freepik--Character--inject-31">
	<path fill="#587CF8" d="M137.47,262.14l-30.19-30.33l15.18-27.88c15.18-19.44,47.32-18.19,47.32-18.19
		c15.86-1.08,31.78-0.1,47.39,2.91c25.53,5,23.47,21.86,23.47,21.86l3.42,62.57l3.67,50.95l-94.15,1.9l-16.11-63.75"/>
	<path fill="#587CF8" d="M188.19,322.95l-84.33,1c-15.14,0.18-27.55-11.95-27.73-27.09c-0.05-4.15,0.85-8.26,2.62-12.01l36.06-66.87
		l32.85,22.2l-22.41,46.47l68.26,1.22L188.19,322.95z"/>
	<path fill="#587CF8" d="M237.66,200.31l67.67,104.48l-39.48,2.58c0,0-23.58-37.15-23.05-36.39
		C243.74,272.38,237.66,200.31,237.66,200.31z"/>
	<path fill="#263238" d="M145.96,246.19c0-0.18,0.03-0.37,0.09-0.54c0.1-0.4,0.21-0.9,0.36-1.52c0.31-1.31,0.77-3.21,1.24-5.57
		s1-5.2,1.33-8.36c0.41-3.42,0.41-6.89,0-10.31c-0.54-3.4-1.73-6.66-3.49-9.61c-1.42-2.43-3.09-4.7-5-6.77
		c-1.29-1.41-2.65-2.75-4.1-4c-0.55-0.43-1.08-0.89-1.58-1.38c0.16,0.08,0.32,0.18,0.46,0.29c0.28,0.21,0.73,0.5,1.25,0.93
		c1.5,1.19,2.92,2.48,4.24,3.87c1.97,2.05,3.7,4.33,5.16,6.77c1.82,3,3.05,6.32,3.6,9.79c0.4,3.47,0.37,6.97-0.08,10.43
		c-0.34,2.82-0.82,5.61-1.44,8.38c-0.52,2.37-1,4.26-1.41,5.56c-0.18,0.65-0.34,1.15-0.45,1.49
		C146.1,245.83,146.04,246.01,145.96,246.19z"/>
	<path fill="#263238" d="M143.24,249.79c-0.14,0.52-0.34,1.03-0.58,1.51c-0.4,1-1,2.34-1.77,4c-1.53,3.39-3.7,8.05-6.2,13.15
		s-4.86,9.67-6.61,13c-0.88,1.64-1.6,3-2.11,3.87c-0.24,0.48-0.52,0.95-0.84,1.39c0.18-0.51,0.4-1.01,0.66-1.48
		c0.51-1,1.17-2.34,2-3.95l6.47-13c2.45-5.07,4.68-9.65,6.34-13.08c0.78-1.61,1.42-2.95,1.92-4
		C142.72,250.71,142.96,250.24,143.24,249.79z"/>
	<path fill="#263238" d="M188.19,322.95c0,0,0-0.06,0-0.17s0-0.31,0-0.52c0.05-0.48,0.12-1.15,0.2-2c0.2-1.78,0.48-4.31,0.83-7.5
		c0.74-6.47,1.8-15.57,3-26.3l0.24,0.26h-24.91l-43.51-0.07l-13.2-0.08l-3.59-0.05h-0.94h-0.32c0.11-0.01,0.21-0.01,0.32,0h0.94
		l3.59-0.05l13.2-0.08l43.58-0.07h24.91h0.27v0.26c-1.32,10.72-2.43,19.82-3.23,26.28c-0.4,3.18-0.73,5.71-1,7.49
		c-0.11,0.84-0.2,1.51-0.27,2l-0.08,0.51C188.21,322.89,188.2,322.95,188.19,322.95z"/>
	<path fill="#263238" d="M125.84,287.39c-0.6-0.67-1.17-1.37-1.68-2.11c-2.7-3.38-6.03-6.2-9.82-8.29c-0.81-0.39-1.6-0.83-2.36-1.3
		c0.89,0.21,1.74,0.54,2.53,1c3.94,1.95,7.36,4.83,9.94,8.39C125.02,285.78,125.48,286.56,125.84,287.39z"/>
	<path fill="#263238" d="M245.46,294.01c-0.07-0.29-0.12-0.58-0.14-0.87c-0.07-0.61-0.16-1.44-0.28-2.49
		c-0.23-2.16-0.54-5.29-0.87-9.16c-0.69-7.75-1.48-18.47-2.18-30.31s-1.19-22.58-1.47-30.35c-0.14-3.89-0.24-7-0.28-9.21
		c0-1.05,0-1.88-0.05-2.5c-0.02-0.29-0.02-0.58,0-0.87c0.06,0.29,0.09,0.58,0.09,0.87c0,0.61,0.08,1.45,0.14,2.5
		c0.11,2.22,0.26,5.35,0.45,9.19c0.37,7.77,0.92,18.49,1.62,30.34s1.44,22.55,2,30.31c0.3,3.83,0.54,7,0.71,9.18
		c0.08,1,0.14,1.88,0.19,2.49C245.44,293.42,245.46,293.72,245.46,294.01z"/>
	<path fill="#E0E0E0" d="M287.4,289.99c-0.36-0.27-0.69-0.57-1-0.9l-2.74-2.64l-9.41-9.22l0.42-0.17c-0.08,2.46-0.16,5.12-0.25,7.89
		s-0.2,5.52-0.29,8v0.58l-0.41-0.41l-9.16-9.35l-2.62-2.73c-0.33-0.31-0.63-0.64-0.9-1c0.36,0.27,0.69,0.57,1,0.9l2.72,2.63
		l9.3,9.22l-0.43,0.17c0.08-2.5,0.17-5.2,0.26-8s0.2-5.43,0.29-7.89v-0.57l0.4,0.4l9.27,9.36l2.65,2.74
		C286.83,289.31,287.13,289.64,287.4,289.99z"/>
	<path fill="#FFBE9D" d="M191.02,299.22c0,0,16.82-4.85,22.39-6.27c2.17-0.55,11.46,4.35,17.88,8.43c0,0,8.84,5.24,8.13,6.85
		c-0.79,1.78-4,1.42-9.25-1c0,0,1.82,5.27-1.75,5.15c0,0,1.77,5.7-1.57,6.29s-4.12-6.68-7.06-7.07s-9-0.79-9-0.79s-5.07,8.4-9,9
		s-13-0.47-13-0.47L191.02,299.22z"/>
	<path fill="#EB996E" d="M219.73,300.38c1.65,0.73,3.22,1.62,4.7,2.65c1.57,0.89,3.05,1.93,4.42,3.1
		C225.63,304.52,222.57,302.59,219.73,300.38z"/>
	<path fill="#EB996E" d="M218.74,303.65c1.92,0.6,3.79,1.37,5.58,2.29c1.85,0.75,3.64,1.66,5.34,2.71c-1.92-0.6-3.79-1.36-5.58-2.28
		C222.22,305.62,220.44,304.71,218.74,303.65z"/>
	<path fill="#EB996E" d="M220.54,311.46c2.54-0.01,5.07,0.33,7.52,1C225.52,312.47,222.99,312.13,220.54,311.46z"/>
	<path fill="#263238" d="M169.13,125.65c0.56,1.82-0.47,3.75-2.29,4.31c-0.86,0.26-1.78,0.18-2.58-0.23
		c-2.28-1.15-2.57-4.3-2.12-6.81s1.3-5.2,0.25-7.53c-0.81-1.78-2.56-2.91-3.92-4.31c-2.43-2.47-3.57-5.93-3.07-9.36
		c0.59-3.44,3.05-6.26,6.38-7.3c3.35-0.93,7.48,0.1,10-2.33c1.81-1.76,1.92-4.63,3.32-6.73c2.17-3.26,6.76-3.78,10.64-3.25
		s7.82,1.78,11.62,0.83c3.17-0.79,5.77-3,8.75-4.36c8.6-3.93,18.77-0.15,22.7,8.46c2.2,4.81,2.05,10.37-0.4,15.06
		c-1.1,2.32-2.98,4.17-5.31,5.25"/>
	<path fill="#FFBE9D" d="M188.43,208.26L188.43,208.26c10.64-0.02,19.25-8.67,19.23-19.31c0-0.08,0-0.15,0-0.23l-0.25-18.38
		c0,0,15.44-1.55,16.46-16.85s0.29-50.61,0.29-50.61l0,0c-17.3-8.58-37.89-7.14-53.82,3.77l-2.36,1.63l1.15,80.94
		C169.25,199.79,177.86,208.28,188.43,208.26z"/>
	<path fill="#263238" d="M220.12,130.65c-1.26-0.14-2.16-1.28-2.01-2.54c0.12-1.06,0.96-1.89,2.01-2.01c0.12-0.03,0.25-0.03,0.37,0
		c1.26,0.14,2.16,1.28,2.01,2.54c-0.12,1.06-0.96,1.89-2.01,2.01C220.37,130.67,220.24,130.67,220.12,130.65z"/>
	<path fill="#263238" d="M223.12,125.71c-0.25,0.26-1.69-1-3.8-1.11s-3.7,0.88-3.91,0.6s0.15-0.59,0.85-1.06
		c1.92-1.23,4.42-1.07,6.16,0.41C223.05,125.11,223.25,125.65,223.12,125.71z"/>
	<path fill="#263238" d="M198.73,126.23c1.01,0.7,1.27,2.09,0.56,3.1c-0.7,1.01-2.09,1.27-3.1,0.56c-1.01-0.7-1.27-2.09-0.56-3.1
		c0,0,0,0,0,0C196.33,125.78,197.72,125.53,198.73,126.23z"/>
	<path fill="#263238" d="M200.12,126.32c-0.26,0.26-1.7-1-3.8-1.11s-3.7,0.88-3.92,0.6c-0.11-0.13,0.16-0.59,0.85-1.06
		c1.92-1.23,4.42-1.07,6.16,0.41C200.04,125.72,200.24,126.21,200.12,126.32z"/>
	<path fill="#263238" d="M207.66,144.18c0-0.16,1.31-0.36,3.45-0.54c0.55,0,1-0.13,1.05-0.42c0.04-0.55-0.07-1.1-0.31-1.6
		c-0.47-1.43-0.94-2.87-1.44-4.38c-2-6.23-3.31-11.36-3-11.46s2.17,4.87,4.14,11.1c0.46,1.52,0.91,3,1.34,4.4
		c0.32,0.73,0.38,1.54,0.18,2.31c-0.18,0.42-0.55,0.73-1,0.83c-0.31,0.07-0.63,0.09-0.95,0.07
		C208.96,144.45,207.66,144.35,207.66,144.18z"/>
	<path fill="#FFFFFF" d="M200.66,146.14c3.21,1.65,6.64,2.85,10.18,3.57c-1.6,2.2-4.5,3-7,1.94
		C199.33,149.72,200.66,146.14,200.66,146.14z"/>
	<path fill="#EB996E" d="M207.47,170.12c-7.08-0.25-13.92-2.61-19.66-6.76c0,0,4.12,11.27,19.47,10.73L207.47,170.12z"/>
	<path fill="#263238" d="M224.29,106.75c0,0-9.25,4.7-21.5-1.12c-8-3.82-17.37-5.59-19.39-3.94s-2.29,9.85-10.13,12.4
		c0,0,0.85,15.66-5.41,15.22s-2.82-24.77-2.82-24.77l15.13-7.76l16.61-3.47l15.75,1.91l12.22,3.09L224.29,106.75z"/>
	<path fill="#FFBE9D" d="M169,124.28c-0.25-0.13-10.35-3.69-10.58,6.8s10.34,8.56,10.36,8.26S169,124.28,169,124.28z"/>
	<path fill="#EB996E" d="M165.66,135.29c0,0-0.19,0.13-0.5,0.26c-0.44,0.18-0.93,0.18-1.37,0c-1.1-0.43-2-2.21-2-4.1
		c0-0.9,0.19-1.79,0.57-2.61c0.22-0.66,0.74-1.17,1.41-1.37c0.43-0.08,0.87,0.14,1.07,0.53c0.13,0.29,0.06,0.5,0.11,0.52
		s0.23-0.17,0.16-0.6c-0.05-0.26-0.2-0.5-0.4-0.67c-0.28-0.22-0.64-0.33-1-0.29c-0.88,0.15-1.62,0.75-1.95,1.58
		c-0.46,0.9-0.7,1.9-0.7,2.91c0,2.11,1.06,4.12,2.56,4.59c0.57,0.17,1.18,0.09,1.68-0.24C165.66,135.55,165.66,135.31,165.66,135.29
		z"/>
	<path fill="#263238" d="M163.66,91.45c2.46-0.72,5.1,0.26,6.48,2.42c-0.93-0.71-1.94-1.31-3-1.8
		C166,91.74,164.84,91.54,163.66,91.45z"/>
	<path fill="#263238" d="M169.97,85.17c0.19,0-0.1,2.21,0.26,4.83c0.31,1.58,0.8,3.11,1.47,4.57c0,0-0.44-0.37-0.88-1.15
		c-0.56-1.04-0.94-2.17-1.1-3.34C169.43,88.45,169.51,86.77,169.97,85.17z"/>
	<path fill="#263238" d="M213.06,120.65c-0.06-0.12,0.39-0.49,1.24-0.83c2.26-0.87,4.76-0.85,7,0.07c0.84,0.36,1.29,0.73,1.23,0.85
		c-0.13,0.28-2.15-0.51-4.74-0.51S213.18,120.96,213.06,120.65z"/>
	<path fill="#263238" d="M189.66,118.47c-0.06-0.12,0.39-0.48,1.24-0.83c1.12-0.43,2.31-0.65,3.51-0.63c1.2,0,2.4,0.24,3.51,0.7
		c0.84,0.36,1.28,0.73,1.23,0.86s-2.15-0.51-4.75-0.52S189.8,118.75,189.66,118.47z"/>
	<path fill="#263238" d="M211.25,122.33c0.02,0.21,0.02,0.41,0,0.62c0,0.44,0,1,0.05,1.69s0,1.62,0.06,2.62
		c-0.04,1.15,0.13,2.31,0.5,3.4c0.98,2.89,3.37,5.07,6.34,5.77c0.84,0.2,1.7,0.28,2.56,0.22c0.89-0.04,1.78-0.23,2.61-0.55
		c1.78-0.67,3.29-1.89,4.32-3.49c0.97-1.53,1.46-3.31,1.4-5.12c0-1.79,0-3.51,0-5.16l0.24,0.24l-13-0.12l-3.77-0.07h-1h-0.37
		c0.43-0.05,0.86-0.07,1.29-0.06l3.71-0.07l13.14-0.12h0.33v0.25c0,1.65,0,3.37,0,5.16c0.07,1.91-0.45,3.79-1.47,5.4
		c-1.09,1.69-2.69,2.99-4.58,3.69c-0.89,0.34-1.82,0.53-2.77,0.57c-0.9,0.05-1.81-0.03-2.69-0.25c-3.11-0.75-5.61-3.07-6.58-6.12
		c-0.36-1.14-0.51-2.34-0.44-3.54c0-1,0-1.93,0.05-2.69s0-1.23,0.05-1.67C211.22,122.73,211.23,122.53,211.25,122.33z"/>
	<path fill="#263238" d="M186.74,121.81c0,0,0,0.23,0,0.62v1.69c0,0.74,0,1.62,0.05,2.63c-0.03,1.15,0.14,2.3,0.5,3.4
		c0.46,1.32,1.22,2.51,2.21,3.49c1.15,1.11,2.57,1.9,4.13,2.27c1.72,0.41,3.53,0.3,5.18-0.33c1.77-0.67,3.29-1.89,4.31-3.48
		c0.97-1.53,1.47-3.31,1.41-5.12c0-1.79,0-3.52,0-5.17l0.24,0.24l-13-0.12l-3.76-0.06h-1h-0.37c0.42-0.05,0.85-0.07,1.28-0.06
		l3.71-0.06l13.14-0.12h0.24v0.24c0,1.65,0,3.38,0,5.17c0.06,1.91-0.46,3.79-1.48,5.4c-1.09,1.69-2.69,2.98-4.57,3.68
		c-0.89,0.34-1.82,0.53-2.77,0.57c-0.91,0.05-1.82-0.03-2.7-0.25c-1.63-0.4-3.13-1.24-4.32-2.43c-1.03-1.04-1.81-2.3-2.26-3.69
		c-0.36-1.14-0.51-2.34-0.44-3.54c0-1,0-1.93,0.06-2.69s0-1.23,0-1.67C186.56,122.21,186.64,122,186.74,121.81z"/>
	<path fill="#263238" d="M211.47,123.06c-2.29,0.35-4.61,0.35-6.9,0C206.85,122.7,209.18,122.7,211.47,123.06z"/>
	<path fill="#263238" d="M167.66,123.19c3.18-0.27,6.37-0.36,9.56-0.29c3.19-0.09,6.39-0.01,9.57,0.23
		c-3.18,0.28-6.37,0.37-9.56,0.29C174.04,123.52,170.84,123.45,167.66,123.19z"/>
	<path fill="#FFBE9D" d="M270.53,311.9c4.59,8.52,13.75,13.56,23.4,12.87l0,0c11.5-0.8,20.9-9.49,22.61-20.89l5.8-66.39l-23.23-5.74
		l-9.49,52C289.62,283.75,284.66,305.54,270.53,311.9z"/>
	<path fill="#FFBE9D" d="M298.9,236.56l0.77-11.65c0,0,3.29-26.14,3.29-28.7c0-2.94,1.41-3.66,2.5-3.58c1.69,0.11,2.89,2.2,3,4.73
		c0,0.87-0.08,14.69-0.08,14.69c0.8-1.31,1.69-2.55,2.67-3.73c2-2.59,6.84-4.07,11.77-3.91s6.28,0.64,6.31,2.55
		c-0.04,0.74-0.4,1.42-1,1.86c-0.91,0.76-2.07,1.16-3.25,1.12c-7.89-0.14-10,4.07-10,4.07l-0.1,1.53c0,0,4.79-3.43,8.61-2
		c0.56,0.21,1.08,0.53,1.52,0.94c3.41,0.01,6.16,2.79,6.15,6.19c0,1.05-0.28,2.09-0.8,3.01c-0.42,0.98-1.41,1.6-2.48,1.55
		c-0.53-0.16-1.01-0.45-1.39-0.85c-0.22-0.19-0.46-0.36-0.71-0.52l-0.88,4.23c0,0-2.49,9.4-3.11,13.62"/>
	<path fill="#FFBE9D" d="M301.17,235.65c1.44,0.4,2.93-0.66,3.71-1.94s1.11-2.79,1.79-4.13c2.06-4,7-5.9,8.89-10
		c0.26-0.57,0.4-1.35-0.1-1.73s-1.12-0.07-1.63,0.21l-13,7.2"/>
	<path fill="#EB996E" d="M300.82,225.24c0.4-0.36,0.85-0.67,1.33-0.92c0.88-0.55,2.17-1.31,3.77-2.24l5.65-3.23l1.63-0.92
		c0.61-0.48,1.38-0.7,2.15-0.61c0.49,0.16,0.82,0.6,0.85,1.11c0.03,0.41-0.05,0.82-0.21,1.2c-0.3,0.67-0.68,1.3-1.12,1.88
		c-1.8,2.34-4.13,3.81-5.81,5.52c-0.82,0.77-1.51,1.67-2.06,2.65c-0.49,0.92-0.8,1.88-1.18,2.75c-0.47,1.47-1.57,2.66-3,3.24
		c-1.07,0.32-1.67,0-1.63-0.06c0.52,0.02,1.03-0.07,1.52-0.25c1.26-0.65,2.2-1.79,2.58-3.16c0.32-0.97,0.69-1.92,1.11-2.85
		c0.55-1.06,1.27-2.03,2.13-2.87c1.72-1.8,4-3.31,5.68-5.48c0.4-0.52,0.73-1.09,1-1.69c0.25-0.57,0.21-1.14-0.11-1.2
		s-0.95,0.21-1.5,0.52l-1.66,0.9l-5.73,3.12c-1.64,0.87-3,1.55-3.9,2C301.84,224.92,301.34,225.12,300.82,225.24z"/>
	<path fill="#EB996E" d="M314.6,215.65c0.09-0.95,0.4-1.86,0.91-2.66c0.59-0.82,1.43-1.43,2.4-1.74c1.21-0.4,2.48-0.6,3.75-0.6
		c1.31,0.01,2.61-0.1,3.9-0.34c1.08-0.22,2.08-0.72,2.9-1.45c0.55-0.51,0.84-1.25,0.78-2c-0.01-0.27-0.1-0.54-0.26-0.76
		c-0.05,0,0,0.29,0.05,0.77c-0.01,0.68-0.32,1.32-0.84,1.75c-0.8,0.63-1.74,1.05-2.74,1.24c-1.26,0.21-2.53,0.3-3.81,0.28
		c-1.32-0.01-2.64,0.19-3.89,0.61c-1.05,0.37-1.95,1.07-2.55,2c-0.39,0.63-0.62,1.34-0.66,2.08
		C314.48,215.1,314.5,215.39,314.6,215.65z"/>
	<path fill="#EB996E" d="M308.39,196.38c-0.08,0.91-0.08,1.84,0,2.75c0,1.88,0,4.13,0.07,6.61s0,4.73,0,6.61
		c-0.06,0.92-0.04,1.84,0.06,2.75c0.22-0.9,0.33-1.82,0.33-2.74c0.12-1.69,0.2-4,0.19-6.62s-0.11-4.94-0.23-6.63
		C308.77,198.19,308.63,197.27,308.39,196.38z"/>
	<path fill="#EB996E" d="M317.72,218.72c0.28-0.07,0.55-0.17,0.8-0.31c0.66-0.34,1.43-0.37,2.12-0.1c0.42,0.23,0.7,0.67,0.72,1.15
		c0.03,0.6-0.01,1.19-0.13,1.78c-0.17,0.74-0.05,1.51,0.33,2.16c0.48,0.68,1.26,1.09,2.1,1.1c0.82-0.01,1.6-0.35,2.16-0.94
		c0.52-0.52,0.87-1.19,1-1.92c0.16-1.18,0.14-2.37-0.05-3.54c-0.1-0.79-0.34-1.56-0.71-2.27c-0.28-0.5-0.54-0.69-0.56-0.67
		s0.16,0.27,0.37,0.76c0.27,0.72,0.45,1.47,0.51,2.24c0.13,1.13,0.11,2.27-0.05,3.39c-0.26,1.31-1.35,2.28-2.68,2.4
		c-0.66,0-1.28-0.32-1.67-0.85c-0.3-0.55-0.4-1.19-0.27-1.8c0.11-0.63,0.14-1.27,0.08-1.91c-0.06-0.62-0.44-1.16-1-1.43
		c-0.79-0.3-1.67-0.2-2.38,0.26C317.94,218.5,317.66,218.65,317.72,218.72z"/>
	<path fill="#EB996E" d="M325.59,223.14c-0.07,0.26-0.04,0.54,0.08,0.78c0.29,0.7,0.88,1.22,1.6,1.42c1.1,0.24,2.23-0.12,3-0.94
		c0.9-0.99,1.39-2.29,1.35-3.63c0-1.32-0.41-2.61-1.18-3.69c-0.63-0.88-1.48-1.57-2.47-2c-0.65-0.29-1.35-0.46-2.06-0.49
		c-0.5,0-0.77,0-0.77,0.08c0.92,0.12,1.82,0.38,2.67,0.76c0.89,0.44,1.65,1.1,2.22,1.91c0.66,1.01,1.01,2.19,1,3.4
		c0.03,1.2-0.38,2.37-1.16,3.28c-0.64,0.73-1.62,1.07-2.58,0.91c-0.64-0.14-1.18-0.55-1.49-1.13
		C325.66,223.42,325.66,223.14,325.59,223.14z"/>
	<path fill="#EB996E" d="M316.09,232.38c-0.43-0.14-0.89-0.14-1.32,0c-1.13,0.25-2.14,0.86-2.88,1.74l0.46,0.14
		c-0.06-0.62-0.16-1.23-0.3-1.84c-0.4-2.15-1.38-4.15-2.85-5.77c0.98,1.88,1.76,3.85,2.32,5.89c0.14,0.62,0.24,1.22,0.31,1.78
		l0.08,0.62l0.39-0.49c0.66-0.82,1.55-1.43,2.55-1.75C315.6,232.47,316.09,232.45,316.09,232.38z"/>
	<path fill="#EB996E" d="M316.34,208.87c-0.13,0.06,0.4,1,1.62,1.57s2.3,0.24,2.25,0.1s-1-0.13-2-0.6S316.47,208.77,316.34,208.87z"
		/>
	<path fill="#FF725E" d="M294.9,244.1l29.19,2.09c0,0-4.49,51.65-5.36,59.66s-6,20.09-23.83,20.09s-21.15-6.07-29.08-18.57
		c9.35-6.48,24.2-25.83,24.2-25.83L294.9,244.1z"/>
	<path fill="#E0E0E0" d="M308.66,251.05c-0.15,0.44-0.33,0.86-0.54,1.27l-1.63,3.44l-5.76,11.89l-0.29-0.35l7.57-2.25l7.69-2.26
		l0.56-0.16l-0.27,0.51l-6,11.65l-1.77,3.35c-0.2,0.41-0.43,0.8-0.69,1.17c0.15-0.43,0.33-0.85,0.54-1.25c0.42-0.86,1-2,1.64-3.41
		l5.81-11.73l0.29,0.35l-7.68,2.28l-7.58,2.22l-0.55,0.16l0.26-0.51l5.97-11.77c0.73-1.39,1.32-2.53,1.76-3.38
		C308.18,251.85,308.4,251.44,308.66,251.05z"/>
	<path fill="#E0E0E0" d="M305.9,300.73c-0.45,0.1-0.9,0.16-1.36,0.18l-3.8,0.33l-13.14,1l0.16-0.43l5.76,5.4l5.83,5.5l0.42,0.4
		h-0.58l-13.07,0.72l-3.78,0.16c-0.45,0.04-0.91,0.04-1.36,0c0.45-0.09,0.9-0.14,1.35-0.16l3.77-0.31l13.06-0.9l-0.15,0.43
		l-5.85-5.49l-5.74-5.42l-0.42-0.39h0.57l13.15-0.79l3.81-0.19C304.98,300.72,305.44,300.71,305.9,300.73z"/>
</g>
<g id="freepik--Shield--inject-31">
	<linearGradient id="SVGID_1_" gradientUnits="userSpaceOnUse" x1="291.5972" y1="152.0659" x2="364.6589" y2="152.0659">
		<stop  offset="6.425827e-07" style="stop-color:#A770EF"/>
		<stop  offset="0.3932" style="stop-color:#CF8BF3"/>
		<stop  offset="1" style="stop-color:#FDB99B"/>
	</linearGradient>
	<path fill="url(#SVGID_1_)" d="M357.87,116.22l-29.77-10.69l-29.44,10.55c-3.76,1.77-7.06,2.84-7.06,6.34v17.46
		c-0.07,12.26,3.28,24.3,9.67,34.77c6.39,10.56,15.85,18.92,27.12,23.95c12-3.91,21-14.35,26.55-23.27
		c6.41-10.46,9.77-22.5,9.72-34.77v-15.7C364.66,119.86,362,117.42,357.87,116.22z"/>
	<g opacity="0.15">
		<path d="M328.39,188.44c-8.93-4.03-16.42-10.69-21.45-19.1c-5.07-8.27-7.73-17.79-7.69-27.49v-12.2c0-2.78,1.68-5.38,5-6.93
			l23.86-8.92v-8.23l-29.45,10.51c-3.09,1.35-7.06,2.84-7.06,6.34v17.46c-0.07,12.26,3.28,24.3,9.67,34.77
			c6.39,10.56,15.85,18.92,27.12,23.95L328.39,188.44z"/>
	</g>
	<g opacity="0.22">
		<path d="M328.39,198.57c2.02-0.66,3.98-1.5,5.85-2.5c4.61-2.61,8.79-5.89,12.42-9.74c3.28-3.53,6.17-7.41,8.61-11.57
			c6.48-10.54,9.75-22.74,9.39-35.11v-14.41c0-7.18-3.7-7.71-6.8-9.06l-29.77-10.69v8.23l24.14,9.07c3.32,1.55,5,4.15,5,6.92v12.25
			c0.04,9.7-2.62,19.21-7.69,27.48c-4.92,8.37-12.32,15.01-21.17,19L328.39,198.57z"/>
	</g>
	<path opacity="0.5" fill="#FFFFFF" enable-background="new    " d="M336,141.07v-2.36c0-4.27-3.47-7.73-7.74-7.72
		c-4.26,0-7.72,3.46-7.72,7.72v2.4c-2.11,0.32-3.68,2.13-3.68,4.27v13.9c0,2.39,1.93,4.32,4.32,4.32l0,0h14.48
		c2.39,0,4.32-1.93,4.32-4.32v0v-13.9C339.98,143.13,338.25,141.25,336,141.07z M330.37,155.81h-3.78l0.59-2.73
		c-1.06-0.69-1.36-2.11-0.67-3.17c0.69-1.06,2.11-1.36,3.17-0.67c1.06,0.69,1.36,2.11,0.67,3.17c-0.17,0.27-0.4,0.49-0.67,0.67
		C329.94,154.1,330.37,155.81,330.37,155.81z M334.37,141.05h-12.16v-2.34c0.14-3.35,2.96-5.95,6.31-5.82
		c3.16,0.13,5.69,2.66,5.82,5.82L334.37,141.05z"/>
	<path fill="#FFFFFF" d="M304.08,140.9c-0.26-0.78-0.41-1.6-0.45-2.42c-0.22-1.97-0.3-3.95-0.24-5.93c0-1.16,0.11-2.26,0.21-3.26
		c0.05-0.91,0.28-1.81,0.67-2.63c0.28-0.56,0.74-1.02,1.3-1.31c0.41-0.19,0.66-0.18,0.66-0.15c-0.72,0.33-1.3,0.9-1.63,1.62
		c-0.32,0.8-0.5,1.65-0.52,2.51c-0.08,1-0.14,2.09-0.17,3.24c-0.07,2.29,0,4.37,0.09,5.88C304.09,139.26,304.12,140.08,304.08,140.9
		z"/>
	<path fill="#FFFFFF" d="M304.51,148.49c-0.14,0-0.27-0.71-0.29-1.6s0.09-1.61,0.23-1.61s0.27,0.71,0.29,1.6
		S304.66,148.49,304.51,148.49z"/>
</g>
<g id="freepik--Device--inject-31">
	<polygon fill="#263238" points="274.98,239.88 241.79,321.96 181.94,321.96 181.94,325.67 360.21,325.67 396.68,239.88 	"/>
	<path fill="#FAFAFA" d="M325.72,288.34c-1.2,4.13-4.7,6.74-7.82,5.84s-4.67-5-3.47-9.13s4.71-6.74,7.83-5.84
		S326.93,284.21,325.72,288.34z"/>
</g>
</svg>
