<?xml version="1.0" encoding="utf-8"?>
<!-- Generator: Adobe Illustrator 25.0.0, SVG Export Plug-In . SVG Version: 6.00 Build 0)  -->
<svg version="1.1" id="Layer_1" xmlns="http://www.w3.org/2000/svg" xmlns:xlink="http://www.w3.org/1999/xlink" x="0px" y="0px"
	 viewBox="0 0 512 512" style="enable-background:new 0 0 512 512;" xml:space="preserve">
<style type="text/css">
	.st0{fill:#587BF7;}
</style>
<g>
	<g>
		<g>
			<path class="st0" d="M400,0H112C50.1,0,0,50.1,0,112v288c0,61.9,50.1,112,112,112h288c61.9,0,112-50.1,112-112V112
				C512,50.1,461.9,0,400,0z M484.7,403c0,45.1-36.6,81.7-81.7,81.7H109c-45.1,0-81.7-36.6-81.7-81.7V109
				c0-45.1,36.6-81.7,81.7-81.7h294c45.1,0,81.7,36.6,81.7,81.7V403z"/>
			<path class="st0" d="M160,112h-32c-8.8,0-16,7.2-16,16v32c0,8.8,7.2,16,16,16h32c8.8,0,16-7.2,16-16v-32
				C176,119.2,168.8,112,160,112z"/>
			<path class="st0" d="M160,224h-32c-8.8,0-16,7.2-16,16v32c0,8.8,7.2,16,16,16h32c8.8,0,16-7.2,16-16v-32
				C176,231.2,168.8,224,160,224z"/>
			<path class="st0" d="M160,336h-32c-8.8,0-16,7.2-16,16v32c0,8.8,7.2,16,16,16h32c8.8,0,16-7.2,16-16v-32
				C176,343.2,168.8,336,160,336z"/>
			<rect x="208" y="128" class="st0" width="192" height="32"/>
			<rect x="208" y="240" class="st0" width="192" height="32"/>
			<rect x="208" y="352" class="st0" width="192" height="32"/>
		</g>
	</g>
</g>
</svg>
