<?xml version="1.0" encoding="utf-8"?>
<!-- Generator: Adobe Illustrator 25.0.0, SVG Export Plug-In . SVG Version: 6.00 Build 0)  -->
<svg version="1.1" id="Layer_1" xmlns="http://www.w3.org/2000/svg" xmlns:xlink="http://www.w3.org/1999/xlink" x="0px" y="0px"
	 viewBox="0 0 512 512" style="enable-background:new 0 0 512 512;" xml:space="preserve">
<style type="text/css">
	.st0{fill:#587BF7;}
</style>
<g>
	<g>
		<path class="st0" d="M405,257c-33.1,0-60,26.9-60,60s26.9,60,60,60h85c0.3,0,0.7,0,1-0.1c0.3,0,0.7,0,1,0c11,0,20-9,20-20V200
			c0-26.6-13.1-50.2-33.2-64.8l-68-111.6c-2.8-4.6-7.3-7.8-12.4-9c-5.2-1.2-10.6-0.4-15.2,2.5L333,48.1L310.4,9.8
			c-2.7-4.6-7.2-7.9-12.4-9.2c-5.2-1.3-10.7-0.5-15.2,2.3L90.1,120H60c-10.9,0-19.7-8.7-20-19.5C40.3,89.7,49.1,81,60,81h37
			c11,0,20-9,20-20s-9-20-20-20H60C31.7,41,7.9,60.7,1.6,87.1C0.6,89.5,0,92.2,0,95v5v1v331c0,44.1,35.9,80,80,80h352
			c34.5,0,65-22,75.9-54.7c3.5-10.5-2.2-21.8-12.6-25.3c-10.5-3.5-21.8,2.2-25.3,12.6c-5.5,16.3-20.7,27.3-38,27.3H80
			c-22.1,0-40-17.9-40-40V156.6c6.3,2.2,13,3.4,20,3.4h372c22.1,0,40,17.9,40,40v57H405z M472,337h-67c-11,0-20-9-20-20
			c0-11,9-20,20-20h67V337z M167.1,120l119.1-72.4l21.3,36c0.4,1,0.9,2,1.5,2.9c0.4,0.7,0.9,1.4,1.4,2L329,120H167.1z M375.5,120
			l-22.1-37.4l33.8-20.9l35.6,58.4H375.5z"/>
	</g>
</g>
</svg>
