<?xml version="1.0" encoding="utf-8"?>
<!-- Generator: Adobe Illustrator 25.0.0, SVG Export Plug-In . SVG Version: 6.00 Build 0)  -->
<svg version="1.1" id="Layer_1" xmlns="http://www.w3.org/2000/svg" xmlns:xlink="http://www.w3.org/1999/xlink" x="0px" y="0px"
	 viewBox="0 0 1276 869" style="enable-background:new 0 0 1276 869;" xml:space="preserve">
<style type="text/css">
	.st0{fill:#263238;}
	.st1{fill:#FECAD0;}
	.st2{fill:#EE84AA;}
	.st3{fill:#ED91B6;}
	.st4{fill:url(#SVGID_1_);}
	.st5{fill:url(#SVGID_2_);}
	.st6{fill:#587CF8;}
	.st7{opacity:0.25;}
	.st8{clip-path:url(#SVGID_4_);}
	.st9{fill:#FFFFFF;}
	.st10{opacity:0.2;}
	.st11{fill:#FBFBFB;}
	.st12{opacity:0.6;fill:#FFFFFF;enable-background:new    ;}
	.st13{opacity:0.6;}
	.st14{fill:#E0E0E0;}
	.st15{fill:url(#SVGID_5_);}
	.st16{fill:#455A64;}
	.st17{fill:#FAFAFA;}
	.st18{fill:#EBEBEB;}
	.st19{fill:#F5F5F5;}
	.st20{fill:url(#SVGID_6_);}
	.st21{fill:url(#SVGID_7_);}
	.st22{fill:#FF725E;}
	.st23{fill:#FFBE9D;}
	.st24{opacity:0.4;}
	.st25{opacity:0.5;}
	.st26{fill:#EB996E;}
	.st27{fill:none;stroke:url(#SVGID_8_);stroke-width:5;stroke-linecap:round;stroke-miterlimit:10;}
	.st28{fill:url(#SVGID_9_);}
	.st29{fill:url(#SVGID_10_);}
	.st30{fill:url(#SVGID_11_);}
	.st31{fill:url(#SVGID_12_);}
	.st32{fill:#FCC200;}
	.st33{fill:#FFDD00;}
	.st34{fill:#FFCF00;}
	.st35{fill:#F7AA05;}
	.st36{fill:#EADDDD;}
	.st37{fill:#CC9005;}
	.st38{fill:#A97A05;}
	.st39{fill:#FBBB00;}
	.st40{fill:#C47F0B;}
</style>
<g>
	<g>
		<g id="freepik--Character--inject-5_2_">
			<path class="st0" d="M1085.2,352.3c10.7,3,21.8-3.3,24.7-14c0.5-1.9,0.8-3.9,0.7-5.9c-0.1-5.8-2.8-11.8-0.9-17.3
				c1.2-3.8,4.4-6.8,5.6-10.6c1.6-5.8-1.9-11.6-5.2-16.5c-2-3.3-4.4-6.3-7.3-8.9c-2.9-2.6-6.8-3.7-10.7-3.2"/>
			<path class="st0" d="M1031.4,276.5c0.3,4.4-2.6,8.3-5.6,11.6c-3,3.3-6.2,6.7-6.8,11.1c-1.1,7.7,6.5,14.8,4.9,22.6
				c-0.8,4.1-4.2,7.4-4.8,11.5c-0.6,4.1,1.6,7.9,4.2,11c2.7,3.1,5.9,5.6,8.3,8.9c0,0,4.9,8.1,20,2.9"/>
			<path class="st0" d="M1099.1,283.3c0.1-4-3.6-7.1-7.3-8.5c-3.7-1.4-7.8-2-11.1-4.2c-2.9-2-4.9-5-7.4-7.6
				c-9.5-9.7-25.1-9.7-34.7-0.2c-3.2,3.2-5.5,7.1-6.6,11.5c-1.4,5.7-0.5,12.4,4,16.2c5.2,4.4,12.9,3.4,19.6,2.1
				c6.7-1.4,14.2-2.7,19.8,1.2c3.4,2.4,5.3,6.2,7.3,9.8c2.1,3.6,4.6,7.2,8.5,8.5s9.1-1,9.3-5.1"/>
			<path class="st1" d="M1083.3,284.1c3.5,0.3,6.1,3.3,6,6.8l0,0l-4,90.2c-0.2,10.7-15.7,16.7-27.1,16.4l0,0
				c-11.5-0.3-11.9-5.9-12-16.1c-0.2-16.9-0.2-23.3-0.2-23.2c0,0.1-14.5-2.4-17.5-21.4c-1.5-9.4-1-24.9-0.1-37.6
				c0.7-11.4,8.3-25.3,19.7-24.1L1083.3,284.1z"/>
			<path class="st0" d="M1031.8,310.7c0,1.3,1,2.4,2.4,2.5c1.3,0.1,2.4-0.9,2.5-2.2c0,0,0,0,0,0c0-1.3-1-2.4-2.3-2.5
				C1033,308.4,1031.9,309.4,1031.8,310.7C1031.8,310.7,1031.8,310.7,1031.8,310.7z"/>
			<path class="st0" d="M1031.6,306c0.3,0.3,2.1-1,4.8-1c2.6,0,4.5,1.3,4.8,1s-0.2-0.7-1-1.3c-1.1-0.8-2.5-1.2-3.9-1.2
				c-1.3,0-2.6,0.4-3.7,1.2C1031.8,305.3,1031.5,305.9,1031.6,306z"/>
			<path class="st0" d="M1057.9,311.5c0,1.3,1,2.4,2.3,2.5c1.3,0.1,2.4-0.9,2.5-2.1c0,0,0,0,0,0c0-1.3-1-2.4-2.4-2.5
				C1059.2,309.2,1058,310.1,1057.9,311.5C1057.9,311.4,1057.9,311.4,1057.9,311.5z"/>
			<path class="st0" d="M1057.3,307.8c0.3,0.3,2.2-1,4.8-1s4.5,1.3,4.8,1s-0.2-0.7-1-1.3c-1.1-0.8-2.5-1.2-3.9-1.2
				c-1.4,0-2.7,0.4-3.8,1.2C1057.5,307,1057.2,307.6,1057.3,307.8z"/>
			<path class="st2" d="M1047.8,327.2c-1.4-0.4-2.8-0.7-4.2-0.8c-0.7,0-1.3-0.2-1.4-0.7c0-0.7,0.1-1.4,0.4-2l2-5.1
				c1.8-4.3,3.3-8.8,4.5-13.3c-0.3-0.1-2.8,5.7-5.6,13c-0.6,1.9-1.3,3.5-1.9,5.1c-0.4,0.8-0.6,1.7-0.4,2.6c0.2,0.5,0.6,0.8,1.1,1
				c0.4,0.1,0.7,0.2,1.1,0.2C1044.9,327.4,1046.4,327.4,1047.8,327.2z"/>
			<path class="st3" d="M1045.9,358.2c8.9,0.2,17.7-2.2,25.4-6.7c0,0-6.4,13-25.4,11.1V358.2z"/>
			<path class="st3" d="M1048.9,333.5c1-1.3,2.6-1.9,4.2-1.7c1.2,0.1,2.2,0.7,3,1.6c0.7,0.9,0.8,2.1,0.2,3.1c-0.9,1-2.2,1.3-3.5,0.9
				c-1.2-0.4-2.4-1.1-3.3-2c-0.3-0.2-0.5-0.5-0.7-0.8c-0.2-0.3-0.2-0.7,0-1"/>
			<path class="st0" d="M1096.6,346.5c-9.1,1.8-18-4.1-19.9-13.2c-0.4-1.8-0.4-3.6-0.2-5.3c0.6-4.7,3.1-9.4,1.5-13.8
				c-2.1-5.8-10.3-7.6-12.5-13.5c-1.3-3.4-0.1-7.4-1.6-10.7c-1.4-3.2-4.6-4.9-7.8-6.1c-3.2-1.2-6.6-1.9-9.3-4s-4.3-6-2.6-8.9
				c14.2,1.7,28.1,5.1,41.5,10.1c3.1,1.2,6.3,2.5,8.2,5.3s1.9,6.7,1.7,10.2l-2.4,51.1"/>
			<path class="st0" d="M1096,279.4c-7.5-1.7-12.2-9.2-10.4-16.7c1.3-5.4,5.6-9.6,11.1-10.6c3-0.7,6.3,0.3,8.3,2.6
				c1.7,2.4,1.6,5.9,3.8,7.8s6,1.2,9.1,1.9c4.9,1.4,8,6.1,7.4,11.1c-0.8,4.9-4.1,9-8.8,10.8c-4.6,1.7-9.7,1.8-14.3,0.3
				c-4.6-1.5-9-3.7-13.1-6.4"/>
			<linearGradient id="SVGID_1_" gradientUnits="userSpaceOnUse" x1="1088.3339" y1="280.738" x2="1108.7458" y2="280.738">
				<stop  offset="6.425827e-07" style="stop-color:#A770EF"/>
				<stop  offset="0.5139" style="stop-color:#CF8BF3"/>
				<stop  offset="1" style="stop-color:#FDB99B"/>
			</linearGradient>
			<path class="st4" d="M1108.7,286.7c-4.9-6.5-12.3-10.7-20.4-11.7c1.2-0.2,2.4-0.2,3.6,0c2.9,0.4,5.7,1.4,8.2,2.9
				c2.6,1.5,4.8,3.4,6.6,5.7C1107.7,284.4,1108.3,285.5,1108.7,286.7z"/>
			<path class="st0" d="M1057.9,331.2c-1.2,1.7-2.9,3-4.8,3.8c-1.7,1.1-3.7,1.8-5.8,2c1.7-1.1,3.5-2.1,5.3-2.9
				C1054.4,333.1,1056.1,332.1,1057.9,331.2z"/>
			<linearGradient id="SVGID_2_" gradientUnits="userSpaceOnUse" x1="1106.9644" y1="281.1947" x2="1124.3242" y2="281.1947">
				<stop  offset="6.425827e-07" style="stop-color:#A770EF"/>
				<stop  offset="0.5139" style="stop-color:#CF8BF3"/>
				<stop  offset="1" style="stop-color:#FDB99B"/>
			</linearGradient>
			<path class="st5" d="M1107,284.5c0.2-0.1,0.5-0.2,0.7-0.3c0.7-0.2,1.4-0.4,2.1-0.5c2.6-0.4,5.3-0.3,7.9,0.3
				c1.8,0.4,3.6,1,5.2,1.9c1,0.6,1.6,1.8,1.5,3c-0.1,0.6-0.4,1.2-1,1.6c-0.5,0.3-1.1,0.6-1.7,0.7c-1.1,0.2-2.3,0.2-3.5,0
				c-1.2-0.1-2.4-0.3-3.5-0.6c-1.2-0.3-2.4-0.7-3.5-1.1c-1.3-0.5-2.4-1.3-3.2-2.3c-0.8-1.1-1.1-2.6-0.8-3.9c0.2-1.3,0.6-2.4,0.8-3.6
				c0.5-2.3,1.4-4.5,2.5-6.5c0.6-1,1.6-1.8,2.8-2.1c1.2-0.3,2.4,0.3,3,1.4c0.3,1,0.3,2.1-0.1,3c-0.3,0.8-0.7,1.6-1.2,2.4
				c-1.3,2.3-3.1,4.4-5.3,5.9c-0.6,0.4-1.2,0.8-1.9,1.1c-0.4,0.2-0.7,0.3-0.7,0.3c0,0,0.9-0.6,2.3-1.7c2-1.6,3.7-3.6,4.9-5.9
				c0.4-0.7,0.7-1.5,1-2.3c0.3-0.8,0.4-1.6,0.1-2.4c-0.4-0.7-1.3-1.1-2.1-0.9c-0.9,0.2-1.7,0.9-2.2,1.7c-1.1,2-1.9,4.1-2.4,6.3
				c-0.5,2.3-1.6,4.8-0.2,6.7c1.7,1.7,3.8,2.7,6.2,3.1c1.1,0.3,2.3,0.5,3.4,0.6c1.1,0.1,2.1,0.1,3.2,0c1-0.2,1.9-0.7,2-1.6
				c0-0.9-0.4-1.7-1.1-2.2c-1.5-0.9-3.2-1.5-4.9-1.9c-2.5-0.6-5.1-0.8-7.7-0.6C1108,284.3,1107,284.6,1107,284.5z"/>
			<path class="st6" d="M1015,394.1c0,0-13.4,8.4-14.9,29.3c-1.6,20.9-6.2,64.5-6.2,64.5l-51,12.5l5.7,30.6l84.1-23.5L1015,394.1z"
				/>
			<path class="st6" d="M1087.1,369.8l8.3,9.5c0,0,21.7,5.1,26.4,7.2c4.7,2-7.4,46.4-7.4,46.4l1.9,91.2c0.1,6.3-4.9,11.6-11.3,11.7
				c-0.4,0-0.9,0-1.3,0l-82.4-7.3l-7.1-102.9l0.7-31.4l19.7-6.8L1046,376l9,20.2L1087.1,369.8z"/>
			<path class="st6" d="M1121.9,386.5c0,0,16.8,6.4,18.2,31.8c0.9,16.7,6.8,45.1,10.7,62.6c2.2,9.8,0.4,20.1-5.1,28.6l0,0
				c-6.6,10.3-17.9,16.8-30.2,17.4l-35.7,1.6l-15.1-24l40-11.7l9.5-57.7L1121.9,386.5z"/>
			<g class="st7">
				<defs>
					<path id="SVGID_3_" class="st7" d="M1150.8,480.9c-3.9-17.5-9.7-45.9-10.7-62.6c-1.4-25.3-18.2-31.8-18.2-31.8
						c-4.7-2-26.4-7.2-26.4-7.2l-8.3-9.5l-32.1,26.4l-9-20.2l-11.4,11.2l-19.7,6.8l0,0.2l0-0.2c0,0-13.4,8.4-14.9,29.3
						c-1.6,20.9-6.2,64.5-6.2,64.5l-51,12.5l5.7,30.6l71.6-20l1.2,17.4l82.4,7.3c0.4,0,0.8,0.1,1.3,0c5.4-0.1,9.8-3.9,11-9
						c12.1-0.7,23.1-7.1,29.7-17.3C1151.1,501,1153,490.7,1150.8,480.9z M1114.9,431.3l-0.4,2.6l0-1
						C1114.5,432.8,1114.6,432.3,1114.9,431.3z"/>
				</defs>
				<clipPath id="SVGID_4_">
					<use xlink:href="#SVGID_3_"  style="overflow:visible;"/>
				</clipPath>
				<g class="st8">
					<path class="st9" d="M983.8,367.3v178.1l-1.2-0.1V368.4C983,368,983.4,367.6,983.8,367.3z"/>
					<polygon class="st9" points="1001.8,357 1001.8,546.1 1000.6,546.1 1000.6,357.7 1001.3,357.3 					"/>
					<polygon class="st9" points="1019.7,354.8 1019.7,546.8 1018.5,546.8 1018.5,354.8 					"/>
					<polygon class="st9" points="1037.7,359.6 1037.7,547.6 1036.5,547.5 1036.5,358.3 					"/>
				</g>
				<g class="st8">
					<path class="st9" d="M1051.7,367.3v178.1l-1.2-0.1V368.4C1050.9,368,1051.3,367.6,1051.7,367.3z"/>
					<polygon class="st9" points="1069.6,357 1069.6,546.1 1068.4,546.1 1068.4,357.7 1069.1,357.3 					"/>
					<polygon class="st9" points="1087.6,354.8 1087.6,546.8 1086.4,546.8 1086.4,354.8 					"/>
					<polygon class="st9" points="1105.6,359.6 1105.6,547.6 1104.4,547.5 1104.4,358.3 					"/>
				</g>
				<g class="st8">
					<path class="st9" d="M1127,367.3v178.1l-1.2-0.1V368.4C1126.2,368,1126.6,367.6,1127,367.3z"/>
					<polygon class="st9" points="1145,357 1145,546.1 1143.8,546.1 1143.8,357.7 1144.4,357.3 					"/>
					<polygon class="st9" points="1162.9,354.8 1162.9,546.8 1161.7,546.8 1161.7,354.8 					"/>
					<polygon class="st9" points="1180.9,359.6 1180.9,547.6 1179.7,547.5 1179.7,358.3 					"/>
				</g>
				<g class="st8">
					<path class="st9" d="M1194.9,367.3v178.1l-1.2-0.1V368.4C1194.1,368,1194.5,367.6,1194.9,367.3z"/>
					<polygon class="st9" points="1212.8,357 1212.8,546.1 1211.6,546.1 1211.6,357.7 1212.3,357.3 					"/>
					<polygon class="st9" points="1230.8,354.8 1230.8,546.8 1229.6,546.8 1229.6,354.8 					"/>
					<polygon class="st9" points="1248.8,359.6 1248.8,547.6 1247.6,547.5 1247.6,358.3 					"/>
				</g>
			</g>
			<path class="st0" d="M1129.1,506.6c-0.2-0.9-0.4-1.8-0.5-2.8c-0.4-2.5-1.1-5-2.1-7.3c-1.4-3.5-3.8-6.5-6.8-8.6
				c-1.8-1.3-3.8-2.1-6-2.4c-2.3-0.3-4.7-0.2-7,0.3c-8.2,1.7-16.4,4-24.4,6.7l-7.3,2.5c-0.9,0.3-1.8,0.6-2.7,0.8
				c0.8-0.5,1.7-0.8,2.6-1.1l7.2-2.8c8-2.9,16.1-5.2,24.4-7c2.4-0.5,4.9-0.7,7.4-0.3c2.3,0.4,4.4,1.3,6.3,2.7
				c3.1,2.3,5.6,5.5,6.9,9.1c0.9,2.4,1.6,4.9,1.9,7.5C1129.2,504.7,1129.2,505.6,1129.1,506.6z"/>
			<path class="st0" d="M1106.5,435.1c0.2,0.6,0.3,1.2,0.3,1.9c0.1,1.2,0.2,3,0.4,5.1c0.2,4.6,0.5,10.4,0.8,16.9
				c0.3,5.6,0.9,11.2,1.9,16.7c0.8,4.2,1.7,6.8,1.5,6.8c-0.3-0.5-0.6-1.1-0.7-1.7c-0.3-0.7-0.5-1.4-0.7-2.1
				c-0.3-0.8-0.5-1.9-0.8-2.8c-1.2-5.5-1.9-11.2-2.2-16.8c-0.4-6.6-0.4-12.6-0.5-16.9c0-2,0-3.7,0-5.1
				C1106.4,436.3,1106.5,435.7,1106.5,435.1z"/>
			<path class="st0" d="M1142.1,515.5c-0.6,0.7-1.2,1.3-1.9,1.9c-1.8,1.6-3.8,3-5.9,4.3c-6.9,4.2-14.8,6.7-22.9,7.2
				c-4.5,0.3-8.9-0.1-13.3-1c-4-0.9-7.4-2.3-10.4-3c-2.4-0.5-4.8-0.9-7.2-1c-0.9-0.1-1.8-0.2-2.6-0.5c0,0,1,0,2.7,0.2
				c2.4,0,4.9,0.2,7.3,0.7c3.1,0.6,6.5,2,10.4,2.8c4.3,0.9,8.6,1.2,13,0.9c8-0.5,15.7-2.9,22.6-6.8
				C1136.8,519.3,1139.5,517.5,1142.1,515.5z"/>
			<path class="st0" d="M1095,466.4c-0.5,0.7-1,1.4-1.6,2.1c-1.5,1.8-3.1,3.5-4.8,5.2c-2.5,2.4-5.1,4.7-7.9,6.9
				c-3.4,2.6-7,5-10.7,7.1c-3.7,2.1-7.6,4-11.6,5.6c-3.3,1.3-6.6,2.3-10,3.2c-2.3,0.6-4.6,1.1-6.9,1.4c-0.8,0.2-1.7,0.3-2.6,0.3
				c0.8-0.3,1.6-0.5,2.5-0.7c1.6-0.3,4-0.9,6.8-1.7c3.3-1,6.6-2.1,9.8-3.4c3.9-1.6,7.8-3.5,11.5-5.6c3.7-2.1,7.2-4.4,10.7-7
				c3.1-2.4,5.8-4.6,8-6.7c2.2-2,3.9-3.7,5-4.9C1093.7,467.5,1094.3,466.9,1095,466.4z"/>
			<g class="st10">
				<path d="M1044.1,496.3c-2.3-1.9-0.9-5.9,1.7-7.4c2.6-1.5,5.8-1.1,8.7-1.2c7.4-0.2,14.6-2.9,20.3-7.6c4.2-3.5,8-8.2,13.4-9
					c-1.2,4.4-6.6,8.8-10.4,11.4c-10.9,7.7-23,10.6-35.7,15"/>
			</g>
			<path class="st0" d="M1093.6,380.3c-0.4,0.5-0.8,1-1.3,1.4c-0.9,0.8-2.1,2-3.7,3.5c-3.2,2.9-7.6,6.8-12.5,11.1
				c-2.2,2.2-4.7,4-7.4,5.6c-1.2,0.6-2.6,1.1-4,1.2c-1.2,0.1-2.4,0-3.6-0.4c-1.7-0.5-3.1-1.7-4-3.2c-0.2-0.4-0.4-0.9-0.4-1.3
				c0-0.2,0-0.3,0-0.5c0.1,0,0.2,0.7,0.8,1.7c0.9,1.4,2.3,2.3,3.9,2.7c1.1,0.3,2.2,0.4,3.3,0.3c1.3-0.2,2.6-0.6,3.7-1.2
				c2.6-1.6,5-3.4,7.2-5.6c4.9-4.3,9.4-8.2,12.7-10.9c1.6-1.4,3-2.5,3.9-3.2C1092.7,381,1093.1,380.6,1093.6,380.3z"/>
			<path class="st0" d="M1052.5,397.1c-0.7,1.3-1.6,2.4-2.7,3.2c-1.1,1-2.4,1.9-3.7,2.6c-0.8,0.6-1.9,0.8-2.9,0.5
				c-1-0.5-1.7-1.4-2-2.4c-1.7-3.5-3.1-6.8-4.1-9.1c-0.6-1.2-1.1-2.5-1.4-3.9c0.8,1.1,1.5,2.3,2.1,3.6c1.2,2.3,2.7,5.6,4.4,9
				c0.4,0.9,0.8,1.7,1.5,1.9c0.8,0.1,1.5,0,2.2-0.5c1.3-0.6,2.6-1.4,3.7-2.3C1051.4,398.3,1052.4,397,1052.5,397.1z"/>
			<path class="st0" d="M1052.6,438.3c-0.3,0,0-9.4,0.6-21c0.6-11.6,1.3-21,1.5-21c0.3,0,0,9.4-0.6,21
				C1053.6,429,1052.9,438.4,1052.6,438.3z"/>
			<path class="st0" d="M1017.1,434.1c-0.6-3.9-0.6-7.8,0-11.6C1017.8,426.3,1017.8,430.2,1017.1,434.1z"/>
			<path class="st11" d="M1090.5,405.5c0,0,0,0,0.1,0C1090.5,405.5,1090.5,405.5,1090.5,405.5z"/>
			<path class="st11" d="M1087.6,418.1c0,0,0.1,0,0.1,0C1087.7,418.1,1087.6,418.1,1087.6,418.1z"/>
			<path class="st11" d="M1089.3,429.6c0,0,0.1,0,0.1,0C1089.4,429.6,1089.3,429.6,1089.3,429.6z"/>
			<path class="st11" d="M1088.2,441.3c0,0,0,0,0.1,0C1088.3,441.3,1088.2,441.3,1088.2,441.3z"/>
			<path class="st11" d="M1088.4,451.1c0,0,0,0,0.1,0C1088.5,451.1,1088.5,451.1,1088.4,451.1z"/>
			<path class="st11" d="M1089.8,461.6c0,0,0.1,0,0.1,0C1089.9,461.5,1089.9,461.5,1089.8,461.6z"/>
			<path class="st11" d="M1091.7,477.7c0,0,0.1,0,0.1,0H1091.7z"/>
			<path class="st11" d="M1038.7,490.1l0.1,0.1C1038.8,490.1,1038.8,490.1,1038.7,490.1z"/>
			<path class="st11" d="M1040.3,484c0,0,0.1,0,0.1,0H1040.3z"/>
			<path class="st11" d="M1039.8,473.7c0,0-0.1,0-0.1,0H1039.8z"/>
			<path class="st11" d="M1040.8,463.4c0,0,0,0,0.1,0C1040.9,463.3,1040.9,463.3,1040.8,463.4z"/>
			<path class="st11" d="M1035.1,450c0,0,0,0,0.1,0C1035.2,450,1035.1,450,1035.1,450z"/>
			<path class="st11" d="M1040.9,438.9c0,0,0.1,0,0.1,0C1041,438.9,1041,438.9,1040.9,438.9z"/>
			<path class="st11" d="M1039.4,429.4c0,0,0.1,0,0.1,0C1039.5,429.4,1039.4,429.4,1039.4,429.4z"/>
			<path class="st11" d="M1039.4,418.2c0,0,0.1,0,0.1,0C1039.5,418.2,1039.5,418.2,1039.4,418.2z"/>
			<path class="st11" d="M1043.2,408.4L1043.2,408.4C1043.2,408.4,1043.2,408.4,1043.2,408.4z"/>
			<path class="st11" d="M1072.5,392.6c0,0,0.1,0,0.1,0C1072.6,392.6,1072.5,392.6,1072.5,392.6z"/>
			<path class="st11" d="M1071.1,387L1071.1,387C1071.1,387,1071.2,387,1071.1,387z"/>
			<path class="st11" d="M1082.7,502.2C1082.7,502.3,1082.7,502.3,1082.7,502.2C1082.7,502.3,1082.7,502.3,1082.7,502.2z"/>
			<path class="st11" d="M1089.5,498c0,0,0,0.1,0,0.1C1089.5,498.1,1089.5,498.1,1089.5,498z"/>
			<path class="st11" d="M1102.3,493.7c0,0,0,0.1,0,0.1C1102.3,493.8,1102.3,493.8,1102.3,493.7z"/>
			<path class="st11" d="M1110.9,493.4c0,0,0,0,0,0.1S1110.9,493.4,1110.9,493.4z"/>
			<path class="st11" d="M1121.5,483.7c0,0,0,0,0,0.1S1121.5,483.8,1121.5,483.7z"/>
			<path class="st11" d="M1114.9,471.9c0,0,0,0,0.1,0C1115,471.9,1115,471.9,1114.9,471.9z"/>
			<path class="st11" d="M1113.6,465.9c0,0,0,0,0.1,0C1113.7,465.9,1113.7,465.9,1113.6,465.9z"/>
			<path class="st11" d="M1112.2,457.2c0,0,0.1,0,0.1,0C1112.3,457.2,1112.3,457.1,1112.2,457.2z"/>
			<path class="st11" d="M1111.3,448.2c0,0,0,0,0.1,0S1111.3,448.2,1111.3,448.2z"/>
			<path class="st11" d="M1110.4,441.4h0.1C1110.5,441.4,1110.4,441.4,1110.4,441.4z"/>
			<path class="st11" d="M1000.6,431.9L1000.6,431.9C1000.6,431.9,1000.7,431.9,1000.6,431.9z"/>
			<g class="st10">
				<path d="M1035.3,387.7c1.2,5.5,3.2,10.8,6,15.7c0.7,1.6,1.9,2.9,3.4,3.7c2.9,1.2,5.9-1.2,8.1-3.3c0,2.7,2,4.9,4.7,5.2
					c2.6,0.2,5.2-0.4,7.4-1.9c5.7-3.5,10.5-8.2,14.2-13.8c-3.3,2.7-6.8,5.2-10.4,7.4c-2.5,1.6-5.7,3.1-8.4,1.7s-3.8-4.9-6.7-5.1
					c-3.7-0.3-5.8,5.6-9.5,5c-2.1-0.3-3.3-2.5-4.1-4.5l-4.4-10.6"/>
			</g>
			<g class="st10">
				<path d="M1076,530.5c-0.5-1.8-0.2-3.7,0.7-5.3c1.1-1.1,2.6-1.7,4.2-1.7c3.5,0.2,7,0.9,10.3,2.2c7.6,2.3,15.6,3.2,23.6,2.9
					c-3.5,2.8-7.8,4.4-12.3,4.6c-4.5,0.2-8.9-0.1-13.3-0.9l-13.8-1.9"/>
			</g>
			<polygon class="st1" points="979.3,730.1 979.8,808.1 1014.8,805.6 1022.7,729.6 			"/>
			<path class="st6" d="M1016.1,790.3c0,0-24.6,17.5-36.6,2.4l-3.1,7.3l-14,52.3c-1,3.4,0.7,7,4,8.4c2.5,1,5.2,0.4,7.2-1.4
				c10.2-9.6,47.3-45.3,46.9-50.1l-0.1-12.8C1020.2,793.6,1018.5,791.3,1016.1,790.3L1016.1,790.3z"/>
			<path class="st12" d="M967.5,861l52.9-56.3v2.8c0.3,3-1.1,4.2-2.5,6.2c-4.3,5.8-16.1,18.7-44.2,45.6
				C972,860.9,969.7,861.5,967.5,861L967.5,861z"/>
			<g class="st13">
				<path class="st9" d="M1012.6,796.3c-1.7,1.2-2.2,3.5-1.2,5.3c1.2,1.7,3.5,2.3,5.3,1.2c1.8-1.3,2.3-3.8,1.2-5.7
					c-1.4-1.7-3.9-2-5.7-0.6"/>
			</g>
			<path class="st0" d="M982.7,832.1c-0.4,0.2-1.9-3.3-5.8-5.2c-3.9-1.9-7.5-1.1-7.6-1.5c-0.1-0.4,0.8-0.7,2.3-0.9
				c4.2-0.4,8.2,1.6,10.4,5.2C982.8,831.1,982.9,832.1,982.7,832.1z"/>
			<path class="st0" d="M978,841c-0.3,0.3-2.4-1.9-5.8-2.9s-6.3-0.4-6.5-0.9s3-1.7,6.9-0.5C976.4,837.9,978.3,840.8,978,841z"/>
			<path class="st0" d="M991.6,820.8c-0.3,0.3-3.5-3-8.7-5c-5.2-2-9.8-1.9-9.8-2.3c0-0.5,4.8-1.3,10.3,1
				C988.9,816.6,991.9,820.6,991.6,820.8z"/>
			<path class="st0" d="M992.8,804.9c-0.2,0.4-3.8-1.2-8.6-1.3c-4.8-0.2-8.5,0.9-8.7,0.5c-0.1-0.4,3.7-2.2,8.7-2
				S992.9,804.6,992.8,804.9z"/>
			<path class="st0" d="M981.4,803.4c0-0.8,0.1-1.7,0.4-2.5c0.6-2.2,1.7-4.3,3.2-6.1c0.9-1.4,2.3-2.5,3.9-3c1.1-0.3,2.3,0.2,2.9,1.2
				c0.5,0.9,0.7,2.1,0.5,3.1c-1.1,4.5-5.3,7.5-9.9,7.2c-4.5-0.4-8.3-3.4-9.7-7.7c-0.3-1.1-0.2-2.2,0.4-3.2c0.7-0.9,1.9-1.3,3-0.9
				c1.5,0.7,2.9,1.7,3.9,3c1.5,1.7,2.7,3.7,3.5,5.9c0.4,0.8,0.6,1.6,0.6,2.4c-1.2-2.8-2.9-5.3-4.8-7.6c-0.9-1.1-2.1-2-3.4-2.6
				c-0.6-0.2-1.3,0-1.7,0.5c-0.3,0.7-0.4,1.4-0.1,2.1c1.3,3.7,4.6,6.2,8.5,6.6c3.9,0.2,7.4-2.2,8.5-6c0.2-0.7,0.1-1.5-0.2-2.2
				c-0.3-0.5-1-0.8-1.6-0.6c-1.4,0.5-2.5,1.3-3.4,2.5C983.9,797.9,982.4,800.5,981.4,803.4z"/>
			<polygon class="st1" points="896.8,663 854,744.3 888.2,764.8 943.5,686.9 			"/>
			<path class="st6" d="M859.3,733.5l-1.4,2.2c0,0-47.8-8.1-52.6-1.1l76.3,46.4l14.4-26C881.5,753.3,869.2,746.6,859.3,733.5z"/>
			<g class="st13">
				<path class="st9" d="M883.3,758.3c1.2,1.4,1.2,3.5,0,4.9c-1.4,1.3-3.5,1.3-4.8,0c-1.3-1.5-1.3-3.7,0-5.2c1.5-1.2,3.7-0.9,5,0.5"
					/>
			</g>
			<g class="st13">
				<path class="st9" d="M881.6,780.9l3.5-6.3l-74.4-42.1c0,0-4.3-0.6-5.4,2L881.6,780.9z"/>
			</g>
			<path class="st0" d="M857.5,735.8c-0.2,0.4,1.6,1.7,2.7,4c1.1,2.3,1.1,4.5,1.6,4.5s1.2-2.4-0.2-5.2
				C860.1,736.3,857.6,735.4,857.5,735.8z"/>
			<path class="st0" d="M847.5,734.2c-0.3,0.3,0.9,1.9,1.2,4.3c0.3,2.4-0.3,4.2,0,4.4s1.9-1.8,1.4-4.7S847.7,733.9,847.5,734.2z"/>
			<path class="st0" d="M837.1,741c0.3,0.3,1.9-1.3,2.2-3.9c0.4-2.6-1-4.5-1.3-4.3c-0.4,0.2,0,2-0.2,4.1
				C837.7,739.1,836.8,740.8,837.1,741z"/>
			<polygon class="st14" points="937.2,678.3 937.2,845.1 948.6,845.1 948.6,665 			"/>
			<rect x="1102.1" y="652.2" class="st14" width="11" height="192.9"/>
			<rect x="948.6" y="678.3" class="st14" width="153.5" height="12.3"/>
			<linearGradient id="SVGID_5_" gradientUnits="userSpaceOnUse" x1="948.5673" y1="634.7088" x2="1118.4694" y2="634.7088">
				<stop  offset="6.425827e-07" style="stop-color:#A770EF"/>
				<stop  offset="0.5139" style="stop-color:#CF8BF3"/>
				<stop  offset="1" style="stop-color:#FDB99B"/>
			</linearGradient>
			<path class="st15" d="M955.5,617.3h156c3.8,0,7,3.1,7,7v21c0,3.8-3.1,7-7,7h-156c-3.8,0-7-3.1-7-7v-21
				C948.6,620.4,951.7,617.3,955.5,617.3z"/>
			<path class="st0" d="M1105.8,534.5c0,0,23.1,41,19.7,69.6c-3.4,28.6-9.7,28.6-9.7,28.6l-74.8-4.1l-10.7-90l18.2-10.2
				L1105.8,534.5z"/>
			<polygon class="st16" points="910.7,441.2 929.5,530.4 1017.8,538.6 1074.7,534.6 1054.1,514.9 1030.1,520 1021.6,433.8 			"/>
			<path class="st1" d="M1033.9,514.6c2.6,7.1,14.7,0.4,14.7,0.4l-0.8,12.7l-7.6,5.4c0,0,0,3.4,5,3.7c2.3,0.3,4.7,0.1,7-0.5l0.3,1.7
				c0.3,1.9,1.9,3.3,3.8,3.4c0.8,0.1,1.6-0.1,2.4-0.4c0,0,5.3,3.8,10.3,1.1c3.1-1.8,5.3-4.8,6.3-8.2l0.8-10.5l6.4-4.5
				c0,0,5.3-9.8-1.3-16.5c-3.6-3.5-8.8-4.6-13.5-3l-10.3,3.4c-2.6-0.3-5.2,0.4-7.3,1.9c-1.7,1.2-3.8,2.7-5.7,3.8
				C1044.4,508.7,1033.3,513.2,1033.9,514.6z"/>
			<path class="st2" d="M1057.8,525.1c0.1,0,0.3,0.8,0.5,2.1c0.3,1.8,0.3,3.6,0,5.3c-0.2,1-0.7,2-1.4,2.7c-0.6,0.6-1.3,1.1-2.2,1.3
				c-1.5,0.4-2.3-0.2-2.2-0.3c0.1-0.1,0.9,0.1,2-0.3c1.5-0.7,2.5-2,2.8-3.6c0.3-1.7,0.3-3.4,0.3-5.1
				C1057.5,526,1057.5,525.1,1057.8,525.1z"/>
			<path class="st2" d="M1048.6,515.1c0.3,2.1,0.3,4.3,0,6.4c0,2.1-0.3,4.3-0.9,6.3C1047.3,523.5,1047.6,519.2,1048.6,515.1
				L1048.6,515.1z"/>
			<path class="st2" d="M1066.3,528.2c0.3,0.8,0.5,1.6,0.5,2.5c0.2,2.1-0.1,4.2-1.1,6.1c-1.1,1.8-2.8,3.2-4.8,3.9
				c-1.5,0.6-2.4,0.7-2.5,0.5c0.7-0.5,1.4-0.8,2.2-1.2c1.7-0.8,3.2-2.1,4.2-3.7c0.9-1.7,1.3-3.6,1.3-5.6
				C1066.1,529.1,1066.1,528.2,1066.3,528.2z"/>
			<path class="st0" d="M1080.3,522.6c0.7-1.6,1.5-3.2,2.4-4.6c0.8-1.7,1.3-3.4,1.5-5.3c0.5-4.5-1.4-9-5-11.8
				c-1.5-1.1-3.1-2-4.9-2.5c-1.7-0.4-3.4-0.7-5.1-0.8c0.5-0.2,0.9-0.2,1.4-0.2c1.3,0,2.6,0.1,3.9,0.4c1.9,0.5,3.7,1.3,5.3,2.4
				c1.9,1.4,3.5,3.4,4.4,5.6c0.9,2.2,1.3,4.6,1,7c-0.2,2-0.9,3.9-1.9,5.6c-0.7,1.1-1.4,2.2-2.1,3.2
				C1080.6,522.3,1080.3,522.7,1080.3,522.6z"/>
			<path class="st17" d="M974.6,483.1c0,3.1-2.5,5.6-5.6,5.6s-5.6-2.5-5.6-5.6c0-3.1,2.5-5.6,5.6-5.6S974.6,480,974.6,483.1z"/>
			<path class="st0" d="M985.4,580.8l-0.5,0.3c-11.1,6.7-17.7,18.9-17.1,31.9l5.6,120.6l54.2,5.5l1.7-109.1l22.5-2.7l-37.5-42.1
				C1007,577,994.8,575.1,985.4,580.8z"/>
			<path class="st0" d="M882.8,684.9L955,540c0,0,10.2-15,24.6-14.3c14.3,0.7,103.6,29.3,103.6,29.3v73l-31.4-0.7l-70.9-6.8L933,713
				L882.8,684.9z"/>
			<path class="st16" d="M1055.2,627.4c-0.2-0.2-0.4-0.4-0.6-0.6l-1.6-1.9l-6.1-7.4l-22-27.2l0,0c-5.3-8.5-17.5-13.6-29.7-11.5
				c-6.3,1-12.2,3.9-16.9,8.2c-2.4,2.3-4.4,5-5.8,8c-1.3,3.1-2.1,6.5-2.4,9.9c-0.3,4.1-0.4,8.3-0.3,12.4c0,4.1,0,8.1,0.1,12.1
				c0.1,7.9,0.3,15.6,0.4,22.9c0.3,14.6,0.7,27.7,1.2,38.7c0.4,11,0.8,19.9,1.1,26.1c0.1,3,0.2,5.4,0.3,7.1c0,0.8,0,1.4,0,1.9
				c0,0.2,0,0.4,0,0.6c0-0.2,0-0.4,0-0.6c0-0.5,0-1.1-0.1-1.9c-0.1-1.7-0.3-4-0.5-7.1c-0.4-6.2-0.9-15.1-1.4-26.1
				c-0.5-11-1-24.1-1.4-38.7c-0.1-7.3-0.3-14.9-0.5-22.9c0-4,0-8-0.1-12.1c-0.1-4.2,0-8.3,0.3-12.5c0.3-3.5,1.1-6.9,2.5-10.2
				c1.4-3.1,3.5-6,6-8.3c4.8-4.5,10.9-7.4,17.4-8.5c12.5-2.1,25,3.1,30.4,12l0,0l21.7,27.3c2.5,3.2,4.5,5.8,5.9,7.6l1.5,2
				C1054.8,626.9,1055,627.1,1055.2,627.4z"/>
			<path class="st16" d="M1028.4,678.5c-0.3,0-0.5-15.2-0.5-33.9s0.2-33.9,0.5-33.9c0.3,0,0.5,15.2,0.5,33.9
				S1028.7,678.5,1028.4,678.5z"/>
			<path class="st16" d="M1100.3,564.8c-0.4-0.1-0.7-0.2-1-0.3l-2.8-1.1l-10.4-4.3c-8.8-3.6-21.1-8.3-34.8-13
				c-13.7-4.7-26.2-8.6-35.4-11.3l-10.8-3.1l-2.9-0.9c-0.4-0.1-0.7-0.2-1-0.4c0.4,0,0.7,0.1,1.1,0.2l3,0.7c2.6,0.6,6.3,1.6,10.9,2.8
				c9.3,2.5,21.8,6.3,35.5,11.1c13.7,4.8,26,9.6,34.7,13.4c4.4,1.9,7.9,3.4,10.3,4.5l2.8,1.3C1099.6,564.6,1100,564.7,1100.3,564.8z
				"/>
			<path class="st16" d="M1102.4,549.2c-2.2,0.1-4.4,0-6.7-0.3c-4.1-0.2-9.7-0.5-16-0.7l-16-0.3c-2.2,0-4.4-0.1-6.6-0.4
				c0.6-0.2,1.2-0.2,1.9-0.2c1.2,0,2.8-0.1,4.9-0.1c4.1,0,9.8-0.1,16.1,0c6.3,0.1,12,0.5,16,1c2,0.2,3.7,0.4,4.8,0.6
				C1101.3,548.9,1101.9,549,1102.4,549.2z"/>
			<path class="st16" d="M941.8,694.6c-0.1,0-2.1-2.6-5.7-6.5c-2.1-2.3-4.4-4.4-6.8-6.4c-2.9-2.4-6-4.6-9.3-6.6
				c-3.3-1.9-6.7-3.7-10.2-5.1c-2.9-1.2-5.8-2.2-8.9-3c-5.1-1.4-8.4-1.9-8.4-2c0.8,0,1.6,0,2.3,0.2c0.9,0.1,1.8,0.2,2.7,0.4
				c1.1,0.2,2.3,0.4,3.5,0.7c3.1,0.7,6.1,1.7,9,2.8c3.6,1.5,7,3.2,10.4,5.1c3.3,2,6.4,4.3,9.4,6.8c2.4,2,4.6,4.3,6.7,6.6
				c0.9,1,1.7,2,2.3,2.8c0.6,0.7,1.1,1.4,1.6,2.2C941.1,693.2,941.5,693.9,941.8,694.6z"/>
			<path class="st16" d="M1030,722c0,0.2-3-1.4-8-3.5c-13-5.3-27-7.6-41.1-6.7c-5.4,0.4-8.7,1-8.7,0.8c0.7-0.3,1.5-0.4,2.3-0.6
				c2.1-0.4,4.2-0.7,6.3-0.9c7-0.7,14.2-0.4,21.1,0.7c7,1.1,13.8,3.2,20.3,6c2,0.9,3.9,1.8,5.7,2.9
				C1028.8,721,1029.4,721.5,1030,722z"/>
		</g>
		<g id="freepik--Floor--inject-5_2_">
			<path class="st0" d="M1258.9,845.1c0,0.3-270.3,0.5-603.7,0.5s-603.8-0.2-603.8-0.5s270.3-0.5,603.8-0.5
				S1258.9,844.8,1258.9,845.1z"/>
		</g>
	</g>
	<g>
		<polygon class="st14" points="1250,392.9 1257.9,409 1275.7,411.6 1262.8,424.1 1265.9,441.9 1250,433.5 1234.1,441.9 
			1237.1,424.1 1224.2,411.6 1242,409 		"/>
		<g>
			<path class="st18" d="M923.7,198.5l-5.2,0.9l-14-14.1l-1.7-10.5c0,0-8.2,0.8-5,14.4c3.2,13.5,1.6,10.2,1.6,10.2
				s-17.2,2.8-18.4,4.6c-0.9,1.3,1.4,18.4,2.7,27.7c0.5,4.6,4.1,8.3,8.8,8.9c0.6,0.1,1.2,0.1,1.9,0c4.3-0.7,25.6-7.7,25.6-7.7
				l9.1-1.5L923.7,198.5z"/>
			<polygon class="st18" points="938.2,193.2 940.8,229.5 931.8,231 926.1,195.9 			"/>
		</g>
		<g id="freepik--background-complete--inject-3_2_">
			<path class="st18" d="M215.3,210.4L215.3,210.4c-35.1,0-63.6-28.5-63.6-63.6l0,0l0,0c0-35.1,28.5-63.6,63.6-63.6l0,0
				c35.1,0,63.6,28.5,63.6,63.6l0,0C278.8,181.9,250.4,210.4,215.3,210.4L215.3,210.4z"/>
			<polygon class="st19" points="300.4,20.2 309.1,36.1 325.1,44.8 309.1,53.5 300.4,69.4 291.7,53.5 275.8,44.8 291.7,36.1 			"/>
			<polygon class="st18" points="663.5,451.4 670,463.4 682,469.9 670,476.4 663.5,488.4 657,476.4 645,469.9 657,463.4 			"/>
			<polygon class="st14" points="206.3,11.9 209.2,17.3 214.6,20.2 209.2,23.2 206.3,28.5 203.3,23.2 197.9,20.2 203.3,17.3 			"/>
			<path class="st14" d="M90.6,526.6c7-3.2,11.4-10.3,11.2-18c0-10.6-8.3-19.2-18.2-19.1c-10,0.1-18,8.8-17.9,19.4
				c-0.1,7.8,4.6,14.8,11.7,17.8c-27.7,4.5-26.1,34.7-26.1,34.7l65.7-0.6C117.1,560.9,118.2,530.4,90.6,526.6z"/>
			<path class="st18" d="M720.6,725.4c-1.1-5.5-6.4-9.2-12-8.1c-4.3,0.8-7.6,4.3-8.2,8.7c-0.8-5.6-6-9.5-11.5-8.7
				c-4.3,0.6-7.8,3.9-8.6,8.2c-0.5,3.5,0.4,7.1,2.5,10c2.1,2.8,4.5,5.4,7.2,7.6c3.7,3.3,7.1,6.3,10.7,9.6c3.7-3.3,6.7-6.4,10.4-9.7
				c2.7-2.2,5.1-4.8,7.1-7.7C720.2,732.5,721.1,728.9,720.6,725.4z"/>
			<path class="st14" d="M763.4,334.3l7-1.4l11.1-24.5l-2.8-14c0,0,10.7-2.8,13.1,15.8c2.4,18.6,2.8,13.7,2.8,13.7
				s23.1-4.5,25.4-2.9c1.7,1.2,6.9,24,9.6,36.4c1.5,6.1-1.3,12.5-6.8,15.5c-0.8,0.4-1.6,0.7-2.4,0.8c-5.8,1.2-36.1,2.3-36.1,2.3
				l-12.2,2.4L763.4,334.3z"/>
			<polygon class="st14" points="742.5,334.4 756.3,381.7 768.4,379.3 759,332.2 			"/>
			<path class="st9" d="M217.7,123.4c9.1,0,10.2,0.1,13.8,0.3c2.2,0,4.3,0.4,6.3,1.2c1.5,0.6,2.8,1.4,3.9,2.6c1.1,1.1,2,2.5,2.5,3.9
				c0.7,2,1.1,4.2,1.1,6.3c0.1,3.6,0.2,4.7,0.1,13.8c-0.1,9.1-0.1,10.2-0.3,13.8c0,2.2-0.4,4.3-1.2,6.3c-0.5,1.5-1.4,2.8-2.6,3.9
				c-1.1,1.1-2.4,2-3.9,2.5c-2,0.7-4.2,1.1-6.3,1.1c-3.5,0.2-4.7,0.2-13.8,0.1c-9.1-0.1-10.2-0.1-13.8-0.3c-2.2,0-4.3-0.4-6.3-1.2
				c-1.5-0.6-2.8-1.4-3.9-2.6c-1.1-1.1-1.9-2.5-2.4-4c-0.7-2-1.1-4.2-1.2-6.3c-0.1-3.6-0.2-4.7-0.1-13.8c0-9.1,0.1-10.2,0.3-13.8
				c0.1-2.2,0.5-4.3,1.2-6.3c1.2-3,3.5-5.3,6.5-6.4c2-0.7,4.2-1.1,6.3-1.2C207.5,123.2,208.7,123.2,217.7,123.4 M217.8,117.1
				c-9.3-0.1-10.4,0-14.1,0.1c-2.8,0-5.6,0.5-8.3,1.5c-4.6,1.8-8.2,5.3-10,9.9c-1,2.7-1.6,5.5-1.6,8.3c-0.2,3.6-0.2,4.8-0.3,14.1
				c-0.1,9.3,0,10.4,0.1,14c0,2.8,0.5,5.6,1.5,8.3c0.8,2.3,2.2,4.5,4,6.2c1.7,1.7,3.7,3.1,6,4c2.7,1,5.5,1.6,8.3,1.6
				c3.6,0.2,4.8,0.2,14.1,0.3c9.3,0.1,10.4,0,14-0.1c2.8,0,5.6-0.5,8.3-1.5c2.3-0.8,4.3-2.2,6.1-3.9c1.7-1.7,3.1-3.7,4-6
				c1-2.7,1.6-5.5,1.6-8.3c0.2-3.6,0.2-4.8,0.3-14.1c0.1-9.3,0-10.4,0-14c0-2.8-0.5-5.6-1.5-8.3c-0.8-2.3-2.2-4.3-3.9-6
				c-1.7-1.7-3.7-3.1-6-4c-2.7-1-5.5-1.6-8.3-1.6c-3.6-0.2-4.8-0.2-14.1-0.3"/>
			<path class="st9" d="M217.6,133.8c-9.7-0.1-17.5,7.7-17.6,17.4c-0.1,9.7,7.7,17.5,17.4,17.6c9.7,0.1,17.5-7.7,17.6-17.4
				C235.1,141.8,227.3,133.9,217.6,133.8 M217.5,162.7c-6.3,0-11.3-5.2-11.3-11.5c0-6.3,5.2-11.3,11.5-11.3
				c6.3,0,11.3,5.2,11.3,11.4C229,157.7,223.9,162.8,217.5,162.7C217.6,162.7,217.6,162.7,217.5,162.7"/>
			<path class="st9" d="M239.9,133.3c0,2.3-1.9,4.1-4.1,4.1c-2.3,0-4.1-1.9-4.1-4.1c0-2.3,1.9-4.1,4.1-4.1
				C238.1,129.1,239.9,131,239.9,133.3C239.9,133.2,239.9,133.2,239.9,133.3"/>
		</g>
		<polygon class="st19" points="1207.2,258.6 1212.4,269.3 1224.2,271 1215.7,279.3 1217.7,291 1207.2,285.5 1196.7,291 
			1198.7,279.3 1190.2,271 1201.9,269.3 		"/>
		<polygon class="st19" points="683.7,389.7 687.1,396.6 694.7,397.7 689.2,403 690.5,410.6 683.7,407 676.9,410.6 678.2,403 
			672.8,397.7 680.3,396.6 		"/>
	</g>
	<g>
		<g>
			<path class="st6" d="M692.4,316.1L692.4,316.1c-37.4,18.2-82.6,2.6-100.8-34.8l0,0c-18.2-37.4-2.6-82.6,34.8-100.8l0,0
				c37.4-18.2,82.6-2.6,100.8,34.8c0,0,0,0,0,0l0,0C745.4,252.7,729.8,297.9,692.4,316.1C692.4,316.1,692.4,316.1,692.4,316.1z"/>
			<path class="st9" d="M677.9,215.3c10.9,5.6,12.2,6.3,16.5,8.8c2.6,1.4,4.9,3.2,6.8,5.3c1.4,1.6,2.5,3.5,3.1,5.5
				c0.7,2,0.9,4.2,0.6,6.3c-0.4,2.9-1.2,5.7-2.5,8.3c-2,4.4-2.7,5.7-8.3,16.6s-6.4,12.2-8.8,16.5c-1.4,2.6-3.2,4.9-5.3,6.8
				c-1.6,1.5-3.4,2.5-5.5,3.1c-2,0.7-4.2,0.9-6.3,0.6c-2.9-0.4-5.7-1.2-8.3-2.5c-4.3-2-5.7-2.6-16.6-8.3
				c-10.9-5.7-12.2-6.3-16.5-8.8c-2.6-1.4-4.9-3.2-6.9-5.3c-1.4-1.6-2.5-3.4-3.1-5.5c-0.6-2-0.8-4.2-0.4-6.3
				c0.3-2.9,1.2-5.7,2.5-8.3c2-4.4,2.7-5.7,8.3-16.6c5.6-10.9,6.3-12.2,8.8-16.5c1.4-2.6,3.2-4.9,5.3-6.9c3.2-2.9,7.5-4.2,11.8-3.7
				c2.9,0.4,5.7,1.2,8.3,2.5c4.3,2,5.7,2.7,16.6,8.3 M681.9,207.8c-11.1-5.7-12.5-6.4-17-8.5c-3.4-1.7-7.1-2.8-10.8-3.3
				c-6.6-0.7-13.1,1.4-18.1,5.8c-2.8,2.6-5.2,5.6-7.1,9c-2.4,4.3-3.2,5.6-9,16.7c-5.7,11.1-6.4,12.5-8.5,16.9
				c-1.7,3.4-2.8,7.1-3.3,10.8c-0.4,3.3-0.1,6.7,1,9.9c1,3.1,2.6,6,4.8,8.4c2.6,2.8,5.6,5.2,9,7.1c4.2,2.4,5.6,3.2,16.7,9
				c11.1,5.7,12.5,6.4,16.9,8.5c3.4,1.7,7.1,2.8,10.8,3.3c3.3,0.4,6.6,0.1,9.7-1c3.1-1,6-2.6,8.4-4.8c2.8-2.6,5.2-5.6,7-9
				c2.5-4.3,3.2-5.6,9-16.7c5.7-11.1,6.4-12.5,8.6-16.9c1.7-3.4,2.8-7.1,3.3-10.8c0.4-3.3,0-6.5-1-9.7c-0.9-3.1-2.6-6-4.8-8.4
				c-2.6-2.8-5.6-5.2-9-7.1c-4.3-2.4-5.6-3.2-16.7-9"/>
			<path class="st9" d="M671.4,227.8c-11.6-6-25.8-1.5-31.8,10.1c-6,11.6-1.5,25.8,10.1,31.8c11.6,6,25.8,1.5,31.8-10.1
				C687.5,248,683,233.8,671.4,227.8 M653.6,262.5c-7.5-3.9-10.4-13.2-6.5-20.7c3.9-7.5,13.2-10.4,20.7-6.5
				c7.5,3.9,10.4,13.1,6.6,20.7C670.4,263.4,661.2,266.4,653.6,262.5C653.6,262.5,653.6,262.5,653.6,262.5"/>
			<path class="st9" d="M698.6,240.8c-1.4,2.7-4.7,3.8-7.4,2.3c-2.7-1.4-3.8-4.7-2.3-7.4c1.4-2.7,4.7-3.7,7.4-2.4
				C698.9,234.7,700,238,698.6,240.8C698.6,240.7,698.6,240.7,698.6,240.8"/>
		</g>
		<g>
			<linearGradient id="SVGID_6_" gradientUnits="userSpaceOnUse" x1="734.1976" y1="480.1621" x2="838.2281" y2="480.1621">
				<stop  offset="6.425827e-07" style="stop-color:#A770EF"/>
				<stop  offset="0.5139" style="stop-color:#CF8BF3"/>
				<stop  offset="1" style="stop-color:#FDB99B"/>
			</linearGradient>
			<path class="st20" d="M767.7,528.7L767.7,528.7c-26.8-10.2-40.3-40.2-30-67.1c0,0,0-0.1,0-0.1l0,0c10.2-26.8,40.2-40.3,67.1-30
				c0,0,0,0,0.1,0l0,0c26.8,10.2,40.3,40.2,30,67.1c0,0,0,0.1,0,0.1l0,0C824.6,525.5,794.5,539,767.7,528.7
				C767.7,528.8,767.7,528.8,767.7,528.7z"/>
			<g>
				<path class="st9" d="M783.3,457.6c7.4-0.9,8.2-1,11.2-1.2c1.7-0.2,3.5-0.1,5.2,0.3c1.3,0.3,2.4,0.9,3.4,1.7
					c1,0.8,1.9,1.8,2.5,2.9c0.8,1.6,1.3,3.2,1.6,5c0.5,2.9,0.6,3.8,1.6,11.1c0.9,7.4,1,8.2,1.2,11.2c0.2,1.7,0.1,3.5-0.3,5.2
					c-0.3,1.3-0.8,2.4-1.7,3.4c-0.8,1-1.8,1.9-2.9,2.5c-1.6,0.8-3.3,1.3-5,1.6c-2.8,0.5-3.8,0.6-11.1,1.6c-7.4,0.9-8.2,1-11.2,1.2
					c-1.8,0.2-3.5,0.1-5.2-0.3c-1.3-0.3-2.4-0.9-3.4-1.7c-1-0.8-1.8-1.8-2.4-3c-0.8-1.6-1.4-3.2-1.6-5c-0.5-2.9-0.6-3.8-1.6-11.1
					c-0.9-7.4-1-8.2-1.2-11.2c-0.2-1.8-0.1-3.5,0.3-5.2c0.6-2.5,2.3-4.7,4.6-5.9c1.6-0.8,3.2-1.4,5-1.6
					C775.1,458.5,776.1,458.4,783.3,457.6 M782.8,452.5c-7.5,0.9-8.4,1.1-11.3,1.6c-2.3,0.3-4.5,1-6.5,2.1c-3.5,1.9-6.1,5.2-7,9.1
					c-0.5,2.2-0.7,4.6-0.4,6.9c0.2,2.9,0.3,3.9,1.3,11.4c0.9,7.5,1.1,8.4,1.5,11.3c0.3,2.3,1,4.5,2.1,6.5c0.9,1.8,2.2,3.4,3.9,4.6
					c1.5,1.2,3.3,2.1,5.3,2.6c2.2,0.5,4.6,0.7,6.9,0.4c2.9-0.2,3.9-0.3,11.4-1.3c7.5-0.9,8.4-1.1,11.3-1.5c2.3-0.3,4.5-1,6.5-2.1
					c1.8-0.9,3.3-2.2,4.5-3.8c1.2-1.5,2.1-3.3,2.6-5.3c0.5-2.3,0.7-4.6,0.4-6.9c-0.2-3-0.3-3.9-1.3-11.4c-0.9-7.5-1.1-8.4-1.5-11.3
					c-0.3-2.3-1-4.5-2.1-6.5c-0.9-1.7-2.2-3.3-3.8-4.5c-1.5-1.2-3.3-2.1-5.3-2.6c-2.2-0.5-4.6-0.7-6.9-0.4c-3,0.2-3.9,0.3-11.4,1.3"
					/>
				<path class="st9" d="M784.4,466c-7.8,1-13.4,8.1-12.4,15.9c1,7.8,8.1,13.4,15.9,12.4c7.8-1,13.4-8.1,12.4-15.9
					C799.4,470.6,792.3,465,784.4,466 M787.4,489.4c-5.1,0.6-9.7-3-10.3-8.1c-0.6-5.1,3-9.7,8.1-10.3c5.1-0.6,9.7,3,10.3,8
					C796.1,484.1,792.5,488.7,787.4,489.4C787.4,489.4,787.4,489.4,787.4,489.4"/>
				<path class="st9" d="M789.5,479.8c0.2,1.8-1.1,3.5-2.9,3.7c-1.8,0.2-3.5-1.1-3.7-2.9c-0.2-1.8,1.1-3.5,2.9-3.7
					C787.6,476.6,789.3,477.9,789.5,479.8C789.5,479.7,789.5,479.7,789.5,479.8"/>
				<path class="st9" d="M801.8,463.1c0.2,1.8-1.1,3.5-2.9,3.7c-1.8,0.2-3.5-1.1-3.7-2.9c-0.2-1.8,1.1-3.5,2.9-3.7
					C799.9,460,801.6,461.3,801.8,463.1C801.8,463.1,801.8,463.1,801.8,463.1"/>
			</g>
		</g>
		<g>
			<path class="st6" d="M28.4,183L28.4,183c-16,0-29-13-29-29l0,0c0-16,13-29,29-29h0l0,0c16,0,29,13,29,29l0,0
				C57.4,170,44.4,183,28.4,183L28.4,183z"/>
			<g>
				<path class="st9" d="M33.5,144.1c3.2,1.7,3.6,1.9,4.8,2.6c0.8,0.4,1.4,0.9,2,1.6c0.4,0.5,0.7,1,0.9,1.6c0.2,0.6,0.3,1.2,0.2,1.8
					c-0.1,0.8-0.4,1.7-0.7,2.4c-0.6,1.3-0.8,1.7-2.4,4.9c-1.7,3.2-1.9,3.6-2.6,4.8c-0.4,0.8-0.9,1.4-1.6,2c-0.5,0.4-1,0.7-1.6,0.9
					c-0.6,0.2-1.2,0.3-1.8,0.2c-0.9-0.1-1.7-0.4-2.4-0.7c-1.3-0.6-1.7-0.8-4.9-2.4s-3.6-1.9-4.8-2.6c-0.8-0.4-1.4-0.9-2-1.6
					c-0.4-0.5-0.7-1-0.9-1.6c-0.2-0.6-0.2-1.2-0.1-1.8c0.1-0.9,0.4-1.7,0.7-2.4c0.6-1.3,0.8-1.7,2.4-4.9c1.7-3.2,1.9-3.6,2.6-4.8
					c0.4-0.8,0.9-1.4,1.6-2c0.9-0.8,2.2-1.2,3.5-1.1c0.9,0.1,1.7,0.4,2.4,0.7C29.9,142.2,30.3,142.4,33.5,144.1 M34.6,141.9
					c-3.3-1.7-3.7-1.9-5-2.5c-1-0.5-2.1-0.8-3.2-1c-1.9-0.2-3.9,0.4-5.3,1.7c-0.8,0.8-1.5,1.6-2.1,2.6c-0.7,1.3-0.9,1.7-2.6,4.9
					s-1.9,3.7-2.5,5c-0.5,1-0.8,2.1-1,3.2c-0.1,1,0,2,0.3,2.9c0.3,0.9,0.8,1.8,1.4,2.5c0.8,0.8,1.6,1.5,2.6,2.1
					c1.2,0.7,1.7,0.9,4.9,2.6c3.3,1.7,3.7,1.9,5,2.5c1,0.5,2.1,0.8,3.2,1c1,0.1,1.9,0,2.8-0.3c0.9-0.3,1.8-0.8,2.5-1.4
					c0.8-0.8,1.5-1.6,2.1-2.6c0.7-1.3,0.9-1.7,2.6-4.9c1.7-3.3,1.9-3.7,2.5-5c0.5-1,0.8-2.1,1-3.2c0.1-1,0-1.9-0.3-2.8
					c-0.3-0.9-0.8-1.8-1.4-2.5c-0.8-0.8-1.6-1.5-2.6-2.1C38.3,143.9,37.9,143.7,34.6,141.9"/>
				<path class="st9" d="M31.6,147.8c-3.4-1.8-7.6-0.4-9.4,3c-1.8,3.4-0.4,7.6,3,9.4c3.4,1.8,7.6,0.4,9.4-3
					C36.3,153.7,35,149.5,31.6,147.8 M26.3,158c-2.2-1.1-3.1-3.9-1.9-6.1c1.1-2.2,3.9-3.1,6.1-1.9c2.2,1.1,3.1,3.9,1.9,6.1
					C31.3,158.3,28.5,159.1,26.3,158C26.3,158,26.3,158,26.3,158"/>
				<path class="st9" d="M39.5,151.6c-0.4,0.8-1.4,1.1-2.2,0.7c-0.8-0.4-1.1-1.4-0.7-2.2c0.4-0.8,1.4-1.1,2.2-0.7
					C39.6,149.8,39.9,150.8,39.5,151.6C39.5,151.6,39.5,151.6,39.5,151.6"/>
			</g>
		</g>
		<g>
			<linearGradient id="SVGID_7_" gradientUnits="userSpaceOnUse" x1="70.3313" y1="696.3992" x2="207.0021" y2="696.3992">
				<stop  offset="6.425827e-07" style="stop-color:#A770EF"/>
				<stop  offset="0.5139" style="stop-color:#CF8BF3"/>
				<stop  offset="1" style="stop-color:#FDB99B"/>
			</linearGradient>
			<path class="st21" d="M154.4,762.8L154.4,762.8c-36.7,8.7-73.5-13.9-82.2-50.6l0,0c-8.7-36.7,13.9-73.5,50.6-82.3c0,0,0,0,0.1,0
				l0,0c36.7-8.7,73.5,13.9,82.3,50.6c0,0,0,0,0,0l0,0c8.7,36.7-13.9,73.5-50.6,82.3C154.5,762.8,154.4,762.8,154.4,762.8z"/>
			<path class="st9" d="M131.5,666c9.7-2.3,10.9-2.6,14.8-3.3c2.3-0.5,4.7-0.6,7.1-0.4c1.7,0.2,3.4,0.8,4.8,1.7
				c1.5,0.9,2.7,2.1,3.7,3.5c1.3,2,2.3,4.2,2.9,6.5c1.1,3.8,1.4,5,3.7,14.7c2.3,9.7,2.5,10.9,3.3,14.8c0.5,2.3,0.6,4.7,0.4,7.1
				c-0.2,1.7-0.8,3.4-1.7,4.8c-0.9,1.5-2.1,2.8-3.5,3.7c-2,1.3-4.2,2.3-6.5,2.9c-3.7,1.1-4.9,1.4-14.7,3.7
				c-9.7,2.3-10.9,2.6-14.8,3.3c-2.3,0.5-4.7,0.6-7.1,0.4c-1.7-0.2-3.4-0.8-4.8-1.7c-1.5-0.9-2.7-2.2-3.6-3.7
				c-1.3-2-2.3-4.2-2.9-6.5c-1.1-3.8-1.4-4.9-3.7-14.7c-2.3-9.7-2.6-10.9-3.3-14.8c-0.5-2.3-0.6-4.7-0.4-7.1
				c0.5-3.5,2.4-6.6,5.3-8.6c2-1.3,4.2-2.3,6.5-2.9c3.7-1.1,5-1.4,14.7-3.7 M130,659.3c-9.9,2.4-11.1,2.7-15,3.8
				c-3,0.7-5.9,2-8.4,3.7c-4.4,3.1-7.4,7.8-8.1,13.2c-0.4,3.1-0.3,6.2,0.4,9.3c0.8,3.9,1,5.2,3.4,15.1s2.7,11.1,3.7,15
				c0.7,3,2,5.9,3.7,8.4c1.5,2.3,3.5,4.2,5.8,5.6c2.3,1.4,4.8,2.3,7.4,2.7c3.1,0.4,6.2,0.3,9.3-0.4c3.9-0.7,5.2-1,15.1-3.4
				s11.1-2.7,15-3.7c3-0.8,5.9-2,8.4-3.7c2.2-1.5,4.1-3.4,5.5-5.7c1.4-2.3,2.3-4.8,2.7-7.4c0.4-3.1,0.2-6.2-0.4-9.3
				c-0.7-3.9-1-5.2-3.4-15.1c-2.4-9.9-2.7-11.1-3.7-15c-0.8-3-2-5.9-3.7-8.4c-1.5-2.2-3.5-4.1-5.7-5.4c-2.2-1.4-4.8-2.3-7.4-2.7
				c-3.1-0.4-6.2-0.3-9.3,0.4c-3.9,0.8-5.2,1-15.1,3.4"/>
			<path class="st9" d="M134.2,677.2c-10.3,2.5-16.7,12.8-14.2,23.2c2.5,10.3,12.8,16.7,23.2,14.2c10.3-2.5,16.7-12.8,14.2-23.2
				C154.9,681.1,144.5,674.7,134.2,677.2 M141.6,708c-6.7,1.6-13.4-2.6-15-9.3s2.6-13.4,9.3-15c6.7-1.6,13.4,2.6,15,9.3
				C152.5,699.7,148.3,706.4,141.6,708C141.6,708,141.6,708,141.6,708"/>
			<path class="st9" d="M157.8,670.8c0.6,2.4-0.9,4.8-3.3,5.4c-2.4,0.6-4.8-0.9-5.4-3.3c-0.6-2.4,0.9-4.8,3.3-5.4
				C154.8,666.9,157.2,668.3,157.8,670.8C157.8,670.7,157.8,670.8,157.8,670.8"/>
		</g>
		<g>
			<path class="st16" d="M674.3,662.9L674.3,662.9c-16.5-8.5-23-28.8-14.4-45.3l0,0c8.5-16.5,28.8-23,45.4-14.5c0,0,0,0,0,0l0,0
				c16.5,8.5,23,28.8,14.4,45.4c0,0,0,0,0,0l0,0C711.1,665,690.8,671.4,674.3,662.9C674.3,662.9,674.3,662.9,674.3,662.9z"/>
			<path class="st9" d="M696.7,619.5c4.4,2.3,4.9,2.5,6.6,3.5c1,0.5,2,1.3,2.7,2.1c0.6,0.6,1,1.4,1.3,2.2c0.3,0.8,0.3,1.7,0.2,2.5
				c-0.1,1.2-0.5,2.3-1,3.3c-0.8,1.8-1.1,2.3-3.3,6.7c-2.3,4.4-2.6,4.9-3.5,6.6c-0.5,1-1.3,2-2.1,2.7c-0.6,0.6-1.4,1-2.2,1.3
				c-0.8,0.3-1.7,0.4-2.5,0.3c-1.2-0.1-2.3-0.5-3.3-1c-1.7-0.8-2.3-1.1-6.7-3.3c-4.4-2.3-4.9-2.5-6.6-3.5c-1-0.5-2-1.3-2.8-2.1
				c-0.6-0.6-1-1.4-1.3-2.2c-0.2-0.8-0.3-1.7-0.2-2.5c0.1-1.2,0.5-2.3,1-3.3c0.8-1.8,1.1-2.3,3.3-6.7c2.3-4.4,2.5-4.9,3.5-6.6
				c0.6-1,1.3-2,2.1-2.8c1.3-1.1,3-1.7,4.7-1.5c1.2,0.1,2.3,0.5,3.3,1C691.8,617,692.4,617.3,696.7,619.5 M698.3,616.6
				c-4.5-2.3-5-2.6-6.8-3.4c-1.4-0.7-2.8-1.1-4.3-1.3c-2.6-0.3-5.3,0.6-7.3,2.3c-1.1,1-2.1,2.2-2.8,3.6c-1,1.7-1.3,2.3-3.6,6.7
				c-2.3,4.5-2.6,5-3.4,6.8c-0.7,1.4-1.1,2.8-1.3,4.3c-0.2,1.3,0,2.7,0.4,4c0.4,1.3,1,2.4,1.9,3.4c1,1.1,2.2,2.1,3.6,2.8
				c1.7,1,2.3,1.3,6.7,3.6s5,2.6,6.8,3.4c1.4,0.7,2.8,1.1,4.3,1.3c1.3,0.2,2.6,0,3.9-0.4c1.3-0.4,2.4-1,3.4-1.9
				c1.1-1,2.1-2.3,2.8-3.6c1-1.7,1.3-2.3,3.6-6.7c2.3-4.5,2.6-5,3.4-6.8c0.7-1.4,1.1-2.8,1.3-4.3c0.2-1.3,0-2.6-0.4-3.9
				c-0.4-1.3-1-2.4-1.9-3.4c-1-1.1-2.2-2.1-3.6-2.8c-1.7-1-2.3-1.3-6.7-3.6"/>
			<path class="st9" d="M694.1,624.6c-4.6-2.4-10.4-0.6-12.8,4.1c-2.4,4.6-0.6,10.4,4.1,12.8c4.6,2.4,10.4,0.6,12.8-4.1
				C700.6,632.7,698.8,627,694.1,624.6 M687,638.5c-3-1.6-4.2-5.3-2.6-8.3c1.6-3,5.3-4.2,8.3-2.6c3,1.6,4.2,5.3,2.6,8.3
				C693.7,638.9,690,640,687,638.5C687,638.5,687,638.5,687,638.5"/>
			<path class="st9" d="M705,629.8c-0.6,1.1-1.9,1.5-3,0.9c-1.1-0.6-1.5-1.9-0.9-3c0.6-1.1,1.9-1.5,3-0.9
				C705.1,627.3,705.6,628.7,705,629.8C705,629.8,705,629.8,705,629.8"/>
		</g>
	</g>
	<g id="freepik--Device--inject-3_3_">
		<path class="st0" d="M571.5,848.5l-255.9-0.1c-30.7,0-55.7-24.9-55.7-55.7l0,0l0.1-641.5c0-30.7,24.9-55.7,55.7-55.7
			c0,0,0.1,0,0.1,0l255.9,0.1c30.7,0,55.7,24.9,55.7,55.7l-0.1,641.3c0.1,30.7-24.8,55.7-55.6,55.8
			C571.6,848.5,571.5,848.5,571.5,848.5z"/>
		<path class="st0" d="M626.6,334.1h-5.9c-3,0-5.4-2.4-5.4-5.4v-76.1c0-3,2.4-5.4,5.4-5.4h5.9c3,0,5.4,2.4,5.4,5.4v76.1
			C632,331.7,629.6,334.1,626.6,334.1z"/>
		<path class="st9" d="M571.4,118.2h-49.6c-6.8,0.2-12.2,5.8-12,12.5v9c0.2,6.8-5.2,12.4-12,12.6c0,0,0,0,0,0H401
			c-6.8-0.2-12.2-5.8-12-12.6c0,0,0,0,0,0v-9.1c0.1-6.8-5.2-12.4-12-12.6h-17.5H316c-21.5-0.1-39,17.4-39.1,38.9c0,0,0,0.1,0,0.1
			l-0.1,626.1c0,21.5,17.4,39,39,39l0,0l255.4,0.1c21.5,0,39-17.4,39-39l0,0l0.1-626.1C610.3,135.7,592.9,118.3,571.4,118.2z"/>
		<path class="st0" d="M575.1,169.1c0,0.2-6.5,0.4-14.4,0.4s-14.4,0-14.4-0.2c0-0.2,6.4-0.4,14.4-0.4S575.1,168.9,575.1,169.1z"/>
		<path class="st0" d="M575.2,176.4c0,0.2-6.4,0.4-14.4,0.4c-8,0.1-14.4,0-14.4-0.2c0-0.2,6.5-0.4,14.4-0.4
			C568.7,176.2,575.2,176.3,575.2,176.4z"/>
		<path class="st0" d="M575.2,183.8c0,0.2-6.5,0.4-14.4,0.4s-14.4,0-14.4-0.2s6.5-0.4,14.4-0.4C568.8,183.5,575.2,183.6,575.2,183.8
			z"/>
		<path class="st0" d="M303.7,191h0.8h2.1l7.8-0.2l-0.2,0.2c0-1.7,0-3.6-0.1-5.6c0-1,0-2,0-3.2c0.3-1.3,1.3-2.2,2.6-2.4
			c1.3,0,2.4,0,3.7,0c1.5,0.2,2.5,1.5,2.5,3c0,2.6,0,5.4,0.1,8.2l-0.4-0.4h9.8L332,191c0-3.9,0-8-0.1-12.2c0-1,0-2.1,0-3.1
			c-0.1-0.9-0.6-1.8-1.4-2.3l-4.3-4.2l-4.1-4.1l-2-2c-0.7-0.7-1.2-1.4-2-1.5c-0.8-0.2-1.6,0-2.2,0.4c-0.6,0.5-1.2,1.2-1.9,1.9
			l-3.5,3.5c-2.2,2.3-4.5,4.4-6.2,6.4c-0.5,1.2-0.7,2.5-0.5,3.7c0,1.2,0,2.4,0,3.4c0,2.1,0,4,0,5.6c0,1.6,0,2.6,0,3.5
			c0,0.4,0,0.9,0,1.3c0-0.4,0-0.8,0-1.2c0-0.9,0-2.1,0-3.5c0-1.4,0-3.5-0.1-5.6c0-1.1,0-2.3,0-3.5c0-0.6,0-1.3,0-1.9
			c0-0.7,0.2-1.4,0.5-2c1.9-2.2,4-4.2,6.2-6.5l3.5-3.6c0.6-0.6,1.1-1.2,1.9-1.9c0.8-0.6,1.9-0.8,2.8-0.6c0.9,0.3,1.7,0.9,2.4,1.7
			l2,2l4.1,4.1l4.3,4.2c0.4,0.4,0.8,0.8,1.1,1.2c0.3,0.5,0.5,1.1,0.5,1.7c0,1,0,2.1,0,3.1c0,4.2,0,8.3,0.1,12.2v0.4h-0.4H323h-0.7
			v-0.4c0-2.8,0-5.6,0-8.2c0-1.2-0.8-2.2-2-2.4c-1.1,0-2.5,0-3.6,0c-1,0.1-1.9,0.9-2.1,1.9c0,1,0,2.1,0,3.1c0,2,0,3.9,0,5.6v0.2
			h-0.2h-7.9h-2.1C304.2,191.3,304,191.2,303.7,191z"/>
		<path class="st16" d="M472.6,680.3c-0.9,0.1-1.8,0.2-2.7,0.2l-7.3,0.1c-6.2,0.1-14.7,0.1-24.1,0.1c-9.4,0-18,0-24.1-0.1l-7.3-0.1
			c-0.9,0-1.8,0-2.7-0.2c0.9-0.2,1.8-0.2,2.7-0.2l7.3-0.2c6.2,0,14.7-0.1,24.1-0.1c9.4,0,17.9,0,24.1,0.1l7.3,0.2
			C470.8,680,471.7,680.1,472.6,680.3z"/>
		<path class="st16" d="M579.8,697c0,0.3-39.3,0.5-87.7,0.5s-87.7-0.2-87.7-0.5s39.3-0.5,87.7-0.5S579.8,696.8,579.8,697z"/>
		<path class="st16" d="M525,712.9c0,0.3-27,0.5-60.3,0.5s-60.3-0.2-60.3-0.5s27-0.5,60.3-0.5S525,712.6,525,712.9z"/>
		<path class="st0" d="M583.3,743.6l-5.5-5.5l-5.2,5.2v-15.7h10.6L583.3,743.6z M577.8,737.4l0.2,0.2l4.8,4.8v-14.3h-9.7v14
			L577.8,737.4z"/>
		<path class="st0" d="M438.1,741.5l-1.9-0.9c-2.5,1.2-5.4,0.1-6.5-2.4s-0.1-5.4,2.4-6.5c2.5-1.2,5.4-0.1,6.5,2.4
			c0.9,1.8,0.5,4-0.9,5.5L438.1,741.5z M433.6,731.1c-2.8,0.2-4.8,2.6-4.6,5.3c0.2,2.5,2.2,4.5,4.7,4.6c0.8-0.1,1.7-0.3,2.4-0.8l0,0
			l1.4,0.6l-0.3-1.4l0,0c1.9-2,1.7-5.2-0.3-7c-0.9-0.9-2.1-1.3-3.4-1.3L433.6,731.1z"/>
		<path class="st0" d="M450.5,740.7l-2.2-5.4l-4.1-3.7h10L450.5,740.7z M445.1,732l3.5,3.2l1.9,4.6l3.2-7.9L445.1,732z"/>
		
			<rect x="448.1" y="733.3" transform="matrix(0.8382 -0.5454 0.5454 0.8382 -326.9784 364.8129)" class="st0" width="6.5" height="0.4"/>
		<path class="st22" d="M422.3,732.7c-0.3-1.7-2-2.8-3.7-2.4c-1.3,0.3-2.3,1.3-2.4,2.6c-0.2-1.7-1.8-2.9-3.5-2.7
			c-1.3,0.2-2.4,1.2-2.6,2.5c-0.1,1.1,0.1,2.2,0.8,3c0.6,0.9,1.4,1.6,2.2,2.3c1.1,1,2.2,1.9,3.3,2.9c1.1-1,2-1.9,3.2-3
			c0.8-0.7,1.5-1.5,2.2-2.3C422.2,734.8,422.5,733.7,422.3,732.7z"/>
		<path class="st0" d="M594.5,757.4c0,0,0-0.6,0-1.7s0-2.9,0-5.1c0-4.5,0-11.1-0.1-19.6c0-17.1-0.1-41.9-0.2-73l0.3,0.3l-296.7,0.2
			l0,0l0.5-0.5c0,34.6,0,68,0,99.4l-0.5-0.5l212.3,0.2l62,0.1h16.7h4.3h1.5h-1.4h-4.2h-16.5l-61.9,0.1l-212.7,0.2h-0.5v-0.2
			c0-31.4,0-64.9,0-99.4v-0.5h0.5l296.7,0.2h0.3v0.3c0,31.2-0.1,56.1-0.2,73.2c0,8.5,0,15,0,19.5c0,2.2,0,3.9,0,5
			C594.8,756.9,594.5,757.4,594.5,757.4z"/>
		
			<rect x="318.1" y="666.6" transform="matrix(5.759587e-03 -1 1 5.759587e-03 -358.7815 1054.6354)" class="st18" width="65.7" height="82.2"/>
		<path class="st0" d="M392.2,675.1h-1.6h-4.5h-16.9l-59.4-0.1l0.4-0.4c-0.1,19.6-0.2,42-0.3,65.7c0.1,0.1-0.9-0.9-0.5-0.5h5.7h5.6
			h11.1l21.3,0.1l38.5,0.3l-0.4,0.4c0.2-19.7,0.4-36.1,0.5-47.6c0-5.7,0.1-10.2,0.2-13.3c0-1.5,0-2.7,0-3.5s0-1.2,0-1.2s0,0.4,0,1.2
			s0,2,0,3.5c0,3.1,0,7.6,0,13.2c0,11.6,0,28,0,47.9v0.4h-0.4l-38.5-0.1l-21.3-0.1h-11.1h-5.6h-5.7l-0.5-0.5
			c0.2-23.7,0.3-46.1,0.4-65.7V674h0.4l59.6,0.5l16.7,0.2h4.4h1.1L392.2,675.1z"/>
		
			<rect x="322.2" y="669.5" transform="matrix(5.759587e-03 -1 1 5.759587e-03 -358.8279 1054.5886)" class="st14" width="57.5" height="76.4"/>
		<polygon class="st19" points="312.5,736.2 339.4,700.6 355.8,723.1 367.1,711.2 388.9,736.6 		"/>
		<path class="st19" d="M363,696.4c0,3.3-2.7,6-6,6c-3.3,0-6-2.7-6-6c0-3.3,2.7-6,6-6c0,0,0,0,0,0C360.3,690.4,363,693.1,363,696.4
			C363,696.4,363,696.4,363,696.4z"/>
		<path class="st0" d="M448.7,248.7c-0.3,0-0.6,0-0.9,0l-2.5,0.1L436,249c-7.8,0-18.6,0.1-30.5,0.1s-22.7,0-30.5-0.1l-9.3-0.2
			l-2.5-0.1c-0.3,0.1-0.6,0.1-0.9,0c0.3-0.1,0.6-0.1,0.9-0.1h2.5l9.3-0.1c7.8-0.1,18.6-0.1,30.5-0.1s22.7,0,30.5,0.1l9.3,0.1h2.5
			C448.1,248.6,448.4,248.7,448.7,248.7z"/>
		<path class="st0" d="M570.1,612l-8.1-8.1l-7.7,7.7v-23.3h15.8L570.1,612z M562,602.9l0.2,0.2l7.1,7.2v-21.2H555v20.8L562,602.9z"
			/>
		<path class="st0" d="M364.4,609.6l-3.7-1.7c-4.8,2.2-10.5,0.2-12.7-4.6c-2.2-4.8-0.2-10.5,4.6-12.7c4.8-2.2,10.5-0.2,12.7,4.6
			c1.7,3.6,1,7.8-1.7,10.6L364.4,609.6z M355.5,589.1c-5.4,0-9.8,4.5-9.7,9.9c0,5.4,4.5,9.8,9.9,9.7c1.7-0.1,3.3-0.6,4.7-1.5
			l0.2-0.1l2.8,1.2l-0.6-2.7l0.1-0.1c3.6-4,3.4-10.2-0.6-13.8C360.4,590,358,589.1,355.5,589.1L355.5,589.1z"/>
		<path class="st0" d="M388.7,608l-4.3-10.6l-8.1-7.4l19.7-0.1L388.7,608z M378.1,590.7l6.9,6.4l3.7,9l6.2-15.5L378.1,590.7z"/>
		
			<rect x="384" y="593.2" transform="matrix(0.8382 -0.5454 0.5454 0.8382 -260.5524 308.9653)" class="st0" width="12.8" height="0.7"/>
		<path class="st22" d="M333.3,592.3c-0.7-3.3-3.9-5.5-7.2-4.8c-2.6,0.5-4.5,2.6-4.9,5.2c-0.5-3.3-3.6-5.6-6.9-5.1
			c-2.6,0.4-4.6,2.4-5.1,4.9c-0.3,2.1,0.3,4.2,1.5,5.9c1.2,1.7,2.7,3.2,4.3,4.5c2.2,1.9,4.2,3.7,6.4,5.7c2.2-2,4-3.8,6.2-5.8
			c1.6-1.3,3-2.9,4.2-4.6C333.1,596.5,333.6,594.4,333.3,592.3z"/>
		<circle class="st18" cx="331.5" cy="248.7" r="13.4"/>
		<path class="st16" d="M565,535.2c0,0.3-56.2,0.5-125.4,0.5s-125.4-0.2-125.4-0.5s56.2-0.5,125.4-0.5S565,535,565,535.2z"/>
		<path class="st16" d="M565,514.3c0,0.3-56.2,0.5-125.4,0.5s-125.4-0.2-125.4-0.5s56.2-0.5,125.4-0.5S565,514.1,565,514.3z"/>
		<path class="st16" d="M450.7,556.4c0,0.3-30.6,0.5-68.3,0.5s-68.3-0.2-68.3-0.5c0-0.3,30.6-0.5,68.3-0.5S450.7,556.1,450.7,556.4z
			"/>
		<path class="st0" d="M433.9,783.9c-0.1,3-2.5,5.3-5.4,5.3c-3-0.1-5.3-2.5-5.3-5.4c0.1-2.9,2.5-5.3,5.4-5.3
			C431.6,778.5,433.9,781,433.9,783.9C433.9,783.9,433.9,783.9,433.9,783.9z"/>
		<path class="st0" d="M450.3,784c-0.1,2.9-2.5,5.3-5.4,5.2c-2.9-0.1-5.3-2.5-5.2-5.4c0.1-2.9,2.4-5.2,5.3-5.2
			C448,778.6,450.4,781,450.3,784C450.3,784,450.3,784,450.3,784z"/>
		<path class="st0" d="M466.9,784.1c-0.1,2.9-2.5,5.3-5.4,5.2c-2.9-0.1-5.3-2.5-5.2-5.4c0.1-2.9,2.4-5.2,5.3-5.2
			C464.6,778.7,466.9,781.1,466.9,784.1C466.9,784.1,466.9,784.1,466.9,784.1z"/>
		<rect x="299.5" y="275.2" class="st14" width="296.8" height="181.5"/>
		<polygon class="st19" points="326.9,456.8 411.9,343 464.6,414.1 500.4,376.1 570.4,456.7 		"/>
		<path class="st19" d="M487,329c0,10.6-8.6,19.2-19.2,19.2c-10.6,0-19.2-8.6-19.2-19.2c0-10.6,8.6-19.2,19.2-19.2c0,0,0,0,0,0
			C478.4,309.8,487,318.4,487,329z"/>
		<path class="st0" d="M595.4,625.4c0-3.9-0.2-167.8-0.4-410.5l0.4,0.4H298.7l0,0l0.5-0.5c0,153.5,0,295.6,0,410.5l-0.4-0.4
			l296.8,0.4l-296.8,0.4h-0.4v-0.4c0-114.9,0-257-0.1-410.5v-0.5h0.5h296.7h0.4v0.4c-0.1,121.5-0.2,224.2-0.2,296.5
			c0,36.1-0.1,64.6-0.1,84.2c0,9.7,0,17.2,0,22.3c0,2.5,0,4.4,0,5.7S595.4,625.4,595.4,625.4z"/>
	</g>
	<g id="freepik--Megaphone--inject-3_2_">
		<path class="st23" d="M455.9,676.3l6.6-22.1c1.2-4.8,2.7-10.4,4.7-16.9c1.9-5.8,6.6-11.9,10.9-16.3c6.7-6.8,9.9-6.8,14.4-10.5
			c0.4-0.3,0.9-0.6,1.3-0.9c0.8-0.5,1.6-1.1,2.2-1.9c3.9-4.2,0.1-10.7-7.7-10.1c-5.9,0.5-15.6,2.2-31.3,18.4
			c-0.2,0.3-0.4,0.5-0.6,0.7c-8.3,10.7-16-19.9-17.4-31.3c-1-6.5-7.1-11-13.6-10c-0.9,0.1-1.7,0.4-2.5,0.7l-38.3,17.9
			c-3.7-1.1-7.6-0.9-11.1,0.4c-5.6,2-8.7,7.8-7.3,13.5l15.6,62l-45.7,152h98.4L455.9,676.3z"/>
		<path class="st6" d="M531.6,536.8l-30.4,59.6l-15.2-4.2l-76.5,62.2c-6.5,5.3-16,4.5-21.5-1.9l-29.1-33.8c0,0,58.7-25.3,69.6-46.2
			s-1.7-25.7-1.7-25.7l27.6-31.4L531.6,536.8z"/>
		<path class="st6" d="M492.2,415c0,0-44.5-9.9-107.2-70.1s-92.1-140.4-99.7-139.9c-7.6,0.4-41.2-15.2-104.9,123.4
			s-38.6,170.7-26,170.5c12.6-0.2,98.8-24.3,152.5-18.1c53.8,6.1,122.9,34.1,122.9,34.1L492.2,415z"/>
		<path class="st6" d="M586.8,490.5l-15.2,28.9l-6.8,13c-9.3,17.8-30.9,25.1-49.2,16.7l-95.5-33.3l55.7-126.9l95.4,50.8
			C589.4,449.5,596.4,472.2,586.8,490.5z"/>
		<g class="st24">
			<path d="M586.8,490.5l-15.2,28.9l-6.8,13c-9.3,17.8-30.9,25.1-49.2,16.7l-95.5-33.3l55.7-126.9l95.4,50.8
				C589.4,449.5,596.4,472.2,586.8,490.5z"/>
		</g>
		<path class="st6" d="M185.4,330.9c-33.9,75.1-48,142-31.5,149.4s57.4-47.4,91.3-122.5s48-142,31.5-149.4S219.3,255.8,185.4,330.9z
			"/>
		<g class="st25">
			<path d="M185.4,330.9c-33.9,75.1-48,142-31.5,149.4s57.4-47.4,91.3-122.5s48-142,31.5-149.4S219.3,255.8,185.4,330.9z"/>
		</g>
		<polygon class="st6" points="595,532.2 569.1,524.1 585.1,493.7 604.5,505.8 		"/>
		<g class="st13">
			<polygon points="585.1,493.7 569.1,524.1 574.4,525.8 587.4,495.1 			"/>
		</g>
		<path class="st6" d="M567.2,500.7c-0.4,0.8-13.3-4.2-28.8-11.1c-15.6-7-27.8-13.4-27.5-14.3c0.4-0.8,13.3,4.2,28.9,11.2
			C555.4,493.6,567.6,499.9,567.2,500.7z"/>
		<path class="st6" d="M575.2,482.6c-0.4,0.8-12.1-4.1-26.1-11c-14-6.9-25-13.2-24.6-14c0.4-0.8,12.1,4.1,26.1,11
			C564.6,475.5,575.6,481.7,575.2,482.6z"/>
		<path class="st6" d="M557.2,519.7c-0.1,0.4-3.2-0.3-8.1-1.9c-2.4-0.8-5.4-1.7-8.6-2.8c-3.2-1.1-6.5-2.8-10-4.5
			c-14.2-6.6-25-13-24.6-13.8c0.4-0.8,12,4.2,26,10.8c3.5,1.6,6.8,3.3,9.9,4.6c3.1,1.3,5.8,2.4,8.2,3.5
			C554.5,517.8,557.4,519.3,557.2,519.7z"/>
		<path class="st6" d="M254.5,314.2c0,0-38.7-24-59.9,28.3s19.5,60.9,19.5,60.9C231.7,375.7,245.3,345.7,254.5,314.2z"/>
		<g class="st25">
			<path d="M295.7,251.8c0.2,0-0.3,3.6-1.5,10c-1.2,6.4-3,15.7-5.5,27.1l-5.4,18.3c-1,3.3-2,6.7-3,10.2l-1.6,5.3
				c-0.6,1.9-1.3,3.5-2,5.3l-8.7,22.6c-0.8,2-1.5,3.9-2.3,5.9c-0.8,2-1.9,3.9-2.7,5.8l-5.8,11.9l-5.8,11.9c-1,1.9-1.9,3.9-2.9,5.8
				c-1.1,1.8-2.2,3.7-3.2,5.5L233,418.2c-1,1.6-1.9,3.3-3,4.9l-3.2,4.5l-6.2,8.7l-11.1,15.5c-7.4,9-13.6,16-17.9,21
				c-2.1,2.7-4.4,5.1-6.9,7.4c1.7-2.9,3.7-5.6,5.9-8.2c4.1-5.3,9.9-12.6,17.1-21.6l10.7-15.6l6-8.7c1-1.5,2.1-3,3.1-4.5
				s1.9-3.2,2.9-4.9l12.2-20.8l3.2-5.5c1.1-1.9,1.9-3.7,2.9-5.7l5.7-11.8c1.9-4,3.8-7.9,5.7-11.8c0.9-1.9,2-3.8,2.7-5.8l2.3-5.9
				l8.9-22.3c0.7-1.9,1.5-3.5,2.1-5.3c0.6-1.8,1.1-3.5,1.6-5.3l3.2-10.1l5.7-18.1l6.4-26.7C293.5,258.3,294.5,255,295.7,251.8z"/>
		</g>
		<g class="st24">
			<path d="M368.1,614.5c3.5,6.4,7.1,13,12.4,18.1c5.2,5.1,12.3,8.7,19.8,7.9s14.2-6.8,14.3-14.1c3.5,2.6,8.9,1.2,11.7-2.1
				c2.9-3.3,3.8-7.8,4.2-12.2c4.8,2.8,11.4,0.6,14.5-3.9c2.9-4.8,3.6-10.6,1.9-15.9c-1.8-5.2-4.4-10.1-7.6-14.6
				c3.7,0.3,7.5,0.6,10.8-1.1s5.6-6,3.6-9.1c-1.3-1.7-3.2-2.9-5.3-3.4c-5.7-1.9-9.7-3.2-15.7-2.5c-1.4,0,2.4,15.7-35,37.2
				C375.3,611.5,368.1,614.5,368.1,614.5z"/>
		</g>
		<path class="st26" d="M452.4,637.2c0,0.2-2.5-0.3-6.6-0.2c-10.6,0.3-20.6,5.1-27.5,13.2c-2.6,3.1-3.7,5.3-4,5.2
			c0.2-0.6,0.4-1.1,0.7-1.6c0.8-1.4,1.7-2.8,2.7-4c6.8-8.6,17.1-13.5,28-13.4c1.6,0,3.2,0.2,4.8,0.4
			C451.3,636.8,451.9,636.9,452.4,637.2z"/>
		<path class="st23" d="M370.6,604.5c6,5.8,10.2,12.2,16.5,18c2.9,2.7,7.4,7.7,11.1,8.3c3.7,0.7,6.3,0.2,7.8-3.4
			c1.2-2.9-1-6.9-2.5-9.3c-4-6.3-7.9-11.3-10.9-16.2c-1.4-2.3,0.4-2.8,1.1-1.7c2.9,3,7.2,5.6,9.8,8.9c3.6,4.5,4.2,10.4,13.5,8.5
			c1.2-0.2,2.4-0.7,3.5-1.4c3.5-2.7,3.7-7.4,2.2-11.1c-1.3-2.9-3.1-5.5-5.2-7.8c4,4.5,8.3,9.3,14.6,9.7c3.7,0.4,7.2-1.5,8.8-4.8
			c1.9-4.2-0.8-8.3-3.5-11.6c-4.8-5.9-10.1-11.3-15.8-16.2c-2.2-1.8-4.9-2.8-7.7-2.8c-3.3,0-7.4,0.6-9.3,3.4
			c-2.1,2.7-3.1,6.3-2.5,9.7c0,0-8.2-4.1-14.7,0.2c-4,2.8-6.9,7-8.2,11.8L370.6,604.5z"/>
		<path class="st23" d="M414.1,569.8c-2.7-3.1-3.1-7.5-1.2-11.1c1.4-2.7,3.1-5.4,4.9-6c7.8-2.6,41.8,3.3,41.5,10.8
			c-0.3,7.5-2.8,11.1-21.2,8.5c-3.2-0.5-8.3-1.1-8.3-1.1l-4.5,6.7L414.1,569.8z"/>
		<path class="st26" d="M420.2,601.4c-4.5-7.4-11-13.3-18.7-17c1.3,0.2,2.5,0.6,3.6,1.3c5.6,2.7,10.3,7,13.5,12.2
			C419.3,598.9,419.8,600.1,420.2,601.4z"/>
		<path class="st26" d="M425.9,578.2c-0.2,0.1-2.4-1.7-5.5-3.5c-1.3-0.8-2.6-1.5-4-2.2c-1.1-0.5-1.8-0.6-1.7-0.8
			c0-0.1,0.8-0.2,2,0.1c1.5,0.5,2.9,1.2,4.3,2C424,575.7,426.1,578,425.9,578.2z"/>
		<path class="st26" d="M431.6,571.2c-2.2,0.3-4.5,0-6.6-0.7c-1.5-0.5-3-1.2-4.2-2.3c-0.9-0.8-1.3-1.4-1.2-1.5
			c1.8,1.2,3.7,2.1,5.7,2.8C427.4,569.9,429.5,570.4,431.6,571.2z"/>
		<path class="st26" d="M398.6,610.7c-1.2-1.2-2.2-2.6-3.1-4c-2.1-3.4-4.8-6.5-7.9-9c-3.2-2.4-7.3-3.4-11.2-3
			c-1.6,0.3-3.2,0.8-4.7,1.5c0,0,0.3-0.4,1.1-0.9c1.1-0.7,2.3-1.1,3.5-1.3c4.2-0.7,8.5,0.4,11.9,2.9c3.2,2.6,5.9,5.8,7.9,9.4
			C397,607.7,397.8,609.1,398.6,610.7z"/>
		<path class="st26" d="M424.5,685.8c-4.6,1-9.2,1.6-13.9,2c-4.6,0.7-9.3,1-14,1c4.6-1,9.2-1.6,13.9-2
			C415.2,686.2,419.9,685.9,424.5,685.8z"/>
		<linearGradient id="SVGID_8_" gradientUnits="userSpaceOnUse" x1="186.5556" y1="338.3539" x2="250.306" y2="338.3539">
			<stop  offset="6.425827e-07" style="stop-color:#A770EF"/>
			<stop  offset="0.5139" style="stop-color:#CF8BF3"/>
			<stop  offset="1" style="stop-color:#FDB99B"/>
		</linearGradient>
		<path class="st27" d="M247.8,312c-12.2-4.2-37.2-7-52.8,31.5c-3.7,9.1-5.5,16.9-6,23.5"/>
	</g>
	<g>
		<polygon class="st6" points="716.9,68.7 719,72.5 722.8,74.6 719,76.7 716.9,80.6 714.8,76.7 710.9,74.6 714.8,72.5 		"/>
		<polygon class="st6" points="760.7,163.6 762.8,167.5 766.6,169.6 762.8,171.7 760.7,175.5 758.6,171.7 754.7,169.6 758.6,167.5 
					"/>
		<polygon class="st6" points="36.1,415.3 39.9,422.3 46.9,426.2 39.9,429.9 36.1,436.9 32.3,429.9 25.3,426.2 32.3,422.3 		"/>
		<linearGradient id="SVGID_9_" gradientUnits="userSpaceOnUse" x1="645.7227" y1="105.9823" x2="673.0933" y2="105.9823">
			<stop  offset="6.425827e-07" style="stop-color:#A770EF"/>
			<stop  offset="0.5139" style="stop-color:#CF8BF3"/>
			<stop  offset="1" style="stop-color:#FDB99B"/>
		</linearGradient>
		<polygon class="st28" points="659.4,92.3 664.2,101.1 673.1,106 664.2,110.8 659.4,119.7 654.6,110.8 645.7,106 654.6,101.1 		"/>
		<polygon class="st6" points="772.6,567.3 777.4,576.2 786.2,581 777.4,585.8 772.6,594.7 767.8,585.8 758.9,581 767.8,576.2 		"/>
	</g>
	<g>
		<g>
			
				<linearGradient id="SVGID_10_" gradientUnits="userSpaceOnUse" x1="-2451.8599" y1="-1331.0975" x2="-2379.9905" y2="-1331.0975" gradientTransform="matrix(0.4357 -0.9001 0.9001 0.4357 2385.9392 -1279.6237)">
				<stop  offset="6.425827e-07" style="stop-color:#A770EF"/>
				<stop  offset="0.5139" style="stop-color:#CF8BF3"/>
				<stop  offset="1" style="stop-color:#FDB99B"/>
			</linearGradient>
			<path class="st29" d="M159.4,294.1c-0.7,1.5-2.1,2.8-3.8,3.4c-8.7,3-15.8,9.3-19.8,17.6c-4,8.3-4.6,17.7-1.5,26.5
				c1.2,3.5-0.6,7.3-4.1,8.5c-3.5,1.2-7.3-0.6-8.5-4.1c-4.2-12.1-3.5-25.2,2.1-36.7c5.6-11.5,15.3-20.2,27.5-24.4
				c3.5-1.2,7.3,0.6,8.5,4.1C160.3,290.8,160.1,292.6,159.4,294.1z"/>
		</g>
		<g>
			
				<linearGradient id="SVGID_11_" gradientUnits="userSpaceOnUse" x1="-2475.8176" y1="-1356.1272" x2="-2356.0325" y2="-1356.1272" gradientTransform="matrix(0.4357 -0.9001 0.9001 0.4357 2385.9392 -1279.6237)">
				<stop  offset="6.425827e-07" style="stop-color:#A770EF"/>
				<stop  offset="0.5139" style="stop-color:#CF8BF3"/>
				<stop  offset="1" style="stop-color:#FDB99B"/>
			</linearGradient>
			<path class="st30" d="M105.4,359.6c-0.7,1.5-2.1,2.8-3.8,3.4c-3.5,1.2-7.3-0.6-8.5-4.1c-3.6-10.5-5.1-21.3-4.4-32.2
				c0.7-10.6,3.4-20.8,8-30.4c4.6-9.6,11-18,18.8-25.1c8.1-7.4,17.6-12.9,28-16.6c3.5-1.2,7.3,0.6,8.5,4.1c1.2,3.5-0.6,7.3-4.1,8.5
				c-17.3,6-31.2,18.4-39.2,34.8c-8,16.5-9,35-3,52.3C106.3,356.2,106.2,358,105.4,359.6z"/>
		</g>
		<g>
			
				<linearGradient id="SVGID_12_" gradientUnits="userSpaceOnUse" x1="-2499.5073" y1="-1381.2124" x2="-2332.3428" y2="-1381.2124" gradientTransform="matrix(0.4357 -0.9001 0.9001 0.4357 2385.9392 -1279.6237)">
				<stop  offset="6.425827e-07" style="stop-color:#A770EF"/>
				<stop  offset="0.5139" style="stop-color:#CF8BF3"/>
				<stop  offset="1" style="stop-color:#FDB99B"/>
			</linearGradient>
			<path class="st31" d="M143.9,233.7c-0.7,1.5-2.1,2.8-3.8,3.4c-13,4.5-24.8,11.5-34.9,20.6c-9.8,8.8-17.7,19.4-23.4,31.3
				c-5.8,11.9-9.1,24.6-10,37.8c-0.9,13.6,1,27.1,5.5,40.2c1.2,3.5-0.6,7.3-4.1,8.5c-3.5,1.2-7.3-0.6-8.5-4.1
				c-5.1-14.7-7.2-30-6.2-45.4c1-14.9,4.8-29.3,11.3-42.8c6.5-13.5,15.5-25.4,26.5-35.4c11.5-10.4,24.8-18.2,39.5-23.3
				c3.5-1.2,7.3,0.6,8.5,4.1C144.8,230.3,144.7,232.2,143.9,233.7z"/>
		</g>
	</g>
	<g>
		<g>
			<g>
				<g>
					<path class="st32" d="M1158,827.3v8.7c0,0.8-0.4,1.6-1.2,2.4c-0.2,0.2-0.5,0.4-0.8,0.6c-0.6,0.4-1.2,0.8-2,1.2
						c-0.2,0.1-0.5,0.2-0.8,0.3c-0.9,0.4-2,0.8-3.2,1.1c-0.3,0.1-0.5,0.2-0.8,0.2c-1.3,0.3-2.7,0.7-4.2,0.9c-0.3,0-0.5,0.1-0.8,0.1
						c-1.2,0.2-2.5,0.4-3.8,0.5c-0.3,0-0.5,0.1-0.8,0.1c-0.9,0.1-1.8,0.2-2.7,0.2c-0.3,0-0.5,0-0.8,0.1c-1.2,0.1-2.3,0.1-3.5,0.1
						c-0.3,0-0.5,0-0.8,0h-0.6c-1.1,0-2.2,0-3.3-0.1c-0.3,0-0.5,0-0.8,0c-1.1-0.1-2.2-0.1-3.3-0.2c-0.3,0-0.5,0-0.8-0.1
						c-0.7-0.1-1.5-0.2-2.2-0.2c-0.3,0-0.5-0.1-0.8-0.1c-0.9-0.1-1.8-0.3-2.6-0.4c-0.3,0-0.5-0.1-0.8-0.1c-0.7-0.1-1.4-0.3-2.1-0.5
						c-0.3-0.1-0.5-0.1-0.8-0.2c-0.8-0.2-1.6-0.4-2.4-0.7c-0.3-0.1-0.5-0.2-0.8-0.3c-0.8-0.3-1.5-0.6-2.2-0.9
						c-0.3-0.1-0.5-0.3-0.8-0.4c-0.6-0.4-1.2-0.7-1.7-1.1c-0.3-0.3-0.6-0.5-0.8-0.8c-0.5-0.6-0.7-1.2-0.7-1.8c0-2.6,0-8.7,0-8.7
						H1158z"/>
					<path class="st33" d="M1158,827.3c0,3.9-11.9,7-26.6,7c-14.7,0-26.6-3.1-26.6-7c0-3.9,11.9-7,26.6-7
						C1146.1,820.2,1158,823.4,1158,827.3z"/>
					<path class="st34" d="M1153.3,826.3c0,2.7-9.8,4.8-21.8,4.8s-21.8-2.2-21.8-4.8c0-2.7,9.8-4.8,21.8-4.8
						S1153.3,823.7,1153.3,826.3z"/>
					<path class="st35" d="M1110.3,827.5c2.4-2.1,11-3.6,21.2-3.6c10.2,0,18.8,1.6,21.2,3.6c0.4-0.4,0.7-0.8,0.7-1.2
						c0-2.7-9.8-4.8-21.8-4.8s-21.8,2.2-21.8,4.8C1109.6,826.7,1109.8,827.1,1110.3,827.5z"/>
					<g>
						<path class="st35" d="M1106.3,831.2v7.4c-0.3-0.3-0.6-0.5-0.8-0.8v-6.6H1106.3z"/>
						<path class="st35" d="M1108.8,833.3v6.8c-0.3-0.1-0.5-0.3-0.8-0.4v-6.4H1108.8z"/>
						<path class="st35" d="M1111.7,834.7v6.6c-0.3-0.1-0.5-0.2-0.8-0.3v-6.3H1111.7z"/>
						<path class="st35" d="M1114.9,835.6v6.6c-0.3-0.1-0.5-0.1-0.8-0.2v-6.4H1114.9z"/>
						<path class="st35" d="M1117.7,836.4v6.3c-0.3,0-0.5-0.1-0.8-0.1v-6.2H1117.7z"/>
						<path class="st35" d="M1121.1,837v6.3c-0.3,0-0.5-0.1-0.8-0.1V837H1121.1z"/>
						<path class="st35" d="M1124.1,837v6.6c-0.3,0-0.5,0-0.8-0.1V837H1124.1z"/>
						<path class="st35" d="M1128.1,837v6.8c-0.3,0-0.5,0-0.8,0V837H1128.1z"/>
						<path class="st35" d="M1132.8,836.4v7.5c-0.3,0-0.5,0-0.8,0v-7.5H1132.8z"/>
						<path class="st35" d="M1137.1,835.6v8.1c-0.3,0-0.5,0-0.8,0.1v-8.2H1137.1z"/>
						<path class="st35" d="M1140.6,835.6v7.8c-0.3,0-0.5,0.1-0.8,0.1v-7.9H1140.6z"/>
						<path class="st35" d="M1145.2,834.7v8.1c-0.3,0-0.5,0.1-0.8,0.1v-8.2H1145.2z"/>
						<path class="st35" d="M1150.1,833.8v7.8c-0.3,0.1-0.5,0.2-0.8,0.2v-8H1150.1z"/>
						<path class="st35" d="M1154,831.7v8.4c-0.2,0.1-0.5,0.2-0.8,0.3v-8.8H1154z"/>
						<path class="st35" d="M1156.8,830.3v8c-0.2,0.2-0.5,0.4-0.8,0.6v-8.7H1156.8z"/>
					</g>
					<path class="st36" d="M1156.8,834.5c-0.2,0.2-0.5,0.4-0.8,0.6c-0.6,0.4-1.2,0.8-2,1.2c-0.2,0.1-0.5,0.2-0.8,0.4
						c-0.9,0.4-2,0.8-3.2,1.1c-0.3,0.1-0.5,0.2-0.8,0.2c-1.3,0.3-2.7,0.7-4.2,0.9c-0.3,0-0.5,0.1-0.8,0.1c-1.2,0.2-2.5,0.4-3.8,0.5
						c-0.3,0-0.5,0.1-0.8,0.1c-0.9,0.1-1.8,0.2-2.7,0.2c-0.3,0-0.5,0-0.8,0.1c-1.2,0.1-2.3,0.1-3.5,0.1c-0.3,0-0.5,0-0.8,0h-0.6
						c-1.1,0-2.2,0-3.3-0.1c-0.3,0-0.5,0-0.8,0c-1.1-0.1-2.2-0.1-3.3-0.2c-0.3,0-0.5,0-0.8-0.1c-0.7-0.1-1.5-0.2-2.2-0.2
						c-0.3,0-0.5-0.1-0.8-0.1c-0.9-0.1-1.8-0.3-2.6-0.4c-0.3,0-0.5-0.1-0.8-0.1c-0.7-0.1-1.4-0.3-2.1-0.5c-0.3-0.1-0.5-0.1-0.8-0.2
						c-0.8-0.2-1.6-0.4-2.4-0.7c-0.3-0.1-0.5-0.2-0.8-0.3c-0.8-0.3-1.5-0.6-2.2-0.9c-0.3-0.1-0.5-0.3-0.8-0.4
						c-0.6-0.4-1.2-0.7-1.7-1.1c-0.3-0.3-0.6-0.5-0.8-0.8c-0.5-0.6-0.7-1.2-0.7-1.8c0,1.4,0,2.9,0,3.8c0,0.6,0.2,1.2,0.7,1.8
						c0.2,0.3,0.5,0.5,0.8,0.8c0.5,0.4,1,0.8,1.7,1.1c0.2,0.1,0.5,0.3,0.8,0.4c0.6,0.3,1.4,0.6,2.2,0.9c0.3,0.1,0.5,0.2,0.8,0.3
						c0.7,0.3,1.5,0.5,2.4,0.7c0.3,0.1,0.5,0.1,0.8,0.2c0.7,0.2,1.4,0.3,2.1,0.5c0.3,0.1,0.5,0.1,0.8,0.1c0.8,0.2,1.7,0.3,2.6,0.4
						c0.3,0,0.5,0.1,0.8,0.1c0.7,0.1,1.4,0.2,2.2,0.2c0.3,0,0.5,0,0.8,0.1c1.1,0.1,2.2,0.2,3.3,0.2c0.3,0,0.5,0,0.8,0
						c1.1,0,2.2,0.1,3.3,0.1h0.6c0.3,0,0.5,0,0.8,0c1.2,0,2.4-0.1,3.5-0.1c0.3,0,0.5,0,0.8-0.1c0.9-0.1,1.8-0.1,2.7-0.2
						c0.3,0,0.5-0.1,0.8-0.1c1.3-0.1,2.6-0.3,3.8-0.5c0.3,0,0.5-0.1,0.8-0.1c1.5-0.3,2.9-0.6,4.2-0.9c0.3-0.1,0.5-0.2,0.8-0.2
						c1.2-0.3,2.2-0.7,3.2-1.1c0.3-0.1,0.5-0.2,0.8-0.3c0.8-0.4,1.4-0.8,2-1.2c0.3-0.2,0.6-0.4,0.8-0.6c0.8-0.8,1.2-1.6,1.2-2.4
						v-3.8C1158,832.9,1157.6,833.7,1156.8,834.5z"/>
				</g>
				<g>
					<path class="st32" d="M1155.7,816.7v8.7c0,0.8-0.4,1.6-1.2,2.4c-0.2,0.2-0.5,0.4-0.8,0.6c-0.6,0.4-1.2,0.8-2,1.2
						c-0.2,0.1-0.5,0.2-0.8,0.3c-0.9,0.4-2,0.8-3.2,1.1c-0.3,0.1-0.5,0.2-0.8,0.2c-1.3,0.3-2.7,0.7-4.2,0.9c-0.3,0-0.5,0.1-0.8,0.1
						c-1.2,0.2-2.5,0.4-3.8,0.5c-0.3,0-0.5,0.1-0.8,0.1c-0.9,0.1-1.8,0.2-2.7,0.2c-0.3,0-0.5,0-0.8,0.1c-1.2,0.1-2.3,0.1-3.5,0.1
						c-0.3,0-0.5,0-0.8,0h-0.6c-1.1,0-2.2,0-3.3-0.1c-0.3,0-0.5,0-0.8,0c-1.1-0.1-2.2-0.1-3.3-0.2c-0.3,0-0.5,0-0.8-0.1
						c-0.7-0.1-1.5-0.2-2.2-0.2c-0.3,0-0.5-0.1-0.8-0.1c-0.9-0.1-1.8-0.3-2.6-0.4c-0.3,0-0.5-0.1-0.8-0.1c-0.7-0.1-1.4-0.3-2.1-0.5
						c-0.3-0.1-0.5-0.1-0.8-0.2c-0.8-0.2-1.6-0.4-2.4-0.7c-0.3-0.1-0.5-0.2-0.8-0.3c-0.8-0.3-1.5-0.6-2.2-0.9
						c-0.3-0.1-0.5-0.3-0.8-0.4c-0.6-0.4-1.2-0.7-1.7-1.1c-0.3-0.3-0.6-0.5-0.8-0.8c-0.5-0.6-0.7-1.2-0.7-1.8c0-2.6,0-8.7,0-8.7
						H1155.7z"/>
					<path class="st33" d="M1155.7,816.7c0,3.9-11.9,7-26.6,7c-14.7,0-26.6-3.1-26.6-7c0-3.9,11.9-7,26.6-7
						C1143.8,809.7,1155.7,812.8,1155.7,816.7z"/>
					<path class="st34" d="M1151,815.7c0,2.7-9.8,4.8-21.8,4.8c-12.1,0-21.8-2.2-21.8-4.8c0-2.7,9.8-4.8,21.8-4.8
						C1141.2,810.9,1151,813.1,1151,815.7z"/>
					<path class="st35" d="M1108,816.9c2.4-2.1,11-3.6,21.2-3.6s18.8,1.6,21.2,3.6c0.4-0.4,0.7-0.8,0.7-1.2c0-2.7-9.8-4.8-21.8-4.8
						c-12.1,0-21.8,2.2-21.8,4.8C1107.3,816.2,1107.6,816.6,1108,816.9z"/>
					<g>
						<path class="st35" d="M1104.1,820.6v7.4c-0.3-0.3-0.6-0.5-0.8-0.8v-6.6H1104.1z"/>
						<path class="st35" d="M1106.5,822.8v6.8c-0.3-0.1-0.5-0.3-0.8-0.4v-6.4H1106.5z"/>
						<path class="st35" d="M1109.4,824.1v6.6c-0.3-0.1-0.5-0.2-0.8-0.3v-6.3H1109.4z"/>
						<path class="st35" d="M1112.6,825v6.6c-0.3-0.1-0.5-0.1-0.8-0.2V825H1112.6z"/>
						<path class="st35" d="M1115.5,825.9v6.3c-0.3,0-0.5-0.1-0.8-0.1v-6.2H1115.5z"/>
						<path class="st35" d="M1118.8,826.4v6.3c-0.3,0-0.5-0.1-0.8-0.1v-6.2H1118.8z"/>
						<path class="st35" d="M1121.8,826.4v6.6c-0.3,0-0.5,0-0.8-0.1v-6.5H1121.8z"/>
						<path class="st35" d="M1125.8,826.4v6.8c-0.3,0-0.5,0-0.8,0v-6.8H1125.8z"/>
						<path class="st35" d="M1130.5,825.9v7.5c-0.3,0-0.5,0-0.8,0v-7.5H1130.5z"/>
						<path class="st35" d="M1134.8,825v8.1c-0.3,0-0.5,0-0.8,0.1V825H1134.8z"/>
						<path class="st35" d="M1138.3,825v7.8c-0.3,0-0.5,0.1-0.8,0.1V825H1138.3z"/>
						<path class="st35" d="M1142.9,824.1v8.1c-0.3,0-0.5,0.1-0.8,0.1v-8.2H1142.9z"/>
						<path class="st35" d="M1147.8,823.2v7.8c-0.3,0.1-0.5,0.2-0.8,0.2v-8H1147.8z"/>
						<path class="st35" d="M1151.7,821.2v8.4c-0.2,0.1-0.5,0.2-0.8,0.3v-8.8H1151.7z"/>
						<path class="st35" d="M1154.5,819.7v8c-0.2,0.2-0.5,0.4-0.8,0.6v-8.7H1154.5z"/>
					</g>
					<path class="st36" d="M1154.5,823.9c-0.2,0.2-0.5,0.4-0.8,0.6c-0.6,0.4-1.2,0.8-2,1.2c-0.2,0.1-0.5,0.2-0.8,0.4
						c-0.9,0.4-2,0.8-3.2,1.1c-0.3,0.1-0.5,0.2-0.8,0.2c-1.3,0.3-2.7,0.7-4.2,0.9c-0.3,0-0.5,0.1-0.8,0.1c-1.2,0.2-2.5,0.4-3.8,0.5
						c-0.3,0-0.5,0.1-0.8,0.1c-0.9,0.1-1.8,0.2-2.7,0.2c-0.3,0-0.5,0-0.8,0.1c-1.2,0.1-2.3,0.1-3.5,0.1c-0.3,0-0.5,0-0.8,0h-0.6
						c-1.1,0-2.2,0-3.3-0.1c-0.3,0-0.5,0-0.8,0c-1.1-0.1-2.2-0.1-3.3-0.2c-0.3,0-0.5,0-0.8-0.1c-0.7-0.1-1.5-0.2-2.2-0.2
						c-0.3,0-0.5-0.1-0.8-0.1c-0.9-0.1-1.8-0.3-2.6-0.4c-0.3,0-0.5-0.1-0.8-0.1c-0.7-0.1-1.4-0.3-2.1-0.5c-0.3-0.1-0.5-0.1-0.8-0.2
						c-0.8-0.2-1.6-0.4-2.4-0.7c-0.3-0.1-0.5-0.2-0.8-0.3c-0.8-0.3-1.5-0.6-2.2-0.9c-0.3-0.1-0.5-0.3-0.8-0.4
						c-0.6-0.4-1.2-0.7-1.7-1.1c-0.3-0.3-0.6-0.5-0.8-0.8c-0.5-0.6-0.7-1.2-0.7-1.8c0,1.4,0,2.9,0,3.8c0,0.6,0.2,1.2,0.7,1.8
						c0.2,0.3,0.5,0.5,0.8,0.8c0.5,0.4,1,0.8,1.7,1.1c0.2,0.1,0.5,0.3,0.8,0.4c0.6,0.3,1.4,0.6,2.2,0.9c0.3,0.1,0.5,0.2,0.8,0.3
						c0.7,0.3,1.5,0.5,2.4,0.7c0.3,0.1,0.5,0.1,0.8,0.2c0.7,0.2,1.4,0.3,2.1,0.5c0.3,0.1,0.5,0.1,0.8,0.1c0.8,0.2,1.7,0.3,2.6,0.4
						c0.3,0,0.5,0.1,0.8,0.1c0.7,0.1,1.4,0.2,2.2,0.2c0.3,0,0.5,0,0.8,0.1c1.1,0.1,2.2,0.2,3.3,0.2c0.3,0,0.5,0,0.8,0
						c1.1,0,2.2,0.1,3.3,0.1h0.6c0.3,0,0.5,0,0.8,0c1.2,0,2.4-0.1,3.5-0.1c0.3,0,0.5,0,0.8-0.1c0.9-0.1,1.8-0.1,2.7-0.2
						c0.3,0,0.5-0.1,0.8-0.1c1.3-0.1,2.6-0.3,3.8-0.5c0.3,0,0.5-0.1,0.8-0.1c1.5-0.3,2.9-0.6,4.2-0.9c0.3-0.1,0.5-0.2,0.8-0.2
						c1.2-0.3,2.2-0.7,3.2-1.1c0.3-0.1,0.5-0.2,0.8-0.3c0.8-0.4,1.4-0.8,2-1.2c0.3-0.2,0.5-0.4,0.8-0.6c0.8-0.8,1.2-1.6,1.2-2.4
						v-3.8C1155.7,822.4,1155.3,823.2,1154.5,823.9z"/>
				</g>
				<g>
					<path class="st32" d="M1158,805.6v8.7c0,0.8-0.4,1.6-1.2,2.4c-0.2,0.2-0.5,0.4-0.8,0.6c-0.6,0.4-1.2,0.8-2,1.2
						c-0.2,0.1-0.5,0.2-0.8,0.4c-0.9,0.4-2,0.8-3.2,1.1c-0.3,0.1-0.5,0.2-0.8,0.2c-1.3,0.3-2.7,0.7-4.2,0.9c-0.3,0-0.5,0.1-0.8,0.1
						c-1.2,0.2-2.5,0.4-3.8,0.5c-0.3,0-0.5,0.1-0.8,0.1c-0.9,0.1-1.8,0.2-2.7,0.2c-0.3,0-0.5,0-0.8,0.1c-1.2,0.1-2.3,0.1-3.5,0.1
						c-0.3,0-0.5,0-0.8,0h-0.6c-1.1,0-2.2,0-3.3-0.1c-0.3,0-0.5,0-0.8,0c-1.1-0.1-2.2-0.1-3.3-0.2c-0.3,0-0.5,0-0.8-0.1
						c-0.7-0.1-1.5-0.2-2.2-0.2c-0.3,0-0.5-0.1-0.8-0.1c-0.9-0.1-1.8-0.3-2.6-0.4c-0.3,0-0.5-0.1-0.8-0.1c-0.7-0.1-1.4-0.3-2.1-0.5
						c-0.3-0.1-0.5-0.1-0.8-0.2c-0.8-0.2-1.6-0.4-2.4-0.7c-0.3-0.1-0.5-0.2-0.8-0.3c-0.8-0.3-1.5-0.6-2.2-0.9
						c-0.3-0.1-0.5-0.3-0.8-0.4c-0.6-0.4-1.2-0.7-1.7-1.1c-0.3-0.3-0.6-0.5-0.8-0.8c-0.5-0.6-0.7-1.2-0.7-1.8c0-2.6,0-8.7,0-8.7
						H1158z"/>
					<path class="st33" d="M1158,805.6c0,3.9-11.9,7-26.6,7c-14.7,0-26.6-3.1-26.6-7c0-3.9,11.9-7,26.6-7
						C1146.1,798.5,1158,801.7,1158,805.6z"/>
					<path class="st34" d="M1153.3,804.6c0,2.7-9.8,4.8-21.8,4.8s-21.8-2.2-21.8-4.8c0-2.7,9.8-4.8,21.8-4.8
						S1153.3,802,1153.3,804.6z"/>
					<path class="st35" d="M1110.3,805.8c2.4-2.1,11-3.6,21.2-3.6c10.2,0,18.8,1.6,21.2,3.6c0.4-0.4,0.7-0.8,0.7-1.2
						c0-2.7-9.8-4.8-21.8-4.8s-21.8,2.2-21.8,4.8C1109.6,805.1,1109.8,805.5,1110.3,805.8z"/>
					<g>
						<path class="st35" d="M1106.3,809.5v7.4c-0.3-0.3-0.6-0.5-0.8-0.8v-6.6H1106.3z"/>
						<path class="st35" d="M1108.8,811.7v6.8c-0.3-0.1-0.5-0.3-0.8-0.4v-6.4H1108.8z"/>
						<path class="st35" d="M1111.7,813v6.6c-0.3-0.1-0.5-0.2-0.8-0.3V813H1111.7z"/>
						<path class="st35" d="M1114.9,813.9v6.6c-0.3-0.1-0.5-0.1-0.8-0.2v-6.4H1114.9z"/>
						<path class="st35" d="M1117.7,814.8v6.3c-0.3,0-0.5-0.1-0.8-0.1v-6.2H1117.7z"/>
						<path class="st35" d="M1121.1,815.3v6.3c-0.3,0-0.5-0.1-0.8-0.1v-6.2H1121.1z"/>
						<path class="st35" d="M1124.1,815.3v6.6c-0.3,0-0.5,0-0.8-0.1v-6.5H1124.1z"/>
						<path class="st35" d="M1128.1,815.3v6.8c-0.3,0-0.5,0-0.8,0v-6.8H1128.1z"/>
						<path class="st35" d="M1132.8,814.8v7.5c-0.3,0-0.5,0-0.8,0v-7.5H1132.8z"/>
						<path class="st35" d="M1137.1,813.9v8.1c-0.3,0-0.5,0-0.8,0.1v-8.2H1137.1z"/>
						<path class="st35" d="M1140.6,813.9v7.8c-0.3,0-0.5,0.1-0.8,0.1v-7.9H1140.6z"/>
						<path class="st35" d="M1145.2,813v8.1c-0.3,0-0.5,0.1-0.8,0.1V813H1145.2z"/>
						<path class="st35" d="M1150.1,812.1v7.8c-0.3,0.1-0.5,0.2-0.8,0.2v-8H1150.1z"/>
						<path class="st35" d="M1154,810v8.4c-0.2,0.1-0.5,0.2-0.8,0.4V810H1154z"/>
						<path class="st35" d="M1156.8,808.6v8c-0.2,0.2-0.5,0.4-0.8,0.6v-8.7H1156.8z"/>
					</g>
					<path class="st36" d="M1156.8,812.8c-0.2,0.2-0.5,0.4-0.8,0.6c-0.6,0.4-1.2,0.8-2,1.2c-0.2,0.1-0.5,0.2-0.8,0.4
						c-0.9,0.4-2,0.8-3.2,1.1c-0.3,0.1-0.5,0.2-0.8,0.2c-1.3,0.3-2.7,0.7-4.2,0.9c-0.3,0-0.5,0.1-0.8,0.1c-1.2,0.2-2.5,0.4-3.8,0.5
						c-0.3,0-0.5,0.1-0.8,0.1c-0.9,0.1-1.8,0.2-2.7,0.2c-0.3,0-0.5,0-0.8,0.1c-1.2,0.1-2.3,0.1-3.5,0.1c-0.3,0-0.5,0-0.8,0h-0.6
						c-1.1,0-2.2,0-3.3-0.1c-0.3,0-0.5,0-0.8,0c-1.1-0.1-2.2-0.1-3.3-0.2c-0.3,0-0.5,0-0.8-0.1c-0.7-0.1-1.5-0.2-2.2-0.2
						c-0.3,0-0.5-0.1-0.8-0.1c-0.9-0.1-1.8-0.3-2.6-0.4c-0.3,0-0.5-0.1-0.8-0.1c-0.7-0.1-1.4-0.3-2.1-0.5c-0.3-0.1-0.5-0.1-0.8-0.2
						c-0.8-0.2-1.6-0.4-2.4-0.7c-0.3-0.1-0.5-0.2-0.8-0.3c-0.8-0.3-1.5-0.6-2.2-0.9c-0.3-0.1-0.5-0.3-0.8-0.4
						c-0.6-0.4-1.2-0.7-1.7-1.1c-0.3-0.3-0.6-0.5-0.8-0.8c-0.5-0.6-0.7-1.2-0.7-1.8c0,1.4,0,2.9,0,3.8c0,0.6,0.2,1.2,0.7,1.8
						c0.2,0.3,0.5,0.5,0.8,0.8c0.5,0.4,1,0.8,1.7,1.1c0.2,0.1,0.5,0.3,0.8,0.4c0.6,0.3,1.4,0.6,2.2,0.9c0.3,0.1,0.5,0.2,0.8,0.3
						c0.7,0.3,1.5,0.5,2.4,0.7c0.3,0.1,0.5,0.1,0.8,0.2c0.7,0.2,1.4,0.3,2.1,0.5c0.3,0.1,0.5,0.1,0.8,0.1c0.8,0.2,1.7,0.3,2.6,0.4
						c0.3,0,0.5,0.1,0.8,0.1c0.7,0.1,1.4,0.2,2.2,0.2c0.3,0,0.5,0,0.8,0.1c1.1,0.1,2.2,0.2,3.3,0.2c0.3,0,0.5,0,0.8,0
						c1.1,0,2.2,0.1,3.3,0.1h0.6c0.3,0,0.5,0,0.8,0c1.2,0,2.4-0.1,3.5-0.1c0.3,0,0.5,0,0.8-0.1c0.9-0.1,1.8-0.1,2.7-0.2
						c0.3,0,0.5-0.1,0.8-0.1c1.3-0.1,2.6-0.3,3.8-0.5c0.3,0,0.5-0.1,0.8-0.1c1.5-0.3,2.9-0.6,4.2-0.9c0.3-0.1,0.5-0.2,0.8-0.2
						c1.2-0.3,2.2-0.7,3.2-1.1c0.3-0.1,0.5-0.2,0.8-0.4c0.8-0.4,1.4-0.8,2-1.2c0.3-0.2,0.6-0.4,0.8-0.6c0.8-0.8,1.2-1.6,1.2-2.4
						v-3.8C1158,811.3,1157.6,812.1,1156.8,812.8z"/>
				</g>
				<g>
					<path class="st32" d="M1160.9,795v8.7c0,0.8-0.4,1.6-1.2,2.4c-0.2,0.2-0.5,0.4-0.8,0.6c-0.6,0.4-1.2,0.8-2,1.2
						c-0.2,0.1-0.5,0.2-0.8,0.4c-0.9,0.4-2,0.8-3.2,1.1c-0.3,0.1-0.5,0.2-0.8,0.2c-1.3,0.3-2.7,0.7-4.2,0.9c-0.3,0-0.5,0.1-0.8,0.1
						c-1.2,0.2-2.5,0.4-3.8,0.5c-0.3,0-0.5,0.1-0.8,0.1c-0.9,0.1-1.8,0.2-2.7,0.2c-0.3,0-0.5,0-0.8,0.1c-1.2,0.1-2.3,0.1-3.5,0.1
						c-0.3,0-0.5,0-0.8,0h-0.6c-1.1,0-2.2,0-3.3-0.1c-0.3,0-0.5,0-0.8,0c-1.1-0.1-2.2-0.1-3.3-0.2c-0.3,0-0.5,0-0.8-0.1
						c-0.7-0.1-1.5-0.2-2.2-0.2c-0.3,0-0.5-0.1-0.8-0.1c-0.9-0.1-1.8-0.3-2.6-0.4c-0.3,0-0.5-0.1-0.8-0.1c-0.7-0.1-1.4-0.3-2.1-0.5
						c-0.3-0.1-0.5-0.1-0.8-0.2c-0.8-0.2-1.6-0.4-2.4-0.7c-0.3-0.1-0.5-0.2-0.8-0.3c-0.8-0.3-1.5-0.6-2.2-0.9
						c-0.3-0.1-0.5-0.3-0.8-0.4c-0.6-0.4-1.2-0.7-1.7-1.1c-0.3-0.3-0.6-0.5-0.8-0.8c-0.5-0.6-0.7-1.2-0.7-1.8c0-2.6,0-8.7,0-8.7
						H1160.9z"/>
					<path class="st33" d="M1160.9,795c0,3.9-11.9,7-26.6,7c-14.7,0-26.6-3.1-26.6-7c0-3.9,11.9-7,26.6-7
						C1149,788,1160.9,791.1,1160.9,795z"/>
					<path class="st34" d="M1156.1,794.1c0,2.7-9.8,4.8-21.8,4.8s-21.8-2.2-21.8-4.8c0-2.7,9.8-4.8,21.8-4.8
						S1156.1,791.4,1156.1,794.1z"/>
					<path class="st35" d="M1113.1,795.3c2.4-2.1,11-3.6,21.2-3.6c10.2,0,18.8,1.6,21.2,3.6c0.4-0.4,0.7-0.8,0.7-1.2
						c0-2.7-9.8-4.8-21.8-4.8s-21.8,2.2-21.8,4.8C1112.5,794.5,1112.7,794.9,1113.1,795.3z"/>
					<g>
						<path class="st35" d="M1109.2,798.9v7.4c-0.3-0.3-0.6-0.5-0.8-0.8v-6.6H1109.2z"/>
						<path class="st35" d="M1111.6,801.1v6.8c-0.3-0.1-0.5-0.3-0.8-0.4v-6.4H1111.6z"/>
						<path class="st35" d="M1114.6,802.4v6.6c-0.3-0.1-0.5-0.2-0.8-0.3v-6.3H1114.6z"/>
						<path class="st35" d="M1117.7,803.3v6.6c-0.3-0.1-0.5-0.1-0.8-0.2v-6.4H1117.7z"/>
						<path class="st35" d="M1120.6,804.2v6.3c-0.3,0-0.5-0.1-0.8-0.1v-6.2H1120.6z"/>
						<path class="st35" d="M1124,804.8v6.3c-0.3,0-0.5-0.1-0.8-0.1v-6.2H1124z"/>
						<path class="st35" d="M1126.9,804.8v6.6c-0.3,0-0.5,0-0.8-0.1v-6.5H1126.9z"/>
						<path class="st35" d="M1131,804.8v6.8c-0.3,0-0.5,0-0.8,0v-6.8H1131z"/>
						<path class="st35" d="M1135.6,804.2v7.5c-0.3,0-0.5,0-0.8,0v-7.5H1135.6z"/>
						<path class="st35" d="M1139.9,803.3v8.1c-0.3,0-0.5,0-0.8,0.1v-8.2H1139.9z"/>
						<path class="st35" d="M1143.4,803.3v7.8c-0.3,0-0.5,0.1-0.8,0.1v-7.9H1143.4z"/>
						<path class="st35" d="M1148,802.4v8.1c-0.3,0-0.5,0.1-0.8,0.1v-8.2H1148z"/>
						<path class="st35" d="M1153,801.6v7.8c-0.3,0.1-0.5,0.2-0.8,0.2v-8H1153z"/>
						<path class="st35" d="M1156.9,799.5v8.4c-0.2,0.1-0.5,0.2-0.8,0.4v-8.8H1156.9z"/>
						<path class="st35" d="M1159.7,798v8c-0.2,0.2-0.5,0.4-0.8,0.6V798H1159.7z"/>
					</g>
					<path class="st36" d="M1159.7,802.2c-0.2,0.2-0.5,0.4-0.8,0.6c-0.6,0.4-1.2,0.8-2,1.2c-0.2,0.1-0.5,0.2-0.8,0.4
						c-0.9,0.4-2,0.8-3.2,1.1c-0.3,0.1-0.5,0.2-0.8,0.2c-1.3,0.3-2.7,0.7-4.2,0.9c-0.3,0-0.5,0.1-0.8,0.1c-1.2,0.2-2.5,0.4-3.8,0.5
						c-0.3,0-0.5,0.1-0.8,0.1c-0.9,0.1-1.8,0.2-2.7,0.2c-0.3,0-0.5,0-0.8,0.1c-1.2,0.1-2.3,0.1-3.5,0.1c-0.3,0-0.5,0-0.8,0h-0.6
						c-1.1,0-2.2,0-3.3-0.1c-0.3,0-0.5,0-0.8,0c-1.1-0.1-2.2-0.1-3.3-0.2c-0.3,0-0.5,0-0.8-0.1c-0.7-0.1-1.5-0.2-2.2-0.2
						c-0.3,0-0.5-0.1-0.8-0.1c-0.9-0.1-1.8-0.3-2.6-0.4c-0.3,0-0.5-0.1-0.8-0.1c-0.7-0.1-1.4-0.3-2.1-0.5c-0.3-0.1-0.5-0.1-0.8-0.2
						c-0.8-0.2-1.6-0.4-2.4-0.7c-0.3-0.1-0.5-0.2-0.8-0.3c-0.8-0.3-1.5-0.6-2.2-0.9c-0.3-0.1-0.5-0.3-0.8-0.4
						c-0.6-0.4-1.2-0.7-1.7-1.1c-0.3-0.3-0.6-0.5-0.8-0.8c-0.5-0.6-0.7-1.2-0.7-1.8c0,1.4,0,2.9,0,3.8c0,0.6,0.2,1.2,0.7,1.8
						c0.2,0.3,0.5,0.5,0.8,0.8c0.5,0.4,1,0.8,1.7,1.1c0.2,0.1,0.5,0.3,0.8,0.4c0.6,0.3,1.4,0.6,2.2,0.9c0.3,0.1,0.5,0.2,0.8,0.3
						c0.7,0.3,1.5,0.5,2.4,0.7c0.3,0.1,0.5,0.1,0.8,0.2c0.7,0.2,1.4,0.3,2.1,0.5c0.3,0.1,0.5,0.1,0.8,0.1c0.8,0.2,1.7,0.3,2.6,0.4
						c0.3,0,0.5,0.1,0.8,0.1c0.7,0.1,1.4,0.2,2.2,0.2c0.3,0,0.5,0,0.8,0.1c1.1,0.1,2.2,0.2,3.3,0.2c0.3,0,0.5,0,0.8,0
						c1.1,0,2.2,0.1,3.3,0.1h0.6c0.3,0,0.5,0,0.8,0c1.2,0,2.4-0.1,3.5-0.1c0.3,0,0.5,0,0.8-0.1c0.9-0.1,1.8-0.1,2.7-0.2
						c0.3,0,0.5-0.1,0.8-0.1c1.3-0.1,2.6-0.3,3.8-0.5c0.3,0,0.5-0.1,0.8-0.1c1.5-0.3,2.9-0.6,4.2-0.9c0.3-0.1,0.5-0.2,0.8-0.2
						c1.2-0.3,2.2-0.7,3.2-1.1c0.3-0.1,0.5-0.2,0.8-0.4c0.8-0.4,1.4-0.8,2-1.2c0.3-0.2,0.5-0.4,0.8-0.6c0.8-0.8,1.2-1.6,1.2-2.4
						v-3.8C1160.9,800.7,1160.5,801.5,1159.7,802.2z"/>
				</g>
			</g>
		</g>
		<g>
			<g>
				<g>
					<path class="st32" d="M1158.8,782.2v8.7c0,0.8-0.4,1.6-1.2,2.4c-0.2,0.2-0.5,0.4-0.8,0.6c-0.6,0.4-1.2,0.8-2,1.2
						c-0.2,0.1-0.5,0.2-0.8,0.4c-0.9,0.4-2,0.8-3.2,1.1c-0.3,0.1-0.5,0.2-0.8,0.2c-1.3,0.3-2.7,0.7-4.2,0.9c-0.3,0-0.5,0.1-0.8,0.1
						c-1.2,0.2-2.5,0.4-3.8,0.5c-0.3,0-0.5,0.1-0.8,0.1c-0.9,0.1-1.8,0.2-2.7,0.2c-0.3,0-0.5,0-0.8,0.1c-1.2,0.1-2.3,0.1-3.5,0.1
						c-0.3,0-0.5,0-0.8,0h-0.6c-1.1,0-2.2,0-3.3-0.1c-0.3,0-0.5,0-0.8,0c-1.1-0.1-2.2-0.1-3.3-0.2c-0.3,0-0.5,0-0.8-0.1
						c-0.7-0.1-1.5-0.2-2.2-0.2c-0.3,0-0.5-0.1-0.8-0.1c-0.9-0.1-1.8-0.3-2.6-0.4c-0.3,0-0.5-0.1-0.8-0.1c-0.7-0.1-1.4-0.3-2.1-0.5
						c-0.3-0.1-0.5-0.1-0.8-0.2c-0.8-0.2-1.6-0.4-2.4-0.7c-0.3-0.1-0.5-0.2-0.8-0.3c-0.8-0.3-1.5-0.6-2.2-0.9
						c-0.3-0.1-0.5-0.3-0.8-0.4c-0.6-0.4-1.2-0.7-1.7-1.1c-0.3-0.3-0.6-0.5-0.8-0.8c-0.5-0.6-0.7-1.2-0.7-1.8c0-2.6,0-8.7,0-8.7
						H1158.8z"/>
					<path class="st33" d="M1158.8,782.2c0,3.9-11.9,7-26.6,7s-26.6-3.1-26.6-7c0-3.9,11.9-7,26.6-7S1158.8,778.3,1158.8,782.2z"/>
					<path class="st34" d="M1154,781.2c0,2.7-9.8,4.8-21.8,4.8c-12.1,0-21.8-2.2-21.8-4.8c0-2.7,9.8-4.8,21.8-4.8
						C1144.3,776.4,1154,778.6,1154,781.2z"/>
					<path class="st35" d="M1111.1,782.4c2.4-2.1,11-3.6,21.2-3.6c10.2,0,18.8,1.6,21.2,3.6c0.4-0.4,0.7-0.8,0.7-1.2
						c0-2.7-9.8-4.8-21.8-4.8c-12.1,0-21.8,2.2-21.8,4.8C1110.4,781.7,1110.6,782.1,1111.1,782.4z"/>
					<g>
						<path class="st35" d="M1107.1,786.1v7.4c-0.3-0.3-0.6-0.5-0.8-0.8v-6.6H1107.1z"/>
						<path class="st35" d="M1109.6,788.3v6.8c-0.3-0.1-0.5-0.3-0.8-0.4v-6.4H1109.6z"/>
						<path class="st35" d="M1112.5,789.6v6.6c-0.3-0.1-0.5-0.2-0.8-0.3v-6.3H1112.5z"/>
						<path class="st35" d="M1115.6,790.5v6.6c-0.3-0.1-0.5-0.1-0.8-0.2v-6.4H1115.6z"/>
						<path class="st35" d="M1118.5,791.4v6.3c-0.3,0-0.5-0.1-0.8-0.1v-6.2H1118.5z"/>
						<path class="st35" d="M1121.9,791.9v6.3c-0.3,0-0.5-0.1-0.8-0.1v-6.2H1121.9z"/>
						<path class="st35" d="M1124.8,791.9v6.6c-0.3,0-0.5,0-0.8-0.1v-6.5H1124.8z"/>
						<path class="st35" d="M1128.9,791.9v6.8c-0.3,0-0.5,0-0.8,0v-6.8H1128.9z"/>
						<path class="st35" d="M1133.5,791.4v7.5c-0.3,0-0.5,0-0.8,0v-7.5H1133.5z"/>
						<path class="st35" d="M1137.9,790.5v8.1c-0.3,0-0.5,0-0.8,0.1v-8.2H1137.9z"/>
						<path class="st35" d="M1141.3,790.5v7.8c-0.3,0-0.5,0.1-0.8,0.1v-7.9H1141.3z"/>
						<path class="st35" d="M1145.9,789.6v8.1c-0.3,0-0.5,0.1-0.8,0.1v-8.2H1145.9z"/>
						<path class="st35" d="M1150.9,788.7v7.8c-0.3,0.1-0.5,0.2-0.8,0.2v-8H1150.9z"/>
						<path class="st35" d="M1154.8,786.7v8.4c-0.2,0.1-0.5,0.2-0.8,0.4v-8.8H1154.8z"/>
						<path class="st35" d="M1157.6,785.2v8c-0.2,0.2-0.5,0.4-0.8,0.6v-8.7H1157.6z"/>
					</g>
					<path class="st36" d="M1157.6,789.4c-0.2,0.2-0.5,0.4-0.8,0.6c-0.6,0.4-1.2,0.8-2,1.2c-0.2,0.1-0.5,0.2-0.8,0.3
						c-0.9,0.4-2,0.8-3.2,1.1c-0.3,0.1-0.5,0.2-0.8,0.2c-1.3,0.3-2.7,0.7-4.2,0.9c-0.3,0-0.5,0.1-0.8,0.1c-1.2,0.2-2.5,0.4-3.8,0.5
						c-0.3,0-0.5,0.1-0.8,0.1c-0.9,0.1-1.8,0.2-2.7,0.2c-0.3,0-0.5,0-0.8,0.1c-1.2,0.1-2.3,0.1-3.5,0.1c-0.3,0-0.5,0-0.8,0h-0.6
						c-1.1,0-2.2,0-3.3-0.1c-0.3,0-0.5,0-0.8,0c-1.1-0.1-2.2-0.1-3.3-0.2c-0.3,0-0.5,0-0.8-0.1c-0.7-0.1-1.5-0.2-2.2-0.2
						c-0.3,0-0.5-0.1-0.8-0.1c-0.9-0.1-1.8-0.3-2.6-0.4c-0.3,0-0.5-0.1-0.8-0.1c-0.7-0.1-1.4-0.3-2.1-0.5c-0.3-0.1-0.5-0.1-0.8-0.2
						c-0.8-0.2-1.6-0.4-2.4-0.7c-0.3-0.1-0.5-0.2-0.8-0.3c-0.8-0.3-1.5-0.6-2.2-0.9c-0.3-0.1-0.5-0.3-0.8-0.4
						c-0.6-0.4-1.2-0.7-1.7-1.1c-0.3-0.3-0.6-0.5-0.8-0.8c-0.5-0.6-0.7-1.2-0.7-1.8c0,1.4,0,2.9,0,3.8c0,0.6,0.2,1.2,0.7,1.8
						c0.2,0.3,0.5,0.5,0.8,0.8c0.5,0.4,1,0.8,1.7,1.1c0.2,0.1,0.5,0.3,0.8,0.4c0.6,0.3,1.4,0.6,2.2,0.9c0.3,0.1,0.5,0.2,0.8,0.3
						c0.7,0.3,1.5,0.5,2.4,0.7c0.3,0.1,0.5,0.1,0.8,0.2c0.7,0.2,1.4,0.3,2.1,0.5c0.3,0.1,0.5,0.1,0.8,0.1c0.8,0.2,1.7,0.3,2.6,0.4
						c0.3,0,0.5,0.1,0.8,0.1c0.7,0.1,1.4,0.2,2.2,0.2c0.3,0,0.5,0,0.8,0.1c1.1,0.1,2.2,0.2,3.3,0.2c0.3,0,0.5,0,0.8,0
						c1.1,0,2.2,0.1,3.3,0.1h0.6c0.3,0,0.5,0,0.8,0c1.2,0,2.4-0.1,3.5-0.1c0.3,0,0.5,0,0.8-0.1c0.9-0.1,1.8-0.1,2.7-0.2
						c0.3,0,0.5-0.1,0.8-0.1c1.3-0.1,2.6-0.3,3.8-0.5c0.3,0,0.5-0.1,0.8-0.1c1.5-0.3,2.9-0.6,4.2-0.9c0.3-0.1,0.5-0.2,0.8-0.2
						c1.2-0.3,2.2-0.7,3.2-1.1c0.3-0.1,0.5-0.2,0.8-0.4c0.8-0.4,1.4-0.8,2-1.2c0.3-0.2,0.6-0.4,0.8-0.6c0.8-0.8,1.2-1.6,1.2-2.4V787
						C1158.8,787.9,1158.4,788.7,1157.6,789.4z"/>
				</g>
				<g>
					<path class="st32" d="M1156.5,771.6v8.7c0,0.8-0.4,1.6-1.2,2.4c-0.2,0.2-0.5,0.4-0.8,0.6c-0.6,0.4-1.2,0.8-2,1.2
						c-0.2,0.1-0.5,0.2-0.8,0.3c-0.9,0.4-2,0.8-3.2,1.1c-0.3,0.1-0.5,0.2-0.8,0.2c-1.3,0.3-2.7,0.7-4.2,0.9c-0.3,0-0.5,0.1-0.8,0.1
						c-1.2,0.2-2.5,0.4-3.8,0.5c-0.3,0-0.5,0.1-0.8,0.1c-0.9,0.1-1.8,0.2-2.7,0.2c-0.3,0-0.5,0-0.8,0.1c-1.2,0.1-2.3,0.1-3.5,0.1
						c-0.3,0-0.5,0-0.8,0h-0.6c-1.1,0-2.2,0-3.3-0.1c-0.3,0-0.5,0-0.8,0c-1.1-0.1-2.2-0.1-3.3-0.2c-0.3,0-0.5,0-0.8-0.1
						c-0.7-0.1-1.5-0.2-2.2-0.2c-0.3,0-0.5-0.1-0.8-0.1c-0.9-0.1-1.8-0.3-2.6-0.4c-0.3,0-0.5-0.1-0.8-0.1c-0.7-0.1-1.4-0.3-2.1-0.5
						c-0.3-0.1-0.5-0.1-0.8-0.2c-0.8-0.2-1.6-0.4-2.4-0.7c-0.3-0.1-0.5-0.2-0.8-0.3c-0.8-0.3-1.5-0.6-2.2-0.9
						c-0.3-0.1-0.5-0.3-0.8-0.4c-0.6-0.4-1.2-0.7-1.7-1.1c-0.3-0.3-0.6-0.5-0.8-0.8c-0.5-0.6-0.7-1.2-0.7-1.8c0-2.6,0-8.7,0-8.7
						H1156.5z"/>
					<path class="st33" d="M1156.5,771.6c0,3.9-11.9,7-26.6,7c-14.7,0-26.6-3.1-26.6-7c0-3.9,11.9-7,26.6-7
						C1144.6,764.6,1156.5,767.7,1156.5,771.6z"/>
					<path class="st34" d="M1151.7,770.7c0,2.7-9.8,4.8-21.8,4.8c-12.1,0-21.8-2.2-21.8-4.8c0-2.7,9.8-4.8,21.8-4.8
						C1142,765.8,1151.7,768,1151.7,770.7z"/>
					<path class="st35" d="M1108.8,771.9c2.4-2.1,11-3.6,21.2-3.6c10.2,0,18.8,1.6,21.2,3.6c0.4-0.4,0.7-0.8,0.7-1.2
						c0-2.7-9.8-4.8-21.8-4.8c-12.1,0-21.8,2.2-21.8,4.8C1108.1,771.1,1108.3,771.5,1108.8,771.9z"/>
					<g>
						<path class="st35" d="M1104.8,775.5v7.4c-0.3-0.3-0.6-0.5-0.8-0.8v-6.6H1104.8z"/>
						<path class="st35" d="M1107.3,777.7v6.8c-0.3-0.1-0.5-0.3-0.8-0.4v-6.4H1107.3z"/>
						<path class="st35" d="M1110.2,779v6.6c-0.3-0.1-0.5-0.2-0.8-0.3V779H1110.2z"/>
						<path class="st35" d="M1113.4,779.9v6.6c-0.3-0.1-0.5-0.1-0.8-0.2v-6.4H1113.4z"/>
						<path class="st35" d="M1116.2,780.8v6.3c-0.3,0-0.5-0.1-0.8-0.1v-6.2H1116.2z"/>
						<path class="st35" d="M1119.6,781.4v6.3c-0.3,0-0.5-0.1-0.8-0.1v-6.2H1119.6z"/>
						<path class="st35" d="M1122.6,781.4v6.6c-0.3,0-0.5,0-0.8-0.1v-6.5H1122.6z"/>
						<path class="st35" d="M1126.6,781.4v6.8c-0.3,0-0.5,0-0.8,0v-6.8H1126.6z"/>
						<path class="st35" d="M1131.2,780.8v7.5c-0.3,0-0.5,0-0.8,0v-7.5H1131.2z"/>
						<path class="st35" d="M1135.6,779.9v8.1c-0.3,0-0.5,0-0.8,0.1v-8.2H1135.6z"/>
						<path class="st35" d="M1139.1,779.9v7.8c-0.3,0-0.5,0.1-0.8,0.1v-7.9H1139.1z"/>
						<path class="st35" d="M1143.7,779v8.1c-0.3,0-0.5,0.1-0.8,0.1V779H1143.7z"/>
						<path class="st35" d="M1148.6,778.2v7.8c-0.3,0.1-0.5,0.2-0.8,0.2v-8H1148.6z"/>
						<path class="st35" d="M1152.5,776.1v8.4c-0.2,0.1-0.5,0.2-0.8,0.3v-8.8H1152.5z"/>
						<path class="st35" d="M1155.3,774.6v8c-0.2,0.2-0.5,0.4-0.8,0.6v-8.7H1155.3z"/>
					</g>
					<path class="st36" d="M1155.3,778.8c-0.2,0.2-0.5,0.4-0.8,0.6c-0.6,0.4-1.2,0.8-2,1.2c-0.2,0.1-0.5,0.2-0.8,0.3
						c-0.9,0.4-2,0.8-3.2,1.1c-0.3,0.1-0.5,0.2-0.8,0.2c-1.3,0.3-2.7,0.7-4.2,0.9c-0.3,0-0.5,0.1-0.8,0.1c-1.2,0.2-2.5,0.4-3.8,0.5
						c-0.3,0-0.5,0.1-0.8,0.1c-0.9,0.1-1.8,0.2-2.7,0.2c-0.3,0-0.5,0-0.8,0.1c-1.2,0.1-2.3,0.1-3.5,0.1c-0.3,0-0.5,0-0.8,0h-0.6
						c-1.1,0-2.2,0-3.3-0.1c-0.3,0-0.5,0-0.8,0c-1.1-0.1-2.2-0.1-3.3-0.2c-0.3,0-0.5,0-0.8-0.1c-0.7-0.1-1.5-0.2-2.2-0.2
						c-0.3,0-0.5-0.1-0.8-0.1c-0.9-0.1-1.8-0.3-2.6-0.4c-0.3,0-0.5-0.1-0.8-0.1c-0.7-0.1-1.4-0.3-2.1-0.5c-0.3-0.1-0.5-0.1-0.8-0.2
						c-0.8-0.2-1.6-0.4-2.4-0.7c-0.3-0.1-0.5-0.2-0.8-0.3c-0.8-0.3-1.5-0.6-2.2-0.9c-0.3-0.1-0.5-0.3-0.8-0.4
						c-0.6-0.4-1.2-0.7-1.7-1.1c-0.3-0.3-0.6-0.5-0.8-0.8c-0.5-0.6-0.7-1.2-0.7-1.8c0,1.4,0,2.9,0,3.8c0,0.6,0.2,1.2,0.7,1.8
						c0.2,0.3,0.5,0.5,0.8,0.8c0.5,0.4,1,0.8,1.7,1.1c0.2,0.1,0.5,0.3,0.8,0.4c0.6,0.3,1.4,0.6,2.2,0.9c0.3,0.1,0.5,0.2,0.8,0.3
						c0.7,0.3,1.5,0.5,2.4,0.7c0.3,0.1,0.5,0.1,0.8,0.2c0.7,0.2,1.4,0.3,2.1,0.5c0.3,0.1,0.5,0.1,0.8,0.1c0.8,0.2,1.7,0.3,2.6,0.4
						c0.3,0,0.5,0.1,0.8,0.1c0.7,0.1,1.4,0.2,2.2,0.2c0.3,0,0.5,0,0.8,0.1c1.1,0.1,2.2,0.2,3.3,0.2c0.3,0,0.5,0,0.8,0
						c1.1,0,2.2,0.1,3.3,0.1h0.6c0.3,0,0.5,0,0.8,0c1.2,0,2.4-0.1,3.5-0.1c0.3,0,0.5,0,0.8-0.1c0.9-0.1,1.8-0.1,2.7-0.2
						c0.3,0,0.5-0.1,0.8-0.1c1.3-0.1,2.6-0.3,3.8-0.5c0.3,0,0.5-0.1,0.8-0.1c1.5-0.3,2.9-0.6,4.2-0.9c0.3-0.1,0.5-0.2,0.8-0.2
						c1.2-0.3,2.2-0.7,3.2-1.1c0.3-0.1,0.5-0.2,0.8-0.3c0.8-0.4,1.4-0.8,2-1.2c0.3-0.2,0.5-0.4,0.8-0.6c0.8-0.8,1.2-1.6,1.2-2.4
						v-3.8C1156.5,777.3,1156.1,778.1,1155.3,778.8z"/>
				</g>
				<g>
					<path class="st32" d="M1158.8,760.5v8.7c0,0.8-0.4,1.6-1.2,2.4c-0.2,0.2-0.5,0.4-0.8,0.6c-0.6,0.4-1.2,0.8-2,1.2
						c-0.2,0.1-0.5,0.2-0.8,0.3c-0.9,0.4-2,0.8-3.2,1.1c-0.3,0.1-0.5,0.2-0.8,0.2c-1.3,0.3-2.7,0.7-4.2,0.9c-0.3,0-0.5,0.1-0.8,0.1
						c-1.2,0.2-2.5,0.4-3.8,0.5c-0.3,0-0.5,0.1-0.8,0.1c-0.9,0.1-1.8,0.2-2.7,0.2c-0.3,0-0.5,0-0.8,0.1c-1.2,0.1-2.3,0.1-3.5,0.1
						c-0.3,0-0.5,0-0.8,0h-0.6c-1.1,0-2.2,0-3.3-0.1c-0.3,0-0.5,0-0.8,0c-1.1-0.1-2.2-0.1-3.3-0.2c-0.3,0-0.5,0-0.8-0.1
						c-0.7-0.1-1.5-0.2-2.2-0.2c-0.3,0-0.5-0.1-0.8-0.1c-0.9-0.1-1.8-0.3-2.6-0.4c-0.3,0-0.5-0.1-0.8-0.1c-0.7-0.1-1.4-0.3-2.1-0.5
						c-0.3-0.1-0.5-0.1-0.8-0.2c-0.8-0.2-1.6-0.4-2.4-0.7c-0.3-0.1-0.5-0.2-0.8-0.3c-0.8-0.3-1.5-0.6-2.2-0.9
						c-0.3-0.1-0.5-0.3-0.8-0.4c-0.6-0.4-1.2-0.7-1.7-1.1c-0.3-0.3-0.6-0.5-0.8-0.8c-0.5-0.6-0.7-1.2-0.7-1.8c0-2.6,0-8.7,0-8.7
						H1158.8z"/>
					<ellipse class="st33" cx="1132.2" cy="760.5" rx="26.6" ry="7"/>
					<path class="st34" d="M1154,759.6c0,2.7-9.8,4.8-21.8,4.8c-12.1,0-21.8-2.2-21.8-4.8c0-2.7,9.8-4.8,21.8-4.8
						C1144.3,754.7,1154,756.9,1154,759.6z"/>
					<path class="st35" d="M1111.1,760.8c2.4-2.1,11-3.6,21.2-3.6c10.2,0,18.8,1.6,21.2,3.6c0.4-0.4,0.7-0.8,0.7-1.2
						c0-2.7-9.8-4.8-21.8-4.8c-12.1,0-21.8,2.2-21.8,4.8C1110.4,760,1110.6,760.4,1111.1,760.8z"/>
					<g>
						<path class="st35" d="M1107.1,764.4v7.4c-0.3-0.3-0.6-0.5-0.8-0.8v-6.6H1107.1z"/>
						<path class="st35" d="M1109.6,766.6v6.8c-0.3-0.1-0.5-0.3-0.8-0.4v-6.4H1109.6z"/>
						<path class="st35" d="M1112.5,767.9v6.6c-0.3-0.1-0.5-0.2-0.8-0.3v-6.3H1112.5z"/>
						<path class="st35" d="M1115.6,768.8v6.6c-0.3-0.1-0.5-0.1-0.8-0.2v-6.4H1115.6z"/>
						<path class="st35" d="M1118.5,769.7v6.3c-0.3,0-0.5-0.1-0.8-0.1v-6.2H1118.5z"/>
						<path class="st35" d="M1121.9,770.3v6.3c-0.3,0-0.5-0.1-0.8-0.1v-6.2H1121.9z"/>
						<path class="st35" d="M1124.8,770.3v6.6c-0.3,0-0.5,0-0.8-0.1v-6.5H1124.8z"/>
						<path class="st35" d="M1128.9,770.3v6.8c-0.3,0-0.5,0-0.8,0v-6.8H1128.9z"/>
						<path class="st35" d="M1133.5,769.7v7.5c-0.3,0-0.5,0-0.8,0v-7.5H1133.5z"/>
						<path class="st35" d="M1137.9,768.8v8.1c-0.3,0-0.5,0-0.8,0.1v-8.2H1137.9z"/>
						<path class="st35" d="M1141.3,768.8v7.8c-0.3,0-0.5,0.1-0.8,0.1v-7.9H1141.3z"/>
						<path class="st35" d="M1145.9,767.9v8.1c-0.3,0-0.5,0.1-0.8,0.1v-8.2H1145.9z"/>
						<path class="st35" d="M1150.9,767.1v7.8c-0.3,0.1-0.5,0.2-0.8,0.2v-8H1150.9z"/>
						<path class="st35" d="M1154.8,765v8.4c-0.2,0.1-0.5,0.2-0.8,0.3V765H1154.8z"/>
						<path class="st35" d="M1157.6,763.5v8c-0.2,0.2-0.5,0.4-0.8,0.6v-8.7H1157.6z"/>
					</g>
					<path class="st36" d="M1157.6,767.7c-0.2,0.2-0.5,0.4-0.8,0.6c-0.6,0.4-1.2,0.8-2,1.2c-0.2,0.1-0.5,0.2-0.8,0.4
						c-0.9,0.4-2,0.8-3.2,1.1c-0.3,0.1-0.5,0.2-0.8,0.2c-1.3,0.3-2.7,0.7-4.2,0.9c-0.3,0-0.5,0.1-0.8,0.1c-1.2,0.2-2.5,0.4-3.8,0.5
						c-0.3,0-0.5,0.1-0.8,0.1c-0.9,0.1-1.8,0.2-2.7,0.2c-0.3,0-0.5,0-0.8,0.1c-1.2,0.1-2.3,0.1-3.5,0.1c-0.3,0-0.5,0-0.8,0h-0.6
						c-1.1,0-2.2,0-3.3-0.1c-0.3,0-0.5,0-0.8,0c-1.1-0.1-2.2-0.1-3.3-0.2c-0.3,0-0.5,0-0.8-0.1c-0.7-0.1-1.5-0.2-2.2-0.2
						c-0.3,0-0.5-0.1-0.8-0.1c-0.9-0.1-1.8-0.3-2.6-0.4c-0.3,0-0.5-0.1-0.8-0.1c-0.7-0.1-1.4-0.3-2.1-0.5c-0.3-0.1-0.5-0.1-0.8-0.2
						c-0.8-0.2-1.6-0.4-2.4-0.7c-0.3-0.1-0.5-0.2-0.8-0.3c-0.8-0.3-1.5-0.6-2.2-0.9c-0.3-0.1-0.5-0.3-0.8-0.4
						c-0.6-0.4-1.2-0.7-1.7-1.1c-0.3-0.3-0.6-0.5-0.8-0.8c-0.5-0.6-0.7-1.2-0.7-1.8c0,1.4,0,2.9,0,3.8c0,0.6,0.2,1.2,0.7,1.8
						c0.2,0.3,0.5,0.5,0.8,0.8c0.5,0.4,1,0.8,1.7,1.1c0.2,0.1,0.5,0.3,0.8,0.4c0.6,0.3,1.4,0.6,2.2,0.9c0.3,0.1,0.5,0.2,0.8,0.3
						c0.7,0.3,1.5,0.5,2.4,0.7c0.3,0.1,0.5,0.1,0.8,0.2c0.7,0.2,1.4,0.3,2.1,0.5c0.3,0.1,0.5,0.1,0.8,0.1c0.8,0.2,1.7,0.3,2.6,0.4
						c0.3,0,0.5,0.1,0.8,0.1c0.7,0.1,1.4,0.2,2.2,0.2c0.3,0,0.5,0,0.8,0.1c1.1,0.1,2.2,0.2,3.3,0.2c0.3,0,0.5,0,0.8,0
						c1.1,0,2.2,0.1,3.3,0.1h0.6c0.3,0,0.5,0,0.8,0c1.2,0,2.4-0.1,3.5-0.1c0.3,0,0.5,0,0.8-0.1c0.9-0.1,1.8-0.1,2.7-0.2
						c0.3,0,0.5-0.1,0.8-0.1c1.3-0.1,2.6-0.3,3.8-0.5c0.3,0,0.5-0.1,0.8-0.1c1.5-0.3,2.9-0.6,4.2-0.9c0.3-0.1,0.5-0.2,0.8-0.2
						c1.2-0.3,2.2-0.7,3.2-1.1c0.3-0.1,0.5-0.2,0.8-0.3c0.8-0.4,1.4-0.8,2-1.2c0.3-0.2,0.6-0.4,0.8-0.6c0.8-0.8,1.2-1.6,1.2-2.4
						v-3.8C1158.8,766.2,1158.4,767,1157.6,767.7z"/>
				</g>
				<g>
					<path class="st32" d="M1161.7,749.9v8.7c0,0.8-0.4,1.6-1.2,2.4c-0.2,0.2-0.5,0.4-0.8,0.6c-0.6,0.4-1.2,0.8-2,1.2
						c-0.2,0.1-0.5,0.2-0.8,0.3c-0.9,0.4-2,0.8-3.2,1.1c-0.3,0.1-0.5,0.2-0.8,0.2c-1.3,0.3-2.7,0.7-4.2,0.9c-0.3,0-0.5,0.1-0.8,0.1
						c-1.2,0.2-2.5,0.4-3.8,0.5c-0.3,0-0.5,0.1-0.8,0.1c-0.9,0.1-1.8,0.2-2.7,0.2c-0.3,0-0.5,0-0.8,0.1c-1.2,0.1-2.3,0.1-3.5,0.1
						c-0.3,0-0.5,0-0.8,0h-0.6c-1.1,0-2.2,0-3.3-0.1c-0.3,0-0.5,0-0.8,0c-1.1-0.1-2.2-0.1-3.3-0.2c-0.3,0-0.5,0-0.8-0.1
						c-0.7-0.1-1.5-0.2-2.2-0.2c-0.3,0-0.5-0.1-0.8-0.1c-0.9-0.1-1.8-0.3-2.6-0.4c-0.3,0-0.5-0.1-0.8-0.1c-0.7-0.1-1.4-0.3-2.1-0.5
						c-0.3-0.1-0.5-0.1-0.8-0.2c-0.8-0.2-1.6-0.4-2.4-0.7c-0.3-0.1-0.5-0.2-0.8-0.3c-0.8-0.3-1.5-0.6-2.2-0.9
						c-0.3-0.1-0.5-0.3-0.8-0.4c-0.6-0.4-1.2-0.7-1.7-1.1c-0.3-0.3-0.6-0.5-0.8-0.8c-0.5-0.6-0.7-1.2-0.7-1.8c0-2.6,0-8.7,0-8.7
						H1161.7z"/>
					<path class="st33" d="M1161.7,749.9c0,3.9-11.9,7-26.6,7s-26.6-3.1-26.6-7c0-3.9,11.9-7,26.6-7S1161.7,746,1161.7,749.9z"/>
					<path class="st34" d="M1156.9,749c0,2.7-9.8,4.8-21.8,4.8c-12.1,0-21.8-2.2-21.8-4.8c0-2.7,9.8-4.8,21.8-4.8
						C1147.1,744.2,1156.9,746.3,1156.9,749z"/>
					<path class="st35" d="M1113.9,750.2c2.4-2.1,11-3.6,21.2-3.6c10.2,0,18.8,1.6,21.2,3.6c0.4-0.4,0.7-0.8,0.7-1.2
						c0-2.7-9.8-4.8-21.8-4.8c-12.1,0-21.8,2.2-21.8,4.8C1113.2,749.4,1113.5,749.8,1113.9,750.2z"/>
					<g>
						<path class="st35" d="M1110,753.8v7.4c-0.3-0.3-0.6-0.5-0.8-0.8v-6.6H1110z"/>
						<path class="st35" d="M1112.4,756v6.8c-0.3-0.1-0.5-0.3-0.8-0.4V756H1112.4z"/>
						<path class="st35" d="M1115.4,757.3v6.6c-0.3-0.1-0.5-0.2-0.8-0.3v-6.3H1115.4z"/>
						<path class="st35" d="M1118.5,758.2v6.6c-0.3-0.1-0.5-0.1-0.8-0.2v-6.4H1118.5z"/>
						<path class="st35" d="M1121.4,759.1v6.3c-0.3,0-0.5-0.1-0.8-0.1v-6.2H1121.4z"/>
						<path class="st35" d="M1124.8,759.7v6.3c-0.3,0-0.5-0.1-0.8-0.1v-6.2H1124.8z"/>
						<path class="st35" d="M1127.7,759.7v6.6c-0.3,0-0.5,0-0.8-0.1v-6.5H1127.7z"/>
						<path class="st35" d="M1131.7,759.7v6.8c-0.3,0-0.5,0-0.8,0v-6.8H1131.7z"/>
						<path class="st35" d="M1136.4,759.1v7.5c-0.3,0-0.5,0-0.8,0v-7.5H1136.4z"/>
						<path class="st35" d="M1140.7,758.2v8.1c-0.3,0-0.5,0-0.8,0.1v-8.2H1140.7z"/>
						<path class="st35" d="M1144.2,758.2v7.8c-0.3,0-0.5,0.1-0.8,0.1v-7.9H1144.2z"/>
						<path class="st35" d="M1148.8,757.3v8.1c-0.3,0-0.5,0.1-0.8,0.1v-8.2H1148.8z"/>
						<path class="st35" d="M1153.7,756.5v7.8c-0.3,0.1-0.5,0.2-0.8,0.2v-8H1153.7z"/>
						<path class="st35" d="M1157.7,754.4v8.4c-0.2,0.1-0.5,0.2-0.8,0.3v-8.8H1157.7z"/>
						<path class="st35" d="M1160.4,753v8c-0.2,0.2-0.5,0.4-0.8,0.6V753H1160.4z"/>
					</g>
					<path class="st36" d="M1160.4,757.2c-0.2,0.2-0.5,0.4-0.8,0.6c-0.6,0.4-1.2,0.8-2,1.2c-0.2,0.1-0.5,0.2-0.8,0.4
						c-0.9,0.4-2,0.8-3.2,1.1c-0.3,0.1-0.5,0.2-0.8,0.2c-1.3,0.3-2.7,0.7-4.2,0.9c-0.3,0-0.5,0.1-0.8,0.1c-1.2,0.2-2.5,0.4-3.8,0.5
						c-0.3,0-0.5,0.1-0.8,0.1c-0.9,0.1-1.8,0.2-2.7,0.2c-0.3,0-0.5,0-0.8,0.1c-1.2,0.1-2.3,0.1-3.5,0.1c-0.3,0-0.5,0-0.8,0h-0.6
						c-1.1,0-2.2,0-3.3-0.1c-0.3,0-0.5,0-0.8,0c-1.1-0.1-2.2-0.1-3.3-0.2c-0.3,0-0.5,0-0.8-0.1c-0.7-0.1-1.5-0.2-2.2-0.2
						c-0.3,0-0.5-0.1-0.8-0.1c-0.9-0.1-1.8-0.3-2.6-0.4c-0.3,0-0.5-0.1-0.8-0.1c-0.7-0.1-1.4-0.3-2.1-0.5c-0.3-0.1-0.5-0.1-0.8-0.2
						c-0.8-0.2-1.6-0.4-2.4-0.7c-0.3-0.1-0.5-0.2-0.8-0.3c-0.8-0.3-1.5-0.6-2.2-0.9c-0.3-0.1-0.5-0.3-0.8-0.4
						c-0.6-0.4-1.2-0.7-1.7-1.1c-0.3-0.3-0.6-0.5-0.8-0.8c-0.5-0.6-0.7-1.2-0.7-1.8c0,1.4,0,2.9,0,3.8c0,0.6,0.2,1.2,0.7,1.8
						c0.2,0.3,0.5,0.5,0.8,0.8c0.5,0.4,1,0.8,1.7,1.1c0.2,0.1,0.5,0.3,0.8,0.4c0.6,0.3,1.4,0.6,2.2,0.9c0.3,0.1,0.5,0.2,0.8,0.3
						c0.7,0.3,1.5,0.5,2.4,0.7c0.3,0.1,0.5,0.1,0.8,0.2c0.7,0.2,1.4,0.3,2.1,0.5c0.3,0.1,0.5,0.1,0.8,0.1c0.8,0.2,1.7,0.3,2.6,0.4
						c0.3,0,0.5,0.1,0.8,0.1c0.7,0.1,1.4,0.2,2.2,0.2c0.3,0,0.5,0,0.8,0.1c1.1,0.1,2.2,0.2,3.3,0.2c0.3,0,0.5,0,0.8,0
						c1.1,0,2.2,0.1,3.3,0.1h0.6c0.3,0,0.5,0,0.8,0c1.2,0,2.4-0.1,3.5-0.1c0.3,0,0.5,0,0.8-0.1c0.9-0.1,1.8-0.1,2.7-0.2
						c0.3,0,0.5-0.1,0.8-0.1c1.3-0.1,2.6-0.3,3.8-0.5c0.3,0,0.5-0.1,0.8-0.1c1.5-0.3,2.9-0.6,4.2-0.9c0.3-0.1,0.5-0.2,0.8-0.2
						c1.2-0.3,2.2-0.7,3.2-1.1c0.3-0.1,0.5-0.2,0.8-0.3c0.8-0.4,1.4-0.8,2-1.2c0.3-0.2,0.5-0.4,0.8-0.6c0.8-0.8,1.2-1.6,1.2-2.4
						v-3.8C1161.7,755.6,1161.2,756.4,1160.4,757.2z"/>
				</g>
			</g>
		</g>
		<g>
			<path class="st37" d="M1175.9,843.3c-0.3,0.3-0.7,0.5-1,0.8c-0.3,0.2-0.6,0.4-0.9,0.6c-0.7,0.4-1.3,0.8-2,1.2
				c-0.3,0.2-0.7,0.3-1,0.5c-1.4,0.6-2.8,1.1-4.3,1.5c-0.4,0.1-0.8,0.2-1.2,0.3c-0.9,0.2-1.9,0.3-2.8,0.3c-0.4,0-0.9,0.1-1.3,0
				c-1,0-2.1,0-3.1-0.2c-0.5-0.1-1.1-0.2-1.6-0.3c-1.2-0.2-2.4-0.6-3.6-1c-0.7-0.3-1.4-0.6-2.1-0.9c-3-1.5-5.7-3.6-7.9-6.3l-3.3-4.1
				l36.3-29.2c0,0,1,1.2,3.3,4.1c2.4,3,3.9,6.4,4.7,9.9c0.2,0.7,0.3,1.4,0.3,2.1c0.1,1.3,0.2,2.5,0.1,3.8c0,0.5-0.1,1-0.1,1.5
				c-0.2,1.7-0.6,3.4-1.2,5c-0.1,0.4-0.3,0.8-0.4,1.1c-0.6,1.5-1.4,2.9-2.3,4.2c-0.2,0.3-0.4,0.6-0.6,0.9c-0.7,0.9-1.5,1.8-2.3,2.7
				c-0.2,0.3-0.5,0.5-0.8,0.7C1176.5,842.8,1176.2,843.1,1175.9,843.3z"/>
			<g>
				<path class="st38" d="M1174.8,844.1c-0.3,0.2-0.6,0.4-0.9,0.6l-4.1-5.1l0.8-0.7L1174.8,844.1z"/>
				<path class="st38" d="M1171.9,845.9c-0.3,0.2-0.7,0.3-1,0.5l-5-6.2l0.8-0.7L1171.9,845.9z"/>
				<path class="st38" d="M1166.7,847.8c-0.4,0.1-0.8,0.2-1.2,0.3l-4.9-6.1l0.8-0.7L1166.7,847.8z"/>
				<path class="st38" d="M1162.7,848.4c-0.4,0-0.9,0.1-1.3,0l-5.1-6.4l0.8-0.7L1162.7,848.4z"/>
				<path class="st38" d="M1158.3,848.3c-0.5-0.1-1.1-0.2-1.6-0.3l-4.8-6l0.8-0.7L1158.3,848.3z"/>
				<path class="st38" d="M1153.1,847c-0.7-0.3-1.4-0.6-2.1-0.9l-4.1-5.1l0.8-0.7L1153.1,847z"/>
				<path class="st38" d="M1176.8,842.5l-4.4-5.5l0.8-0.7l4.4,5.4C1177.3,842.1,1177,842.3,1176.8,842.5z"/>
				<path class="st38" d="M1179.9,839.2l-4.5-5.6l0.8-0.7l4.3,5.3C1180.3,838.6,1180.1,838.9,1179.9,839.2z"/>
				<path class="st38" d="M1182.8,834.1l-4.5-5.6l0.8-0.7l4.1,5.1C1183.1,833.3,1182.9,833.7,1182.8,834.1z"/>
				<path class="st38" d="M1184.4,827.9l-5-6.2l0.8-0.7l4.3,5.4C1184.5,826.9,1184.4,827.4,1184.4,827.9z"/>
				<path class="st38" d="M1184.4,822.6l-4.9-6l0.8-0.7l3.7,4.6C1184.2,821.1,1184.3,821.9,1184.4,822.6z"/>
			</g>
			<path class="st34" d="M1172.5,839.2c-10,8.1-24.7,6.5-32.8-3.6c-8.1-10-6.5-24.7,3.6-32.8c10-8.1,24.7-6.5,32.8,3.6
				C1184.2,816.5,1182.6,831.1,1172.5,839.2z"/>
			<path class="st39" d="M1170.1,836.1c-8.3,6.7-20.5,5.4-27.2-3c-6.7-8.3-5.4-20.5,3-27.2c8.3-6.7,20.5-5.4,27.2,3
				C1179.7,817.2,1178.4,829.4,1170.1,836.1z"/>
			<path class="st40" d="M1145.1,833.4c-6.7-8.3-5.4-20.5,3-27.2c3.8-3.1,8.5-4.5,13.1-4.2c-5.3-0.9-10.9,0.4-15.3,4
				c-8.3,6.7-9.7,18.9-3,27.2c3.6,4.5,8.8,6.9,14.1,7.2C1152.5,839.6,1148.2,837.2,1145.1,833.4z"/>
			<g>
				<path class="st37" d="M1145.9,831l3.1-2.5c-1.4-1.8-2.4-4.1-2.4-5.8l2.7-0.9c0.2,1.7,0.9,3.8,2.3,5.5c1.8,2.2,4.2,2.7,6,1.2
					c1.7-1.4,1.8-3.4,0.9-6.5c-1.3-4.2-1.4-7.3,1.3-9.4c2.6-2.1,6-1.8,8.8,0.7l3.1-2.5l1.5,1.9l-3,2.4c1.4,1.9,2,3.6,2.2,4.9
					l-2.7,0.9c-0.2-0.9-0.5-2.8-2.1-4.8c-1.9-2.4-4.1-2.1-5.3-1.1c-1.6,1.3-1.5,3.1-0.4,6.7c1.3,4.2,0.9,7.1-1.8,9.4
					c-2.4,2-6.1,2.1-9.2-0.7l-3.2,2.6L1145.9,831z"/>
			</g>
		</g>
		<g>
			<path class="st37" d="M1165.3,828.9c0,0.4,0,0.9,0,1.3c0,0.4,0,0.7-0.1,1.1c-0.1,0.8-0.2,1.6-0.4,2.3c-0.1,0.4-0.1,0.7-0.2,1.1
				c-0.4,1.5-0.9,2.9-1.5,4.2c-0.2,0.4-0.3,0.7-0.5,1.1c-0.5,0.8-0.9,1.6-1.5,2.4c-0.2,0.4-0.5,0.7-0.8,1.1
				c-0.6,0.8-1.3,1.6-2.1,2.3c-0.4,0.4-0.8,0.7-1.2,1.1c-1,0.8-2,1.5-3.1,2.2c-0.7,0.4-1.3,0.7-2,1.1c-3,1.4-6.3,2.2-9.9,2.2h-5.3
				v-46.6c0,0,1.6,0,5.3,0c3.8,0,7.4,0.9,10.6,2.6c0.6,0.3,1.3,0.7,1.9,1.1c1.1,0.7,2.1,1.5,3,2.3c0.4,0.3,0.8,0.7,1.1,1.1
				c1.2,1.2,2.3,2.6,3.2,4c0.2,0.3,0.4,0.7,0.6,1.1c0.8,1.4,1.4,2.8,1.8,4.4c0.1,0.4,0.2,0.7,0.3,1.1c0.3,1.1,0.5,2.3,0.6,3.5
				c0,0.4,0.1,0.7,0.1,1.1C1165.3,828.1,1165.3,828.5,1165.3,828.9z"/>
			<g>
				<path class="st38" d="M1165.3,830.2c0,0.4,0,0.7-0.1,1.1h-6.5v-1.1H1165.3z"/>
				<path class="st38" d="M1164.8,833.6c-0.1,0.4-0.1,0.7-0.2,1.1h-8v-1.1H1164.8z"/>
				<path class="st38" d="M1163,838.9c-0.2,0.4-0.3,0.7-0.5,1.1h-7.9v-1.1H1163z"/>
				<path class="st38" d="M1161,842.4c-0.2,0.4-0.5,0.7-0.8,1.1h-8.2v-1.1H1161z"/>
				<path class="st38" d="M1158.1,845.7c-0.4,0.4-0.8,0.7-1.2,1.1h-7.7v-1.1H1158.1z"/>
				<path class="st38" d="M1153.9,849c-0.7,0.4-1.3,0.7-2,1.1h-6.6V849H1153.9z"/>
				<path class="st38" d="M1165.3,827.7h-7v-1.1h7C1165.2,827,1165.2,827.4,1165.3,827.7z"/>
				<path class="st38" d="M1164.6,823.2h-7.2v-1.1h6.9C1164.4,822.5,1164.5,822.8,1164.6,823.2z"/>
				<path class="st38" d="M1162.4,817.7h-7.2v-1.1h6.6C1162,817,1162.2,817.4,1162.4,817.7z"/>
				<path class="st38" d="M1158.6,812.6h-8v-1.1h6.9C1157.9,811.9,1158.3,812.3,1158.6,812.6z"/>
				<path class="st38" d="M1154.5,809.3h-7.7v-1.1h5.9C1153.3,808.5,1153.9,808.9,1154.5,809.3z"/>
			</g>
			<path class="st34" d="M1160,828.9c0,12.9-10.4,23.3-23.3,23.3c-12.9,0-23.3-10.4-23.3-23.3c0-12.9,10.4-23.3,23.3-23.3
				C1149.6,805.6,1160,816.1,1160,828.9z"/>
			<path class="st39" d="M1156,828.9c0,10.7-8.7,19.3-19.3,19.3c-10.7,0-19.3-8.7-19.3-19.3c0-10.7,8.7-19.3,19.3-19.3
				C1147.4,809.6,1156,818.3,1156,828.9z"/>
			<path class="st40" d="M1138.3,846.7c-10.7,0-19.3-8.7-19.3-19.3c0-4.9,1.8-9.4,4.9-12.8c-4,3.5-6.5,8.7-6.5,14.5
				c0,10.7,8.7,19.3,19.3,19.3c5.8,0,10.9-2.5,14.5-6.5C1147.7,844.8,1143.2,846.7,1138.3,846.7z"/>
			<g>
				<path class="st37" d="M1136.9,844.5v-4c-2.3,0-4.7-0.8-6.1-1.7l1-2.7c1.4,1,3.5,1.7,5.7,1.7c2.8,0,4.7-1.6,4.7-3.9
					c0-2.2-1.6-3.5-4.5-4.7c-4.1-1.6-6.6-3.4-6.6-6.9c0-3.3,2.3-5.8,6-6.4v-4h2.5v3.9c2.4,0.1,4,0.7,5.2,1.4l-1,2.6
					c-0.8-0.5-2.5-1.4-5-1.4c-3.1,0-4.2,1.8-4.2,3.4c0,2.1,1.5,3.1,4.9,4.5c4.1,1.7,6.2,3.7,6.2,7.3c0,3.1-2.2,6.1-6.3,6.8v4.1
					H1136.9z"/>
			</g>
		</g>
	</g>
</g>
</svg>
