<?xml version="1.0" encoding="utf-8"?>
<!-- Generator: Adobe Illustrator 25.0.0, SVG Export Plug-In . SVG Version: 6.00 Build 0)  -->
<svg version="1.1" id="Layer_1" xmlns="http://www.w3.org/2000/svg" xmlns:xlink="http://www.w3.org/1999/xlink" x="0px" y="0px"
	 viewBox="0 0 2484 1226" enable-background="new 0 0 2484 1226" xml:space="preserve">
<defs>
	<filter id="Adobe_OpacityMaskFilter" filterUnits="userSpaceOnUse" x="1134.37" y="96.6" width="2228.24" height="2173.55">
		<feColorMatrix  type="matrix" values="1 0 0 0 0  0 1 0 0 0  0 0 1 0 0  0 0 0 1 0"/>
	</filter>
</defs>
<mask maskUnits="userSpaceOnUse" x="1134.37" y="96.6" width="2228.24" height="2173.55" id="SVGID_1_">
	<g filter="url(#Adobe_OpacityMaskFilter)">
		<linearGradient id="SVGID_2_" gradientUnits="userSpaceOnUse" x1="2093.845" y1="1578.7426" x2="2093.845" y2="50.8597">
			<stop  offset="0.0171" style="stop-color:#000000"/>
			<stop  offset="0.1124" style="stop-color:#2D2D2D"/>
			<stop  offset="0.2444" style="stop-color:#646464"/>
			<stop  offset="0.3774" style="stop-color:#939393"/>
			<stop  offset="0.5086" style="stop-color:#BABABA"/>
			<stop  offset="0.6377" style="stop-color:#D8D8D8"/>
			<stop  offset="0.764" style="stop-color:#EEEEEE"/>
			<stop  offset="0.8863" style="stop-color:#FBFBFB"/>
			<stop  offset="1" style="stop-color:#FFFFFF"/>
		</linearGradient>
		<rect x="1031.01" y="50.86" fill="url(#SVGID_2_)" width="2125.67" height="1527.88"/>
	</g>
</mask>
<g opacity="0.2" mask="url(#SVGID_1_)">
	
		<linearGradient id="SVGID_3_" gradientUnits="userSpaceOnUse" x1="2405.6599" y1="372.8074" x2="3092.4841" y2="270.6699" gradientTransform="matrix(0.7479 -0.5403 0.5856 0.8106 -187.8325 2252.8621)">
		<stop  offset="6.425827e-07" style="stop-color:#A770EF"/>
		<stop  offset="0.5139" style="stop-color:#CF8BF3"/>
		<stop  offset="1" style="stop-color:#FDB99B"/>
	</linearGradient>
	<path fill="url(#SVGID_3_)" d="M2907.27,1744.87l-361.37,261.05L1346.31,462.49c-78.13-108.15-60.57-254.27,39.22-326.35l0,0
		c99.79-72.09,244.02-42.85,322.15,65.31L2907.27,1744.87z"/>
	
		<linearGradient id="SVGID_4_" gradientUnits="userSpaceOnUse" x1="2932.0317" y1="687.2271" x2="3627.7563" y2="583.766" gradientTransform="matrix(0.7479 -0.5403 0.5856 0.8106 -187.8325 2252.8621)">
		<stop  offset="6.425827e-07" style="stop-color:#A770EF"/>
		<stop  offset="0.5139" style="stop-color:#CF8BF3"/>
		<stop  offset="1" style="stop-color:#FDB99B"/>
	</linearGradient>
	<path fill="url(#SVGID_4_)" d="M3362.61,1587.01l-361.37,261.05L2052.45,555.44c-78.13-108.15-60.57-254.27,39.22-326.35l0,0
		c99.79-72.09,244.02-42.85,322.15,65.31L3362.61,1587.01z"/>
	
		<linearGradient id="SVGID_5_" gradientUnits="userSpaceOnUse" x1="2049.7419" y1="448.2723" x2="2635.155" y2="361.2156" gradientTransform="matrix(0.7479 -0.5403 0.5856 0.8106 -187.8325 2252.8621)">
		<stop  offset="6.425827e-07" style="stop-color:#A770EF"/>
		<stop  offset="0.5139" style="stop-color:#CF8BF3"/>
		<stop  offset="1" style="stop-color:#FDB99B"/>
	</linearGradient>
	<path fill="url(#SVGID_5_)" d="M2546.05,1945.69l-308.69,223L1176.06,813.67c-66.74-92.39-51.74-217.2,33.5-278.78l0,0
		c85.24-61.58,208.45-36.6,275.19,55.79L2546.05,1945.69z"/>
	
		<linearGradient id="SVGID_6_" gradientUnits="userSpaceOnUse" x1="1917.1736" y1="636.1331" x2="2365.6833" y2="569.4353" gradientTransform="matrix(0.7479 -0.5403 0.5856 0.8106 -187.8325 2252.8621)">
		<stop  offset="6.425827e-07" style="stop-color:#A770EF"/>
		<stop  offset="0.5139" style="stop-color:#CF8BF3"/>
		<stop  offset="1" style="stop-color:#FDB99B"/>
	</linearGradient>
	<path fill="url(#SVGID_6_)" d="M2368.96,2098.52l-237.58,171.63l-874.6-1100.65c-51.37-71.11-39.82-167.17,25.78-214.56l0,0
		c65.61-47.39,160.43-28.17,211.8,42.94L2368.96,2098.52z"/>
	
		<linearGradient id="SVGID_7_" gradientUnits="userSpaceOnUse" x1="2836.1423" y1="554.9018" x2="3274.8433" y2="489.6626" gradientTransform="matrix(0.7479 -0.5403 0.5856 0.8106 -187.8325 2252.8621)">
		<stop  offset="6.425827e-07" style="stop-color:#A770EF"/>
		<stop  offset="0.5139" style="stop-color:#CF8BF3"/>
		<stop  offset="1" style="stop-color:#FDB99B"/>
	</linearGradient>
	<path fill="url(#SVGID_7_)" d="M3143.67,1677.61l-237.58,171.63L1762.09,480.57c-11.47-13.72-20.91-29.06-27.5-45.68
		c-25.54-64.48-8.41-137.78,46.27-177.27l0,0c64.6-46.67,157.53-28.75,209.4,39.7c2.39,3.16,4.9,6.23,7.44,9.27L3143.67,1677.61z"/>
</g>
</svg>
