<?xml version="1.0" encoding="utf-8"?>
<!-- Generator: Adobe Illustrator 25.0.0, SVG Export Plug-In . SVG Version: 6.00 Build 0)  -->
<svg version="1.1" id="Capa_1" xmlns="http://www.w3.org/2000/svg" xmlns:xlink="http://www.w3.org/1999/xlink" x="0px" y="0px"
	 viewBox="0 0 512 512" enable-background="new 0 0 512 512" xml:space="preserve">
<g>
	<g>
		<path fill="#FFFFFF" d="M452,276H276v176c0,33.14,26.86,60,60,60h116c33.14,0,60-26.86,60-60V336C512,302.86,485.14,276,452,276z
			 M472,452c0,11.05-8.95,20-20,20H336c-11.05,0-20-8.95-20-20V316h136c11.05,0,20,8.95,20,20V452z M236,276H60
			c-33.14,0-60,26.86-60,60v116c0,33.14,26.86,60,60,60h116c33.14,0,60-26.86,60-60V276z M196,452c0,11.05-8.95,20-20,20H60
			c-11.05,0-20-8.95-20-20V336c0-11.05,8.95-20,20-20h136V452z M176,0H60C26.86,0,0,26.86,0,60v116c0,33.14,26.86,60,60,60h176V60
			C236,26.86,209.14,0,176,0z M196,60v136H60c-11.05,0-20-8.95-20-20V60c0-11.05,8.95-20,20-20h116C187.05,40,196,48.95,196,60z
			 M452,0H336c-33.14,0-60,26.86-60,60v176h176c33.14,0,60-26.86,60-60V60C512,26.86,485.14,0,452,0z M472,176
			c0,11.05-8.95,20-20,20H316V60c0-11.05,8.95-20,20-20h116c11.05,0,20,8.95,20,20V176z"/>
	</g>
</g>
</svg>
