<?xml version="1.0" encoding="utf-8"?>
<!-- Generator: Adobe Illustrator 25.0.0, SVG Export Plug-In . SVG Version: 6.00 Build 0)  -->
<svg version="1.1" id="Layer_1" xmlns="http://www.w3.org/2000/svg" xmlns:xlink="http://www.w3.org/1999/xlink" x="0px" y="0px"
	 viewBox="0 0 504 500" enable-background="new 0 0 504 500" xml:space="preserve">
<g id="freepik--background-complete--inject-2">
	<polygon fill="#FAFAFA" points="70.93,14.51 70.93,203.96 255.69,203.96 373.83,203.96 373.83,14.51 	"/>
	<rect x="70.93" y="25.63" fill="#EBEBEB" width="302.9" height="18.82"/>
	<rect x="70.93" y="13.02" fill="#F5F5F5" width="302.9" height="13.07"/>
	<path fill="#E0E0E0" d="M79.72,20.15c0,0.94-0.76,1.7-1.7,1.7c-0.94,0-1.7-0.76-1.7-1.7c0-0.94,0.76-1.7,1.7-1.7c0,0,0.01,0,0.01,0
		C78.96,18.46,79.72,19.22,79.72,20.15z"/>
	<path fill="#E0E0E0" d="M86.04,20.15c0,0.94-0.76,1.7-1.7,1.7s-1.7-0.76-1.7-1.7s0.76-1.7,1.7-1.7l0,0
		C85.28,18.45,86.04,19.21,86.04,20.15z"/>
	<path fill="#E0E0E0" d="M92.36,20.15c0,0.94-0.76,1.7-1.7,1.7c-0.94,0-1.7-0.76-1.7-1.7s0.76-1.7,1.7-1.7l0,0
		C91.6,18.45,92.36,19.21,92.36,20.15z"/>
	<path fill="#FFFFFF" d="M327.96,39.6h-217.1c-2.49,0-4.51-2.02-4.51-4.51v0l0,0c0-2.49,2.02-4.51,4.51-4.51c0,0,0,0,0,0h217.1
		c2.49,0,4.51,2.02,4.51,4.51v0l0,0C332.47,37.58,330.45,39.6,327.96,39.6L327.96,39.6z"/>
	<rect x="97.57" y="73.43" fill="#EBEBEB" width="100.86" height="97.58"/>
	<polygon fill="#F5F5F5" points="105.39,162.66 133.29,112.45 156.12,144.54 169.98,127.5 190.61,162.66 	"/>
	<circle fill="#F5F5F5" cx="158.58" cy="102.68" r="7.26"/>
	<path fill="#F5F5F5" d="M190.61,81.1l-85.21-0.07c0.1-0.11-0.92,0.92-0.49,0.49v11c0,3.65,0,7.28,0,10.86c0,7.17,0,14.17,0,21
		c0,13.66,0,26.59,0,38.47v0.42h0.41l61.89-0.21l17.28-0.11l4.53-0.05h1.15c0.12,0.02,0.25,0.02,0.37,0c-0.14-0.01-0.28-0.01-0.42,0
		h-1.19h-4.61l-17.38-0.11l-61.2-0.22c0-11.77,0-24.54,0.05-38c0-6.84,0-13.84,0-21V81.99l84.33-0.07
		c0.09,24.19,0.16,44.34,0.21,58.51c0.05,7.11,0.09,12.7,0.11,16.57c0,1.89,0,3.36,0.05,4.39c0,0.48,0,0.85,0,1.14s0,0.39,0,0.4
		c0.01-0.12,0.01-0.23,0-0.35c0-0.28,0-0.64,0-1.1c0-1,0-2.45,0.05-4.31c0-3.85,0.06-9.41,0.11-16.48
		c0.05-14.31,0.12-34.7,0.21-59.18V81.1H190.61z"/>
	<polygon fill="#FAFAFA" points="246.14,140.61 246.14,283.68 385.66,283.68 474.88,283.68 474.88,140.61 	"/>
	<rect x="246.14" y="147.56" fill="#EBEBEB" width="228.74" height="14.21"/>
	<rect x="246.14" y="138.04" fill="#F5F5F5" width="228.74" height="9.87"/>
	<circle fill="#E0E0E0" cx="251.5" cy="143.42" r="1.28"/>
	<circle fill="#E0E0E0" cx="256.27" cy="143.42" r="1.28"/>
	<circle fill="#E0E0E0" cx="261.04" cy="143.42" r="1.28"/>
	<path fill="#FFFFFF" d="M440.24,158.07H276.29c-1.88,0-3.4-1.52-3.4-3.4l0,0c0-1.88,1.52-3.4,3.4-3.41h164
		c1.88,0,3.41,1.53,3.41,3.41l0,0l0,0c-0.01,1.88-1.54,3.41-3.42,3.4C440.27,158.07,440.25,158.07,440.24,158.07z"/>
	<rect x="388.33" y="194.44" fill="#EBEBEB" width="76.17" height="73.69"/>
	<polygon fill="#F5F5F5" points="394.24,261.82 415.31,223.9 432.54,248.14 443.02,235.27 458.6,261.82 	"/>
	<path fill="#F5F5F5" d="M439.88,216.53c0,3.03-2.45,5.48-5.48,5.48c-3.03,0-5.48-2.45-5.48-5.48s2.45-5.48,5.48-5.48
		S439.88,213.5,439.88,216.53L439.88,216.53z"/>
	<path fill="#F5F5F5" d="M458.6,200.23h-64.35l-0.37,0.37v16.5c0,5.41,0,10.71,0,15.88c0,10.31,0,20.07,0,29.05v0.32h0.32
		l46.73-0.16l13.06-0.08h3.42h0.86h0.29h-0.32h-0.9h-3.49l-13.12-0.09l-46.21-0.16c0-8.89,0-18.53,0-28.73c0-5.17,0-10.46,0-15.88
		v-16.34l63.69-0.06c0.06,18.27,0.11,33.48,0.15,44.19c0,5.36,0.07,9.59,0.08,12.51c0,1.43,0,2.53,0,3.32c0,0.36,0,0.64,0,0.86
		c-0.01,0.1-0.01,0.2,0,0.3c0,0,0-0.09,0-0.27s0-0.48,0-0.82c0-0.77,0-1.86,0-3.26c0-2.91,0-7.11,0.08-12.45
		c0-10.81,0.09-26.2,0.16-44.69v-0.31L458.6,200.23z"/>
	<rect x="274.77" y="194.44" fill="#EBEBEB" width="76.17" height="73.69"/>
	<polygon fill="#F5F5F5" points="280.68,261.82 301.75,223.9 318.98,248.14 329.45,235.27 345.03,261.82 	"/>
	<path fill="#F5F5F5" d="M326.32,216.53c0,3.03-2.45,5.48-5.48,5.48c-3.03,0-5.48-2.45-5.48-5.48s2.45-5.48,5.48-5.48
		S326.32,213.5,326.32,216.53L326.32,216.53z"/>
	<path fill="#F5F5F5" d="M345.03,200.23h-64.35c0.07-0.08-0.69,0.69-0.37,0.37v4.18c0,1.39,0,2.78,0,4.16v8.21
		c0,5.41,0,10.71,0,15.88c0,10.31,0,20.07,0,29.05v0.32h0.32l46.73-0.16l13.05-0.08h3.42h0.87h0.28h-0.31h-0.91h-3.48l-13.12-0.09
		l-46.22-0.16c0-8.89,0-18.53,0-28.73c0-5.17,0-10.46,0-15.88v-16.39l63.68-0.06c0.07,18.27,0.12,33.48,0.16,44.19
		c0,5.36,0.06,9.59,0.08,12.51c0,1.43,0,2.53,0,3.32c0,0.36,0,0.64,0,0.86s0,0.29,0,0.3c0.01-0.09,0.01-0.18,0-0.27
		c0-0.21,0-0.48,0-0.82c0-0.77,0-1.86,0-3.26c0-2.91,0.05-7.11,0.09-12.45c0-10.81,0.09-26.2,0.15-44.69v-0.31L345.03,200.23z"/>
</g>
<g id="freepik--Plant--inject-2">
	<linearGradient id="SVGID_1_" gradientUnits="userSpaceOnUse" x1="422.8456" y1="394.9146" x2="456.6767" y2="375.3822">
		<stop  offset="6.425827e-07" style="stop-color:#A770EF"/>
		<stop  offset="0.3932" style="stop-color:#CF8BF3"/>
		<stop  offset="1" style="stop-color:#FDB99B"/>
	</linearGradient>
	<path fill="url(#SVGID_1_)" d="M457.28,377.6c-8.79-8.46-22.76-8.19-31.22,0.59c-2.22,2.31-3.91,5.07-4.96,8.1l2.61,10.12
		c1-3.45,3.13-6.78,6.42-8.2s7.4-0.64,10.91,0.64s6.95,3,10.68,3.21s7.93-1.54,9.05-5.1C461.83,383.6,459.81,380.04,457.28,377.6z"
		/>
	<g opacity="0.3">
		<path d="M457.56,377.33c-8.79-8.45-22.77-8.18-31.22,0.6c-2.21,2.3-3.9,5.06-4.95,8.08l2.61,10.12c1-3.45,3.13-6.78,6.43-8.2
			s7.39-0.64,10.9,0.64s7,3,10.68,3.21s7.93-1.54,9-5.1C462.1,383.33,460.1,379.76,457.56,377.33z"/>
	</g>
	<linearGradient id="SVGID_2_" gradientUnits="userSpaceOnUse" x1="390.039" y1="404.4332" x2="448.5795" y2="370.6348">
		<stop  offset="6.425827e-07" style="stop-color:#A770EF"/>
		<stop  offset="0.3932" style="stop-color:#CF8BF3"/>
		<stop  offset="1" style="stop-color:#FDB99B"/>
	</linearGradient>
	<path fill="url(#SVGID_2_)" d="M394.49,411.1c-5.47-5.2-5.19-14.24-2.47-21.26s8.68-12.43,15.33-16c13.15-6.9,28.73-7.4,42.29-1.37
		c-6.65,0.29-12.73,3.86-16.23,9.53c-3,5-3.66,11-6.13,16.27c-5.79,12.3-20.19,17.93-32.79,12.82"/>
	<linearGradient id="SVGID_3_" gradientUnits="userSpaceOnUse" x1="372.4628" y1="346.9553" x2="422.4458" y2="318.0976">
		<stop  offset="6.425827e-07" style="stop-color:#A770EF"/>
		<stop  offset="0.3932" style="stop-color:#CF8BF3"/>
		<stop  offset="1" style="stop-color:#FDB99B"/>
	</linearGradient>
	<path fill="url(#SVGID_3_)" d="M391.86,379.9c-6.05-7.14-6.86-18.61-6-27.93s3.06-18.7,1.59-27.95c-0.87-5.47-3-10.7-3.72-16.2
		s0.3-11.72,4.56-15.27c4.9-4.08,12.61-3.12,17.71,0.71s8.05,9.85,10.2,15.85c4.74,13.18,6.48,27.79,2.59,41.25
		s-13,25.48-26.43,29.54"/>
	<path fill="#263238" d="M388.96,438.51c-0.03-0.27-0.03-0.55,0-0.82c0-0.54,0-1.34,0.05-2.36c0.08-2.05,0.27-5,0.73-8.66
		c0.54-4.26,1.32-8.49,2.33-12.66c1.25-5.13,3.19-10.07,5.78-14.67c2.59-4.6,5.76-8.85,9.45-12.63c2.99-3.1,6.31-5.86,9.9-8.24
		c1.51-1.05,3-1.84,4.23-2.57s2.42-1.24,3.34-1.68l2.18-0.92c0.5-0.2,0.77-0.3,0.77-0.29c-0.23,0.15-0.47,0.28-0.73,0.38l-2.13,1
		c-0.91,0.47-2,1-3.29,1.75s-2.68,1.57-4.17,2.62c-7.89,5.39-14.44,12.52-19.14,20.84c-5.57,9.73-7.09,20-8.2,27.14
		c-0.5,3.62-0.75,6.58-0.89,8.62c-0.05,1-0.1,1.77-0.14,2.35C389.02,437.98,389,438.25,388.96,438.51z"/>
	<linearGradient id="SVGID_4_" gradientUnits="userSpaceOnUse" x1="327.5897" y1="371.8879" x2="358.156" y2="354.2404">
		<stop  offset="6.425827e-07" style="stop-color:#A770EF"/>
		<stop  offset="0.3932" style="stop-color:#CF8BF3"/>
		<stop  offset="1" style="stop-color:#FDB99B"/>
	</linearGradient>
	<path fill="url(#SVGID_4_)" d="M327.19,370.71c1.87,5.8,8.74,9.83,14.43,7.66c3.23-1.23,5.56-4,7.55-6.84s3.87-5.82,6.66-7.84
		c1.92-1.43,4.3-2.11,6.68-1.91l-26-9.78C325.28,358.76,325.32,364.91,327.19,370.71z"/>
	<path fill="#FF725E" d="M362.51,361.78l3,1.12C364.62,362.28,363.59,361.89,362.51,361.78z"/>
	<g opacity="0.3">
		<path d="M336.76,351.72c-11.2,6.76-11.16,12.9-9.29,18.71s8.74,9.83,14.44,7.66c3.22-1.23,5.55-4,7.54-6.84s3.87-5.82,6.66-7.84
			c1.92-1.43,4.3-2.11,6.68-1.91L336.76,351.72z"/>
	</g>
	<path d="M369.15,364.42l-10.38-3.9l4.08,0.48c1.15,0.13,2.25,0.54,3.2,1.21L369.15,364.42z"/>
	<linearGradient id="SVGID_5_" gradientUnits="userSpaceOnUse" x1="337.6647" y1="375.2132" x2="379.225" y2="351.2183">
		<stop  offset="6.425827e-07" style="stop-color:#A770EF"/>
		<stop  offset="0.3932" style="stop-color:#CF8BF3"/>
		<stop  offset="1" style="stop-color:#FDB99B"/>
	</linearGradient>
	<path fill="url(#SVGID_5_)" d="M328.38,359.13c2.92-4,10.16-5.22,14.72-3.2s7.92,6,10.91,10s5.91,8.21,10.06,11s9.94,3.79,14.07,1
		c2.67-1.98,4.39-4.98,4.78-8.28c0.37-3.27,0.15-6.57-0.65-9.76c-1-4.7-2.61-9.6-6.36-12.59c-4.19-3.32-10-3.48-15.35-3.31
		c-6.13,0.21-12.35,0.67-18.11,2.79S330.82,353.5,328.38,359.13"/>
	<path fill="#263238" d="M379.65,429.54c-0.01-0.08-0.01-0.16,0-0.24c0-0.19,0-0.43,0-0.73c0-0.67-0.05-1.6-0.09-2.77
		c-0.07-2.46-0.17-5.94-0.3-10.22s-0.31-9.45-0.62-15.15s-0.74-12-1.61-18.48c-0.39-3.16-1.04-6.29-1.93-9.35
		c-0.89-2.83-2.04-5.58-3.43-8.21c-1.25-2.38-2.7-4.65-4.33-6.79c-1.43-1.85-3.02-3.59-4.73-5.19c-2.5-2.31-5.32-4.24-8.38-5.72
		c-0.55-0.25-1-0.49-1.45-0.67l-1.08-0.42l-0.67-0.27c-0.08-0.03-0.16-0.07-0.23-0.11c0.08,0.01,0.16,0.03,0.24,0.06l0.69,0.22
		l1.11,0.39c0.44,0.16,0.93,0.39,1.48,0.63c3.12,1.42,6,3.32,8.54,5.63c1.74,1.6,3.36,3.33,4.82,5.19c1.66,2.15,3.14,4.44,4.41,6.84
		c1.41,2.65,2.58,5.42,3.49,8.28c0.88,3.1,1.51,6.26,1.88,9.46c0.87,6.54,1.28,12.81,1.57,18.52s0.43,10.84,0.52,15.16
		s0.12,7.81,0.13,10.22v2.78c0,0.3,0,0.53,0,0.73C379.68,429.4,379.67,429.47,379.65,429.54z"/>
	<path fill="#263238" d="M383.68,434.6c-0.54-1.57-0.95-3.18-1.23-4.81c-0.77-4.46-0.95-9-0.51-13.5c0.69-6.67,2.12-13.25,4.27-19.6
		c2.29-7.21,5.41-14.91,8.08-23.19c1.31-4.02,2.38-8.12,3.21-12.27c0.74-3.87,1.27-7.77,1.59-11.7c0.51-6.65,0.63-13.33,0.36-20
		c-0.19-5.7-0.5-10.31-0.69-13.5l-0.21-3.67c0-0.4,0-0.72-0.05-1c-0.01-0.11-0.01-0.21,0-0.32c0.03,0.1,0.05,0.21,0.05,0.32
		c0,0.24,0.06,0.55,0.1,1c0.07,0.87,0.17,2.1,0.31,3.67c0.25,3.18,0.6,7.79,0.84,13.5c0.33,6.69,0.24,13.38-0.25,20.06
		c-0.31,3.95-0.83,7.87-1.56,11.76c-0.83,4.17-1.9,8.29-3.22,12.33c-2.68,8.31-5.81,16-8.12,23.18c-2.17,6.32-3.63,12.85-4.36,19.49
		c-0.47,4.48-0.34,8.99,0.36,13.44c0.27,1.57,0.52,2.78,0.74,3.59c0.1,0.39,0.17,0.7,0.23,0.93
		C383.65,434.4,383.67,434.5,383.68,434.6z"/>
	<polygon fill="#455A64" points="411.44,439.66 358.86,439.66 357.66,429.54 411.44,429.54 	"/>
	<polygon fill="#455A64" points="364.51,438.51 371.08,468.87 399.65,468.87 405.8,438.51 	"/>
	<path fill="#455A64" d="M411.44,439.66c0,0.14-11.56,0.22-25.82,0.18s-25.81-0.18-25.81-0.32s11.56-0.22,25.81-0.18
		S411.44,439.52,411.44,439.66z"/>
	<path fill="#263238" d="M402.41,454.65c-1.43-1.08-2.98-1.97-4.63-2.66c-1.79-0.71-3.7-1.09-5.63-1.13
		c-2.36,0.01-4.71,0.44-6.92,1.27c-2.39,0.81-4.63,1.75-6.81,2.27c-1.94,0.42-3.93,0.48-5.89,0.18c-1.32-0.18-2.6-0.59-3.78-1.2
		c-0.32-0.17-0.63-0.36-0.92-0.58c-0.19-0.15-0.29-0.23-0.28-0.24s0.45,0.26,1.28,0.65c1.19,0.51,2.46,0.85,3.75,1
		c1.91,0.25,3.86,0.15,5.74-0.28c2.1-0.52,4.34-1.47,6.75-2.29c2.27-0.85,4.68-1.28,7.1-1.26c1.98,0.07,3.93,0.49,5.75,1.26
		c1.22,0.51,2.38,1.18,3.42,2c0.29,0.22,0.57,0.45,0.82,0.71C402.34,454.54,402.43,454.6,402.41,454.65z"/>
	<path fill="#FFFFFF" d="M402.02,456.67c-1.38-1.03-2.88-1.91-4.45-2.62c-1.73-0.7-3.57-1.08-5.43-1.11c-2.29,0-4.55,0.41-6.7,1.2
		c-2.31,0.77-4.49,1.67-6.56,2.23c-1.84,0.53-3.75,0.75-5.66,0.64c-1.29-0.08-2.55-0.42-3.71-1c-0.31-0.16-0.61-0.34-0.88-0.56
		c-0.19-0.14-0.29-0.22-0.28-0.24s0.44,0.26,1.24,0.63c1.16,0.49,2.39,0.77,3.65,0.81c1.87,0.06,3.73-0.18,5.52-0.72
		c2-0.57,4.18-1.48,6.53-2.26c2.2-0.81,4.52-1.22,6.86-1.2c3.22,0.1,6.32,1.24,8.84,3.24c0.35,0.29,0.61,0.52,0.78,0.69
		C401.94,456.6,402.03,456.66,402.02,456.67z"/>
	<path fill="#FFFFFF" d="M402.94,452.6c-1.48-1.1-3.08-2.04-4.76-2.8c-1.83-0.78-3.78-1.25-5.77-1.39
		c-2.44-0.05-4.86,0.38-7.14,1.26c-2.31,0.9-4.66,1.67-7.06,2.31c-2.01,0.34-4.07,0.34-6.08,0c-1.35-0.22-2.67-0.63-3.9-1.24
		c-0.33-0.17-0.65-0.37-0.95-0.59c-0.21-0.15-0.31-0.24-0.3-0.25s0.46,0.27,1.33,0.66c1.24,0.53,2.54,0.89,3.88,1.07
		c1.96,0.31,3.95,0.3,5.91-0.03c2.37-0.65,4.71-1.42,7-2.32c2.33-0.9,4.83-1.33,7.33-1.25c2.04,0.16,4.03,0.67,5.88,1.53
		c1.25,0.56,2.43,1.27,3.51,2.11c0.29,0.23,0.57,0.47,0.84,0.73C402.86,452.52,402.95,452.6,402.94,452.6z"/>
	<path fill="#263238" d="M411.9,439.71c0,0.13-11.82,0.25-26.41,0.25s-26.41-0.12-26.41-0.25s11.82-0.25,26.41-0.25
		S411.9,439.6,411.9,439.71z"/>
</g>
<g id="freepik--Character--inject-2">
	<polygon fill="#263238" points="89.72,468.75 80.76,468.75 77.44,428.45 87.99,428.45 	"/>
	<polygon fill="#263238" points="167.31,468.75 176.26,468.75 179.58,428.45 169.04,428.45 	"/>
	<path fill="#455A64" d="M185.73,433.6L70.5,436.26l-3.51-74.44c-0.33-7.05,5.12-13.03,12.17-13.37c0.2-0.01,0.4-0.01,0.6-0.01
		h98.18c7.06,0,12.78,5.72,12.78,12.78c0,0.3-0.01,0.59-0.03,0.89L185.73,433.6z"/>
	<path fill="#263238" d="M191.64,361.6h-0.32h-0.95l-3.63,0.06l-13.36,0.05c-11.28,0-26.86-0.11-44.06,0.29
		c-17.21,0.57-32.8,0.47-44.08,0.3c-5.64-0.09-10.2-0.2-13.36-0.29l-3.63-0.13h-0.94h-0.32c0.11-0.01,0.21-0.01,0.32,0h0.95h3.63
		l13.35,0.13c11.28,0.08,26.86,0.12,44.07-0.45c17.21-0.4,32.8-0.22,44.07-0.14l13.36,0.12h3.63h0.95
		C191.43,361.55,191.54,361.57,191.64,361.6z"/>
	<path fill="#263238" d="M109.02,349.6c-2.59,0.39-5.11,1.14-7.48,2.25c-2.29,1.27-4.39,2.87-6.21,4.75
		c0.37-0.69,0.86-1.31,1.43-1.85c2.66-2.75,6.15-4.53,9.93-5.07C107.46,349.53,108.24,349.5,109.02,349.6z"/>
	<g opacity="0.3">
		<path d="M94.25,348.44c3.41,3.81,9,5.48,14,6.25c9.11,1.38,18.43,2.13,27.51,0.58c5.82-1,11.58-2.92,17.47-2.52
			s12.08,3.26,17.9,1.61c3.15-0.91,5.8-3.05,7.35-5.94c0.49-0.91,0.79-2.19,0-2.85c-0.4-0.34-1.27,0.83-1.79,0.79
			c-27.3-2.08-55.17,4-82.48,2.08"/>
	</g>
	<g opacity="0.3">
		<path d="M164.54,366.33c-0.32,2.61,0.62,5.21,2.54,7c1.9,1.75,4.03,3.22,6.33,4.39c3.7,2.15,7.4,4.61,9.71,8.21
			c4.4,6.83,2.78,15.8,4.64,23.72c0,0,1.55-34.15,1.23-33.29"/>
	</g>
	<path fill="#263238" d="M100.98,187.07c-1.6-14.28-3.21-28.56-4.82-42.85l-8.84-9.9c-9.77,12-12.6,26-13.4,35.24
		c-1.32,15-4.48,28-0.84,42.64c0.1,0.79,0.54,1.49,1.2,1.94c0.59,0.23,1.24,0.31,1.87,0.24l22.83-1
		C102.9,205.19,101.98,195.92,100.98,187.07z"/>
	<path fill="#263238" d="M136.58,174.7c-0.29-12.55-0.29-19.66-1.88-29.82L111.38,174c2.01,12.79,1.54,25.84-1.38,38.45
		c-0.34,1.5-0.65,3.3,0.43,4.4c1.72,1.75,4.71-0.15,7.1,0.38c2.9,0.65,4.61,4.84,7.53,4.24c3.28-0.67,3.74-6.85,7.06-6.39
		c1.21,0.17,2.23,1.33,3.44,1.14c1.56-0.23,1.91-2.31,1.88-3.89C137.15,199.79,136.87,187.25,136.58,174.7z"/>
	<path fill="#FFBE9D" d="M131.15,152.03c0.18-11.52-8.57-21.21-20.05-22.2c-11.73-0.99-22.04,7.73-23.03,19.46
		c-0.02,0.25-0.04,0.51-0.05,0.76l-0.67,48c-0.01,0.93,0.29,1.83,0.85,2.57c3.14,4.04,7.74,6.69,12.81,7.39
		c4.4,0.31,8.78-0.81,12.5-3.19c1.23-0.77,1.96-2.15,1.91-3.6l-0.32-10.72c0-0.04,0.03-0.07,0.07-0.07h0c1,0.03,2.01-0.04,3-0.22
		c2.8-0.82,9.9-3.93,11.84-14.64C130.65,172.02,131.02,162,131.15,152.03z"/>
	<path fill="#263238" d="M116.1,168.4c1.01-0.27,2.05-0.43,3.09-0.47c0.49,0,1-0.12,1-0.44c0.05-0.49-0.05-0.99-0.29-1.42
		c-0.44-1.16-0.89-2.38-1.37-3.66c-1.89-5.2-3.25-9.47-3-9.55s1.92,4.09,3.81,9.3c0.45,1.28,0.89,2.5,1.3,3.67
		c0.29,0.58,0.37,1.25,0.22,1.88c-0.15,0.34-0.45,0.58-0.81,0.67c-0.27,0.07-0.55,0.1-0.83,0.1
		C118.18,168.59,117.13,168.56,116.1,168.4z"/>
	<path fill="#263238" d="M127.1,159.74c-0.02,0.94-0.79,1.69-1.73,1.7c-0.93,0.06-1.73-0.65-1.79-1.58c0-0.01,0-0.01,0-0.02
		c0.02-0.95,0.78-1.7,1.73-1.71c0.93-0.06,1.73,0.65,1.79,1.59C127.1,159.72,127.1,159.73,127.1,159.74z"/>
	<path fill="#263238" d="M128.34,153.99c-0.17,0.19-1.58,0.14-3.36,0.79s-2.93,1.63-3.16,1.58c-0.23-0.05,0-0.31,0.53-0.75
		c0.74-0.61,1.58-1.09,2.48-1.41c0.87-0.33,1.79-0.5,2.72-0.48C128.17,153.75,128.42,153.89,128.34,153.99z"/>
	<path fill="#263238" d="M108.98,158.98c-0.02,0.95-0.79,1.71-1.74,1.7c-0.92,0.06-1.72-0.63-1.78-1.55c0-0.01,0-0.03,0-0.05
		c0.01-0.95,0.78-1.71,1.73-1.71c0.93-0.06,1.73,0.65,1.79,1.59C108.98,158.96,108.98,158.97,108.98,158.98z"/>
	<path fill="#263238" d="M109.02,156.06c-0.27,0-1.33-1.07-3.2-1.9s-3.49-1-3.63-1.17s0.25-0.21,1-0.17c1.04,0.09,2.05,0.36,3,0.8
		c0.92,0.4,1.76,0.95,2.48,1.65C109.1,155.76,109.15,156.05,109.02,156.06z"/>
	<path fill="#EB996E" d="M115.1,190.43c0,0-7.33,0.41-16.38-5.21c0,0,2.7,9.57,16.47,8.64L115.1,190.43z"/>
	<path fill="#EB996E" d="M115.24,172.87c-0.72-0.91-1.84-1.41-3-1.32c-0.85,0.04-1.65,0.42-2.22,1.05c-0.53,0.62-0.6,1.51-0.19,2.21
		c0.62,0.7,1.59,0.97,2.48,0.68c0.89-0.29,1.72-0.75,2.44-1.36c0.22-0.15,0.41-0.33,0.56-0.54c0.14-0.21,0.14-0.48,0-0.69"/>
	<path fill="#263238" d="M110.52,169.6c0.31,0,0.28,2,2,3.49s3.93,1.31,3.94,1.59c0,0.13-0.5,0.38-1.42,0.38
		c-1.2-0.01-2.37-0.44-3.29-1.21c-0.88-0.73-1.44-1.78-1.56-2.92C110.1,170.04,110.38,169.54,110.52,169.6z"/>
	<path fill="#263238" d="M110.1,148.51c-0.26,0.48-2.1,0-4.33-0.1c-2.23-0.1-4.1,0.27-4.33-0.22c-0.1-0.23,0.27-0.66,1.06-1
		c1.04-0.47,2.18-0.68,3.32-0.63c1.15,0.03,2.27,0.33,3.28,0.87C109.86,147.83,110.21,148.29,110.1,148.51z"/>
	<path fill="#263238" d="M128.15,148.32c-0.34,0.41-1.64-0.06-3.21-0.11c-1.57-0.05-2.91,0.21-3.2-0.24c-0.13-0.22,0.08-0.64,0.67-1
		c0.79-0.48,1.7-0.7,2.62-0.63c0.92,0.04,1.81,0.35,2.55,0.91C128.1,147.68,128.3,148.12,128.15,148.32z"/>
	<path fill="#263238" d="M112.64,127.36c-1.06-1.64-2.94-2.32-5-2.54c-8.44-0.89-17.57,4.59-22,11.86
		c-4.43,7.27-4.14,17.82-0.35,25.42l4.26-2.74c6.53-0.69,15.63-16.3,24.36-26.8C115.03,131.25,113.57,128.78,112.64,127.36z"/>
	<path fill="#263238" d="M128.95,132.13c-3.69-3.83-9.61-8.44-16.77-5.33c-1,2.08,1.3,4.63,3.18,6.1c2.74,2.14,4.53,5,6.34,6.51
		c3.65,3.12,9.38,10.51,9.39,16.54c0,4.66-0.31,4.44,0.06,4.36c0,0,2.39-4.11,2.85-6.6C136.26,141.54,132.64,135.96,128.95,132.13z"
		/>
	<path fill="#FFBE9D" d="M90.41,158.6c-0.2-0.1-8.09-2.81-8.21,5.36c-0.12,8.17,8.11,6.6,8.13,6.37
		C90.35,170.1,90.41,158.6,90.41,158.6z"/>
	<path fill="#EB996E" d="M87.88,167.19c0,0-0.15,0.1-0.39,0.2c-0.34,0.14-0.72,0.14-1.06,0c-0.86-0.33-1.57-1.71-1.59-3.19
		c0-0.69,0.14-1.37,0.43-2c0.16-0.51,0.57-0.91,1.09-1.07c0.34-0.09,0.69,0.08,0.83,0.4c0.11,0.23,0.06,0.39,0.1,0.41
		c0.04,0.02,0.18-0.14,0.11-0.48c-0.04-0.2-0.15-0.38-0.31-0.51c-0.22-0.18-0.5-0.26-0.78-0.22c-0.68,0.12-1.26,0.59-1.51,1.24
		c-0.36,0.7-0.54,1.48-0.53,2.27c0,1.65,0.85,3.2,2,3.56c0.44,0.14,0.92,0.06,1.3-0.2C87.86,167.39,87.9,167.2,87.88,167.19z"/>
	<path fill="#455A64" d="M107.63,124.82c0.55-0.13,1.12-0.1,1.65,0.07c1.3,0.33,2.49,1.02,3.41,2c0.26,0.28,0.5,0.59,0.7,0.92
		c0.18,0.31,0.33,0.65,0.43,1c0.22,0.55,0.39,1.12,0.51,1.7c0.16,0.54,0.13,1.12-0.08,1.64c-0.08,0,0-0.63-0.27-1.56
		c-0.13-0.47-0.35-1-0.59-1.62c-0.11-0.31-0.25-0.61-0.42-0.89c-0.19-0.29-0.41-0.57-0.65-0.83c-0.87-0.91-1.95-1.6-3.14-2
		C108.25,124.93,107.63,124.9,107.63,124.82z"/>
	<path fill="#263238" d="M146.84,201.24c-0.15-0.15-0.28-0.32-0.38-0.5c-0.24-0.34-0.59-0.84-1-1.52c-1.11-1.92-2.06-3.92-2.83-6
		c-2-5.25-3.67-12.89-5-21.34s-2.5-16.05-3.37-21.65c-0.4-2.73-0.73-4.95-1-6.57c-0.1-0.73-0.18-1.33-0.24-1.79
		c-0.02-0.21-0.02-0.42,0-0.63c0.07,0.2,0.13,0.4,0.16,0.61c0.08,0.46,0.19,1.05,0.33,1.78c0.28,1.61,0.66,3.83,1.12,6.54
		c0.92,5.59,2.16,13.21,3.53,21.63s2.87,16,4.8,21.3c0.73,2.08,1.63,4.1,2.67,6.05C146.4,200.49,146.88,201.21,146.84,201.24z"/>
	<path fill="#263238" d="M111.74,130.81c0.01,0.49-0.03,0.97-0.12,1.45c-0.17,1.31-0.41,2.61-0.73,3.9c-1,4.27-2.8,8.32-5.31,11.92
		c-2.53,3.6-5.89,6.55-9.79,8.59c-1.18,0.61-2.42,1.1-3.69,1.48c-0.45,0.15-0.81,0.21-1,0.27s-0.36,0.07-0.37,0.05
		c1.69-0.6,3.34-1.31,4.93-2.13c3.79-2.09,7.06-5.02,9.55-8.56c2.45-3.57,4.27-7.53,5.38-11.71c0.43-1.61,0.71-2.92,0.88-3.84
		C111.52,131.75,111.61,131.28,111.74,130.81z"/>
	<path fill="#263238" d="M95.95,188.02c-2.66-2.58-5.58-4.93-7.71-8c-2.13-3.07-3.39-6.94-2.22-10.45l-4.77,10.82
		c0.13,8-0.76,16.08-0.63,24.11c2.89-4.25,6.17-5.49,9.62-7.09c3.45-1.6,9-0.32,12.55,1.07C101.91,194.93,98.6,190.6,95.95,188.02z"
		/>
	<path fill="#E0E0E0" d="M87.96,172.31l-0.86-3.37c0-0.28-0.22-0.5-0.5-0.5c-0.28,0-0.5,0.22-0.5,0.5
		c-0.45,1.18-0.82,2.39-1.09,3.62c-0.24,1.05-0.32,2.12-0.23,3.19c0.09,1.08,0.6,2.09,1.42,2.81c0.31,0.29,0.74,0.43,1.16,0.39
		c0.64-0.12,1-0.83,1.11-1.48C88.68,175.73,88.5,173.97,87.96,172.31z"/>
	<path fill="#FFBE9D" d="M196.1,287.25l-4.41-6.65l-7.09-3.56l-0.27-0.19c-2.31-1.68-5.24-2.23-8-1.5
		c-2.89,0.77-6.74,1.73-10.09,2.3l-7.63-2.09v14.9l38.5-2.44L196.1,287.25z"/>
	<path fill="#EB996E" d="M195.84,286.84c-0.49-0.55-1.03-1.05-1.62-1.49c-1.05-0.87-2.51-2-4.14-3.32l-1.52-1.18h-0.05l0,0
		c-1.58-0.29-3-0.53-3.93-0.68c-0.52-0.13-1.05-0.18-1.58-0.16c0.49,0.21,1,0.35,1.52,0.44c1,0.24,2.33,0.53,3.9,0.86l-0.1-0.05
		l1.52,1.2c1.63,1.28,3.12,2.41,4.22,3.21C194.61,286.12,195.21,286.51,195.84,286.84z"/>
	<path fill="#EB996E" d="M192.84,288.14c-1.76-1.25-3.61-2.36-5.54-3.34l-1.35-0.74l0,0h-0.05c-1.64-0.17-3.29-0.2-4.93-0.08
		c1.62,0.31,3.25,0.5,4.9,0.54h-0.1l1.34,0.75C188.95,286.37,190.86,287.33,192.84,288.14z"/>
	<path fill="#E0E0E0" d="M240.92,245.1c-1.29-0.72-2.91-0.37-3.79,0.82l-31,42l-49.03,0.68c-2,0.11-4.33,4.08-2.58,6l55.41-0.75
		l32-44.45c0.94-1.31,0.64-3.14-0.67-4.09C241.15,245.23,241.04,245.16,240.92,245.1z"/>
	<path fill="#263238" d="M240.92,245.1c0.09,0.04,0.17,0.09,0.25,0.14c0.23,0.15,0.44,0.34,0.62,0.55c0.71,0.86,0.88,2.04,0.45,3.07
		c-0.39,0.7-0.83,1.36-1.31,2l-1.63,2.3l-4.06,5.69l-25.14,35.1l-0.07,0.09h-0.12l-54.4,0.78h-1.12l-0.08-0.08
		c-0.48-0.55-0.72-1.27-0.67-2c0.02-0.7,0.2-1.38,0.52-2c0.29-0.61,0.7-1.16,1.19-1.62c0.49-0.52,1.15-0.83,1.86-0.87l7.57-0.1
		l14.65-0.2l26.72-0.33l-0.18,0.09c10.09-13.6,18.49-24.93,24.39-32.87l6.86-9.18c0.68-0.79,1.74-1.17,2.77-1
		c0.36,0.04,0.7,0.17,1,0.37c-0.32-0.15-0.65-0.25-1-0.3c-1-0.15-2,0.23-2.65,1l-6.76,9.24l-24.24,33l-0.07,0.09h-0.17l-26.71,0.39
		l-14.64,0.2l-7.58,0.11c-0.58,0.04-1.13,0.3-1.52,0.73c-0.44,0.42-0.81,0.92-1.08,1.47c-0.65,1.03-0.62,2.36,0.08,3.36l-0.2-0.09h1
		l54.41-0.71l-0.18,0.09l25.32-35l4.1-5.61l1.66-2.28c0.49-0.61,0.94-1.25,1.34-1.92c0.45-0.99,0.3-2.15-0.38-3
		C241.49,245.53,241.22,245.3,240.92,245.1z"/>
	<path fill="#587CF8" d="M88.5,197.22c-1.94,0.53-3,1.68-4.44,3.08c-3.02,3.05-5.28,6.76-6.62,10.83c-1.63,4.91-3,25.71-3,31.33
		s3.54,25.3,4.24,28.81s-1.72,6.32-1.33,10.06c0.58,3.77,1.36,7.52,2.33,11.21l61-2.8l1.77-5.86c0,0-3.6-11.95-2.67-24
		c0.76-10,1-20.79-0.88-26.61c-2.8-8.88-14-23.49-25.24-32.11c0,0-8.84-1.89-10.83-2.59C96.81,196.42,94.53,195.6,88.5,197.22z"/>
	<path fill="#587CF8" d="M163.1,273.8l-51.46-10.74l-1.33-44.66c0,0-1.8-18.19-10.91-19.88l-22,27.33
		c1.23,13.77,0.11,39.83,6.44,49.88s12.49,18.11,28.07,17.39s49.94-1,49.94-1L163.1,273.8z"/>
	<path fill="#263238" d="M111.74,263.23c0.12,0.1-1.11,1.71-2.15,3.95c-1.04,2.24-1.49,4.22-1.65,4.19
		C108.2,268.29,109.55,265.41,111.74,263.23z"/>
	<path fill="#FFFFFF" d="M162.42,285.13c-0.14-0.04-0.27-0.1-0.39-0.17c-0.25-0.13-0.63-0.29-1.13-0.5
		c-1.47-0.56-3.03-0.87-4.61-0.91c-2.5-0.07-4.97,0.57-7.13,1.84c-1.32,0.85-2.72,1.59-4.17,2.21c-1.7,0.56-3.52,0.68-5.28,0.33
		c-1.9-0.38-3.78-0.91-5.6-1.57c-1.94-0.71-3.96-1.17-6.01-1.36c-1.09-0.04-2.17,0.03-3.24,0.23c-1.11,0.22-2.19,0.52-3.25,0.91
		c-2.16,0.8-4.28,1.87-6.49,2.91c-1.11,0.52-2.24,1-3.42,1.47c-1.2,0.47-2.46,0.77-3.74,0.89c-1.33,0.15-2.67-0.01-3.93-0.47
		c-1.3-0.52-2.33-1.57-2.82-2.89c-0.36-1.31-0.59-2.65-0.7-4c-0.18-1.31-0.72-2.55-1.58-3.56c-1.66-2.09-4.23-3.59-5.51-6.29
		c-0.58-1.34-0.78-2.81-0.57-4.25c0.21-1.38,0.6-2.72,1.16-4c1.14-2.43,2.15-4.93,3-7.48c0.35-1.24,0.47-2.53,0.37-3.81
		c-0.14-1.26-0.51-2.48-1.09-3.61c-1.1-2.27-2.65-4.25-3.89-6.38c-1.36-2.03-2.06-4.43-2-6.87c0.31-2.25,1.02-4.43,2.09-6.44
		c0.96-1.84,1.67-3.8,2.11-5.83c0.29-1.89,0.04-3.82-0.73-5.57c-1.42-3.38-3.7-5.91-5.15-8.48c-0.7-1.19-1.25-2.46-1.62-3.79
		c-0.32-1.12-0.44-2.28-0.33-3.44c0.12-1.61,0.78-3.14,1.87-4.33c0.38-0.42,0.84-0.76,1.35-1c-0.45,0.29-0.88,0.63-1.27,1
		c-1.04,1.2-1.65,2.7-1.74,4.28c-0.09,1.13,0.03,2.27,0.35,3.36c0.41,1.29,0.97,2.52,1.68,3.67c1.45,2.53,3.76,5,5.24,8.49
		c0.82,1.81,1.09,3.81,0.79,5.77c-0.43,2.07-1.14,4.07-2.12,5.95c-1.04,1.96-1.71,4.09-2,6.29c-0.06,2.35,0.62,4.66,1.94,6.6
		c1.23,2.09,2.79,4.07,3.93,6.41c0.59,1.21,0.96,2.52,1.07,3.86c0.11,1.35-0.02,2.7-0.38,4c-0.85,2.57-1.85,5.08-3,7.53
		c-0.55,1.25-0.92,2.56-1.12,3.91c-0.2,1.36-0.02,2.74,0.52,4c1.17,2.51,3.69,4,5.44,6.19c0.91,1.08,1.5,2.4,1.69,3.8
		c0.1,1.32,0.32,2.62,0.67,3.9c0.43,1.19,1.35,2.14,2.53,2.6c1.18,0.43,2.44,0.58,3.69,0.45c2.45-0.37,4.81-1.14,7-2.3
		c2.2-1,4.34-2.11,6.53-2.91c1.08-0.39,2.2-0.7,3.33-0.92c1.1-0.2,2.22-0.29,3.34-0.25c2.11,0.21,4.18,0.69,6.16,1.42
		c1.81,0.66,3.66,1.19,5.54,1.59c1.7,0.35,3.46,0.25,5.11-0.28c1.44-0.6,2.82-1.33,4.14-2.16c3.64-2.08,8.04-2.36,11.92-0.76
		C161.47,284.61,161.96,284.85,162.42,285.13z"/>
	<path fill="#FFFFFF" d="M162.66,277.51l-0.32-0.15l-0.93-0.48c-1.18-0.63-2.4-1.16-3.66-1.61c-1.97-0.74-4.13-0.82-6.16-0.24
		c-2.36,0.7-4.63,2.44-7.42,3.87c-1.46,0.79-3.09,1.25-4.75,1.33c-1.81,0.06-3.61-0.35-5.21-1.19c-1.64-1-3.1-2.26-4.32-3.75
		c-1.31-1.39-2.87-2.78-4.88-3c-1.01-0.08-2.02,0.02-3,0.29c-1.02,0.29-2.03,0.66-3,1.09c-1,0.43-2,0.89-3,1.3
		c-1.04,0.45-2.14,0.76-3.26,0.92c-1.17,0.17-2.37,0-3.44-0.51c-1.08-0.55-1.96-1.42-2.52-2.49c-0.57-1.07-0.91-2.24-1-3.45
		c-0.07-1.2,0.03-2.41,0.28-3.59c0.49-2.36,1.3-4.57,1.72-6.83c0.46-2.21,0.6-4.47,0.4-6.72c-0.2-2.16-0.91-4.25-2.07-6.09
		c-0.56-0.9-1.19-1.78-1.71-2.72c-0.27-0.46-0.49-0.95-0.66-1.46c-0.19-0.49-0.33-1.01-0.42-1.53c-0.32-2.02-0.21-4.09,0.33-6.06
		c0.46-1.92,1.08-3.71,1.61-5.46c0.54-1.67,0.93-3.39,1.16-5.13c0.2-1.6,0.1-3.22-0.32-4.77c-0.85-3-2.45-5.35-3.53-7.57
		c-1.03-1.88-1.66-3.95-1.86-6.08c-0.13-1.37,0.1-2.74,0.65-4c0.19-0.43,0.45-0.83,0.76-1.19c0,0-0.29,0.4-0.66,1.23
		c-0.5,1.23-0.69,2.57-0.55,3.89c0.23,2.11,0.88,4.15,1.91,6c1.1,2.2,2.73,4.57,3.64,7.61c0.44,1.6,0.56,3.27,0.36,4.92
		c-0.22,1.77-0.6,3.51-1.15,5.2c-0.52,1.76-1.13,3.56-1.57,5.44c-0.52,1.91-0.62,3.91-0.31,5.87c0.09,0.49,0.22,0.98,0.4,1.45
		c0.17,0.49,0.38,0.96,0.64,1.4c0.5,0.9,1.13,1.77,1.7,2.69c1.2,1.9,1.94,4.05,2.16,6.29c0.21,2.3,0.07,4.62-0.41,6.88
		c-0.42,2.3-1.23,4.53-1.7,6.83c-0.25,1.13-0.35,2.29-0.28,3.45c0.08,1.13,0.39,2.23,0.91,3.24c0.51,0.98,1.31,1.77,2.29,2.27
		c0.98,0.47,2.08,0.64,3.16,0.47c1.08-0.15,2.14-0.45,3.14-0.88c1-0.39,2-0.86,3-1.28c0.97-0.44,1.98-0.81,3-1.11
		c1.04-0.29,2.12-0.38,3.19-0.29c0.53,0.08,1.04,0.22,1.54,0.4c0.48,0.19,0.94,0.44,1.37,0.74c0.81,0.59,1.56,1.26,2.24,2
		c1.18,1.45,2.6,2.69,4.19,3.68c1.54,0.82,3.26,1.22,5,1.17c1.61-0.08,3.18-0.51,4.6-1.26c2.75-1.38,5.06-3.12,7.5-3.81
		c2.08-0.59,4.3-0.47,6.31,0.32c1.26,0.47,2.47,1.04,3.64,1.71l0.9,0.52C162.42,277.34,162.55,277.41,162.66,277.51z"/>
	<path fill="#FFFFFF" d="M89.42,283.6c-0.19-0.2-0.36-0.41-0.5-0.64c-0.2-0.26-0.39-0.53-0.55-0.81c-0.24-0.37-0.46-0.76-0.66-1.16
		c-2.2-4.34-2.81-9.31-1.71-14.05c0.64-2.16,1.41-4.28,2.32-6.34c0.44-1.11,0.71-2.27,0.81-3.46c0.09-1.22-0.17-2.44-0.75-3.52
		c-1.17-2.22-3.44-3.9-4.58-6.52c-1.02-2.51-1.4-5.24-1.09-7.94c0.18-2.59,0.82-5,1.15-7.34c0.18-1.12,0.2-2.26,0.08-3.39
		c-0.15-1.06-0.44-2.09-0.88-3.06c-0.83-1.91-1.8-3.65-2.39-5.36c-0.98-2.67-1.53-5.48-1.63-8.32c-0.04-0.77-0.04-1.54,0-2.31
		c0-0.27,0.03-0.54,0.09-0.8c0.02,0.27,0.02,0.53,0,0.8c0,0.53,0,1.3,0.07,2.3c0.19,2.81,0.79,5.58,1.78,8.21
		c0.6,1.67,1.57,3.36,2.44,5.31c0.46,1.01,0.78,2.07,0.94,3.17c0.13,1.17,0.11,2.35-0.06,3.51c-0.33,2.37-0.95,4.77-1.12,7.32
		c-0.3,2.61,0.07,5.26,1.06,7.69c1,2.47,3.3,4.14,4.55,6.49c0.62,1.16,0.9,2.48,0.8,3.79c-0.11,1.23-0.4,2.44-0.86,3.59
		c-0.91,2.04-1.69,4.13-2.35,6.26c-0.46,1.88-0.64,3.82-0.55,5.75c0.11,2.81,0.79,5.57,2,8.11C88.77,282.71,89.47,283.6,89.42,283.6
		z"/>
	<path fill="#FFFFFF" d="M124.75,264.46c0.33-0.73,0.5-1.52,0.51-2.32c-0.03-0.94-0.22-1.86-0.57-2.73c-0.5-1.15-1.1-2.25-1.79-3.29
		c-0.87-1.28-1.56-2.66-2.06-4.12c-0.55-1.69-0.81-3.47-0.74-5.25c0.06-1.97,0.52-3.91,1.34-5.7c1-1.81,1.85-3.69,2.55-5.63
		c0.48-1.98,0.29-4.06-0.55-5.92c-0.78-1.74-1.71-3.42-2.77-5c-0.96-1.48-1.83-3.02-2.58-4.61c-0.62-1.41-1.05-2.9-1.28-4.43
		c-0.35-2.2-0.28-4.45,0.2-6.63c0.13-0.59,0.3-1.17,0.51-1.74c0.05-0.2,0.13-0.4,0.24-0.58c0,0-0.25,0.83-0.55,2.36
		c-0.39,2.16-0.39,4.37,0,6.53c0.25,1.49,0.69,2.94,1.32,4.32c0.75,1.55,1.61,3.05,2.57,4.48c1.09,1.62,2.04,3.32,2.84,5.1
		c0.88,1.97,1.08,4.17,0.57,6.26c-0.7,1.97-1.57,3.87-2.58,5.7c-0.81,1.73-1.26,3.6-1.33,5.51c-0.08,1.73,0.15,3.45,0.67,5.1
		c0.5,1.43,1.17,2.79,2,4.06c0.69,1.07,1.27,2.19,1.75,3.37c0.35,0.91,0.52,1.87,0.5,2.84c-0.02,0.61-0.15,1.22-0.39,1.78
		C125.03,264.12,124.9,264.3,124.75,264.46z"/>
	<path fill="#FFFFFF" d="M136.35,267.44c0,0,0.09-0.77,0.13-2.16c0.06-1.95-0.19-3.9-0.75-5.77c-0.39-1.29-0.91-2.54-1.54-3.73
		c-0.65-1.3-1.42-2.67-2-4.22c-0.7-1.63-0.99-3.4-0.85-5.17c0.1-0.94,0.39-1.86,0.87-2.68c0.47-0.82,1.06-1.56,1.52-2.36
		c0.89-1.57,1.07-3.45,0.51-5.17c-0.49-1.62-1.27-3.15-2.28-4.51c-0.93-1.34-1.9-2.58-2.68-3.84c-0.76-1.16-1.32-2.43-1.66-3.77
		c-0.41-1.95-0.46-3.95-0.14-5.92c0.1-0.69,0.2-1.23,0.27-1.59c0.03-0.19,0.08-0.37,0.15-0.54c0.02,0.19,0.02,0.37,0,0.56
		c-0.05,0.42-0.11,0.95-0.18,1.59c-0.23,1.94-0.13,3.9,0.3,5.81c0.36,1.29,0.92,2.52,1.66,3.63c0.78,1.22,1.76,2.44,2.71,3.79
		c1.06,1.4,1.87,2.98,2.38,4.66c0.57,1.86,0.33,3.88-0.67,5.55c-0.49,0.84-1.08,1.58-1.52,2.36c-0.45,0.76-0.73,1.6-0.82,2.48
		c-0.13,1.68,0.14,3.37,0.8,4.93c0.59,1.52,1.35,2.89,2,4.21c0.63,1.22,1.15,2.5,1.54,3.82c0.53,1.92,0.73,3.91,0.59,5.89
		c-0.03,0.54-0.1,1.07-0.19,1.6C136.47,267.08,136.42,267.26,136.35,267.44z"/>
	<g opacity="0.3">
		<path d="M109.96,216.49c5.14,15.79,4,40.13,13.82,49.1l-12.14-2.53c0.23-2.85,0.27-5.72,0.1-8.58
			C110.74,242,110.64,229.31,109.96,216.49"/>
	</g>
	<path fill="#263238" d="M108.82,210.86c0.38,1.17,0.68,2.37,0.9,3.58c0.28,1.46,0.49,2.94,0.63,4.42c0.16,1.76,0.19,3.79,0.28,6.06
		c0.29,9.11,0.71,22.19,1.22,38.13l-0.17-0.19l51.42,10.74h0.22v0.23c-0.37,5.85-0.77,12-1.18,18.28v0.24h-0.24l-6.26,0.07
		c-8.94,0.11-17.67,0.25-26.09,0.43c-4.22,0.09-8.36,0.2-12.41,0.33c-4,0.11-8,0.49-11.92-0.12c-1.91-0.28-3.79-0.77-5.59-1.46
		c-1.75-0.7-3.4-1.61-4.94-2.7c-2.87-2.15-5.38-4.76-7.42-7.71c-1-1.41-1.95-2.82-2.84-4.22l-0.67-1.05
		c-0.21-0.36-0.39-0.73-0.59-1.09s-0.38-0.73-0.58-1.09c-0.2-0.36-0.29-0.76-0.44-1.13c-1.08-2.89-1.85-5.88-2.3-8.93
		c-0.8-5.22-1.3-10.48-1.5-15.75c-0.23-4.65-0.34-8.66-0.45-11.93s-0.22-5.81-0.31-7.54c0-0.84-0.09-1.5-0.12-2
		c-0.03-0.5,0-0.67,0-0.67s0,0.22,0.08,0.66s0.1,1.11,0.17,2c0.13,1.72,0.28,4.26,0.41,7.53s0.28,7.28,0.54,11.93
		c0.23,5.25,0.74,10.49,1.55,15.69c0.45,3.02,1.22,5.99,2.31,8.84l0.43,1.11l0.57,1.06c0.2,0.36,0.38,0.72,0.58,1.07l0.67,1
		c0.89,1.4,1.83,2.8,2.84,4.2c2.03,2.91,4.5,5.47,7.34,7.59c1.51,1.06,3.13,1.94,4.84,2.63c1.77,0.67,3.61,1.14,5.49,1.4
		c3.81,0.6,7.78,0.21,11.83,0.11s8.2-0.26,12.41-0.35c8.43-0.19,17.16-0.33,26.1-0.44l6.26-0.07l-0.26,0.24
		c0.41-6.27,0.81-12.43,1.19-18.28l0.21,0.27l-51.43-10.72h-0.16v-0.16c-0.43-16-0.79-29-1-38.14c-0.07-2.28-0.08-4.3-0.23-6.05
		c-0.15-1.75-0.35-3.23-0.56-4.41c-0.21-1.18-0.42-2.09-0.57-2.69c-0.07-0.29-0.12-0.52-0.16-0.69
		C108.87,211.04,108.84,210.95,108.82,210.86z"/>
	<polygon fill="#FFBE9D" points="191.39,383.41 183.75,439.67 203.73,442.95 217.94,393.03 	"/>
	<path fill="#263238" d="M130.81,296.95c0,0,85.22-8.1,91.53-2.31s11.59,18.43,9.48,22.64s-6.84,18.43-6.84,18.43l-39.26-8.95
		L130.81,296.95z"/>
	<polygon fill="#FFBE9D" points="185.73,335.71 169.91,359.83 188.52,371.89 208.71,340.95 	"/>
	<path fill="#263238" d="M79.67,292.54c0,0-7.38,33.69,4.73,47.38s30,13.69,48.44,11.06s62.17-3.55,62.17-3.55s-1.95,12-3.38,25.57
		s-1.72,22.22-1.72,22.22l27.39,2.29c0,0,15.25-46.44,17.6-55.64s1.56-21.55-6.56-26.14c-6.88-3.88-61.12-18.92-87.09-21.16
		l-4.15-4.67L79.67,292.54z"/>
	<path fill="#455A64" d="M208.41,336.25c0,0.09-1.06,0.24-2.68,0.82c-0.95,0.35-1.86,0.77-2.74,1.27c-1.07,0.63-2.07,1.35-3,2.17
		c-0.91,0.84-1.73,1.76-2.46,2.75c-0.59,0.82-1.11,1.68-1.55,2.59c-0.75,1.56-1,2.61-1.1,2.59c0-0.26,0.03-0.51,0.11-0.76
		c0.16-0.68,0.38-1.35,0.65-2c0.41-0.95,0.91-1.87,1.5-2.72c1.45-2.1,3.36-3.83,5.6-5.05c0.91-0.5,1.87-0.9,2.86-1.21
		c0.65-0.21,1.32-0.36,2-0.44C208.1,336.22,208.41,336.21,208.41,336.25z"/>
	<path fill="#455A64" d="M205.16,308.2c0.28-1.03,0.77-2,1.44-2.83c0.53-0.93,1.25-1.75,2.11-2.38c-0.46,0.95-1.02,1.85-1.68,2.67
		C206.51,306.58,205.88,307.43,205.16,308.2z"/>
	<path fill="#455A64" d="M236.1,328.94l-0.08-0.26c-0.05-0.21-0.11-0.46-0.18-0.78c-0.17-0.68-0.42-1.69-0.83-3
		c-0.48-1.54-1.13-3.02-1.94-4.42c-1.01-1.88-2.55-3.42-4.42-4.45c-5.12-2.23-10.4-4.11-15.78-5.61
		c-6.06-1.81-12.74-3.73-19.79-5.59c-14.1-3.75-27.05-6.43-36.48-8c-4.71-0.8-8.54-1.34-11.19-1.71l-3-0.42l-0.79-0.12l-0.27-0.06
		c0.09-0.01,0.19-0.01,0.28,0l0.79,0.07l3.07,0.32c2.66,0.3,6.5,0.79,11.22,1.54c12.31,2,24.51,4.62,36.55,7.85
		c7.06,1.87,13.74,3.8,19.8,5.64c5.4,1.53,10.68,3.45,15.81,5.74c1.92,1.07,3.49,2.68,4.5,4.63c0.79,1.43,1.43,2.94,1.89,4.51
		c0.29,0.99,0.54,1.99,0.73,3c0.06,0.32,0.1,0.58,0.14,0.79C236.14,328.72,236.13,328.83,236.1,328.94z"/>
	<path fill="#587CF8" d="M205.28,441.49l0.67-2.44c-8.17-0.71-15.88-4.04-22-9.5l-6.85,14.63l45.14,20.08
		C223.98,459.94,205.28,441.49,205.28,441.49z"/>
	<path fill="#E0E0E0" d="M177.1,444.18l1.65-3.57l42.75,20.62c0,0,1.61,1.75,0.74,3L177.1,444.18z"/>
	<path fill="#263238" d="M204.68,441.21c-0.11,0.21-1.26-0.18-2.67,0s-2.41,0.86-2.57,0.68s0.75-1.27,2.46-1.49
		S204.82,441.03,204.68,441.21z"/>
	<path fill="#E0E0E0" d="M187.1,439.6c-0.33,0.63-1.09,0.9-1.74,0.6c-0.63-0.28-0.91-1.02-0.63-1.65c0.01-0.01,0.01-0.03,0.02-0.04
		c0.32-0.64,1.09-0.9,1.74-0.6c0.63,0.28,0.91,1.02,0.63,1.65C187.11,439.58,187.11,439.59,187.1,439.6z"/>
	<path fill="#263238" d="M204.41,440.91c-0.34-0.01-0.68-0.07-1-0.19c-0.95-0.22-1.82-0.68-2.53-1.35c-0.23-0.23-0.43-0.5-0.59-0.78
		c-0.2-0.3-0.33-0.64-0.38-1c-0.04-0.49,0.25-0.94,0.71-1.11c0.44-0.17,0.94-0.15,1.36,0.06c1.68,0.83,2.77,2.52,2.8,4.4l-0.67-0.09
		c0.12-0.35,0.27-0.68,0.45-1c1.01-1.74,2.88-2.8,4.89-2.77c0.26-0.01,0.52,0.04,0.76,0.15c0.26,0.14,0.45,0.38,0.51,0.67
		c0.07,0.46-0.04,0.93-0.32,1.3c-0.44,0.61-1.04,1.09-1.73,1.39c-0.99,0.39-2.05,0.54-3.1,0.46c-0.38,0.02-0.76-0.01-1.13-0.09
		c0.36-0.12,0.74-0.18,1.12-0.17c1-0.01,1.98-0.23,2.89-0.63c0.6-0.28,1.1-0.71,1.47-1.26c0.19-0.25,0.26-0.57,0.21-0.88
		c-0.05-0.25-0.27-0.33-0.68-0.33c-1.77,0.01-3.41,0.95-4.3,2.48c-0.16,0.28-0.29,0.58-0.39,0.89c-0.06,0.18-0.25,0.27-0.43,0.22
		c-0.14-0.05-0.23-0.18-0.24-0.32c-0.03-1.62-0.94-3.1-2.36-3.87c-0.61-0.32-1.33,0-1.27,0.49c0.1,0.58,0.36,1.11,0.76,1.54
		c0.64,0.64,1.42,1.13,2.28,1.42C203.82,440.62,204.13,440.75,204.41,440.91z"/>
	<path fill="#263238" d="M208.1,444.34c-1-0.02-2.01,0.05-3,0.21c-0.94,0.32-1.86,0.73-2.73,1.21c0.58-0.92,1.53-1.55,2.61-1.72
		C206.02,443.7,207.15,443.81,208.1,444.34z"/>
	<path fill="#263238" d="M210.66,447.21c0,0.15-1.24,0.11-2.65,0.54s-2.42,1.11-2.51,1c0.59-0.76,1.43-1.29,2.37-1.48
		C208.76,446.9,209.75,446.88,210.66,447.21z"/>
	<path fill="#587CF8" d="M192.1,369.17l1.07-2.29c-7.95-2.07-15.02-6.66-20.14-13.08l-9.13,13.29l41.12,27.38
		C207.39,390.5,192.1,369.17,192.1,369.17z"/>
	<path fill="#E0E0E0" d="M163.86,367.09l2.23-3.25l38.67,27.53c0,0,1.29,2,0.22,3.1L163.86,367.09z"/>
	<path fill="#263238" d="M191.52,368.79c-0.15,0.19-1.21-0.39-2.63-0.42s-2.52,0.44-2.65,0.24s1-1.13,2.67-1.06
		S191.68,368.6,191.52,368.79z"/>
	<path fill="#E0E0E0" d="M174.46,364.29c-0.42,0.57-1.22,0.7-1.81,0.3c-0.58-0.4-0.73-1.19-0.33-1.77c0,0,0.01-0.01,0.01-0.01
		c0.42-0.57,1.23-0.7,1.81-0.29c0.57,0.38,0.73,1.16,0.35,1.73C174.48,364.27,174.47,364.28,174.46,364.29z"/>
	<path fill="#263238" d="M191.3,368.45c-0.35-0.06-0.69-0.18-1-0.36c-0.9-0.38-1.68-0.98-2.27-1.75c-0.19-0.27-0.34-0.56-0.45-0.87
		c-0.15-0.34-0.22-0.72-0.2-1.09c0.04-0.49,0.4-0.9,0.89-1c0.46-0.09,0.95,0.01,1.33,0.29c1.52,1.1,2.29,2.96,2,4.81l-0.64-0.2
		c0.18-0.33,0.38-0.64,0.61-0.93c1.29-1.54,3.31-2.27,5.29-1.9c0.26,0.03,0.51,0.13,0.73,0.28c0.23,0.18,0.37,0.45,0.39,0.74
		c-0.01,0.47-0.2,0.91-0.54,1.23c-0.53,0.54-1.2,0.91-1.94,1.08c-1.04,0.21-2.11,0.19-3.13-0.07c-0.38-0.03-0.75-0.13-1.1-0.28
		c0.37-0.07,0.76-0.07,1.13,0c1,0.15,2.02,0.11,3-0.13c0.63-0.18,1.21-0.52,1.66-1c0.22-0.22,0.35-0.52,0.36-0.83
		c0-0.26-0.21-0.38-0.62-0.44c-1.74-0.29-3.51,0.36-4.65,1.71c-0.2,0.25-0.38,0.53-0.54,0.81c-0.08,0.16-0.28,0.23-0.44,0.15
		c0,0-0.01,0-0.01,0c-0.13-0.06-0.21-0.2-0.19-0.35c0.24-1.6-0.4-3.21-1.68-4.21c-0.55-0.43-1.3-0.27-1.33,0.26
		c0,0.58,0.17,1.15,0.49,1.64c0.52,0.74,1.2,1.36,2,1.79C190.76,368,191.05,368.2,191.3,368.45z"/>
	<path fill="#263238" d="M194.4,372.46c-0.99-0.18-1.99-0.28-3-0.29c-0.99,0.15-1.96,0.4-2.9,0.73c1.62-1.5,4.06-1.68,5.88-0.44
		H194.4z"/>
	<path fill="#263238" d="M196.4,375.71c0,0.15-1.24-0.09-2.7,0.09s-2.57,0.69-2.64,0.55C192.58,375.15,194.64,374.91,196.4,375.71
		L196.4,375.71z"/>
</g>
<g id="freepik--Floor--inject-2">
	<path fill="#263238" d="M468.58,468.75c0,0.14-94.69,0.26-211.47,0.26s-211.49-0.12-211.49-0.26s94.67-0.26,211.49-0.26
		S468.58,468.6,468.58,468.75z"/>
</g>
<g id="freepik--Window--inject-2">
	<polygon fill="#FAFAFA" points="162.71,44.52 162.71,225.71 339.41,225.71 452.4,225.71 452.4,44.52 	"/>
	<path fill="#EBEBEB" d="M294.78,73.16c0,0-9.42,126.89,157.22,123.22V73.16H294.78z"/>
	<rect x="162.71" y="55.16" fill="#F5F5F5" width="289.69" height="17.99"/>
	<rect x="162.71" y="43.1" fill="#263238" width="289.69" height="12.5"/>
	<circle fill="#455A64" cx="169.49" cy="49.92" r="1.62"/>
	<circle fill="#455A64" cx="175.54" cy="49.92" r="1.62"/>
	<circle fill="#455A64" cx="181.58" cy="49.92" r="1.62"/>
	<path fill="#263238" d="M307.55,82.08c0,0.09-5.71,0.17-12.76,0.17s-12.77-0.08-12.77-0.17s5.71-0.17,12.77-0.17
		S307.55,81.98,307.55,82.08z"/>
	<path fill="#263238" d="M341.52,82.08c0,0.09-5.71,0.17-12.76,0.17s-12.77-0.08-12.77-0.17s5.71-0.17,12.77-0.17
		S341.52,81.98,341.52,82.08z"/>
	<path fill="#263238" d="M375.49,82.08c0,0.09-5.71,0.17-12.76,0.17s-12.77-0.08-12.77-0.17s5.71-0.17,12.77-0.17
		S375.49,81.98,375.49,82.08z"/>
	<path fill="#263238" d="M409.77,82.08c0,0.09-5.72,0.17-12.77,0.17s-12.77-0.08-12.77-0.17s5.71-0.17,12.77-0.17
		S409.77,81.98,409.77,82.08z"/>
	<path fill="#263238" d="M439.54,86.14c0,0,0.21,0,0.61-0.1c0.57-0.15,1.08-0.46,1.46-0.91c0.28-0.31,0.48-0.69,0.59-1.09
		c0.1-0.5,0.13-1,0.09-1.51c-0.07-1.07,0.25-2.46-0.72-3.47c-0.46-0.52-1.11-0.85-1.81-0.9c-0.74,0-1.54,0-2.35,0h-5.2H420.3
		c-1.01,0-1.93,0.57-2.39,1.46c-0.22,0.43-0.32,0.92-0.29,1.4v1.58c-0.04,0.48-0.01,0.96,0.09,1.43c0.12,0.44,0.35,0.85,0.67,1.18
		c0.32,0.32,0.7,0.55,1.13,0.69c0.43,0.11,0.88,0.15,1.33,0.12h9.73h6.56h1.78h0.47c0.1,0,0.16,0,0.16,0h-0.16h-0.47h-1.78
		l-6.56,0.06h-9.73c-0.48,0.04-0.96,0-1.42-0.12c-0.48-0.15-0.92-0.42-1.27-0.78c-0.36-0.36-0.62-0.82-0.76-1.31
		c-0.06-0.25-0.1-0.51-0.1-0.77v-2.05c-0.02-0.54,0.09-1.07,0.33-1.55c0.51-1.02,1.55-1.65,2.69-1.65h11.91h5.2
		c0.82,0,1.59,0,2.37,0c1.49,0.14,2.65,1.37,2.71,2.87c0,0.62,0,1.21,0,1.76c0.03,0.52-0.01,1.04-0.13,1.55
		c-0.12,0.43-0.34,0.82-0.64,1.14c-0.41,0.45-0.95,0.76-1.55,0.88C439.97,86.11,439.76,86.14,439.54,86.14z"/>
	<path fill="#455A64" d="M194.1,85.95c0.01,3.05-2.46,5.52-5.51,5.53c-3.05,0.01-5.52-2.46-5.53-5.51s2.46-5.52,5.51-5.53
		c0,0,0.01,0,0.01,0C191.62,80.44,194.09,82.91,194.1,85.95z"/>
	<path fill="#FFFFFF" d="M408.53,68.48H200.9c-2.38-0.01-4.31-1.94-4.31-4.32l0,0c0-2.38,1.93-4.31,4.31-4.31h207.63
		c2.38,0,4.31,1.93,4.32,4.31l0,0C412.84,66.54,410.91,68.48,408.53,68.48z"/>
	<path fill="#263238" d="M406.39,63.6c-0.14-0.57-0.46-1.08-0.91-1.46c-0.5-0.35-1.15-0.43-1.72-0.21
		c-0.92,0.36-1.38,1.39-1.03,2.31c0.18,0.47,0.55,0.84,1.03,1.03c0.57,0.22,1.22,0.14,1.72-0.21
		C405.93,64.68,406.25,64.17,406.39,63.6c0,0,0.08,0.18,0,0.52c-0.08,0.49-0.33,0.93-0.72,1.23c-0.59,0.48-1.38,0.62-2.1,0.37
		c-1.17-0.4-1.8-1.67-1.4-2.84c0.22-0.66,0.74-1.17,1.4-1.4c0.72-0.25,1.51-0.11,2.1,0.37c0.39,0.3,0.64,0.74,0.72,1.23
		C406.47,63.43,406.42,63.6,406.39,63.6z"/>
	<path fill="#263238" d="M407.54,66.78c-0.11,0.1-0.58-0.2-1.07-0.68s-0.79-0.94-0.69-1s0.57,0.21,1.06,0.68
		S407.64,66.68,407.54,66.78z"/>
	<path fill="#263238" d="M265.1,114.5c0,0.14-17.62,0.26-39.34,0.26s-39.34-0.12-39.34-0.26s17.61-0.26,39.34-0.26
		S265.1,114.35,265.1,114.5z"/>
	<linearGradient id="SVGID_6_" gradientUnits="userSpaceOnUse" x1="196.2543" y1="145.8057" x2="255.2648" y2="111.7359">
		<stop  offset="6.425827e-07" style="stop-color:#A770EF"/>
		<stop  offset="0.3932" style="stop-color:#CF8BF3"/>
		<stop  offset="1" style="stop-color:#FDB99B"/>
	</linearGradient>
	<path fill="url(#SVGID_6_)" d="M265.1,128.77c0,0.14-17.62,0.26-39.34,0.26s-39.34-0.12-39.34-0.26s17.61-0.26,39.34-0.26
		S265.1,128.6,265.1,128.77z"/>
	<path fill="#263238" d="M232.98,143.04c0,0.14-10.41,0.26-23.26,0.26s-23.26-0.12-23.26-0.26s10.41-0.26,23.26-0.26
		S232.98,142.9,232.98,143.04z"/>
	<circle fill="#FAFAFA" cx="312.48" cy="206.55" r="12.2"/>
	<path fill="#263238" d="M324.68,206.6c-0.1-0.99-0.26-1.98-0.48-2.95c-1.64-6.42-8.18-10.29-14.6-8.65c-0.4,0.1-0.8,0.23-1.19,0.37
		c-1.08,0.39-2.09,0.94-3,1.63c-0.97,0.71-1.82,1.57-2.53,2.54c-3.09,4.2-3.09,9.92,0,14.12c0.7,0.98,1.56,1.83,2.53,2.54
		c0.91,0.69,1.92,1.24,3,1.63c2.01,0.74,4.18,0.92,6.28,0.54c1.84-0.33,3.57-1.09,5.06-2.22c2.18-1.64,3.75-3.96,4.45-6.59
		c0.22-0.99,0.38-1.99,0.48-3c0.02,0.26,0.02,0.52,0,0.78c0.01,0.33-0.02,0.67-0.07,1c-0.04,0.43-0.12,0.86-0.22,1.28
		c-1.14,4.68-4.9,8.27-9.63,9.19c-2.18,0.41-4.44,0.24-6.53-0.52c-1.13-0.4-2.18-0.97-3.13-1.69c-1.02-0.73-1.91-1.62-2.64-2.64
		c-3.24-4.37-3.24-10.35,0-14.72c1.47-1.97,3.48-3.48,5.79-4.32c2.09-0.75,4.35-0.92,6.53-0.51c1.89,0.37,3.67,1.17,5.2,2.35
		c2.22,1.7,3.78,4.12,4.42,6.84c0.1,0.42,0.18,0.85,0.22,1.28c0.05,0.31,0.07,0.63,0.07,0.94
		C324.71,206.08,324.71,206.34,324.68,206.6z"/>
	<polygon fill="#263238" points="309.96,205.35 315.01,205.35 312.48,209.19 	"/>
	<path fill="#EBEBEB" d="M226.52,192.14H191.1c-3.57-0.01-6.46-2.9-6.46-6.47l0,0c0-3.57,2.89-6.46,6.46-6.46h0h35.45
		c3.57,0,6.46,2.89,6.46,6.46v0l0,0c0,3.57-2.9,6.47-6.47,6.47C226.53,192.14,226.53,192.14,226.52,192.14z"/>
	<linearGradient id="SVGID_7_" gradientUnits="userSpaceOnUse" x1="247.5179" y1="195.7696" x2="282.4925" y2="175.577">
		<stop  offset="6.425827e-07" style="stop-color:#A770EF"/>
		<stop  offset="0.3932" style="stop-color:#CF8BF3"/>
		<stop  offset="1" style="stop-color:#FDB99B"/>
	</linearGradient>
	<path fill="url(#SVGID_7_)" d="M280.86,192.14h-31.7c-3.57,0-6.47-2.9-6.47-6.47l0,0l0,0c0-3.57,2.89-6.46,6.46-6.46
		c0,0,0.01,0,0.01,0h31.7c3.57,0,6.46,2.89,6.46,6.46l0,0C287.32,189.24,284.43,192.14,280.86,192.14z"/>
	<path fill="#263238" d="M377.27,122.23c0.18-7.88,0.18-12.35,1.18-18.72l14.65,18.28c-1.26,8.03-0.96,16.23,0.87,24.15
		c0.22,0.94,0.41,2.07-0.27,2.76c-1.08,1.09-3-0.1-4.46,0.24c-1.82,0.4-2.9,3-4.73,2.66c-2.06-0.42-2.35-4.3-4.43-4
		c-0.76,0.1-1.4,0.83-2.16,0.71c-1-0.14-1.2-1.45-1.18-2.44L377.27,122.23z"/>
	<path fill="#587CF8" d="M375.8,141.25c0,0-6.33,1.56-8.36,9.85s-2.79,28.36-2.79,28.36h10.45l0.67-37.39"/>
	<path fill="#263238" d="M399.62,130l3-26.91l5.55-6.21c6.14,7.52,7.91,16.35,8.42,22.12c0.82,9.41,2.81,17.56,0.52,26.77
		c-0.06,0.5-0.34,0.94-0.75,1.22c-0.37,0.15-0.77,0.2-1.17,0.15l-14.34-0.61C398.42,141.38,399,135.6,399.62,130z"/>
	<polygon fill="#FFBE9D" points="412.02,140.25 408.21,138.25 389.18,139.35 383.7,142.1 399.08,148.72 411.02,142.05 	"/>
	<path fill="#587CF8" d="M416.73,195.04c0-1.7-3.34-8.17-3.34-8.17s0.89-1.8,3.34-7.71c2.07-5,0.94-10.82,0.94-10.82l4.27-23.9
		l-11.41-5.47c0,0-7.76,7-14.66,6.43s-7.09-6.5-7.09-6.5l-13,2.35l-1.48,36.1l1.45,9.08C389.07,190.71,402.81,193.6,416.73,195.04z"
		/>
	<path fill="#587CF8" d="M431.27,160.35c-0.45-14.51-9.33-15.91-9.33-15.91l-4.22,19.63l0.16,19.29l13.53-0.5
		C431.6,175.06,431.41,164.93,431.27,160.35z"/>
	<path fill="#FFBE9D" d="M365.98,179.23l1.43-15.63l2.69-18c1-0.87,1.71-2.02,2.05-3.3c0.27-1.82-0.64-12.42-0.64-12.42
		s-1.42-0.16-1.95,1.94c-0.33,1.65-0.56,3.32-0.69,5l-3-7.74c-0.68-1.74-1.81-4.32-2.78-4.22s0.27,3.49,0.51,5s0.62,3.68,0.62,3.68
		s-2.83-6.78-4.11-8.41c-0.93-1.19-2.27,0.17-1.49,1.71c0,0-1.44-1.2-1.56,0.29s2.77,8.14,2.28,8.26s-3.15-5.15-4.09-5.27
		c-0.53-0.06-0.78,0.7-0.17,2.08s5.14,11.3,6.23,12.84c-1.46,4.8-6.24,21-7.69,31.77c5.89,3.18,12.01,5.93,18.29,8.23
		c0.94-1.8,1.71-3.69,2.32-5.63L365.98,179.23z"/>
	<path fill="#EB996E" d="M362.75,140.34c0.42-0.1,0.85-0.1,1.27,0c1.02,0.19,1.99,0.59,2.85,1.17l-0.29,0.12v-0.12
		c0.2-1.06,0.58-2.08,1.14-3c0.43-0.69,0.79-1.05,0.83-1c-0.72,1.27-1.25,2.63-1.59,4.05v0.12l-0.06,0.29l-0.24-0.17
		C365.45,141.09,364.13,140.6,362.75,140.34z"/>
	<path fill="#EB996E" d="M358.51,126.6c0.81,1.32,1.53,2.7,2.14,4.13c0.72,1.38,1.26,2.85,1.6,4.37c-0.1,0-0.86-1.9-1.95-4.21
		C359.58,129.52,358.98,128.08,358.51,126.6z"/>
	<path fill="#EB996E" d="M363.74,145.91c0-0.1,1,0.13,2.24,0.15s2.2-0.19,2.23-0.08c-0.68,0.37-1.46,0.53-2.24,0.46
		C365.19,146.49,364.42,146.3,363.74,145.91z"/>
	<g opacity="0.3">
		<path d="M405.39,185.68c-1.92,1.08-3.88,2.08-5.87,3c-0.98,0.5-2.01,0.87-3.08,1.11c-2.23,0.39-4.49-0.35-6.59-1.2
			c-1.46-0.52-2.83-1.26-4.05-2.21c2.68,0.68,5.43,1.01,8.19,1c1.88-0.02,3.76-0.15,5.62-0.4c2-0.36,3.47-1,5.48-1.31"/>
	</g>
	<g opacity="0.3">
		<path d="M417.76,174.52c0-2.38-1.34-4.52-2-6.81c-0.96-3.45-0.26-7.15,1.9-10c-0.27,3.08-0.25,6.18,0.06,9.25
			c0.19,2.29-0.1,4.82,0,7.52"/>
	</g>
	<path fill="#FFBE9D" d="M380.68,108c-0.12-7.24,5.4-13.33,12.61-13.94c7.37-0.62,13.84,4.86,14.46,12.23
		c0.01,0.15,0.02,0.31,0.03,0.46l0.42,30.15c0,0.58,0.06,2.93-0.29,3.39c-1.88,2.5-6,3.47-8.83,3.74c-2.73,0.19-5.44-0.51-7.73-2
		c-0.78-0.48-0.8-2.24-0.78-3.15l0.19-6.74 M390.71,132.14c-0.63,0.02-1.26-0.03-1.88-0.14c-1.76-0.52-6.22-2.47-7.43-9.19
		c-0.51-4.92-0.76-9.86-0.72-14.81L390.71,132.14z"/>
	<path fill="#263238" d="M390.1,118.28c-0.63-0.18-1.28-0.28-1.94-0.3c-0.31,0-0.6-0.07-0.65-0.28c-0.04-0.31,0.03-0.62,0.18-0.89
		c0.28-0.73,0.56-1.49,0.86-2.29c0.8-1.95,1.44-3.95,1.91-6c-0.96,1.88-1.76,3.83-2.4,5.84l-0.81,2.3
		c-0.18,0.36-0.23,0.78-0.14,1.18c0.09,0.21,0.28,0.37,0.51,0.42c0.17,0.05,0.34,0.07,0.52,0.06
		C388.79,118.39,389.45,118.38,390.1,118.28z"/>
	<path fill="#263238" d="M384.34,112.36c0.02,0.59,0.5,1.06,1.09,1.07c0.58,0.04,1.08-0.4,1.12-0.98c0-0.01,0-0.02,0-0.02
		c-0.02-0.59-0.5-1.06-1.09-1.07C384.88,111.33,384.37,111.77,384.34,112.36C384.34,112.36,384.34,112.36,384.34,112.36z"/>
	<path fill="#263238" d="M382.45,109.22c0.1,0.13,1,0.09,2.11,0.51s1.83,1,2,1s0-0.2-0.33-0.47c-0.46-0.39-0.99-0.69-1.56-0.89
		c-0.55-0.21-1.13-0.31-1.71-0.3C382.55,109.08,382.39,109.17,382.45,109.22z"/>
	<path fill="#263238" d="M396.03,112.01c0.01,0.59,0.5,1.07,1.09,1.07c0.58,0.04,1.08-0.4,1.12-0.98c0-0.01,0-0.02,0-0.02
		c-0.01-0.59-0.49-1.06-1.08-1.07C396.57,110.98,396.07,111.42,396.03,112.01z"/>
	<path fill="#263238" d="M394.57,110.53c0.18,0,0.84-0.67,2-1.2s2.19-0.6,2.27-0.73s-0.15-0.13-0.6-0.1
		c-0.65,0.06-1.28,0.22-1.87,0.49c-0.57,0.24-1.1,0.58-1.56,1C394.55,110.34,394.49,110.52,394.57,110.53z"/>
	<path fill="#EB996E" d="M390.76,132.11c0,0,4.6,0.26,10.28-3.28c0,0-1.7,6-10.34,5.43L390.76,132.11z"/>
	<path fill="#EB996E" d="M390.67,121.09c0.45-0.58,1.17-0.9,1.91-0.83c0.53,0.03,1.02,0.27,1.36,0.68c0.34,0.39,0.39,0.95,0.12,1.39
		c-0.38,0.44-1,0.61-1.55,0.42c-0.56-0.18-1.09-0.47-1.54-0.85c-0.13-0.09-0.25-0.21-0.34-0.34c-0.09-0.13-0.09-0.31,0-0.44"/>
	<path fill="#263238" d="M393.63,119c-0.19,0-0.17,1.27-1.26,2.19s-2.46,0.83-2.47,1s0.31,0.24,0.89,0.24
		c0.76,0,1.49-0.27,2.07-0.76c0.56-0.45,0.92-1.11,1-1.83C393.87,119.31,393.72,118.99,393.63,119z"/>
	<path fill="#263238" d="M393.9,105.79c0.16,0.3,1.31,0,2.72-0.06s2.57,0.17,2.72-0.14c0.06-0.15-0.18-0.42-0.67-0.66
		c-0.66-0.29-1.37-0.43-2.09-0.39c-0.72,0.02-1.42,0.2-2.05,0.55C394.1,105.36,393.83,105.65,393.9,105.79z"/>
	<path fill="#263238" d="M382.57,105.67c0.21,0.26,1,0,2-0.07s1.82,0.13,2-0.15s-0.05-0.4-0.42-0.64c-0.49-0.3-1.07-0.44-1.65-0.4
		c-0.58,0.02-1.14,0.22-1.6,0.57C382.58,105.26,382.47,105.54,382.57,105.67z"/>
	<path fill="#263238" d="M392.3,92.51c0.75-0.98,1.9-1.57,3.14-1.6c5.31-0.56,11,2.88,13.79,7.45s2.6,11.19,0.22,16l-2.68-1.76
		c-4.1-0.43-9.81-10.24-15.29-16.83C390.8,94.95,391.72,93.4,392.3,92.51z"/>
	<path fill="#263238" d="M382.1,95.5c2.32-2.4,6-5.3,10.53-3.35c0.61,1.31-0.82,2.91-2,3.83c-1.73,1.35-2.85,3.13-4,4.1
		c-2.29,2-5.88,6.59-5.89,10.38c0,2.92,0.19,2.78,0,2.74c-0.77-1.3-1.37-2.7-1.79-4.15C377.47,101.41,379.75,97.91,382.1,95.5z"/>
	<path fill="#FFBE9D" d="M406.26,112.11c0.13-0.06,5.08-1.76,5.15,3.37s-5.09,4.15-5.1,4S406.26,112.11,406.26,112.11z"/>
	<path fill="#EB996E" d="M407.85,117.52c0,0,0.09,0.06,0.24,0.12c0.21,0.09,0.46,0.09,0.67,0c0.67-0.44,1.05-1.2,1-2
		c0-0.44-0.09-0.88-0.27-1.28c-0.1-0.33-0.36-0.58-0.69-0.67c-0.21-0.06-0.43,0.05-0.52,0.25c-0.07,0.14,0,0.25-0.06,0.25
		s-0.11-0.08-0.07-0.29c0.03-0.13,0.09-0.24,0.19-0.33c0.14-0.11,0.32-0.15,0.5-0.13c0.43,0.08,0.78,0.38,0.94,0.78
		c0.23,0.44,0.34,0.93,0.33,1.42c0.07,0.94-0.43,1.82-1.27,2.24c-0.28,0.08-0.58,0.03-0.82-0.13
		C407.86,117.6,407.83,117.52,407.85,117.52z"/>
	<path fill="#455A64" d="M395.44,90.91c-0.33-0.09-0.67-0.09-1,0c-0.82,0.22-1.56,0.66-2.14,1.27c-0.16,0.18-0.31,0.38-0.44,0.58
		c-0.11,0.2-0.2,0.41-0.27,0.62c-0.13,0.35-0.24,0.71-0.32,1.07c-0.09,0.33-0.07,0.68,0.05,1c0.05,0,0-0.39,0.17-1
		c0.08-0.29,0.22-0.63,0.37-1c0.07-0.2,0.16-0.39,0.26-0.57c0.13-0.18,0.27-0.36,0.42-0.52c0.55-0.58,1.24-1.02,2-1.27
		C394.84,91.05,395.14,90.99,395.44,90.91z"/>
	<path fill="#263238" d="M392.87,94.68c0.08,0,0.26,1.27,0.82,3.28c0.71,2.61,1.85,5.08,3.39,7.31c1.56,2.21,3.59,4.05,5.94,5.38
		c1.82,1,3.1,1.3,3.07,1.39c-0.31,0-0.61-0.06-0.9-0.16c-0.81-0.23-1.59-0.53-2.34-0.91c-2.48-1.27-4.6-3.12-6.2-5.4
		c-1.58-2.27-2.7-4.82-3.32-7.52c-0.19-0.81-0.33-1.63-0.43-2.46C392.84,95.29,392.83,94.98,392.87,94.68z"/>
	<path fill="#263238" d="M375.77,186.43c-0.09-0.2-0.14-0.41-0.17-0.63l-0.33-1.81c-0.27-1.66-0.64-3.86-1.06-6.44v0.06
		c-1.25-2.61-2.05-5.41-2.39-8.29c-0.46-4.17,0.04-8.4,1.47-12.35c0.43-1.19,0.95-2.34,1.54-3.46c0.2-0.42,0.45-0.81,0.73-1.18
		c0.1,0.05-0.91,1.75-1.92,4.76c-1.31,3.91-1.75,8.07-1.3,12.17c0.33,2.82,1.1,5.58,2.28,8.16v0.06c0.35,2.6,0.65,4.8,0.87,6.47
		c0.09,0.72,0.15,1.32,0.21,1.82C375.75,185.99,375.77,186.21,375.77,186.43z"/>
	<path fill="#263238" d="M417.58,158.66c0.14,0,0.32,5.08,0.41,11.34s0,11.34-0.11,11.34s-0.33-5.07-0.41-11.34
		S417.43,158.67,417.58,158.66z"/>
	<path fill="#263238" d="M422.97,145.6c-1.06,0.88-2,1.89-2.82,3c-0.69,1.19-1.24,2.45-1.63,3.77c-0.03-2.95,1.73-5.63,4.45-6.76
		V145.6z"/>
	<path fill="#FFBE9D" d="M418.52,183.34l-1,11.79c3.75,0.39,7.91,0.69,12.32,0.93l0.9-13.18L418.52,183.34z"/>
	<linearGradient id="SVGID_8_" gradientUnits="userSpaceOnUse" x1="354.1086" y1="230.3166" x2="388.5094" y2="210.4553">
		<stop  offset="6.425827e-07" style="stop-color:#A770EF"/>
		<stop  offset="0.3932" style="stop-color:#CF8BF3"/>
		<stop  offset="1" style="stop-color:#FDB99B"/>
	</linearGradient>
	<path fill="url(#SVGID_8_)" d="M372.73,204.42c-11.75,0.01-21.28,9.54-21.28,21.29h42.57
		C394.02,213.95,384.49,204.42,372.73,204.42C372.73,204.42,372.73,204.42,372.73,204.42z"/>
	<circle fill="#455A64" cx="347.5" cy="192.13" r="4.33"/>
	<path fill="#263238" d="M162.71,43.1l289.69-0.24h0.24v0.24c0,56.14,0,117.84,0,182.59v0.28h-0.26l-289.69-0.05h-0.2v-0.21
		c0.12-111.62,0.2-180.94,0.2-182.61c0,1.67,0.08,71,0.21,182.61l-0.21-0.2l289.69-0.06l-0.26,0.26l0,0c0-64.75,0-126.45,0-182.59
		l0.24,0.24L162.71,43.1z"/>
</g>
</svg>
