<?xml version="1.0" encoding="utf-8"?>
<!-- Generator: Adobe Illustrator 25.0.0, SVG Export Plug-In . SVG Version: 6.00 Build 0)  -->
<svg version="1.1" id="Layer_1" xmlns="http://www.w3.org/2000/svg" xmlns:xlink="http://www.w3.org/1999/xlink" x="0px" y="0px"
	 viewBox="0 0 750 500" enable-background="new 0 0 750 500" xml:space="preserve">
<g id="freepik--Plant--inject-51">
	<linearGradient id="SVGID_1_" gradientUnits="userSpaceOnUse" x1="588.93" y1="326.4194" x2="609.5601" y2="326.4194">
		<stop  offset="6.425827e-07" style="stop-color:#A770EF"/>
		<stop  offset="0.3932" style="stop-color:#CF8BF3"/>
		<stop  offset="1" style="stop-color:#FDB99B"/>
	</linearGradient>
	<path fill="url(#SVGID_1_)" d="M609.52,327.76c-4.09-2.57-8.72-4.17-13.52-4.67c-2.21-0.22-4.63-0.16-6.41,1.18
		c-0.41,0.25-0.66,0.69-0.66,1.17c0.11,0.33,0.33,0.61,0.63,0.8c5.86,4.19,13.57,4.77,20,1.52"/>
	<linearGradient id="SVGID_2_" gradientUnits="userSpaceOnUse" x1="594.7494" y1="316.75" x2="609.17" y2="316.75">
		<stop  offset="6.425827e-07" style="stop-color:#A770EF"/>
		<stop  offset="0.3932" style="stop-color:#CF8BF3"/>
		<stop  offset="1" style="stop-color:#FDB99B"/>
	</linearGradient>
	<path fill="url(#SVGID_2_)" d="M609.17,327.37c-3.14-2.3-6.07-4.88-8.75-7.7c-2.7-2.83-4.59-6.33-5.48-10.14
		c-0.36-1.14-0.2-2.38,0.43-3.4C602.37,311.58,607.82,318.63,609.17,327.37"/>
	<linearGradient id="SVGID_3_" gradientUnits="userSpaceOnUse" x1="608.998" y1="317.63" x2="616.4386" y2="317.63">
		<stop  offset="6.425827e-07" style="stop-color:#A770EF"/>
		<stop  offset="0.3932" style="stop-color:#CF8BF3"/>
		<stop  offset="1" style="stop-color:#FDB99B"/>
	</linearGradient>
	<path fill="url(#SVGID_3_)" d="M609.45,327.7c-0.65-3.8-0.6-7.7,0.16-11.48c0.78-3.82,2.96-7.2,6.12-9.48
		c1.2,2.81,0.69,6.06-0.16,9c-1.31,4.56-3.37,8.88-6.07,12.78"/>
	<linearGradient id="SVGID_4_" gradientUnits="userSpaceOnUse" x1="599.21" y1="348.085" x2="616.29" y2="348.085">
		<stop  offset="6.425827e-07" style="stop-color:#A770EF"/>
		<stop  offset="0.3932" style="stop-color:#CF8BF3"/>
		<stop  offset="1" style="stop-color:#FDB99B"/>
	</linearGradient>
	<path fill="url(#SVGID_4_)" d="M616.29,340c-4.16,0.51-7.77,2.7-10.87,5.5c-3.12,2.84-5.28,6.56-6.21,10.67
		c4.07-0.25,7.52-3.12,10-6.34s4.24-6.75,7-9.76"/>
	<linearGradient id="SVGID_5_" gradientUnits="userSpaceOnUse" x1="615.9082" y1="329.24" x2="622.1377" y2="329.24">
		<stop  offset="6.425827e-07" style="stop-color:#A770EF"/>
		<stop  offset="0.3932" style="stop-color:#CF8BF3"/>
		<stop  offset="1" style="stop-color:#FDB99B"/>
	</linearGradient>
	<path fill="url(#SVGID_5_)" d="M617.77,341.91c-3.32-8.43-2.15-17.96,3.09-25.34C623.23,324.98,622.36,334.48,617.77,341.91"/>
	<linearGradient id="SVGID_6_" gradientUnits="userSpaceOnUse" x1="608.0125" y1="358.9054" x2="626.89" y2="358.9054">
		<stop  offset="6.425827e-07" style="stop-color:#A770EF"/>
		<stop  offset="0.3932" style="stop-color:#CF8BF3"/>
		<stop  offset="1" style="stop-color:#FDB99B"/>
	</linearGradient>
	<path fill="url(#SVGID_6_)" d="M626.8,352.67c-7.75-0.47-15.04,3.72-18.52,10.67c-0.3,0.42-0.35,0.98-0.13,1.45
		c0.33,0.31,0.79,0.45,1.23,0.36c3.65-0.24,6.89-2.43,9.56-4.93s5-5.4,7.95-7.56"/>
	<linearGradient id="SVGID_7_" gradientUnits="userSpaceOnUse" x1="624.9633" y1="339.2551" x2="632.3363" y2="339.2551">
		<stop  offset="6.425827e-07" style="stop-color:#A770EF"/>
		<stop  offset="0.3932" style="stop-color:#CF8BF3"/>
		<stop  offset="1" style="stop-color:#FDB99B"/>
	</linearGradient>
	<path fill="url(#SVGID_7_)" d="M626.52,352.09c-1.95-6.26-2.07-12.95-0.35-19.28c0.68-2.48,1.82-5.09,4.11-6.26
		c0.19-0.12,0.41-0.16,0.63-0.11c0.19,0.1,0.33,0.26,0.4,0.46c0.78,1.73,1.13,3.63,1,5.53c-0.13,1.89-0.42,3.76-0.86,5.6
		c-0.73,3.42-1.11,7.1-3,10.05c-0.44,0.71-0.84,1.45-1.19,2.21c-0.36,0.75-0.36,1-0.68,1.61"/>
	<linearGradient id="SVGID_8_" gradientUnits="userSpaceOnUse" x1="649.7667" y1="345.0331" x2="657.02" y2="345.0331">
		<stop  offset="6.425827e-07" style="stop-color:#A770EF"/>
		<stop  offset="0.3932" style="stop-color:#CF8BF3"/>
		<stop  offset="1" style="stop-color:#FDB99B"/>
	</linearGradient>
	<path fill="url(#SVGID_8_)" d="M650.43,355.65c-1.77-6.74,0.11-14.91,4.36-20.44c0.31-0.4,0.72-0.84,1.23-0.79
		c0.79,0.07,1,1.11,1,1.9c-0.32,6.93-2.59,13.63-6.54,19.33"/>
	<linearGradient id="SVGID_9_" gradientUnits="userSpaceOnUse" x1="652.59" y1="353.9605" x2="676.98" y2="353.9605">
		<stop  offset="6.425827e-07" style="stop-color:#A770EF"/>
		<stop  offset="0.3932" style="stop-color:#CF8BF3"/>
		<stop  offset="1" style="stop-color:#FDB99B"/>
	</linearGradient>
	<path fill="url(#SVGID_9_)" d="M652.59,357.12c8.47,1.98,17.38,0.15,24.39-5c-4.08-2.05-8.75-2.62-13.21-1.62
		c-4.41,1-8.44,3-11.18,6.58"/>
	<linearGradient id="SVGID_10_" gradientUnits="userSpaceOnUse" x1="654.4" y1="346.255" x2="676.54" y2="346.255">
		<stop  offset="6.425827e-07" style="stop-color:#A770EF"/>
		<stop  offset="0.3932" style="stop-color:#CF8BF3"/>
		<stop  offset="1" style="stop-color:#FDB99B"/>
	</linearGradient>
	<path fill="url(#SVGID_10_)" d="M654.4,352.63c4.59-7.47,13.38-12.35,22.14-12.8c-1,3.57-3.94,6.34-7.24,8
		c-3.38,1.54-6.96,2.61-10.63,3.17c-1.41,0.27-3.35,0.57-4.27,1.68"/>
	<linearGradient id="SVGID_11_" gradientUnits="userSpaceOnUse" x1="647.7056" y1="318.15" x2="653.848" y2="318.15">
		<stop  offset="6.425827e-07" style="stop-color:#A770EF"/>
		<stop  offset="0.3932" style="stop-color:#CF8BF3"/>
		<stop  offset="1" style="stop-color:#FDB99B"/>
	</linearGradient>
	<path fill="url(#SVGID_11_)" d="M650.89,330.86c1.39-4.22,2.34-8.58,2.83-13c0.49-4.44-0.42-8.92-2.59-12.83
		c-4.28,8.29-4.71,18-0.37,26.24"/>
	<linearGradient id="SVGID_12_" gradientUnits="userSpaceOnUse" x1="665.31" y1="314.8773" x2="690.88" y2="314.8773">
		<stop  offset="6.425827e-07" style="stop-color:#A770EF"/>
		<stop  offset="0.3932" style="stop-color:#CF8BF3"/>
		<stop  offset="1" style="stop-color:#FDB99B"/>
	</linearGradient>
	<path fill="url(#SVGID_12_)" d="M665.31,323.57c5-9.1,15.23-16.37,25.57-17.39C686.88,316.11,676.01,323.79,665.31,323.57"/>
	<linearGradient id="SVGID_13_" gradientUnits="userSpaceOnUse" x1="662.15" y1="329.4716" x2="691.3201" y2="329.4716">
		<stop  offset="6.425827e-07" style="stop-color:#A770EF"/>
		<stop  offset="0.3932" style="stop-color:#CF8BF3"/>
		<stop  offset="1" style="stop-color:#FDB99B"/>
	</linearGradient>
	<path fill="url(#SVGID_13_)" d="M662.15,325.36c7.48,1.13,13.84,5.91,20.82,8.8c1.46,0.71,3.09,1.02,4.71,0.9
		c2.03-0.02,3.66-1.69,3.64-3.72c-0.01-1.09-0.5-2.11-1.34-2.8c-0.99-0.91-2.15-1.62-3.41-2.07c-7.61-3.17-15.76-3.25-23.77-1.33"/>
	<linearGradient id="SVGID_14_" gradientUnits="userSpaceOnUse" x1="657.83" y1="335.7703" x2="679.0304" y2="335.7703">
		<stop  offset="6.425827e-07" style="stop-color:#A770EF"/>
		<stop  offset="0.3932" style="stop-color:#CF8BF3"/>
		<stop  offset="1" style="stop-color:#FDB99B"/>
	</linearGradient>
	<path fill="url(#SVGID_14_)" d="M657.83,330.6c1.69,0.48,2.27,1.36,3.61,2.5c4.57,3.88,9.97,6.66,15.79,8.11
		c0.6,0.15,1.39,0.2,1.69-0.34s-0.07-1.05-0.41-1.48c-2.54-2.97-5.83-5.21-9.53-6.47c-3.64-1.35-6.8-3-11.15-2.64"/>
	<linearGradient id="SVGID_15_" gradientUnits="userSpaceOnUse" x1="652.96" y1="302.5497" x2="677.1259" y2="302.5497">
		<stop  offset="6.425827e-07" style="stop-color:#A770EF"/>
		<stop  offset="0.3932" style="stop-color:#CF8BF3"/>
		<stop  offset="1" style="stop-color:#FDB99B"/>
	</linearGradient>
	<path fill="url(#SVGID_15_)" d="M653,299c6.2,5.71,14.52,8.54,22.91,7.79c0.37,0,0.72-0.13,1-0.37c0.58-0.63-0.12-1.6-0.79-2.12
		c-6.73-5.25-14.89-7.43-23.16-5.3"/>
	<linearGradient id="SVGID_16_" gradientUnits="userSpaceOnUse" x1="658.7" y1="294.4603" x2="687.32" y2="294.4603">
		<stop  offset="6.425827e-07" style="stop-color:#A770EF"/>
		<stop  offset="0.3932" style="stop-color:#CF8BF3"/>
		<stop  offset="1" style="stop-color:#FDB99B"/>
	</linearGradient>
	<path fill="url(#SVGID_16_)" d="M658.74,296.83c8.23-6.05,18.85-7.8,28.58-4.71c-3.74,3.47-8.54,5.59-13.62,6
		c-5.04,0.46-10.11,0.03-15-1.27"/>
	<linearGradient id="SVGID_17_" gradientUnits="userSpaceOnUse" x1="652.5826" y1="272.1846" x2="656.44" y2="272.1846">
		<stop  offset="6.425827e-07" style="stop-color:#A770EF"/>
		<stop  offset="0.3932" style="stop-color:#CF8BF3"/>
		<stop  offset="1" style="stop-color:#FDB99B"/>
	</linearGradient>
	<path fill="url(#SVGID_17_)" d="M656.44,282.29c-0.66-6.72-0.23-12-0.7-18.78c0-0.54-0.15-1.19-0.66-1.38
		c-0.7-0.27-1.29,0.59-1.52,1.31c-1.98,6.34-0.92,13.24,2.87,18.7"/>
	<linearGradient id="SVGID_18_" gradientUnits="userSpaceOnUse" x1="656" y1="272.445" x2="670.7495" y2="272.445">
		<stop  offset="6.425827e-07" style="stop-color:#A770EF"/>
		<stop  offset="0.3932" style="stop-color:#CF8BF3"/>
		<stop  offset="1" style="stop-color:#FDB99B"/>
	</linearGradient>
	<path fill="url(#SVGID_18_)" d="M656,283c4.39-2.83,8.17-6.51,11.13-10.82c2.2-3,4-6.61,3.55-10.3c-3.12,0.09-6.05,1.56-8,4
		c-1.92,2.43-3.31,5.23-4.09,8.23c-0.89,3-1.52,6-2.56,8.9"/>
	<linearGradient id="SVGID_19_" gradientUnits="userSpaceOnUse" x1="666.7501" y1="271.5805" x2="694.29" y2="271.5805">
		<stop  offset="6.425827e-07" style="stop-color:#A770EF"/>
		<stop  offset="0.3932" style="stop-color:#CF8BF3"/>
		<stop  offset="1" style="stop-color:#FDB99B"/>
	</linearGradient>
	<path fill="url(#SVGID_19_)" d="M666.89,280c10.02-3.71,19.3-9.18,27.4-16.16c-3.27-1.32-7-0.53-10.29,0.79
		c-7.43,2.81-13.56,8.25-17.25,15.29"/>
	<linearGradient id="SVGID_20_" gradientUnits="userSpaceOnUse" x1="659" y1="283.0282" x2="689.4792" y2="283.0282">
		<stop  offset="6.425827e-07" style="stop-color:#A770EF"/>
		<stop  offset="0.3932" style="stop-color:#CF8BF3"/>
		<stop  offset="1" style="stop-color:#FDB99B"/>
	</linearGradient>
	<path fill="url(#SVGID_20_)" d="M659,286.71c5.04,0.72,10.16,0.74,15.21,0.08c4.94-0.83,9.6-2.78,14.21-4.72
		c0.42-0.11,0.78-0.37,1-0.74c0.15-0.43,0.01-0.92-0.34-1.21c-0.36-0.28-0.77-0.47-1.21-0.57c-5-1.4-10.42-0.74-15.35,0.92
		C667.81,282.07,663.28,284.16,659,286.71"/>
	<linearGradient id="SVGID_21_" gradientUnits="userSpaceOnUse" x1="627.6138" y1="288.22" x2="632.0353" y2="288.22">
		<stop  offset="6.425827e-07" style="stop-color:#A770EF"/>
		<stop  offset="0.3932" style="stop-color:#CF8BF3"/>
		<stop  offset="1" style="stop-color:#FDB99B"/>
	</linearGradient>
	<path fill="url(#SVGID_21_)" d="M630.15,299.18c-3.45-7-3.23-15.09-0.25-22.27c2.1,3.19,2.36,7.27,2,11.07s-1.54,7.72-1.61,11.55"
		/>
	<linearGradient id="SVGID_22_" gradientUnits="userSpaceOnUse" x1="593.28" y1="297.221" x2="616.75" y2="297.221">
		<stop  offset="6.425827e-07" style="stop-color:#A770EF"/>
		<stop  offset="0.3932" style="stop-color:#CF8BF3"/>
		<stop  offset="1" style="stop-color:#FDB99B"/>
	</linearGradient>
	<path fill="url(#SVGID_22_)" d="M616.36,292.23c-8.73-0.12-17.12,3.45-23.08,9.83c4.35,0.53,8.76-0.29,12.64-2.34
		c3.85-2.04,7.48-4.47,10.83-7.25"/>
	<linearGradient id="SVGID_23_" gradientUnits="userSpaceOnUse" x1="585.3799" y1="293.1523" x2="607.1" y2="293.1523">
		<stop  offset="6.425827e-07" style="stop-color:#A770EF"/>
		<stop  offset="0.3932" style="stop-color:#CF8BF3"/>
		<stop  offset="1" style="stop-color:#FDB99B"/>
	</linearGradient>
	<path fill="url(#SVGID_23_)" d="M607.1,289.13c-4.22-0.34-8.27-0.87-12.33,0.38c-4.15,1.17-7.58,4.09-9.39,8
		c3.98,0.32,7.96-0.43,11.55-2.18c3.57-1.75,6.97-3.81,10.17-6.16"/>
	<linearGradient id="SVGID_24_" gradientUnits="userSpaceOnUse" x1="596.11" y1="286.4021" x2="621.2401" y2="286.4021">
		<stop  offset="6.425827e-07" style="stop-color:#A770EF"/>
		<stop  offset="0.3932" style="stop-color:#CF8BF3"/>
		<stop  offset="1" style="stop-color:#FDB99B"/>
	</linearGradient>
	<path fill="url(#SVGID_24_)" d="M620.82,289.27c-3.79-2.49-7.69-5-12.1-6s-9.53-0.27-12.61,3c3.57,2.1,7.91,2.35,12,2.35
		s9.23-0.05,13.13,1.33"/>
	<linearGradient id="SVGID_25_" gradientUnits="userSpaceOnUse" x1="613.4836" y1="276.22" x2="621.0826" y2="276.22">
		<stop  offset="6.425827e-07" style="stop-color:#A770EF"/>
		<stop  offset="0.3932" style="stop-color:#CF8BF3"/>
		<stop  offset="1" style="stop-color:#FDB99B"/>
	</linearGradient>
	<path fill="url(#SVGID_25_)" d="M620.84,289.47c-6.48-6.37-8.94-17.8-6.33-26.5C619.63,270.8,621.86,280.17,620.84,289.47"/>
	<linearGradient id="SVGID_26_" gradientUnits="userSpaceOnUse" x1="638.67" y1="261.06" x2="654.3799" y2="261.06">
		<stop  offset="6.425827e-07" style="stop-color:#A770EF"/>
		<stop  offset="0.3932" style="stop-color:#CF8BF3"/>
		<stop  offset="1" style="stop-color:#FDB99B"/>
	</linearGradient>
	<path fill="url(#SVGID_26_)" d="M638.67,271.43c1.22-2.84,2.08-5.82,3.17-8.71c1.01-2.92,2.55-5.64,4.54-8
		c2.02-2.38,4.89-3.88,8-4.16c-2.01,8.88-7.67,16.51-15.59,21"/>
	<linearGradient id="SVGID_27_" gradientUnits="userSpaceOnUse" x1="618.67" y1="269.4785" x2="635.4401" y2="269.4785">
		<stop  offset="6.425827e-07" style="stop-color:#A770EF"/>
		<stop  offset="0.3932" style="stop-color:#CF8BF3"/>
		<stop  offset="1" style="stop-color:#FDB99B"/>
	</linearGradient>
	<path fill="url(#SVGID_27_)" d="M635.44,275.19c-2-2.78-4.36-6.56-7.1-8.64s-6.32-3.34-9.67-2.54
		C622.18,270.17,628.4,274.32,635.44,275.19"/>
	<linearGradient id="SVGID_28_" gradientUnits="userSpaceOnUse" x1="632.6184" y1="261.28" x2="637.9466" y2="261.28">
		<stop  offset="6.425827e-07" style="stop-color:#A770EF"/>
		<stop  offset="0.3932" style="stop-color:#CF8BF3"/>
		<stop  offset="1" style="stop-color:#FDB99B"/>
	</linearGradient>
	<path fill="url(#SVGID_28_)" d="M636.09,271.67c-1.46-3.32-2.53-6.8-3.2-10.36c-0.67-3.59-0.1-7.3,1.62-10.53
		c3.56,6.73,4.7,14,1.76,21"/>
	<linearGradient id="SVGID_29_" gradientUnits="userSpaceOnUse" x1="638.7" y1="243.6598" x2="657.9284" y2="243.6598">
		<stop  offset="6.425827e-07" style="stop-color:#A770EF"/>
		<stop  offset="0.3932" style="stop-color:#CF8BF3"/>
		<stop  offset="1" style="stop-color:#FDB99B"/>
	</linearGradient>
	<path fill="url(#SVGID_29_)" d="M638.7,250.78c2-6.67,8.12-11.58,14.71-13.83c0.82-0.33,1.7-0.47,2.58-0.39
		c0.9,0.1,1.64,0.73,1.9,1.59c0.24,1.13-0.69,2.15-1.58,2.9C651.16,245.45,645.17,248.76,638.7,250.78"/>
	<linearGradient id="SVGID_30_" gradientUnits="userSpaceOnUse" x1="638.65" y1="234.83" x2="648.8252" y2="234.83">
		<stop  offset="6.425827e-07" style="stop-color:#A770EF"/>
		<stop  offset="0.3932" style="stop-color:#CF8BF3"/>
		<stop  offset="1" style="stop-color:#FDB99B"/>
	</linearGradient>
	<path fill="url(#SVGID_30_)" d="M638.77,245.33c0.26-4.3,0.53-8.66,1.92-12.74s4.1-7.89,8-9.67c0.67,4.34-1.25,8.66-3.56,12.39
		s-5.1,7.27-6.48,11.43"/>
	<linearGradient id="SVGID_31_" gradientUnits="userSpaceOnUse" x1="626.225" y1="236.6" x2="638.72" y2="236.6">
		<stop  offset="6.425827e-07" style="stop-color:#A770EF"/>
		<stop  offset="0.3932" style="stop-color:#CF8BF3"/>
		<stop  offset="1" style="stop-color:#FDB99B"/>
	</linearGradient>
	<path fill="url(#SVGID_31_)" d="M638.67,248.29c-1.67-4.86-1.84-11-4.75-15.27c-2-3-5.29-5-7-8.11c-1.05,3.01-0.91,6.31,0.41,9.21
		c1.33,2.87,3.15,5.47,5.39,7.7c2.15,2.3,4,4,6,6.47"/>
	<path fill="#263238" d="M638.7,391.39c-0.13,0-0.24-32.41-0.25-72.39s0.09-72.41,0.22-72.41s0.24,32.41,0.25,72.41
		S638.83,391.39,638.7,391.39z"/>
	<path fill="#263238" d="M667,294.29c-0.39,0.19-0.8,0.34-1.22,0.46l-3.36,1.13c-2.82,1-6.71,2.36-10.93,4.08s-8.11,3.25-10.35,5.19
		c-0.9,0.75-1.61,1.69-2.08,2.76c-0.32,0.76-0.38,1.22-0.42,1.21s0-0.11,0-0.34c0.05-0.32,0.13-0.63,0.24-0.94
		c0.41-1.13,1.1-2.13,2-2.93c1.35-1.15,2.86-2.09,4.49-2.8c1.8-0.83,3.79-1.71,5.91-2.58c4.23-1.73,8.14-3.08,11-4
		c1.43-0.44,2.6-0.77,3.41-1C666.12,294.41,666.56,294.33,667,294.29z"/>
	<path fill="#263238" d="M676.31,271.48c-0.09,0.14-0.21,0.26-0.34,0.36l-1,1l-3.88,3.53l-12.93,11.51c-5,4.49-9.4,8.78-12.42,12
		c-1.52,1.62-2.71,2.95-3.52,3.88l-0.94,1.08c-0.1,0.13-0.22,0.25-0.35,0.35c0,0,0.08-0.15,0.28-0.41s0.48-0.65,0.87-1.13
		c0.77-1,1.93-2.35,3.41-4c3.9-4.26,8.03-8.31,12.36-12.14c5.06-4.48,9.67-8.51,13-11.41l4-3.42c0.44-0.36,0.81-0.66,1.1-0.91
		C676.06,271.66,676.18,271.56,676.31,271.48z"/>
	<path fill="#263238" d="M652.68,292.42c-0.14-0.05,0.92-2.49,2-5.57s1.56-5.67,1.69-5.65c-0.11,1.99-0.54,3.94-1.25,5.8
		c-0.45,1.33-0.97,2.63-1.57,3.9C653.33,291.44,653.04,291.96,652.68,292.42z"/>
	<path fill="#263238" d="M638.73,312.05c-0.29-0.28-0.55-0.58-0.78-0.91l-2-2.55c-1.67-2.16-4-5.15-6.58-8.42s-5-6.19-6.7-8.31
		l-2-2.52c-0.26-0.31-0.5-0.65-0.7-1c0.31,0.25,0.59,0.53,0.84,0.84c0.52,0.56,1.25,1.39,2.15,2.42c1.79,2.07,4.22,5,6.82,8.24
		s4.87,6.3,6.47,8.51c0.81,1.11,1.45,2,1.88,2.65C638.36,311.33,638.56,311.68,638.73,312.05z"/>
	<path fill="#263238" d="M632.52,304.07c-1.26-1.38-2.15-3.06-2.61-4.87c-0.48-1.59-0.68-3.25-0.59-4.91h0.21
		c-0.09,0.37-0.16,0.57-0.2,0.56s0-0.21,0-0.6h0.2c0.11,1.62,0.39,3.22,0.83,4.78C630.95,300.76,631.67,302.45,632.52,304.07z"/>
	<path fill="#263238" d="M624.5,294c-0.56-0.42-1.17-0.77-1.82-1.05c-1.62-0.48-3.32-0.62-5-0.4c-1.71,0.13-3.41,0.41-5.08,0.82
		c-0.68,0.21-1.38,0.38-2.09,0.5c0.62-0.38,1.29-0.65,2-0.82c1.67-0.53,3.39-0.86,5.13-1c1.75-0.23,3.54-0.04,5.2,0.56
		C623.54,292.87,624.12,293.36,624.5,294z"/>
	<path fill="#263238" d="M622.6,291.54c0,0.07-1.06-0.42-2.79-1c-4.5-1.54-9.32-1.91-14-1.07c-1.8,0.32-2.88,0.65-2.91,0.58
		c0.23-0.14,0.48-0.25,0.74-0.32c0.69-0.24,1.39-0.44,2.1-0.59c4.74-1.03,9.68-0.66,14.21,1.08c0.69,0.26,1.35,0.56,2,0.91
		C622.19,291.23,622.4,291.37,622.6,291.54z"/>
	<path fill="#263238" d="M638.67,281.2c-0.82-2.3-1.49-4.66-2-7.05c-0.68-2.35-1.21-4.75-1.58-7.17c0.82,2.31,1.48,4.67,2,7.06
		C637.77,276.39,638.29,278.78,638.67,281.2z"/>
	<path fill="#263238" d="M638.8,281.2c-0.66-1.46-1.41-2.87-2.25-4.22c-0.96-1.28-2.07-2.42-3.32-3.42
		c0.47,0.12,0.91,0.34,1.28,0.66c0.94,0.69,1.76,1.53,2.42,2.49C637.93,278.02,638.58,279.57,638.8,281.2z"/>
	<path fill="#263238" d="M638.7,374.11c-0.05,0-0.15-0.78-0.51-2.15c-0.54-1.94-1.26-3.82-2.17-5.62
		c-3.12-5.87-6.98-11.31-11.49-16.19c-2.57-2.93-5.06-5.7-7.17-8.34c-1.9-2.33-3.61-4.81-5.13-7.4c-1.01-1.75-1.88-3.58-2.59-5.48
		c-0.23-0.68-0.41-1.21-0.5-1.57c-0.06-0.18-0.11-0.37-0.14-0.56c0,0,0.28,0.74,0.81,2.06c0.77,1.86,1.68,3.66,2.71,5.39
		c1.55,2.55,3.28,4.99,5.17,7.29c2.13,2.62,4.62,5.37,7.19,8.3c5.19,5.83,9.26,11.71,11.44,16.36c0.87,1.82,1.54,3.74,2,5.71
		c0.13,0.54,0.22,1.08,0.29,1.63C638.66,373.73,638.69,373.92,638.7,374.11z"/>
	<path fill="#263238" d="M664.3,345.2c-0.42,0.29-0.85,0.56-1.3,0.8c-1.21,0.68-2.38,1.45-3.48,2.3c-1.63,1.27-3.16,2.66-4.57,4.17
		c-1.61,1.7-3.26,3.66-4.95,5.77c-3.37,4.23-6.52,8-8.41,11c-1,1.49-1.66,2.74-2.11,3.61c-0.21,0.47-0.46,0.92-0.74,1.35
		c0,0,0-0.13,0.12-0.38s0.24-0.6,0.45-1.05c0.59-1.27,1.26-2.51,2-3.7c2.56-3.85,5.34-7.55,8.33-11.08c1.69-2.11,3.36-4.09,5-5.78
		c1.45-1.51,3.01-2.89,4.69-4.13c1.13-0.83,2.33-1.57,3.59-2.2c0.45-0.22,0.81-0.36,1-0.46S664.29,345.18,664.3,345.2z"/>
	<path fill="#263238" d="M664.8,354.58c-0.92,0.21-1.86,0.35-2.8,0.42c-2.28,0.24-4.53,0.68-6.72,1.33c-2.17,0.7-4.2,1.77-6,3.16
		c-1.39,1.07-2.05,2-2.11,1.9c0.1-0.24,0.24-0.46,0.42-0.65c0.44-0.55,0.94-1.06,1.48-1.51c1.79-1.5,3.86-2.63,6.08-3.35
		c2.23-0.67,4.52-1.07,6.84-1.21C662.92,354.55,663.86,354.52,664.8,354.58z"/>
	<path fill="#263238" d="M647.94,360.35c-0.15-0.08,1.13-2,2.12-4.66s1.15-5,1.31-4.94c0.09,0.5,0.09,1.02,0,1.52
		c-0.15,1.22-0.42,2.42-0.83,3.58c-0.43,1.15-0.99,2.25-1.65,3.29C648.35,359.93,648,360.39,647.94,360.35z"/>
	<path fill="#263238" d="M672.59,320c-0.15,0.09-0.3,0.17-0.46,0.24l-1.33,0.6c-0.58,0.25-1.29,0.57-2.09,1s-1.73,0.84-2.71,1.43
		l-1.55,0.88c-0.53,0.3-1.06,0.67-1.63,1c-1.14,0.7-2.28,1.55-3.5,2.42c-2.6,1.96-5.04,4.11-7.32,6.43
		c-2.24,2.35-4.31,4.87-6.18,7.52c-0.83,1.25-1.64,2.42-2.29,3.59c-0.33,0.57-0.68,1.12-1,1.66s-0.56,1.08-0.83,1.58
		c-0.55,1-0.94,1.94-1.33,2.76s-0.69,1.53-0.92,2.12s-0.41,1-0.56,1.35c-0.06,0.16-0.13,0.32-0.22,0.46
		c0.02-0.17,0.07-0.33,0.14-0.49c0.12-0.37,0.28-0.82,0.47-1.39s0.48-1.33,0.85-2.16s0.74-1.79,1.27-2.8l0.81-1.6
		c0.28-0.55,0.63-1.1,1-1.69c0.65-1.18,1.45-2.37,2.28-3.63c1.86-2.69,3.93-5.24,6.19-7.61c2.3-2.33,4.77-4.49,7.39-6.45
		c1.24-0.87,2.4-1.71,3.55-2.39c0.58-0.35,1.12-0.71,1.66-1s1.07-0.58,1.57-0.86c1-0.56,1.94-1,2.76-1.36
		c0.69-0.34,1.4-0.65,2.13-0.92l1.37-0.53C672.26,320.08,672.42,320.03,672.59,320z"/>
	<path fill="#263238" d="M652.33,333.59c0.19-0.66,0.57-1.24,1.11-1.66c1.25-1.08,2.84-1.69,4.49-1.72
		c1.62-0.01,3.22,0.31,4.72,0.92c0.64,0.2,1.24,0.49,1.79,0.87c-0.65-0.12-1.28-0.31-1.89-0.55c-1.48-0.51-3.03-0.77-4.6-0.77
		c-1.55,0.03-3.06,0.55-4.29,1.5C653.18,332.62,652.74,333.09,652.33,333.59z"/>
	<path fill="#263238" d="M649.3,336.71c1.36-2.61,1.72-5.62,1-8.47c0.27,0.35,0.45,0.77,0.53,1.21c0.27,1.03,0.34,2.11,0.22,3.17
		c-0.13,1.05-0.45,2.07-0.95,3C649.69,336.38,649.35,336.75,649.3,336.71z"/>
	<path fill="#455A64" d="M616.31,378.76c0.7,12.39,4.43,25,10.17,37.72h25c5.48-12.61,8.95-25.19,9.57-37.72H616.31z"/>
	<path fill="#FAFAFA" d="M657,398.8c0,0.13-8.23,0.24-18.37,0.24s-18.36-0.11-18.36-0.24s8.22-0.23,18.36-0.23S657,398.68,657,398.8
		z"/>
	<path fill="#FAFAFA" d="M656.42,403.29c0,0.13-7.71,0.24-17.22,0.24s-17.21-0.11-17.21-0.24s7.71-0.23,17.21-0.23
		S656.42,403.16,656.42,403.29z"/>
</g>
<g id="freepik--Device--inject-51">
	<path fill="#455A64" d="M190.46,156.3h355.38c8.05,0,14.57,6.52,14.57,14.57v225.14c0,8.05-6.52,14.57-14.57,14.57H190.46
		c-8.05,0-14.57-6.52-14.57-14.57V170.87C175.89,162.82,182.41,156.3,190.46,156.3z"/>
	<path fill="#455A64" d="M160.86,394.16h416.6l0,0v4.45c0,9.83-7.97,17.8-17.8,17.8h-381c-9.83,0-17.8-7.97-17.8-17.8L160.86,394.16
		L160.86,394.16L160.86,394.16z"/>
	<rect x="186.21" y="166.4" fill="#263238" width="362.8" height="214.73"/>
	<polygon fill="#263238" points="330.25,391.77 335.41,400 408.16,400 412.96,391.77 	"/>
	<path fill="#EBEBEB" d="M196.96,173.67h342.06c1.81,0,3.27,1.46,3.27,3.27v200.24c0,1.81-1.46,3.27-3.27,3.27H196.96
		c-1.81,0-3.27-1.46-3.27-3.27V176.94C193.69,175.13,195.15,173.67,196.96,173.67z"/>
	<polygon fill="#FAFAFA" points="541.91,380.75 193.31,380.75 193.69,189.13 541.91,189.13 	"/>
	<path fill="#263238" d="M222.28,181.66c0.01,1.54-1.24,2.79-2.78,2.8s-2.79-1.24-2.8-2.78s1.24-2.79,2.78-2.8c0,0,0.01,0,0.01,0
		c1.54-0.01,2.78,1.23,2.79,2.77C222.28,181.65,222.28,181.66,222.28,181.66z"/>
	<path fill="#263238" d="M205.4,181.66c0.01,1.54-1.24,2.79-2.78,2.8c-1.54,0.01-2.79-1.24-2.8-2.78c-0.01-1.54,1.24-2.79,2.78-2.8
		c0.01,0,0.01,0,0.02,0c1.53-0.01,2.77,1.23,2.78,2.76C205.4,181.65,205.4,181.65,205.4,181.66z"/>
	<path fill="#263238" d="M213.5,181.66c0.01,1.54-1.24,2.79-2.78,2.8c-1.54,0.01-2.79-1.24-2.8-2.78c-0.01-1.54,1.24-2.79,2.78-2.8
		c0.01,0,0.01,0,0.02,0c1.53-0.01,2.77,1.23,2.78,2.76C213.5,181.65,213.5,181.65,213.5,181.66z"/>
	<path fill="#263238" d="M557.1,391.77c0,0.14-85.34,0.25-190.59,0.25s-190.62-0.11-190.62-0.25s85.33-0.25,190.62-0.25
		S557.1,391.64,557.1,391.77z"/>
	<g id="freepik--Window--inject-2">
		<polygon fill="#FAFAFA" points="193.95,188.74 193.95,381.13 406.19,381.13 541.91,381.13 541.91,188.74 		"/>
		<path fill="#EBEBEB" d="M352.59,209.53c0,0-11.31,142.74,188.84,138.61V209.53H352.59z"/>
		<rect x="193.95" y="189.28" fill="#F5F5F5" width="347.96" height="20.24"/>
		<path fill="#263238" d="M367.92,219.56c0,0.1-6.86,0.19-15.33,0.19s-15.34-0.09-15.34-0.19c0-0.1,6.86-0.19,15.34-0.19
			S367.92,219.45,367.92,219.56z"/>
		<path fill="#263238" d="M408.73,219.56c0,0.1-6.86,0.19-15.33,0.19c-8.47,0-15.34-0.09-15.34-0.19c0-0.1,6.86-0.19,15.34-0.19
			S408.73,219.45,408.73,219.56z"/>
		<path fill="#263238" d="M449.53,219.56c0,0.1-6.86,0.19-15.33,0.19s-15.34-0.09-15.34-0.19c0-0.1,6.86-0.19,15.34-0.19
			S449.53,219.45,449.53,219.56z"/>
		<path fill="#263238" d="M490.71,219.56c0,0.1-6.87,0.19-15.34,0.19s-15.34-0.09-15.34-0.19c0-0.1,6.86-0.19,15.34-0.19
			S490.71,219.45,490.71,219.56z"/>
		<path fill="#263238" d="M526.46,224.13c0,0,0.25,0,0.73-0.11c0.68-0.17,1.29-0.52,1.75-1.02c0.33-0.35,0.58-0.77,0.71-1.23
			c0.12-0.56,0.15-1.13,0.11-1.7c-0.08-1.2,0.3-2.77-0.86-3.9c-0.56-0.59-1.34-0.95-2.17-1.01c-0.89,0-1.85,0-2.82,0h-6.25h-14.31
			c-1.21,0-2.32,0.64-2.87,1.64c-0.26,0.49-0.38,1.03-0.35,1.57v1.78c-0.04,0.54-0.01,1.08,0.11,1.61c0.14,0.5,0.42,0.96,0.8,1.33
			c0.38,0.36,0.84,0.62,1.36,0.78c0.52,0.12,1.06,0.17,1.6,0.13h11.69h7.88h2.14h0.56c0.12,0,0.19,0,0.19,0h-0.19h-0.56h-2.14
			l-7.88,0.07H504c-0.57,0.04-1.15,0-1.71-0.13c-0.58-0.17-1.1-0.47-1.53-0.88c-0.43-0.41-0.75-0.92-0.91-1.47
			c-0.08-0.28-0.12-0.57-0.12-0.87v-2.31c-0.02-0.6,0.11-1.2,0.4-1.74c0.61-1.14,1.87-1.86,3.23-1.86h14.31h6.25
			c0.98,0,1.91,0,2.85,0c1.79,0.16,3.19,1.54,3.26,3.23c0,0.7,0,1.36,0,1.98c0.04,0.59-0.02,1.17-0.16,1.74
			c-0.14,0.48-0.41,0.92-0.77,1.28c-0.49,0.51-1.14,0.86-1.86,0.99C526.98,224.1,526.72,224.13,526.46,224.13z"/>
		<path fill="#455A64" d="M231.65,223.92c0.01,3.43-2.96,6.21-6.62,6.22c-3.66,0.01-6.64-2.77-6.64-6.2
			c-0.01-3.43,2.96-6.21,6.62-6.22c0,0,0.01,0,0.01,0C228.68,217.72,231.65,220.49,231.65,223.92z"/>
		<path fill="#FFFFFF" d="M489.22,204.26H239.82c-2.86-0.01-5.18-2.18-5.18-4.86l0,0c0-2.68,2.32-4.85,5.18-4.85h249.39
			c2.86,0,5.18,2.17,5.19,4.85l0,0C494.4,202.09,492.08,204.26,489.22,204.26z"/>
		<path fill="#263238" d="M486.65,198.77c-0.17-0.64-0.55-1.22-1.09-1.64c-0.6-0.39-1.38-0.48-2.07-0.24
			c-1.11,0.4-1.66,1.57-1.23,2.6c0.22,0.53,0.67,0.95,1.23,1.15c0.69,0.25,1.46,0.16,2.07-0.24
			C486.09,199.99,486.48,199.42,486.65,198.77c0,0,0.1,0.2,0,0.58c-0.09,0.55-0.4,1.04-0.86,1.38c-0.7,0.54-1.66,0.7-2.52,0.42
			c-1.41-0.45-2.16-1.88-1.68-3.2c0.27-0.74,0.89-1.32,1.68-1.57c0.86-0.29,1.82-0.13,2.52,0.42c0.47,0.34,0.77,0.84,0.86,1.38
			C486.74,198.58,486.68,198.77,486.65,198.77z"/>
		<path fill="#263238" d="M488.03,202.35c-0.13,0.11-0.7-0.22-1.29-0.76s-0.95-1.06-0.83-1.12s0.68,0.24,1.27,0.76
			C487.77,201.75,488.15,202.24,488.03,202.35z"/>
		<path fill="#263238" d="M316.93,256.03c0,0.16-21.16,0.29-47.25,0.29s-47.25-0.13-47.25-0.29c0-0.16,21.15-0.29,47.25-0.29
			S316.93,255.86,316.93,256.03z"/>
		<path fill="#FF725E" d="M316.93,272.08c0,0.16-21.16,0.29-47.25,0.29s-47.25-0.13-47.25-0.29c0-0.16,21.15-0.29,47.25-0.29
			S316.93,271.89,316.93,272.08z"/>
		<path fill="#263238" d="M278.35,288.14c0,0.16-12.5,0.29-27.94,0.29s-27.94-0.13-27.94-0.29c0-0.16,12.5-0.29,27.94-0.29
			S278.35,287.98,278.35,288.14z"/>
		<ellipse fill="#FAFAFA" cx="373.85" cy="359.58" rx="14.65" ry="13.72"/>
		<path fill="#263238" d="M388.5,359.63c-0.12-1.12-0.31-2.22-0.58-3.32c-1.97-7.22-9.82-11.58-17.54-9.73
			c-0.48,0.12-0.96,0.26-1.43,0.42c-1.29,0.44-2.51,1.06-3.6,1.83c-1.17,0.8-2.19,1.76-3.04,2.86c-3.72,4.72-3.72,11.16,0,15.88
			c0.84,1.1,1.87,2.06,3.04,2.86c1.09,0.78,2.31,1.4,3.6,1.83c2.41,0.83,5.02,1.04,7.54,0.61c2.21-0.37,4.29-1.23,6.08-2.5
			c2.62-1.84,4.5-4.45,5.35-7.41c0.27-1.11,0.46-2.24,0.58-3.37c0.03,0.29,0.03,0.59,0,0.88c0.01,0.38-0.02,0.75-0.08,1.12
			c-0.05,0.49-0.14,0.97-0.26,1.44c-1.37,5.26-5.89,9.3-11.57,10.34c-2.62,0.47-5.33,0.26-7.84-0.58c-1.35-0.45-2.62-1.09-3.76-1.9
			c-1.22-0.82-2.29-1.83-3.17-2.97c-3.89-4.92-3.89-11.64,0-16.56c1.76-2.22,4.18-3.91,6.95-4.86c2.51-0.84,5.22-1.04,7.84-0.57
			c2.27,0.41,4.41,1.32,6.25,2.64c2.66,1.92,4.54,4.63,5.31,7.69c0.13,0.47,0.21,0.95,0.26,1.44c0.06,0.35,0.09,0.7,0.08,1.06
			C388.54,359.05,388.53,359.34,388.5,359.63z"/>
		<polygon fill="#263238" points="370.82,358.23 376.88,358.23 373.85,362.55 		"/>
		<path fill="#EBEBEB" d="M270.59,343.37h-42.54c-4.29-0.01-7.76-3.26-7.76-7.28l0,0c0-4.01,3.47-7.27,7.76-7.27h0h42.58
			c4.29,0,7.76,3.25,7.76,7.27l0,0l0,0c0,4.02-3.48,7.28-7.77,7.28C270.61,343.37,270.6,343.37,270.59,343.37z"/>
		<linearGradient id="SVGID_32_" gradientUnits="userSpaceOnUse" x1="290.0173" y1="336.095" x2="343.6245" y2="336.095">
			<stop  offset="6.425827e-07" style="stop-color:#A770EF"/>
			<stop  offset="0.3932" style="stop-color:#CF8BF3"/>
			<stop  offset="1" style="stop-color:#FDB99B"/>
		</linearGradient>
		<path fill="url(#SVGID_32_)" d="M335.87,343.37h-38.08c-4.29,0-7.77-3.26-7.77-7.28l0,0l0,0c0-4.01,3.47-7.27,7.76-7.27
			c0,0,0.01,0,0.01,0h38.08c4.29,0,7.76,3.25,7.76,7.27l0,0C343.62,340.1,340.15,343.36,335.87,343.37z"/>
		<path fill="#587CF8" d="M446.21,357.18c-14.12,0.01-25.56,10.73-25.56,23.95h51.13C471.79,367.9,460.34,357.18,446.21,357.18
			C446.21,357.18,446.21,357.18,446.21,357.18z"/>
		<ellipse fill="#455A64" cx="415.91" cy="343.36" rx="5.2" ry="4.87"/>
	</g>
</g>
<g id="freepik--Floor--inject-51">
	<path fill="#263238" d="M709,415.55c0,0.15-149.54,0.26-334,0.26s-334-0.11-334-0.26s149.51-0.26,334-0.26S709,415.41,709,415.55z"
		/>
</g>
<g id="freepik--envelope-3--inject-51">
	<path fill="#263238" d="M401.76,222.83c0.14,0,0.2,0.58,0.13,1.27s-0.24,1.23-0.38,1.22s-0.2-0.59-0.13-1.28
		S401.61,222.81,401.76,222.83z"/>
	<path fill="#263238" d="M403.09,213.09c0.13,0.82,0.09,1.66-0.11,2.46c-0.05,0.83-0.26,1.64-0.63,2.39
		C402.25,216.29,402.5,214.64,403.09,213.09z"/>
	<path fill="#263238" d="M405.05,203.45c0.08,0.83-0.01,1.67-0.27,2.46c-0.1,0.83-0.37,1.62-0.79,2.34
		c-0.08-0.83,0.02-1.66,0.28-2.45C404.36,204.97,404.63,204.17,405.05,203.45z"/>
	<path fill="#263238" d="M407.72,194c-0.13,1.65-0.62,3.26-1.43,4.71c-0.01-0.83,0.15-1.66,0.47-2.43
		C406.91,195.46,407.24,194.68,407.72,194z"/>
	<path fill="#263238" d="M411.15,184.78c-0.06,0.83-0.29,1.64-0.67,2.38c-0.23,0.8-0.62,1.55-1.15,2.19
		c0.06-0.82,0.29-1.62,0.67-2.35C410.22,186.19,410.61,185.43,411.15,184.78z"/>
	<path fill="#263238" d="M415.41,175.93c-0.43,1.6-1.2,3.09-2.24,4.37c0.13-0.82,0.44-1.6,0.89-2.3
		C414.68,176.79,415.28,175.86,415.41,175.93z"/>
	<path fill="#263238" d="M420.55,167.55c-0.23,0.8-0.62,1.55-1.15,2.19c-0.72,1.14-1.41,2-1.53,1.93c0.2-0.81,0.57-1.57,1.09-2.22
		C419.72,168.32,420.43,167.47,420.55,167.55z"/>
	<path fill="#263238" d="M426.61,159.81c-0.31,0.77-0.78,1.47-1.37,2.06c-0.87,1-1.66,1.81-1.78,1.72s0.5-1,1.38-2.05
		S426.5,159.72,426.61,159.81z"/>
	<path fill="#263238" d="M433.53,152.84c0.1,0.11-0.62,0.95-1.6,1.88s-1.86,1.6-2,1.5s0.61-0.94,1.6-1.88
		S433.44,152.73,433.53,152.84z"/>
	<path fill="#263238" d="M441.27,146.78c0.08,0.12-0.74,0.87-1.83,1.67c-0.62,0.55-1.34,0.98-2.13,1.24
		c-0.09-0.11,0.73-0.86,1.83-1.66C439.75,147.47,440.48,147.04,441.27,146.78z"/>
	<path fill="#263238" d="M449.75,141.81c-1.26,1.08-2.74,1.88-4.33,2.34c-0.07-0.13,0.84-0.75,2-1.4
		C448.12,142.27,448.91,141.95,449.75,141.81z"/>
	<path fill="#263238" d="M458.85,138.11c-0.66,0.5-1.42,0.87-2.22,1.08c-0.75,0.36-1.57,0.56-2.4,0.59
		c0.66-0.51,1.41-0.88,2.22-1.08C457.2,138.33,458.02,138.13,458.85,138.11z"/>
	<path fill="#263238" d="M468.41,135.88c-0.74,0.38-1.54,0.6-2.37,0.66c-0.79,0.25-1.62,0.34-2.45,0.25
		C465.09,136.08,466.75,135.77,468.41,135.88z"/>
	<path fill="#263238" d="M478.22,135.34c-0.79,0.26-1.62,0.35-2.45,0.28c-0.83,0.1-1.67,0.02-2.46-0.23
		c0.79-0.26,1.62-0.36,2.45-0.29C476.59,135,477.43,135.09,478.22,135.34z"/>
	<path fill="#263238" d="M488,136.49c-0.82,0.12-1.67,0.08-2.47-0.14c-0.83-0.05-1.65-0.27-2.39-0.65
		C484.8,135.62,486.45,135.89,488,136.49L488,136.49z"/>
	<path fill="#263238" d="M497.39,139.3c-1.65-0.2-3.23-0.75-4.65-1.62c0.83,0.03,1.65,0.22,2.41,0.56
		C495.96,138.43,496.73,138.79,497.39,139.3z"/>
	<path fill="#263238" d="M506.14,143.76c-0.81-0.18-1.58-0.52-2.26-1c-0.76-0.34-1.44-0.83-2-1.45c0.81,0.17,1.58,0.51,2.26,1
		C505.32,143,506.22,143.64,506.14,143.76z"/>
	<path fill="#263238" d="M513.84,149.84c-0.75-0.34-1.43-0.83-2-1.43c-1-0.88-1.76-1.7-1.67-1.81s1,0.52,2,1.42
		C513.17,148.92,513.94,149.74,513.84,149.84z"/>
	<path fill="#263238" d="M518.7,155.44c-0.12,0.08-0.55-0.29-1-0.83s-0.67-1.05-0.56-1.15s0.54,0.28,1,0.83
		S518.82,155.35,518.7,155.44z"/>
	<path fill="#263238" d="M564.94,215.69c-0.84-0.11-1.64-0.39-2.37-0.82c-1.26-0.58-2.23-1.16-2.16-1.29
		c0.84,0.12,1.65,0.39,2.38,0.82C563.59,214.68,564.32,215.12,564.94,215.69z"/>
	<path fill="#263238" d="M574.38,219c-1.68-0.15-3.3-0.65-4.78-1.46C571.28,217.69,572.91,218.18,574.38,219z"/>
	<path fill="#263238" d="M584.25,220.55c-0.83,0.17-1.69,0.17-2.52,0c-0.84-0.01-1.68-0.19-2.45-0.53c0.83-0.17,1.68-0.17,2.51,0
		C582.64,220.03,583.47,220.21,584.25,220.55z"/>
	<path fill="#263238" d="M594.23,220.24c-0.78,0.31-1.63,0.46-2.47,0.44c-0.84,0.16-1.69,0.13-2.52-0.07
		c0.79-0.31,1.63-0.46,2.48-0.45C592.55,220.01,593.41,220.04,594.23,220.24z"/>
	<path fill="#263238" d="M604.05,218.4c-0.73,0.43-1.53,0.72-2.37,0.84c-0.81,0.25-1.67,0.34-2.51,0.25
		c0.74-0.41,1.56-0.66,2.4-0.75C602.36,218.46,603.21,218.34,604.05,218.4z"/>
	<path fill="#263238" d="M613.33,214.71c0.07,0.13-0.9,0.7-2.16,1.29c-0.73,0.43-1.54,0.7-2.38,0.8
		C610.14,215.8,611.69,215.08,613.33,214.71z"/>
	<path fill="#263238" d="M621.62,209.14c0.09,0.11-0.69,0.93-1.8,1.77c-0.62,0.58-1.37,1-2.19,1.24c-0.08-0.12,0.78-0.83,1.88-1.65
		C620.13,209.92,620.84,209.46,621.62,209.14z"/>
	<path fill="#263238" d="M628.42,201.84c-0.27,0.81-0.73,1.54-1.33,2.15c-0.89,1.07-1.75,1.81-1.85,1.71s0.58-1,1.45-2
		S628.3,201.76,628.42,201.84z"/>
	<path fill="#263238" d="M633.1,193c-0.03,0.85-0.27,1.69-0.69,2.43c-0.28,0.81-0.74,1.54-1.34,2.14c0.15-0.83,0.44-1.63,0.86-2.36
		C632.2,194.41,632.59,193.67,633.1,193z"/>
	<path fill="#263238" d="M635,183.26c0.24,0.82,0.28,1.68,0.11,2.52c0,0.86-0.21,1.7-0.62,2.45c-0.1-0.83-0.07-1.68,0.1-2.5
		C634.59,184.89,634.73,184.05,635,183.26z"/>
	<path fill="#263238" d="M633.51,173.4c0.48,0.71,0.79,1.51,0.9,2.36c0.27,0.81,0.34,1.67,0.21,2.51c-0.37-0.75-0.62-1.56-0.72-2.39
		C633.63,175.08,633.5,174.24,633.51,173.4z"/>
	<path fill="#263238" d="M629.16,164.44c0.11-0.09,0.87,0.77,1.57,2c0.5,0.69,0.82,1.49,0.94,2.33c-0.13,0.07-0.71-0.89-1.39-2.07
		C629.79,166.01,629.41,165.25,629.16,164.44z"/>
	<path fill="#263238" d="M622.22,157.3c0.81,0.27,1.54,0.74,2.13,1.36c1.06,0.91,1.75,1.81,1.65,1.91s-1-0.63-2-1.52
		S622.14,157.42,622.22,157.3z"/>
	<path fill="#263238" d="M613.15,153.24c0.85-0.08,1.72,0.06,2.5,0.41c0.83,0.19,1.61,0.59,2.25,1.15
		c-0.83-0.09-1.65-0.31-2.41-0.66C614.67,153.96,613.88,153.66,613.15,153.24z"/>
	<path fill="#263238" d="M603.24,153.41c0.73-0.45,1.56-0.71,2.42-0.73c0.84-0.19,1.71-0.16,2.53,0.08c-1.64,0.37-3.32,0.59-5,0.65
		H603.24z"/>
	<path fill="#263238" d="M594.62,158.23c-0.11-0.09,0.58-1,1.71-1.87c0.63-0.58,1.42-0.98,2.26-1.15c0.07,0.14-0.87,0.75-2,1.57
		S594.73,158.33,594.62,158.23z"/>
	<path fill="#263238" d="M590.66,167.21c-0.19-0.84-0.14-1.72,0.15-2.53c0.12-0.86,0.48-1.66,1.05-2.31
		c-0.09,0.83-0.27,1.64-0.55,2.43C591.2,165.63,590.98,166.44,590.66,167.21z"/>
	<path fill="#263238" d="M592.61,176.9c-0.59-0.62-1.01-1.39-1.21-2.22c-0.37-0.78-0.51-1.64-0.42-2.5
		c0.41,0.73,0.72,1.51,0.91,2.33C592.24,175.27,592.49,176.07,592.61,176.9z"/>
	<path fill="#263238" d="M599.15,184.34c-0.82-0.25-1.56-0.72-2.15-1.34c-1.06-0.92-1.71-1.86-1.6-1.95s0.92,0.66,1.94,1.56
		S599.23,184.22,599.15,184.34z"/>
	<path fill="#263238" d="M608.23,188.41c-0.85,0.05-1.7-0.12-2.48-0.47c-0.84-0.19-1.61-0.58-2.25-1.15
		c0.83,0.09,1.65,0.31,2.41,0.66C606.73,187.64,607.52,187.96,608.23,188.41z"/>
	<path fill="#263238" d="M618.15,189.35c-1.65,0.42-3.38,0.39-5-0.11c0.82-0.17,1.67-0.21,2.5-0.12
		C616.49,189.05,617.34,189.13,618.15,189.35z"/>
	<path fill="#263238" d="M628,187.53c-1.47,0.84-3.14,1.27-4.84,1.24c0.74-0.4,1.54-0.67,2.37-0.79
		C626.32,187.69,627.16,187.54,628,187.53z"/>
	<path fill="#263238" d="M637,183.38c-0.59,0.6-1.31,1.08-2.09,1.4c-0.7,0.47-1.5,0.79-2.33,0.94
		C633.88,184.64,635.38,183.85,637,183.38L637,183.38z"/>
	<path fill="#263238" d="M645,177.42c0.1,0.11-0.69,0.91-1.76,1.79c-0.6,0.6-1.32,1.07-2.1,1.39c-0.09-0.12,0.71-0.92,1.77-1.79
		C643.51,178.22,644.22,177.74,645,177.42z"/>
	<path fill="#263238" d="M651.85,170.11c0.11,0.09-0.53,1-1.43,2.07s-1.72,1.83-1.82,1.73s0.53-1,1.42-2.07
		S651.73,170,651.85,170.11z"/>
	<path fill="#263238" d="M657.34,161.77c-0.19,0.82-0.55,1.6-1.06,2.28c-0.72,1.19-1.39,2.09-1.51,2c0.19-0.82,0.55-1.6,1.06-2.28
		C656.54,162.6,657.21,161.7,657.34,161.77z"/>
	<path fill="#263238" d="M661.4,152.63c-0.06,0.85-0.29,1.67-0.67,2.43c-0.22,0.82-0.63,1.58-1.18,2.22
		c0.09-0.84,0.32-1.65,0.69-2.41C660.47,154.05,660.87,153.29,661.4,152.63z"/>
	<path fill="#263238" d="M664.19,143c0.05,0.84-0.08,1.69-0.37,2.48c-0.13,0.84-0.43,1.64-0.88,2.36
		C663.01,146.16,663.44,144.51,664.19,143z"/>
	<path fill="#263238" d="M665.94,133.2c0.14,0.84,0.1,1.69-0.12,2.51c-0.05,0.84-0.26,1.67-0.63,2.43c-0.14-0.84-0.1-1.69,0.12-2.51
		C665.36,134.79,665.57,133.96,665.94,133.2z"/>
	<path fill="#263238" d="M666.86,123.24c0.23,1.67,0.11,3.38-0.37,5c-0.19-0.83-0.21-1.68-0.07-2.52
		C666.4,124.87,666.55,124.03,666.86,123.24z"/>
	<path fill="#263238" d="M667.18,113.25c0.25,0.81,0.32,1.66,0.21,2.5c0.07,0.85-0.03,1.7-0.31,2.5c-0.23-0.82-0.3-1.67-0.21-2.51
		C666.81,114.9,666.91,114.05,667.18,113.25z"/>
	<path fill="#263238" d="M667.11,103.25c0.27,0.8,0.37,1.65,0.3,2.5c0.1,0.84,0.02,1.69-0.23,2.5c-0.27-0.8-0.37-1.65-0.3-2.5
		C666.79,104.91,666.87,104.06,667.11,103.25z"/>
</g>
<g id="freepik--envelope-2--inject-51">
	<path fill="#263238" d="M378.47,206.35c0.14,0,0.35,0.51,0.47,1.19s0.09,1.25-0.05,1.28s-0.35-0.51-0.47-1.2
		S378.33,206.37,378.47,206.35z"/>
	<path fill="#263238" d="M376.87,196.59c0.38,0.75,0.6,1.56,0.65,2.4c0.22,0.81,0.26,1.65,0.14,2.48c-0.38-0.75-0.61-1.56-0.65-2.4
		C376.79,198.26,376.75,197.42,376.87,196.59z"/>
	<path fill="#263238" d="M375.44,186.81c0.37,0.75,0.57,1.57,0.6,2.41c0.2,0.81,0.23,1.66,0.09,2.48c-0.37-0.75-0.58-1.57-0.6-2.41
		C375.33,188.48,375.3,187.63,375.44,186.81z"/>
	<path fill="#263238" d="M374.32,177c0.34,0.77,0.51,1.59,0.52,2.43c0.18,0.82,0.18,1.66,0,2.48c-0.33-0.77-0.51-1.59-0.51-2.43
		C374.15,178.66,374.15,177.82,374.32,177z"/>
	<path fill="#263238" d="M373.63,167.12c0.44,1.61,0.53,3.29,0.28,4.94C373.47,170.45,373.38,168.77,373.63,167.12z"/>
	<path fill="#263238" d="M373.53,157.23c0.35,1.65,0.35,3.35,0,5c-0.26-0.8-0.34-1.64-0.25-2.47
		C373.18,158.91,373.27,158.05,373.53,157.23z"/>
	<path fill="#263238" d="M374.15,147.37c0.18,0.82,0.2,1.66,0.05,2.49c0.01,0.84-0.14,1.67-0.46,2.44
		c-0.19-0.81-0.22-1.66-0.06-2.48C373.67,148.98,373.83,148.15,374.15,147.37z"/>
	<path fill="#263238" d="M375.63,137.6c0.12,0.83,0.06,1.68-0.17,2.48c-0.06,0.84-0.3,1.65-0.69,2.39
		C374.72,140.8,375.01,139.15,375.63,137.6L375.63,137.6z"/>
	<path fill="#263238" d="M378.16,128.05c0.01,0.84-0.15,1.67-0.46,2.44c-0.16,0.82-0.48,1.6-0.95,2.3
		c-0.02-0.84,0.13-1.67,0.45-2.45C377.35,129.52,377.68,128.74,378.16,128.05z"/>
	<path fill="#263238" d="M381.85,118.88c-0.09,0.83-0.35,1.64-0.76,2.37c-0.26,0.8-0.68,1.53-1.23,2.16
		C380.2,121.78,380.89,120.23,381.85,118.88L381.85,118.88z"/>
	<path fill="#263238" d="M386.67,110.26c-0.19,0.81-0.55,1.58-1.05,2.25c-0.7,1.16-1.37,2-1.5,2c0.2-0.81,0.56-1.58,1.06-2.25
		C385.88,111.07,386.55,110.18,386.67,110.26z"/>
	<path fill="#263238" d="M392.6,102.35c0.11,0.1-0.49,1-1.34,2.09s-1.64,1.85-1.76,1.76c0.31-0.78,0.76-1.49,1.35-2.09
		C391.71,103.05,392.5,102.26,392.6,102.35z"/>
</g>
<g id="freepik--envelope-1--inject-51">
	<path fill="#263238" d="M349.35,217.29c0.14,0,0.21,0.58,0.16,1.27s-0.22,1.24-0.36,1.23s-0.22-0.58-0.16-1.27
		S349.21,217.28,349.35,217.29z"/>
	<path fill="#263238" d="M349.6,207.12c0.26,0.82,0.35,1.69,0.26,2.55c0.08,0.86-0.01,1.72-0.27,2.54
		c-0.25-0.82-0.34-1.69-0.25-2.54C349.26,208.81,349.35,207.94,349.6,207.12z"/>
	<path fill="#263238" d="M348.91,197c0.5,1.64,0.65,3.37,0.47,5.07c-0.34-0.79-0.5-1.65-0.49-2.51
		C348.73,198.71,348.74,197.84,348.91,197z"/>
	<path fill="#263238" d="M347.22,186.94c0.41,0.76,0.66,1.59,0.74,2.45c0.25,0.83,0.32,1.69,0.23,2.55
		c-0.4-0.76-0.66-1.59-0.74-2.45C347.2,188.67,347.12,187.8,347.22,186.94z"/>
	<path fill="#263238" d="M344.45,177.15c0.84,1.49,1.37,3.14,1.55,4.85c-0.49-0.71-0.83-1.51-1-2.35
		C344.65,178.86,344.46,178.01,344.45,177.15z"/>
	<path fill="#263238" d="M340.56,167.76c0.57,0.64,1.01,1.39,1.28,2.21c0.43,0.75,0.7,1.57,0.81,2.43c-0.57-0.65-1-1.4-1.28-2.21
		C340.94,169.44,340.66,168.62,340.56,167.76z"/>
	<path fill="#263238" d="M335.51,158.93c0.12-0.08,0.84,0.82,1.6,2c0.51,0.7,0.87,1.49,1.08,2.33c-0.13,0.07-0.81-0.85-1.53-2.06
		C336.13,160.53,335.74,159.76,335.51,158.93z"/>
	<path fill="#263238" d="M329.28,150.9c0.11-0.1,0.93,0.7,1.83,1.78c0.61,0.61,1.1,1.33,1.43,2.13c-0.12,0.08-0.93-0.72-1.83-1.79
		C330.1,152.42,329.61,151.69,329.28,150.9z"/>
	<path fill="#263238" d="M322,143.82c0.09-0.11,1,0.57,2.06,1.51s1.81,1.8,1.71,1.9c-0.78-0.36-1.48-0.88-2.06-1.51
		C322.65,144.78,321.88,143.93,322,143.82z"/>
	<path fill="#263238" d="M313.73,137.88c0.83,0.24,1.6,0.64,2.26,1.19c1.17,0.78,2.06,1.51,2,1.63c-0.82-0.25-1.59-0.66-2.26-1.2
		C314.54,138.73,313.65,138,313.73,137.88z"/>
	<path fill="#263238" d="M304.67,133.26c0.85,0.11,1.68,0.39,2.42,0.83c0.81,0.28,1.56,0.72,2.2,1.3c-0.85-0.11-1.68-0.39-2.42-0.83
		C306.06,134.28,305.31,133.83,304.67,133.26z"/>
	<path fill="#263238" d="M295,130.19c0.86-0.03,1.72,0.11,2.53,0.41c0.85,0.14,1.66,0.46,2.39,0.92c-0.86,0.03-1.72-0.11-2.53-0.41
		C296.54,130.96,295.73,130.65,295,130.19z"/>
	<path fill="#263238" d="M284.89,128.9c1.7-0.29,3.44-0.14,5.07,0.41C288.26,129.45,286.55,129.31,284.89,128.9z"/>
	<path fill="#263238" d="M274.75,129.6c1.63-0.54,3.35-0.75,5.06-0.6c-0.79,0.35-1.64,0.55-2.5,0.56
		C276.47,129.74,275.6,129.75,274.75,129.6z"/>
	<path fill="#263238" d="M264.93,132.22c0.71-0.49,1.51-0.83,2.35-1c0.79-0.34,1.64-0.52,2.5-0.52c-0.71,0.48-1.51,0.82-2.35,1
		C266.64,132.03,265.79,132.21,264.93,132.22z"/>
	<path fill="#263238" d="M255.77,136.63c-0.07-0.13,0.87-0.77,2.12-1.44c0.71-0.49,1.51-0.83,2.36-1c-1.32,1.1-2.84,1.93-4.48,2.43
		V136.63z"/>
	<path fill="#263238" d="M247.65,142.73c-0.1-0.1,0.7-0.92,1.78-1.83c0.61-0.61,1.33-1.1,2.13-1.43c0.08,0.12-0.72,0.94-1.79,1.83
		C249.17,141.92,248.45,142.4,247.65,142.73z"/>
	<path fill="#263238" d="M241,150.41c0.26-0.83,0.7-1.59,1.29-2.22c0.87-1.12,1.72-1.9,1.82-1.81s-0.55,1-1.41,2.13
		S241.12,150.49,241,150.41z"/>
	<path fill="#263238" d="M237.29,157c-0.13-0.06,0-0.61,0.31-1.24s0.65-1.08,0.78-1s0,0.62-0.31,1.24S237.42,157.07,237.29,157z"/>
	<path fill="#263238" d="M173.75,216c0-0.14,0.53-0.32,1.21-0.41s1.25,0,1.27,0.11s-0.51,0.33-1.21,0.41S173.76,216.17,173.75,216z"
		/>
	<path fill="#263238" d="M163.85,214.9c0.84-0.01,1.68,0.12,2.48,0.37c0.84,0.09,1.65,0.31,2.42,0.66c-1.7,0.16-3.4-0.19-4.9-1
		V214.9z"/>
	<path fill="#263238" d="M154.89,210.47c0.81,0.25,1.56,0.64,2.24,1.14c1.18,0.7,2.13,1.29,2.07,1.43c-0.84-0.15-1.64-0.49-2.33-1
		C155.67,211.34,154.81,210.59,154.89,210.47z"/>
	<path fill="#263238" d="M147.45,203.79c0.11-0.09,0.93,0.67,1.9,1.65s1.72,1.81,1.63,1.92s-1-0.56-2-1.55
		S147.34,203.89,147.45,203.79z"/>
	<path fill="#263238" d="M141.57,195.69c0.13-0.07,0.84,0.8,1.59,2c0.53,0.66,0.92,1.42,1.16,2.23c-0.12,0.09-0.83-0.79-1.59-1.95
		C142.19,197.3,141.79,196.52,141.57,195.69z"/>
	<path fill="#263238" d="M137.25,186.66c0.55,0.64,0.97,1.39,1.22,2.2c0.4,0.75,0.66,1.57,0.75,2.41c-0.56-0.64-0.97-1.39-1.23-2.2
		C137.59,188.32,137.33,187.5,137.25,186.66z"/>
	<path fill="#263238" d="M134.38,177.06c0.45,0.72,0.75,1.52,0.89,2.36c0.3,0.8,0.43,1.64,0.38,2.49c-0.46-0.72-0.76-1.52-0.89-2.36
		C134.46,178.75,134.34,177.91,134.38,177.06z"/>
	<path fill="#263238" d="M132.64,167.19c0.37,0.76,0.58,1.59,0.63,2.44c0.21,0.82,0.25,1.68,0.12,2.52
		c-0.38-0.76-0.59-1.59-0.63-2.44C132.54,168.89,132.5,168.03,132.64,167.19z"/>
	<path fill="#263238" d="M131.68,157.22c0.48,1.62,0.62,3.32,0.4,5c-0.32-0.78-0.48-1.62-0.46-2.47
		C131.46,158.91,131.48,158.05,131.68,157.22z"/>
	<path fill="#263238" d="M131.26,149.71c0.15,0,0.29,0.55,0.32,1.24s-0.06,1.25-0.2,1.26s-0.29-0.55-0.32-1.24
		S131.12,149.72,131.26,149.71z"/>
</g>
<g id="freepik--Character--inject-51">
	<path fill="#FFBE9D" d="M234.57,288.16c0.17-1.16-0.58-2.26-1.72-2.53l-2.23,0.15l-8-2.77c-1.28-0.34-2.58,0.42-2.92,1.7
		c-0.04,0.16-0.07,0.31-0.08,0.47c0,2.29-1,8.53-2.81,6.57l-0.14-0.13c-2.63-2.93-5.67-4.35-6.84-4.18
		c-0.73,0.14-1.2,0.85-1.06,1.57c0.06,0.31,0.23,0.59,0.48,0.79c0.14,0.14,0.3,0.25,0.48,0.33c0.08,0,0.18,0.1,0.26,0.14
		c1.11,0.8,2.13,1.72,3.05,2.73c0.83,0.88,1.51,1.89,2,3c0.53,1.24,0.95,2.32,1.28,3.25l0.12,7.33l-3.18,34.27
		c0,0-21.1-22.16-20.61-22.37l1.23,34.52l12.78,10.57c6.83,5.67,16.96,4.74,22.63-2.09c2.46-2.96,3.78-6.71,3.71-10.56l-0.73-44.31
		l0.52-5.81L234.57,288.16z"/>
	<path fill="#FFBE9D" d="M116.11,336.88L93,389.72l-18.24,38.12l-13.57,4.56c0,0-10.74,3.12-10.74,5.34s2.83,1.72,2.83,1.72
		c0.52,3.32,5.12,1.44,8.34,0c3.22-1.44,10.38-1.84,10.38-1.84c-1.33,0.91-1.67,2.72-0.77,4.04c0.16,0.23,0.35,0.44,0.57,0.62
		c1.14,0.8,3.12-0.17,4.46-1.6s4.8-2.09,8.65-3.47s4.48-6.54,4.48-6.54l46.21-77.87L116.11,336.88z"/>
	<path fill="#587CF8" d="M192.75,356.07l5.81,7.67l12.59-27.93c0,0-12.22-14.91-16.69-21.16s-7.75-7.28-7.75-7.28
		s-8.12-2.37-12.17-2.37l-20.06,1.2l-20.37,8.89c-5,2.18-9.27,5.77-12.27,10.33l-19.18,30.81l27.16,11.61l9.11,52.16
		c1.74,7.81,3.27,15.18,10.48,18.78l50.37-48.41l-5.9-9.3L192.75,356.07z"/>
	<path fill="#263238" d="M144.59,346.52c0.12,0.08-3,4.9-6.93,10.78s-7.25,10.56-7.36,10.48s3-4.9,6.93-10.78
		S144.47,346.44,144.59,346.52z"/>
	<path fill="#263238" d="M186.82,396c-0.42,0.3-0.87,0.57-1.34,0.8c-0.87,0.48-2.15,1.16-3.74,2c-3.19,1.65-7.61,3.86-12.56,6.19
		s-9.47,4.34-12.77,5.74c-1.65,0.7-3,1.26-3.92,1.63c-0.48,0.21-0.97,0.39-1.47,0.52c0.44-0.28,0.91-0.51,1.39-0.71l3.85-1.77
		c3.26-1.49,7.76-3.55,12.7-5.88s9.39-4.49,12.61-6l3.82-1.84C185.85,396.41,186.32,396.18,186.82,396z"/>
	<path fill="#263238" d="M143,335.24c-0.65-0.69-1.24-1.44-1.77-2.23c-1.32-1.84-2.82-3.55-4.47-5.1c-1.66-1.53-3.63-2.69-5.77-3.39
		c-1.65-0.52-2.75-0.5-2.75-0.6c0.25-0.07,0.51-0.09,0.77-0.06c0.7,0.03,1.4,0.13,2.08,0.3c2.24,0.63,4.29,1.78,6,3.36
		c1.68,1.58,3.16,3.35,4.42,5.28C142.09,333.56,142.59,334.38,143,335.24z"/>
	<path fill="#263238" d="M184.42,360.61c0.03,0.19,0.03,0.37,0,0.56c0,0.36,0,0.89,0,1.58c-0.12,1.94-0.39,3.87-0.81,5.77
		c-2.73,12.81-11.36,23.56-23.27,29c-1.77,0.81-3.59,1.47-5.46,2c-0.66,0.2-1.19,0.31-1.54,0.39c-0.18,0.06-0.36,0.09-0.54,0.1
		c0,0,0.72-0.25,2-0.68c1.83-0.61,3.62-1.34,5.36-2.18c11.69-5.56,20.19-16.16,23.08-28.77c0.45-1.88,0.79-3.79,1-5.71
		C184.33,361.37,184.38,360.61,184.42,360.61z"/>
	<g opacity="0.3">
		<path d="M133.34,388c-0.09-0.5,6.46-34.36,6.46-34.36l-9.88,14.83"/>
	</g>
	<path fill="#263238" d="M191.46,323.57c0.05,0.19,0.07,0.38,0.07,0.58c0,0.44,0.06,1,0.11,1.68c0.07,1.52,0.18,3.6,0.31,6.15
		c0.25,5.26,0.6,12.41,1,20.3s0.68,15.12,0.83,20.32c0.08,2.6,0.13,4.71,0.15,6.16v1.68c0.03,0.19,0.03,0.39,0,0.58
		c-0.05-0.19-0.07-0.38-0.07-0.58c0-0.44-0.06-1-0.11-1.67c-0.07-1.52-0.18-3.61-0.31-6.15c-0.25-5.26-0.6-12.41-1-20.31
		s-0.67-15.11-0.83-20.32c-0.08-2.6-0.13-4.7-0.15-6.16v-1.67C191.43,323.96,191.43,323.77,191.46,323.57z"/>
	<g opacity="0.2">
		<path d="M151.26,412.79c-1.62-1.34-1.25-4.08,0.18-5.62S155,405,157,404.32c9.57-3.1,19.19-7.48,25.5-15.32
			c0.81-1.12,1.76-2.13,2.83-3c1.11-0.88,2.62-1.09,3.93-0.54c1.93,1,2,3.8,1.19,5.83c-1.01,2.49-2.88,4.54-5.27,5.76"/>
	</g>
	<g opacity="0.2">
		<polygon points="191.67,329.58 197.26,362.02 192.9,356.27 		"/>
	</g>
	<path fill="#587CF8" d="M244.85,414.79l-9.45,32.42l40.27,12c0.91-3.92-17.63-17.83-17.63-17.83l6.96-20.56L244.85,414.79z"/>
	<g opacity="0.6">
		<path fill="#FFFFFF" d="M246.11,435.9c-0.87,0-1.61,0.66-1.7,1.53c-0.02,0.88,0.64,1.62,1.51,1.7c0.93-0.01,1.7-0.72,1.79-1.64
			c-0.06-0.92-0.85-1.62-1.77-1.59"/>
	</g>
	<g opacity="0.6">
		<path fill="#FFFFFF" d="M235.4,447.21l1.08-3.23l38.21,12.68c0,0,1.56,1.31,1,2.51L235.4,447.21z"/>
	</g>
	<path fill="#263238" d="M258.75,441.33c-0.06,0.19-1.07,0-2.23,0.34s-1.91,1-2.07,0.88s0.47-1.18,1.88-1.57
		S258.85,441.16,258.75,441.33z"/>
	<path fill="#263238" d="M262.46,444.33c0,0.21-1,0.29-1.88,0.92s-1.37,1.46-1.56,1.39s0-1.22,1.16-2S262.51,444.14,262.46,444.33z"
		/>
	<path fill="#263238" d="M263.36,450.1c-0.2,0-0.18-1.08,0.65-2s1.87-1.08,1.9-0.9s-0.7,0.6-1.37,1.37S263.56,450.14,263.36,450.1z"
		/>
	<path fill="#263238" d="M259.81,436.48c-0.14,0.15-1-0.39-2.09-0.64s-2.11-0.16-2.16-0.36s1-0.65,2.32-0.34
		S260,436.35,259.81,436.48z"/>
	<path fill="#263238" d="M260.27,431.42c-0.71-0.02-1.4-0.23-2-0.61c-0.69-0.34-1.34-0.77-1.92-1.28c-0.36-0.31-0.69-0.64-1-1
		c-0.19-0.19-0.34-0.41-0.46-0.65c-0.18-0.37-0.09-0.81,0.22-1.08c0.28-0.22,0.66-0.29,1-0.19c0.26,0.08,0.5,0.19,0.73,0.33
		c0.4,0.23,0.77,0.5,1.12,0.8c0.59,0.51,1.1,1.11,1.5,1.78c0.44,0.58,0.68,1.28,0.7,2c-0.11,0-0.38-0.72-1.12-1.71
		c-0.43-0.58-0.93-1.1-1.5-1.55c-0.33-0.26-0.68-0.5-1.05-0.7c-0.39-0.24-0.75-0.35-0.92-0.19s-0.07,0.08,0,0.23
		c0.09,0.18,0.2,0.34,0.34,0.48c0.28,0.33,0.58,0.64,0.89,0.93c0.53,0.49,1.11,0.94,1.72,1.33
		C259.56,431,260.31,431.31,260.27,431.42z"/>
	<path fill="#263238" d="M259.93,431.62c-0.21-0.69-0.19-1.42,0.05-2.1c0.18-0.76,0.5-1.48,0.93-2.13c0.25-0.39,0.55-0.75,0.88-1.07
		c0.38-0.48,0.98-0.72,1.59-0.64c0.36,0.12,0.62,0.43,0.67,0.81c0.04,0.27,0.04,0.53,0,0.8c-0.06,0.47-0.2,0.93-0.4,1.36
		c-0.34,0.72-0.85,1.35-1.48,1.83c-1.1,0.81-2,0.8-2,0.73s0.76-0.29,1.66-1.12c0.52-0.47,0.93-1.05,1.2-1.7
		c0.16-0.38,0.27-0.77,0.31-1.18c0.07-0.45,0-0.84-0.16-0.84s-0.64,0.16-0.91,0.45c-0.3,0.29-0.57,0.61-0.82,0.94
		c-0.42,0.58-0.76,1.22-1,1.9C260.06,430.82,260.05,431.62,259.93,431.62z"/>
	<path fill="#263238" d="M286.2,366.52c1,7.48-1.54,15.91-4.25,23L264.29,431l-19.55-3c0,0-4.07,4.54-9.28,6.28
		c-2.33,0.77-10,2.28-16.31-2.26l0,0c0,0-8.93,12.44-23,16.2s-35.32,5.84-45.62-10.6l49-47.24c1,0.24,42.23-27.56,64.5-33.89
		C264.07,356.49,284.32,352.77,286.2,366.52z"/>
	<path fill="#455A64" d="M243.29,427.84c0,0,0.08-0.06,0.26-0.16l0.8-0.42c0.71-0.38,1.75-0.91,3.07-1.64
		c1.61-0.87,3.17-1.83,4.68-2.88c1.99-1.37,3.78-3.02,5.29-4.91c1.81-2.31,2.99-5.04,3.43-7.94c0.5-3.33,0.36-6.72-0.42-10
		c-0.66-3.66-2.57-6.97-5.39-9.39c-3.21-2.35-7.03-3.71-11-3.92c-2.01-0.16-4.04-0.15-6.05,0.05c-1.96,0.21-3.9,0.54-5.81,1
		c-3.61,0.93-7.14,2.15-10.55,3.65c-6.53,2.86-12.2,5.94-17.18,8.07c-3.9,1.77-7.97,3.13-12.15,4.05c-0.74,0.17-1.41,0.28-2,0.36
		s-1.06,0.17-1.46,0.2l-0.9,0.09h-0.31l0.31-0.07l0.89-0.13c0.39-0.06,0.88-0.13,1.45-0.25s1.23-0.22,2-0.4c4.13-1,8.15-2.41,12-4.2
		c4.94-2.16,10.59-5.27,17.14-8.17c3.43-1.52,6.99-2.76,10.62-3.7c1.93-0.46,3.89-0.79,5.87-1c2.04-0.2,4.1-0.21,6.15-0.05
		c4.09,0.21,8.03,1.62,11.32,4.05c1.52,1.22,2.76,2.74,3.67,4.46c0.86,1.65,1.49,3.4,1.87,5.22c0.77,3.34,0.9,6.79,0.38,10.17
		c-0.48,2.96-1.71,5.74-3.57,8.09c-1.55,1.9-3.38,3.56-5.42,4.92c-1.53,1.03-3.11,1.97-4.74,2.82c-1.34,0.7-2.4,1.21-3.12,1.55
		l-0.83,0.38C243.49,427.79,243.39,427.82,243.29,427.84z"/>
	<path fill="#455A64" d="M255.55,373.35c-1.21,2.32-2.58,4.56-4.1,6.69c-1.37,2.23-2.88,4.37-4.53,6.4c1.22-2.32,2.59-4.55,4.1-6.69
		C252.39,377.52,253.9,375.38,255.55,373.35z"/>
	<path fill="#455A64" d="M241.45,424.54c-1.17,0.37-2.35,0.68-3.55,0.92c-2.19,0.54-5.2,1.37-8.46,2.51s-6.13,2.37-8.18,3.31
		s-3.31,1.57-3.35,1.5c0.25-0.22,0.53-0.4,0.82-0.55c0.55-0.33,1.36-0.77,2.37-1.28c5.3-2.67,10.92-4.63,16.72-5.85
		c1.11-0.23,2-0.39,2.65-0.47C240.79,424.56,241.12,424.53,241.45,424.54z"/>
	<path fill="#455A64" d="M263.94,428.28c-0.09,0-0.32-0.88-1.15-2.1c-2.18-3.31-6.35-4.67-10.06-3.27c-1.39,0.5-2.12,1.11-2.18,1
		s0.14-0.2,0.48-0.47c0.48-0.37,1-0.67,1.56-0.9c3.87-1.68,8.39-0.19,10.51,3.46c0.31,0.52,0.56,1.07,0.73,1.65
		C264,428,264,428.28,263.94,428.28z"/>
	<path fill="#455A64" d="M179.36,412.79c0.14,0.29,0.23,0.61,0.26,0.93c0.15,0.87,0.22,1.75,0.22,2.63c0,2.94-0.79,5.83-2.3,8.36
		c-1.54,2.53-3.9,4.46-6.7,5.44c-0.84,0.29-1.71,0.45-2.6,0.5c-0.33,0.06-0.67,0.06-1,0c1.17-0.16,2.33-0.42,3.45-0.8
		c2.66-1.04,4.9-2.93,6.38-5.37c1.45-2.45,2.27-5.23,2.38-8.08C179.57,414.15,179.27,412.8,179.36,412.79z"/>
	<path fill="#455A64" d="M157.31,435.22c-0.11,0.09-0.63-0.36-1.12-1s-0.75-1.33-0.62-1.4s0.57,0.43,1.05,1.09
		S157.42,435.13,157.31,435.22z"/>
	<path fill="#455A64" d="M161.42,439.57c-0.09,0.11-0.65-0.28-1.25-0.86s-1-1.13-0.9-1.22s0.67,0.28,1.26,0.85
		S161.52,439.46,161.42,439.57z"/>
	<path fill="#455A64" d="M166.28,443.08c-0.07,0.12-0.7-0.14-1.4-0.6s-1.2-0.92-1.12-1s0.72,0.16,1.4,0.6S166.35,443,166.28,443.08z
		"/>
	<path fill="#455A64" d="M171.78,445.44c0,0.14-0.71,0-1.5-0.26s-1.38-0.62-1.32-0.76s0.73,0,1.49,0.27S171.82,445.3,171.78,445.44z
		"/>
	<path fill="#455A64" d="M177.69,446.37c0,0.14-0.68,0.2-1.52,0.12s-1.49-0.25-1.47-0.39s0.71-0.2,1.52-0.12
		S177.69,446.23,177.69,446.37z"/>
	<path fill="#455A64" d="M183.67,446.05c0,0.14-0.65,0.3-1.48,0.36c-0.37,0.03-0.75,0.03-1.12,0l0,0c-0.25,0-0.4-0.06-0.41-0.13
		s0.13-0.14,0.37-0.21l0,0c0.36-0.09,0.73-0.14,1.1-0.16C183,445.83,183.65,445.9,183.67,446.05z"/>
	<path fill="#455A64" d="M189.56,445c0,0.14-0.59,0.39-1.41,0.57s-1.49,0.2-1.51,0.06s0.6-0.4,1.41-0.57S189.53,444.84,189.56,445z"
		/>
	<path fill="#455A64" d="M195.3,443.23c0,0.14-0.55,0.46-1.34,0.73s-1.47,0.36-1.51,0.23s0.56-0.46,1.34-0.73
		S195.25,443.1,195.3,443.23z"/>
	<path fill="#455A64" d="M200.81,440.89c0.07,0.13-0.5,0.52-1.25,0.86s-1.42,0.52-1.48,0.39s0.51-0.52,1.26-0.86
		S200.75,440.76,200.81,440.89z"/>
	<path fill="#455A64" d="M206.07,438c0.07,0.12-0.45,0.56-1.17,1s-1.36,0.65-1.42,0.53s0.45-0.57,1.16-1S206,437.89,206.07,438z"/>
	<path fill="#455A64" d="M211,434.63c0.09,0.12-0.39,0.6-1.07,1.09s-1.29,0.78-1.37,0.66s0.4-0.61,1.07-1.09
		S210.93,434.52,211,434.63z"/>
	<path fill="#455A64" d="M215.64,430.81c0.1,0.11-0.34,0.64-1,1.18s-1.22,0.9-1.31,0.79s0.34-0.64,1-1.18
		S215.54,430.71,215.64,430.81z"/>
	<path fill="#455A64" d="M220,426.69c0.1,0.11-0.31,0.66-0.91,1.22s-1.18,0.94-1.27,0.84s0.3-0.64,0.91-1.22
		S219.91,426.59,220,426.69z"/>
	<path fill="#455A64" d="M224.74,423c0.08,0.12-0.39,0.61-1.06,1.09s-1.28,0.78-1.37,0.67s0.39-0.6,1.06-1.09
		S224.66,422.89,224.74,423z"/>
	<path fill="#455A64" d="M230,420.11c0.06,0.13-0.5,0.53-1.23,0.9s-1.39,0.56-1.46,0.43s0.48-0.53,1.23-0.9S229.94,420,230,420.11z"
		/>
	<path fill="#455A64" d="M235.72,418.33c0,0.14-0.6,0.42-1.39,0.61s-1.48,0.25-1.52,0.12s0.58-0.42,1.39-0.62
		S235.7,418.19,235.72,418.33z"/>
	<path fill="#455A64" d="M241.7,418c0,0.15-0.69,0.2-1.51,0.18s-1.48-0.09-1.49-0.23s0.66-0.3,1.5-0.29S241.71,417.88,241.7,418z"/>
	<path fill="#455A64" d="M247.48,419.54c-0.07,0.13-0.71-0.06-1.47-0.33s-1.39-0.54-1.36-0.68s0.73-0.1,1.53,0.19
		S247.54,419.41,247.48,419.54z"/>
	<path fill="#455A64" d="M246.21,423.89c-0.09-0.12,0.36-0.61,0.89-1.21s1-1.1,1.09-1s-0.12,0.73-0.7,1.37S246.3,424,246.21,423.89z
		"/>
	<path fill="#455A64" d="M240.92,426.64c0-0.14,0.53-0.5,1.28-0.81s1.42-0.46,1.49-0.33s-0.51,0.49-1.29,0.81
		S241,426.78,240.92,426.64z"/>
	<path fill="#455A64" d="M235.2,428.48c0-0.14,0.55-0.46,1.34-0.73s1.46-0.37,1.51-0.23s-0.56,0.46-1.34,0.72
		S235.25,428.61,235.2,428.48z"/>
	<path fill="#455A64" d="M229.6,430.61c-0.06-0.13,0.52-0.48,1.3-0.79s1.44-0.44,1.49-0.31s-0.53,0.49-1.3,0.8
		S229.65,430.75,229.6,430.61z"/>
	<path fill="#455A64" d="M224.07,433c-0.06-0.13,0.51-0.51,1.27-0.83s1.43-0.49,1.48-0.36s-0.51,0.51-1.27,0.83
		S224.12,433.08,224.07,433z"/>
	<path fill="#455A64" d="M212.89,261.47c0,0,6.54-2,15.23-11.65s12.19-22,13.34-22s6-2.72,17,17.26s7.66,25.07,5.77,25.17
		s-15-2.52-23-1s-18,6.46-18,6.46L212.89,261.47z"/>
	<path fill="#263238" d="M199.6,273.8l2.59,4.15l1.16,1.85c1.59,2.55,4.9,3.41,7.53,1.95l13.88-6l-9.71-18.33L201.37,266
		C198.73,267.66,197.93,271.15,199.6,273.8C199.6,273.79,199.6,273.8,199.6,273.8z"/>
	<path fill="#263238" d="M208.33,280.1l5.21,8.56l2.22-0.8l15.73,11l3.51-8.46c0,0-9-3.13-10.9-6.13s0-3.85,0-3.85l-4.47-4.42
		L208.33,280.1z"/>
	<path fill="#263238" d="M257.75,245.52c5.89,10.83,8.74,20.66,6.36,22s-9.08-6.43-15-17.26s-8.74-20.66-6.36-22
		S251.85,234.68,257.75,245.52z"/>
	<polygon fill="#455A64" points="198.84,280.12 202.62,278.62 199.89,274.26 197.13,276.27 	"/>
	<polygon fill="#455A64" points="221.16,277.54 211.27,284.93 209.79,282.49 	"/>
	<polygon fill="#455A64" points="199.89,274.26 202.62,278.62 201.84,278.93 199.56,274.5 	"/>
	<path fill="#455A64" d="M202.63,275.11c1.46-0.51,2.86-1.18,4.18-2c1.4-0.67,2.72-1.48,3.94-2.43c-1.46,0.52-2.86,1.19-4.18,2
		C205.17,273.35,203.85,274.16,202.63,275.11z"/>
	<path fill="#455A64" d="M201.24,272.49c1.33-0.49,2.59-1.14,3.77-1.93c1.26-0.65,2.45-1.44,3.53-2.36
		C205.95,269.34,203.5,270.78,201.24,272.49L201.24,272.49z"/>
	<path fill="#455A64" d="M204.34,277.84c0.42-0.04,0.82-0.17,1.19-0.36l1.25-0.52c0.46-0.21,0.94-0.49,1.45-0.77
		c1.27-0.62,2.45-1.41,3.52-2.33c-1.32,0.5-2.58,1.13-3.76,1.89c-0.51,0.28-1,0.58-1.42,0.8s-0.85,0.43-1.19,0.61
		C204.72,277.52,204.31,277.77,204.34,277.84z"/>
	<path fill="#455A64" d="M247.24,243.79c0,0,5.52-4,9.26,3.56s-2.24,9.31-2.24,9.31C251.33,252.72,248.96,248.39,247.24,243.79z"/>
	<path fill="#263238" d="M240.41,234.94c0.06,0.5,0.17,1,0.33,1.48c0.26,0.94,0.62,2.3,1.12,4c0.3,0.82,0.64,1.71,1,2.67l0.56,1.49
		c0.1,0.25,0.19,0.51,0.29,0.78s0.24,0.51,0.36,0.77l1.56,3.27c0.13,0.29,0.27,0.57,0.41,0.86s0.31,0.56,0.47,0.84l1,1.71l1,1.71
		c0.17,0.27,0.32,0.56,0.5,0.82s0.37,0.53,0.54,0.79l2.08,3c0.17,0.23,0.32,0.47,0.49,0.69l0.54,0.65l1,1.22l1.83,2.2
		c1.21,1.26,2.21,2.24,2.9,2.93c0.34,0.37,0.72,0.7,1.12,1c-0.31-0.41-0.64-0.79-1-1.15l-2.78-3l-1.73-2.29l-1-1.23l-0.52-0.65
		c-0.17-0.22-0.32-0.46-0.48-0.69l-2-3l-0.53-0.78c-0.19-0.26-0.33-0.55-0.5-0.82l-1-1.7c-0.33-0.57-0.66-1.14-1-1.69
		c-0.15-0.28-0.33-0.55-0.47-0.84s-0.27-0.57-0.41-0.85l-1.57-3.23c-0.12-0.26-0.26-0.51-0.36-0.77s-0.21-0.52-0.31-0.77
		c-0.2-0.51-0.39-1-0.58-1.47l-1.05-2.64c-0.53-1.63-0.95-3-1.26-3.91C240.81,235.86,240.63,235.39,240.41,234.94z"/>
	<path fill="#FFBE9D" d="M225.54,280.44c0.88,0.25,1.4,1.16,1.17,2.05c-0.43,1.7-1.13,4.37-1.69,6c-0.16,0.54-0.41,1.04-0.75,1.48
		c-0.44,0.64-1.31,0.8-1.95,0.36c-0.36-0.25-0.58-0.64-0.6-1.08c-0.07-0.58-0.01-1.18,0.15-1.74c0.35-1.59,1-4,1.56-5.91
		c0.25-0.9,1.19-1.42,2.09-1.17C225.52,280.44,225.53,280.44,225.54,280.44L225.54,280.44z"/>
	<path fill="#FFBE9D" d="M228.25,283.2c0.88,0.25,1.4,1.16,1.17,2.05c-0.43,1.7-1.13,4.37-1.7,6c-0.15,0.54-0.41,1.04-0.75,1.48
		c-0.35,0.45-0.92,0.66-1.48,0.56c-0.57-0.19-0.98-0.69-1.06-1.29c-0.06-0.58-0.02-1.17,0.14-1.74c0.36-1.58,1-4,1.56-5.91
		c0.27-0.91,1.21-1.42,2.12-1.16V283.2z"/>
	<path fill="#FFBE9D" d="M230.86,284.86c0.75,0.23,1.19,1.01,1,1.78c-0.37,1.47-1,3.78-1.47,5.19c-0.13,0.47-0.35,0.91-0.65,1.29
		c-0.38,0.55-1.14,0.68-1.68,0.3c-0.31-0.21-0.5-0.56-0.51-0.93c-0.06-0.51-0.02-1.02,0.12-1.51c0.31-1.37,0.87-3.43,1.35-5.12
		c0.23-0.78,1.05-1.23,1.83-1H230.86z"/>
	<path fill="#FFBE9D" d="M233.83,285.19c0.76,0.23,1.2,1.02,1,1.79c-0.37,1.48-1,3.8-1.48,5.22c-0.13,0.47-0.35,0.91-0.65,1.29
		c-0.38,0.55-1.13,0.7-1.68,0.32c-0.32-0.22-0.51-0.57-0.53-0.95c-0.06-0.51-0.02-1.03,0.12-1.52c0.31-1.37,0.87-3.45,1.36-5.14
		c0.23-0.78,1.05-1.23,1.84-1c0,0,0,0,0,0L233.83,285.19z"/>
	<path fill="#EB996E" d="M224.6,290c0.07-1.1,0.32-2.18,0.73-3.2c0.25-1.08,0.67-2.1,1.24-3.05c-0.07,1.1-0.32,2.18-0.74,3.2
		C225.58,288.02,225.16,289.05,224.6,290z"/>
	<path fill="#EB996E" d="M230.23,292.27c0.46-2.14,1.08-4.23,1.87-6.27c-0.12,2.21-0.76,4.37-1.87,6.28L230.23,292.27z"/>
	<path fill="#EB996E" d="M227.44,291.91c0.46-2.14,1.08-4.25,1.87-6.29C229.2,287.84,228.56,289.99,227.44,291.91z"/>
	<path fill="#263238" d="M278.25,207.35c0.11,0.08-4,5.65-9.16,12.43s-9.46,12.21-9.57,12.12s4-5.65,9.15-12.43
		S278.13,207.26,278.25,207.35z"/>
	<path fill="#263238" d="M305.08,223.22c0.06,0.13-8.56,4.26-19.26,9.22s-19.41,8.88-19.47,8.75s8.56-4.26,19.25-9.22
		S305,223.09,305.08,223.22z"/>
	<path fill="#263238" d="M301.08,256.24c0,0.14-6.16-0.33-13.72-1.06s-13.69-1.44-13.68-1.58s6.16,0.33,13.73,1.06
		S301.1,256.1,301.08,256.24z"/>
	<path fill="#FFBE9D" d="M143.42,274.76l6.79,38.6c1.23,6.71,7.55,11.25,14.3,10.28l0,0c6.88-0.89,11.74-7.18,10.85-14.06
		c-0.02-0.13-0.03-0.25-0.05-0.38l-1.1-6.64c0,0,9.5-2.58,8.51-12.12c-0.48-4.6-2.24-14-3.94-22.46c-2-9.54-11.16-15.81-20.78-14.23
		l0,0c-9.68,1.57-16.26,10.69-14.7,20.37C143.34,274.33,143.38,274.55,143.42,274.76z"/>
	<path fill="#EB996E" d="M174.23,302.58c-4.45,0.58-8.97-0.15-13-2.11c0,0,3.77,6.53,13.31,4.53L174.23,302.58z"/>
	<path fill="#263238" d="M176.71,274.42c0.09,0.74-0.43,1.42-1.17,1.52c-0.71,0.14-1.41-0.32-1.55-1.03c0-0.01,0-0.02-0.01-0.03
		c-0.09-0.74,0.43-1.43,1.17-1.53c0.71-0.14,1.41,0.32,1.55,1.04C176.71,274.4,176.71,274.41,176.71,274.42z"/>
	<path fill="#263238" d="M177,272.11c-0.15,0.2-1.29-0.45-2.77-0.27s-2.49,1-2.67,0.86s0-0.41,0.48-0.8
		c0.6-0.51,1.33-0.83,2.11-0.92c0.78-0.09,1.56,0.07,2.24,0.45C176.91,271.72,177.11,272,177,272.11z"/>
	<path fill="#263238" d="M162.74,276.1c0.09,0.74-0.43,1.42-1.17,1.53c-0.72,0.14-1.42-0.32-1.56-1.04c0-0.01,0-0.02-0.01-0.03
		c-0.09-0.74,0.43-1.42,1.17-1.52c0.72-0.14,1.42,0.32,1.57,1.04C162.74,276.09,162.74,276.09,162.74,276.1z"/>
	<path fill="#263238" d="M162.67,274c-0.15,0.19-1.28-0.45-2.77-0.28s-2.49,1-2.67,0.87s0.05-0.41,0.49-0.81
		c0.59-0.51,1.33-0.83,2.11-0.91c0.77-0.09,1.55,0.07,2.23,0.44C162.56,273.64,162.75,274,162.67,274z"/>
	<path fill="#263238" d="M169.33,285.16c0.76-0.33,1.56-0.56,2.37-0.7c0.37-0.08,0.72-0.2,0.76-0.46c-0.02-0.39-0.15-0.77-0.39-1.08
		l-1.45-2.72c-2-3.87-3.55-7.08-3.39-7.16s1.94,3,4,6.88c0.49,0.95,1,1.86,1.4,2.74c0.29,0.42,0.43,0.93,0.37,1.44
		c-0.08,0.28-0.29,0.51-0.56,0.62c-0.2,0.08-0.41,0.13-0.63,0.16C171,285.08,170.17,285.17,169.33,285.16z"/>
	<path fill="#263238" d="M165.08,286.67c0.24,0,0.43,1.54,1.94,2.52s3.21,0.6,3.24,0.82s-0.34,0.35-1.07,0.45
		c-0.94,0.12-1.9-0.09-2.7-0.59c-0.76-0.49-1.31-1.25-1.52-2.13C164.83,287.08,165,286.67,165.08,286.67z"/>
	<path fill="#263238" d="M162.39,269.14c-0.1,0.41-1.61,0.39-3.33,0.79s-3.07,1-3.34,0.71c-0.13-0.16,0.07-0.57,0.6-1
		c1.44-1.12,3.3-1.54,5.08-1.14C162.07,268.66,162.43,268.94,162.39,269.14z"/>
	<path fill="#263238" d="M176.21,268.82c-0.22,0.36-1.29,0.13-2.52,0.25s-2.25,0.48-2.53,0.16c-0.12-0.15,0-0.51,0.42-0.87
		c0.57-0.46,1.27-0.74,2-0.78c0.73-0.07,1.45,0.08,2.09,0.44C176.12,268.32,176.3,268.64,176.21,268.82z"/>
	<path fill="#263238" d="M178.83,251.68c-1.33-1.01-3.2-0.89-4.39,0.27c0.81-1.35,0.44-3.1-0.85-4c-1.29-0.85-2.89-1.09-4.37-0.63
		c-1.46,0.45-2.84,1.13-4.09,2c0.11-0.61-0.15-1.22-0.67-1.56c-0.52-0.32-1.11-0.5-1.72-0.54c-2.51-0.16-5.01,0.4-7.21,1.62
		c-2.35,1.31-4.59,2.82-6.67,4.53l0,0c-2.33,1.88-4.38,4.07-6.1,6.52l-0.08,0.07c-1.41,1.26-2.6,5.06-2.39,6.92
		c0.79,6.87,3.07,10.84,4.35,17.34c0.04,0.44,0.21,0.86,0.49,1.21c0.79,0.82,2.21,0.12,3-0.74c1.7-2.21,2.6-4.94,2.54-7.73
		c0.09-2.76-0.31-5.51-0.24-8.27v-0.2c0.02-0.7,0.09-1.41,0.2-2.1c0.12-0.45,1.29-4.39,5.08-5c4-0.68,11.95,3.22,15.88,2.6
		s4.14-3.39,4.14-3.39l2.31,4.7c0.53-1.91,0.66-3.91,0.37-5.87c1-0.91,1.7-2.11,2-3.43C180.74,254.38,180.13,252.71,178.83,251.68z"
		/>
	<path fill="#FFBE9D" d="M147.19,278.86c-0.17-0.05-6.87-1.18-5.9,5.31s7.39,4.19,7.37,4S147.19,278.86,147.19,278.86z"/>
	<path fill="#EB996E" d="M146.28,286c0,0-0.1,0.1-0.28,0.21c-0.26,0.16-0.56,0.21-0.86,0.15c-0.94-0.41-1.59-1.3-1.69-2.32
		c-0.1-0.56-0.07-1.13,0.08-1.67c0.06-0.44,0.34-0.81,0.74-1c0.26-0.11,0.56-0.02,0.72,0.21c0.11,0.17,0.09,0.31,0.13,0.31
		s0.12-0.13,0-0.39c-0.07-0.15-0.18-0.28-0.32-0.37c-0.2-0.1-0.44-0.13-0.66-0.07c-0.51,0.2-0.88,0.64-1,1.18
		c-0.19,0.6-0.23,1.25-0.12,1.87c0.12,1.19,0.94,2.2,2.09,2.56c0.37,0.04,0.73-0.08,1-0.33C146.29,286.16,146.3,286,146.28,286z"/>
	<path fill="#FAFAFA" d="M132.4,325.85c0.18-0.08,0.38-0.11,0.57-0.09c0.57,0.05,1.1,0.31,1.48,0.74c0.62,0.66,0.93,1.56,0.86,2.46
		c-0.12,1.15-0.37,2.27-0.76,3.36c-0.49,1.25-0.41,2.66,0.23,3.85c0.71,1.24,2.16,2.19,2.75,3.92c0.59,1.81,0.02,3.79-1.45,5
		c-0.77,0.63-1.71,0.99-2.7,1.05c-0.98-0.01-1.96-0.17-2.89-0.47c-0.87-0.29-1.8-0.35-2.7-0.17c-0.83,0.3-1.53,0.87-2,1.62
		c-0.5,0.76-1.06,1.48-1.7,2.13c-0.68,0.65-1.59,0.98-2.53,0.93c-1.7-0.14-3.21-1.14-4-2.65c-0.62-1.27-0.97-2.66-1-4.08
		c-0.07-1.28,0-2.43,0-3.43c-0.01-0.85-0.08-1.71-0.22-2.55c-0.14-0.72-0.35-1.42-0.61-2.1c0.12,0.15,0.21,0.32,0.28,0.5
		c0.24,0.5,0.41,1.02,0.52,1.56c0.18,0.85,0.29,1.71,0.32,2.58c0,1,0,2.16,0.13,3.42c0.05,1.35,0.39,2.68,1,3.89
		c0.74,1.35,2.1,2.24,3.63,2.38c0.81,0.04,1.59-0.26,2.17-0.82c0.61-0.63,1.16-1.32,1.63-2.06c0.53-0.84,1.32-1.48,2.26-1.82
		c1-0.22,2.03-0.16,3,0.17c0.89,0.28,1.81,0.43,2.74,0.45c0.88-0.05,1.73-0.37,2.41-0.93c1.32-1.08,1.84-2.85,1.32-4.47
		c-0.49-1.53-1.9-2.5-2.68-3.85c-0.39-0.66-0.59-1.41-0.57-2.17c0.04-0.68,0.16-1.35,0.36-2c0.4-1.06,0.68-2.16,0.83-3.28
		c0.09-0.84-0.17-1.68-0.72-2.31c-0.34-0.4-0.82-0.67-1.34-0.76C132.6,325.82,132.4,325.88,132.4,325.85z"/>
	<path fill="#FAFAFA" d="M135.15,395.84c0,0,0.07,0.24,0.3,0.62c0.36,0.54,0.92,0.93,1.55,1.08c0.99,0.28,2.06,0.06,2.86-0.6
		c1.02-0.91,1.69-2.15,1.91-3.5c0.32-1.49,0.26-3.19,0.55-5c0.14-0.96,0.45-1.88,0.92-2.73c0.5-0.93,1.32-1.66,2.3-2.06
		c1.03-0.37,2.13-0.47,3.21-0.29c1.09,0.11,2.16,0.36,3.24,0.5c1.09,0.18,2.2,0.12,3.27-0.16c1.08-0.31,2.08-0.87,2.92-1.62
		c0.84-0.75,1.46-1.72,1.8-2.79c0.31-1.04,0.28-2.16-0.06-3.19c-0.59-2.02-2.28-3.52-4.35-3.87c-2-0.22-3.8,0.75-5.69,0.79
		c-0.92,0.03-1.83-0.18-2.64-0.6c-0.73-0.37-1.43-0.82-2.07-1.33c-1.04-0.9-2.22-1.62-3.5-2.14c-0.98-0.37-2.08-0.3-3,0.2
		c-0.58,0.3-1.03,0.79-1.28,1.39c-0.07,0.22-0.12,0.44-0.16,0.67c-0.03-0.23-0.01-0.47,0.06-0.7c0.22-0.66,0.67-1.21,1.28-1.54
		c0.43-0.25,0.91-0.41,1.4-0.48c0.59-0.06,1.18,0.01,1.74,0.19c1.32,0.5,2.55,1.21,3.64,2.12c1.24,1.1,2.82,1.73,4.47,1.79
		c0.92-0.08,1.84-0.25,2.73-0.51c0.97-0.29,1.99-0.39,3-0.32c2.26,0.36,4.12,1.98,4.77,4.18c0.39,1.13,0.41,2.35,0.07,3.5
		c-0.37,1.15-1.04,2.19-1.94,3c-0.9,0.81-1.97,1.41-3.13,1.74c-1.13,0.3-2.32,0.36-3.47,0.16c-1.12-0.15-2.19-0.39-3.23-0.51
		c-1.01-0.17-2.04-0.08-3,0.25c-0.89,0.35-1.63,1-2.08,1.84c-0.45,0.8-0.75,1.67-0.9,2.57c-0.29,1.77-0.26,3.49-0.61,5
		c-0.26,1.42-1,2.71-2.09,3.65c-0.87,0.69-2.03,0.9-3.09,0.56c-0.67-0.18-1.24-0.62-1.59-1.22
		C135.18,396.28,135.14,396.06,135.15,395.84z"/>
	<path fill="#FAFAFA" d="M169.12,335.25c0.18-0.34,0.41-0.66,0.69-0.93c0.81-0.81,1.86-1.34,3-1.5c1.82-0.27,3.64,0.46,4.78,1.9
		c0.71,0.88,1.14,1.96,1.21,3.09c0,1.2,0.25,2.39,0.76,3.48c0.35,0.52,0.86,0.91,1.46,1.09c0.65,0.19,1.32,0.29,2,0.31
		c0.7,0,1.42,0,2.17,0.1c0.79,0.04,1.55,0.31,2.19,0.78c0.33,0.27,0.59,0.61,0.76,1c0.17,0.39,0.23,0.82,0.2,1.25
		c-0.1,0.84-0.45,1.63-1,2.26c-0.55,0.65-1.23,1.19-2,1.57c-0.75,0.38-1.54,0.69-2.31,1.05c-0.77,0.32-1.49,0.77-2.13,1.31
		c-0.62,0.57-1.06,1.31-1.25,2.13c-0.41,1.68,0,3.5-0.12,5.4c-0.06,0.98-0.31,1.93-0.76,2.8c-0.47,0.94-1.35,1.6-2.38,1.79
		c-1.06,0.09-2.1-0.27-2.87-1c-0.77-0.66-1.41-1.45-1.91-2.33c-0.47-0.85-0.98-1.66-1.54-2.45c-0.52-0.76-1.27-1.34-2.13-1.66
		c-0.87-0.25-1.79-0.19-2.62,0.17c-0.85,0.36-1.67,0.79-2.44,1.3c-0.78,0.51-1.61,0.94-2.48,1.29c-0.88,0.32-1.81,0.48-2.75,0.46
		c-1.81-0.05-3.56-0.67-5-1.76c-1.4-1.03-2.37-2.53-2.74-4.23c-0.41-1.63,0.04-3.35,1.19-4.57c0.59-0.52,1.3-0.88,2.06-1.06
		c0.71-0.17,1.43-0.29,2.15-0.37c1.32-0.06,2.6-0.49,3.68-1.25c0.91-0.82,1.59-1.85,2-3c0.43-1.07,0.71-2.13,1.08-3.1
		c0.31-0.92,0.77-1.78,1.35-2.55c0.52-0.62,1.1-1.18,1.74-1.68c0.85-0.75,1.89-1.25,3-1.45c0.4-0.06,0.8,0.05,1.11,0.31
		c-0.34-0.18-0.72-0.25-1.1-0.2c-1.07,0.23-2.06,0.75-2.87,1.5c-0.62,0.5-1.18,1.06-1.68,1.68c-0.55,0.76-0.98,1.6-1.27,2.49
		c-0.35,1-0.62,2-1,3.12c-0.4,1.19-1.08,2.27-2,3.13c-1.13,0.82-2.48,1.29-3.87,1.36c-1.37,0.21-2.9,0.36-4,1.36
		c-1.02,1.12-1.4,2.69-1,4.16c0.36,1.58,1.27,2.98,2.58,3.94c1.37,1.02,3.02,1.6,4.73,1.64c0.87,0.02,1.74-0.13,2.56-0.43
		c0.84-0.34,1.64-0.76,2.4-1.26c0.71-0.49,1.47-0.92,2.25-1.29c0.95-0.42,2.01-0.48,3-0.18c0.96,0.35,1.79,0.99,2.38,1.83
		c0.58,0.8,1.11,1.64,1.58,2.51c0.47,0.82,1.08,1.56,1.79,2.19c0.66,0.62,1.56,0.92,2.46,0.83c0.87-0.15,1.62-0.72,2-1.52
		c0.41-0.8,0.65-1.68,0.7-2.58c0.1-1.79-0.3-3.66,0.15-5.49c0.22-0.91,0.7-1.74,1.4-2.37c0.67-0.58,1.44-1.05,2.26-1.39
		c0.79-0.36,1.57-0.66,2.3-1c0.71-0.35,1.34-0.85,1.85-1.45c0.53-0.55,0.88-1.25,1-2c0.02-0.34-0.03-0.68-0.16-1
		c-0.15-0.32-0.37-0.6-0.64-0.82c-0.58-0.42-1.28-0.66-2-0.69c-0.71-0.08-1.43-0.08-2.14-0.12c-0.71-0.03-1.41-0.14-2.09-0.35
		c-0.67-0.22-1.25-0.66-1.64-1.25c-0.53-1.14-0.8-2.38-0.78-3.64c-0.05-1.09-0.43-2.14-1.1-3c-1.07-1.38-2.78-2.11-4.52-1.91
		c-1.09,0.15-2.1,0.63-2.91,1.37C169.62,334.65,169.36,334.94,169.12,335.25z"/>
	<path fill="#FAFAFA" d="M152.29,318.37c-0.56,0.56-1.29,0.91-2.08,1c-0.84,0.17-1.7,0.17-2.54,0c-1.07-0.17-2.04-0.73-2.73-1.57
		c-0.6-0.89-0.95-1.93-1-3c-0.08-0.85-0.02-1.7,0.17-2.53c0.12-0.77,0.49-1.48,1.07-2c-0.32,0.67-0.56,1.39-0.7,2.12
		c-0.14,0.8-0.16,1.61-0.07,2.41c0.08,0.97,0.4,1.9,0.93,2.71c0.61,0.74,1.46,1.24,2.41,1.41c0.78,0.17,1.59,0.2,2.38,0.09
		C150.87,318.88,151.6,318.66,152.29,318.37z"/>
	<path fill="#FAFAFA" d="M195.34,315.82c0,0,0,0.1-0.07,0.27c-0.09,0.26-0.22,0.5-0.39,0.72c-0.62,0.82-1.49,1.41-2.49,1.66
		c-0.69,0.16-1.42,0.16-2.11,0c-0.78-0.22-1.51-0.61-2.13-1.14c-0.62-0.55-1.33-0.99-2.1-1.29c-0.82-0.22-1.69,0.12-2.13,0.84
		c-0.47,0.78-0.88,1.6-1.23,2.44c-0.4,0.81-1.01,1.51-1.77,2c-2.16,1.46-5.09,0.9-6.55-1.26c-0.04-0.06-0.08-0.12-0.12-0.18
		c-0.23-0.29-0.37-0.64-0.41-1c0,0,0.17,0.35,0.57,0.9c0.58,0.77,1.36,1.36,2.26,1.69c2.19,0.74,4.58-0.29,5.56-2.38
		c0.36-0.87,0.78-1.71,1.26-2.51c0.29-0.44,0.7-0.79,1.19-1c0.48-0.18,1.01-0.21,1.5-0.06c0.84,0.32,1.61,0.8,2.27,1.4
		c0.56,0.5,1.22,0.88,1.93,1.1c0.64,0.14,1.29,0.14,1.93,0c0.94-0.2,1.78-0.7,2.41-1.42C195.16,316.17,195.3,315.8,195.34,315.82z"
		/>
	<path fill="#FAFAFA" d="M202.47,355.08c-0.4-0.19-0.77-0.43-1.11-0.72c-0.97-0.72-1.88-1.52-2.73-2.38c-0.59-0.61-1.13-1.28-1.59-2
		c-0.53-0.83-0.88-1.78-1-2.76c-0.16-1.1,0.01-2.22,0.51-3.21c0.27-0.52,0.66-0.98,1.13-1.34c0.47-0.35,0.96-0.66,1.47-0.94
		c0.49-0.27,0.93-0.61,1.33-1c0.36-0.37,0.63-0.82,0.77-1.32c0.23-0.98,0.26-2,0.1-3c-0.16-0.95-0.23-1.92-0.21-2.88
		c0-0.89,0.33-1.74,0.93-2.39c0.93-0.83,2.12-1.31,3.37-1.35c0.46-0.06,0.93,0.11,1.24,0.46c-0.38-0.2-0.8-0.29-1.23-0.26
		c-1.17,0.11-2.26,0.61-3.12,1.41c-0.51,0.6-0.79,1.37-0.76,2.16c0,0.94,0.09,1.87,0.25,2.79c0.2,1.07,0.17,2.17-0.08,3.23
		c-0.16,0.58-0.47,1.11-0.89,1.54c-0.43,0.42-0.91,0.77-1.44,1.05c-1,0.45-1.84,1.19-2.41,2.13c-0.45,0.9-0.62,1.92-0.49,2.92
		c0.28,1.72,1.12,3.31,2.38,4.51C201,353.93,202.53,355,202.47,355.08z"/>
	<path fill="#FAFAFA" d="M181.56,374.92c0.15-0.03,0.31-0.03,0.46,0c0.45,0,0.9,0.03,1.34,0.08c1.65,0.15,3.26,0.62,4.74,1.38
		c2.25,1.14,3.89,3.22,4.48,5.67c0.35,1.47,0.12,3.02-0.62,4.33c-0.81,1.42-2.17,2.44-3.76,2.81c-0.81,0.14-1.64,0.1-2.43-0.13
		c-0.68-0.22-1.4-0.22-2.08,0c-0.64,0.27-1.2,0.7-1.62,1.25c-0.4,0.53-0.76,1.1-1.07,1.69c-0.55,1.24-1.46,2.29-2.61,3
		c-1.06,0.55-2.27,0.69-3.43,0.41c-0.95-0.23-1.79-0.78-2.39-1.56c-0.45-0.57-0.76-1.23-0.92-1.94c-0.1-0.44-0.12-0.9-0.07-1.35
		c0.01-0.16,0.04-0.31,0.1-0.46c-0.02,0.59,0.04,1.18,0.17,1.76c0.18,0.67,0.5,1.28,0.95,1.81c0.57,0.67,1.34,1.14,2.2,1.33
		c1.07,0.24,2.18,0.08,3.15-0.43c1.06-0.69,1.89-1.67,2.39-2.83c0.59-1.39,1.65-2.53,3-3.22c0.77-0.25,1.61-0.25,2.38,0
		c0.72,0.22,1.47,0.26,2.21,0.13c1.44-0.34,2.68-1.27,3.42-2.56c0.69-1.21,0.9-2.64,0.59-4c-0.55-2.33-2.07-4.32-4.19-5.45
		c-1.43-0.77-2.98-1.28-4.58-1.5C182.2,375,181.55,375,181.56,374.92z"/>
	<path fill="#FAFAFA" d="M162.83,408c-0.19-0.73-0.51-1.43-0.93-2.06c-0.49-0.65-1.13-1.16-1.87-1.51
		c-1.82-0.92-4.04-0.33-5.16,1.38c-0.46,0.65-0.76,1.4-0.87,2.19c-0.05,0.76,0.02,1.52,0.22,2.25c0,0-0.17-0.17-0.33-0.55
		c-0.21-0.55-0.3-1.15-0.26-1.74c0.06-0.88,0.35-1.74,0.83-2.48c1.2-1.98,3.75-2.66,5.77-1.54c0.81,0.39,1.5,0.99,2,1.73
		c0.33,0.49,0.55,1.05,0.64,1.63C162.89,407.72,162.86,408,162.83,408z"/>
	<path fill="#FAFAFA" d="M166,422.5c0,0-0.09-0.47-0.45-1.23c-0.5-1.07-1.35-1.93-2.4-2.46c-1.58-0.73-3.42-0.59-4.87,0.37
		c-0.81,0.62-1.49,1.39-2,2.28c-0.33,0.48-0.71,0.91-1.14,1.3c-0.49,0.41-1.11,0.64-1.75,0.65c-1.21-0.16-2.3-0.81-3-1.81
		c-0.59-0.84-1.3-1.59-2.12-2.21c-0.78-0.47-1.7-0.63-2.59-0.47c-0.79,0.13-1.54,0.44-2.19,0.91c-0.93,0.72-1.72,1.62-2.3,2.65
		c-0.2,0.39-0.43,0.77-0.69,1.13c0.11-0.43,0.28-0.84,0.51-1.22c0.54-1.1,1.31-2.08,2.26-2.85c0.69-0.52,1.49-0.86,2.34-1
		c1-0.2,2.04-0.03,2.92,0.48c0.87,0.64,1.63,1.41,2.25,2.29c0.61,0.88,1.56,1.46,2.62,1.62c1.07,0,1.85-0.87,2.46-1.73
		c0.56-0.93,1.3-1.74,2.17-2.38c2.37-1.6,5.59-0.98,7.19,1.39c0.22,0.32,0.4,0.66,0.54,1.02c0.12,0.32,0.21,0.66,0.25,1
		C166.06,422.38,166.06,422.5,166,422.5z"/>
	<path fill="#FAFAFA" d="M173.71,386.22c-0.9-0.55-1.87-0.98-2.88-1.27c-1.1-0.27-2.24-0.33-3.36-0.18
		c-1.37,0.16-2.68,0.67-3.8,1.48c-1.1,0.82-1.94,1.95-2.4,3.25c-0.38,1.06-0.5,2.2-0.36,3.32c0.19,1.03,0.55,2.03,1.06,2.94
		c0,0-0.25-0.2-0.56-0.67c-0.43-0.68-0.73-1.43-0.87-2.22c-0.43-2.68,0.65-5.37,2.82-7c1.18-0.85,2.56-1.38,4-1.53
		c1.18-0.14,2.38-0.04,3.52,0.3c0.77,0.21,1.49,0.55,2.14,1C173.52,386,173.73,386.2,173.71,386.22z"/>
</g>
<g>
	<path fill="#587CF8" d="M153.68,124.78l-5.57,2.06l-11.2-30.31c-2.64-7.15-10.58-10.8-17.73-8.16c-7.15,2.64-10.8,10.58-8.16,17.73
		l11.2,30.31l-5.57,2.06l-11.2-30.31c-3.94-10.17,1.11-21.6,11.28-25.54c10.17-3.94,21.6,1.11,25.54,11.28
		c0.07,0.19,0.14,0.38,0.21,0.57L153.68,124.78z"/>
	<g opacity="0.4">
		<path d="M153.68,124.78l-5.57,2.06l-11.2-30.31c-2.64-7.15-10.58-10.8-17.73-8.16c-7.15,2.64-10.8,10.58-8.16,17.73l11.2,30.31
			l-5.57,2.06l-11.2-30.31c-3.94-10.17,1.11-21.6,11.28-25.54c10.17-3.94,21.6,1.11,25.54,11.28c0.07,0.19,0.14,0.38,0.21,0.57
			L153.68,124.78z"/>
	</g>
	<path fill="#587CF8" d="M107.82,126.4l44.72-16.53c1.43-0.53,3.02,0.2,3.55,1.63l9.92,26.83c0.53,1.43-0.2,3.02-1.63,3.55
		l-44.72,16.53c-1.43,0.53-3.02-0.2-3.55-1.63l-9.92-26.83C105.66,128.51,106.39,126.93,107.82,126.4z"/>
	<g opacity="0.5">
		<path d="M138.73,128.43c-0.85-2.3-3.41-3.48-5.71-2.63c-2.3,0.85-3.48,3.41-2.63,5.71c0.69,1.87,2.54,3.05,4.52,2.9l2.31,6.24
			l2.28-0.84l-2.31-6.24C138.79,132.39,139.42,130.29,138.73,128.43z"/>
	</g>
	<path fill="#FAFAFA" d="M118.6,155.35c-0.12,0.04-2.18-5.27-4.61-11.85c-2.43-6.57-4.32-11.96-4.2-12s2.19,5.27,4.62,11.85
		C116.84,149.92,118.72,155.31,118.6,155.35z"/>
	<path fill="#FAFAFA" d="M133.27,136.52c0,0-0.22,0.01-0.59-0.1c-0.53-0.16-1.03-0.39-1.48-0.7c-2.9-1.85-3.75-5.7-1.9-8.6
		c0.21-0.33,0.46-0.65,0.73-0.94c0.37-0.41,0.81-0.76,1.29-1.04c0.16-0.12,0.35-0.2,0.55-0.24c0.03,0.08-0.73,0.45-1.58,1.48
		c-2.23,2.58-1.94,6.48,0.64,8.71c0.15,0.13,0.31,0.25,0.47,0.37C131.99,135.87,132.62,136.22,133.27,136.52z"/>
</g>
<ellipse transform="matrix(0.2297 -0.9733 0.9733 0.2297 430.9981 708.258)" fill="#587CF8" cx="662.94" cy="81.85" rx="33.58" ry="33.58"/>
<path fill="#FFFFFF" d="M647.32,85.82l0.13,0.13l13.42,14.11l16.87-9.69l0.16-0.09c4.53-2.6,6.1-8.38,3.5-12.92
	c-2.6-4.53-8.38-6.1-12.92-3.5l0,0l-4.14,2.38l-3.29-3.46c-3.6-3.79-9.59-3.95-13.39-0.35C643.88,76.04,643.72,82.03,647.32,85.82z"
	/>
<linearGradient id="SVGID_33_" gradientUnits="userSpaceOnUse" x1="364.6255" y1="108.5386" x2="420.6005" y2="76.2214">
	<stop  offset="6.425827e-07" style="stop-color:#A770EF"/>
	<stop  offset="0.3932" style="stop-color:#CF8BF3"/>
	<stop  offset="1" style="stop-color:#FDB99B"/>
</linearGradient>
<circle fill="url(#SVGID_33_)" cx="392.61" cy="92.38" r="32.31"/>
<path fill="#F5F5F5" d="M544.56,93.01c3.11-1,5.33-3.76,5.64-7.02c0.77-4.18-1.99-8.19-6.17-8.96c-4.18-0.77-8.19,1.99-8.96,6.17
	c-0.07,0.37-0.11,0.74-0.12,1.11c-0.41,3.27,1.19,6.48,4.06,8.11c-11.93,0.51-12.74,13.25-12.74,13.25l27.75,3.09
	C554.02,108.76,556.01,96.01,544.56,93.01z"/>
<path fill="#DDDDDD" d="M451.38,289.28l-11.58-11.77c-0.43-0.42-0.43-1.11-0.01-1.54c0,0,0.01-0.01,0.01-0.01l6.1-6
	c0.43-0.42,1.12-0.42,1.55,0l3.99,4.02c0.42,0.43,1.11,0.43,1.54,0.01c0,0,0.01-0.01,0.01-0.01l17.25-17.23
	c0.42-0.43,1.11-0.43,1.54-0.01c0,0,0.01,0.01,0.01,0.01l6.04,6.04c0.46,0.39,0.51,1.08,0.11,1.54c-0.04,0.04-0.07,0.08-0.11,0.11
	l-24.81,24.91c-0.42,0.44-1.12,0.46-1.57,0.04C451.44,289.34,451.41,289.31,451.38,289.28z"/>
<g>
	<path fill="#FFFFFF" d="M388.77,76.33c5.23-1.25,5.85-1.38,7.98-1.78c1.24-0.28,2.53-0.34,3.79-0.19c0.93,0.11,1.82,0.43,2.6,0.93
		c0.8,0.48,1.48,1.13,1.99,1.9c0.71,1.06,1.23,2.23,1.54,3.47c0.59,2.04,0.76,2.66,1.99,7.89c1.24,5.23,1.37,5.85,1.77,7.98
		c0.28,1.24,0.35,2.53,0.19,3.79c-0.1,0.93-0.42,1.82-0.93,2.6c-0.48,0.8-1.12,1.48-1.9,1.99c-1.06,0.71-2.24,1.22-3.48,1.54
		c-1.99,0.59-2.65,0.76-7.88,1.99c-5.23,1.24-5.85,1.38-7.98,1.78c-1.25,0.28-2.53,0.35-3.8,0.19c-0.93-0.11-1.82-0.43-2.6-0.93
		c-0.79-0.5-1.45-1.17-1.93-1.96c-0.71-1.06-1.24-2.23-1.55-3.47c-0.58-2.04-0.75-2.65-1.99-7.88c-1.25-5.23-1.38-5.85-1.78-7.98
		c-0.27-1.25-0.34-2.53-0.19-3.8c0.25-1.87,1.28-3.54,2.83-4.6c1.06-0.71,2.23-1.23,3.47-1.55c1.99-0.58,2.66-0.75,7.89-1.99
		 M387.97,72.73c-5.32,1.27-5.98,1.45-8.05,2.04c-1.62,0.4-3.15,1.08-4.54,1.99c-2.38,1.65-3.96,4.21-4.36,7.08
		c-0.21,1.66-0.14,3.35,0.22,4.99c0.41,2.1,0.54,2.78,1.81,8.1s1.45,5.98,1.99,8.04c0.4,1.62,1.07,3.15,1.99,4.54
		c0.81,1.22,1.88,2.25,3.14,3c1.21,0.76,2.57,1.25,3.99,1.43c1.66,0.21,3.35,0.14,4.99-0.22c2.1-0.4,2.78-0.54,8.1-1.81
		s5.98-1.45,8.04-1.99c1.61-0.41,3.15-1.08,4.54-1.99c1.19-0.8,2.19-1.85,2.93-3.08c0.76-1.21,1.25-2.57,1.44-3.99
		c0.21-1.66,0.13-3.35-0.23-4.99c-0.4-2.11-0.54-2.78-1.81-8.1c-1.27-5.32-1.45-5.98-1.99-8.05c-0.41-1.61-1.08-3.15-1.99-4.54
		c-0.8-1.19-1.85-2.18-3.08-2.92c-1.21-0.77-2.57-1.26-3.99-1.44c-1.66-0.21-3.35-0.14-4.99,0.22c-2.11,0.41-2.78,0.54-8.1,1.81"/>
	<path fill="#FFFFFF" d="M390.2,82.32c-5.55,1.32-8.98,6.9-7.66,12.45c1.32,5.55,6.9,8.98,12.45,7.66
		c5.55-1.32,8.98-6.89,7.66-12.44C401.32,84.43,395.75,81,390.2,82.32 M394.19,98.91c-3.61,0.85-7.22-1.38-8.08-4.99
		c-0.85-3.61,1.38-7.22,4.99-8.08c3.6-0.85,7.21,1.38,8.07,4.98c0.86,3.61-1.37,7.23-4.97,8.09
		C394.19,98.91,394.19,98.91,394.19,98.91"/>
	<path fill="#FFFFFF" d="M402.9,78.88c0.3,1.3-0.5,2.6-1.8,2.9c-1.3,0.3-2.6-0.5-2.9-1.8c-0.3-1.29,0.49-2.59,1.79-2.9
		c1.29-0.31,2.59,0.48,2.91,1.77C402.9,78.86,402.9,78.87,402.9,78.88"/>
</g>
<g>
	<g>
		<path fill="#F5F5F5" d="M276.46,75.5c-1.87-6.08-5.36-12.64-8.57-12.64c-0.18,0-0.36,0.03-0.54,0.07h-0.13
			c-0.31,0.1-0.59,0.26-0.83,0.48l-32.01,19.51c-1.9,0.73-1.79,4.21-0.9,7.18c0.42,1.42,1.08,2.76,1.97,3.96
			c0.52,0.86,1.42,1.42,2.42,1.52c0.14,0,0.28-0.02,0.42-0.05l2.91-0.32l0.29,2.69c0.12,1.02,0.98,1.79,2.01,1.79h0.21l11.23-1.17
			c1.11-0.12,1.91-1.12,1.79-2.23l-0.31-2.94l18.88-2.17c0.23,0,0.45-0.03,0.67-0.1c1.05-0.32,2.31-1.57,2.29-5.62
			C278.13,82.08,277.53,78.72,276.46,75.5z M238.35,93.41h-0.14c-0.38,0.06-1.69-1.28-2.54-3.97c-0.85-2.69-0.51-4.51-0.19-4.69h0.1
			l4.59-2.79c-0.03,3.88,1.15,7.67,3.38,10.85L238.35,93.41z M254.05,96.3L254.05,96.3c-0.03,0.05-0.08,0.07-0.13,0.08l-9.7,1.01
			c-0.11,0.01-0.2-0.07-0.22-0.18l-0.25-2.38l10.08-1.19l0.26,2.54C254.09,96.23,254.08,96.27,254.05,96.3z M246.79,91.59
			c-3.59-4.18-3.54-9.73-3.45-11.18l20.99-12.79c-0.1,0.67-0.15,1.35-0.14,2.03c0.11,3.06,0.66,6.09,1.62,9
			c1.22,3.91,3.16,8.02,5.23,10.08L246.79,91.59z M274.93,87.73h-0.21c-1.21-0.1-3.96-3.59-5.9-9.84c-0.87-2.64-1.36-5.4-1.45-8.18
			c0-1.97,0.36-2.88,0.68-3.22l0.27-0.16h0.06c1.18,0,3.99,3.51,5.96,9.85c0.87,2.64,1.36,5.4,1.45,8.18
			C275.81,86.72,275.28,87.56,274.93,87.73z"/>
	</g>
</g>
</svg>
