<?xml version="1.0" encoding="utf-8"?>
<!-- Generator: Adobe Illustrator 25.0.0, SVG Export Plug-In . SVG Version: 6.00 Build 0)  -->
<svg version="1.1" id="Capa_1" xmlns="http://www.w3.org/2000/svg" xmlns:xlink="http://www.w3.org/1999/xlink" x="0px" y="0px"
	 viewBox="0 0 535 512" enable-background="new 0 0 535 512" xml:space="preserve">
<g>
	<g>
		<path d="M337.12,321.02c-24.67-12.53-50.82-21.77-77.83-27.57c14.98-11.71,27.66-26.27,37.12-42.8
			c12.58-21.99,19.24-47.09,19.24-72.57v-54.53c0-50.33-30.25-93.72-73.52-112.96c-0.4-0.22-0.82-0.4-1.26-0.55
			C225.89,3.59,209.4,0,192.09,0c-24.16,0-47.57,6.98-67.69,20.18c-3.46,2.27-4.43,6.92-2.16,10.39c2.27,3.46,6.92,4.43,10.38,2.16
			C150.29,21.13,170.85,15,192.09,15c13.68,0,26.78,2.55,38.85,7.19l-0.25,16.19c0,0.04,0,0.07,0,0.11
			c-0.03,36.62-29.94,67.86-68.14,71.24H96.84c-4.58,0-8.91,1.1-12.74,3.04c2.1-20.93,10.26-41,23.53-57.41
			c2.6-3.22,2.1-7.94-1.12-10.55c-3.22-2.6-7.94-2.1-10.55,1.12C78.27,67.8,68.53,95.37,68.53,123.55v187.56
			c-7.28,3.04-14.48,6.35-21.48,9.9c-21.98,11.16-35.64,33.41-35.64,58.06V492.2c0,10.92,8.88,19.8,19.8,19.8h321.74
			c10.92,0,19.8-8.88,19.8-19.8v-44.7c0-4.14-3.36-7.5-7.5-7.5s-7.5,3.36-7.5,7.5v44.7c0,2.65-2.15,4.8-4.8,4.8h-33.84v-26.12
			c0-4.14-3.36-7.5-7.5-7.5s-7.5,3.36-7.5,7.5V497H80.06v-26.12c0-4.14-3.36-7.5-7.5-7.5c-4.14,0-7.5,3.36-7.5,7.5V497H31.22
			c-2.65,0-4.8-2.15-4.8-4.8V379.08c0-18.97,10.51-36.1,27.43-44.68c4.81-2.44,9.73-4.75,14.69-6.95v57.71c0,4.14,3.36,7.5,7.5,7.5
			c24.89,0,47.33-10.6,63.09-27.51c16.82,7.51,34.75,11.32,53.38,11.32c42.96,0,82.63-20.65,107.31-55.52
			c10.39,3.92,20.58,8.4,30.51,13.45c16.92,8.59,27.43,25.71,27.43,44.68v33.27c0,4.14,3.36,7.5,7.5,7.5s7.5-3.36,7.5-7.5v-33.27
			C372.76,354.43,359.1,332.18,337.12,321.02L337.12,321.02z M242,287.47c-3.19-3.01-5.15-7.26-5.15-11.91v-26.49
			c3.47-2.3,6.93-4.83,10.31-7.65c21.19-17.62,33.25-40.68,34.2-65.22h5.97c4.81,0,9.33-1.21,13.3-3.34v5.22
			C300.64,222.49,278.81,263.01,242,287.47L242,287.47z M287.34,124.73c7.33,0,13.3,5.97,13.3,13.32v9.85
			c0,7.34-5.97,13.32-13.3,13.32h-5.84l0.2-36.48L287.34,124.73L287.34,124.73z M300.11,112.78c-8.99-4.57-15.84-2.55-25.86-3.05
			c-19.95-0.02-36.19-16.2-36.36-36.14c5.08-10.93,7.78-22.82,7.79-35.03l0.14-9.3C275.59,46.29,296.57,77.01,300.11,112.78z
			 M163.5,124.7c23.81-2.01,46.8-13.28,62.86-32.84c6.58,16.94,21.87,29.56,40.35,32.31c-0.08,13.71-0.19,33.92-0.27,48.91
			c-0.04,47.96-51.22,76.78-74.06,77.39c-24.77-0.7-73.97-31.48-73.93-77.54c-0.03-16.23-0.05-32.31-0.08-48.22
			C166.05,124.73,163,124.74,163.5,124.7L163.5,124.7z M96.84,124.73h6.53l0.06,36.48h-6.59c-7.34,0-13.3-5.97-13.3-13.32v-9.85
			C83.53,130.7,89.5,124.73,96.84,124.73L96.84,124.73z M83.53,377.27c0-23.8,0-183.79,0-204.41c3.97,2.13,8.49,3.35,13.3,3.35h6.68
			c0.96,24.49,12.97,47.51,34.08,65.12c3.19,2.66,6.45,5.07,9.73,7.27v57.76C147.33,343.14,119.33,373.51,83.53,377.27z
			 M192.51,361.47c-15.25,0-29.97-2.88-43.87-8.56c8.65-13.44,13.69-29.41,13.69-46.55v-49.2c11.47,5.45,22.19,8.14,29.87,8.3
			c0.06,0,0.11,0,0.17,0c0.05,0,0.1,0,0.15,0c7.55-0.15,18.05-2.74,29.32-7.99v18.07c0,15.12,10.78,28.09,25.63,30.83
			c12.72,2.34,25.24,5.49,37.52,9.41C263,344.56,229.1,361.47,192.51,361.47L192.51,361.47z"/>
		<path d="M307.12,395.5l-17.25-1.44l-6.7-15.96c-3.32-7.9-14.52-7.9-17.84,0l-6.7,15.96l-17.25,1.44
			c-8.52,0.71-12,11.37-5.51,16.96l13.11,11.31L245,440.63c-1.96,8.33,7.11,14.92,14.43,10.48l14.81-8.97l14.81,8.98
			c7.32,4.43,16.39-2.15,14.43-10.49l-3.96-16.86l13.11-11.31C319.11,406.88,315.65,396.21,307.12,395.5L307.12,395.5z
			 M287.28,414.53c-2.73,2.36-3.92,6.01-3.1,9.54l1.8,7.65l-6.72-4.08c-3.1-1.87-6.94-1.87-10.03,0l-6.72,4.07l1.8-7.65
			c0.83-3.52-0.36-7.18-3.1-9.54l-5.95-5.14l7.83-0.66c3.6-0.3,6.71-2.56,8.11-5.89l3.04-7.25l3.05,7.25
			c1.4,3.33,4.51,5.59,8.11,5.89l7.83,0.65L287.28,414.53z"/>
		<path d="M520.81,57.09c0-12.93-10.52-23.45-23.46-23.45S473.9,44.16,473.9,57.1v2.64c-12.56,12.41-30.8,19.22-51.72,19.22
			l-57.33,0c-15.37,0-27.87,12.5-27.86,27.87l0,27.13c0,7.44,2.9,14.44,8.16,19.71c3.08,3.07,6.74,5.33,10.74,6.69v32.39
			c0,10.75,8.74,19.49,19.49,19.49h19.14c12.13,0,21.34-10.98,19.18-22.95l-4.95-27.46l13.42,0h0.01c20.92,0,39.16,6.81,51.72,19.21
			v2.66c0,12.96,10.49,23.45,23.46,23.45h0c12.96,0,23.45-10.49,23.45-23.46L520.81,57.09z M351.99,133.96l0-27.13
			c0-3.44,1.34-6.67,3.77-9.1c2.43-2.43,5.66-3.77,9.1-3.77l31.86,0l0,52.87l-31.86,0c-0.23,0-0.45-0.02-0.68-0.03
			c-0.21-0.02-0.42-0.03-0.63-0.03c-2.94-0.29-5.67-1.58-7.79-3.7C353.33,140.63,351.99,137.4,351.99,133.96z M398.95,191.95
			c0.5,2.76-1.62,5.29-4.42,5.29h-19.14c-2.48,0-4.49-2.01-4.49-4.49v-30.91l22.63,0L398.95,191.95z M422.2,146.82
			C422.19,146.82,422.19,146.82,422.2,146.82h-10.47l0-52.87h10.46c19.68,0,37.51-5.2,51.72-14.87l0.01,82.59
			C459.7,152.02,441.88,146.82,422.2,146.82L422.2,146.82z M497.37,192.15c-4.67,0-8.46-3.78-8.46-8.46l-0.01-126.6
			c0-4.66,3.79-8.46,8.45-8.46c4.66,0,8.45,3.79,8.46,8.46l0.01,126.6C505.82,188.36,502.04,192.15,497.37,192.15L497.37,192.15z"/>
	</g>
</g>
</svg>
