<?xml version="1.0" encoding="utf-8"?>
<!-- Generator: Adobe Illustrator 25.0.0, SVG Export Plug-In . SVG Version: 6.00 Build 0)  -->
<svg version="1.1" id="Capa_1" xmlns="http://www.w3.org/2000/svg" xmlns:xlink="http://www.w3.org/1999/xlink" x="0px" y="0px"
	 viewBox="0 0 529 512" enable-background="new 0 0 529 512" xml:space="preserve">
<g>
	<defs>
		<path id="SVGID_1_" d="M353.28,326.7c0,0,35.64-19.01,31.84-32.79c-3.8-13.78-49.43-288-49.43-288l-54.18-34.69
			c0,0-110.08,18.06-122.29,22.34S99.5,9.24,98.07,10.19S6.82,202.66,1.59,215.97s-22.34,77.94-20.91,80.79
			c1.43,2.85,19.49,125.94,19.01,127.37C-0.78,425.55,11.57,512,11.57,512H293.4c0,0-11.79-6.69-12.3-13.73
			c-2.62-36.34-5-145.78,0.18-145.78c6.18,0,71.52-0.59,71.52-0.59L353.28,326.7z"/>
	</defs>
	<clipPath id="SVGID_2_">
		<use xlink:href="#SVGID_1_"  overflow="visible"/>
	</clipPath>
	<g clip-path="url(#SVGID_2_)">
		<g>
			<path fill="#FFFFFF" d="M353.05,414.84c-4.14,0-7.5,3.36-7.5,7.5v70.51c0,2.28-1.86,4.14-4.14,4.14H301.1V349.3
				c0-4.14-3.36-7.5-7.5-7.5s-7.5,3.36-7.5,7.5V497h-81.18l23.54-25.9c2.57-2.83,3.79-6.86,3.24-10.79
				c-0.01-0.08-0.02-0.15-0.04-0.23l-22.42-132.47l6.04-9.09c3.34,2.37,5.91,4.66,10.74,4.66c4.91,0,9.5-2.75,11.76-7.27v0
				l23.65-47.4l53.88,20.86c1.95,0.84,30.25,13.58,30.25,47.24v50.73c0,4.14,3.36,7.5,7.5,7.5c4.14,0,7.5-3.36,7.5-7.5v-50.73
				c0-44.34-37.97-60.46-39.58-61.13c-0.05-0.02-0.1-0.04-0.14-0.06l-89.67-34.73v-21.03c14.24-11.08,24.12-27.49,26.6-46.23
				c7.1-0.5,13.69-3.15,19.07-7.78c7.03-6.04,11.06-14.84,11.06-24.13c0-7.71-2.78-15.07-7.74-20.8V92.95
				C280.14,41.7,238.45,0,187.19,0S94.24,41.7,94.24,92.95v28.51c-5.01,5.68-7.73,12.66-7.73,20.07c0,9.29,4.03,18.09,11.06,24.13
				c5.38,4.62,11.96,7.27,19.06,7.77c2.5,19.08,12.66,36.11,28.12,47.34v19.92l-89.57,34.72c-0.05,0.02-0.09,0.04-0.14,0.06
				c-1.62,0.67-39.58,16.78-39.58,61.13v156.24c0,10.55,8.59,19.14,19.14,19.14h71.46c4.14,0,7.5-3.36,7.5-7.5s-3.36-7.5-7.5-7.5
				H89.91V349.3c0-4.14-3.36-7.5-7.5-7.5s-7.5,3.36-7.5,7.5V497H34.59c-2.28,0-4.14-1.86-4.14-4.14V336.61
				c0-33.77,28.49-46.49,30.24-47.23l53.83-20.87l23.65,47.4c2.26,4.53,6.86,7.27,11.76,7.27c4.8,0,7.35-2.25,10.74-4.66l6.04,9.09
				l-22.42,132.47c-0.01,0.08-0.02,0.15-0.04,0.23c-0.54,3.92,0.67,7.96,3.24,10.79l23.54,25.9h-29.99c-4.14,0-7.5,3.36-7.5,7.5
				s3.36,7.5,7.5,7.5h200.36c10.55,0,19.14-8.59,19.14-19.14v-70.51C360.55,418.2,357.2,414.84,353.05,414.84z M247.38,263.07
				l-22.05,44.19c-0.55-0.39-12.23-8.69-26.52-18.83c6.2-7.65-1.05,1.3,27.24-33.62L247.38,263.07z M203.04,309.83l-5.72,8.61h-18.7
				l-5.72-8.61l15.07-10.7L203.04,309.83z M159.74,243.12v-14.04c9.11,3.67,18.85,5.38,28.36,5.38c9.83,0,19.48-2.1,28.05-5.85
				v14.57l-28.18,34.78L159.74,243.12z M272.88,141.54c0,4.91-2.13,9.56-5.84,12.75c-2.45,2.11-5.42,3.46-8.66,3.99V124.8
				C267,126.2,272.88,133.35,272.88,141.54z M116.01,158.28c-8.72-1.41-14.5-8.62-14.5-16.74c0-8.02,6.65-14.54,14.5-16.36V158.28z
				 M116.41,109.9c-2.39,0.27-5.13,0.92-7.17,1.61V92.95c0-42.98,34.97-77.95,77.95-77.95s77.95,34.97,77.95,77.95V111
				c-2.18-0.66-4.44-1.1-6.76-1.31c0-7.24,0.06-5.84-23.61-31.29c-4.35-4.68-11.56-5.66-17.04-2.08
				c-26.13,17.07-58.01,25.64-87.42,23.53C123.87,99.37,117.99,103.62,116.41,109.9z M131.01,164.18v-46.79v-2.46
				c32.38,1.9,66.32-7.72,93.74-25.28c10.86,11.66,16.74,17.77,18.63,20.1c0,5.88,0,47.71,0,54.44c0,30.45-24.83,55.28-55.28,55.28
				C153.91,219.46,131.01,192.93,131.01,164.18z M150.62,307.26l-22.05-44.19l21.29-8.25l27.24,33.63
				C163.26,298.28,151.88,306.37,150.62,307.26z M159.23,461.7l21.71-128.26h14.07l21.71,128.26l-28.74,31.62L159.23,461.7z"/>
		</g>
	</g>
</g>
<g>
	<path fill="#FFFFFF" d="M492.6,340.76h-51.2v-9.16c0-10.8-8.79-19.59-19.59-19.59h-63.37c-10.8,0-19.59,8.79-19.59,19.59v9.16
		h-51.2c-10.45,0-18.96,8.5-18.96,18.96v133.33c0,10.45,8.5,18.96,18.96,18.96H492.6c10.45,0,18.96-8.5,18.96-18.96V359.71
		C511.56,349.26,503.06,340.76,492.6,340.76z M355.41,331.6c0-1.67,1.36-3.04,3.04-3.04h63.37c1.67,0,3.04,1.36,3.04,3.04v9.16
		h-69.44V331.6z M287.65,357.31H492.6c1.32,0,2.4,1.08,2.4,2.4v43.44c-25.65,9.52-64.35,15.14-104.95,15.14
		c-40.51,0-79.15-5.6-104.81-15.09v-43.49C285.25,358.39,286.33,357.31,287.65,357.31z M492.6,495.44H287.65
		c-1.32,0-2.4-1.08-2.4-2.4v-72.3c23.48,7.75,54.35,12.59,88,13.8c0,0.1-0.01,0.19-0.01,0.29v3.65c0,6.84,5.57,12.41,12.41,12.41
		h8.96c6.84,0,12.41-5.57,12.41-12.41v-3.65c0-0.1-0.01-0.19-0.01-0.29c33.67-1.22,64.53-6.08,88-13.84v72.34
		C495.01,494.37,493.93,495.44,492.6,495.44z"/>
</g>
</svg>
