<?xml version="1.0" encoding="utf-8"?>
<!-- Generator: Adobe Illustrator 25.0.0, SVG Export Plug-In . SVG Version: 6.00 Build 0)  -->
<svg version="1.1" id="Layer_1" xmlns="http://www.w3.org/2000/svg" xmlns:xlink="http://www.w3.org/1999/xlink" x="0px" y="0px"
	 viewBox="0 0 706.16 362.94" enable-background="new 0 0 706.16 362.94" xml:space="preserve">
<g id="freepik--background-complete--inject-2">
	<path fill="#F5F5F5" d="M699.95,197.45l-6.21-10.81l-9.71,1.43l-8-10.08l4.13-10l-10.83-7.19l-8.09,8.15l-10.65-1.86l-4.31-12.53
		l-12.95,1.37l-0.73,10.95l-9.65,4.84l-10.21-7.23l-10.36,7.55l5.38,11.59l-6.16,9.29l-11.19-0.6l-2.93,13.81l10.65,4.1l0.92,11.6
		l-11,6.35l5.28,12l11.43-1.78l7.57,8.74l-4,10.9l10.47,7.39l8.17-8.84l11.34,3.07l3.53,11.7l12.6-0.85l1.62-10.51l10.81-6.2
		l8.84,7.05l11.18-8.33l-5.67-9.8l5.51-9.87l11.34,0.83l3.47-12.85l-9.73-5.26l-1.29-11.71L699.95,197.45z M656.05,235.26
		c-12.2,7-27.77,2.79-34.77-9.41c-7-12.2-2.79-27.77,9.41-34.77c12.2-7,27.77-2.79,34.77,9.41
		C672.46,212.69,668.25,228.26,656.05,235.26z"/>
	<path fill="#F5F5F5" d="M109.8,325.04c19.16-16.56,21.08-43.81,17.78-67.8c-0.55-4-0.55-8.28-2.82-11.61s-7-5.27-10.41-3.21
		c-2.84,1.71-3.78,5.32-5.15,8.36c-1.83,4.07-4.77,7.53-8.49,10c-2.43,1.59-5.51,2.73-8.18,1.6c-3.66-1.56-4.56-6.3-5-10.3
		l-2.11-22.36c-0.39-4-0.8-8.07-2.43-11.74s-4.75-6.9-8.66-7.57s-8.38,2-8.78,6c-0.17,1.67,0.34,3.32,0.4,5s-0.52,3.59-2,4.21
		s-3.26-0.33-4.58-1.38c-4.54-3.61-7.87-8.52-11-13.42s-6.23-9.92-10.43-13.94s-9.73-7-15.49-6.7s-11.49,4.43-12.35,10.2
		c-0.86,5.77,3,11.15,7.05,15.34c6,6.22,12.87,11.54,20.4,15.79c1.35,0.76,2.81,1.59,3.45,3c1.14,2.57-1.11,5.48-3.65,6.63
		c-2.88,1.29-6.14,1.32-9.22,2s-6.31,2.41-7.18,5.47c-1.22,4.26,2.64,8.18,6.29,10.64c7.33,4.92,15.44,8.55,24,10.72
		c3,0.77,6.24,1.4,8.82,3.22s4.38,5.26,3.24,8.22s-4.72,4.25-7.86,4s-6.06-1.64-9.11-2.44c-5.71-1.51-12.76-0.4-15.79,4.71
		c-2,3.36-1.74,7.72-0.19,11.32s4.25,6.56,7.08,9.25c9.86,9.42,22,16.57,35.18,19.67s25.12,3.08,37.3-2.85"/>
	<path fill="#E0E0E0" d="M111.95,342.85c-2.26-11.05-5.59-21.85-9.92-32.26c-5.35-12.7-11.42-25.08-18.19-37.08
		c-1.78-3.2-3.54-6.36-5.27-9.47c-1.73-3.11-3.45-6.19-5.32-9.1c-3.6-5.57-7.51-10.95-11.7-16.09c-4-4.94-7.92-9.49-11.64-13.71
		s-7.29-8.08-10.67-11.42c-5.32-5.38-11.06-10.32-17.16-14.8c-2.16-1.57-3.87-2.74-5-3.52c-0.56-0.37-1-0.66-1.34-0.87
		c-0.14-0.11-0.3-0.2-0.46-0.28c0.13,0.13,0.27,0.24,0.42,0.34l1.3,0.93c1.14,0.82,2.82,2,5,3.64c6.03,4.54,11.71,9.52,17,14.9
		c3.35,3.39,6.88,7.27,10.58,11.49s7.62,8.79,11.57,13.73c4.16,5.14,8.04,10.5,11.62,16.06c1.85,2.89,3.56,5.95,5.3,9.06
		s3.48,6.28,5.26,9.47c6.75,11.98,12.83,24.34,18.2,37c4.33,10.36,7.68,21.11,10,32.1"/>
	<path fill="#E0E0E0" d="M73.03,254.94c0.14-0.57,0.21-1.16,0.22-1.75c0.1-1.12,0.18-2.76,0.26-4.78c0.15-4,0.17-9.61,0.18-15.77
		s0.1-11.72,0.32-15.74c0.1-2,0.2-3.64,0.28-4.77c0.07-0.58,0.07-1.17,0-1.75c-0.17,0.56-0.28,1.14-0.33,1.72
		c-0.17,1.12-0.35,2.75-0.51,4.76c-0.36,4-0.54,9.62-0.54,15.78s0,11.56,0,15.76c0,1.9,0,3.5,0,4.78
		C72.89,253.77,72.93,254.36,73.03,254.94z"/>
	<path fill="#E0E0E0" d="M20.67,250.63c0.69,0.07,1.39,0.07,2.08,0c1.33,0,3.25-0.06,5.63,0c4.76,0,11.33,0.29,18.57,0.89
		s13.76,1.46,18.46,2.2c2.36,0.36,4.26,0.69,5.57,0.92c0.66,0.15,1.33,0.25,2,0.29c-0.64-0.26-1.32-0.45-2-0.57
		c-1.3-0.32-3.19-0.74-5.54-1.16c-4.7-0.88-11.23-1.8-18.49-2.42c-6.19-0.54-12.41-0.77-18.63-0.68c-2.39,0-4.32,0.16-5.65,0.27
		C22,250.4,21.33,250.49,20.67,250.63z"/>
	<path fill="#E0E0E0" d="M101.3,309.72c0.12-0.21,0.22-0.43,0.29-0.66c0.18-0.53,0.41-1.17,0.68-1.95c0.59-1.7,1.38-4.17,2.31-7.24
		c1.88-6.14,4.19-14.71,6.62-24.19s4.67-18.06,6.41-24.23c0.86-3,1.56-5.47,2.08-7.3c0.23-0.8,0.41-1.46,0.56-2
		c0.09-0.23,0.13-0.47,0.14-0.71c-0.12,0.21-0.21,0.44-0.28,0.67c-0.19,0.53-0.42,1.17-0.69,1.95c-0.59,1.69-1.38,4.17-2.31,7.24
		c-1.87,6.14-4.19,14.7-6.62,24.19s-4.67,18.06-6.41,24.23c-0.85,3-1.56,5.47-2.08,7.3l-0.55,2
		C101.37,309.25,101.32,309.49,101.3,309.72z"/>
	<path fill="#E0E0E0" d="M30.77,294.72c0.22,0.11,0.46,0.18,0.7,0.21l2.06,0.46l7.55,1.62c6.38,1.36,15.17,3.35,24.87,5.56
		s18.53,4.11,24.94,5.34c3.2,0.62,5.8,1.1,7.6,1.39l2.08,0.32c0.24,0.05,0.49,0.07,0.73,0.06c-0.23-0.1-0.47-0.17-0.71-0.21l-2-0.46
		l-7.64-1.58c-6.38-1.37-15.17-3.35-24.88-5.56s-18.48-4.15-24.89-5.35c-3.2-0.62-5.8-1.09-7.6-1.38l-2.08-0.33
		C31.26,294.76,31.02,294.73,30.77,294.72z"/>
	<path fill="none" d="M589.95,136.54l-3.69-6.42l-5.78,0.85l-4.77-6l2.46-6l-6.43-4.25l-4.79,4.86l-6.33-1.11l-2.56-7.44l-7.7,0.81
		l-0.44,6.51l-5.73,2.92l-6.07-4.3l-6.17,4.48l3.2,6.9l-3.66,5.52l-6.66-0.36l-1.75,8.21l6.34,2.44l0.54,6.9l-6.56,3.77l3.14,7.12
		l6.79-1.06l4.5,5.2l-2.35,6.48l6.23,4.39l4.85-5.25l6.75,1.82l2.09,7l7.49-0.51l1-6.25l6.42-3.68l5.26,4.19l6.65-5l-3.36-5.86
		l3.27-5.86l6.74,0.49l2.08-7.63l-5.79-3.13l-0.77-7L589.95,136.54z M563.85,159.02c-7.25,4.16-16.5,1.66-20.67-5.59
		c-4.16-7.25-1.66-16.5,5.59-20.67c7.25-4.16,16.5-1.66,20.67,5.59C573.61,145.6,571.11,154.86,563.85,159.02L563.85,159.02z"/>
	<path fill="#E0E0E0" d="M563.86,159.02c1.02-0.7,1.99-1.48,2.9-2.32c1.04-1.01,1.92-2.18,2.61-3.45c3.5-6.26,2.07-14.12-3.42-18.73
		c-1.09-0.94-2.32-1.7-3.64-2.26c-1.37-0.61-2.82-1-4.31-1.15c-6.46-0.74-12.64,2.81-15.26,8.76c-1.19,2.7-1.57,5.68-1.07,8.59
		c0.46,2.63,1.61,5.08,3.33,7.12c2.78,3.26,6.82,5.19,11.11,5.29c1.45,0.05,2.9-0.12,4.3-0.51c1.19-0.36,2.35-0.8,3.47-1.34
		c0,0-0.06,0.06-0.2,0.14l-0.64,0.35c-0.34,0.2-0.69,0.37-1.06,0.5c-0.49,0.22-0.99,0.4-1.51,0.54c-1.41,0.43-2.88,0.64-4.36,0.61
		c-4.4-0.03-8.57-1.96-11.44-5.3c-1.79-2.09-2.99-4.61-3.47-7.32c-0.27-1.46-0.31-2.95-0.13-4.42c0.16-1.54,0.56-3.04,1.2-4.45
		c2.69-6.17,9.11-9.85,15.79-9.06c3.02,0.34,5.88,1.58,8.2,3.54c2.1,1.78,3.68,4.09,4.58,6.69c1.42,4.16,0.99,8.73-1.19,12.55
		c-0.72,1.29-1.64,2.45-2.73,3.45c-0.38,0.37-0.79,0.7-1.23,1c-0.31,0.25-0.64,0.48-1,0.66l-0.62,0.37
		C563.95,158.99,563.87,159.03,563.86,159.02z"/>
	<path fill="#E0E0E0" d="M589.95,136.54l-0.34,0.25l-1,0.73l-4.17,2.88v-0.08c0.22,1.89,0.49,4.23,0.8,7l-0.06-0.09l5.8,3.12h0.09
		v0.1c-0.61,2.3-1.3,4.88-2,7.64v0.13h-0.12l-6.74-0.48l0.16-0.09l-3.42,5.87v-0.18c1.05,1.81,2.19,3.8,3.37,5.85l0.09,0.15
		l-0.14,0.1l-6.64,5l-0.12,0.09l-0.13-0.1l-5.26-4.19h0.24l-6.42,3.7l0.11-0.16c-0.29,1.93-0.62,4.07-1,6.25v0.18h-0.1l-7.49,0.52
		h-0.19l-0.06-0.18l-2.1-7l0.17,0.17l-6.74-1.82l0.25-0.07l-4.86,5.25l-0.15,0.17l-0.18-0.13l-6.23-4.39l-0.16-0.12l0.07-0.18
		c0.74-2,1.54-4.25,2.35-6.48l0.05,0.26l-4.5-5.2l0.23,0.09l-6.79,1.06h-0.2l-0.08-0.19c-1-2.25-2.07-4.68-3.14-7.11l-0.1-0.22
		l0.21-0.12l0.14-0.08c2.15-1.23,4.3-2.46,6.42-3.69l-0.13,0.25c-0.18-2.32-0.36-4.62-0.54-6.9l0.17,0.22l-6.42-2.36l-0.2-0.08
		v-0.21c0.59-2.77,1.17-5.5,1.74-8.21v-0.21h0.22l6.65,0.35l-0.22,0.12l3.67-5.52v0.24c-1.09-2.34-2.15-4.63-3.2-6.9l-0.08-0.18
		l0.16-0.11l6.16-4.48l0.14-0.1l0.14,0.09l6.06,4.31h-0.23l5.73-2.91l-0.12,0.19c0.15-2.24,0.3-4.4,0.44-6.52v-0.18h0.18l7.69-0.8
		h0.17v0.16l2.56,7.45l-0.15-0.13l6.33,1.12h-0.17l4.82-4.83l0.1-0.1l0.12,0.07l6.43,4.29l0.1,0.07v0.12
		c-0.93,2.24-1.73,4.16-2.47,6v-0.14l4.75,6h-0.1l5.78-0.82h0.05v0.05l2.75,4.89l0.66,1.19c0.15,0.26,0.21,0.38,0.21,0.38
		s-0.09-0.13-0.25-0.39s-0.39-0.67-0.7-1.18l-2.81-4.81h0.08l-5.77,0.87h-0.06v-0.05l-4.79-6V125v-0.08c0.74-1.79,1.52-3.72,2.44-6
		l0.06,0.18l-6.45-4.25h0.21c-1.5,1.53-3.07,3.12-4.8,4.86l-0.06,0.07h-0.1l-6.25-1.06h-0.11v-0.11c-0.83-2.38-1.68-4.85-2.58-7.45
		l0.22,0.14l-7.7,0.82l0.2-0.2c-0.14,2.12-0.28,4.28-0.43,6.52v0.12l-0.11,0.06l-5.73,2.92l-0.13,0.06l-0.11-0.08l-6.14-4.36h0.28
		l-6.15,4.49l0.08-0.3l3.2,6.89l0.06,0.13l-0.08,0.11l-3.66,5.53l-0.08,0.12h-0.14l-6.66-0.35l0.26-0.2
		c-0.57,2.7-1.15,5.44-1.73,8.21l-0.16-0.3l6.33,2.44l0.15,0.06v0.16c0.18,2.28,0.36,4.58,0.54,6.9v0.16l-0.15,0.09l-6.42,3.68
		l-0.14,0.09l0.11-0.33l3.13,7.11l-0.27-0.15l6.79-1.05h0.14l0.1,0.1c1.55,1.79,3.08,3.57,4.5,5.2l0.1,0.12v0.14
		c-0.82,2.23-1.62,4.44-2.36,6.47l-0.09-0.29l6.22,4.4h-0.33l4.86-5.25l0.1-0.11h0.15l6.74,1.83h0.13v0.13
		c0.72,2.42,1.44,4.8,2.09,7l-0.24-0.17l7.49-0.5l-0.21,0.2c0.34-2.18,0.67-4.32,1-6.25v-0.11l0.09-0.05l6.43-3.68l0.12-0.07
		l0.12,0.09l5.25,4.2h-0.25l6.65-4.94v0.25c-1.18-2-2.32-4-3.35-5.86l-0.05-0.09l0.05-0.09l3.28-5.86l0.06-0.09h0.1l6.74,0.51
		l-0.16,0.11c0.75-2.76,1.46-5.33,2.09-7.63l0.06,0.15l-5.77-3.15l0,0v-0.06l-0.74-7v-0.05l0,0l4.19-2.78l1.08-0.71L589.95,136.54z"
		/>
</g>
<g id="freepik--Floor--inject-2">
	<path fill="#263238" d="M672.35,345.39c0,0.15-142.45,0.26-318.13,0.26s-318.16-0.11-318.16-0.26s142.42-0.26,318.16-0.26
		S672.35,345.25,672.35,345.39z"/>
</g>
<g id="freepik--character-2--inject-2">
	<path fill="#263238" d="M645.46,207.61l-55,137.57H435.95l49.1-139.46c0.36-1.01,1.31-1.69,2.38-1.69l155.68,0.1
		c1.4,0,2.53,1.13,2.54,2.52C645.65,206.99,645.58,207.31,645.46,207.61z"/>
	<path fill="#455A64" d="M636.95,211.58l-50.49,123.25c-0.22,0.54-0.75,0.89-1.34,0.89H444.43c-0.78,0.02-1.42-0.6-1.44-1.38
		c0-0.17,0.02-0.34,0.08-0.5l44.77-123.25c0.21-0.57,0.75-0.94,1.35-0.94h146.46c0.78,0.01,1.41,0.64,1.4,1.42
		C637.05,211.25,637.02,211.42,636.95,211.58z"/>
	<polygon fill="#263238" points="590.43,345.4 589.06,345.4 380.53,345.4 380.53,335.72 584.73,335.72 	"/>
	<path fill="#FFBE9D" d="M431.06,212.95c0,0-4.23,50.28-13.34,52.73c-24.8,6.66-53.17,1.73-63.13-0.23c-1.12-1-2.41-2.12-3.87-3.56
		c-1.24-1.25-2.25-2.71-3-4.3c-1.04-1.95-1.8-4.03-2.27-6.19c-0.24-2-2.75-2.7-3.64-1.09s-1.26,7.76,2.08,13.36
		c0.56,1.35-0.08,2.89-1.42,3.45c-0.13,0.05-0.26,0.1-0.4,0.13c-4.21,1.56-19.05,6.17-21.45,7.3c-2.13,1-4.19,2.82-1.95,3.19
		s14.5-1.4,14.5-1.4s-16.11,2-15.71,4.32c0.27,1.61,4.61,2.38,15.13,0c0,0-13.26,1.73-14.64,3.12c-3.13,3.14,12.84,1.21,12.84,1.21
		c-11.18,1.45-11.06,0.87-11.18,2.4c-0.09,1.15,2.44,1.61,8.58,1.68c5,0.06,10.12,1.12,17.7,1.63l0,0c0,0,95.85,27.11,109-15.07
		c7.11-22.74,7.15-31.39,9.61-46.29"/>
	<path fill="#A36957" d="M337.5,284.28c0,0.28-3.37,0.87-7.62,1.31s-7.71,0.58-7.72,0.29s3.39-0.87,7.62-1.31
		S337.46,284,337.5,284.28z"/>
	<path fill="#A36957" d="M337.4,279.93c0,0.28-3.56,1.11-8,1.85s-8.16,1.12-8.21,0.85s3.55-1.11,8-1.86S337.35,279.65,337.4,279.93z
		"/>
	<path fill="#A36957" d="M337.26,275.41c0.05,0.28-3.34,1.12-7.57,1.88s-7.71,1.15-7.76,0.88s3.34-1.13,7.57-1.89
		S337.21,275.13,337.26,275.41z"/>
	<polygon fill="#263238" points="555.45,298.77 561.68,335.06 464.49,335.06 468.21,306.86 	"/>
	<path fill="#587CF8" d="M440.95,174.13c0,0-14.13,42.43-13.22,44.12l31.09,7.21L440.95,174.13z"/>
	<path opacity="0.08" enable-background="new    " d="M440.95,174.13c0,0-14.13,42.43-13.22,44.12l31.09,7.21L440.95,174.13z"/>
	<path fill="#587CF8" d="M467.54,253.83l-3,60.73l93.89-10.63l-14.69-58.7c0,0-10.1-68.06-28.51-75.6
		c-6.38-2.48-12.9-4.58-19.53-6.29c-11.73-3.33-24.01-4.24-36.1-2.68l-1.89,0.25c-7.65,0.84-14.16,5.97-16.76,13.22
		c0,0-0.33,20.9,6.09,34.74L467.54,253.83z"/>
	<path fill="#455A64" d="M489.77,333.91c-0.14,0-0.35-4.93-0.46-11s-0.09-11,0-11s0.36,4.94,0.47,11S489.95,333.91,489.77,333.91z"
		/>
	<path fill="#455A64" d="M494.95,314.63c0,0,0.1-0.16,0.41-0.27c0.98-0.28,2.01,0.3,2.28,1.28c0.05,0.18,0.07,0.37,0.07,0.56
		c-0.02,0.9-0.6,1.7-1.45,2c-0.85,0.24-1.76-0.01-2.36-0.66c-0.47-0.51-0.68-1.21-0.57-1.9c0.21-1.16,0.92-1.55,0.93-1.49
		c-0.29,0.47-0.48,0.99-0.56,1.53c-0.09,1.05,0.7,1.97,1.75,2.06c0.22,0.02,0.44,0,0.65-0.06c0.64-0.24,1.08-0.82,1.14-1.49
		c0.04-0.56-0.25-1.08-0.73-1.36C496.04,314.57,495.48,314.5,494.95,314.63z"/>
	<path fill="#455A64" d="M557,320.57c-0.11,0.11-0.24,0.21-0.38,0.29c-0.36,0.27-0.74,0.52-1.13,0.75
		c-1.43,0.86-2.96,1.57-4.54,2.11c-10.8,3.78-22.8-0.09-29.35-9.47c-0.97-1.36-1.78-2.82-2.44-4.35c-0.25-0.54-0.38-1-0.49-1.27
		s-0.14-0.45-0.12-0.46s0.29,0.59,0.79,1.64c1.8,3.69,4.41,6.93,7.64,9.46c4.73,3.75,10.65,5.66,16.67,5.38
		c2.44-0.09,4.86-0.52,7.19-1.28c1.57-0.5,3.09-1.15,4.54-1.94C555.9,321.11,556.44,320.83,557,320.57z"/>
	<path fill="#FAFAFA" d="M481.19,201.12c-0.34,0.4-0.72,0.76-1.12,1.09c-1.05,0.95-2.17,1.83-3.35,2.63
		c-1.75,1.23-3.78,2.03-5.9,2.33c-2.62,0.15-5.24-0.38-7.6-1.53c-2.53-1.11-4.8-2.4-7-3.2c-1.92-0.78-4.01-1.08-6.08-0.86
		c-1.39,0.16-2.72,0.67-3.85,1.49c-0.78,0.6-1.11,1.06-1.15,1c0.05-0.12,0.13-0.24,0.22-0.34c0.24-0.31,0.51-0.59,0.81-0.84
		c1.13-0.92,2.48-1.5,3.92-1.69c2.13-0.28,4.29-0.01,6.29,0.77c2.27,0.79,4.56,2.08,7.05,3.17c2.28,1.12,4.81,1.65,7.35,1.53
		c2.06-0.26,4.03-1,5.75-2.16c1.18-0.76,2.33-1.59,3.42-2.48C480.34,201.7,480.76,201.39,481.19,201.12z"/>
	<path fill="#FAFAFA" d="M456.56,177.37c-0.5,0.64-1.11,1.18-1.8,1.59c-3.26,2.21-7.25,3.08-11.13,2.43c-0.8-0.09-1.58-0.32-2.3-0.7
		c0-0.08,0.91,0.17,2.35,0.34c3.79,0.43,7.62-0.41,10.88-2.38C455.81,177.9,456.5,177.3,456.56,177.37z"/>
	<path fill="#FAFAFA" d="M541.45,234.58c-0.2,0.2-0.42,0.38-0.65,0.55c-0.67,0.48-1.39,0.88-2.15,1.2
		c-2.86,1.03-5.93,1.31-8.93,0.81c-2.05-0.31-4.09-0.73-6.1-1.26c-2.3-0.62-4.64-1.07-7-1.35c-2.59-0.22-5.21-0.03-7.74,0.56
		c-2.74,0.66-5.41,1.55-8,2.66c-5.33,2.21-10.37,4.62-15.35,5.65c-4.4,0.92-8.96,0.8-13.31-0.34c-2.91-0.73-5.78-1.65-8.57-2.75
		l-2.28-0.91c-0.27-0.1-0.52-0.21-0.77-0.35c0.28,0.06,0.55,0.14,0.81,0.25l2.31,0.82c2.81,1.03,5.67,1.89,8.58,2.58
		c4.3,1.08,8.79,1.15,13.13,0.23c4.9-1,9.9-3.44,15.25-5.67c2.6-1.12,5.3-2.01,8.06-2.67c2.59-0.6,5.25-0.78,7.9-0.54
		c2.37,0.3,4.7,0.77,7,1.41c1.98,0.54,3.98,0.98,6,1.32c2.94,0.53,5.97,0.31,8.81-0.64C539.51,235.74,540.52,235.22,541.45,234.58z"
		/>
	<path fill="#FAFAFA" d="M467.04,271.72c0,0,0-0.07,0.13-0.19l0.43-0.55c0.59-0.66,1.26-1.24,2-1.74c1.17-0.79,2.46-1.39,3.81-1.78
		c1.8-0.51,3.66-0.74,5.53-0.68c4.18,0.06,8.89,1.79,13.83,4c2.57,1.18,5.21,2.22,7.89,3.12c2.86,0.98,5.88,1.4,8.9,1.25
		c3-0.32,5.9-1.28,8.5-2.82c2.59-1.4,4.95-3,7.34-4.31c2.24-1.31,4.68-2.26,7.22-2.82c5.53-0.98,11.21,0.58,15.46,4.25
		c0.92,0.77,1.73,1.66,2.41,2.64c-0.07-0.05-0.12-0.1-0.17-0.17c-0.13-0.13-0.28-0.3-0.46-0.5c-0.24-0.28-0.5-0.55-0.78-0.8
		c-0.36-0.36-0.73-0.69-1.13-1c-2.5-2.05-5.47-3.42-8.65-4c-2.18-0.39-4.42-0.39-6.6,0c-2.49,0.56-4.87,1.51-7.06,2.81
		c-2.37,1.31-4.72,2.92-7.33,4.34c-2.66,1.58-5.63,2.56-8.71,2.89c-3.08,0.15-6.17-0.28-9.09-1.28c-2.7-0.91-5.35-1.97-7.93-3.17
		c-4.92-2.22-9.56-3.95-13.66-4.07c-1.83-0.07-3.66,0.13-5.43,0.6c-1.34,0.36-2.61,0.92-3.77,1.67
		C468.73,270.06,467.83,270.84,467.04,271.72z"/>
	<path fill="#FAFAFA" d="M551.84,303.8c-0.47-1.14-1.06-2.22-1.77-3.23c-2.06-2.67-4.91-4.62-8.14-5.58
		c-2.2-0.71-4.51-1.01-6.82-0.91c-2.65,0.13-5.28,0.6-7.81,1.41c-2.81,0.89-5.55,1.98-8.2,3.26c-2.78,1.29-5.62,2.74-8.62,4.05
		c-2.89,1.32-5.9,2.34-9,3.05c-2.92,0.58-5.91,0.77-8.88,0.58c-5.02-0.42-9.96-1.57-14.65-3.41c-4-1.51-7.14-3-9.31-4l-2.47-1.2
		l-0.64-0.33l-0.21-0.13c0.08,0.01,0.16,0.04,0.24,0.08l0.65,0.28l2.52,1.12c2.18,1,5.34,2.37,9.35,3.84
		c4.66,1.78,9.56,2.88,14.53,3.27c2.93,0.18,5.87-0.02,8.74-0.6c3.09-0.69,6.11-1.7,9-3c3-1.3,5.82-2.74,8.62-4
		c2.68-1.28,5.44-2.37,8.27-3.26c2.57-0.81,5.24-1.28,7.93-1.38c2.37-0.09,4.75,0.25,7,1c3.28,1.01,6.15,3.04,8.19,5.81
		c0.53,0.76,0.97,1.57,1.31,2.43c0.09,0.28,0.17,0.5,0.23,0.68C551.89,303.69,551.87,303.75,551.84,303.8z"/>
	<g opacity="0.2">
		<path d="M480.28,312.55c9.53-0.38,19.07-3.56,26.36-9.71c10-8.42,14.91-21.64,16-34.66c1.09-13.02-1.23-26-3.54-38.9
			c-8.92,12.5-16.18,26.12-21.57,40.5c-3.54,9.44-6.65,19.75-14.49,26.08c-2.8,2.26-6.14,3.95-8.33,6.8s-2.66,7.55,0.25,9.67
			l2.58,0.84"/>
	</g>
	<path fill="#FFBE9D" d="M411.42,313.05c1.9,0.92,3.92,1.57,6,1.93c1.64,0.36,3.33,0.43,5,0.22c0.78-0.1,1.51-0.21,2.21-0.32
		c3.22-0.52,6.23-1.93,8.69-4.07c10.83-9.41,40.15-39.15,45.38-45.88c6.3-8.09,8.07-61.57,8.07-61.57l35.18,5.76
		c0,0-0.63,38.54-9.28,68.53c-5.51,19.07-72,58.3-72.08,58.34c-4.93,5.4-10.47,11.25-13.88,14.1c-7.09,5.94-7.63,5.32-8.18,4.37
		c-1.48-2.53,12.07-10.92,8.11-10.81s-15.38,12.19-16.82,9.48c-1.88-3.54,12.48-12.06,13.64-12.87s0-2.52-1-1.73
		c-1.45,1.13-17,12.66-18.86,9.21c-1-1.92,2.57-3.47,2.57-3.47s15.33-9.71,14.39-11.31s-10.14,3.77-13.12,5.81s-5.08,1.44-4.9-0.6
		c0.13-1.39,9.08-7.86,12.07-9.81s11.26-7.15,5.09-7.9s-10.62-3.67-11.28-5.29S409.77,312.03,411.42,313.05z"/>
	<path fill="#587CF8" d="M500.02,168.51c6.73-1.38,13.7,0.77,18.49,5.69c4.1,4.27,8.22,11.42,7.87,22.75
		c-0.69,22.11-2.43,29.65-2.43,29.65l-43.35-1.5l1.7-37.15C482.3,187.95,485.65,171.54,500.02,168.51z"/>
	<path opacity="0.08" enable-background="new    " d="M500.02,168.51c6.73-1.38,13.7,0.77,18.49,5.69c4.1,4.27,8.28,12,7.93,23.31
		c-0.68,22.11-2.49,29.09-2.49,29.09l-43.35-1.5l1.76-36.58C482.36,188.52,485.65,171.54,500.02,168.51z"/>
	<path fill="#FAFAFA" d="M525.59,213.72c0,0.05-0.5-0.44-1.46-1.12c-1.39-0.93-2.93-1.6-4.55-2c-2.4-0.6-4.91-0.69-7.35-0.25
		c-2.96,0.7-5.84,1.72-8.57,3.05c-2.77,1.34-5.66,2.43-8.63,3.25c-2.46,0.58-5.01,0.7-7.52,0.36c-1.69-0.22-3.33-0.76-4.82-1.6
		c-0.4-0.23-0.78-0.5-1.14-0.79c-0.13-0.09-0.25-0.2-0.36-0.32c0-0.05,0.54,0.38,1.59,0.93c1.5,0.74,3.12,1.22,4.78,1.42
		c2.46,0.28,4.95,0.12,7.36-0.47c2.93-0.84,5.79-1.93,8.53-3.26c2.78-1.34,5.69-2.37,8.7-3.05c2.5-0.42,5.07-0.29,7.52,0.38
		c1.65,0.44,3.2,1.19,4.57,2.21c0.36,0.28,0.69,0.59,1,0.93C525.37,213.49,525.49,213.6,525.59,213.72z"/>
	<path fill="#FAFAFA" d="M523.82,182.42c-0.46,0.24-0.94,0.45-1.43,0.61c-0.46,0.19-1,0.38-1.72,0.59s-1.45,0.45-2.32,0.64
		c-2.03,0.5-4.1,0.86-6.18,1.09c-2.55,0.26-5.12,0.35-7.69,0.28c-2.56-0.1-5.12-0.38-7.64-0.84c-2.06-0.39-4.09-0.94-6.06-1.64
		c-0.76-0.25-1.51-0.56-2.24-0.9c-0.56-0.23-1.11-0.5-1.64-0.8c-0.47-0.22-0.92-0.49-1.33-0.8c0.49,0.17,0.96,0.38,1.42,0.62
		c0.54,0.27,1.09,0.51,1.66,0.71c0.73,0.31,1.49,0.59,2.25,0.82c1.96,0.65,3.97,1.15,6,1.52c2.5,0.43,5.03,0.69,7.57,0.79
		c2.54,0.07,5.09-0.01,7.62-0.24c2.06-0.21,4.11-0.55,6.14-1c0.88-0.17,1.65-0.37,2.33-0.56s1.27-0.34,1.74-0.5
		C522.79,182.64,523.3,182.5,523.82,182.42z"/>
	<path fill="#263238" d="M477.15,120.4c-0.17,1.65,1.02,3.12,2.67,3.3c0.7,0.07,1.4-0.1,1.98-0.49c1.78-1.28,1.6-4,0.89-6
		s-1.79-4.22-1.21-6.33c0.45-1.61,1.78-2.8,2.75-4.16c1.73-2.41,2.23-5.49,1.35-8.32c-0.96-2.82-3.41-4.87-6.36-5.32
		c-2.95-0.34-6.31,1.07-8.73-0.65c-1.76-1.24-2.24-3.66-3.7-5.25c-2.26-2.46-6.21-2.29-9.42-1.33s-6.37,2.54-9.71,2.24
		c-2.78-0.24-5.28-1.77-8-2.53c-7.8-2.15-15.87,2.42-18.02,10.22c-1.19,4.32-0.34,8.95,2.31,12.57c1.24,1.82,3.07,3.14,5.19,3.74"/>
	<path fill="#FFBE9D" d="M472.25,183.14L472.25,183.14c-9.02,1.65-17.68-4.3-19.36-13.32c-1-5.15-1.76-9.5-1.76-9.5
		s-13.39,0.2-15.78-12.82s-5.06-41.62-5.06-41.62l-0.17-1.73c14-9.07,32-8.42,46.76-0.61l0.44,2.69l8.47,58.68
		C486.77,173.6,480.85,181.57,472.25,183.14z"/>
	<path fill="#FFFFFF" d="M457.63,137.6l-8.37,4.06c1.57,1.75,4.15,2.16,6.19,1C459.11,140.54,457.63,137.6,457.63,137.6z"/>
	<path fill="#EB996E" d="M451.07,160.14c6.04-0.92,11.68-3.61,16.19-7.73c0,0-2.42,10.07-15.64,11.11L451.07,160.14z"/>
	<path fill="#FFBE9D" d="M477.95,115.01c0.27-0.14,9.6-2.38,9.91,8.88s-11.17,7.85-11.2,7.53S477.95,115.01,477.95,115.01z"/>
	<path fill="#EB996E" d="M480.04,127.37c0.05,0,0.2,0.13,0.54,0.28c0.47,0.19,1,0.19,1.47,0c1.17-0.47,2.12-2.39,2.12-4.42
		c0-0.97-0.21-1.92-0.62-2.8c-0.24-0.71-0.81-1.25-1.52-1.46c-0.47-0.11-0.95,0.13-1.14,0.57c-0.15,0.32-0.07,0.54-0.13,0.56
		s-0.25-0.18-0.17-0.65c0.06-0.28,0.21-0.53,0.43-0.72c0.3-0.24,0.69-0.35,1.07-0.31c0.95,0.16,1.74,0.8,2.1,1.69
		c0.51,0.96,0.77,2.03,0.77,3.12c0,2.27-1.12,4.43-2.73,4.94c-0.61,0.2-1.27,0.11-1.8-0.25C480.07,127.64,480,127.39,480.04,127.37z
		"/>
	<path fill="#263238" d="M428.03,111.72c0,0,8.43,2.74,18-3.8c6.29-4.3,13.94-7,15.86-5.9s3.24,8,10.21,9.14
		c0,0,1.35,13.34,6.58,12.14s-0.89-21.3-0.89-21.3l-13.31-7.08l-14.5-0.73l-15.35,3.87l-8.12,6.58L428.03,111.72z"/>
	<path fill="#263238" d="M477.23,90.72c-1.99,0.36-3.81,1.39-5.15,2.9C472.94,91.6,475.05,90.4,477.23,90.72z"/>
	<path fill="#263238" d="M471.07,86.29c0.63,1.28,0.94,2.69,0.9,4.12c0.02,1.02-0.15,2.04-0.5,3c-0.11,0.41-0.32,0.78-0.61,1.09
		c0.33-1.33,0.52-2.69,0.59-4.06C471.41,88.16,470.95,86.33,471.07,86.29z"/>
	<path fill="#263238" d="M434.29,124.84c0.05,1.06,0.94,1.88,2,1.84c1.02,0.02,1.86-0.78,1.88-1.8c0-0.01,0-0.02,0-0.03
		c-0.04-1.04-0.9-1.85-1.94-1.83c-1.01-0.06-1.88,0.71-1.94,1.72C434.29,124.77,434.29,124.81,434.29,124.84z"/>
	<path fill="#263238" d="M434.24,123.37c0.25,0.24,1.64-0.91,3.7-1s3.62,0.86,3.83,0.59c0.1-0.11-0.16-0.55-0.84-1
		c-0.92-0.57-2-0.84-3.08-0.78c-1.07,0.05-2.1,0.44-2.93,1.11C434.31,122.8,434.12,123.26,434.24,123.37z"/>
	<path fill="#263238" d="M454.55,123.78c0.09,1.02,0.97,1.79,2,1.74c1.01-0.02,1.82-0.85,1.8-1.86c0-0.02,0-0.03,0-0.05
		c-0.09-1.02-0.97-1.79-2-1.74c-1.01,0.01-1.81,0.83-1.8,1.84C454.55,123.74,454.55,123.76,454.55,123.78z"/>
	<path fill="#263238" d="M453.95,122.29c0.26,0.22,1.6-1,3.65-1.18s3.66,0.68,3.86,0.41s-0.19-0.55-0.89-1
		c-0.95-0.53-2.04-0.75-3.12-0.64c-1.06,0.11-2.07,0.54-2.87,1.25C454.03,121.72,453.85,122.19,453.95,122.29z"/>
	<path fill="#263238" d="M448.02,138.22c-1.11-0.23-2.25-0.32-3.39-0.27c-0.53,0-1-0.06-1.16-0.41c-0.09-0.54-0.02-1.09,0.2-1.59
		c0.37-1.31,0.76-2.69,1.16-4.14c1.6-5.88,2.7-10.7,2.46-10.77s-1.72,4.68-3.34,10.55c-0.38,1.45-0.75,2.83-1.09,4.16
		c-0.27,0.66-0.3,1.4-0.07,2.08c0.19,0.35,0.53,0.6,0.93,0.68c0.3,0.04,0.6,0.04,0.9,0C445.76,138.57,446.91,138.47,448.02,138.22z"
		/>
	<path fill="#263238" d="M452.71,116.16c0.26,0.54,2.28,0.08,4.71,0.13s4.45,0.53,4.72,0c0.12-0.25-0.27-0.74-1.11-1.2
		c-2.25-1.14-4.9-1.18-7.18-0.1C453,115.43,452.6,115.91,452.71,116.16z"/>
	<path fill="#263238" d="M433.95,117.86c0.41,0.43,1.77-0.19,3.47-0.38s3.17,0,3.45-0.51c0.12-0.25-0.15-0.7-0.82-1.08
		c-1.84-0.9-4.03-0.62-5.58,0.72C433.95,117.15,433.78,117.65,433.95,117.86z"/>
</g>
<g id="freepik--character-1--inject-2">
	<path fill="#263238" d="M71.24,211.41l53.59,134h150.42l-47.79-135.8c-0.34-0.99-1.27-1.65-2.32-1.65l-151.62,0.1
		c-1.36,0.01-2.45,1.11-2.45,2.47C71.08,210.84,71.13,211.13,71.24,211.41z"/>
	<path fill="#455A64" d="M79.49,215.07l49.21,120c0.22,0.52,0.73,0.86,1.3,0.86h137c0.76,0.01,1.39-0.6,1.4-1.36
		c0-0.16-0.02-0.32-0.08-0.47l-43.6-120c-0.21-0.55-0.73-0.91-1.32-0.91H80.79c-0.76-0.02-1.38,0.58-1.4,1.34
		C79.39,214.72,79.42,214.9,79.49,215.07z"/>
	<polygon fill="#263238" points="124.83,345.4 126.17,345.4 329.25,345.4 329.25,335.97 130.39,335.97 	"/>
	<path fill="#B78876" d="M359.95,214.9c0,0,3.75-4.87,1.22-10.48s-9.34-12-9.34-12c-2-0.51,0.64-11.81,1.79-15.56s-0.14-5.78-2.19-5
		c-1.39,0.56-5.18,11.93-6.23,15.65c-0.57,2-1.64,6-2.94,8.22c-1.08,1.81-2.32,2.38-3.57-0.46c-2.75-6.26-7.17-10.06-9-10.27
		s-2.79,2.39-1.22,3.81c1.55,1.71,2.86,3.62,3.89,5.68c0.9,1.62,1.52,3.38,1.84,5.21c0.27,1.58,0.46,3,0.61,4.26
		c0.34,3.14,0.32,6.31-0.08,9.45l-37.78,44.5l-8.22-30.13l-0.76-2.32l-32.42,12.06c-1,0.25,7,23.85,12,38.51
		c2.49,7.26,7.99,13.09,15.09,16l0,0c11.35,4.65,24.42,0.93,31.62-9l40.33-58.55l-0.87-0.59l0.82,0.37L359.95,214.9z"/>
	<path fill="#AA6550" d="M354.89,195.33c-0.06,0.38-0.17,0.75-0.32,1.1l-1.07,2.93l-1.63,4.36c-0.27,0.9-0.69,1.75-1.23,2.51
		c-0.36,0.42-0.85,0.7-1.39,0.79c-0.59,0.08-1.18-0.16-1.55-0.62c-0.35-0.43-0.56-0.96-0.58-1.52c-0.01-0.51,0.05-1.01,0.17-1.5
		c0.23-0.93,0.47-1.81,0.71-2.65c0.49-1.68,1-3.16,1.47-4.39s0.89-2.22,1.2-2.89c0.13-0.36,0.32-0.69,0.54-1
		c-0.08,0.37-0.2,0.74-0.35,1.09c-0.25,0.69-0.62,1.69-1,2.93s-0.9,2.73-1.36,4.4c-0.23,0.84-0.46,1.72-0.67,2.63
		c-0.31,0.86-0.2,1.81,0.31,2.57c0.26,0.33,0.67,0.5,1.08,0.45c0.42-0.07,0.8-0.29,1.08-0.61c0.51-0.72,0.9-1.52,1.16-2.36
		l1.74-4.28l1.22-2.87C354.54,196.03,354.7,195.67,354.89,195.33z"/>
	<path fill="#AA6550" d="M358.71,199.72c-0.04,0.35-0.14,0.68-0.28,1c-0.21,0.61-0.54,1.48-1,2.56s-0.9,2.36-1.48,3.78
		c-0.28,0.8-0.81,1.5-1.5,2c-0.39,0.27-0.86,0.41-1.34,0.4c-0.5-0.03-0.98-0.24-1.33-0.6c-0.65-0.69-0.95-1.64-0.82-2.58
		c0.09-0.81,0.25-1.61,0.49-2.39c0.36-1.31,0.81-2.6,1.34-3.85c0.45-1.06,0.87-1.9,1.17-2.48c0.13-0.31,0.31-0.6,0.52-0.86
		c0.08,0-0.53,1.33-1.35,3.48c-0.48,1.26-0.88,2.54-1.22,3.84c-0.21,0.75-0.36,1.52-0.44,2.3c-0.11,0.79,0.14,1.58,0.67,2.17
		c0.55,0.52,1.39,0.58,2,0.14c0.61-0.44,1.07-1.05,1.33-1.76l1.58-3.73c0.45-1.06,0.83-1.91,1.1-2.5
		C358.29,200.31,358.48,200,358.71,199.72z"/>
	<path fill="#AA6550" d="M360.81,204.17c-0.16,0.97-0.42,1.93-0.76,2.85c-0.27,0.88-0.57,1.9-1,3.05c-0.2,0.67-0.66,1.24-1.27,1.58
		c-0.37,0.16-0.8,0.16-1.17,0c-0.37-0.15-0.69-0.41-0.9-0.75c-0.35-0.64-0.49-1.38-0.4-2.11c0.08-1.74,0.52-3.45,1.31-5
		c0.33-0.65,0.72-1.26,1.17-1.83c0.32-0.4,0.53-0.6,0.56-0.58s-0.66,0.93-1.4,2.57c-0.42,0.96-0.73,1.97-0.93,3
		c-0.11,0.6-0.18,1.22-0.2,1.83c-0.07,0.62,0.05,1.25,0.33,1.81c0.27,0.51,0.88,0.74,1.42,0.52c0.48-0.28,0.84-0.74,1-1.28
		c0.38-1.09,0.74-2.09,1.07-3C359.96,205.92,360.35,205.03,360.81,204.17z"/>
	<path fill="#AA6550" d="M347.95,213.82c-0.09,0,0-0.79-0.1-2c-0.27-3.26-1.79-6.29-4.25-8.44c-0.94-0.82-1.62-1.21-1.58-1.28
		c0.67,0.2,1.29,0.54,1.81,1c2.7,2.09,4.32,5.29,4.39,8.7C348.27,212.49,348.18,213.18,347.95,213.82z"/>
	<path fill="#263238" d="M137.95,335.07l97.78,0.5l1.22-17.25l-76.28-33.94c-6.61,8-10.99,17.6-12.72,27.83L137.95,335.07"/>
	<path fill="#455A64" d="M184.12,301.87c-0.26,0.36-0.55,0.7-0.88,1c-0.36,0.38-0.74,0.74-1.14,1.08c-0.51,0.47-1.04,0.91-1.6,1.32
		c-0.66,0.52-1.35,1-2.07,1.43c-0.81,0.52-1.65,1-2.51,1.43c-3.97,2-8.32,3.12-12.76,3.27c-0.96,0.05-1.93,0.05-2.89,0
		c-0.84-0.04-1.67-0.13-2.5-0.26c-0.67-0.09-1.34-0.22-2-0.39c-0.52-0.1-1.02-0.23-1.52-0.4c-0.43-0.1-0.85-0.25-1.25-0.45
		c0-0.11,1.83,0.5,4.86,0.88c0.75,0.08,1.58,0.18,2.47,0.19s1.85,0,2.85,0c4.35-0.23,8.61-1.34,12.53-3.25
		c0.89-0.46,1.74-0.88,2.5-1.36c0.71-0.42,1.4-0.88,2.07-1.37C182.75,303.19,184.04,301.79,184.12,301.87z"/>
	<path fill="#455A64" d="M210.71,333.62c0.32-1.13,0.72-2.24,1.18-3.32c0.83-2.16,1.87-4.91,3-7.94s2.24-5.76,3.09-7.92
		c0.39-1.11,0.85-2.2,1.4-3.24c-0.27,1.15-0.62,2.28-1.06,3.37c-0.72,2-1.75,4.87-2.94,8s-2.32,5.89-3.18,7.89
		c-0.43,1-0.79,1.8-1.06,2.35C211.03,333.1,210.89,333.37,210.71,333.62z"/>
	<path fill="#455A64" d="M211.26,310.4c-0.56,0.26-1.02,0.7-1.31,1.25c-0.28,0.57-0.25,1.25,0.09,1.79
		c0.52,0.91,1.68,1.23,2.59,0.71c0.47-0.27,0.81-0.73,0.92-1.26c0.15-0.62-0.02-1.27-0.46-1.73c-0.44-0.43-1.01-0.71-1.62-0.8
		c0,0,0.18-0.1,0.53-0.08c0.51,0.05,0.98,0.27,1.35,0.62c0.59,0.53,0.84,1.34,0.66,2.11c-0.24,1.28-1.47,2.12-2.74,1.88
		c-0.7-0.13-1.3-0.57-1.64-1.2c-0.4-0.68-0.4-1.53,0-2.21c0.24-0.45,0.62-0.8,1.09-1C211.05,310.35,211.25,310.37,211.26,310.4z"/>
	<path fill="#587CF8" d="M277.39,189.11c0,0,14.3,42.06,13.49,43.78l-28.93,7.93L277.39,189.11z"/>
	<path opacity="0.2" enable-background="new    " d="M277.39,189.11c0,0,14.3,42.06,13.49,43.78l-28.93,7.93L277.39,189.11z"/>
	<path fill="#587CF8" d="M253.95,258.8l-9.13,38.73l-5.93,21.67l-78.25-34.82l24.84-40c0,0,13.6-55.63,32.79-65.91
		c13.95-7.48,25.8-4.88,27.57-4.88l16.67,2.31c0.37,0.05,0.73,0.11,1.09,0.18c8.89,1.75,14.92,10.06,14.46,19.1
		c-0.36,7.24-1.57,19.49-5.56,28.65C267.15,236.14,253.95,258.8,253.95,258.8z"/>
	<path fill="#FAFAFA" d="M241.79,310.51l-0.57-0.26c-0.56-0.26-1.1-0.55-1.62-0.88c-2.01-1.26-3.77-2.88-5.18-4.78
		c-2.28-3.01-3.61-6.63-3.84-10.4c-0.14-2.36,0.31-4.72,1.33-6.86c0.55-1.17,1.33-2.22,2.28-3.1c1.02-0.93,2.28-1.55,3.64-1.79
		c4.7-0.48,8.89,2.95,9.37,7.65c0,0.01,0,0.02,0,0.02c0.12,1.62-0.17,3.25-0.86,4.73c-1.44,3.14-4.2,5.47-7.54,6.35
		c-3.51,0.88-7.22,0.53-10.5-1c-3.4-1.63-6.37-4.03-8.68-7c-1.22-1.5-2.33-3.08-3.3-4.75c-1.02-1.7-1.78-3.55-2.26-5.47
		c-0.49-1.97-0.51-4.02-0.07-6c0.45-2.05,1.55-3.9,3.13-5.27c1.68-1.37,3.85-2,6-1.74c1.08,0.12,2.11,0.51,3,1.13
		c0.87,0.65,1.56,1.51,2,2.5c0.84,2.01,0.88,4.26,0.11,6.29c-0.79,1.96-2.12,3.66-3.83,4.9c-6.68,4.64-15.25,5.61-22.8,2.59
		c-3.47-1.49-6.46-3.91-8.63-7c-2.09-2.93-3.27-6.41-3.39-10c-0.05-1.73,0.23-3.45,0.82-5.07c0.57-1.59,1.56-2.99,2.87-4.06
		c1.29-1.01,2.86-1.59,4.5-1.67c1.6-0.1,3.17,0.44,4.37,1.51c1.1,1.06,1.78,2.48,1.92,4c0.16,1.43-0.06,2.88-0.62,4.21
		c-1.16,2.43-3.24,4.29-5.77,5.19c-2.2,0.83-4.53,1.26-6.88,1.26c-3.76,0.05-7.48-0.71-10.92-2.22c-2.16-0.95-4.18-2.19-6-3.7
		c-0.63-0.52-1.08-0.94-1.37-1.23s-0.44-0.45-0.44-0.45s0.17,0.13,0.48,0.41s0.76,0.69,1.39,1.19c4.79,3.8,10.76,5.82,16.87,5.71
		c2.31-0.01,4.6-0.45,6.76-1.28c1.17-0.47,2.25-1.11,3.22-1.91c1.02-0.83,1.82-1.9,2.33-3.11c0.53-1.26,0.73-2.64,0.58-4
		c-0.14-1.43-0.78-2.76-1.81-3.75c-1.12-0.98-2.59-1.48-4.08-1.38c-1.55,0.07-3.04,0.63-4.26,1.59c-1.24,1.03-2.18,2.37-2.72,3.88
		c-0.56,1.57-0.83,3.23-0.77,4.9c0.12,3.51,1.27,6.91,3.32,9.76c2.12,3.02,5.04,5.39,8.44,6.84c7.38,2.95,15.75,2,22.28-2.54
		c1.63-1.18,2.9-2.8,3.66-4.67c0.72-1.9,0.69-4.01-0.1-5.89c-0.41-0.92-1.05-1.71-1.86-2.3c-0.82-0.55-1.77-0.9-2.76-1
		c-1.99-0.22-3.99,0.37-5.55,1.63c-1.51,1.3-2.57,3.05-3,5c-0.43,1.91-0.41,3.89,0.06,5.79c0.92,3.8,3.13,7.09,5.46,10
		c2.26,2.92,5.17,5.27,8.49,6.88c3.18,1.49,6.77,1.84,10.18,1c3.21-0.84,5.88-3.07,7.26-6.09c0.67-1.4,0.96-2.96,0.84-4.51
		c-0.42-4.48-4.4-7.77-8.88-7.35c0,0-0.01,0-0.01,0c-1.29,0.23-2.49,0.81-3.47,1.69c-0.92,0.85-1.68,1.87-2.22,3
		c-0.99,2.08-1.45,4.38-1.33,6.69c0.2,3.72,1.5,7.31,3.72,10.3c1.38,1.9,3.1,3.53,5.07,4.82c0.51,0.33,1.04,0.63,1.58,0.91
		L241.79,310.51z"/>
	<path fill="#FAFAFA" d="M265.27,235.8c0,0-0.07-0.07-0.19-0.22l-0.53-0.66c-0.65-0.88-1.21-1.81-1.67-2.8
		c-1.67-3.69-2.12-7.82-1.26-11.78c0.55-2.75,1.83-5.31,3.69-7.41c0.56-0.57,1.24-1,2-1.26c0.81-0.26,1.69-0.18,2.44,0.23
		c0.75,0.42,1.34,1.07,1.7,1.85c0.35,0.79,0.53,1.64,0.53,2.5c-0.03,3.58-1.28,7.05-3.55,9.82c-1.17,1.47-2.61,2.72-4.23,3.68
		c-1.68,1.01-3.58,1.58-5.54,1.64c-1.98,0.02-3.91-0.7-5.4-2c-1.45-1.24-2.54-2.84-3.16-4.64c-0.59-1.72-0.88-3.52-0.85-5.34
		c-0.03-1.74,0.18-3.47,0.64-5.14c0.24-0.82,0.63-1.59,1.14-2.27c0.51-0.7,1.26-1.19,2.1-1.38c0.83-0.16,1.69-0.01,2.41,0.43
		c0.67,0.42,1.25,0.98,1.68,1.64c0.41,0.61,0.71,1.29,0.91,2c0.19,0.69,0.3,1.41,0.31,2.13c0.03,1.35-0.2,2.69-0.66,3.95
		c-0.8,2.17-2.12,4.11-3.84,5.65c-1.28,1.15-2.67,2.18-4.15,3.06c-1.22,0.73-2.19,1.24-2.85,1.58l-0.75,0.38
		c-0.08,0.05-0.18,0.09-0.27,0.12l0.24-0.16l0.73-0.43c0.64-0.37,1.6-0.91,2.79-1.66c1.45-0.9,2.81-1.95,4.06-3.11
		c1.66-1.53,2.92-3.43,3.69-5.55c0.44-1.23,0.64-2.52,0.61-3.82c-0.02-0.68-0.12-1.35-0.32-2c-0.18-0.68-0.47-1.33-0.86-1.92
		c-0.39-0.61-0.93-1.12-1.55-1.49c-0.62-0.38-1.36-0.52-2.08-0.37c-1.48,0.3-2.42,1.82-2.89,3.34c-0.43,1.63-0.63,3.31-0.6,5
		c-0.02,1.76,0.27,3.51,0.84,5.17c0.59,1.71,1.63,3.23,3,4.41c1.4,1.22,3.21,1.89,5.07,1.87c1.86-0.07,3.68-0.61,5.28-1.57
		c1.57-0.93,2.96-2.13,4.1-3.55c2.19-2.68,3.41-6.03,3.46-9.49c0-0.79-0.16-1.58-0.48-2.31c-0.31-0.69-0.84-1.27-1.49-1.65
		c-0.64-0.35-1.39-0.42-2.09-0.21c-0.68,0.24-1.3,0.63-1.8,1.15c-1.84,2.04-3.1,4.53-3.68,7.21c-0.5,2.2-0.6,4.48-0.28,6.71
		c0.23,1.69,0.69,3.34,1.36,4.91c0.45,0.98,0.97,1.92,1.57,2.82l0.49,0.69C265.23,235.72,265.28,235.79,265.27,235.8z"/>
	<path fill="#B78876" d="M241.32,224.03c0,0,0,35.56,8.9,38.93c24.21,9.16,53.17,7.05,63.36,6.09c1.22-0.85,2.63-1.89,4.23-3.19
		l3.37-2.81c0,0,16,3.05,15.76,3.89s-6.24,2.78-12.42,1.39c-0.69,1.3-0.2,2.92,1.1,3.61c0.12,0.07,0.25,0.12,0.38,0.17
		c4.07,2,18.49,8.09,20.78,9.47c2,1.23,3.92,3.25,1.64,3.39s-14.41-2.85-14.41-2.85s16,3.6,15.34,5.9
		c-0.44,1.59-4.87,1.93-15.19-1.5c0,0,13.13,3.06,14.38,4.6c2.83,3.46-13-0.08-13-0.08c11.07,2.58,11,2,11,3.53
		c0,1.16-2.61,1.37-8.77,0.83c-5-0.44-10.27,0.11-17.93-0.14l0,0c0,0-98.89,17.61-107.89-26.02c-4.86-23.53-4-32.21-5-47.41"/>
	<path fill="#AA6550" d="M328.83,289.65c-0.07,0.27,3.3,1.2,7.52,2.08s7.67,1.34,7.72,1.06s-3.32-1.21-7.51-2.08
		S328.95,289.37,328.83,289.65z"/>
	<path fill="#AA6550" d="M329.37,285.29c-0.07,0.28,3.46,1.47,7.88,2.67s8.08,1.94,8.15,1.66s-3.45-1.47-7.88-2.66
		S329.45,285.02,329.37,285.29z"/>
	<path fill="#AA6550" d="M329.95,280.77c-0.08,0.28,3.24,1.46,7.41,2.65s7.62,1.93,7.7,1.65s-3.24-1.46-7.41-2.65
		S330.04,280.5,329.95,280.77z"/>
	<path fill="#587CF8" d="M223.08,189.24c-6.52-0.57-12.85,2.38-16.61,7.73c-3.36,4.7-6.45,12.26-4.93,23.47
		c3,21.88,5.39,29.18,5.39,29.18l40.21-6.37l-5.5-36.7C241.64,206.55,236.79,190.62,223.08,189.24z"/>
	<path opacity="0.2" enable-background="new    " d="M223.08,189.24c-6.52-0.57-12.85,2.38-16.61,7.73
		c-3.36,4.7-6.45,12.26-4.93,23.47c3,21.88,5.39,29.18,5.39,29.18l40.21-6.37l-5.5-36.7C241.64,206.55,236.79,190.62,223.08,189.24z
		"/>
	<path fill="#AA6550" d="M324.39,263.72c-0.29-0.01-0.58-0.05-0.86-0.11c-0.56-0.09-1.4-0.26-2.45-0.41
		c-0.57,0.05-1.11,0.26-1.56,0.62c-0.58,0.39-1.13,0.82-1.65,1.29c-1.27,1.15-2.48,2.37-3.61,3.65l0,0l0,0
		c-3.11,0.91-6.34,1.41-9.58,1.46c-3.82,0.04-7.64-0.11-11.44-0.47c-9.22-0.65-17.6-1.16-23.62-2c-3-0.4-5.43-0.82-7.09-1.17
		c-0.84-0.16-1.47-0.33-1.91-0.43c-0.23-0.04-0.45-0.11-0.66-0.19c0.23,0,0.46,0.03,0.68,0.09l1.92,0.33c1.67,0.29,4.1,0.65,7.11,1
		c6,0.74,14.37,1.2,23.61,1.85c4,0.31,7.85,0.59,11.39,0.5c3.2-0.04,6.39-0.5,9.47-1.36l-0.09,0.06c1.16-1.28,2.39-2.49,3.7-3.62
		c0.54-0.47,1.11-0.9,1.72-1.28c0.5-0.38,1.1-0.6,1.73-0.62c1.08,0.2,1.88,0.4,2.44,0.52C323.9,263.51,324.15,263.6,324.39,263.72z"
		/>
	<path fill="#FAFAFA" d="M244.38,222.77c-0.1,0.04-0.2,0.07-0.31,0.09l-0.93,0.2l-1.53,0.15c-0.7,0.02-1.41-0.01-2.11-0.09
		c-3.14-0.35-6.1-1.65-8.49-3.71c-1.04-0.86-1.96-1.88-2.71-3c-0.86-1.23-1.5-2.61-1.87-4.06c-0.19-0.78-0.26-1.6-0.19-2.4
		c0.06-0.86,0.39-1.69,0.94-2.36c0.62-0.67,1.49-1.07,2.4-1.09c0.91,0,1.81,0.22,2.61,0.65c1.65,0.91,2.98,2.3,3.81,4
		c0.88,1.75,1.27,3.71,1.14,5.67c-0.12,2.05-0.85,4.02-2.11,5.64c-2.7,3.42-6.97,5.22-11.31,4.77c-4.29-0.57-8.14-2.94-10.58-6.51
		c-1.22-1.64-1.99-3.57-2.23-5.6c-0.11-1.01,0.01-2.04,0.34-3c0.34-0.93,0.89-1.76,1.62-2.43c0.7-0.67,1.59-1.12,2.55-1.28
		c0.94-0.15,1.9,0.01,2.74,0.45c1.59,0.85,2.74,2.36,3.12,4.12c0.37,1.6,0.37,3.25,0,4.85c-0.34,1.46-0.91,2.86-1.71,4.13
		c-2.43,3.91-6.79,6.21-11.39,6c-1.22-0.04-2.43-0.26-3.59-0.65c-0.4-0.13-0.8-0.29-1.17-0.49c0,0,0.41,0.16,1.21,0.39
		c1.15,0.34,2.35,0.53,3.55,0.54c1.9,0.04,3.79-0.33,5.53-1.11c2.3-1.04,4.23-2.75,5.54-4.9c0.77-1.23,1.32-2.58,1.64-4
		c0.35-1.53,0.35-3.13,0-4.66c-0.36-1.63-1.42-3.03-2.9-3.81c-0.76-0.39-1.63-0.53-2.47-0.4c-0.87,0.15-1.67,0.56-2.3,1.17
		c-0.66,0.62-1.17,1.39-1.48,2.24c-0.3,0.88-0.4,1.82-0.31,2.75c0.25,1.94,0.99,3.79,2.15,5.36c2.35,3.46,6.05,5.76,10.19,6.33
		c4.16,0.44,8.25-1.28,10.85-4.56c2.34-3.12,2.71-7.31,0.95-10.79c-0.41-0.8-0.92-1.54-1.53-2.2c-0.6-0.63-1.29-1.17-2.06-1.58
		c-0.73-0.4-1.55-0.61-2.39-0.61c-0.79,0.01-1.55,0.34-2.08,0.93c-0.5,0.6-0.79,1.34-0.85,2.11c-0.07,0.76-0.01,1.53,0.16,2.27
		c0.36,1.41,0.96,2.74,1.78,3.94c0.73,1.12,1.61,2.13,2.62,3c0.89,0.78,1.87,1.45,2.92,2c1.68,0.9,3.5,1.49,5.39,1.74
		C241.15,223.16,242.78,223.09,244.38,222.77z"/>
	<path fill="#263238" d="M223.23,111.84c-2.16-6.1-8.86-9.29-14.96-7.13c-2.4,0.85-4.46,2.46-5.87,4.59c-1.52,2.3-2.17,5-3.13,7.65
		s-2.37,5.22-4.8,6.53c-2.84,1.54-6.58,1-9.16,3c-2.88,2.15-3,6.9-0.54,9.56s6.61,3.24,10,1.91c-0.82,2.1-1.28,4.33-1.37,6.58
		c-0.07,2.3,1.01,4.47,2.88,5.81c2.05,1.1,4.52,1.05,6.53-0.12c1.97-1.17,3.66-2.76,4.95-4.65c0.32,1.59,0.88,3.12,1.65,4.55
		c0.79,1.44,2.17,2.46,3.77,2.8c2.02,0.17,3.97-0.78,5.07-2.49c1.05-1.7,1.68-3.62,1.83-5.61c0.58-4.89,0.26-9.84-0.94-14.61
		c-0.75-3.06-1.81-6.19-1.22-9.28s3.63-6,6.64-5.06"/>
	<path fill="#455A64" d="M183.81,132.93c0.15,0.11,0.33,0.19,0.51,0.24c0.51,0.18,1.02,0.33,1.55,0.45
		c4.95,1.05,10.09-0.41,13.75-3.9c1.27-1.22,2.34-2.64,3.14-4.21c0.82-1.69,1.41-3.48,1.76-5.33c0.33-1.79,0.81-3.55,1.46-5.25
		c0.62-1.54,1.66-2.87,3-3.85c2.31-1.66,5.24-2.23,8-1.55c1.86,0.48,3.58,1.41,5,2.71c1,0.92,1.46,1.56,1.52,1.51
		s-0.07-0.19-0.27-0.5c-0.3-0.44-0.63-0.85-1-1.24c-1.4-1.43-3.16-2.47-5.09-3c-2.95-0.81-6.1-0.27-8.6,1.49
		c-1.46,1.05-2.6,2.49-3.28,4.15c-0.68,1.74-1.19,3.55-1.53,5.39c-0.33,1.78-0.9,3.51-1.67,5.14c-2.08,4.08-5.88,7.02-10.36,8
		c-1.89,0.4-3.84,0.47-5.76,0.18C184.57,133.1,183.83,132.86,183.81,132.93z"/>
	<path fill="#455A64" d="M210.18,151.4c0,0,0.15-0.07,0.4-0.27c0.38-0.28,0.72-0.62,1-1c1.02-1.38,1.63-3.02,1.78-4.73
		c0.22-2.51-0.07-5.04-0.85-7.43c-0.76-2.7-1.93-5.56-2.38-8.68c-0.46-2.92,0.12-5.92,1.64-8.46c1.23-2.09,3.04-3.76,5.22-4.82
		c1.47-0.72,3.07-1.16,4.7-1.31c0.61-0.01,1.22-0.05,1.82-0.13c-0.6-0.18-1.22-0.24-1.84-0.19c-1.7,0.03-3.37,0.41-4.92,1.11
		c-2.33,1.04-4.3,2.76-5.63,4.94c-1.65,2.69-2.29,5.88-1.8,9c0.47,3.27,1.68,6.14,2.47,8.78c0.79,2.3,1.13,4.73,1,7.16
		c-0.08,1.63-0.58,3.22-1.46,4.6C210.64,150.92,210.12,151.34,210.18,151.4z"/>
	<path fill="#263238" d="M276.95,132.45c7.84-18.13-2.91-29.17-9.91-33.13c-4.17-2.36-9.13-2.86-13.91-3
		c-4.73-0.23-9.48,0.21-14.09,1.29c-4.63,1.1-8.86,3.48-12.2,6.87c-5.73,6.14-7,15.23-6.5,23.61c0.62,9.91,3.47,19.55,8.35,28.2
		c0.54,1.16,1.39,2.15,2.45,2.86c1.12,0.69,2.58,0.42,3.39-0.62"/>
	<path fill="#B78876" d="M263.51,177.72l-0.29-9.54c0,0,11.15-1.85,13.46-16.4c1.15-7.24,0.79-19.1,0.18-28.8
		c-0.53-8.47-7.83-14.91-16.3-14.38c-0.23,0.01-0.47,0.03-0.7,0.06l-25.23,2.67c-2.64,0.28-4.64,2.53-4.58,5.19l0,0l3.35,62.45
		c0.41,7.99,7,14.25,15,14.24l0,0c8.28,0.07,15.05-6.6,15.12-14.88C263.52,178.13,263.52,177.93,263.51,177.72z"/>
	<path fill="#263238" d="M274.34,131.2c0.01,1.01-0.79,1.85-1.8,1.89c-0.99,0.07-1.85-0.67-1.93-1.66c0-0.01,0-0.02,0-0.03
		c-0.01-1.01,0.79-1.84,1.8-1.88c0.99-0.08,1.85,0.66,1.93,1.64C274.34,131.18,274.34,131.19,274.34,131.2z"/>
	<path fill="#263238" d="M274.29,129.11c-0.24,0.24-1.65-0.81-3.66-0.8s-3.48,1-3.69,0.76s0.12-0.55,0.77-1
		c0.88-0.61,1.93-0.93,3-0.92c1.04,0,2.06,0.33,2.9,0.94C274.19,128.56,274.4,129,274.29,129.11z"/>
	<path fill="#263238" d="M254.22,131.72c0.01,1.01-0.79,1.85-1.8,1.89c-0.99,0.07-1.85-0.67-1.93-1.66c0-0.01,0-0.02,0-0.03
		c-0.01-1.01,0.79-1.84,1.8-1.88c0.99-0.07,1.85,0.67,1.93,1.66C254.22,131.71,254.22,131.72,254.22,131.72z"/>
	<path fill="#263238" d="M254.55,129.48c-0.23,0.24-1.65-0.8-3.65-0.8s-3.48,1-3.7,0.77s0.13-0.55,0.77-1
		c0.88-0.61,1.93-0.93,3-0.91c1.04,0,2.06,0.33,2.91,0.94C254.45,128.93,254.66,129.37,254.55,129.48z"/>
	<path fill="#263238" d="M261.84,144.37c1.06-0.33,2.15-0.53,3.26-0.59c0.51-0.05,1-0.15,1.08-0.5c0.05-0.53-0.07-1.06-0.34-1.52
		l-1.52-3.91c-2.1-5.56-3.63-10.13-3.4-10.21s2.11,4.36,4.22,9.91c0.5,1.38,1,2.68,1.45,3.93c0.32,0.62,0.41,1.32,0.27,2
		c-0.15,0.37-0.46,0.65-0.85,0.75c-0.28,0.08-0.58,0.12-0.87,0.12C264.05,144.5,262.94,144.5,261.84,144.37z"/>
	<path fill="#AA6550" d="M263.22,168.13c-6.85,0.1-13.59-1.7-19.48-5.2c0,0,4.73,10,19.29,8.63L263.22,168.13z"/>
	<path fill="#AA6550" d="M260.95,149.21c-0.78-0.98-2.01-1.49-3.25-1.35c-0.89,0.09-1.72,0.53-2.28,1.23
		c-0.55,0.68-0.61,1.64-0.16,2.39c0.66,0.74,1.71,1,2.64,0.67c0.95-0.34,1.82-0.86,2.56-1.54c0.23-0.16,0.43-0.36,0.58-0.59
		c0.15-0.23,0.15-0.52,0-0.75"/>
	<path fill="#263238" d="M255.95,145.72c0.32,0,0.33,2.16,2.19,3.7s4.19,1.31,4.21,1.62c0,0.13-0.52,0.42-1.5,0.45
		c-1.28,0.02-2.52-0.42-3.51-1.23c-0.95-0.77-1.56-1.88-1.7-3.1C255.54,146.29,255.78,145.72,255.95,145.72z"/>
	<path fill="#263238" d="M255.45,125.96c-0.19,0.55-2.2,0.29-4.55,0.58s-4.27,0.92-4.58,0.43c-0.14-0.23,0.19-0.75,1-1.27
		c1.02-0.66,2.18-1.07,3.39-1.19c1.21-0.15,2.43,0,3.57,0.42C255.1,125.28,255.54,125.72,255.45,125.96z"/>
	<path fill="#263238" d="M273.55,123.29c-0.36,0.46-1.74,0-3.4,0s-3.07,0.3-3.4-0.18c-0.14-0.23,0.08-0.68,0.7-1.12
		c0.82-0.53,1.79-0.79,2.76-0.74c0.98,0.02,1.92,0.33,2.71,0.91C273.51,122.6,273.7,123.07,273.55,123.29z"/>
	<path fill="#263238" d="M276.86,122.93c-2.54-12.4-6-7.49-9.91-13.41c-5.66,5.73-18.69,12.33-26.64,13.63
		c-0.83,0.06-1.62,0.32-2.33,0.75c-1.22,0.91-1.32,2.67-1.32,4.2c0.16,4.31-0.2,8.62-1.06,12.85c-0.87,4.25-3.04,8.13-6.21,11.09
		c-4.8-10.11-5.28-21.87-3.13-32.86c0.88-4.49,2.36-9.19,5.94-12c2.56-2,5.86-2.86,9.08-3.45c7.95-1.46,16.36-1.81,23.93,1
		s13.45,6.33,14.46,14.35"/>
	<path fill="#455A64" d="M221.88,114.22c0.51,0.36,1.05,0.66,1.63,0.89c0.64,0.32,1.31,0.59,2,0.81l1.28,0.45l1.48,0.37
		c2.44,0.58,4.93,0.91,7.44,1c6.16,0.23,12.3-0.79,18.05-3c1.3-0.58,2.56-1.05,3.66-1.68l1.6-0.86l1.42-0.91
		c0.81-0.52,1.59-1.09,2.32-1.72l0.92-0.74l0.7-0.71c0.46-0.42,0.87-0.88,1.23-1.38c-0.13-0.14-1.9,1.84-5.49,4.06l-1.41,0.85
		l-1.6,0.8c-1.09,0.6-2.34,1-3.62,1.58c-2.84,1.03-5.76,1.81-8.74,2.32c-2.98,0.48-5.99,0.69-9,0.65c-2.47-0.06-4.92-0.33-7.34-0.83
		C224.29,115.31,221.95,114.06,221.88,114.22z"/>
	<path fill="#455A64" d="M226,104.42c0.37,0.38,0.79,0.72,1.25,1c0.51,0.38,1.05,0.71,1.62,1l1.05,0.57l1.23,0.52
		c4.56,1.76,9.41,2.63,14.29,2.55c4.86,0.01,9.7-0.53,14.43-1.61c1.82-0.41,3.27-0.82,4.25-1.15c0.53-0.13,1.03-0.32,1.51-0.58
		c0-0.13-2.25,0.48-5.87,1.16c-4.72,0.9-9.51,1.36-14.32,1.36c-4.79,0.07-9.55-0.7-14.08-2.27
		C229.53,106.22,227.74,105.36,226,104.42z"/>
	<path fill="#455A64" d="M270.71,101.26c0-0.09-0.5-0.19-1.28,0c-2.07,0.61-3.57,2.42-3.78,4.57c-0.05,0.8,0.14,1.27,0.24,1.26
		s0.14-1.92,1.58-3.6S270.75,101.49,270.71,101.26z"/>
	<path fill="#263238" d="M195.55,116.93c-0.11-0.2-0.25-0.38-0.43-0.52c-0.51-0.44-1.13-0.72-1.8-0.79c-1.05-0.13-2.11,0.12-3,0.69
		c-1.24,0.79-1.93,2.22-1.77,3.68c0.19,1.75,1.24,3.3,2.79,4.13c1.85,0.86,4.03,0.64,5.66-0.59c0.89-0.62,1.61-1.44,2.09-2.41
		c0.46-1.01,0.72-2.09,0.77-3.2c0.15-2.2-0.23-4.42,0.17-6.58c0.86-4.14,3.8-7.54,7.77-9c3.26-1.11,6.85-0.67,9.74,1.2
		c1.97,1.23,3.56,2.98,4.6,5.06c0.72,1.48,0.87,2.41,1,2.39c0.01-0.23-0.02-0.45-0.08-0.67c-0.13-0.64-0.33-1.26-0.59-1.85
		c-0.97-2.21-2.56-4.09-4.58-5.41c-1.39-0.92-2.96-1.56-4.6-1.87c-1.91-0.35-3.87-0.2-5.7,0.44c-4.26,1.5-7.41,5.12-8.33,9.54
		c-0.42,2.36,0,4.6-0.16,6.68c-0.03,1-0.27,1.99-0.68,2.9c-0.41,0.85-1.04,1.59-1.81,2.14c-1.41,1.08-3.29,1.32-4.92,0.61
		c-1.37-0.72-2.31-2.06-2.52-3.59c-0.17-1.27,0.39-2.52,1.44-3.24c0.8-0.56,1.77-0.82,2.75-0.75
		C194.18,116.03,194.94,116.38,195.55,116.93z"/>
	<path fill="#263238" d="M233.76,123.49c0.49,0.11,1,0.16,1.51,0.12c1,0,2.39,0,4.14,0c4.58-0.08,9.12-0.86,13.46-2.32
		c4.39-1.53,8.22-4.33,11-8.05c0.81-1.13,1.47-2.37,1.95-3.68c0.2-0.47,0.33-0.97,0.38-1.48c-0.78,1.69-1.72,3.3-2.8,4.82
		c-2.82,3.5-6.57,6.14-10.81,7.62c-4.27,1.43-8.71,2.28-13.21,2.52C237.5,123.09,235.63,123.24,233.76,123.49z"/>
	<path fill="#263238" d="M213.11,159.03c0,0,0.05,0.59,0.69,1.38c0.95,1.1,2.31,1.77,3.77,1.84c2.16,0.06,4.25-0.73,5.83-2.2
		c1-0.86,1.63-2.06,1.78-3.37c0.16-1.49-0.59-2.93-1.9-3.65c-1.44-0.67-3.15-0.06-3.85,1.36c-0.27,0.69-0.22,1.47,0.15,2.12
		c0.31,0.6,0.82,1.08,1.43,1.37c1.1,0.46,2.34,0.48,3.46,0.06c0.95-0.33,1.8-0.88,2.49-1.61c1.01-1.02,1.66-2.35,1.85-3.77
		c0.11-0.51,0.08-1.04-0.09-1.53c-0.07,0,0,0.55-0.22,1.48c-0.3,1.3-0.97,2.49-1.94,3.41c-0.65,0.63-1.44,1.1-2.31,1.37
		c-0.95,0.34-1.99,0.3-2.91-0.09c-0.96-0.42-1.46-1.49-1.17-2.5c0.54-0.99,1.75-1.39,2.77-0.93c1,0.59,1.57,1.71,1.44,2.86
		c-0.13,1.11-0.67,2.13-1.5,2.88c-1.43,1.36-3.32,2.13-5.29,2.16c-1.33-0.02-2.6-0.55-3.56-1.47
		C213.37,159.52,213.18,159,213.11,159.03z"/>
	<path fill="#455A64" d="M296.54,335.97c0,0.14-36.3,0.26-81.07,0.26s-81.08-0.12-81.08-0.26s36.29-0.26,81.08-0.26
		S296.54,335.83,296.54,335.97z"/>
</g>
<g id="freepik--Plant--inject-2">
	<linearGradient id="SVGID_1_" gradientUnits="userSpaceOnUse" x1="79.5274" y1="295.8635" x2="96.9429" y2="295.8635">
		<stop  offset="6.425827e-07" style="stop-color:#A770EF"/>
		<stop  offset="0.3932" style="stop-color:#CF8BF3"/>
		<stop  offset="1" style="stop-color:#FDB99B"/>
	</linearGradient>
	<path fill="url(#SVGID_1_)" d="M84.17,277.92c3.51,0.57,6.64,2.56,8.66,5.49c1.98,2.92,3.27,6.25,3.76,9.74
		c1.14,6.7-0.65,14.32-3.11,20.65c-6.85-3.18-10.53-11.08-12.12-15.29C78.82,291.95,78.22,278.51,84.17,277.92"/>
	<linearGradient id="SVGID_2_" gradientUnits="userSpaceOnUse" x1="101.6847" y1="313.844" x2="119.7736" y2="313.844">
		<stop  offset="6.425827e-07" style="stop-color:#A770EF"/>
		<stop  offset="0.3932" style="stop-color:#CF8BF3"/>
		<stop  offset="1" style="stop-color:#FDB99B"/>
	</linearGradient>
	<path fill="url(#SVGID_2_)" d="M102.95,322.72c-1.86-3.55-1.66-7.83,0.51-11.2c2.21-3.3,5.65-5.58,9.55-6.33
		c1.78-0.37,3.8-0.4,5.21,0.74c1.28,1.17,1.83,2.94,1.42,4.63c-0.42,1.65-1.26,3.16-2.46,4.38
		C113.29,319.23,108.75,322.72,102.95,322.72"/>
	<path fill="#263238" d="M101.69,344.59c-0.11-0.46-0.17-0.92-0.19-1.39c-0.1-1-0.23-2.26-0.39-3.79
		c-0.55-4.19-0.42-8.44,0.39-12.59c0.88-4.16,2.85-8.02,5.71-11.17c0.88-0.93,1.87-1.76,2.94-2.46c0.29-0.19,0.59-0.37,0.9-0.53
		c0.1-0.07,0.21-0.12,0.33-0.15c-1.41,0.99-2.72,2.13-3.91,3.38c-2.73,3.15-4.61,6.93-5.49,11c-1.11,4.77-0.7,9.26-0.52,12.45
		c0.11,1.6,0.19,2.91,0.23,3.81C101.73,343.63,101.73,344.11,101.69,344.59z"/>
	<path fill="#263238" d="M85.54,288.08c0.09,0.18,0.17,0.37,0.23,0.56c0.15,0.43,0.35,1,0.59,1.64c0.49,1.43,1.19,3.51,2,6.09
		c1.67,5.15,3.88,12.29,6.15,20.24s4.15,15.19,5.44,20.44c0.65,2.63,1.15,4.76,1.48,6.24c0.16,0.7,0.28,1.26,0.37,1.7
		c0.06,0.2,0.09,0.4,0.1,0.61c-0.08-0.19-0.14-0.38-0.19-0.58l-0.46-1.68c-0.4-1.53-1-3.63-1.64-6.2
		c-1.37-5.23-3.31-12.45-5.57-20.4s-4.43-15.09-6-20.27c-0.78-2.54-1.41-4.62-1.88-6.13c-0.2-0.68-0.36-1.24-0.49-1.67
		C85.6,288.48,85.56,288.28,85.54,288.08z"/>
	<linearGradient id="SVGID_3_" gradientUnits="userSpaceOnUse" x1="69.4134" y1="322.7877" x2="94.6714" y2="322.7877">
		<stop  offset="6.425827e-07" style="stop-color:#A770EF"/>
		<stop  offset="0.3932" style="stop-color:#CF8BF3"/>
		<stop  offset="1" style="stop-color:#FDB99B"/>
	</linearGradient>
	<path fill="url(#SVGID_3_)" d="M94.62,329.36c-3.64-7.58-10.71-12.95-19-14.41c-2.08-0.35-4.63-0.23-5.74,1.56
		s-0.06,4.14,1.22,5.82c5.6,7.06,14.9,10.05,23.57,7.6"/>
	<path fill="#263238" d="M78.27,320.84c0.44,0.02,0.87,0.07,1.3,0.17c0.51,0.08,1.01,0.19,1.51,0.32c0.58,0.17,1.26,0.29,2,0.56
		c0.79,0.25,1.57,0.55,2.33,0.89c0.88,0.37,1.73,0.79,2.56,1.25c1.9,1.08,3.68,2.37,5.3,3.84c1.59,1.5,2.99,3.18,4.2,5
		c0.52,0.8,1,1.63,1.42,2.49c0.38,0.73,0.72,1.49,1,2.27c0.26,0.63,0.48,1.28,0.66,1.94c0.16,0.49,0.29,0.99,0.39,1.49
		c0.11,0.43,0.19,0.86,0.22,1.3c-0.11,0-0.44-1.83-1.59-4.6c-0.31-0.76-0.67-1.5-1.06-2.22c-0.43-0.83-0.91-1.64-1.43-2.42
		c-2.39-3.59-5.59-6.57-9.34-8.7c-0.81-0.47-1.65-0.9-2.51-1.28c-0.79-0.39-1.57-0.66-2.27-0.93
		C80.11,321.22,78.25,320.95,78.27,320.84z"/>
</g>
<g id="freepik--light-bulb--inject-2">
	<path fill="#F5F5F5" d="M327.36,18.72c-24.46-1.65-45.63,16.84-47.27,41.3c-0.48,7.19,0.79,14.38,3.7,20.97
		c5.16,11.67,15.16,20.73,19.57,32.73c3,8.18,3.26,17.2,6.35,25.35c6.35,16.76,25.74,27.42,43.29,23.81
		c10.54-2.16,20-8.75,30.76-9.42c11.52-0.72,24.64,5.14,33.77-1.94c6.38-4.95,7.46-14.45,5.15-22.18s-7.29-14.33-11.38-21.29
		s-7.42-15-5.9-22.93c1.37-7.19,6.47-13,9.67-19.59c9.49-19.49,1.39-42.98-18.1-52.47c-6.2-3.02-13.09-4.35-19.97-3.87
		c-9.16,0.65-17.75,4.47-26.56,7S337.22,19.06,327.36,18.72"/>
	<linearGradient id="SVGID_4_" gradientUnits="userSpaceOnUse" x1="324.2311" y1="79.7779" x2="375.9091" y2="79.7779">
		<stop  offset="6.425827e-07" style="stop-color:#A770EF"/>
		<stop  offset="0.3932" style="stop-color:#CF8BF3"/>
		<stop  offset="1" style="stop-color:#FDB99B"/>
	</linearGradient>
	<path fill="url(#SVGID_4_)" d="M349.33,48.11c0,0-16.95-0.17-22.78,14.56s0.85,21.84,3.46,26.17s9.62,13.75,9.68,22.63l22.77-0.15
		c1.18-7.86,3.9-15.41,8-22.22c6.81-11.34,6-19.61,4.14-24.55S366.67,47.38,349.33,48.11z"/>
	<path fill="#263238" d="M354.5,110.72l-0.06-0.36c0-0.25-0.09-0.59-0.16-1c-0.14-0.94-0.33-2.29-0.58-4
		c-0.47-3.49-1.17-8.56-1.61-14.86c-0.11-1.58-0.2-3.23-0.25-5s-0.09-3.52,0-5.38c0.08-1.94,0.53-3.85,1.33-5.62
		c0.87-1.9,2.41-3.42,4.33-4.26c2.1-0.83,4.5-0.35,6.12,1.23c0.83,0.81,1.29,1.93,1.28,3.09c-0.04,1.17-0.45,2.3-1.18,3.21
		c-0.72,0.93-1.66,1.67-2.73,2.16c-1.07,0.5-2.19,0.86-3.35,1.08c-2.35,0.47-4.73,0.72-7.12,0.76c-2.39,0.06-4.78-0.07-7.14-0.41
		c-1.17-0.18-2.3-0.52-3.38-1c-1.06-0.47-2.02-1.15-2.82-2c-0.79-0.84-1.34-1.88-1.6-3c-0.24-1.13-0.09-2.3,0.43-3.33
		c0.49-1.02,1.34-1.83,2.38-2.27c1.05-0.38,2.2-0.31,3.2,0.18c0.95,0.47,1.77,1.18,2.37,2.06c0.56,0.83,0.96,1.75,1.19,2.72
		c0.33,1.9,0.5,3.82,0.51,5.74c0.16,3.71,0.31,7.16,0.44,10.32c0.26,6.29,0.46,11.39,0.61,14.93c0.06,1.76,0.11,3.12,0.15,4.06
		c0,0.46,0,0.81,0,1.06s0,0.36,0,0.36v-0.36c0-0.25,0-0.6-0.06-1c0-0.94-0.13-2.31-0.22-4.06c-0.17-3.54-0.41-8.64-0.72-14.93
		c-0.14-3.15-0.31-6.61-0.48-10.31c-0.01-1.91-0.19-3.81-0.52-5.69c-0.21-0.97-0.59-1.88-1.13-2.71c-0.57-0.83-1.34-1.5-2.25-1.94
		c-0.92-0.46-1.99-0.52-2.95-0.17c-0.97,0.41-1.75,1.16-2.19,2.11c-0.48,0.96-0.63,2.06-0.4,3.11c0.24,1.08,0.77,2.07,1.53,2.87
		c1.61,1.63,3.73,2.66,6,2.94c2.34,0.34,4.71,0.48,7.07,0.41c2.37-0.04,4.73-0.29,7.05-0.75c1.13-0.21,2.23-0.57,3.28-1.05
		c1.01-0.45,1.91-1.14,2.61-2c0.68-0.86,1.07-1.91,1.11-3c0.01-1.07-0.41-2.11-1.18-2.86c-1.53-1.48-3.78-1.94-5.76-1.16
		c-1.85,0.81-3.33,2.26-4.18,4.09c-0.78,1.74-1.23,3.61-1.31,5.51c-0.12,1.84-0.07,3.63,0,5.35s0.13,3.37,0.22,4.94
		c0.41,6.3,1.08,11.36,1.51,14.87l0.51,4c0.05,0.45,0.09,0.8,0.12,1.05C354.52,110.54,354.51,110.63,354.5,110.72z"/>
	<polygon fill="#E0E0E0" points="339.68,111.14 362.53,110.78 362.78,125.22 356.14,133.14 347.38,133.51 339.96,124.65 	"/>
	<path fill="#455A64" d="M356.14,133.14c-1.2-1.23-2.86-1.9-4.58-1.86c-1.7,0.11-3.27,0.93-4.33,2.26L356.14,133.14z"/>
	<path fill="#263238" d="M362.17,124.03c-0.29-0.08-0.57-0.2-0.83-0.35c-0.52-0.25-1.29-0.58-2.26-0.93
		c-5.11-1.82-10.72-1.7-15.75,0.33c-0.95,0.39-1.71,0.75-2.22,1c-0.26,0.15-0.53,0.28-0.81,0.39c0.23-0.2,0.47-0.37,0.74-0.51
		c0.71-0.43,1.44-0.8,2.2-1.13c5.06-2.2,10.78-2.31,15.92-0.33c0.77,0.29,1.51,0.62,2.24,1
		C361.67,123.66,361.93,123.84,362.17,124.03z"/>
	<path fill="#263238" d="M362.2,120.53c-0.28-0.1-0.56-0.22-0.83-0.36c-0.52-0.24-1.29-0.58-2.26-0.92
		c-2.54-0.89-5.21-1.33-7.9-1.28c-2.69,0.06-5.35,0.61-7.85,1.61c-1,0.38-1.71,0.75-2.22,1c-0.25,0.16-0.53,0.29-0.81,0.39
		c0.23-0.19,0.48-0.36,0.74-0.51c0.71-0.42,1.44-0.79,2.2-1.12c5.06-2.2,10.78-2.31,15.92-0.33c0.77,0.28,1.52,0.61,2.24,1
		C361.71,120.16,361.97,120.33,362.2,120.53z"/>
	<path fill="#263238" d="M362.02,117.19c-0.28-0.09-0.56-0.2-0.82-0.35c-0.53-0.25-1.3-0.58-2.27-0.93
		c-2.54-0.89-5.21-1.33-7.9-1.28c-2.69,0.07-5.34,0.61-7.84,1.61c-1,0.39-1.71,0.75-2.22,1c-0.26,0.15-0.54,0.28-0.82,0.39
		c0.23-0.2,0.48-0.37,0.75-0.51c0.7-0.43,1.44-0.8,2.19-1.13c5.06-2.19,10.78-2.31,15.93-0.33c0.77,0.29,1.51,0.62,2.24,1
		C361.53,116.82,361.79,116.99,362.02,117.19z"/>
	<g opacity="0.2">
		<path fill="#FFFFFF" d="M336.95,88.87c-0.31,0.35-1.1,0.29-2.24-0.3c-1.56-0.89-2.93-2.09-4-3.53c-1.64-2.14-2.84-4.58-3.51-7.19
			c-1.78-6.63-0.23-13.72,4.16-19c1.7-2.09,3.8-3.82,6.19-5.07c1.57-0.86,3.3-1.39,5.09-1.54c1.27-0.06,2,0.21,2.16,0.66
			c0.29,1-1.84,2.34-4.38,4.92c-1.46,1.46-2.76,3.08-3.85,4.84c-1.29,2.06-2.22,4.31-2.76,6.68c-0.49,2.37-0.59,4.81-0.29,7.22
			c0.27,2.05,0.76,4.06,1.48,6C336.24,85.97,337.61,88.11,336.95,88.87z"/>
	</g>
	<g opacity="0.2">
		<path fill="#FFFFFF" d="M344.25,96.95c-0.19,1.76-1.76,3.03-3.52,2.84c-1.76-0.19-3.03-1.76-2.84-3.52
			c0.18-1.64,1.57-2.88,3.22-2.86C342.95,93.54,344.35,95.11,344.25,96.95z"/>
	</g>
	<path fill="#263238" d="M322,53.45c-0.06,0.07-3-2-6.48-4.68s-6.32-4.89-6.27-5s3,2,6.48,4.68S322.06,53.37,322,53.45z"/>
	<path fill="#263238" d="M326.79,47.1c-0.99-0.95-1.9-1.99-2.71-3.09c-0.91-1.03-1.72-2.13-2.45-3.29c0.99,0.95,1.9,1.98,2.72,3.09
		C325.26,44.84,326.07,45.94,326.79,47.1z"/>
	<path fill="#263238" d="M337.22,45.64c-0.09,0-1.25-3.19-2.59-7.19s-2.35-7.28-2.26-7.31s1.25,3.19,2.59,7.19
		S337.31,45.61,337.22,45.64z"/>
	<path fill="#263238" d="M350.03,42.87c-0.34-1.19-0.56-2.41-0.68-3.64c-0.23-1.22-0.34-2.45-0.33-3.69
		c0.34,1.19,0.57,2.41,0.68,3.64C349.93,40.4,350.04,41.64,350.03,42.87z"/>
	<path fill="#263238" d="M362.6,47.21c-0.1,0,0.87-3.83,2.16-8.5s2.42-8.44,2.51-8.41s-0.88,3.83-2.17,8.5S362.69,47.24,362.6,47.21
		z"/>
	<path fill="#263238" d="M373.19,52.44c0.61-1.24,1.32-2.43,2.13-3.56c0.71-1.19,1.52-2.31,2.42-3.36
		c-0.61,1.24-1.32,2.43-2.13,3.56C374.91,50.27,374.1,51.4,373.19,52.44z"/>
	<path fill="#263238" d="M389.95,50.25c0.05,0.08-2.89,2.3-6.58,5s-6.72,4.76-6.78,4.68s2.89-2.3,6.58-5S389.95,50.17,389.95,50.25z
		"/>
</g>
</svg>
