<?xml version="1.0" encoding="utf-8"?>
<!-- Generator: Adobe Illustrator 25.0.0, SVG Export Plug-In . SVG Version: 6.00 Build 0)  -->
<svg version="1.1" id="Layer_1" xmlns="http://www.w3.org/2000/svg" xmlns:xlink="http://www.w3.org/1999/xlink" x="0px" y="0px"
	 viewBox="0 0 141.51 150.75" enable-background="new 0 0 141.51 150.75" xml:space="preserve">
<g id="XMLID_1_">
	<g id="XMLID_30_">
		<path id="XMLID_35_" fill="#C68A65" d="M96.16,124.29H46.18c-3.94,0-7.14-3.2-7.14-7.14V80.03c0-3.94,3.2-7.14,7.14-7.14h49.98
			c3.94,0,7.14,3.2,7.14,7.14v37.13C103.3,121.1,100.11,124.29,96.16,124.29z"/>
		<path id="XMLID_33_" fill="#D1A184" d="M88.31,124.29H38.33c-3.94,0-7.14-3.2-7.14-7.14V80.03c0-3.94,3.2-7.14,7.14-7.14h49.98
			c3.94,0,7.14,3.2,7.14,7.14v37.13C95.45,121.1,92.25,124.29,88.31,124.29z"/>
		<path id="XMLID_32_" fill="#C68A65" d="M103.3,91.45H75.1c-3.94,0-7.14,3.2-7.14,7.14s3.2,7.14,7.14,7.14h28.2V91.45z"/>
	</g>
	<g id="XMLID_27_">
		<circle id="XMLID_29_" fill="#FFEC80" cx="80.23" cy="48.75" r="8.54"/>
		<circle id="XMLID_28_" fill="#FFEC80" cx="54.26" cy="64.33" r="8.54"/>
	</g>
	<g id="XMLID_20_">
		<path id="XMLID_26_" d="M96.16,71.1H62.05c1.58-1.81,2.54-4.18,2.54-6.77c0-5.69-4.63-10.32-10.32-10.32s-10.32,4.63-10.32,10.32
			c0,2.59,0.96,4.95,2.54,6.77h-8.14c-4.92,0-8.93,4-8.93,8.93v10.53c0,0.99,0.8,1.79,1.79,1.79s1.79-0.8,1.79-1.79V80.03
			c0-2.95,2.4-5.36,5.36-5.36h49.98c2.95,0,5.36,2.4,5.36,5.36v9.64H75.1c-4.92,0-8.93,4-8.93,8.93c0,4.92,4,8.93,8.93,8.93h18.56
			v9.64c0,2.95-2.4,5.36-5.36,5.36H38.33c-2.95,0-5.36-2.4-5.36-5.36v-10.55c0-0.99-0.8-1.79-1.79-1.79c-0.99,0-1.79,0.8-1.79,1.79
			v10.55c0,4.92,4,8.93,8.93,8.93h57.83c4.92,0,8.93-4,8.93-8.93V80.03C105.09,75.1,101.08,71.1,96.16,71.1L96.16,71.1z
			 M54.26,57.58c3.72,0,6.75,3.03,6.75,6.75c0,3.72-3.03,6.75-6.75,6.75c-3.72,0-6.75-3.03-6.75-6.75
			C47.51,60.61,50.53,57.58,54.26,57.58z M95.44,74.67h0.72c2.95,0,5.36,2.4,5.36,5.36v9.64h-4.28v-9.64
			C97.23,78.02,96.57,76.16,95.44,74.67L95.44,74.67z M69.74,98.59c0-2.95,2.4-5.36,5.36-5.36h26.42v10.71H75.1
			C72.15,103.94,69.74,101.54,69.74,98.59z M96.16,122.51h-0.72c1.12-1.49,1.79-3.35,1.79-5.36v-9.64h4.28v9.64
			C101.52,120.11,99.11,122.51,96.16,122.51z"/>
		<path id="XMLID_25_" d="M74.64,96.8c-0.47,0-0.93,0.19-1.26,0.52c-0.33,0.33-0.52,0.79-0.52,1.26s0.19,0.93,0.52,1.26
			c0.33,0.33,0.79,0.52,1.26,0.52c0.47,0,0.93-0.19,1.26-0.52c0.33-0.33,0.52-0.79,0.52-1.26s-0.19-0.93-0.52-1.26
			C75.57,97,75.11,96.8,74.64,96.8z"/>
		<path id="XMLID_24_" d="M80.23,59.07c5.69,0,10.32-4.63,10.32-10.32c0-5.69-4.63-10.32-10.32-10.32
			c-5.69,0-10.32,4.63-10.32,10.32S74.54,59.07,80.23,59.07z M80.23,41.99c3.72,0,6.75,3.03,6.75,6.75c0,3.72-3.03,6.75-6.75,6.75
			s-6.75-3.03-6.75-6.75C73.48,45.02,76.51,41.99,80.23,41.99z"/>
		<path id="XMLID_23_" d="M62.8,52.09c0.99,0,1.79-0.8,1.79-1.79V36.28c0-0.99-0.8-1.79-1.79-1.79s-1.79,0.8-1.79,1.79v14.03
			C61.01,51.29,61.81,52.09,62.8,52.09z"/>
		<path id="XMLID_22_" d="M54.23,45.92c0.99,0,1.79-0.8,1.79-1.79v-7.85c0-0.99-0.8-1.79-1.79-1.79s-1.79,0.8-1.79,1.79v7.85
			C52.44,45.12,53.24,45.92,54.23,45.92z"/>
		<path id="XMLID_21_" d="M31.19,100.37c0.47,0,0.93-0.19,1.26-0.52c0.33-0.33,0.52-0.79,0.52-1.26s-0.19-0.93-0.52-1.26
			c-0.33-0.33-0.79-0.52-1.26-0.52c-0.47,0-0.93,0.19-1.26,0.52c-0.33,0.33-0.52,0.79-0.52,1.26s0.19,0.93,0.52,1.26
			C30.26,100.18,30.72,100.37,31.19,100.37z"/>
	</g>
</g>
</svg>
