<?xml version="1.0" encoding="utf-8"?>
<!-- Generator: Adobe Illustrator 25.0.0, SVG Export Plug-In . SVG Version: 6.00 Build 0)  -->
<svg version="1.1" id="Layer_1" xmlns="http://www.w3.org/2000/svg" xmlns:xlink="http://www.w3.org/1999/xlink" x="0px" y="0px"
	 viewBox="0 0 141.51 150.75" enable-background="new 0 0 141.51 150.75" xml:space="preserve">
<g>
	<path fill="#DDDCEF" d="M36.04,36.63h65.11v88.9H36.04V36.63z"/>
	<path fill="#D7D6EA" d="M95.78,36.63h5.37v88.9h-5.37V36.63z"/>
	<path fill="#50536E" d="M36.04,36.63h65.11v14.31H36.04V36.63z"/>
	<path fill="#484B63" d="M95.78,36.63h5.37v14.31h-5.37V36.63z"/>
	<linearGradient id="SVGID_1_" gradientUnits="userSpaceOnUse" x1="40.6292" y1="43.7841" x2="44.5653" y2="43.7841">
		<stop  offset="6.425827e-07" style="stop-color:#A770EF"/>
		<stop  offset="0.5139" style="stop-color:#CF8BF3"/>
		<stop  offset="1" style="stop-color:#FDB99B"/>
	</linearGradient>
	<path fill="url(#SVGID_1_)" d="M44.57,43.78c0,1.09-0.88,1.97-1.97,1.97c-1.09,0-1.97-0.88-1.97-1.97s0.88-1.97,1.97-1.97
		C43.68,41.82,44.57,42.7,44.57,43.78z"/>
	<path fill="#FFEB99" d="M52.26,61.62l1.41,2.82c0.15,0.3,0.44,0.52,0.78,0.56l3.14,0.45c0.85,0.12,1.19,1.16,0.58,1.76l-2.27,2.2
		c-0.25,0.24-0.36,0.58-0.3,0.91l0.54,3.1c0.15,0.84-0.75,1.48-1.51,1.09l-2.81-1.47c-0.3-0.16-0.66-0.16-0.97,0l-2.81,1.47
		c-0.76,0.4-1.65-0.24-1.51-1.09l0.54-3.1c0.06-0.33-0.05-0.68-0.3-0.91l-2.27-2.2c-0.62-0.6-0.28-1.64,0.58-1.76l3.14-0.45
		c0.34-0.05,0.63-0.26,0.78-0.56l1.41-2.82C50.78,60.85,51.88,60.85,52.26,61.62z"/>
	<path fill="#FFBD54" d="M55.9,69.42c-0.25,0.24-0.36,0.58-0.3,0.91l0.54,3.1c0.15,0.84-0.75,1.48-1.51,1.09l-0.41-0.21
		c-0.2-5.49-2.77-7.54-4.02-12.28l0.2-0.4c0.38-0.77,1.48-0.77,1.86,0l1.41,2.82c0.15,0.3,0.44,0.51,0.78,0.56l3.14,0.45
		c0.85,0.12,1.19,1.16,0.58,1.76L55.9,69.42z"/>
	<path fill="#FFEB99" d="M86.79,61.62l1.41,2.82c0.15,0.3,0.44,0.52,0.78,0.56l3.14,0.45c0.85,0.12,1.19,1.16,0.58,1.76l-2.27,2.2
		c-0.25,0.24-0.36,0.58-0.3,0.91l0.54,3.1c0.15,0.84-0.75,1.48-1.51,1.09l-2.81-1.47c-0.3-0.16-0.66-0.16-0.97,0l-2.81,1.47
		c-0.76,0.4-1.65-0.24-1.51-1.09l0.54-3.1c0.06-0.33-0.05-0.68-0.3-0.91l-2.27-2.2c-0.62-0.6-0.28-1.64,0.58-1.76l3.14-0.45
		c0.34-0.05,0.63-0.26,0.78-0.56l1.41-2.82C85.3,60.85,86.4,60.85,86.79,61.62z"/>
	<path fill="#FFBD54" d="M90.42,69.42c-0.25,0.24-0.36,0.58-0.3,0.91l0.54,3.1c0.15,0.84-0.75,1.48-1.51,1.09l-0.41-0.21
		c-0.2-5.49-2.77-7.54-4.02-12.28l0.2-0.4c0.38-0.77,1.48-0.77,1.86,0l1.41,2.82c0.15,0.3,0.44,0.51,0.78,0.56l3.14,0.45
		c0.85,0.12,1.19,1.16,0.58,1.76L90.42,69.42z"/>
	<path fill="#FFEB99" d="M69.52,55.9l1.41,2.82c0.15,0.3,0.44,0.52,0.78,0.56l3.14,0.45c0.85,0.12,1.19,1.16,0.58,1.76l-2.27,2.2
		c-0.25,0.24-0.36,0.58-0.3,0.91l0.54,3.1c0.15,0.84-0.75,1.48-1.51,1.09l-2.81-1.47c-0.3-0.16-0.66-0.16-0.97,0l-2.81,1.47
		c-0.76,0.4-1.65-0.24-1.51-1.09l0.54-3.1c0.06-0.33-0.05-0.68-0.3-0.91l-2.27-2.2c-0.62-0.6-0.28-1.64,0.58-1.76l3.14-0.45
		c0.34-0.05,0.63-0.26,0.78-0.56l1.41-2.82C68.04,55.13,69.14,55.13,69.52,55.9z"/>
	<path fill="#FFBD54" d="M73.16,63.69c-0.25,0.24-0.36,0.58-0.3,0.91l0.54,3.1c0.15,0.84-0.75,1.48-1.51,1.09l-0.41-0.21
		c-0.2-5.49-2.77-7.54-4.02-12.28l0.2-0.4c0.38-0.77,1.48-0.77,1.86,0l1.41,2.82c0.15,0.3,0.44,0.51,0.78,0.56l3.14,0.45
		c0.85,0.12,1.19,1.16,0.58,1.76L73.16,63.69z"/>
	<path fill="#FFE3E7" d="M67.4,89.38c-0.29-0.23-0.51-0.54-0.63-0.9c-0.36-1.04-1.24-3.4-2.45-5.28c-0.64-1-0.97-2.18-0.97-3.38
		v-1.88c0-0.46-0.36-0.84-0.8-0.84h-0.87c-1.17,0-2.44,1-2.44,3.73v4.54c0,1.44-1.83,2.6-3.2,2.6l-6.23,0.01
		c-1.03,0-1.86,0.87-1.86,1.95c0,0.88,0.55,1.62,1.32,1.87c0.1,0.03,0.1,0.17,0,0.19c-0.66,0.18-1.67,0.66-1.67,1.84
		c0,0.91,0.6,1.68,1.4,1.89c0.12,0.03,0.14,0.19,0.04,0.26c-0.38,0.24-0.89,0.76-0.89,1.76c0,1.08,0.83,1.95,1.86,1.95h0.87
		c0.23,0,0.36,0.26,0.22,0.44c-0.2,0.26-0.38,0.65-0.38,1.21c0,0.5,0.18,0.85,0.4,1.1c0.32,0.36,0.79,0.55,1.27,0.55h14.19
		c0.93,0,1.68-0.79,1.68-1.76V91.17C68.25,90.46,67.94,89.8,67.4,89.38z"/>
	<path fill="#C0C0FF" d="M72.94,103.22h-4.01c-0.37,0-0.68-0.3-0.68-0.68V89.23c0-0.37,0.3-0.68,0.68-0.68h4.01
		c0.37,0,0.68,0.3,0.68,0.68v13.31C73.62,102.91,73.32,103.22,72.94,103.22z"/>
	<path fill="#C0C0FF" d="M76.73,89.77h9.74c1.72,0,3.11,1.39,3.11,3.11v6.29c0,1.72-1.39,3.11-3.11,3.11h-9.74
		c-1.72,0-3.11-1.39-3.11-3.11v-6.29C73.62,91.16,75.01,89.77,76.73,89.77z"/>
	<path d="M42.6,40.83c-1.63,0-2.95,1.32-2.95,2.95s1.32,2.95,2.95,2.95c1.63,0,2.95-1.32,2.95-2.95S44.22,40.83,42.6,40.83z
		 M42.6,45.3c-0.84,0-1.52-0.68-1.52-1.52c0-0.84,0.68-1.52,1.52-1.52c0.84,0,1.52,0.68,1.52,1.52C44.12,44.62,43.43,45.3,42.6,45.3
		z"/>
	<linearGradient id="SVGID_2_" gradientUnits="userSpaceOnUse" x1="48.0207" y1="43.7841" x2="51.9567" y2="43.7841">
		<stop  offset="6.425827e-07" style="stop-color:#A770EF"/>
		<stop  offset="0.5139" style="stop-color:#CF8BF3"/>
		<stop  offset="1" style="stop-color:#FDB99B"/>
	</linearGradient>
	<path fill="url(#SVGID_2_)" d="M51.96,43.78c0,1.09-0.88,1.97-1.97,1.97s-1.97-0.88-1.97-1.97s0.88-1.97,1.97-1.97
		S51.96,42.7,51.96,43.78z"/>
	<path d="M49.99,40.83c-1.63,0-2.95,1.32-2.95,2.95s1.32,2.95,2.95,2.95s2.95-1.32,2.95-2.95S51.62,40.83,49.99,40.83z M49.99,45.3
		c-0.84,0-1.52-0.68-1.52-1.52c0-0.84,0.68-1.52,1.52-1.52c0.84,0,1.52,0.68,1.52,1.52C51.51,44.62,50.83,45.3,49.99,45.3z"/>
	<linearGradient id="SVGID_3_" gradientUnits="userSpaceOnUse" x1="55.4121" y1="43.7841" x2="59.3482" y2="43.7841">
		<stop  offset="6.425827e-07" style="stop-color:#A770EF"/>
		<stop  offset="0.5139" style="stop-color:#CF8BF3"/>
		<stop  offset="1" style="stop-color:#FDB99B"/>
	</linearGradient>
	<path fill="url(#SVGID_3_)" d="M59.35,43.78c0,1.09-0.88,1.97-1.97,1.97s-1.97-0.88-1.97-1.97s0.88-1.97,1.97-1.97
		S59.35,42.7,59.35,43.78z"/>
	<path d="M57.38,40.83c-1.63,0-2.95,1.32-2.95,2.95s1.32,2.95,2.95,2.95s2.95-1.32,2.95-2.95S59.01,40.83,57.38,40.83z M57.38,45.3
		c-0.84,0-1.52-0.68-1.52-1.52c0-0.84,0.68-1.52,1.52-1.52c0.84,0,1.52,0.68,1.52,1.52C58.9,44.62,58.22,45.3,57.38,45.3z"/>
	<path d="M101.15,58.27c-0.74,0-1.34,0.6-1.34,1.34v64.57H37.38v-3.09c0-0.74-0.6-1.34-1.34-1.34s-1.34,0.6-1.34,1.34v4.43
		c0,0.74,0.6,1.34,1.34,1.34h65.11c0.74,0,1.34-0.6,1.34-1.34V59.61C102.49,58.87,101.89,58.27,101.15,58.27z"/>
	<path d="M101.15,35.29H36.04c-0.74,0-1.34,0.6-1.34,1.34v78.7c0,0.74,0.6,1.34,1.34,1.34s1.34-0.6,1.34-1.34V52.28h8.32
		c0.74,0,1.34-0.6,1.34-1.34s-0.6-1.34-1.34-1.34h-8.32V37.97h62.43V49.6H51.43c-0.74,0-1.34,0.6-1.34,1.34s0.6,1.34,1.34,1.34
		h48.37v1.57c0,0.74,0.6,1.34,1.34,1.34s1.34-0.6,1.34-1.34V36.63C102.49,35.89,101.89,35.29,101.15,35.29z"/>
	<path d="M42.95,65.75c-0.28,0.87-0.05,1.8,0.61,2.43l2.15,2.08l-0.51,2.94c-0.15,0.89,0.21,1.78,0.94,2.32
		c0.74,0.54,1.7,0.61,2.51,0.19l2.67-1.39l2.67,1.39c0.35,0.18,0.73,0.27,1.11,0.27c0.5,0,0.99-0.16,1.41-0.46
		c0.73-0.54,1.09-1.42,0.94-2.32l-0.51-2.94l2.15-2.08c0.66-0.63,0.89-1.56,0.61-2.43c-0.28-0.87-1.02-1.49-1.93-1.62L54.8,63.7
		l-1.33-2.68c-0.41-0.81-1.22-1.32-2.13-1.32s-1.73,0.51-2.13,1.32l-1.33,2.68l-2.99,0.43C43.97,64.26,43.23,64.88,42.95,65.75z
		 M48.4,66.34c0.77-0.11,1.44-0.6,1.79-1.29l1.14-2.28l1.14,2.28c0.35,0.7,1.02,1.18,1.79,1.29l2.52,0.36l-1.81,1.75
		c-0.56,0.55-0.82,1.33-0.69,2.11l0.43,2.49l-2.27-1.18c-0.69-0.36-1.52-0.36-2.21,0l-2.27,1.18l0.43-2.49
		c0.13-0.77-0.12-1.56-0.69-2.11l-1.81-1.75L48.4,66.34z"/>
	<path d="M94.23,65.75c-0.28-0.87-1.02-1.49-1.93-1.62l-2.99-0.43l-1.33-2.68c-0.4-0.81-1.22-1.32-2.13-1.32s-1.73,0.51-2.13,1.32
		l-1.33,2.68l-2.99,0.43c-0.91,0.13-1.64,0.75-1.93,1.62c-0.28,0.87-0.05,1.8,0.61,2.43l2.15,2.08l-0.51,2.94
		c-0.15,0.89,0.21,1.78,0.94,2.32c0.74,0.54,1.7,0.61,2.51,0.19l2.67-1.39l2.67,1.39c0.35,0.18,0.73,0.27,1.11,0.27
		c0.5,0,0.99-0.16,1.41-0.46c0.73-0.54,1.09-1.42,0.94-2.32l-0.51-2.94l2.15-2.08C94.28,67.55,94.51,66.62,94.23,65.75z
		 M89.49,68.45c-0.56,0.55-0.82,1.33-0.69,2.11l0.43,2.49l-2.27-1.18c-0.69-0.36-1.52-0.36-2.21,0l-2.27,1.18l0.43-2.49
		c0.13-0.77-0.12-1.56-0.69-2.11l-1.81-1.75l2.52-0.36c0.77-0.11,1.44-0.6,1.79-1.29l1.14-2.28l1.14,2.28
		c0.35,0.7,1.02,1.18,1.79,1.29l2.52,0.36L89.49,68.45z"/>
	<path d="M76.97,60.03c-0.28-0.87-1.02-1.49-1.93-1.62l-2.99-0.43l-1.33-2.68c-0.4-0.81-1.22-1.32-2.13-1.32s-1.73,0.51-2.13,1.32
		l-1.33,2.68l-2.99,0.43c-0.91,0.13-1.64,0.75-1.93,1.62c-0.28,0.87-0.05,1.8,0.61,2.43l2.15,2.08l-0.51,2.94
		c-0.15,0.89,0.21,1.78,0.94,2.32c0.74,0.54,1.7,0.61,2.51,0.19l2.67-1.39l2.67,1.39c0.35,0.18,0.73,0.27,1.11,0.27
		c0.49,0,0.99-0.16,1.41-0.46c0.73-0.54,1.09-1.42,0.94-2.32l-0.51-2.94l2.15-2.08C77.02,61.83,77.25,60.9,76.97,60.03z
		 M72.23,62.73c-0.56,0.55-0.82,1.33-0.69,2.11l0.43,2.49l-2.27-1.18c-0.69-0.36-1.52-0.36-2.21,0l-2.27,1.18l0.43-2.49
		c0.13-0.77-0.12-1.56-0.69-2.11l-1.81-1.75l2.52-0.36c0.77-0.11,1.44-0.6,1.79-1.29l1.14-2.28l1.14,2.28
		c0.35,0.7,1.02,1.18,1.79,1.29l2.52,0.36L72.23,62.73z"/>
	<path d="M57.9,80.83v4.54c0,0.53-1.08,1.26-1.86,1.26l-6.23,0.01c-1.77,0-3.21,1.48-3.21,3.3c0,0.65,0.18,1.26,0.5,1.78
		c-0.55,0.57-0.86,1.3-0.86,2.13c0,0.88,0.34,1.7,0.91,2.3c-0.21,0.42-0.36,0.95-0.36,1.61c0,1.6,1.12,2.94,2.59,3.24
		c-0.01,0.12-0.02,0.24-0.02,0.37c0,0.76,0.25,1.44,0.73,1.99c0.56,0.64,1.39,1,2.27,1h14.19c0.39,0,0.77-0.08,1.11-0.22
		c0.34,0.27,0.77,0.43,1.24,0.43h4.01c0.71,0,1.34-0.37,1.7-0.93h14.95c0.74,0,1.34-0.6,1.34-1.34V89.77c0-0.74-0.6-1.34-1.34-1.34
		H74.79c-0.31-0.72-1.02-1.22-1.85-1.22h-4.01c-0.39,0-0.76,0.12-1.07,0.31c-0.48-1.31-1.3-3.34-2.41-5.05
		c-0.5-0.77-0.76-1.69-0.76-2.66v-1.88c0-1.2-0.96-2.18-2.14-2.18h-0.87C59.8,75.76,57.9,77.32,57.9,80.83z M88.25,100.95H74.96
		v-9.84h13.29V100.95z M69.59,89.89h2.68v11.98h-2.68V89.89z M60.58,85.37v-4.54c0-1.43,0.44-2.39,1.1-2.39h0.33v1.38
		c0,1.49,0.41,2.91,1.19,4.11c1.15,1.79,2,4.08,2.31,4.99c0.21,0.6,0.58,1.13,1.07,1.52c0.21,0.17,0.34,0.44,0.34,0.74v10.08
		c0,0.23-0.15,0.42-0.34,0.42H52.39c-0.11,0-0.21-0.04-0.26-0.09c-0.02-0.03-0.06-0.07-0.06-0.21c0-0.17,0.03-0.3,0.1-0.38
		c0.38-0.49,0.45-1.14,0.18-1.7c-0.27-0.56-0.83-0.91-1.46-0.91h-0.87c-0.29,0-0.52-0.27-0.52-0.61c0-0.4,0.14-0.54,0.27-0.62
		c0.5-0.32,0.76-0.9,0.67-1.48c-0.09-0.58-0.51-1.06-1.08-1.21c-0.2-0.05-0.41-0.28-0.41-0.6c0-0.1,0-0.36,0.69-0.55
		c0.62-0.17,1.04-0.72,1.05-1.36c0.01-0.64-0.39-1.21-1-1.41c-0.19-0.06-0.38-0.27-0.38-0.59c0-0.34,0.23-0.61,0.53-0.61l6.23-0.01
		C58.14,89.32,60.58,87.59,60.58,85.37z"/>
	<path d="M89.61,111.31c0-0.74-0.6-1.34-1.34-1.34H48.92c-0.74,0-1.34,0.6-1.34,1.34c0,0.74,0.6,1.34,1.34,1.34h39.35
		C89.01,112.65,89.61,112.05,89.61,111.31z"/>
	<path d="M48.92,115.93c-0.74,0-1.34,0.6-1.34,1.34c0,0.74,0.6,1.34,1.34,1.34h10.03c0.74,0,1.34-0.6,1.34-1.34
		c0-0.74-0.6-1.34-1.34-1.34H48.92z"/>
</g>
</svg>
