<?xml version="1.0" encoding="utf-8"?>
<!-- Generator: Adobe Illustrator 25.0.0, SVG Export Plug-In . SVG Version: 6.00 Build 0)  -->
<svg version="1.1" id="Layer_1" xmlns="http://www.w3.org/2000/svg" xmlns:xlink="http://www.w3.org/1999/xlink" x="0px" y="0px"
	 viewBox="0 0 141.51 150.75" enable-background="new 0 0 141.51 150.75" xml:space="preserve">
<path fill="#E0F1FC" d="M83.76,43.41H39.64c-1.82,0-3.29,1.47-3.29,3.29v74.43c0,1.82,1.47,3.29,3.29,3.29h56.64
	c1.82,0,3.29-1.47,3.29-3.29V59.22L83.76,43.41z"/>
<path fill="#96D6F7" d="M87.09,58.7h13.14l-16.6-16.6v13.14C83.63,57.16,85.18,58.7,87.09,58.7z"/>
<rect x="55.44" y="109.67" fill="#FF97AB" width="10.54" height="14.76"/>
<rect x="89.69" y="88.69" fill="#96D6F7" width="10.54" height="35.73"/>
<rect x="72.57" y="100.22" fill="#FFEB99" width="10.54" height="24.21"/>
<rect x="106.82" y="77.79" fill="#C0C0FF" width="10.54" height="46.64"/>
<path fill="#C0C0FF" d="M58.67,70.44h13.5c0,7.45-6.04,13.5-13.5,13.5s-13.5-6.04-13.5-13.5c0-7.45,6.04-13.5,13.5-13.5L58.67,70.44
	L58.67,70.44z"/>
<path fill="#FFEB99" d="M58.67,52.42v18.02h18.02C76.69,60.49,68.62,52.42,58.67,52.42z"/>
<path d="M117.36,76.14h-10.54c-0.91,0-1.65,0.74-1.65,1.65v8.32c0,0.91,0.74,1.65,1.65,1.65s1.65-0.74,1.65-1.65v-6.67h7.25v43.35
	h-3.62h-3.62V98.45c0-0.91-0.74-1.65-1.65-1.65s-1.65,0.74-1.65,1.65v24.33h-3.29V88.69c0-0.91-0.74-1.65-1.65-1.65H89.69
	c-0.91,0-1.65,0.74-1.65,1.65v34.09h-3.29v-22.56c0-0.91-0.74-1.65-1.65-1.65H72.57c-0.91,0-1.65,0.74-1.65,1.65v22.56h-3.29v-13.11
	c0-0.91-0.74-1.65-1.65-1.65H55.44c-0.91,0-1.65,0.74-1.65,1.65v13.11H39.64c-0.91,0-1.65-0.74-1.65-1.65V46.7
	c0-0.91,0.74-1.65,1.65-1.65h42.48v10.87c0,2.72,2.22,4.94,4.94,4.94h10.87v20.25c0,0.91,0.74,1.65,1.65,1.65s1.65-0.74,1.65-1.65
	v-21.9c0-0.44-0.17-0.86-0.48-1.16L84.93,42.25c-0.31-0.31-0.73-0.48-1.16-0.48H39.64c-2.72,0-4.94,2.22-4.94,4.94v74.43
	c0,2.72,2.22,4.94,4.94,4.94h77.72c0.91,0,1.65-0.74,1.65-1.65V77.79C119,76.88,118.27,76.14,117.36,76.14z M85.41,55.93v-8.54
	l10.19,10.19h-8.54C86.15,57.57,85.41,56.83,85.41,55.93z M57.09,122.78v-11.46h7.25v11.46H57.09z M74.22,122.78v-20.91h7.25v20.91
	H74.22z M91.34,122.78V90.34h7.25v32.44H91.34z"/>
<path d="M106.82,93.62c0.43,0,0.86-0.18,1.16-0.48c0.31-0.31,0.48-0.73,0.48-1.16c0-0.43-0.18-0.86-0.48-1.16
	c-0.31-0.31-0.73-0.48-1.16-0.48c-0.43,0-0.86,0.17-1.16,0.48c-0.31,0.31-0.48,0.73-0.48,1.16c0,0.43,0.18,0.86,0.48,1.16
	C105.96,93.44,106.39,93.62,106.82,93.62z"/>
<path d="M58.67,50.78c-0.91,0-1.65,0.74-1.65,1.65v2.96c-7.58,0.82-13.5,7.26-13.5,15.06c0,8.35,6.79,15.15,15.15,15.15
	c7.79,0,14.23-5.92,15.06-13.5h2.96c0.91,0,1.65-0.74,1.65-1.65C78.33,59.6,69.51,50.78,58.67,50.78z M58.67,82.29
	c-6.54,0-11.85-5.32-11.85-11.85c0-5.98,4.45-10.93,10.21-11.74v11.74c0,0.91,0.74,1.65,1.65,1.65H70.4
	C69.6,77.85,64.64,82.29,58.67,82.29z M60.31,68.8V54.15c7.71,0.77,13.87,6.93,14.64,14.64L60.31,68.8L60.31,68.8z"/>
<path d="M78.33,91.86c0-0.91-0.74-1.65-1.65-1.65H45.23c-0.91,0-1.65,0.74-1.65,1.65c0,0.91,0.74,1.65,1.65,1.65h31.45
	C77.59,93.51,78.33,92.77,78.33,91.86z"/>
<path d="M45.23,98.16c-0.91,0-1.65,0.74-1.65,1.65c0,0.91,0.74,1.65,1.65,1.65h10.54c0.91,0,1.65-0.74,1.65-1.65
	c0-0.91-0.74-1.65-1.65-1.65H45.23z"/>
<path d="M62.86,98.65c-0.31,0.31-0.48,0.73-0.48,1.16c0,0.43,0.17,0.86,0.48,1.16c0.31,0.31,0.73,0.48,1.16,0.48
	c0.43,0,0.86-0.18,1.16-0.48c0.31-0.31,0.48-0.73,0.48-1.16c0-0.43-0.18-0.86-0.48-1.16s-0.73-0.48-1.16-0.48
	C63.58,98.16,63.16,98.34,62.86,98.65z"/>
</svg>
