<?xml version="1.0" encoding="utf-8"?>
<!-- Generator: Adobe Illustrator 25.0.0, SVG Export Plug-In . SVG Version: 6.00 Build 0)  -->
<svg version="1.1" id="Layer_1" xmlns="http://www.w3.org/2000/svg" xmlns:xlink="http://www.w3.org/1999/xlink" x="0px" y="0px"
	 viewBox="0 0 141.51 150.75" enable-background="new 0 0 141.51 150.75" xml:space="preserve">
<g>
	<g>
		<path fill="#855B51" d="M113.97,117.37V96.87c0-6.86-5.21-12.5-11.89-13.18c-0.45-0.05-0.9,0.06-1.35,0.06
			c-7.31,0-12.94,5.89-12.94,13.2l0,20.33L113.97,117.37z"/>
		<path fill="#724D44" d="M102.16,83.7c-6.64,0.71-11.81,6.34-11.81,13.17v20.35l-2.86,0.07V96.87c0-7.31,5.93-13.24,13.24-13.24
			C101.21,83.62,101.69,83.65,102.16,83.7L102.16,83.7z"/>
		<path fill="#FFE3E7" d="M104.42,124.83v-13.88l-0.55-1.62l0.55-4.76h-7.39l0.31,7.53l-0.31,2.5v10.22l3.69,0.56L104.42,124.83z"/>
		<path fill="#FBDF63" d="M96.89,112.46l-7.27,2.88l0.88,10.06h10.22l-0.53-0.59c-2.55-2.8-3.04-6.42-3.14-10.19
			C97.03,113.78,96.89,113.29,96.89,112.46L96.89,112.46z"/>
		<path fill="#FFB65F" d="M97.06,114.61l-0.02,0.01l-7.21,2.96l-0.21-2.43l7.43-3.05l0.31,1.25L97.06,114.61z"/>
		<path fill="#FBDF63" d="M112.01,115.23l-7.59-3.13c0,4.58-0.05,9.29-3.19,12.73l-0.51,0.56h12.26c0.99,0,1.79-0.8,1.79-1.79v-4.23
			C114.78,117.56,113.69,115.92,112.01,115.23z"/>
		<path fill="#F2CED2" d="M97.03,104.57L97.03,104.57c0,0,0,6.37,0,6.37c0,0,0,2.83,0.02,3.66l1.86-0.76
			c0.27-0.11,0.44-0.37,0.44-0.66v-0.79c0-0.22,0.2-0.39,0.42-0.35c0.32,0.05,0.64,0.08,0.95,0.08c1.27,0,2.52-0.43,3.7-1.16v-6.38
			L97.03,104.57L97.03,104.57z"/>
		<path fill="#FFE3E7" d="M92.79,98.47c0.02,0.64-0.23,1.14-0.1,1.8c0.98,4.75,4.83,9.53,8.03,9.53c3.7,0,8.26-6.38,8.26-11.73
			c0-3.31-1.12-6.23-3.24-7.98c-0.44-0.36-0.8-0.33-1.33-0.58c-0.17-0.08-0.36,0.01-0.41,0.19c-0.99,3.95-4.34,7.19-8.42,8.04
			l-2.57,0.45C92.89,98.21,92.79,98.47,92.79,98.47z"/>
		<path fill="#F2CED2" d="M96.13,99.5c4.72-1.02,8.53-4.84,9.62-9.41c-0.44-0.36-0.92-0.68-1.45-0.93
			c-0.17-0.08-0.36,0.01-0.41,0.19c-0.99,3.95-4.28,7.21-8.36,8.06l-2.84,0.61c-0.13,0.03-0.23,0.15-0.23,0.28v0
			c0.02,0.64,0.1,1.3,0.23,1.96L96.13,99.5z"/>
		<path fill="#9090FB" d="M58.85,116.39l-10.36-3.69c-1.95,2.25-5.33,1.99-7.28-0.26l-7.48,3.11c-1.68,0.69-2.82,2.03-2.82,3.84
			v4.05c0,0.99,0.8,1.79,1.79,1.79l0.36,0.18h8.03l3.58-0.46l3.81,0.46h6.61l3.75-0.66V116.39z"/>
		<path fill="#FFE3E7" d="M48.23,106.36h-6.77l0.03,5.38c0.64,0.74,1.07,1.61,1.94,1.86c1.76,0.51,3.76,0.01,5.06-1.49l0,0v-2.84
			L48.23,106.36z"/>
		<path fill="#72D6A1" d="M42.74,113.63l-7.79,3.53l-0.55,0.23c-0.81,0.33-1.33,1.11-1.33,1.99v6.02h-0.54
			c-0.99,0-1.79-0.8-1.79-1.79v-4.23c0-1.81,1.09-3.45,2.77-4.14l7.25-2.81C41.26,112.93,42.74,113.63,42.74,113.63L42.74,113.63z"
			/>
		<path fill="#F8F7F7" d="M56.94,115.59l-8.45,9.8H41.1l-6.15-8.24l-1.19-1.82l4.05-1.41l3.3-1.82c1.95,2.25,5.44,2.25,7.39,0v0
			L56.94,115.59z"/>
		<path fill="#F2CED2" d="M43.43,106.36H41.1v2.91v2.84v0.36l1.85,1.15c0,0,0.42-0.05,0.48-0.02v-2.99c0-0.22,0.2-0.39,0.41-0.35
			c0.32,0.05,0.64,0.08,0.96,0.08c1.24,0,2.5-0.39,3.7-1.06v-2.9H43.43z"/>
		<g>
			<path fill="#E8E8E8" d="M43.43,113.6L43.43,113.6l-8.48,3.55l-1.43-1.92l7.59-3.13C41.23,112.17,41.72,113.06,43.43,113.6z"/>
		</g>
		<path fill="#FFE3E7" d="M53.31,96.33c0-5.63-2.89-9.06-8.51-9.06s-8.51,3.43-8.51,9.06c0,1.19,0.04,2.4,0.41,3.56
			c1.4,4.35,5.04,8.11,8.1,8.11c3.04,0,6.64-3.69,8.06-7.99C53.26,98.81,53.31,97.56,53.31,96.33L53.31,96.33z"/>
		<path fill="#F2CED2" d="M49.6,88.4c-0.6,0.07-1.16,0.22-1.63,0.42l-0.01,0.02c-0.04-0.44-0.16-0.86-0.35-1.23
			c-0.85-0.22-1.79-0.34-2.82-0.34c-5.63,0-8.69,3.43-8.69,9.06c0,1.19,0.22,2.39,0.59,3.56c0.12-0.11,0.26-0.24,0.41-0.39
			c1.11-1.14,2.99-3.02,5.2-3.99c1.35-0.59,2.5-0.75,3.38-1.52c0.17-0.15,0.43-0.11,0.55,0.09c0.4,0.69,1.3,1.64,3.11,2.72
			c1.54,0.92,2.85,2.21,3.52,3.21c0.4-1.2,0.63-2.45,0.63-3.68C53.49,92.61,52.14,89.85,49.6,88.4L49.6,88.4z"/>
		<path fill="#8E868E" d="M47.99,86.69c0.64-0.28,1.42-0.65,2.26-0.65c1.29-0.01,2.68,0.38,3.71,1.43
			c3.38,3.43,1.61,8.71,0.31,11.03c-0.12,0.22-0.42,0.25-0.58,0.06c-0.65-0.74-2.25-2.42-4.4-3.79c-0.7-0.45-1.3-0.97-1.79-1.54
			c-0.57-0.66-0.75-1.52-1-2.25L47.99,86.69z"/>
		<path fill="#766D78" d="M49.89,89.4c-0.48,1.42-1.31,2.73-2.4,3.82c-0.58-0.66-1-1.38-1.25-2.1l1.73-4.62
			c0.64-0.28,1.43-0.45,2.27-0.46C50.39,87.1,50.27,88.25,49.89,89.4L49.89,89.4z"/>
		<path fill="#8E868E" d="M47.48,85.04c-0.59-0.92-1.65-1.51-2.95-1.71c-2.08-0.33-4.67,0.63-7.06,2.37
			c-4.49,3.28-3.58,9.72-2.17,12.58c0.12,0.24,0.45,0.27,0.61,0.05c0.25-0.34,0.64-0.59,1.18-1.15c1.11-1.14,2.88-2.54,5.38-3.45
			C46.99,92.09,49.01,87.44,47.48,85.04z"/>
		<path fill="#766D78" d="M44.55,83.33c-1.57,0.23-3.28,0.89-4.85,2.04c-3.9,2.85-3.65,8.5-2.6,11.81
			c-0.55,0.56-0.94,1.05-1.18,1.39c-0.16,0.22-0.49,0.19-0.61-0.05c-1.41-2.86-2.43-9.86,2.07-13.15
			C39.77,83.62,42.47,82.99,44.55,83.33z"/>
		<path fill="#F8F7F7" d="M53.81,71.16l-4.16-0.02c-0.5,0-0.99,0.2-1.35,0.55l-2.8,2.75c-0.38,0.37-0.98,0.37-1.35,0l-2.74-2.74
			c-0.36-0.36-0.85-0.56-1.36-0.56h-4.32c-1.91,0-3.45-1.55-3.45-3.45V55.59c0-1.51,0.79-2.98,2.15-3.44
			c0.35-0.12,0.73-0.19,1.13-0.19h21.99v15.9c0,0.4-0.07,0.78-0.19,1.13C56.89,70.34,55.32,71.16,53.81,71.16L53.81,71.16z"/>
		<path fill="#E8E8E8" d="M57.36,68.99c-0.47,1.35-1.75,2.33-3.26,2.33h-4.26c-0.5,0-0.99,0.2-1.35,0.55l-2.98,2.93
			c-0.37,0.37-0.98,0.37-1.35-0.01l-2.92-2.92c-0.36-0.36-0.85-0.56-1.36-0.56h-4.32c-1.91,0-3.45-1.55-3.45-3.45V55.41
			c0-1.51,0.97-2.8,2.33-3.26v15.71c0,0.62,0.5,1.13,1.13,1.13h4.32c1.13,0,2.2,0.44,3,1.24l1.46,1.46c0.28,0.28,0.73,0.28,1.01,0
			l1.51-1.48c0.79-0.78,1.86-1.22,2.98-1.22H57.36z"/>
		<g>
			<path fill="#FF6B81" d="M44.55,59c0.16,0.15,0.41,0.15,0.57,0c0.57-0.53,1.34-0.86,2.19-0.86c1.73,0.01,3.15,1.43,3.12,3.14
				c-0.03,2.26-2.44,4.19-4.09,5.25c-0.58,0.37-1.07,0.41-1.32,0.54c-0.12,0.06-0.26,0.06-0.38,0c-0.99-0.49-5.23-2.65-5.17-5.8
				c0.03-1.27,0.65-2.33,1.74-2.82c0.11-0.05,0.23-0.16,0.35-0.2c0.26-0.07,0.53-0.11,0.8-0.12C43.22,58.14,43.98,58.47,44.55,59z"
				/>
			<path fill="#F75473" d="M46.34,66.53c-0.58,0.37-1.07,0.64-1.32,0.77c-0.12,0.06-0.26,0.06-0.38,0.01
				c-0.99-0.49-5.47-2.88-5.41-6.03c0.03-1.4,1.02-2.65,2.34-3.02c-0.44,0.54-0.71,1.23-0.73,1.95
				C40.79,62.76,44.43,65.37,46.34,66.53z"/>
		</g>
		<path fill="#F8F7F7" d="M109.75,71.13h-4.26c-0.5,0-0.99,0.2-1.35,0.55l-2.8,2.93c-0.38,0.37-0.98,0.37-1.35,0l-2.74-2.92
			c-0.36-0.36-0.85-0.56-1.36-0.56h-4.32c-1.91,0-3.45-1.55-3.45-3.45l0.23-15.37l3.48-0.35h18.1c1.91,0,3.45,1.55,3.45,3.45v12.45
			c0,0.4-0.07,0.78-0.19,1.13C112.72,70.34,111.26,71.13,109.75,71.13L109.75,71.13z"/>
		<g>
			<path fill="#FF6B81" d="M100.38,59c0.16,0.15,0.41,0.15,0.57,0c0.57-0.53,1.34-0.86,2.19-0.86c1.73,0.01,3.15,1.43,3.12,3.14
				c-0.03,2.26-2.44,4.19-4.09,5.25c-0.58,0.37-1.07,0.41-1.32,0.54c-0.12,0.06-0.26,0.06-0.38,0c-0.99-0.49-5.23-2.65-5.17-5.8
				c0.03-1.27,0.65-2.33,1.74-2.82c0.11-0.05,0.23-0.16,0.35-0.2c0.26-0.07,0.53-0.11,0.8-0.12C99.05,58.14,99.81,58.47,100.38,59
				L100.38,59z"/>
			<path fill="#F75473" d="M102.17,66.53c-0.58,0.37-1.07,0.64-1.32,0.77c-0.12,0.06-0.26,0.06-0.38,0.01
				c-0.99-0.49-5.47-2.88-5.41-6.03c0.03-1.4,1.02-2.65,2.34-3.02c-0.44,0.54-0.71,1.23-0.73,1.95
				C96.62,62.76,100.26,65.37,102.17,66.53z"/>
		</g>
		<path fill="#E8E8E8" d="M105.66,68.99c-1.12,0-2.18,0.43-2.98,1.22l-1.76,1.73c-0.14,0.14-0.36,0.14-0.5,0l-1.71-1.71
			c-0.8-0.79-1.87-1.24-3-1.24h-4.32c-0.62,0-1.13-0.51-1.13-1.13V61.6c0-0.09,0.03-0.17,0.09-0.23c0.17-0.2,0.33-0.41,0.46-0.64
			c0.67-1.11,1.02-2.38,1.02-3.67v-5.1h-3.89v15.9c0,1.91,1.55,3.45,3.45,3.45h4.32c0.51,0,1,0.2,1.36,0.56l2.92,2.92
			c0.37,0.37,0.97,0.37,1.35,0.01l2.98-2.93c0.36-0.35,0.84-0.55,1.35-0.55h4.26c1.51,0,2.8-0.97,3.26-2.33L105.66,68.99
			L105.66,68.99z"/>
		<path fill="#F8F7F7" d="M84.16,61.43l-5.17,0.18c-0.82,0-1.6,0.35-2.14,0.96l-3,3.3c-0.54,0.6-1.48,0.6-2.01-0.01l-2.78-3.36
			c-0.55-0.62-1.33-0.98-2.16-0.98l-5.93,0.33c-2.65,0-4.8-2.15-4.8-4.8V41.29c0-1.74,0.93-3.27,2.33-4.11
			c0.72-0.43,1.57-0.69,2.47-0.69h23.74c2.65,0,4.8,2.15,4.8,4.8v15.77c0,0.9-0.25,1.75-0.68,2.47
			C87.98,60.92,85.91,61.43,84.16,61.43L84.16,61.43z"/>
		<path fill="#E8E8E8" d="M88.82,59.53c-0.84,1.39-2.37,2.33-4.11,2.33h-5.72c-0.82,0-1.6,0.35-2.15,0.96l-2.99,3.35
			c-0.54,0.6-1.48,0.6-2.01-0.01l-2.92-3.32c-0.55-0.62-1.33-0.98-2.16-0.98h-5.78c-2.65,0-4.8-2.15-4.8-4.8V41.29
			c0-1.74,0.93-3.27,2.33-4.11v19.88c0,1.36,1.11,2.47,2.47,2.47h5.78c1.5,0,2.92,0.64,3.91,1.77l1.79,2.04
			c0.21,0.24,0.59,0.24,0.8,0l1.85-2.07c0.99-1.1,2.4-1.73,3.88-1.73H88.82z"/>
		<path fill="#FF6B81" d="M72.41,44.33c0.24,0.23,0.63,0.22,0.87-0.01c0.88-0.82,2.06-1.32,3.36-1.31c2.66,0.01,4.83,2.19,4.79,4.82
			c-0.05,3.63-4.11,6.72-6.63,8.28c-0.73,0.46-1.28,0.58-1.62,0.76c-0.18,0.09-0.4,0.1-0.58,0.01c-1.51-0.75-8.12-3.93-8.02-8.77
			c0.04-2.08,1.13-4.2,3.04-4.85c0.46-0.15,0.94-0.24,1.45-0.24C70.37,43,71.54,43.51,72.41,44.33L72.41,44.33z"/>
		<path fill="#F75473" d="M74.8,56.11c-0.73,0.46-1.34,0.78-1.67,0.96c-0.18,0.09-0.4,0.1-0.58,0.01c-1.51-0.75-8.4-4.41-8.3-9.25
			c0.04-2.08,1.46-3.93,3.38-4.57c-0.85,0.87-1.38,2.06-1.41,3.32C66.13,50.71,72.12,54.6,74.8,56.11z"/>
		<path fill="#FFE3E7" d="M77.46,99.17h-9.31l0.44,6.21l-0.44,3.28l0,0c0.42,0.48,0.71,1.06,1.24,1.4c1.99,1.32,4.77,1.43,6.74,0.25
			c0.54-0.33,0.89-1.15,1.33-1.65l0,0v-3.94l-0.38-0.62L77.46,99.17z"/>
		<path fill="#96D6F7" d="M87.18,112.67l-4.87-2.01l-4.85-1.47c-2.46,2.83-6.86,3.09-9.31,0.26l-9.36,3.23
			c-2.01,0.83-3.33,2.79-3.33,4.97l0.18,7.4l1.79,0.36h11.75l3.8-0.86l3.37,0.86H90.5v-7.76C90.5,115.46,89.19,113.49,87.18,112.67z
			"/>
		<path fill="#F2CED2" d="M70.47,99.17h-2.33v5.55v3.94c0.29,0.34,0.16,0.91,0.5,1.16c0.39,0.29,1.25,0.26,1.68,0.45h0l0-4.41
			c0-0.23,0.21-0.4,0.44-0.35c0.65,0.15,1.37,0.31,2.03,0.31c1.7,0,3.26-0.4,4.66-1.1v-5.55L70.47,99.17L70.47,99.17z"/>
		<path fill="#70C0E0" d="M70.13,110.27l-5.38,2.3l-5.43,2.24c-1.15,0.47-1.89,1.58-1.89,2.82v7.76H55.1v-7.76
			c0-2.18,1.31-4.14,3.33-4.97l4.85-2l2.21-0.68l2.57-1.15C68.68,109.55,69.32,109.92,70.13,110.27L70.13,110.27z"/>
		<path fill="#F8F7F7" d="M82.31,110.66c-0.12,0.14-0.19,0.23-0.2,0.23c-3.39,4.03-5.4,9.04-5.75,14.3v0.2h-7.17v-0.13
			c-0.28-4.57-1.83-8.96-4.43-12.68c-0.44-0.63-0.71-1.19-1.22-1.78l-0.05-0.07l4.67-1.88c0.62,0.72,1.38,1.08,2.19,1.43
			c2.38,1.04,5.29,0.5,7.12-1.61l0,0L82.31,110.66z"/>
		<path fill="#E8E8E8" d="M70.33,110.27l-5.59,2.3c-0.44-0.63-0.92-1.25-1.42-1.84l-0.05-0.07l4.88-2.01
			c0.43,0.5,0.92,0.91,1.45,1.23c0.05,0.03,0.1,0.06,0.14,0.09C69.93,110.09,70.13,110.18,70.33,110.27L70.33,110.27z"/>
		<path fill="#FFE3E7" d="M82.93,88.66c0-6.74-3.39-12.14-10.13-12.14s-9.79,5.45-9.79,12.18c0,1.12-0.51,2.3-0.31,3.45
			c1.01,5.76,4.49,11.33,10.11,11.33c5.98,0,9.54-6.32,10.27-12.45C83.16,90.26,82.93,89.42,82.93,88.66L82.93,88.66z"/>
		<path fill="#F2CED2" d="M83.21,88.73c0-4.93-1.97-9.17-5.66-11.09c-0.12,0.15-0.36,0.05-0.32-0.16c-1.28-0.61-2.77-0.95-4.44-0.95
			c-6.74,0-10.41,5.46-10.41,12.2c0,1.12,0.1,2.29,0.3,3.44c0.16-0.21,0.37-0.36,0.58-0.55c1.76-1.66,4.29-1.72,4.56-3.45
			c0.03-0.22,0.24-0.36,0.45-0.3c2,0.56,5.26-0.71,6.35-2.92c0.11-0.21,0.38-0.26,0.56-0.11c1.02,0.89,2.36,0.87,2.94,0.81
			c0.17-0.02,0.32,0.08,0.38,0.24c1.01,2.96,3.79,1.87,4.56,5.16C83.16,90.26,83.21,89.49,83.21,88.73L83.21,88.73z"/>
		<g>
			<path fill="#855B51" d="M84.13,79.56c-0.09-0.03-0.27-0.06-0.41-0.09c-0.11-0.02-0.18-0.14-0.13-0.25
				c0.27-0.58,0.4-1.24,0.34-1.94c-0.16-1.79-1.61-3.24-3.4-3.4c-1.16-0.1-2.23,0.33-2.98,1.08c-0.1,0.1-0.27,0.05-0.3-0.09
				c-0.41-2.1-2.26-3.68-4.48-3.68c-1.09,0-2.08,0.38-2.86,1.01c-0.08,0.06-0.19,0.05-0.25-0.03c-0.69-0.82-1.72-1.35-2.88-1.35
				c-1.9,0-3.48,1.42-3.72,3.25c-0.01,0.09-0.08,0.15-0.17,0.16c-0.42,0.02-0.83,0.1-1.22,0.21c-2.22,0.66-3.6,2.81-3.6,5.24
				c0,1.38,0.51,2.43,1.37,3.38c0.03,0.03,0.05,0.08,0.04,0.13c-0.02,0.36-0.13,2.07,0.17,3.63c0.54,2.86,2.74,3.65,2.74,3.65
				c0-0.84,0.41-1.17,0.88-1.56c1.09-0.9,2.98-1.07,3.46-2.73c0.02-0.09,0.11-0.14,0.2-0.13c0.29,0.05,0.9,0.15,1.27,0.15
				c2.74,0,5.08-1.72,6.01-4.13c0.05-0.12,0.21-0.15,0.3-0.04c0.8,1.02,2.05,1.67,3.44,1.67c0.41,0,0.81-0.06,1.19-0.16
				c0.09-0.03,0.19,0.03,0.22,0.12c1.1,3.59,3.84,2.43,3.84,5.78c1.8-0.81,2.87-3.59,3.39-5.43C87.12,82.07,85.99,80.1,84.13,79.56
				L84.13,79.56z"/>
		</g>
		<g>
			<path fill="#724D44" d="M63.27,88.93c-0.47,0.39-0.78,0.93-0.78,1.78c0,0-2.52-0.91-3.06-3.77c-0.29-1.57-0.21-3.25-0.19-3.62
				c0-0.05-0.01-0.09-0.04-0.13c-0.86-0.95-1.38-2.21-1.38-3.59c0-2.43,1.62-4.49,3.84-5.14c-1.15,0.98-1.87,2.44-1.87,4.07
				c0,1.38,0.52,2.64,1.38,3.59c0.03,0.03,0.05,0.08,0.04,0.13c-0.02,0.36-0.11,2.05,0.19,3.62C61.69,87.39,62.54,88.36,63.27,88.93
				L63.27,88.93z"/>
		</g>
	</g>
	<g>
		<g>
			<path d="M99.88,68.51c0.24,0.12,0.51,0.18,0.78,0.18c0.28,0,0.56-0.07,0.81-0.2c1.43-0.74,6.08-3.46,6.13-7.19
				c0.08-2.24-1.96-4.54-4.47-4.5c-0.88,0-1.74,0.25-2.46,0.72c-0.72-0.47-1.56-0.72-2.44-0.72c-2.33-0.02-4.45,2.02-4.51,4.45
				C93.64,65.13,98.41,67.79,99.88,68.51L99.88,68.51z M98.21,59.49h0.01c0.46,0,0.89,0.18,1.23,0.49c0,0,0,0,0,0
				c0.67,0.63,1.73,0.63,2.4,0c0.34-0.32,0.79-0.5,1.26-0.5c0.72,0.01,1.75,0.58,1.79,1.78c-0.03,1.77-2.53,3.64-4.27,4.63
				c-1.76-0.95-4.28-2.78-4.24-4.58C96.42,60.34,97.27,59.49,98.21,59.49L98.21,59.49z"/>
			<path d="M44.04,68.51c0.24,0.12,0.51,0.18,0.78,0.18c0.28,0,0.56-0.07,0.81-0.2c1.43-0.74,6.08-3.46,6.13-7.19
				c0.08-2.24-1.96-4.54-4.47-4.5c-0.88,0-1.74,0.25-2.46,0.72c-0.73-0.48-1.59-0.73-2.47-0.72c-2.42,0.02-4.43,2.02-4.47,4.45
				C37.81,65.13,42.58,67.79,44.04,68.51L44.04,68.51z M42.38,59.49h0.01c0.46,0,0.89,0.18,1.23,0.49c0,0,0,0,0,0
				c0.67,0.63,1.73,0.63,2.4,0c0.34-0.32,0.79-0.5,1.26-0.5c0.72,0.01,1.75,0.58,1.79,1.78c-0.03,1.77-2.53,3.64-4.28,4.63
				c-1.76-0.95-4.28-2.78-4.24-4.58C40.59,60.34,41.43,59.49,42.38,59.49z"/>
			<path d="M35.56,72.65h4.32c0.15,0,0.3,0.06,0.41,0.17l2.92,2.92c0.45,0.45,1.04,0.67,1.63,0.67c0.58,0,1.17-0.22,1.61-0.66
				l2.98-2.93c0.11-0.11,0.25-0.17,0.4-0.17h4.26c2.64,0,4.8-2.15,4.8-4.8v-5.03c0.65,0.24,1.35,0.36,2.08,0.36h5.78
				c0.44,0,0.86,0.19,1.15,0.52l2.92,3.32c0.51,0.58,1.24,0.91,2,0.91h0.01c0.76,0,1.49-0.33,2-0.89l2.99-3.35
				c0.29-0.33,0.71-0.51,1.14-0.51h5.72c0.66,0,1.29-0.11,1.89-0.3v4.96c0,2.64,2.15,4.8,4.8,4.8h4.32c0.15,0,0.3,0.06,0.41,0.17
				l2.92,2.92c0.45,0.45,1.04,0.67,1.63,0.67c0.58,0,1.17-0.22,1.61-0.66l2.98-2.93c0.11-0.11,0.25-0.17,0.4-0.17h4.26
				c2.64,0,4.8-2.15,4.8-4.8V55.41c0-2.64-2.15-4.8-4.8-4.8H90.85v-9.33c0-3.38-2.75-6.14-6.14-6.14H73.78
				c-0.74,0-1.34,0.6-1.34,1.34s0.6,1.34,1.34,1.34h10.93c1.9,0,3.45,1.55,3.45,3.45v15.77c0,1.91-1.55,3.46-3.45,3.46h-5.72
				c-1.2,0-2.35,0.51-3.14,1.41l-3,3.35l-2.92-3.32c-0.8-0.91-1.96-1.43-3.17-1.43h-5.78c-1.91,0-3.46-1.55-3.46-3.46V41.29
				c0-1.9,1.55-3.45,3.46-3.45h6.55c0.74,0,1.34-0.6,1.34-1.34s-0.6-1.34-1.34-1.34h-6.55c-3.38,0-6.14,2.75-6.14,6.14v9.33H35.56
				c-2.64,0-4.8,2.15-4.8,4.8v12.45C30.77,70.5,32.92,72.65,35.56,72.65z M109.93,53.3c1.16,0,2.11,0.95,2.11,2.11v12.45
				c0,1.16-0.95,2.11-2.11,2.11h-4.26c-0.86,0-1.67,0.33-2.29,0.94l-2.71,2.66l-2.65-2.65c-0.62-0.61-1.43-0.95-2.3-0.95h-4.32
				c-1.16,0-2.11-0.95-2.11-2.11v-6.72c0.97-1.09,1.56-2.52,1.56-4.09V53.3L109.93,53.3L109.93,53.3z M33.45,55.41
				c0-1.16,0.95-2.11,2.11-2.11h19.27v3.76c0,1.46,0.52,2.81,1.37,3.86v6.94c0,1.16-0.95,2.11-2.11,2.11h-4.26
				c-0.86,0-1.67,0.33-2.29,0.94l-2.71,2.66l-2.65-2.65c-0.62-0.61-1.43-0.95-2.3-0.95h-4.32c-1.16,0-2.11-0.95-2.11-2.11
				L33.45,55.41L33.45,55.41z"/>
			<path d="M62.91,47.8c-0.11,5.52,6.9,9.42,9.05,10.48c0.28,0.14,0.58,0.2,0.88,0.2c0.32,0,0.63-0.07,0.92-0.22
				c2.1-1.09,8.95-5.08,9.02-10.41c0.11-3.13-2.75-6.25-6.15-6.18c-1.38,0-2.7,0.45-3.78,1.27c-1.09-0.83-2.4-1.28-3.78-1.27
				C65.74,41.69,62.98,44.44,62.91,47.8L62.91,47.8z M69.08,44.35c0.01,0,0.02,0,0.02,0c0.88,0,1.73,0.34,2.38,0.95v0
				c0.76,0.71,1.95,0.71,2.71,0c0.66-0.61,1.52-0.95,2.43-0.95c1.65-0.03,3.51,1.46,3.47,3.46c-0.04,2.97-3.87,6.07-7.27,7.9
				c-3.45-1.77-7.29-4.81-7.23-7.86C65.63,45.97,67.23,44.37,69.08,44.35z"/>
			<path d="M115.31,116.41V96.87c0-8.04-6.54-14.59-14.59-14.59c-2.31,0-4.61,0.55-6.66,1.6c-0.66,0.34-0.92,1.15-0.58,1.81
				c0.34,0.66,1.15,0.92,1.81,0.58c1.69-0.87,3.52-1.31,5.43-1.31c6.56,0,11.9,5.34,11.9,11.9v17.17c-0.04-0.02-0.07-0.03-0.11-0.05
				h0l-6.76-2.78v-2.62c2.58-2.58,4.57-6.71,4.57-10.52c0-4.9-2.18-8.75-5.83-10.3c-0.33-0.14-0.71-0.14-1.04,0
				c-0.23,0.11-0.65,0.36-0.79,0.95c-0.81,3.69-3.72,6.59-7.41,7.38l-3.07,0.66c-0.52,0.1-1.05,0.72-1.06,1.58
				c0.09,3.77,2.04,7.76,4.57,10.26v2.61l-5.34,2.2c-0.43-0.53-0.94-1-1.53-1.38V96.87c0-2.46,0.74-4.82,2.15-6.82
				c0.43-0.61,0.28-1.44-0.33-1.87c-0.61-0.43-1.44-0.28-1.87,0.33c-1.72,2.46-2.64,5.35-2.64,8.36v13.92l-7.34-3.03v-5.1
				c3.36-2.72,5.35-7.62,5.72-12.44c1.76-1.26,2.79-3.81,3.35-5.86c0.39-1.4,0.15-2.89-0.65-4.1c-0.51-0.76-1.21-1.36-2.02-1.73
				c0.08-0.45,0.1-0.91,0.06-1.37c-0.22-2.46-2.16-4.4-4.62-4.62c-0.92-0.08-1.83,0.09-2.64,0.47c-0.99-1.9-2.98-3.18-5.24-3.18
				c-1,0-1.98,0.25-2.84,0.73c-0.89-0.7-1.98-1.09-3.15-1.09c-2.26,0-4.19,1.45-4.85,3.52c-3.12,0.59-5.44,3.3-5.44,6.59
				c0,1.5,0.49,2.93,1.4,4.11c-0.02,0.75-0.02,2.14,0.23,3.47c0.47,2.5,2.13,3.82,3.13,4.4c0.12,0.88,0.29,1.75,0.51,2.6
				c0.16,0.51,0.81,1.18,1.64,0.96c0.72-0.19,1.15-0.92,0.96-1.64c-0.24-0.91-0.41-1.85-0.51-2.79c-0.06-0.52,0.13-0.75,1.31-1.32
				c0.8-0.38,1.81-0.87,2.44-1.87c2.67,0.3,5.66-1.19,7.11-3.47c0.91,0.6,2.3,1.13,3.73,0.99c0.68,1.46,1.65,2.13,2.39,2.64
				c0.8,0.55,1.05,0.72,1.05,1.73c-0.28,6.27-3.75,12.74-9.08,12.74c-2.95,0-4.93-1.87-6.07-3.45c-0.44-0.6-1.27-0.73-1.87-0.3
				c-0.6,0.44-0.73,1.27-0.3,1.87c0.68,0.94,1.44,1.74,2.25,2.4v5.08c-2.21,0.91-6.72,2.77-8.89,3.66
				c-1.08,0.44-1.99,1.14-2.68,2.01l-5.4-2.22v-4.12c1.89-1.68,3.5-4.13,4.36-6.82c0.38-0.06,0.73-0.27,0.94-0.6
				c1.39-2.18,4.07-8.79-0.22-13.13c-1.69-1.71-4.06-2.07-6.02-1.69c-0.08-0.18-0.18-0.35-0.28-0.52c-1.81-2.83-6.49-3.23-10.66-0.9
				c-0.65,0.36-0.88,1.18-0.52,1.83c0.36,0.65,1.18,0.88,1.83,0.52c3.12-1.74,6.19-1.4,7.09,0.01c0.37,0.58,0.4,1.48,0.07,2.46
				c-0.49,1.46-1.91,3.34-4.39,4.24c-2.87,1.04-4.85,2.68-6.06,3.97c-0.5-1.77-0.8-4.3-0.1-6.59c0.21-0.71-0.19-1.46-0.9-1.67
				c-0.71-0.21-1.46,0.19-1.67,0.9c-1.24,4.11-0.03,8.81,1.18,10.7c0.22,0.34,0.58,0.56,0.97,0.61c0.86,2.64,2.46,5.04,4.32,6.7
				v4.14c-0.12,0.05-6.7,2.75-6.83,2.82c-2.14,0.92-3.53,3.01-3.53,5.34v4.23c0,1.73,1.41,3.13,3.13,3.13h80.46
				c1.73,0,3.13-1.4,3.13-3.13v-4.23C116.12,118.3,115.83,117.29,115.31,116.41L115.31,116.41z M80.6,83.14
				c-0.1-0.35-0.34-0.65-0.66-0.82c-0.32-0.17-0.7-0.21-1.05-0.09c-0.3,0.1-0.62,0.15-0.94,0.15c-1.01,0-1.95-0.5-2.52-1.34
				c-0.29-0.42-0.79-0.65-1.3-0.58c-0.51,0.07-0.93,0.42-1.09,0.91c-0.69,2.1-2.63,3.51-4.84,3.51c-0.25,0-0.85-0.09-1.18-0.16
				c-0.71-0.14-1.41,0.32-1.56,1.03c-0.12,0.53-0.51,0.76-1.46,1.22c-0.71,0.34-1.64,0.79-2.25,1.64c-0.42-0.43-0.83-1.05-0.99-1.92
				c-0.29-1.56-0.16-3.32-0.16-3.34c0.03-0.37-0.1-0.74-0.35-1.02c-0.69-0.75-1.07-1.72-1.07-2.73c0-2.19,1.71-3.96,3.9-4.02
				c0.68-0.02,1.23-0.54,1.3-1.22c0.12-1.25,1.15-2.19,2.4-2.19c0.76,0,1.46,0.35,1.92,0.96c0.23,0.3,0.56,0.49,0.93,0.52
				c0.37,0.04,0.74-0.08,1.02-0.33c0.59-0.51,1.34-0.8,2.12-0.8c1.64,0,3.01,1.23,3.2,2.85c0.06,0.53,0.43,0.98,0.95,1.13
				c0.52,0.15,1.07-0.02,1.42-0.43c0.51-0.62,1.27-0.94,2.08-0.87c1.14,0.1,2.08,1.04,2.18,2.18c0.04,0.49-0.06,0.96-0.29,1.38
				c-0.22,0.39-0.22,0.87-0.01,1.27c0.21,0.4,0.6,0.67,1.05,0.71c0.59,0.05,1.18,0.34,1.65,0.99c0.37,0.56,0.48,1.24,0.3,1.89
				c-0.38,1.36-0.85,2.49-1.36,3.3c-0.45-0.71-1.06-1.13-1.57-1.48C81.59,84.93,80.98,84.52,80.6,83.14L80.6,83.14z M95.81,98.73
				c4.13-0.88,7.49-3.82,8.96-7.7c1.82,1.42,2.88,3.95,2.88,7.05c0,4.81-4.19,10.38-6.92,10.38c-2.53,0-6.32-4.74-6.86-9.31
				L95.81,98.73z M70.42,124.05c-0.49-4.62-2.23-9.08-4.99-12.82l2.41-0.99c1.36,1.21,3.13,1.89,4.97,1.89h0
				c1.85,0,3.62-0.68,4.97-1.89l2.37,0.98c-2.78,3.73-4.53,8.2-5.04,12.83H70.42z M82.71,112.28l3.95,1.63
				c1.52,0.62,2.49,2.09,2.49,3.73v6.42H77.81C78.33,119.77,80.04,115.66,82.71,112.28z M72.8,104.84c1.19,0,2.29-0.22,3.32-0.61
				v3.89c-0.89,0.84-2.07,1.32-3.31,1.32c0,0,0,0,0,0c-1.24,0-2.43-0.48-3.31-1.32v-3.89C70.54,104.63,71.64,104.84,72.8,104.84
				L72.8,104.84z M53.76,124.05h-2.34l2.34-2.72V124.05z M53.78,117.2l-5.9,6.85h-6.1l-6.15-8.23l5.17-2.13
				c1.11,0.93,2.53,1.46,4,1.46h0c1.47,0,2.89-0.52,4-1.46l5.21,2.15C53.89,116.27,53.81,116.73,53.78,117.2L53.78,117.2z M53,88.41
				c2.34,2.36,1.6,5.95,0.68,8.2c-0.88-0.87-2.14-1.99-3.67-2.97c-0.96-0.62-1.74-1.43-2.21-2.3c0.49-0.7,0.89-1.45,1.16-2.25
				c0.18-0.54,0.29-1.07,0.34-1.59C50.41,87.26,51.96,87.35,53,88.41L53,88.41z M37.7,98.5c0.95-1.06,2.65-2.57,5.24-3.51
				c1.08-0.39,2.08-0.96,2.95-1.64c0.67,0.98,1.58,1.85,2.67,2.55c1.38,0.89,2.54,1.92,3.31,2.7c-1.03,4.4-4.64,8.07-7.07,8.07
				C42.36,106.67,38.71,102.94,37.7,98.5L37.7,98.5z M44.8,109.35c0.77,0,1.57-0.18,2.36-0.52v2.73c-0.65,0.57-1.48,0.89-2.35,0.89
				c0,0,0,0,0,0c-0.87,0-1.71-0.32-2.35-0.89v-2.73C43.23,109.16,44.02,109.35,44.8,109.35L44.8,109.35z M32.09,123.6v-4.23
				c0-0.93,0.4-1.78,1.08-2.37l5.26,7.04h-5.89C32.29,124.05,32.09,123.85,32.09,123.6z M56.44,117.63c0-1.64,0.98-3.1,2.49-3.73
				l3.92-1.62c2.66,3.38,4.35,7.49,4.86,11.76H56.44L56.44,117.63L56.44,117.63z M91.85,124.05v-6.42c0-0.63-0.09-1.25-0.26-1.83
				l4.11-1.69c0.05,3.38,0.37,6.93,2.25,9.94H91.85z M98.37,112.1v-1.55c0.78,0.37,1.58,0.58,2.35,0.58c0.78,0,1.57-0.21,2.36-0.58
				c0,0,0,1.42,0,1.56c0,4.03,0,8.18-2.35,11.24C98.37,120.3,98.37,116.14,98.37,112.1C98.37,112.11,98.37,112.11,98.37,112.1
				L98.37,112.1z M113.44,123.6c0,0.25-0.2,0.45-0.45,0.45h-9.48c1.88-3.01,2.19-6.56,2.25-9.94l5.74,2.37h0
				c1.18,0.49,1.94,1.62,1.94,2.9V123.6z"/>
		</g>
	</g>
</g>
</svg>
