<?xml version="1.0" encoding="utf-8"?>
<!-- Generator: Adobe Illustrator 25.0.0, SVG Export Plug-In . SVG Version: 6.00 Build 0)  -->
<svg version="1.1" id="Layer_1" xmlns="http://www.w3.org/2000/svg" xmlns:xlink="http://www.w3.org/1999/xlink" x="0px" y="0px"
	 viewBox="0 0 141.51 150.75" enable-background="new 0 0 141.51 150.75" xml:space="preserve">
<path fill="#FF97AB" d="M102.39,66.96c-0.02-0.84-0.06-1.63-0.1-2.62c-0.16-3.53-0.73-5.96-1.54-8.07c-0.85-2.23-2.14-4.23-3.85-5.9
	c-1.66-1.69-3.68-3-5.88-3.83c-0.95-0.36-1.95-0.68-3.09-0.93c-1.41-0.31-3.02-0.53-4.98-0.61c-3.56-0.17-4.69-0.21-13.71-0.21
	c-9.03,0-10.16,0.04-13.7,0.19c-3.53,0.16-5.96,0.73-8.07,1.55c-2.23,0.84-4.23,2.14-5.9,3.85c-1.69,1.66-3,3.68-3.83,5.89
	c-0.82,2.12-1.39,4.53-1.54,8.07c-0.05,0.99-0.08,1.8-0.11,2.64c-0.08,2.17-0.1,4.57-0.1,11.08c0,6.51,0.02,8.92,0.09,11.08
	c0.03,0.84,0.06,1.64,0.1,2.63c0.16,3.53,0.73,5.96,1.55,8.07c0.84,2.23,2.16,4.24,3.84,5.9c1.66,1.69,3.68,3,5.88,3.83
	c2.12,0.82,4.53,1.39,8.07,1.55c3.55,0.16,4.68,0.19,13.7,0.19s10.16-0.04,13.7-0.19c1.93-0.09,3.53-0.29,4.93-0.6
	c1.16-0.25,2.18-0.57,3.13-0.94c4.47-1.73,8-5.26,9.73-9.73c0.82-2.12,1.39-4.53,1.55-8.07c0.04-0.99,0.08-1.79,0.1-2.63
	c0.07-2.16,0.09-4.57,0.09-11.08C102.45,71.53,102.45,69.12,102.39,66.96L102.39,66.96z"/>
<path fill="#ED2061" d="M102.45,78.04c0,6.51-0.02,8.92-0.09,11.08c-0.03,0.84-0.06,1.64-0.1,2.63c-0.16,3.53-0.73,5.95-1.55,8.07
	c-1.73,4.47-5.26,8-9.73,9.73c-0.95,0.37-1.98,0.69-3.13,0.94c4.3-1.89,7.68-5.41,9.39-9.81c0.85-2.2,1.45-4.71,1.61-8.39
	c0.16-3.69,0.2-4.86,0.2-14.25c0-9.39-0.01-10.56-0.18-14.25c-0.16-3.67-0.76-6.2-1.61-8.39c-0.88-2.32-2.23-4.4-4-6.13
	c-1.53-1.56-3.35-2.81-5.35-3.67c1.14,0.25,2.14,0.57,3.09,0.93c2.21,0.83,4.22,2.14,5.88,3.83c1.7,1.66,3,3.66,3.85,5.9
	c0.82,2.11,1.39,4.53,1.54,8.07c0.04,0.99,0.08,1.79,0.1,2.62C102.45,69.12,102.45,71.53,102.45,78.04L102.45,78.04z"/>
<path fill="#C0C0FF" d="M102.39,66.96H36.08c0.03-0.84,0.07-1.64,0.11-2.64c0.16-3.53,0.73-5.95,1.54-8.07
	c0.83-2.21,2.14-4.22,3.83-5.89c1.66-1.7,3.66-3,5.9-3.85c2.1-0.82,4.53-1.39,8.07-1.55c3.55-0.16,4.68-0.19,13.7-0.19
	c9.03,0,10.16,0.04,13.71,0.21c1.96,0.09,3.57,0.3,4.98,0.61c1.14,0.25,2.14,0.57,3.09,0.93c2.21,0.83,4.22,2.14,5.88,3.83
	c1.7,1.66,3,3.66,3.85,5.9c0.82,2.11,1.39,4.53,1.54,8.07C102.33,65.32,102.36,66.12,102.39,66.96L102.39,66.96z"/>
<path fill="#FFEB99" d="M102.36,89.12c-0.03,0.84-0.06,1.64-0.1,2.63c-0.16,3.53-0.73,5.95-1.55,8.07c-1.73,4.47-5.26,8-9.73,9.73
	c-0.95,0.37-1.98,0.69-3.13,0.94c-1.4,0.31-3,0.52-4.93,0.6c-3.55,0.16-4.68,0.19-13.7,0.19s-10.16-0.04-13.7-0.19
	c-3.53-0.16-5.95-0.73-8.07-1.55c-2.21-0.83-4.22-2.14-5.88-3.83c-1.69-1.66-3-3.66-3.84-5.9c-0.82-2.11-1.39-4.53-1.55-8.07
	c-0.04-0.99-0.08-1.79-0.1-2.63L102.36,89.12z"/>
<path fill="#FFA402" d="M98.96,89.12h3.4c-0.03,0.84-0.06,1.64-0.1,2.63c-0.16,3.53-0.73,5.95-1.55,8.07
	c-1.73,4.47-5.26,8-9.73,9.73c-0.95,0.37-1.98,0.69-3.13,0.94c4.3-1.89,7.68-5.41,9.39-9.81c0.85-2.2,1.45-4.71,1.61-8.39
	C98.9,91.09,98.94,90.16,98.96,89.12L98.96,89.12z"/>
<path fill="#6C5FEA" d="M93.27,49.27c-1.53-1.56-3.35-2.81-5.35-3.67c1.14,0.25,2.14,0.57,3.09,0.93c2.21,0.83,4.22,2.14,5.88,3.83
	c1.7,1.66,3,3.66,3.85,5.9c0.82,2.11,1.39,4.53,1.54,8.07c0.04,0.99,0.08,1.79,0.1,2.62h-3.4c-0.03-1.03-0.06-1.97-0.12-3.16
	c-0.16-3.67-0.76-6.2-1.61-8.39C96.39,53.08,95.04,51,93.27,49.27L93.27,49.27z"/>
<g>
	<path fill="#4DD4F7" d="M58.27,38.67v18c0,1.64-1.33,2.97-2.97,2.97h-5.2l-3.12,4.49l-3.12-4.49H29.81c-1.64,0-2.97-1.33-2.97-2.97
		v-18c0-1.64,1.33-2.97,2.97-2.97H55.3C56.94,35.69,58.27,37.02,58.27,38.67L58.27,38.67z"/>
	<path fill="#00C2F3" d="M58.27,38.67v18c0,1.64-1.33,2.97-2.97,2.97h-3.41c1.64,0,2.97-1.33,2.97-2.97v-18
		c0-1.64-1.33-2.97-2.97-2.97h3.41C56.94,35.69,58.27,37.02,58.27,38.67z"/>
	<path fill="#FFFFFF" d="M47.45,43.55c-1.16-1.16-3.04-1.16-4.2,0l-0.7,0.7l-0.7-0.7c-1.16-1.16-3.04-1.16-4.2,0
		c-1.16,1.16-1.16,3.04,0,4.2l4.9,4.9l4.9-4.9C48.61,46.58,48.61,44.7,47.45,43.55z"/>
</g>
<ellipse fill="#FFFFFF" cx="69.19" cy="78.03" rx="16.59" ry="16.6"/>
<ellipse fill="#FFFFFF" cx="89.1" cy="59.05" rx="3.41" ry="3.41"/>
<path fill="#56788B" d="M69.19,89.52c-6.33,0-11.48-5.15-11.48-11.49c0-6.33,5.15-11.49,11.48-11.49s11.48,5.15,11.48,11.49
	C80.67,84.37,75.52,89.52,69.19,89.52z"/>
<path d="M64.16,46.07L64.16,46.07c1.36,0,3.01-0.01,5.07-0.01c8.96,0,10.14,0.04,13.66,0.21c3.03,0.13,5.39,0.58,7.67,1.47
	c2.02,0.76,3.9,1.98,5.42,3.53c0.01,0.01,0.01,0.01,0.02,0.02c1.57,1.53,2.76,3.36,3.55,5.45c0.88,2.25,1.33,4.61,1.46,7.66
	c0.03,0.69,0.6,1.22,1.28,1.22c0.02,0,0.04,0,0.06,0c0.71-0.03,1.25-0.63,1.22-1.33c-0.15-3.34-0.65-5.95-1.63-8.46
	c-0.92-2.42-2.31-4.56-4.14-6.35c-1.78-1.81-3.97-3.23-6.33-4.12c-2.54-0.98-5.15-1.48-8.47-1.63c-3.57-0.17-4.75-0.21-13.78-0.21
	c-2.06,0-3.71,0-5.07,0.01c-0.71,0-1.28,0.58-1.27,1.28C62.88,45.5,63.46,46.07,64.16,46.07L64.16,46.07z"/>
<path d="M100.24,97.12c-0.18,0.68,0.24,1.38,0.92,1.56c0.11,0.03,0.21,0.04,0.32,0.04c0.57,0,1.09-0.38,1.24-0.96
	c0.45-1.77,0.72-3.71,0.82-5.95c0.16-3.61,0.2-4.81,0.2-13.76c0-3.95,0-6.28-0.02-8.02c-0.01-0.71-0.59-1.28-1.29-1.27
	c-0.71,0.01-1.27,0.58-1.27,1.29c0.01,1.73,0.02,4.06,0.02,8c0,8.9-0.04,10.08-0.19,13.65C100.89,93.75,100.65,95.53,100.24,97.12
	L100.24,97.12z"/>
<path d="M75.95,109.99L75.95,109.99c-1.56,0.01-3.63,0.02-6.73,0.02c-8.91,0-10.09-0.04-13.65-0.19c-3.03-0.13-5.39-0.58-7.67-1.47
	c-2.02-0.76-3.9-1.98-5.42-3.53l-0.01-0.01c-1.58-1.55-2.77-3.38-3.55-5.45c-0.88-2.25-1.33-4.62-1.46-7.66
	c-0.16-3.57-0.19-4.75-0.19-13.65c0-7.92,0.03-9.76,0.15-12.41c0.03-0.71-0.52-1.3-1.22-1.33c-0.7-0.03-1.3,0.52-1.33,1.22
	c-0.12,2.69-0.15,4.55-0.15,12.52c0,8.96,0.04,10.15,0.2,13.76c0.15,3.34,0.65,5.95,1.63,8.46c0.91,2.4,2.3,4.54,4.14,6.35
	c1.78,1.81,3.97,3.24,6.33,4.12c2.54,0.98,5.15,1.48,8.47,1.63c3.6,0.16,4.79,0.2,13.76,0.2c3.11,0,5.19,0,6.74-0.02
	c0.71,0,1.27-0.58,1.27-1.29C77.22,110.56,76.65,109.99,75.95,109.99z"/>
<path d="M54.4,70.39c-0.65-0.27-1.4,0.03-1.68,0.68c-0.93,2.21-1.4,4.55-1.4,6.96c0,9.86,8.02,17.88,17.87,17.88
	s17.87-8.02,17.87-17.88s-8.02-17.88-17.87-17.88c-5.13,0-10.02,2.21-13.41,6.06c-0.47,0.53-0.42,1.34,0.11,1.8
	c0.53,0.47,1.34,0.42,1.8-0.11c2.91-3.3,7.1-5.19,11.49-5.19c8.45,0,15.32,6.87,15.32,15.32s-6.87,15.32-15.32,15.32
	s-15.32-6.87-15.32-15.32c0-2.07,0.4-4.08,1.2-5.96C55.35,71.42,55.05,70.67,54.4,70.39L54.4,70.39z"/>
<path d="M69.19,90.8c7.04,0,12.76-5.73,12.76-12.76c0-7.04-5.72-12.76-12.76-12.76c-7.04,0-12.76,5.73-12.76,12.76
	C56.43,85.07,62.15,90.8,69.19,90.8L69.19,90.8z M69.19,67.83c5.63,0,10.2,4.58,10.2,10.21c0,5.63-4.58,10.21-10.2,10.21
	s-10.2-4.58-10.2-10.21C58.99,72.41,63.56,67.83,69.19,67.83L69.19,67.83z"/>
<path d="M93.79,59.05c0-2.59-2.1-4.69-4.69-4.69s-4.69,2.1-4.69,4.69c0,2.59,2.1,4.69,4.69,4.69S93.79,61.64,93.79,59.05z
	 M86.97,59.05c0-1.18,0.96-2.13,2.13-2.13c1.17,0,2.13,0.96,2.13,2.13c0,1.18-0.96,2.13-2.13,2.13
	C87.93,61.19,86.97,60.23,86.97,59.05z"/>
<path d="M45.94,64.87c0.24,0.34,0.63,0.55,1.05,0.55s0.81-0.21,1.05-0.55l2.73-3.94h4.53c2.34,0,4.25-1.91,4.25-4.25V38.67
	c0-2.34-1.91-4.25-4.25-4.25H39.09c-0.71,0-1.28,0.57-1.28,1.28s0.57,1.28,1.28,1.28H55.3c0.93,0,1.69,0.76,1.69,1.7v18.01
	c0,0.93-0.76,1.7-1.69,1.7h-5.2c-0.42,0-0.81,0.21-1.05,0.55l-2.07,2.98l-2.07-2.98c-0.24-0.34-0.63-0.55-1.05-0.55H29.81
	c-0.93,0-1.69-0.76-1.69-1.7V38.67c0-0.93,0.76-1.7,1.69-1.7h3.39c0.71,0,1.28-0.57,1.28-1.28s-0.57-1.28-1.28-1.28h-3.39
	c-2.34,0-4.25,1.91-4.25,4.25v18.01c0,2.34,1.91,4.25,4.25,4.25H43.2L45.94,64.87z"/>
<path d="M41.65,53.55c0.24,0.24,0.57,0.37,0.9,0.37s0.66-0.13,0.9-0.37l4.9-4.9c1.66-1.66,1.66-4.35,0-6.01
	c-0.8-0.8-1.87-1.24-3-1.24h0c-1.04,0-2.02,0.37-2.8,1.05c-0.78-0.68-1.76-1.05-2.8-1.05h0c-1.13,0-2.2,0.44-3,1.24
	c-1.65,1.66-1.65,4.35,0,6.01L41.65,53.55z M38.56,44.45c0.32-0.32,0.74-0.49,1.19-0.49h0c0.45,0,0.88,0.18,1.2,0.5l0.7,0.7
	c0.24,0.24,0.56,0.37,0.9,0.37c0.34,0,0.66-0.13,0.9-0.37l0.7-0.7c0.32-0.32,0.74-0.5,1.2-0.5h0c0.45,0,0.87,0.18,1.19,0.49
	c0,0,0,0,0,0c0.66,0.66,0.66,1.73,0,2.39l-3.99,3.99l-3.99-3.99C37.9,46.18,37.9,45.11,38.56,44.45L38.56,44.45z"/>
<path fill="#D9F0F4" d="M86.09,115.31c-3.27-3.27-3.27-8.6,0-11.87c3.27-3.27,8.6-3.27,11.87,0c3.27,3.27,3.27,8.6,0,11.87
	C94.68,118.58,89.36,118.58,86.09,115.31z"/>
<g>
	<g>
		<path d="M97.7,119.11c0,0,0.32-0.19,0.58,0.08c1.45,1.45,5.78,5.78,5.78,5.78c1.15,1.15,2.77,1.43,3.79,0.4l0.18-0.18
			c1.02-1.02,0.75-2.64-0.41-3.79c0,0-4.35-4.35-5.79-5.79c-0.25-0.25-0.07-0.57-0.07-0.57c2.62-4.36,2.05-9.95-1.71-13.71
			c-4.43-4.43-11.63-4.43-16.06,0c-4.43,4.43-4.43,11.63,0,16.06C87.75,121.16,93.34,121.73,97.7,119.11z M86.09,115.31
			c-3.27-3.27-3.27-8.6,0-11.87c3.27-3.27,8.6-3.27,11.87,0c3.27,3.27,3.27,8.6,0,11.87C94.68,118.58,89.36,118.58,86.09,115.31z"/>
		<g>
			<path fill="#BAE1E5" d="M96.15,107.98c-1.08-2.56-4.04-3.76-6.6-2.67c-0.6,0.25-1.28-0.03-1.54-0.62
				c-0.25-0.6,0.03-1.28,0.62-1.54c3.75-1.59,8.09,0.17,9.67,3.92c0.25,0.6-0.03,1.28-0.62,1.54c-0.15,0.06-0.3,0.09-0.46,0.09
				C96.77,108.7,96.34,108.43,96.15,107.98z"/>
		</g>
	</g>
</g>
</svg>
