<?xml version="1.0" encoding="utf-8"?>
<!-- Generator: Adobe Illustrator 25.0.0, SVG Export Plug-In . SVG Version: 6.00 Build 0)  -->
<svg version="1.1" id="Capa_1" xmlns="http://www.w3.org/2000/svg" xmlns:xlink="http://www.w3.org/1999/xlink" x="0px" y="0px"
	 viewBox="0 0 512 512" style="enable-background:new 0 0 512 512;" xml:space="preserve">
<style type="text/css">
	.st0{fill:#587BF7;}
	.st1{fill:#FFFFFF;}
	.st2{clip-path:url(#SVGID_2_);fill:#FFFFFF;}
	.st3{clip-path:url(#SVGID_4_);fill:#FFFFFF;}
</style>
<path class="st0" d="M431.1,0H80.9C36.3,0,0,39.2,0,87.5v221.1c0,48.2,36.3,87.5,80.9,87.5h105.2L242.7,504c2.6,4.9,7.7,8,13.3,8
	s10.7-3.1,13.3-8l56.6-107.9h105.2c44.6,0,80.9-39.2,80.9-87.5V87.5C512,39.2,475.7,0,431.1,0L431.1,0z M482,308.6
	c0,31.7-22.8,57.5-50.9,57.5H316.8c-5.6,0-10.7,3.1-13.3,8L256,464.7l-47.6-90.6c-2.6-4.9-7.7-8-13.3-8H80.9
	c-28.1,0-50.9-25.8-50.9-57.5V87.5C30,55.8,52.8,30,80.9,30h350.2c28.1,0,50.9,25.8,50.9,57.5V308.6z"/>
<path class="st0" d="M239.5,168.2c8.4-10,13.5-22.8,13.5-36.9c0-31.6-25.7-57.3-57.3-57.3c-31.6,0-57.3,25.7-57.3,57.3
	c0,14,5.1,26.9,13.5,36.9c-33.3,15.3-56.5,49-56.5,88v0.6c0,14.9,12.1,27,27,27H269c14.9,0,27-12.1,27-27v-0.6
	C296,217.1,272.8,183.5,239.5,168.2L239.5,168.2z M195.6,104c15.1,0,27.3,12.3,27.3,27.3s-12.3,27.3-27.3,27.3
	c-15.1,0-27.3-12.3-27.3-27.3S180.5,104,195.6,104z M125.3,253.7c1.3-35.7,30.7-64.3,66.7-64.3h7.2c36,0,65.4,28.6,66.7,64.3H125.3z
	"/>
<path class="st0" d="M385.7,122c-2.2,0-4.2,0.4-5.8,1.4l-26.4,16c-4,2.4-5.8,6.4-5.8,10.6c0,6.2,4,12.4,9.8,12.4
	c1.4,0,3.2-0.4,5-1.6l5.8-3.6v101.7c0,6.4,7.8,9.6,15.6,9.6c7.8,0,15.6-3.2,15.6-9.6V131.8C399.5,125.8,392.1,122,385.7,122
	L385.7,122z"/>
</svg>
