<?xml version="1.0" encoding="utf-8"?>
<!-- Generator: Adobe Illustrator 25.0.0, SVG Export Plug-In . SVG Version: 6.00 Build 0)  -->
<svg version="1.1" id="Capa_1" xmlns="http://www.w3.org/2000/svg" xmlns:xlink="http://www.w3.org/1999/xlink" x="0px" y="0px"
	 viewBox="0 0 512 512" style="enable-background:new 0 0 512 512;" xml:space="preserve">
<style type="text/css">
	.st0{fill:#587BF7;}
	.st1{fill:#FFFFFF;}
	.st2{clip-path:url(#SVGID_2_);fill:#FFFFFF;}
	.st3{clip-path:url(#SVGID_4_);fill:#FFFFFF;}
</style>
<g>
	<g>
		<g>
			<path class="st0" d="M489,113.3c-9.9-10.4-23.6-16.5-39.1-16.5h-78.2v-0.9c0-11.8-4.7-23.1-12.7-30.6c-8-8-18.8-12.7-30.6-12.7
				H187c-12.2,0-23.1,4.7-31.1,12.7c-8,8-12.7,18.8-12.7,30.6v0.9H65.4c-15.5,0-29.2,6.1-39.1,16.5c-9.9,9.9-16.5,24-16.5,39.1V387
				c0,15.5,6.1,29.2,16.5,39.1c9.9,9.9,24,16.5,39.1,16.5h384.4c15.5,0,29.2-6.1,39.1-16.5c9.9-9.9,16.5-24,16.5-39.1V152.4
				C505.5,136.9,499.3,123.2,489,113.3z M481,387h-0.5c0,8.5-3.3,16-9,21.7c-5.7,5.7-13.2,9-21.7,9H65.4c-8.5,0-16-3.3-21.7-9
				c-5.7-5.7-9-13.2-9-21.7V152.4c0-8.5,3.3-16,9-21.7s13.2-9,21.7-9h90.9c7.1,0,12.7-5.7,12.7-12.7V95.4c0-5.2,1.9-9.9,5.2-13.2
				c3.3-3.3,8-5.2,13.2-5.2h140.9c5.2,0,9.9,1.9,13.2,5.2c3.3,3.3,5.2,8,5.2,13.2v13.7c0,7.1,5.7,12.7,12.7,12.7h90.9
				c8.5,0,16,3.3,21.7,9c5.7,5.7,9,13.2,9,21.7V387z"/>
			<path class="st0" d="M257.7,153.8c-32,0-61.2,13.2-82,33.9c-21.2,21.2-33.9,49.9-33.9,82s13.2,61.2,33.9,82
				c21.2,21.2,49.9,33.9,82,33.9s61.2-13.2,82-33.9c21.2-21.2,33.9-49.9,33.9-82s-13.2-61.2-33.9-82
				C318.9,167,289.7,153.8,257.7,153.8z M321.7,334.3c-16.5,16-39.1,26.4-64.1,26.4s-47.6-10.4-64.1-26.4
				c-16.5-16.5-26.4-39.1-26.4-64.1s10.4-47.6,26.4-64.1c16.5-16.5,39.1-26.4,64.1-26.4s47.6,10.4,64.1,26.4
				c16.5,16.5,26.4,39.1,26.4,64.1C348.6,295.2,338.2,317.8,321.7,334.3z"/>
			<circle class="st0" cx="425.4" cy="176.5" r="23.1"/>
		</g>
	</g>
</g>
</svg>
