<?xml version="1.0" encoding="utf-8"?>
<!-- Generator: Adobe Illustrator 25.0.0, SVG Export Plug-In . SVG Version: 6.00 Build 0)  -->
<svg version="1.1" id="Capa_1" xmlns="http://www.w3.org/2000/svg" xmlns:xlink="http://www.w3.org/1999/xlink" x="0px" y="0px"
	 viewBox="0 0 512 512" style="enable-background:new 0 0 512 512;" xml:space="preserve">
<style type="text/css">
	.st0{fill:#587BF7;}
	.st1{fill:#FFFFFF;}
	.st2{clip-path:url(#SVGID_2_);fill:#FFFFFF;}
	.st3{clip-path:url(#SVGID_4_);fill:#FFFFFF;}
</style>
<g>
	<path class="st1" d="M403.6,321.7h-54.1c-8.3,0-15,6.7-15,15c0,8.3,6.7,15,15,15h54.1c8.3,0,15-6.7,15-15
		C418.6,328.4,411.9,321.7,403.6,321.7z"/>
	<g>
		<path class="st1" d="M376.5,425.3c-48.9,0-88.6-39.8-88.6-88.6s39.8-88.6,88.6-88.6s88.6,39.8,88.6,88.6S425.4,425.3,376.5,425.3z
			 M376.5,278c-32.3,0-58.6,26.3-58.6,58.6s26.3,58.6,58.6,58.6s58.6-26.3,58.6-58.6S408.9,278,376.5,278z"/>
	</g>
	<g>
		<defs>
			<path id="SVGID_3_" d="M331.1,279.1c0,0-42.4,19.6-18.7,75.2s32.8,55.6,32.8,55.6s-92,37.9-120.7,26.3
				C195.7,424.6,97.7,419,77,405.4c-20.7-13.6-76.8,30.3-74.8-92.5s-13.1-116.7,15.7-167.7S32,71.9,142.7,60.8S346.3,33,367.5,78.5
				s20.7,42.9,32.3,65.2c11.6,22.2-65.3,135.5-65.3,135.5H331.1z"/>
		</defs>
		<clipPath id="SVGID_2_">
			<use xlink:href="#SVGID_3_"  style="overflow:visible;"/>
		</clipPath>
		<path class="st2" d="M286.5,250.9c15.8-16.5,25.5-38.8,25.5-63.3C312,137.1,271,96,220.5,96c-50.5,0-91.5,41.1-91.5,91.5
			c0,24.6,9.7,46.9,25.5,63.3c-41.5,23.2-69.6,67.6-69.6,118.5c0,12.6,10.2,22.7,22.7,22.7h225.8c12.5,0,22.7-10.2,22.7-22.7
			C356.1,318.5,328,274.1,286.5,250.9z M220.5,128.1c32.8,0,59.4,26.7,59.4,59.5S253.3,247,220.5,247s-59.4-26.7-59.4-59.5
			S187.8,128.1,220.5,128.1z M114.3,353.9c12.3-47.2,55.2-82.1,106.2-82.1s93.9,34.9,106.2,82.1H114.3z"/>
	</g>
</g>
</svg>
