<?xml version="1.0" encoding="utf-8"?>
<!-- Generator: Adobe Illustrator 25.0.0, SVG Export Plug-In . SVG Version: 6.00 Build 0)  -->
<svg version="1.1" id="Capa_1" xmlns="http://www.w3.org/2000/svg" xmlns:xlink="http://www.w3.org/1999/xlink" x="0px" y="0px"
	 viewBox="0 0 512 512" style="enable-background:new 0 0 512 512;" xml:space="preserve">
<style type="text/css">
	.st0{fill:#587BF7;}
	.st1{fill:#FFFFFF;}
	.st2{clip-path:url(#SVGID_2_);fill:#FFFFFF;}
	.st3{clip-path:url(#SVGID_4_);fill:#FFFFFF;}
</style>
<g>
	<path class="st0" d="M509,105c-2.9-4.2-7.6-6.8-12.8-7L178.7,84.3c-9.1-0.4-16.7,6.6-17.1,15.7c-0.4,9.1,6.6,16.7,15.7,17.1
		l296.1,12.8l-58.2,181.6H156.1L109.2,56.7c-1-5.6-4.9-10.2-10.2-12.3L22.4,14.3C14,11,4.5,15.1,1.1,23.6c-3.3,8.4,0.8,18,9.3,21.3
		l68.2,26.8L126.2,331c1.4,7.8,8.2,13.5,16.2,13.5h7.9l-18,50.1c-1.5,4.2-0.9,8.9,1.7,12.5c2.6,3.6,6.7,5.8,11.2,5.8h12.7
		c-7.8,8.7-12.7,20.2-12.7,32.9c0,27.2,22.1,49.3,49.3,49.3s49.3-22.1,49.3-49.3c0-12.6-4.8-24.1-12.7-32.9h107.4
		c-7.8,8.7-12.7,20.2-12.7,32.9c0,27.2,22.1,49.3,49.3,49.3c27.2,0,49.3-22.1,49.3-49.3c0-12.6-4.8-24.1-12.7-32.9h15.4
		c7.6,0,13.7-6.1,13.7-13.7c0-7.6-6.1-13.7-13.7-13.7H164.6l14.8-41.1h247.7c7.1,0,13.5-4.6,15.6-11.4l68.4-213.5
		C512.7,114.6,511.9,109.3,509,105z M194.4,467.6c-12.1,0-21.9-9.8-21.9-21.9s9.8-21.9,21.9-21.9s21.9,9.8,21.9,21.9
		S206.5,467.6,194.4,467.6z M375.1,467.6c-12.1,0-21.9-9.8-21.9-21.9s9.8-21.9,21.9-21.9s21.9,9.8,21.9,21.9
		S387.2,467.6,375.1,467.6z"/>
</g>
</svg>
