<?xml version="1.0" encoding="utf-8"?>
<!-- Generator: Adobe Illustrator 25.0.0, SVG Export Plug-In . SVG Version: 6.00 Build 0)  -->
<svg version="1.1" id="Capa_1" xmlns="http://www.w3.org/2000/svg" xmlns:xlink="http://www.w3.org/1999/xlink" x="0px" y="0px"
	 viewBox="0 0 512 512" style="enable-background:new 0 0 512 512;" xml:space="preserve">
<style type="text/css">
	.st0{fill:#587BF7;}
	.st1{fill:#FFFFFF;}
	.st2{clip-path:url(#SVGID_2_);fill:#FFFFFF;}
	.st3{clip-path:url(#SVGID_4_);fill:#FFFFFF;}
</style>
<path class="st1" d="M188.8,313.5c-68.9,0-124.7-55.8-124.7-124.7S119.9,64,188.8,64s124.7,55.8,124.7,124.7l0,0
	C313.5,257.6,257.7,313.4,188.8,313.5z M188.8,77.8c-61.2,0-110.9,49.7-110.9,110.9s49.7,110.9,110.9,110.9S299.7,250,299.7,188.7
	l0,0C299.7,127.5,250,77.9,188.8,77.8z"/>
<path class="st1" d="M314.6,92.9c-2.1,0-4.1-0.9-5.4-2.6c-4.3-5.3-9.1-10.4-14.1-15c-2.8-2.6-2.9-7-0.3-9.8c2.6-2.7,6.9-2.9,9.7-0.4
	c5.5,5.1,10.7,10.6,15.5,16.5c2.4,3,2,7.3-1,9.7C317.7,92.4,316.2,92.9,314.6,92.9L314.6,92.9z"/>
<path class="st1" d="M445.3,492.4c-13,0.1-25.5-5.3-34.4-14.8L275.8,334c-66.7,39.6-151.7,29.1-206.7-25.6
	C3,242.5,2.8,135.5,68.7,69.4c32.2-32.3,76-50.2,121.6-49.7c3.8,0,6.9,3.1,6.9,6.9s-3.1,6.9-6.9,6.9c-0.4,0-0.8,0-1.2,0
	c-85.8-0.1-155.5,69.3-155.6,155.1c-0.1,85.8,69.3,155.5,155.1,155.6c30,0,59.4-8.6,84.6-24.9c2.8-1.8,6.5-1.4,8.8,1.1L421,468
	c12.6,13.4,33.7,14.1,47.2,1.5c13.4-12.6,14.1-33.7,1.5-47.2c-0.5-0.5-1-1-1.5-1.5L320.5,281.9c-2.4-2.3-2.9-6-1.1-8.8
	c19.1-29.6,27.6-64.9,24-100c-1.2-12-3.8-23.7-7.7-35.1c-1.3-3.6,0.6-7.6,4.3-8.8c3.6-1.3,7.6,0.6,8.8,4.3
	c4.3,12.4,7.1,25.2,8.4,38.3c3.6,36.2-4.5,72.7-23.1,103.9l143.5,135.1c19,17.9,19.9,47.7,2,66.7C470.7,487,458.3,492.3,445.3,492.4
	L445.3,492.4z"/>
<path class="st1" d="M259.7,49.5c-1,0-2.1-0.2-3-0.7c-5.8-2.8-11.8-5.2-17.9-7.3c-3.6-1.2-5.6-5.1-4.4-8.8c1.2-3.6,5.1-5.6,8.8-4.4
	c6.7,2.2,13.2,4.9,19.6,8c3.4,1.7,4.9,5.8,3.2,9.2C264.8,48,262.4,49.5,259.7,49.5L259.7,49.5z"/>
<path class="st1" d="M246.6,237.2c-3.8,0-6.9-3.1-6.9-6.9v-83c0-3.8,3.1-6.9,6.9-6.9c3.8,0,6.9,3.1,6.9,6.9v83
	C253.5,234.1,250.4,237.2,246.6,237.2z"/>
<path class="st1" d="M208.1,237.2c-3.8,0-6.9-3.1-6.9-6.9V173c0-3.8,3.1-6.9,6.9-6.9s6.9,3.1,6.9,6.9v57.3
	C215,234.1,211.9,237.2,208.1,237.2z"/>
<path class="st1" d="M169.6,237.2c-3.8,0-6.9-3.1-6.9-6.9v-83c0-3.8,3.1-6.9,6.9-6.9c3.8,0,6.9,3.1,6.9,6.9v83
	C176.5,234.1,173.4,237.2,169.6,237.2z"/>
<path class="st1" d="M131.1,237.2c-3.8,0-6.9-3.1-6.9-6.9v-41.5c0-3.8,3.1-6.9,6.9-6.9c3.8,0,6.9,3.1,6.9,6.9v41.5
	C138,234.1,134.9,237.2,131.1,237.2z"/>
</svg>
