<?xml version="1.0" encoding="utf-8"?>
<!-- Generator: Adobe Illustrator 25.0.0, SVG Export Plug-In . SVG Version: 6.00 Build 0)  -->
<svg version="1.1" id="Layer_1" xmlns="http://www.w3.org/2000/svg" xmlns:xlink="http://www.w3.org/1999/xlink" x="0px" y="0px"
	 viewBox="0 0 500 500" enable-background="new 0 0 500 500" xml:space="preserve">
<g>
	<g id="freepik--background-complete--inject-56">
		<path fill="#E0E0E0" d="M116.76,176.66c1.46-0.87,3.02-1.54,4.66-2l1-4.61l7.8-0.14l1.12,4.58c1.65,0.4,3.24,1.03,4.73,1.86
			l3.94-2.58l5.61,5.42l-2.44,4c0.87,1.46,1.54,3.03,2,4.67l4.61,1l0.14,7.8l-4.58,1.12c-0.41,1.65-1.03,3.24-1.86,4.73l2.58,3.94
			l-5.42,5.55l-4-2.44c-1.46,0.87-3.03,1.54-4.66,2l-1,4.62l-7.79,0.13l-1.12-4.57c-1.66-0.41-3.25-1.04-4.74-1.87l-3.94,2.59
			l-5.61-5.42l2.45-4c-0.87-1.46-1.54-3.02-2-4.66l-4.61-1l-0.14-7.8l4.51-1.08c0.4-1.65,1.03-3.24,1.86-4.73l-2.59-3.94l5.42-5.61
			l4,2.44H116.76z M120.92,187.05c-3.2,3.32-3.11,8.62,0.22,11.82s8.62,3.11,11.82-0.22c3.2-3.32,3.11-8.61-0.21-11.81
			C129.42,183.63,124.13,183.73,120.92,187.05z"/>
		<path fill="#E0E0E0" d="M120.92,187.05c0.44-0.54,0.96-1,1.55-1.37c1.62-1.05,3.55-1.5,5.46-1.29c2.89,0.31,5.43,2.09,6.71,4.7
			c0.37,0.74,0.63,1.53,0.76,2.35c0.14,0.85,0.14,1.72,0,2.57c-0.49,3.73-3.35,6.7-7.06,7.32c-0.85,0.13-1.73,0.13-2.58,0
			c-0.82-0.1-1.62-0.33-2.37-0.68c-1.4-0.63-2.61-1.62-3.49-2.88c-1.9-2.72-2.03-6.3-0.34-9.16c0.35-0.6,0.79-1.14,1.31-1.6
			c-0.41,0.54-0.8,1.11-1.15,1.7c-0.9,1.63-1.23,3.51-0.93,5.35c0.44,2.74,2.24,5.07,4.78,6.19c1.47,0.65,3.1,0.85,4.69,0.57
			c3.5-0.56,6.22-3.32,6.74-6.82c0.14-0.81,0.14-1.63,0-2.44c-0.12-0.78-0.36-1.53-0.71-2.23c-1.21-2.5-3.6-4.21-6.35-4.55
			c-1.85-0.23-3.72,0.16-5.32,1.11C122.03,186.25,121.46,186.63,120.92,187.05z"/>
		<path fill="#E0E0E0" d="M116.76,176.66l-0.26-0.14l-0.77-0.44l-3-1.8h0.1l-5.39,5.64v-0.15c0.78,1.19,1.66,2.52,2.6,3.93v0.07
			v0.08c-0.82,1.48-1.44,3.06-1.83,4.7v0.09h-0.1l-4.57,1.14l0.13-0.17c0.05,2.45,0.1,5.06,0.15,7.8l-0.15-0.19l4.62,1h0.12v0.12
			c0.46,1.62,1.14,3.17,2,4.61l0.07,0.1l-0.07,0.11l-2.43,4v-0.26l5.62,5.41h-0.28l3.94-2.59l0.12-0.07l0.12,0.07
			c1.47,0.81,3.04,1.43,4.67,1.83h0.14v0.14c0.35,1.43,0.74,3,1.13,4.58l-0.24-0.18L131,216l-0.23,0.19c0.3-1.46,0.63-3,1-4.62
			v-0.14h0.14c1.62-0.45,3.17-1.13,4.6-2l0,0l0.13-0.07l0.12,0.07l4,2.44h-0.3c1.84-1.89,3.64-3.76,5.42-5.61v0.3
			c-0.86-1.33-1.72-2.65-2.58-3.94l-0.07-0.12l0.06-0.13c0.82-1.47,1.44-3.04,1.85-4.67v-0.13h0.14l4.58-1.12l-0.18,0.23
			c0-2.66-0.09-5.26-0.13-7.8l0.18,0.21l-4.62-1h-0.12v-0.12c-0.46-1.62-1.13-3.18-2-4.62l-0.06-0.11l0.06-0.1
			c0.84-1.38,1.66-2.71,2.45-4v0.25l-5.6-5.43h0.23l-4,2.58l-0.09,0.05l-0.09-0.05c-1.47-0.82-3.04-1.45-4.68-1.86h-0.1v-0.09
			c-0.4-1.67-0.76-3.17-1.11-4.58l0.14,0.1l-7.79,0.11l0.1-0.09c-0.4,1.84-0.72,3.35-1,4.61l0,0l0,0c-1.23,0.34-2.42,0.8-3.56,1.37
			l-0.84,0.44l-0.28,0.14l0.26-0.18c0.18-0.11,0.45-0.27,0.82-0.47c1.13-0.6,2.33-1.09,3.56-1.45l-0.05,0.06
			c0.25-1.26,0.56-2.78,0.93-4.62v-0.09h0.09l7.8-0.17h0.11v0.11c0.35,1.41,0.72,2.91,1.14,4.57l-0.12-0.11
			c1.67,0.41,3.28,1.03,4.78,1.86h-0.18l3.93-2.59l0.13-0.08l0.1,0.1l5.62,5.4l0.12,0.11l-0.08,0.14c-0.8,1.33-1.61,2.67-2.44,4
			v-0.21c0.89,1.47,1.58,3.06,2.05,4.71l-0.16-0.15l4.62,1h0.17v0.17c0.05,2.54,0.1,5.14,0.15,7.8v0.18l-0.18,0.05L145.4,198
			l0.17-0.17c-0.42,1.67-1.05,3.28-1.88,4.79v-0.24l2.58,3.94l0.11,0.16l-0.14,0.13l-5.41,5.62l-0.13,0.13l-0.17-0.1l-4-2.44h0.25
			c-1.48,0.88-3.06,1.55-4.72,2l0.17-0.18c-0.33,1.59-0.66,3.16-1,4.62v0.18H131l-7.8,0.13H123v-0.18
			c-0.39-1.58-0.77-3.14-1.12-4.58l0.17,0.17c-1.67-0.41-3.29-1.05-4.79-1.89h0.24l-3.94,2.57l-0.15,0.1l-0.13-0.12l-5.6-5.42
			l-0.13-0.12l0.09-0.15l2.45-4v0.21c-0.87-1.48-1.55-3.06-2-4.72l0.15,0.14l-4.61-1h-0.15v-0.15c0-2.73-0.09-5.34-0.12-7.79v-0.14
			h0.13l4.58-1.11l-0.12,0.11c0.42-1.66,1.05-3.26,1.89-4.76v0.15c-0.92-1.43-1.79-2.76-2.57-3.95v-0.09l0.07-0.07l5.45-5.58l0,0
			l0,0l3,1.85c0.32,0.21,0.57,0.37,0.76,0.48L116.76,176.66z"/>
		<path fill="#F5F5F5" d="M345.67,232c0.87-0.53,1.81-0.93,2.79-1.21L349,228l4.67-0.09l0.67,2.74c0.99,0.25,1.94,0.63,2.83,1.12
			l2.36-1.55l3.36,3.24l-1.47,2.42c0.53,0.87,0.94,1.81,1.22,2.79l2.76,0.57l0.08,4.67l-2.74,0.67c-0.24,0.99-0.62,1.94-1.11,2.83
			l1.54,2.36l-3.17,3.4l-2.41-1.46c-0.87,0.53-1.81,0.93-2.79,1.21l-0.58,2.76l-4.66,0.09l-0.68-2.74
			c-0.99-0.25-1.94-0.63-2.83-1.12l-2.36,1.55l-3.36-3.25l1.47-2.41c-0.53-0.87-0.94-1.81-1.22-2.79l-2.76-0.57l-0.08-4.67
			l2.74-0.67c0.24-0.99,0.62-1.94,1.11-2.83l-1.59-2.36l3.24-3.36l2.41,1.46L345.67,232z M348.16,238.22
			c-1.91,1.99-1.85,5.16,0.14,7.07c1.99,1.91,5.16,1.85,7.07-0.14c1.91-1.99,1.85-5.14-0.13-7.06c-1.99-1.92-5.15-1.86-7.07,0.13
			C348.17,238.22,348.16,238.23,348.16,238.22L348.16,238.22z"/>
		<path fill="#F5F5F5" d="M348.16,238.23c0.26-0.32,0.58-0.6,0.93-0.82c1.67-1.08,3.82-1.08,5.49,0c0.77,0.5,1.39,1.19,1.8,2
			c0.22,0.44,0.37,0.92,0.45,1.41c0.08,0.51,0.08,1.03,0,1.54c-0.3,2.23-2.01,4.01-4.23,4.38c-0.51,0.08-1.03,0.08-1.54,0
			c-0.49-0.06-0.97-0.19-1.42-0.4c-0.84-0.38-1.56-0.98-2.09-1.73c-0.46-0.65-0.75-1.4-0.86-2.19c-0.17-1.14,0.06-2.3,0.66-3.29
			c0.2-0.38,0.46-0.72,0.78-1c0,0-0.3,0.33-0.69,1c-0.53,0.98-0.72,2.11-0.55,3.21c0.27,1.64,1.34,3.03,2.86,3.7
			c0.43,0.2,0.88,0.33,1.35,0.38c0.48,0.08,0.98,0.08,1.46,0c2.1-0.35,3.72-2.03,4-4.14c0.08-0.48,0.08-0.98,0-1.46
			c-0.07-0.46-0.21-0.91-0.42-1.33c-0.38-0.79-0.96-1.46-1.69-1.94c-1.59-1.06-3.66-1.11-5.3-0.12
			C348.48,237.92,348.18,238.26,348.16,238.23z"/>
		<path fill="#F5F5F5" d="M345.67,232c0,0-0.05,0-0.15-0.08l-0.47-0.27l-1.81-1.07h0.05l-3.22,3.42v-0.09l1.55,2.35l0,0v0.05
			c-0.49,0.88-0.86,1.83-1.1,2.81v0.06h-0.06l-2.74,0.68l0.08-0.1c0,1.47,0.06,3,0.09,4.67l-0.09-0.11l2.77,0.57h0.07v0.07
			c0.28,0.97,0.68,1.9,1.2,2.76v0.06v0.07l-1.46,2.41v-0.16l3.37,3.24h-0.17c0.73-0.49,1.54-1,2.36-1.55l0.07-0.05h0.07
			c0.88,0.49,1.82,0.86,2.8,1.1h0.08v0.08l0.67,2.74l-0.14-0.1l4.67-0.09l-0.14,0.11c0.18-0.87,0.38-1.81,0.58-2.76v-0.08h0.08
			c0.97-0.27,1.89-0.67,2.75-1.19l0,0l0.08-0.05l0.07,0.05l2.42,1.46h-0.18c1.09-1.13,2.18-2.25,3.24-3.36v0.18l-1.54-2.36
			l-0.05-0.07v-0.08c0.49-0.88,0.87-1.81,1.11-2.79v-0.08h0.08l2.74-0.67l-0.11,0.13c0-1.59-0.05-3.15-0.07-4.67l0.1,0.13
			l-2.76-0.58h-0.08v-0.08c-0.27-0.97-0.67-1.9-1.19-2.76v-0.06v-0.07l1.46-2.41v0.15l-3.35-3.25h0.14l-2.36,1.54h-0.06l0,0
			c-0.88-0.5-1.83-0.87-2.81-1.11h-0.05v-0.05c-0.24-1-0.46-1.9-0.67-2.75l0.09,0.07l-4.67,0.06h0.06c-0.24,1.1-0.43,2-0.59,2.76
			l0,0l0,0c-0.74,0.21-1.45,0.48-2.14,0.82l-0.5,0.27C345.73,231.98,345.67,232.01,345.67,232l0.16-0.1
			c0.1-0.07,0.27-0.17,0.49-0.29c0.68-0.36,1.39-0.65,2.13-0.87l0,0c0.15-0.76,0.33-1.66,0.56-2.77V228H349l4.66-0.1h0.07v0.06
			c0.21,0.85,0.43,1.75,0.68,2.74l-0.07-0.07c1,0.24,1.96,0.62,2.86,1.12h-0.11l2.36-1.55h0.07l0.06,0.06l3.37,3.24l0.07,0.06
			l-0.05,0.09l-1.4,2.35v-0.13c0.53,0.88,0.95,1.83,1.23,2.82l-0.1-0.09l2.77,0.57h0.1v0.11c0,1.52,0.06,3.07,0.09,4.67v0.11h-0.11
			l-2.74,0.68l0.11-0.11c-0.25,1-0.63,1.97-1.13,2.87v-0.14c0.52,0.77,1,1.56,1.55,2.35l0.06,0.1l-0.07,0.08l-3.25,3.36l-0.08,0.08
			l-0.09-0.06l-2.42-1.46h0.15c-0.88,0.53-1.83,0.95-2.82,1.23l0.1-0.11c-0.2,1-0.4,1.89-0.58,2.76v0.11h-0.11l-4.67,0.08h-0.11
			v-0.11l-0.67-2.74l0.1,0.1c-1.01-0.25-1.97-0.63-2.88-1.13h0.14l-2.36,1.54l-0.09,0.06l-0.08-0.08l-3.35-3.24l-0.08-0.07
			l0.06-0.09l1.46-2.41v0.13c-0.53-0.88-0.94-1.84-1.22-2.83l0.09,0.09l-2.76-0.58h-0.09v-0.09c0-1.64-0.05-3.2-0.07-4.67v-0.08
			h0.08l2.74-0.66l-0.07,0.07c0.24-1,0.62-1.96,1.13-2.85v0.08L340,234l0,0l0,0c1.32-1.36,2.42-2.49,3.26-3.34l0,0l0,0l1.78,1.11
			c0.2,0.12,0.35,0.21,0.46,0.29L345.67,232z"/>
		<path fill="#F5F5F5" d="M382.32,60.65c1.12-0.68,2.33-1.2,3.59-1.56l0.74-3.56l6-0.11l0.87,3.53c1.27,0.31,2.5,0.8,3.64,1.44l3-2
			l4.32,4.17l-1.88,3.1c0.68,1.12,1.21,2.33,1.56,3.6l3.56,0.74l0.1,6l-3.52,0.86c-0.31,1.28-0.8,2.5-1.44,3.65l2,3l-4.17,4.32
			L397.62,86c-1.13,0.68-2.35,1.21-3.62,1.57l-0.74,3.55l-6,0.11l-0.86-3.53c-1.27-0.31-2.5-0.8-3.65-1.43l-3,2l-4.32-4.18l1.88-3.1
			c-0.68-1.12-1.2-2.33-1.56-3.59l-3.56-0.75l-0.1-6l3.53-0.87c0.29-1.27,0.76-2.5,1.38-3.65l-2-3l4.17-4.33l3.11,1.89L382.32,60.65
			z M385.52,68.65c-2.47,2.56-2.4,6.65,0.16,9.12s6.65,2.4,9.12-0.16c2.47-2.56,2.4-6.65-0.16-9.12c0,0,0,0,0,0
			C392.08,66.02,388,66.09,385.52,68.65L385.52,68.65z"/>
		<path fill="#F5F5F5" d="M385.52,68.65c0.34-0.41,0.75-0.77,1.2-1.05c1.25-0.81,2.73-1.16,4.21-1c2.23,0.24,4.18,1.61,5.17,3.62
			c0.28,0.57,0.48,1.18,0.59,1.81c0.11,0.66,0.11,1.34,0,2c-0.37,2.87-2.58,5.16-5.44,5.64c-0.66,0.11-1.34,0.11-2,0
			c-0.63-0.08-1.25-0.25-1.83-0.52c-1.05-0.47-1.96-1.21-2.64-2.15c-1.46-2.1-1.57-4.86-0.27-7.06c0.27-0.46,0.6-0.88,1-1.24
			c0,0-0.39,0.43-0.88,1.31c-0.69,1.26-0.95,2.71-0.72,4.13c0.16,0.95,0.53,1.85,1.09,2.63c0.66,0.91,1.55,1.63,2.57,2.09
			c0.55,0.24,1.14,0.4,1.74,0.48c0.62,0.1,1.26,0.1,1.88,0c2.71-0.44,4.81-2.61,5.17-5.34c0.18-1.23-0.02-2.48-0.57-3.6
			c-0.93-1.92-2.77-3.24-4.89-3.51c-1.42-0.18-2.87,0.12-4.1,0.86C385.93,68.25,385.55,68.69,385.52,68.65z"/>
		<path fill="#F5F5F5" d="M382.32,60.65l-0.2-0.11l-0.6-0.34l-2.34-1.39h0.08l-4.15,4.34V63c0.61,0.91,1.28,1.93,2,3v0.05v0.06
			c-0.63,1.14-1.11,2.36-1.42,3.62v0.07h-0.07l-3.53,0.87l0.1-0.13c0.04,1.9,0.08,3.9,0.12,6l-0.12-0.14l3.56,0.74h0.09v0.09
			c0.35,1.25,0.88,2.45,1.55,3.56l0.05,0.08l-0.05,0.08l-1.88,3.11v-0.21l4.33,4.17h-0.21l3-2l0.09-0.06h0.1
			c1.13,0.63,2.34,1.11,3.6,1.42h0.1v0.11l0.87,3.53l-0.18-0.14l6-0.11l-0.18,0.15c0.23-1.13,0.49-2.34,0.74-3.56v-0.11h0.11
			c1.24-0.35,2.44-0.87,3.54-1.54l0,0l0.09-0.06l0.1,0.06l3.1,1.88h-0.22l4.17-4.32v0.23l-2-3l-0.06-0.09l0.05-0.1
			c0.64-1.13,1.11-2.34,1.42-3.6V76.6h0.1l3.53-0.86l-0.13,0.17c-0.04-2.05-0.07-4.05-0.1-6l0.13,0.16l-3.55-0.74h-0.1v-0.1
			c-0.35-1.25-0.87-2.44-1.54-3.55l-0.05-0.09l0.05-0.08l1.89-3.1v0.19l-4.32-4.18h0.18l-3,2h-0.07h-0.07
			c-1.13-0.63-2.35-1.11-3.61-1.43h-0.07v-0.07c-0.31-1.28-0.59-2.44-0.85-3.53l0.1,0.08l-6,0.08l0.08-0.06
			c-0.3,1.41-0.55,2.58-0.76,3.55l0,0l0,0c-0.95,0.26-1.87,0.62-2.75,1.06l-0.65,0.34l-0.21,0.11l0.2-0.14l0.63-0.36
			c0.88-0.45,1.81-0.8,2.77-1.05l0,0c0.2-1,0.44-2.14,0.72-3.56v-0.06h0.07l6-0.14h0.09v0.09c0.27,1.09,0.56,2.24,0.87,3.52
			l-0.08-0.09c1.28,0.32,2.52,0.8,3.68,1.44h-0.14l3-2l0.1-0.07l0.08,0.08l4.33,4.17l0.09,0.08l-0.07,0.11c-0.6,1-1.23,2-1.87,3.11
			v-0.17c0.68,1.13,1.22,2.36,1.58,3.63l-0.12-0.11l3.55,0.73h0.14V70c0,1.95,0.04,3.95,0.11,6v0.14h-0.13l-3.53,0.87l0.13-0.13
			c-0.32,1.29-0.81,2.53-1.45,3.69v-0.19c0.66,1,1.32,2,2,3l0.08,0.13l-0.11,0.1L400.86,88l-0.1,0.1l-0.13-0.07l-3.1-1.89h0.19
			c-1.14,0.68-2.36,1.21-3.64,1.58l0.13-0.14c-0.25,1.22-0.51,2.43-0.74,3.55v0.15h-0.15l-6,0.1h-0.14v-0.14
			c-0.29-1.21-0.59-2.42-0.86-3.53l0.13,0.14c-1.29-0.32-2.53-0.81-3.69-1.46h0.19l-3,2l-0.12,0.08l-0.1-0.1l-4.32-4.18l-0.09-0.09
			l0.07-0.11l1.89-3.1v0.16c-0.68-1.14-1.2-2.36-1.57-3.63l0.12,0.1l-3.56-0.74h-0.11v-0.11c0-2.11-0.07-4.12-0.09-6v-0.11h0.11
			l3.53-0.86l-0.09,0.09c0.32-1.28,0.81-2.52,1.46-3.67v0.11l-2-3v-0.06L375,63l4.2-4.3l0,0l0,0l2.29,1.43l0.59,0.37L382.32,60.65z"
			/>
		<path fill="#F5F5F5" d="M284.22,87.28c0.88-0.53,1.82-0.93,2.8-1.21l0.57-2.76l4.67-0.09l0.67,2.74c0.99,0.25,1.94,0.63,2.83,1.12
			l2.36-1.55l3.36,3.24L300,91.19c0.53,0.88,0.95,1.82,1.23,2.81l2.76,0.57l0.08,4.67l-2.74,0.67c-0.24,0.99-0.62,1.94-1.11,2.83
			l1.55,2.36l-3.25,3.36l-2.41-1.46c-0.87,0.53-1.81,0.93-2.79,1.21l-0.57,2.76l-4.67,0.09l-0.67-2.74
			c-0.99-0.25-1.94-0.63-2.84-1.12l-2.35,1.55l-3.36-3.24l1.46-2.42c-0.53-0.87-0.93-1.81-1.21-2.79l-2.77-0.57L276.26,95l2.74-0.67
			c0.24-0.99,0.62-1.94,1.12-2.83l-1.55-2.36l3.24-3.36l2.41,1.46V87.28z M286.71,93.5c-1.91,1.99-1.85,5.16,0.14,7.07
			c1.99,1.91,5.16,1.85,7.07-0.14c1.91-1.99,1.85-5.14-0.13-7.06c-1.99-1.92-5.15-1.87-7.07,0.12
			C286.72,93.49,286.71,93.5,286.71,93.5z"/>
		<path fill="#F5F5F5" d="M286.71,93.5c0.26-0.32,0.58-0.6,0.94-0.82c1.66-1.09,3.82-1.09,5.48,0c0.77,0.5,1.39,1.19,1.8,2
			c0.22,0.44,0.37,0.92,0.45,1.41c0.09,0.51,0.09,1.03,0,1.54c-0.14,1.08-0.63,2.09-1.39,2.88c-0.76,0.79-1.76,1.31-2.84,1.5
			c-0.51,0.08-1.03,0.08-1.54,0c-0.49-0.06-0.97-0.19-1.42-0.4c-0.83-0.38-1.55-0.98-2.08-1.73c-0.46-0.65-0.76-1.4-0.87-2.19
			c-0.17-1.14,0.07-2.3,0.66-3.29c0.2-0.38,0.46-0.72,0.78-1c0,0-0.3,0.33-0.69,1c-0.53,0.98-0.73,2.1-0.55,3.2
			c0.12,0.75,0.42,1.46,0.86,2.08c0.5,0.71,1.2,1.27,2,1.62c0.43,0.2,0.88,0.33,1.35,0.38c0.48,0.08,0.98,0.08,1.46,0
			c2.1-0.34,3.73-2.03,4-4.14c0.09-0.48,0.09-0.98,0-1.46c-0.07-0.46-0.21-0.91-0.42-1.33c-0.73-1.49-2.15-2.52-3.8-2.73
			c-1.11-0.14-2.23,0.1-3.19,0.67C287,93.19,286.74,93.53,286.71,93.5z"/>
		<path fill="#F5F5F5" d="M284.22,87.28c0,0-0.05,0-0.15-0.08l-0.46-0.27l-1.82-1.07h0.06l-3.23,3.38v-0.09l1.56,2.35l0,0l0,0
			c-0.49,0.88-0.86,1.83-1.1,2.81v0.06H279l-2.74,0.68l0.07-0.1c0,1.47,0.06,3,0.1,4.67l-0.09-0.11l2.76,0.57h0.07v0.07
			c0.28,0.97,0.69,1.9,1.21,2.76v0.06v0.07c-0.46,0.75-1,1.57-1.46,2.41v-0.16l3.36,3.24h-0.17l2.36-1.55h0.07h0.07
			c0.88,0.49,1.82,0.86,2.8,1.1h0.08v0.08l0.67,2.74l-0.13-0.1l4.66-0.09l-0.13,0.11c0.18-0.87,0.37-1.81,0.57-2.76v-0.08h0.08
			c0.97-0.27,1.89-0.67,2.75-1.19l0,0h0.07h0.08l2.41,1.46h-0.18c1.1-1.13,2.18-2.25,3.24-3.36v0.18l-1.55-2.36l-0.05-0.07
			l0.05-0.07c0.49-0.88,0.86-1.82,1.1-2.8v-0.08h0.08l2.74-0.67l-0.1,0.13c0-1.59-0.05-3.15-0.08-4.66l0.1,0.12l-2.76-0.58h-0.07
			v-0.08c-0.27-0.97-0.68-1.9-1.2-2.76v-0.06v-0.07l1.47-2.41v0.15L298,85.61h0.14l-2.36,1.54h-0.05h-0.06
			c-0.88-0.49-1.82-0.87-2.8-1.11h-0.06V86c-0.24-1-0.46-1.9-0.66-2.75l0.08,0.07l-4.67,0.06l0.06-0.05c-0.23,1.1-0.43,2-0.59,2.76
			l0,0l0,0c-0.74,0.21-1.45,0.48-2.14,0.82l-0.5,0.27c-0.11,0.06-0.17,0.09-0.17,0.08l0.16-0.1c0.11-0.07,0.27-0.17,0.49-0.29
			c0.68-0.36,1.39-0.65,2.13-0.87l0,0c0.15-0.76,0.33-1.66,0.56-2.77v-0.05l0,0l4.67-0.1h0.06v0.06c0.21,0.85,0.43,1.75,0.68,2.74
			l-0.07-0.07c1.02,0.26,2,0.66,2.91,1.19h-0.1l2.35-1.55h0.07l0.07,0.06l3.36,3.24l0.07,0.06l-0.05,0.09l-1.46,2.41v-0.13
			c0.53,0.88,0.95,1.83,1.23,2.82l-0.09-0.09l2.76,0.57h0.1v0.11c0,1.52,0.06,3.07,0.09,4.67v0.11h-0.1l-2.74,0.68l0.1-0.1
			c-0.25,1-0.63,1.96-1.13,2.86v-0.14l1.54,2.35l0.07,0.1l-0.08,0.08l-3.24,3.36l-0.08,0.08l-0.1-0.06L296,107.1h0.14
			c-0.88,0.53-1.83,0.95-2.82,1.23l0.1-0.11c-0.2,1-0.39,1.89-0.57,2.76v0.11h-0.11l-4.67,0.08H288v-0.11l-0.67-2.74l0.1,0.1
			c-1-0.25-1.96-0.63-2.86-1.13h0.14l-2.36,1.54l-0.09,0.06l-0.08-0.08l-3.35-3.24l-0.08-0.07l0.06-0.09l1.46-2.41v0.13
			c-0.53-0.89-0.94-1.84-1.22-2.83l0.09,0.09l-2.76-0.58h-0.09v-0.09c0-1.64-0.05-3.2-0.07-4.67V95h0.08l2.74-0.66l-0.07,0.07
			c0.21-1.01,0.55-1.99,1.03-2.91v0.08c-0.56-0.85-1.07-1.65-1.54-2.36l0,0l0,0c1.33-1.36,2.42-2.49,3.26-3.34l0,0l0,0l1.77,1.11
			c0.2,0.12,0.35,0.21,0.46,0.29L284.22,87.28z"/>
		<path fill="#F5F5F5" d="M70.34,169.6c0.87-0.53,1.81-0.93,2.79-1.21l0.57-2.76l4.67-0.08l0.67,2.74c0.99,0.24,1.94,0.62,2.83,1.11
			l2.36-1.55l3.36,3.25l-1.46,2.41c0.53,0.87,0.93,1.81,1.21,2.79l2.76,0.57l0.08,4.67l-2.74,0.67c-0.25,0.97-0.62,1.91-1.11,2.79
			l1.55,2.36l-3.25,3.36l-2.41-1.46c-0.87,0.53-1.81,0.93-2.79,1.21l-0.57,2.77l-4.67,0.08l-0.67-2.74
			c-0.99-0.25-1.94-0.62-2.83-1.12l-2.36,1.55l-3.33-3.2l1.46-2.42c-0.53-0.87-0.93-1.81-1.21-2.79l-2.8-0.6l-0.08-4.67l2.74-0.67
			c0.25-0.99,0.62-1.94,1.12-2.83l-1.55-2.36l3.24-3.36l2.42,1.46V169.6z M72.82,175.82c-1.92,1.99-1.86,5.15,0.13,7.07
			c1.99,1.92,5.15,1.86,7.07-0.13c1.91-1.98,1.86-5.14-0.12-7.06c-1.98-1.92-5.15-1.87-7.07,0.11
			C72.83,175.81,72.82,175.82,72.82,175.82z"/>
		<path fill="#F5F5F5" d="M72.82,175.82c0.27-0.32,0.59-0.6,0.94-0.82c1.66-1.09,3.82-1.09,5.48,0c0.77,0.5,1.39,1.19,1.8,2
			c0.22,0.44,0.37,0.92,0.45,1.41c0.09,0.51,0.09,1.03,0,1.54c-0.14,1.09-0.63,2.1-1.39,2.89c-0.76,0.78-1.75,1.3-2.83,1.49
			c-0.51,0.08-1.04,0.08-1.55,0c-0.49-0.06-0.97-0.19-1.42-0.4c-1.6-0.71-2.74-2.19-3-3.92c-0.17-1.14,0.07-2.3,0.66-3.29
			c0.2-0.38,0.46-0.72,0.78-1c0,0-0.3,0.33-0.68,1c-1.33,2.37-0.49,5.37,1.88,6.7c0.14,0.08,0.28,0.15,0.42,0.21
			c0.43,0.19,0.88,0.32,1.35,0.37c0.48,0.08,0.98,0.08,1.46,0c2.1-0.34,3.73-2.03,4-4.14c0.09-0.48,0.09-0.98,0-1.46
			c-0.07-0.46-0.21-0.91-0.42-1.33c-0.73-1.49-2.15-2.52-3.8-2.73c-1.11-0.14-2.22,0.1-3.18,0.67
			C73.14,175.51,72.85,175.85,72.82,175.82z"/>
		<path fill="#F5F5F5" d="M70.34,169.6c0,0-0.06,0-0.16-0.08l-0.46-0.27l-1.82-1.07H68l-3.23,3.38v-0.09l1.56,2.35l0,0v0.05
			c-0.49,0.88-0.86,1.83-1.09,2.81v0.06l0,0l-2.74,0.68l0.08-0.1c0,1.47,0.06,3,0.09,4.67l-0.09-0.11l2.76,0.57h0.07v0.07
			c0.28,0.97,0.69,1.9,1.21,2.76v0.06v0.07l-1.46,2.41v-0.16l3.26,3.34h-0.17l2.36-1.55h0.07h0.07c0.88,0.49,1.82,0.86,2.8,1.1h0.08
			v0.08c0.21,0.86,0.44,1.8,0.68,2.74l-0.14-0.1l4.66-0.09l-0.13,0.12c0.18-0.88,0.37-1.82,0.57-2.77v-0.08h0.08
			c0.97-0.28,1.9-0.68,2.76-1.19l0,0l0.07-0.05l0.08,0.05l2.41,1.46h-0.18l3.24-3.35v0.17l-1.55-2.36v-0.07v-0.07
			c0.49-0.88,0.86-1.82,1.1-2.8v-0.08h0.08l2.74-0.67l-0.1,0.13c0-1.59,0-3.15-0.08-4.66l0.11,0.12l-2.77-0.58h-0.07v-0.08
			c-0.27-0.97-0.68-1.9-1.2-2.76v-0.06v-0.07l1.5-2.53v0.15c-1.18-1.14-2.3-2.22-3.35-3.25h0.13l-2.36,1.54h-0.05H81.8
			c-0.88-0.49-1.82-0.87-2.8-1.11h-0.06v-0.05l-0.66-2.74l0.08,0.06l-4.67,0.06l0.06-0.05c-0.23,1.1-0.43,2-0.59,2.76l0,0l0,0
			c-0.74,0.2-1.45,0.48-2.13,0.83l-0.51,0.26c-0.11,0.06-0.16,0.09-0.16,0.08l0.15-0.1c0.11-0.07,0.27-0.17,0.49-0.29
			c0.68-0.36,1.39-0.64,2.13-0.86l0,0c0.15-0.75,0.34-1.66,0.56-2.77v-0.05l0,0l4.67-0.1h0.06v0.07c0.21,0.84,0.43,1.74,0.68,2.73
			l-0.07-0.07c1,0.24,1.96,0.62,2.86,1.12h-0.1l2.35-1.55h0.07l0.07,0.06l3.39,3.27l0.07,0.07v0.08l-1.46,2.41v-0.13
			c0.54,0.88,0.95,1.83,1.23,2.82l-0.09-0.09l2.76,0.57h0.1v0.1c0,1.52,0.05,3.08,0.08,4.67v0.11h-0.1l-2.74,0.68l0.1-0.1
			c-0.25,1-0.63,1.96-1.13,2.86V185l1.51,2.33l0.06,0.09l-0.08,0.08l-3.24,3.36l-0.08,0.08l-0.1-0.06l-2.41-1.46h0.14
			c-0.88,0.53-1.83,0.95-2.82,1.23l0.1-0.11c-0.2,1-0.39,1.89-0.57,2.76v0.12h-0.11l-4.67,0.08h-0.11v-0.11l-0.67-2.74l0.1,0.1
			c-1-0.25-1.96-0.63-2.86-1.13h0.14l-2.36,1.54l-0.09,0.06l-0.08-0.08l-3.35-3.24l-0.07-0.07v-0.09l1.46-2.41v0.13
			c-0.53-0.88-0.94-1.83-1.22-2.82l0.09,0.08l-2.76-0.58h-0.09V182c0-1.64-0.05-3.2-0.07-4.67v-0.08h0.08l2.74-0.66l-0.07,0.07
			c0.25-1,0.63-1.95,1.13-2.85v0.08l-1.54-2.36l0,0l0,0l3.26-3.34l0,0l0,0l1.77,1.11l0.46,0.29L70.34,169.6z"/>
		<path fill="#E0E0E0" d="M104.35,317.52L104.35,317.52l-2.12-8.66c-3.14-0.77-6.17-1.96-9-3.53l-7.48,4.91l0,0l-10.63-10.33l0,0
			l4.62-7.63c-1.66-2.76-2.95-5.72-3.83-8.82l-8.76-1.83l0,0l-0.26-14.81l0,0l8.67-2.13c0.77-3.14,1.95-6.17,3.52-9l-4.9-7.48l0,0
			l10.29-10.66l0,0l7.63,4.63c2.76-1.66,5.72-2.95,8.82-3.83l1.82-8.76l0,0l14.81-0.26l0,0l2.12,8.67c3.14,0.76,6.17,1.95,9,3.52
			l7.48-4.91l0,0L146.86,247l0,0l-4.62,7.63c1.66,2.76,2.95,5.73,3.83,8.83l8.76,1.82l0,0l0.26,14.81l0,0l-8.67,2.13
			c-0.77,3.14-1.95,6.17-3.52,9l4.9,7.48l0,0l-10.29,10.66l0,0l-7.63-4.63c-2.76,1.66-5.72,2.95-8.82,3.84l-1.82,8.75l0,0
			L104.35,317.52z M93.27,305.26L93.27,305.26c2.83,1.58,5.85,2.76,9,3.53l0,0l0,0l2.13,8.66l14.75-0.25l1.82-8.75l0,0
			c3.11-0.88,6.08-2.17,8.84-3.84l0,0l7.62,4.62l10.25-10.61l-4.9-7.47l0,0c1.57-2.83,2.76-5.86,3.53-9l0,0L155,280l-0.26-14.75
			l-8.74-1.78l0,0c-0.89-3.1-2.18-6.07-3.84-8.84l0,0l4.64-7.63l-10.61-10.25l-7.47,4.9l0,0c-2.83-1.58-5.85-2.76-9-3.53l0,0l0,0
			l-2.13-8.66l-14.75,0.26l-1.84,8.69l0,0c-3.11,0.88-6.08,2.17-8.84,3.84l0,0l-7.63-4.62l-10.26,10.61l4.9,7.47l0,0
			c-1.57,2.83-2.75,5.86-3.52,9l0,0L67,266.83l0.26,14.75L76,283.4l0,0c0.89,3.1,2.18,6.07,3.84,8.84l0,0l-4.62,7.63l10.61,10.24
			L93.27,305.26z M111.45,288.85c-8.78,0-15.9-7.11-15.91-15.89c0-4.12,1.6-8.08,4.46-11.05l0,0l0,0c2.93-3.04,6.94-4.78,11.16-4.85
			h0.29c8.78-0.07,15.95,6.98,16.02,15.76c0.07,8.78-6.98,15.95-15.75,16.02l0,0L111.45,288.85z M111.45,257.12
			c-8.75-0.22-16.01,6.69-16.23,15.44c-0.22,8.75,6.69,16.01,15.44,16.23c0.27,0.01,0.53,0.01,0.8,0h0.29
			c8.74-0.28,15.6-7.6,15.32-16.34c-0.27-8.45-7.14-15.2-15.6-15.33H111.45z"/>
		<path fill="#EBEBEB" d="M100,261.93c0.85-1.02,1.86-1.9,3-2.59c3.06-1.99,6.72-2.86,10.35-2.45c5.49,0.59,10.29,3.96,12.72,8.91
			c0.71,1.4,1.2,2.9,1.45,4.45c0.29,1.62,0.32,3.27,0.09,4.89c-0.93,7.07-6.37,12.69-13.4,13.86c-1.61,0.29-3.26,0.32-4.88,0.09
			c-1.56-0.2-3.08-0.63-4.51-1.29c-2.65-1.2-4.93-3.08-6.6-5.46c-1.46-2.08-2.4-4.48-2.75-7c-0.51-3.58,0.23-7.23,2.08-10.34
			c0.66-1.13,1.5-2.14,2.49-3c0.09,0.07-1,1-2.18,3.22c-1.7,3.1-2.32,6.67-1.75,10.16c0.86,5.16,4.27,9.53,9.06,11.62
			c1.35,0.62,2.79,1.02,4.27,1.2c1.54,0.21,3.09,0.17,4.62-0.1c6.63-1.12,11.76-6.43,12.66-13.1c0.42-3.02-0.07-6.1-1.4-8.85
			c-2.28-4.73-6.79-7.98-12-8.64c-3.5-0.44-7.06,0.3-10.09,2.11C101.05,260.94,100.12,262,100,261.93z"/>
		<path fill="#EBEBEB" d="M92.16,242.23c-0.17-0.08-0.34-0.16-0.5-0.26l-1.46-0.85l-5.76-3.4h0.18L74.41,248.4v-0.29l4.92,7.45
			l0.09,0.14l-0.08,0.14c-1.55,2.81-2.71,5.81-3.47,8.92v0.17h-0.18l-8.69,2.2l0.25-0.32c0.09,4.65,0.19,9.6,0.29,14.79l-0.28-0.35
			l8.74,1.81h0.22l0.06,0.22c0.88,3.07,2.16,6.02,3.82,8.75l0.12,0.2l-0.12,0.2l-4.62,7.65l-0.07-0.5l10.66,10.26l-0.53-0.05
			l7.46-4.87l0.22-0.14l0.23,0.13c2.79,1.54,5.77,2.71,8.86,3.48l0.26,0.06l0.07,0.26c0.66,2.72,1.39,5.69,2.13,8.68l-0.44-0.34
			l14.79-0.26l-0.44,0.36c0.58-2.77,1.2-5.75,1.82-8.76l0.06-0.27l0.26-0.07c3.07-0.87,6-2.14,8.73-3.79l0,0l0.24-0.14l0.23,0.14
			l7.64,4.64l-0.56,0.07l10.27-10.64v0.56l-4.89-7.48l-0.15-0.22l0.13-0.24c1.56-2.78,2.73-5.76,3.49-8.86l0.07-0.26l0.26-0.06
			l8.68-2.12l-0.33,0.43c-0.08-5.05-0.17-10-0.24-14.79l0.33,0.4l-8.72-1.84l-0.24-0.05l-0.07-0.24c-0.87-3.07-2.14-6.01-3.79-8.75
			l-0.12-0.21l0.12-0.2c1.59-2.62,3.14-5.16,4.65-7.63l0.06,0.46L136,236.94h0.43l-7.49,4.88l-0.16,0.11l-0.17-0.1
			c-2.79-1.56-5.78-2.75-8.89-3.52h-0.18v-0.17c-0.76-3.16-1.45-6-2.1-8.69l0.27,0.2l-14.79,0.2l0.19-0.17
			c-0.75,3.49-1.36,6.36-1.87,8.74v0.09h-0.09c-2.33,0.64-4.6,1.51-6.76,2.6l-1.59,0.83c-0.17,0.1-0.35,0.19-0.53,0.27
			c0.16-0.12,0.32-0.24,0.49-0.34c0.34-0.2,0.85-0.52,1.56-0.9c2.15-1.15,4.41-2.07,6.75-2.75l-0.1,0.12
			c0.48-2.4,1.06-5.27,1.76-8.77v-0.16h0.16l14.79-0.33h0.21l0.05,0.21c0.67,2.68,1.38,5.52,2.16,8.67l-0.22-0.21
			c3.16,0.76,6.21,1.95,9.06,3.53h-0.33l7.39-4.88l0.23-0.16l0.2,0.2l10.66,10.25l0.22,0.21l-0.16,0.26l-4.62,7.65v-0.41
			c1.7,2.79,3.01,5.8,3.9,8.94l-0.31-0.29l8.76,1.81l0.33,0.07v0.33c0.09,4.81,0.19,9.74,0.28,14.79v0.35l-0.33,0.08l-8.68,2.13
			l0.32-0.32c-0.78,3.18-1.98,6.23-3.57,9.09v-0.46l4.9,7.47l0.2,0.3l-0.25,0.26l-10.27,10.64l-0.25,0.26l-0.31-0.19l-7.66-4.66
			h0.46c-2.81,1.69-5.84,2.99-9,3.88l0.32-0.34c-0.62,3-1.24,6-1.82,8.75l-0.07,0.35h-0.37l-14.78,0.25H104l-0.09-0.35
			c-0.73-3-1.45-6-2.12-8.68l0.32,0.32c-3.17-0.78-6.22-1.99-9.07-3.58h0.44L86,310.54l-0.28,0.18l-0.24-0.23L74.87,300.2
			l-0.23-0.22l0.16-0.28l4.65-7.63v0.4c-1.68-2.79-2.98-5.8-3.87-8.94l0.28,0.26L67.11,282l-0.28-0.06v-0.28
			c-0.08-5.19-0.16-10.13-0.23-14.79v-0.26l0.25-0.06l8.69-2.11l-0.22,0.22c0.79-3.15,2-6.17,3.59-9v0.28
			c-1.76-2.7-3.4-5.23-4.87-7.5l-0.1-0.15l0.13-0.13l10.33-10.59l0.08-0.08l0.1,0.06l5.63,3.5l1.45,0.92
			C91.83,242.05,92,242.13,92.16,242.23z"/>
		<path fill="#E0E0E0" d="M347.16,93c2.17,0.04,4.33,0.38,6.41,1l4.18-4.33l8.51,5.16l-1.91,5.7c1.51,1.56,2.8,3.32,3.84,5.23
			l6-0.11l2.37,9.67l-5.37,2.68c-0.04,2.18-0.38,4.33-1,6.42l4.33,4.17l-5.16,8.51l-5.7-1.9c-1.57,1.5-3.33,2.79-5.23,3.83l0.1,6
			l-9.66,2.37l-2.68-5.4c-2.17-0.05-4.33-0.38-6.41-1l-4.17,4.32l-8.51-5.16l1.9-5.7c-1.5-1.56-2.79-3.32-3.83-5.23l-6,0.11
			l-2.36-9.67l5.37-2.68c0.05-2.17,0.39-4.33,1-6.41l-4.33-4.18l5.15-8.47l5.71,1.91c1.56-1.51,3.31-2.8,5.21-3.84l-0.11-6
			l9.66-2.37L347.16,93z M344.58,107c-5.72,1.4-9.23,7.18-7.83,12.9c1.4,5.72,7.18,9.23,12.9,7.83c5.72-1.4,9.23-7.18,7.83-12.9
			c0,0,0,0,0-0.01C356.08,109.1,350.3,105.6,344.58,107L344.58,107z"/>
		<path fill="#E0E0E0" d="M344.58,107c0.84-0.28,1.72-0.43,2.61-0.42c2.46-0.03,4.85,0.79,6.77,2.32c1.33,1.07,2.4,2.44,3.1,4
			c0.82,1.78,1.14,3.74,0.94,5.69c-0.11,1.03-0.37,2.05-0.78,3c-0.41,1.02-0.98,1.97-1.7,2.81c-3.06,3.7-8.18,4.95-12.6,3.09
			c-1.99-0.82-3.7-2.21-4.91-4c-2.06-3.09-2.39-7.03-0.87-10.42c0.99-2.25,2.74-4.08,4.93-5.18c0.78-0.42,1.63-0.7,2.51-0.84
			c-0.82,0.29-1.62,0.63-2.4,1c-2.08,1.15-3.71,2.96-4.64,5.15c-1.39,3.25-1.04,6.99,0.94,9.92c0.55,0.84,1.23,1.58,2,2.22
			c0.8,0.67,1.7,1.21,2.67,1.6c4.18,1.73,9,0.55,11.91-2.92c0.68-0.79,1.23-1.69,1.62-2.65c0.4-0.92,0.65-1.89,0.76-2.89
			c0.2-1.85-0.09-3.72-0.84-5.42c-0.66-1.48-1.66-2.79-2.92-3.82c-1.83-1.51-4.12-2.36-6.49-2.42
			C346.32,106.83,345.45,106.89,344.58,107z"/>
		<path fill="#E0E0E0" d="M347.16,93c-0.07-0.1-0.14-0.21-0.19-0.33c-0.13-0.24-0.3-0.58-0.53-1c-0.47-0.93-1.16-2.27-2.05-4h0.11
			l-9.65,2.43L335,90c0,1.82,0.08,3.84,0.13,6v0.1l-0.1,0.06c-1.89,1.04-3.63,2.32-5.17,3.82l-0.09,0.09h-0.12l-5.71-1.89l0.26-0.09
			l-5.2,8.47v-0.29l4.34,4.17l0.11,0.1l-0.05,0.15c-0.61,2.06-0.95,4.19-1,6.34v0.16l-0.15,0.07l-5.37,2.7l0.14-0.31
			c0.75,3,1.56,6.31,2.38,9.66l-0.28-0.22l6-0.11h0.18l0.08,0.15c1.03,1.88,2.3,3.62,3.8,5.16l0.12,0.13l-0.06,0.17
			c-0.59,1.79-1.24,3.74-1.9,5.71l-0.13-0.35l8.51,5.15l-0.37,0.05l4.17-4.32l0.13-0.14l0.18,0.05c2.05,0.61,4.18,0.95,6.32,1h0.2
			l0.08,0.17c0.9,1.8,1.8,3.6,2.68,5.38l-0.34-0.16l9.66-2.37l-0.23,0.3c0-2-0.07-4-0.1-6v-0.18l0.16-0.09
			c1.89-1.02,3.63-2.3,5.17-3.79l0.13-0.12l0.17,0.05l5.7,1.91l-0.34,0.13c1.77-2.9,3.49-5.73,5.17-8.5v0.34L370,124.6l-0.12-0.11
			l0.05-0.16c0.61-2.06,0.95-4.19,1-6.34v-0.16l0.14-0.07l5.38-2.68l-0.13,0.29c-0.82-3.4-1.6-6.61-2.35-9.67l0.23,0.18l-6,0.09
			h-0.13l-0.06-0.11c-1.03-1.89-2.3-3.64-3.79-5.2l-0.09-0.09v-0.11l1.92-5.7l0.08,0.21l-8.48-5.19h0.17l-4.21,4.3l0,0h-0.06
			c-1.56-0.49-3.16-0.82-4.78-1l-1.2-0.09c-0.13,0.01-0.27,0.01-0.4,0c0.13-0.01,0.27-0.01,0.4,0c0.27,0,0.67,0,1.21,0
			c1.64,0.12,3.25,0.41,4.83,0.86h-0.1l4.15-4.36l0.07-0.08l0.1,0.06l8.53,5.12l0.12,0.08v0.14c-0.59,1.76-1.2,3.63-1.89,5.71v-0.21
			c1.52,1.57,2.83,3.34,3.88,5.26l-0.19-0.11l6-0.12h0.18l0.05,0.18c0.75,3,1.55,6.26,2.39,9.66v0.2l-0.18,0.09l-5.37,2.69
			l0.15-0.23c-0.04,2.19-0.38,4.37-1,6.48l-0.08-0.27l4.34,4.17l0.16,0.16l-0.12,0.19c-1.67,2.77-3.38,5.61-5.15,8.51l-0.12,0.2
			l-0.22-0.07l-5.71-1.9l0.3-0.07c-1.58,1.52-3.36,2.83-5.29,3.89l0.16-0.27c0,2,0.07,4,0.11,6v0.24l-0.23,0.06L349,147.7
			l-0.23,0.06l-0.11-0.22c-0.89-1.78-1.78-3.57-2.69-5.38l0.27,0.17l0,0c-2.19-0.04-4.37-0.38-6.48-1l0.3-0.08l-4.18,4.32
			l-0.16,0.18l-0.21-0.13l-8.51-5.16l-0.2-0.12l0.07-0.23c0.66-2,1.32-3.92,1.91-5.7l0.07,0.3c-1.52-1.59-2.83-3.37-3.88-5.3
			l0.26,0.15l-6,0.1H319l-0.05-0.22l-2.36-9.67v-0.21l0.19-0.1l5.39-2.68l-0.15,0.23c0.05-2.19,0.38-4.37,1-6.47l0.07,0.25
			c-1.51-1.46-3-2.89-4.32-4.19l-0.14-0.13l0.1-0.17l5.18-8.49l0.09-0.15l0.16,0.06l5.7,1.92h-0.2c1.58-1.51,3.36-2.81,5.28-3.85
			l-0.09,0.16c0-2.16-0.06-4.19-0.08-6v-0.12h0.12l9.68-2.31h0.08v0.07l1.95,4l0.49,1C347.11,92.87,347.16,93,347.16,93z"/>
		<path fill="#EBEBEB" d="M375.07,282.52c0.85-0.28,1.74-0.42,2.63-0.42c4.29-0.05,8.21,2.43,10,6.33c0.82,1.79,1.15,3.78,0.94,5.74
			c-0.23,2.18-1.1,4.24-2.5,5.92c-3.09,3.72-8.25,4.98-12.71,3.11c-1.03-0.41-1.99-1-2.84-1.72c-0.83-0.67-1.54-1.47-2.12-2.37
			c-2.08-3.12-2.41-7.09-0.88-10.51c1.01-2.27,2.78-4.12,5-5.23c0.79-0.42,1.65-0.71,2.53-0.85c-0.82,0.31-1.63,0.66-2.42,1.06
			c-2.1,1.16-3.75,2.99-4.69,5.2c-0.64,1.5-0.92,3.14-0.82,4.77c0.12,1.88,0.73,3.69,1.77,5.25c0.55,0.84,1.22,1.59,2,2.23
			c0.8,0.68,1.71,1.22,2.69,1.61c4.21,1.74,9.07,0.55,12-2.94c0.69-0.8,1.24-1.7,1.64-2.68c0.4-0.93,0.65-1.91,0.76-2.91
			c0.39-3.55-1.03-7.06-3.79-9.33c-1.85-1.52-4.16-2.38-6.56-2.44C376.82,282.35,375.94,282.41,375.07,282.52z"/>
		<path fill="#EBEBEB" d="M377.67,268.35l-0.18-0.33c-0.14-0.25-0.31-0.58-0.54-1l-2.07-4h0.11l-9.74,2.44l0.12-0.15
			c0,1.84,0.08,3.88,0.13,6.07v0.1l-0.1,0.06c-1.9,1.05-3.66,2.35-5.22,3.86l-0.09,0.08h-0.11l-5.77-1.9l0.26-0.1l-5.19,8.6v-0.3
			l4.37,4.21l0.11,0.11v0.14c-0.62,2.08-0.95,4.24-1,6.41v0.16l-0.14,0.07l-5.43,2.72l0.15-0.31c0.75,3.06,1.56,6.36,2.4,9.75
			l-0.29-0.22l6.07-0.11h0.18l0.08,0.16c1.04,1.9,2.33,3.65,3.83,5.21l0.13,0.13l-0.06,0.17c-0.6,1.81-1.25,3.77-1.92,5.76
			l-0.13-0.35l8.59,5.2l-0.38,0.05l4.22-4.37l0.13-0.13l0.18,0.05c2.07,0.61,4.22,0.95,6.38,1h0.19l0.09,0.16
			c0.91,1.83,1.81,3.64,2.71,5.43l-0.35-0.16l9.75-2.39l-0.23,0.3c0-2-0.07-4.06-0.11-6.06v-0.19l0.16-0.08
			c1.9-1.04,3.66-2.33,5.22-3.83l0.13-0.12l0.17,0.06l5.75,1.92l-0.34,0.13l5.21-8.58l0.05,0.35l-4.36-4.22l-0.12-0.12l0.05-0.16
			c0.62-2.08,0.95-4.23,1-6.4v-0.16l0.15-0.07l5.43-2.7l-0.13,0.29c-0.84-3.43-1.62-6.67-2.37-9.76l0.23,0.18l-6.07,0.09h-0.13
			l-0.06-0.11c-1.04-1.91-2.33-3.68-3.83-5.25l-0.09-0.08v-0.12c0.71-2.09,1.34-4,1.94-5.75l0.08,0.21l-8.56-5.24h0.17
			c-1.69,1.73-3.09,3.15-4.24,4.34h-0.05h-0.05c-1.58-0.47-3.19-0.79-4.83-0.95l-1.21-0.1h-0.41h0.41c0.27,0,0.68,0,1.22,0
			c1.65,0.12,3.28,0.41,4.87,0.87h-0.1l4.19-4.4l0.08-0.08l0.09,0.06L397,270l0.13,0.08l-0.05,0.13l-1.9,5.77l-0.05-0.21
			c1.54,1.59,2.86,3.37,3.92,5.31l-0.19-0.11l6.06-0.12h0.19l0.05,0.19l2.41,9.75v0.2l-0.18,0.09l-5.42,2.72l0.15-0.24
			c-0.04,2.22-0.38,4.42-1,6.55l-0.08-0.28l4.38,4.21l0.16,0.16l-0.12,0.19c-1.69,2.8-3.43,5.66-5.2,8.59l-0.12,0.2l-0.22-0.07
			l-5.76-1.92l0.3-0.07c-1.6,1.54-3.39,2.86-5.34,3.93l0.16-0.27c0,2,0.07,4,0.11,6.06v0.25l-0.23,0.06l-9.76,2.39l-0.24,0.06
			l-0.11-0.22c-0.89-1.8-1.8-3.61-2.71-5.43l0.27,0.17l0,0c-2.22-0.04-4.42-0.38-6.55-1l0.31-0.08c-1.45,1.5-2.88,3-4.22,4.36
			l-0.17,0.18l-0.21-0.13l-8.58-5.21l-0.21-0.12l0.08-0.23c0.66-2,1.32-3.95,1.93-5.76l0.06,0.3c-1.54-1.6-2.85-3.39-3.91-5.34
			l0.26,0.15l-6.07,0.1h-0.23l-0.05-0.22c-0.83-3.39-1.63-6.7-2.38-9.76l-0.05-0.22l0.2-0.09c1.89-0.94,3.74-1.87,5.43-2.7
			l-0.15,0.23c0.04-2.21,0.38-4.41,1-6.54l0.07,0.26l-4.36-4.23l-0.14-0.13l0.1-0.17c1.83-3.01,3.58-5.87,5.23-8.57l0.09-0.15
			l0.16,0.05l5.76,1.94l-0.21,0.05c1.6-1.53,3.39-2.84,5.33-3.89l-0.09,0.16c0-2.18-0.06-4.23-0.09-6.06v-0.13h0.12l9.77-2.33h0.08
			v0.07c0.85,1.76,1.51,3.11,2,4.05l0.49,1.05C377.51,268.11,377.6,268.22,377.67,268.35z"/>
		<polygon fill="#F5F5F5" points="56.23,450.45 56.23,481.29 101.33,481.29 151.08,481.29 151.08,450.45 		"/>
		<polygon fill="#E0E0E0" points="52.25,441.82 52.25,450.45 154.4,450.45 154.4,441.82 101.33,441.82 		"/>
		<polygon fill="#E0E0E0" points="103.32,481.29 151.08,481.29 151.08,450.45 154.4,450.45 154.4,441.82 101.33,441.82 
			101.33,449.65 		"/>
		<rect x="69.49" y="455.42" fill="#E0E0E0" width="19.24" height="4.64"/>
		<rect x="67.02" y="465.87" fill="#FFFFFF" width="24.7" height="9.8"/>
		<polygon fill="#F5F5F5" points="70.82,411.02 70.82,441.87 115.93,441.87 165.67,441.87 165.67,411.02 		"/>
		<polygon fill="#E0E0E0" points="66.84,402.4 66.84,411.02 168.99,411.02 168.99,402.4 115.93,402.4 		"/>
		<polygon fill="#E0E0E0" points="117.92,441.87 165.67,441.87 165.67,411.02 168.99,411.02 168.99,402.4 115.93,402.4 
			115.93,410.23 		"/>
		<rect x="84.09" y="416" fill="#E0E0E0" width="19.24" height="4.64"/>
		<rect x="81.61" y="426.44" fill="#FFFFFF" width="24.7" height="9.8"/>
	</g>
	<g id="freepik--Floor--inject-56">
		<path fill="#263238" d="M480.66,481.29c0,0.14-103.28,0.26-230.65,0.26s-230.67-0.12-230.67-0.26S122.6,481,250,481
			S480.66,481.15,480.66,481.29z"/>
	</g>
	<g id="freepik--Gears--inject-56">
		<path fill-rule="evenodd" clip-rule="evenodd" fill="#587CF8" d="M86.19,61.42c3.69-2.21,7.66-3.91,11.81-5.06l2.45-11.61
			L120,44.47L122.83,56c4.16,1.04,8.16,2.63,11.89,4.73l9.95-6.47L158.75,68l-6.19,10.12c2.21,3.68,3.91,7.63,5.07,11.76l11.61,2.46
			l0.28,19.63L158,114.72c-1.04,4.16-2.63,8.16-4.73,11.9l6.47,9.94L146,150.65l-10.12-6.19c-3.68,2.2-7.63,3.91-11.76,5.06
			l-2.46,11.61l-19.64,0.28l-2.79-11.54c-4.16-1.04-8.16-2.63-11.89-4.73l-10,6.47l-14-13.69l6.19-10.12
			c-2.21-3.69-3.91-7.66-5.06-11.8l-11.62-2.46L52.58,94l11.54-2.79c1.03-4.16,2.62-8.16,4.72-11.9l-6.47-9.94l13.69-14.14
			C76.06,55.23,86.19,61.42,86.19,61.42z"/>
		<path fill="#FFFFFF" d="M122.63,97.16c-0.09-1.4-0.3-2.79-0.63-4.16c-0.4-1.58-1.04-3.09-1.89-4.48
			c-2.5-4.13-6.64-6.99-11.38-7.88c-2.95-0.54-5.99-0.28-8.8,0.75c-1.52,0.54-2.95,1.31-4.24,2.28c-1.37,0.99-2.56,2.19-3.54,3.56
			c-4.33,5.89-4.33,13.9,0,19.79c0.5,0.7,1.05,1.37,1.64,2c0.6,0.58,1.23,1.12,1.9,1.61c1.29,0.98,2.72,1.75,4.24,2.29
			c2.82,1.02,5.85,1.28,8.8,0.74c4.74-0.89,8.88-3.75,11.38-7.88c0.85-1.39,1.49-2.9,1.9-4.48c0.32-1.35,0.53-2.73,0.62-4.12
			c0.02,0.09,0.02,0.18,0,0.27c0,0.22,0,0.48,0,0.81c0,0.44-0.03,0.88-0.11,1.32c-0.06,0.6-0.17,1.19-0.32,1.77
			c-0.37,1.61-0.99,3.16-1.84,4.58c-2.5,4.26-6.71,7.23-11.55,8.16c-3.01,0.56-6.12,0.31-9-0.72c-1.59-0.56-3.08-1.36-4.42-2.37
			c-1.41-1.01-2.64-2.24-3.65-3.65c-4.48-6.06-4.48-14.34,0-20.4c0.52-0.7,1.08-1.37,1.69-2c0.63-0.6,1.3-1.15,2-1.66
			c1.32-0.98,2.78-1.75,4.33-2.29c5.49-1.99,11.61-1.05,16.24,2.5c1.75,1.34,3.22,3,4.33,4.9c0.86,1.43,1.49,2.98,1.87,4.6
			c0.15,0.58,0.26,1.18,0.32,1.78c0.08,0.43,0.11,0.87,0.11,1.31c0,0.33,0,0.6,0,0.81C122.64,96.99,122.64,97.07,122.63,97.16z"/>
		<path fill="#FFFFFF" d="M117.28,109.54c0.1-0.1,3.8,3.44,8.27,7.91s8,8.17,7.91,8.27s-3.81-3.44-8.28-7.9
			S117.18,109.64,117.28,109.54z"/>
		<path fill-rule="evenodd" clip-rule="evenodd" fill="#587CF8" d="M220.43,135.73c4.72-2.83,9.79-5.02,15.09-6.5l3.16-14.91
			l25.2-0.35l3.58,14.81c5.34,1.33,10.47,3.37,15.27,6.07l12.77-8.31l18.07,17.57l-7.94,13c2.83,4.72,5.01,9.79,6.5,15.09l14.9,3.16
			l0.36,25.2l-14.81,3.58c-1.34,5.34-3.38,10.47-6.07,15.27l8.3,12.77l-17.57,18.07l-13-7.94c-4.72,2.83-9.8,5.01-15.1,6.5
			l-3.14,14.9l-25.21,0.36l-3.58-14.81c-5.34-1.34-10.47-3.38-15.27-6.07l-12.76,8.3l-18.08-17.57l7.94-13
			c-2.83-4.72-5.01-9.8-6.49-15.1l-14.91-3.15l-0.35-25.21l14.81-3.57c1.33-5.34,3.37-10.47,6.07-15.27l-8.31-12.77l17.57-18.08
			l13,7.95V135.73z"/>
		<path fill="#FFFFFF" d="M243.81,215.28h0.3h0.86h3.31l12.37-0.08l-0.15,0.15c-0.05-2.12-0.11-4.51-0.17-7.07v-0.12l0.11-0.05
			c3.91-1.82,7.48-4.29,10.56-7.31c1.73-1.68,3.22-3.59,4.44-5.68c1.28-2.23,2.11-4.68,2.44-7.23c0.62-5.56-0.72-11.16-3.79-15.84
			c-3.33-5.02-8.15-8.87-13.79-11c-4.24-1.56-8.83-1.88-13.24-0.92c-4.22,0.8-8.17,2.62-11.51,5.32c-3.1,2.55-5.49,5.85-6.94,9.59
			c-0.31,0.91-0.7,1.78-0.93,2.69s-0.44,1.82-0.66,2.71c-0.32,1.76-0.48,3.55-0.47,5.34c0.04,1.68,0.25,3.36,0.63,5
			c0.39,1.55,0.93,3.05,1.63,4.48c1.27,2.57,2.96,4.9,5,6.91c2.98,2.97,6.48,5.36,10.32,7.05h0.06v0.06
			c-0.12,1.93-0.21,3.4-0.27,4.41c0,0.49,0,0.86-0.07,1.14c0.01,0.13,0.01,0.26,0,0.39c-0.01-0.12-0.01-0.24,0-0.36
			c0-0.27,0-0.64,0-1.12c0-1,0.09-2.51,0.16-4.47l0.06,0.1c-3.9-1.66-7.45-4.03-10.47-7c-2.08-2.03-3.81-4.4-5.1-7
			c-0.72-1.45-1.28-2.98-1.68-4.55c-0.39-1.68-0.62-3.4-0.67-5.12c-0.01-1.82,0.14-3.64,0.46-5.43c0.22-0.91,0.44-1.82,0.66-2.75
			s0.63-1.82,0.94-2.74c1.47-3.82,3.91-7.2,7.06-9.81c3.41-2.72,7.44-4.55,11.73-5.34c4.5-0.98,9.19-0.66,13.52,0.93
			c5.73,2.18,10.62,6.1,14,11.21c1.6,2.42,2.74,5.12,3.37,7.95c0.18,0.68,0.3,1.37,0.38,2.07c0.12,0.68,0.19,1.38,0.2,2.07
			c0,0.69,0.06,1.38,0.07,2.06l-0.19,2c-0.34,2.61-1.2,5.12-2.52,7.39c-1.24,2.12-2.77,4.06-4.53,5.77
			c-3.14,3.01-6.77,5.47-10.74,7.26l0.11-0.17c0,2.56,0.08,5,0.11,7.08v0.16h-0.16l-12.46-0.08h-3.27h-0.84L243.81,215.28z"/>
		<path fill="#FFFFFF" d="M260.89,220c-2.88,0.26-5.76,0.35-8.65,0.27c-2.89,0.08-5.77,0-8.65-0.26c2.88-0.26,5.76-0.34,8.65-0.26
			C255.13,219.66,258.01,219.74,260.89,220z"/>
		<path fill="#FFFFFF" d="M255.29,226.5c-0.98,0.36-2.03,0.48-3.06,0.36c-1.03,0.05-2.06-0.14-3-0.55c1.01-0.1,2.04-0.1,3.05,0
			C253.29,226.27,254.3,226.33,255.29,226.5z"/>
		<path fill="#FFFFFF" d="M247.34,215.28c-0.01-0.09-0.01-0.19,0-0.28v-0.84c0-0.78,0-1.85,0.05-3.22
			c0.07-2.83,0.16-6.86,0.28-11.83c0.06-2.5,0.14-5.23,0.21-8.17c0.05-0.72-0.05-1.43-0.29-2.11c-0.19-0.66-0.84-1.09-1.52-1
			c-0.69,0.23-1.2,0.81-1.34,1.52c-0.18,0.74-0.08,1.53,0.28,2.2c0.79,1.44,2.23,2.4,3.86,2.57c1.71,0.19,3.39-0.49,4.5-1.8
			c1.17-1.34,1.84-3.06,1.89-4.84c0.08-0.89-0.11-1.78-0.53-2.56c-0.42-0.74-1.28-1.11-2.11-0.9c-0.76,0.39-1.17,1.23-1,2.07
			c0.19,0.87,0.61,1.68,1.2,2.35c1.06,1.44,2.5,2.56,4.17,3.22c0.8,0.3,1.66,0.4,2.51,0.3c0.83-0.12,1.61-0.45,2.28-0.95
			c0.66-0.47,1.16-1.14,1.43-1.9c0.26-0.74,0.21-1.55-0.13-2.25c-0.3-0.68-0.96-1.13-1.71-1.16c-0.73,0.06-1.39,0.46-1.79,1.07
			c-0.83,1.23-0.84,2.84-1.05,4.27c-0.32,2.91-0.53,5.64-0.72,8.13c-0.33,5-0.6,9-0.79,11.8c-0.1,1.37-0.17,2.44-0.22,3.21
			c0,0.35-0.05,0.62-0.07,0.84c0.01,0.09,0.01,0.19,0,0.28c-0.01-0.09-0.01-0.19,0-0.28c0-0.22,0-0.5,0-0.84
			c0-0.77,0.07-1.85,0.12-3.22c0.12-2.79,0.31-6.83,0.64-11.81c0.16-2.5,0.35-5.23,0.65-8.16c0.09-0.73,0.16-1.47,0.29-2.23
			c0.1-0.8,0.38-1.57,0.81-2.25c0.48-0.74,1.28-1.21,2.16-1.28c0.92,0.02,1.75,0.57,2.14,1.41c0.41,0.82,0.47,1.77,0.17,2.63
			c-0.3,0.86-0.85,1.61-1.59,2.14c-0.74,0.55-1.6,0.91-2.51,1.05c-0.93,0.11-1.87,0.01-2.75-0.32c-1.76-0.69-3.28-1.86-4.4-3.38
			c-0.66-0.73-1.11-1.63-1.31-2.59c-0.2-1.08,0.35-2.17,1.35-2.64c1.06-0.31,2.2,0.16,2.74,1.12c0.48,0.87,0.69,1.86,0.6,2.85
			c-0.05,1.9-0.76,3.72-2,5.16c-1.21,1.45-3.06,2.21-4.94,2c-1.79-0.2-3.37-1.26-4.23-2.85c-0.41-0.78-0.51-1.69-0.3-2.54
			c0.19-0.88,0.85-1.58,1.71-1.84c0.45-0.08,0.9,0.03,1.27,0.29c0.34,0.25,0.6,0.6,0.75,1c0.26,0.74,0.36,1.52,0.3,2.3
			c-0.1,2.93-0.19,5.66-0.28,8.16c-0.18,5-0.33,9-0.44,11.83c-0.06,1.36-0.11,2.44-0.15,3.21c0,0.34,0,0.62,0,0.84
			C247.48,215.14,247.41,215.22,247.34,215.28z"/>
		<path fill="#FFFFFF" d="M259.37,223.23c-2.32,0.26-4.66,0.35-7,0.26c-2.34,0.09-4.68,0-7-0.26c2.32-0.26,4.66-0.34,7-0.26
			C254.71,222.89,257.05,222.97,259.37,223.23z"/>
		<path fill-rule="evenodd" clip-rule="evenodd" fill="#587CF8" d="M385.94,176c3.03-1.89,6.3-3.36,9.73-4.37l1.89-9.7l16.35-0.49
			l2.47,9.57c3.49,0.81,6.85,2.08,10,3.78l8.2-5.51l11.9,11.21l-5,8.51c1.88,3.04,3.35,6.31,4.37,9.73l9.7,1.9l0.48,16.34
			l-9.57,2.47c-0.81,3.49-2.08,6.85-3.78,10l5.52,8.2l-11.22,11.9l-8.51-5c-3.03,1.88-6.31,3.35-9.73,4.37l-1.89,9.7l-16.35,0.49
			l-2.5-9.65c-3.49-0.81-6.85-2.09-10-3.79l-8.19,5.52L367.91,240l5-8.51c-1.88-3.03-3.35-6.3-4.37-9.72l-9.7-1.9l-0.48-16.35
			L368,201c0.81-3.49,2.08-6.85,3.78-10l-5.52-8.2l11.17-11.8L385.94,176z"/>
		<path fill="#FFFFFF" d="M429.09,227.81c-0.26,0.04-0.53,0.05-0.79,0.05h-2.27l-8.37,0.08l-27.59,0.08h-2.23v-0.26
			c0-10.31,0.06-19.55,0.08-26.28c0-3.3,0.07-6,0.09-7.9c0-0.89,0-1.6,0-2.14c0-0.25,0.02-0.49,0.05-0.74
			c0.03,0.25,0.03,0.49,0,0.74c0,0.54,0,1.25,0.05,2.14c0,1.92,0.05,4.6,0.08,7.9c0,6.73,0.05,16,0.08,26.28l-0.26-0.26h2
			l27.59,0.07l8.37,0.09h2.27C428.53,227.68,428.81,227.73,429.09,227.81z"/>
		<path fill="#FFFFFF" d="M424.54,199.74c-0.37,0.42-0.78,0.81-1.22,1.17l-3.46,3c-2.94,2.55-7,6.05-11.55,9.88l-0.68,0.58
			l-0.18,0.15l-0.17-0.16l-5.13-4.77h0.32l-7.54,6.22l-2.19,1.75c-0.25,0.22-0.53,0.42-0.82,0.58c0.21-0.26,0.45-0.5,0.72-0.7
			l2.1-1.86l7.42-6.36l0.16-0.14l0.16,0.14l5.15,4.75h-0.34l0.69-0.58c4.52-3.83,8.64-7.28,11.64-9.76l3.57-2.91
			C423.61,200.36,424.06,200.03,424.54,199.74z"/>
		<path fill="#FFFFFF" d="M424.54,208.33c-0.14-0.85-0.2-1.7-0.18-2.56c-0.05-1.59-0.08-3.78-0.08-6.23l0.26,0.26h-0.44
			c-2.55,0-4.86,0-6.53-0.08c-0.91,0.02-1.81-0.04-2.71-0.18c0.9-0.15,1.8-0.21,2.71-0.19c1.67,0,4-0.07,6.53-0.07h0.7v0.26
			c0,2.45,0,4.64-0.08,6.23C424.74,206.63,424.68,207.48,424.54,208.33z"/>
		<path fill="#263238" d="M160,229.24c-0.54-0.86-0.93-1.8-1.16-2.78c-0.39-0.94-0.61-1.93-0.66-2.94c0.54,0.85,0.93,1.79,1.16,2.78
			C159.73,227.23,159.95,228.23,160,229.24z"/>
		<path fill="#263238" d="M170.64,250.64c-2.5-3.14-4.52-6.64-6-10.38c1.11,1.66,2.12,3.38,3.05,5.15
			C168.77,247.1,169.76,248.84,170.64,250.64z"/>
		<path fill="#263238" d="M186.24,268.71c-3.21-2.4-6.04-5.28-8.38-8.53c1.49,1.33,2.9,2.74,4.24,4.22
			C183.56,265.76,184.94,267.2,186.24,268.71z"/>
		<path fill="#263238" d="M206,282.1c-1.9-0.65-3.72-1.53-5.41-2.61c-1.78-0.93-3.43-2.08-4.93-3.42c1.78,0.91,3.51,1.91,5.19,3
			C202.62,279.99,204.34,281,206,282.1z"/>
		<path fill="#263238" d="M228.72,289.42c-4-0.31-7.92-1.26-11.62-2.82c1.98,0.3,3.92,0.76,5.82,1.38
			C224.89,288.3,226.83,288.78,228.72,289.42z"/>
		<path fill="#263238" d="M252.59,289.94c-1.96,0.48-3.98,0.71-6,0.71c-2,0.18-4.01,0.12-6-0.18c1.99-0.23,4-0.34,6-0.34
			C248.59,289.96,250.59,289.9,252.59,289.94z"/>
		<path fill="#263238" d="M275.92,284.79c-1.8,0.88-3.69,1.55-5.64,2c-1.91,0.63-3.88,1.03-5.88,1.2c1.88-0.68,3.8-1.24,5.74-1.7
			C272.03,285.67,273.96,285.17,275.92,284.79z"/>
		<path fill="#263238" d="M297.57,274.65c-3.23,2.39-6.79,4.3-10.57,5.67c1.68-1.07,3.43-2.04,5.23-2.91
			C293.96,276.39,295.74,275.47,297.57,274.65z"/>
		<path fill="#263238" d="M316.12,259.62c-1.16,1.64-2.52,3.13-4.06,4.42c-1.42,1.42-3,2.67-4.71,3.72c1.38-1.44,2.84-2.81,4.36-4.1
			C314.13,261.42,316,259.52,316.12,259.62z"/>
		<path fill="#263238" d="M329.33,239.77c-0.59,1.92-1.42,3.76-2.46,5.48c-0.89,1.8-2,3.48-3.32,5c-0.12-0.09,1.29-2.36,2.86-5.25
			C327.29,243.21,328.27,241.46,329.33,239.77z"/>
		<path fill="#263238" d="M337.53,217.3c-0.37,1.96-0.91,3.89-1.62,5.76c-0.54,1.93-1.25,3.81-2.12,5.61
			c0.37-1.97,0.91-3.9,1.62-5.77C335.95,220.97,336.66,219.1,337.53,217.3z"/>
		<path fill="#263238" d="M345.18,194.61c0.16,0.07-0.76,2.58-1.84,5.7c-0.57,1.92-1.31,3.78-2.21,5.57
			c0.4-1.96,0.98-3.88,1.72-5.74c0.53-1.57,1.1-3,1.53-3.95C344.58,195.63,344.85,195.1,345.18,194.61z"/>
		<path fill="#263238" d="M355.79,173.19c-0.84,1.81-1.78,3.57-2.83,5.27c-0.9,1.79-1.9,3.52-3,5.19c0.63-1.9,1.48-3.73,2.53-5.44
			C353.39,176.42,354.5,174.73,355.79,173.19z"/>
		<path fill="#263238" d="M371.76,155.52c0.09,0.12-2,1.78-4.42,4s-4.25,4.19-4.36,4.08c1.12-1.66,2.47-3.16,4-4.46
			C368.4,157.72,370,156.5,371.76,155.52z"/>
		<path fill="#263238" d="M393.32,145.42c-1.84,0.76-3.71,1.43-5.62,2c-3.1,1.11-5.57,2.15-5.63,2c1.71-1.06,3.54-1.9,5.46-2.5
			C389.39,146.18,391.34,145.68,393.32,145.42z"/>
		<path fill="#263238" d="M417,142.78c0,0.15-2.69,0.08-6,0.2s-6,0.33-6,0.18c1.96-0.48,3.98-0.72,6-0.7
			C413.01,142.3,415.02,142.41,417,142.78z"/>
		<path fill="#263238" d="M440.1,148.67c-1.92-0.55-3.81-1.2-5.66-1.95c-3.1-1.11-5.66-1.9-5.62-2c1.99,0.28,3.94,0.8,5.8,1.55
			C436.53,146.85,438.37,147.66,440.1,148.67z"/>
		<path fill="#263238" d="M460.46,161.13c-0.1,0.11-2.2-1.54-4.89-3.45s-4.92-3.38-4.85-3.51c1.83,0.82,3.56,1.85,5.15,3.08
			C457.56,158.35,459.1,159.65,460.46,161.13z"/>
		<path fill="#263238" d="M472.47,174.4c-1.37-1.47-2.56-3.08-3.56-4.82C470.46,170.89,471.67,172.54,472.47,174.4z"/>
		<path fill="#263238" d="M32.51,88.66c0,0,0.05-0.31,0.18-0.9l0.6-2.65c0.86-3.38,1.97-6.68,3.33-9.89c2.22-5.03,5-9.8,8.27-14.22
			c4.37-5.88,9.5-11.15,15.26-15.67c7.01-5.44,14.87-9.69,23.26-12.58c4.68-1.57,9.48-2.73,14.36-3.47
			c5.18-0.75,10.42-1.05,15.65-0.91c5.5,0.14,10.97,0.83,16.33,2.07c5.6,1.28,11.03,3.2,16.19,5.72c5.32,2.66,10.3,5.97,14.81,9.84
			c4.66,3.97,8.78,8.54,12.25,13.59c3.49,5.07,6.28,10.59,8.28,16.41c1.9,5.62,3.15,11.44,3.72,17.34c0.11,1.46,0.27,2.91,0.34,4.35
			s0.06,2.89,0.1,4.32s-0.08,2.87-0.11,4.29s-0.23,2.83-0.41,4.22c-0.73,5.47-2.18,10.81-4.3,15.9c-2.07,4.81-4.44,9.49-7.1,14
			c-2.57,4.38-5.06,8.63-7.46,12.74c-4.35,7.69-7.31,16.08-8.73,24.8c-0.67,3.79-1.15,7.6-1.42,11.44
			c-0.27,3.63-0.39,7.07-0.41,10.29c-0.14,5.49,0.12,10.99,0.78,16.45c0.49,3.44,1.25,6.83,2.28,10.15c0.37,1.14,0.68,2,0.91,2.55
			c0.11,0.29,0.21,0.5,0.27,0.64c0.03,0.07,0.06,0.14,0.08,0.22c-0.54-1.09-0.99-2.22-1.35-3.38c-1.08-3.31-1.88-6.71-2.39-10.15
			c-0.69-5.47-0.98-10.98-0.87-16.49c0-3.22,0.11-6.66,0.37-10.3c0.27-3.87,0.74-7.72,1.42-11.53c1.4-8.77,4.35-17.21,8.71-24.95
			l7.44-12.74c2.65-4.49,5-9.14,7.06-13.93c2.09-5.05,3.52-10.35,4.25-15.77c0.18-1.39,0.27-2.79,0.4-4.19s0.12-2.83,0.1-4.25
			s-0.07-2.86-0.1-4.3s-0.23-2.88-0.34-4.33c-0.57-5.88-1.82-11.68-3.73-17.27c-1.97-5.76-4.73-11.22-8.18-16.23
			c-3.46-5.01-7.56-9.54-12.2-13.48c-4.48-3.85-9.41-7.14-14.69-9.79c-5.12-2.51-10.52-4.42-16.08-5.69
			c-5.33-1.24-10.77-1.94-16.24-2.08c-5.2-0.15-10.41,0.15-15.56,0.88c-4.85,0.73-9.63,1.88-14.29,3.43
			c-8.35,2.86-16.18,7.07-23.17,12.46c-5.75,4.47-10.88,9.68-15.25,15.5c-3.29,4.41-6.08,9.16-8.33,14.18
			c-1.38,3.19-2.52,6.48-3.41,9.84l-0.65,2.63L32.51,88.66z"/>
	</g>
	<g id="freepik--Character--inject-56">
		<path fill="#587CF8" d="M275.9,456.39l15,5.26l-0.16,14.43c-7.18,2-8.19,5.66-8.19,5.66l15-0.34l13.06-26.57l-10.33-6.76
			L281,439.61"/>
		<g opacity="0.6">
			<polygon fill="#FFFFFF" points="310.63,454.83 297.57,481.4 282.55,481.74 284.19,479.45 296.39,478.5 308.44,453.39 			"/>
		</g>
		<path fill="#263238" d="M290.69,469.47c0.11,0.15,1-0.36,2.13-0.35s2,0.47,2.14,0.32s-0.73-1-2.14-1S290.55,469.36,290.69,469.47z
			"/>
		<path fill="#263238" d="M290.85,465.89c0.16,0.1,0.8-0.8,2-1.06s2.16,0.27,2.25,0.11s-0.13-0.32-0.55-0.54
			c-0.57-0.28-1.23-0.35-1.85-0.21c-0.62,0.14-1.18,0.49-1.57,1C290.83,465.55,290.78,465.85,290.85,465.89z"/>
		<path fill="#263238" d="M290.65,461.3c0.17,0.08,0.66-0.8,1.7-1.19s2-0.06,2.06-0.23s-0.16-0.28-0.58-0.43
			c-1.15-0.35-2.38,0.12-3,1.15C290.58,461,290.57,461.27,290.65,461.3z"/>
		<path fill="#263238" d="M289.55,461.29c0.18,0,0.07-1,0.52-2s1.18-1.6,1.09-1.76s-1.17,0.25-1.7,1.5S289.39,461.37,289.55,461.29z
			"/>
		<path fill="#263238" d="M287.77,459.6c0.22-0.64,0.34-1.32,0.35-2c0.07-0.72,0.14-1.45,0.2-2.2c0.08-0.46,0.08-0.94,0-1.4
			c-0.07-0.31-0.26-0.57-0.53-0.74c-0.31-0.19-0.69-0.19-1,0c-0.41,0.35-0.71,0.81-0.86,1.33c-0.15,0.44-0.24,0.9-0.27,1.36
			c-0.05,0.78,0.09,1.55,0.4,2.27c0.54,1.23,1.29,1.66,1.32,1.61c-0.33-0.57-0.62-1.16-0.88-1.77c-0.22-0.67-0.29-1.37-0.23-2.07
			c0.04-0.4,0.13-0.8,0.27-1.18c0.12-0.38,0.33-0.72,0.62-1c0.09-0.06,0.22-0.06,0.31,0c0.12,0.08,0.21,0.21,0.25,0.35
			c0.05,0.4,0.05,0.8,0,1.2c0,0.75,0,1.48-0.06,2.2C287.59,458.24,287.62,458.93,287.77,459.6z"/>
		<path fill="#263238" d="M287.53,460.25c0.06,0-0.39-0.69-1.54-1.07c-1.6-0.5-3.34,0.12-4.26,1.52c-0.07,0.19-0.04,0.4,0.06,0.58
			c0.1,0.15,0.24,0.26,0.4,0.33c0.23,0.08,0.46,0.13,0.7,0.14c0.41,0.04,0.81,0.04,1.22,0c0.69-0.06,1.36-0.23,2-0.5
			c1.07-0.47,1.57-1,1.52-1.08s-0.64,0.31-1.68,0.64c-0.61,0.19-1.24,0.3-1.87,0.34c-0.37,0.03-0.75,0.03-1.12,0
			c-0.17-0.01-0.34-0.04-0.5-0.1c-0.13-0.07-0.1-0.05-0.09-0.1c0.07-0.14,0.17-0.26,0.29-0.35c0.14-0.13,0.28-0.25,0.44-0.36
			c0.31-0.2,0.64-0.36,1-0.46c0.59-0.18,1.21-0.22,1.81-0.1C286.46,459.84,287,460.03,287.53,460.25z"/>
		<g opacity="0.6">
			<path fill="#FFFFFF" d="M298.65,454.64c0.02,0.98,0.84,1.76,1.82,1.74c0.98-0.02,1.76-0.84,1.74-1.82s-0.84-1.76-1.82-1.74
				C299.41,452.84,298.63,453.66,298.65,454.64z"/>
		</g>
		<path fill="#587CF8" d="M198.89,450.35L199.1,470c0,0-19.92,6.81-20.24,10.45l38.14,1l0.94-30.64L198.89,450.35z"/>
		<g opacity="0.6">
			<path fill="#FFFFFF" d="M210.93,468.66c0.74,0.26,1.17,1.04,1,1.81c-0.24,0.75-1.02,1.19-1.78,1c-0.8-0.27-1.26-1.09-1.08-1.91
				c0.31-0.79,1.2-1.19,2-0.88"/>
		</g>
		<g opacity="0.6">
			<path fill="#FFFFFF" d="M217,481.43v-3.09l-36.56,0.22c0,0-1.72,0.7-1.56,1.9L217,481.43z"/>
		</g>
		<path fill="#263238" d="M198.48,469.8c0,0.19,0.93,0.3,1.84,0.92s1.36,1.42,1.54,1.35s-0.08-1.15-1.18-1.89
			S198.45,469.63,198.48,469.8z"/>
		<path fill="#263238" d="M194.44,471.36c-0.05,0.17,0.75,0.51,1.37,1.32s0.77,1.64,1,1.63s0.33-1.05-0.45-2
			S194.45,471.18,194.44,471.36z"/>
		<path fill="#263238" d="M192.05,476.08c0.17,0.05,0.45-0.88,0-1.91s-1.32-1.46-1.4-1.3s0.44,0.71,0.8,1.56
			S191.86,476.06,192.05,476.08z"/>
		<path fill="#263238" d="M198.94,465.32c0.07,0.17,0.93-0.07,2,0s1.86,0.45,2,0.3s-0.67-0.85-1.91-0.94
			S198.85,465.17,198.94,465.32z"/>
		<g opacity="0.3">
			<polygon points="198.94,454.25 198.97,457.75 217.72,458.06 217.82,454.9 			"/>
		</g>
		<path fill="#263238" d="M199,461.35c0.62,0.17,1.29,0.17,1.91,0c0.69-0.11,1.36-0.3,2-0.56c0.38-0.16,0.75-0.35,1.11-0.56
			c0.22-0.11,0.41-0.26,0.59-0.43c0.26-0.27,0.31-0.68,0.11-1c-0.18-0.27-0.48-0.44-0.8-0.45c-0.24,0-0.48,0.02-0.72,0.08
			c-0.41,0.09-0.81,0.22-1.2,0.38c-0.65,0.27-1.26,0.65-1.79,1.11c-0.91,0.8-1.23,1.49-1.16,1.52s0.52-0.51,1.44-1.16
			c0.53-0.38,1.12-0.68,1.73-0.91c0.36-0.14,0.73-0.24,1.11-0.31c0.4-0.1,0.75-0.09,0.85,0.09s0,0.09,0,0.21
			c-0.13,0.13-0.27,0.23-0.43,0.32c-0.32,0.2-0.66,0.38-1,0.55c-0.6,0.28-1.22,0.5-1.86,0.66C200.25,461,199.62,461.15,199,461.35z"
			/>
		<path fill="#263238" d="M199.2,461.62c0.07,0,0.45-0.62,0.55-1.83c0.05-0.71-0.01-1.42-0.2-2.1c-0.12-0.4-0.27-0.8-0.46-1.17
			c-0.19-0.52-0.64-0.9-1.19-1c-0.35,0-0.67,0.2-0.82,0.51c-0.1,0.22-0.17,0.45-0.21,0.69c-0.06,0.43-0.06,0.86,0,1.29
			c0.08,0.72,0.35,1.41,0.76,2c0.72,1,1.49,1.25,1.51,1.19s-0.57-0.47-1.12-1.43c-0.31-0.56-0.5-1.17-0.56-1.81
			c-0.03-0.37-0.01-0.74,0.06-1.1c0.07-0.41,0.23-0.73,0.39-0.69s0.5,0.32,0.65,0.65c0.17,0.32,0.32,0.66,0.44,1
			c0.2,0.62,0.31,1.27,0.33,1.92C199.32,460.9,199.1,461.59,199.2,461.62z"/>
		<polygon fill="#263238" points="287.55,440.33 243.63,424 289.8,417.52 292.12,395.03 205.79,402.56 193.6,420.12 196.81,442.14 
			280.92,463.52 		"/>
		<path fill="#263238" d="M194.43,456.07l-4.2-80.37c0.23-7.83,4.49-14.98,11.27-18.91l0,0c5.61-3.25,12.35-3.93,18.5-1.88l56,18.68
			l30.74,7.9c0,0,5.24,12.92,2.16,22.95c-3,9.83-13.78,16.36-23.25,13.55c-11.77-3.48-65.79-26.71-65.79-26.71v65.44L194.43,456.07z
			"/>
		<path fill="#455A64" d="M284.82,418.21c-0.11-0.03-0.22-0.06-0.33-0.11l-1-0.37l-3.68-1.47l-13.47-5.49L222,392.45l-2.26-0.93
			l0.36-0.24c0,18.18-0.06,34.53-0.08,46.37c0,5.88-0.06,10.64-0.08,14c0,1.62,0,2.89,0,3.79c0,0.41,0,0.73,0,1
			c0.01,0.11,0.01,0.22,0,0.33c-0.02-0.11-0.02-0.22,0-0.33c0-0.25,0-0.57,0-1c0-0.9,0-2.17-0.05-3.79c0-3.33,0-8.09-0.08-14
			c0-11.84,0-28.19-0.08-46.37v-0.39l0.36,0.15l2.26,0.93l44.31,18.45l13.41,5.65l3.64,1.56l0.94,0.42
			C284.71,418.1,284.77,418.15,284.82,418.21z"/>
		<path fill="#455A64" d="M233.09,418.3c4.06,0.71,7.77,2.76,10.53,5.83c-0.11,0.12-2.11-1.74-5-3.34S233.05,418.46,233.09,418.3z"
			/>
		<path fill="#455A64" d="M215,380.4c1.21,1.69,2.22,3.52,3,5.44c0.93,1.85,1.63,3.81,2.09,5.83c-0.95-1.83-1.8-3.7-2.56-5.62
			C216.59,384.21,215.75,382.32,215,380.4z"/>
		<polygon fill="#FFBE9D" points="215.1,344.99 205.2,343.14 194.79,353.75 196.71,360.51 208.84,356.05 		"/>
		<path fill="#EB996E" d="M178.48,227.16l-2.68,0.22c0,0-4.83,0.79-4.83,0.9s-2.12,3.07-2.12,3.08l-1.95,3
			c0.93,0.32,1.96,0.13,2.72-0.5l-0.68,1.51c1.43,0.54,3.04-0.09,3.73-1.45c0.65-1.04,1.35-2.04,2.1-3l0.88-0.08
			c0.07,0.18,3.46,5,3.54,4.85s2.88-2.83,2.88-2.83L178.48,227.16z"/>
		<path fill="#FFBE9D" d="M185.67,248l0.79-14.84l-7.52-8.52l-8.27,0.5l-3.38,2.36c0.17,0.82,2.52,1.38,5.05,0.65
			c1.71-0.42,3.48-0.47,5.21-0.17l3.18,5.55l-2.1,2.32l2.69,14.23L185.67,248z"/>
		<path fill="#263238" d="M163.72,228.43h26.88c0.68,0,1.23,0.55,1.23,1.23l0,0c0,0.68-0.55,1.23-1.23,1.23h-26.88l-2.63-1.23
			L163.72,228.43z"/>
		<path fill="#FFBE9D" d="M177.33,252l-2.74-6.73c-0.35-0.86-0.5-1.78-0.46-2.7c0.12-2.42,0.3-7.28-0.07-8.39
			c-0.5-1.51-2.51-6.65-1.38-7.4s2.69-1,3.79,2s4.48,9.52,4.48,9.52l2.56,10.7L177.33,252z"/>
		<path fill="#EB996E" d="M180.61,237.62c-0.6-0.91-1.12-1.88-1.56-2.88c-0.9-1.78-2.12-4.37-3.42-7.05c-0.33-0.58-0.93-0.95-1.59-1
			c-0.61,0.02-1.15,0.42-1.34,1c-0.12,0.58-0.1,1.18,0.05,1.76c0.11,0.58,0.24,1.11,0.36,1.59c0.53,1.93,1.08,3.06,1,3.09
			s-0.2-0.24-0.46-0.75c-0.35-0.72-0.65-1.47-0.89-2.23c-0.15-0.49-0.3-1-0.43-1.61c-0.19-0.65-0.23-1.34-0.09-2
			c0.24-0.79,0.96-1.34,1.78-1.37c0.84,0.05,1.59,0.53,2,1.27c1.39,2.84,2.49,5.32,3.32,7.18
			C179.84,235.58,180.27,236.59,180.61,237.62z"/>
		<polygon fill="#FFBE9D" points="305.88,381.31 303.13,376.5 273.82,369.16 277.27,375.12 		"/>
		<path fill="#587CF8" d="M174.78,252l18.45,43.71c1.74,4.13,5.05,7.4,9.19,9.11l39.81,16.35l9.27-25.65l-38.77-13.72l-25.18-35.91
			L174.78,252z"/>
		<path fill="#587CF8" d="M234.72,295.92c0,1-4.3,32.84-4.3,39.34s12.44,13.55,12.44,13.55l13.63,28.93H305l-16.59-31.15l-7.5-25
			c-2.83-9.47-8.01-18.07-15.06-25l-8.11-5.43L234.72,295.92z"/>
		<path fill="#587CF8" d="M248.81,321l8.19,34.25l-41.12-11.59l-7,12.38l53.49,24.37c6.59,3.02,14.39,0.89,18.54-5.05l0,0
			c2.52-3.6,3.33-8.11,2.23-12.36l-12-46.8c-1.57-6.12-7.8-9.81-13.92-8.24c-0.27,0.07-0.54,0.15-0.81,0.24l0,0
			C251.07,310.01,247.85,315.44,248.81,321z"/>
		<path fill="#263238" d="M242.86,348.81c-0.17-0.04-0.33-0.11-0.47-0.2c-0.3-0.15-0.74-0.38-1.3-0.69c-1.57-0.89-3.08-1.9-4.51-3
			c-2.18-1.59-3.99-3.64-5.3-6c-1.32-2.85-1.23-6.35-0.75-9.78s1.21-6.68,1.63-9.66s0.77-5.66,0.94-7.93s0.2-4.1,0.19-5.37
			c-0.04-0.67-0.04-1.33,0-2c0.05,0.17,0.07,0.34,0.08,0.51c0,0.33,0.08,0.82,0.12,1.46c0.09,1.8,0.09,3.61,0,5.41
			c-0.12,2.28-0.4,5-0.84,8s-1.09,6.24-1.58,9.66s-0.56,6.8,0.66,9.5c1.26,2.32,3,4.35,5.1,5.95c1.4,1.12,2.87,2.15,4.39,3.1
			C242.27,348.42,242.88,348.78,242.86,348.81z"/>
		<path fill="#263238" d="M265.53,312c-1.79-0.66-3.65-1.1-5.54-1.33c-1.91-0.04-3.81,0.16-5.67,0.58c1.75-0.94,3.74-1.32,5.71-1.1
			C262.01,310.2,263.92,310.85,265.53,312z"/>
		<path fill="#263238" d="M260,293.52c0,0-0.24,0.32-0.74,0.83s-1.24,1.23-2.18,2.1c-1.87,1.74-4.52,4.08-7.56,6.52s-5.9,4.51-8,6
			c-1,0.72-1.92,1.29-2.52,1.66c-0.31,0.22-0.65,0.41-1,0.55c0.25-0.27,0.54-0.51,0.85-0.71l2.43-1.8c2-1.52,4.86-3.64,7.9-6.07
			s5.71-4.71,7.64-6.38l2.28-2C259.37,293.95,259.67,293.71,260,293.52z"/>
		<path fill="#263238" d="M212.72,281.86c0.05,0.15-1.44,0.78-3.09,1.87s-2.84,2.19-2.95,2.08c1.46-1.99,3.59-3.4,6-3.95
			L212.72,281.86z"/>
		<path fill="#FAFAFA" d="M252.75,336.54c-0.28,0.14-0.59,0.24-0.9,0.29c-0.83,0.21-1.67,0.36-2.52,0.44
			c-1.26,0.14-2.53,0.17-3.8,0.1c-3.12-0.16-6.17-0.93-9-2.25c-1.15-0.54-2.26-1.17-3.31-1.89c-0.7-0.48-1.37-1-2-1.57
			c-0.45-0.41-0.68-0.65-0.65-0.68s1.06,0.81,2.87,1.95c2.36,1.46,4.93,2.55,7.62,3.24c2.7,0.67,5.48,0.92,8.25,0.73
			C251.43,336.75,252.73,336.45,252.75,336.54z"/>
		<path fill="#FAFAFA" d="M255.53,351.58c-0.59,0.22-1.21,0.33-1.84,0.33c-1.51,0.11-3.03,0.01-4.51-0.3
			c-1.49-0.3-2.93-0.8-4.28-1.49c-0.58-0.23-1.11-0.57-1.56-1c1.92,0.84,3.91,1.51,5.94,2
			C251.35,351.44,253.44,351.59,255.53,351.58z"/>
		<path fill="#FAFAFA" d="M276.79,342.24c-0.23,0.19-0.49,0.34-0.76,0.45c-0.72,0.37-1.46,0.7-2.21,1
			c-4.99,1.96-10.38,2.7-15.71,2.17c-0.8-0.08-1.6-0.2-2.39-0.36c-0.3-0.03-0.59-0.11-0.86-0.23c0-0.09,1.26,0.1,3.28,0.22
			c5.27,0.32,10.56-0.41,15.55-2.15C275.6,342.68,276.75,342.16,276.79,342.24z"/>
		<path fill="#FAFAFA" d="M273,325.49c0,0.08-1.28-0.16-3.32-0.4c-2.65-0.32-5.33-0.43-8-0.34c-2.69,0.1-5.36,0.41-8,0.91
			c-2,0.39-3.25,0.72-3.28,0.64c0.26-0.16,0.54-0.27,0.84-0.34c0.55-0.19,1.36-0.41,2.36-0.66c2.63-0.61,5.31-0.97,8-1.07
			c2.7-0.1,5.4,0.07,8.07,0.49c1,0.17,1.85,0.34,2.41,0.49C272.4,325.25,272.71,325.34,273,325.49z"/>
		<path fill="#FAFAFA" d="M281.47,372.28c-0.4-0.02-0.79-0.1-1.17-0.23c-1.05-0.27-2.09-0.6-3.1-1
			c-6.76-2.46-12.75-6.66-17.36-12.18c-0.7-0.83-1.35-1.7-1.95-2.6c-0.25-0.31-0.46-0.64-0.62-1c0.08-0.05,1.05,1.34,2.85,3.37
			c4.71,5.32,10.61,9.46,17.21,12.09C279.86,371.75,281.49,372.19,281.47,372.28z"/>
		<path fill="#FAFAFA" d="M244.6,371.76c-0.16-0.94-0.2-1.89-0.12-2.84c0.09-2.3,0.42-4.58,1-6.8c0.58-2.23,1.41-4.38,2.46-6.43
			c0.4-0.87,0.9-1.68,1.5-2.42c-0.34,0.88-0.73,1.74-1.17,2.58c-0.94,2.07-1.7,4.21-2.28,6.4c-0.57,2.19-0.95,4.43-1.15,6.69
			C244.82,369.88,244.74,370.83,244.6,371.76z"/>
		<path fill="#FAFAFA" d="M219.85,360.51c-0.12-0.79-0.12-1.6,0-2.39c0.19-1.95,0.8-3.83,1.78-5.52c1.04-1.64,2.35-3.09,3.86-4.31
			c0.58-0.55,1.24-1.01,1.94-1.39c-0.51,0.61-1.08,1.16-1.69,1.67c-1.4,1.26-2.64,2.71-3.66,4.3c-0.94,1.64-1.57,3.43-1.86,5.3
			C220.16,358.96,220.04,359.74,219.85,360.51z"/>
		<path fill="#FAFAFA" d="M301.8,371.51c-0.92,0.52-1.89,0.95-2.89,1.28c-2.38,0.91-4.82,1.64-7.31,2.21
			c-2.49,0.59-5.04,0.86-7.59,0.82c-0.44,0-0.88-0.03-1.32-0.08c-0.34-0.03-0.67-0.07-1-0.14c-0.29-0.03-0.57-0.1-0.83-0.22
			c0-0.09,1.21,0.11,3.14,0.08c2.52-0.09,5.02-0.42,7.47-1c2.89-0.64,5.45-1.43,7.3-2C299.76,372.08,300.77,371.76,301.8,371.51z"/>
		<path fill="#FAFAFA" d="M290.82,351.74c0.05,0-0.26,0.64-1.1,1.25c-1.09,0.77-2.28,1.4-3.53,1.86c-1.24,0.49-2.52,0.86-3.82,1.12
			c-0.4,0.08-0.8,0.13-1.21,0.13c-0.29,0-0.47-0.11-0.44-0.12s0.59-0.08,1.57-0.37s2.28-0.7,3.71-1.25
			c1.22-0.45,2.39-1.01,3.51-1.67C290.36,352.18,290.74,351.7,290.82,351.74z"/>
		<path fill="#FAFAFA" d="M283.94,331.66c0,0,0,0.18-0.15,0.36c-0.23,0.26-0.5,0.48-0.8,0.65c-0.95,0.57-1.95,1.05-3,1.41
			c-1.04,0.4-2.12,0.69-3.22,0.87c-0.85,0.15-1.41,0-1.39,0s0.51-0.09,1.32-0.32s1.91-0.56,3.11-1c1.02-0.36,2.02-0.77,3-1.24
			c0.29-0.13,0.58-0.29,0.84-0.47C283.84,331.76,283.9,331.65,283.94,331.66z"/>
		<path fill="#FAFAFA" d="M248.29,321.05c-0.77,0.15-1.57,0.18-2.35,0.1c-1.9-0.09-3.78-0.35-5.63-0.79
			c-1.85-0.44-3.65-1.05-5.38-1.82c-0.74-0.28-1.43-0.67-2.06-1.14c0.07-0.15,3.28,1.46,7.56,2.46S248.29,320.89,248.29,321.05z"/>
		<path fill="#FAFAFA" d="M277.08,312c0.1,0.14-1.34,1.12-3.28,1.89s-3.64,1.12-3.67,0.94s1.56-0.63,3.47-1.42
			S277,311.92,277.08,312z"/>
		<path fill="#FAFAFA" d="M254.66,299c0.54,0.26,1.01,0.64,1.39,1.1c2.02,2.09,3.26,4.81,3.51,7.7c0.09,0.59,0.07,1.19-0.08,1.77
			C259.15,305.59,257.45,301.86,254.66,299z"/>
		<path fill="#FAFAFA" d="M223.15,313.23c-0.2-0.29-0.35-0.61-0.46-0.94c-0.34-0.89-0.61-1.81-0.79-2.75
			c-0.58-3.11-0.55-6.29,0.07-9.39c0.62-3.08,1.53-6.09,2.72-9c0.44-1.12,0.82-2,1.09-2.63c0.12-0.33,0.28-0.64,0.48-0.93
			c-0.06,0.34-0.15,0.68-0.29,1c-0.26,0.74-0.57,1.63-0.94,2.67c-1.08,2.93-1.93,5.94-2.55,9c-0.6,3.04-0.68,6.17-0.22,9.24
			C222.65,311.83,223.24,313.2,223.15,313.23z"/>
		<path fill="#FAFAFA" d="M199.64,303.61c0-0.34,0.06-0.68,0.17-1c0.21-0.91,0.47-1.8,0.79-2.68c2.06-5.82,5.65-10.98,10.4-14.93
			c0.71-0.6,1.46-1.16,2.24-1.67c0.27-0.21,0.56-0.38,0.88-0.51c0.05,0.08-1.13,0.91-2.88,2.46c-4.56,4.05-8.09,9.11-10.31,14.79
			C200.09,302.23,199.72,303.64,199.64,303.61z"/>
		<path fill="#FAFAFA" d="M203.42,268.49c0,0.09-1.14,0.14-2.9,0.64c-2.29,0.67-4.48,1.64-6.52,2.87c-2.04,1.23-3.93,2.7-5.64,4.36
			c-1.3,1.29-2,2.22-2,2.17s0.11-0.27,0.39-0.7c0.17-0.27,0.36-0.52,0.56-0.77c0.25-0.33,0.52-0.65,0.81-0.95
			c1.66-1.77,3.56-3.3,5.64-4.55c2.07-1.28,4.32-2.23,6.68-2.81c0.41-0.1,0.82-0.18,1.24-0.23c0.31-0.06,0.62-0.09,0.94-0.09
			C202.89,268.4,203.16,268.42,203.42,268.49z"/>
		<path fill="#FAFAFA" d="M194.09,254.85c-2.88-0.18-5.78,0.05-8.6,0.66c-2.78,0.79-5.42,1.98-7.87,3.51c0.58-0.63,1.25-1.16,2-1.58
			c1.77-1.1,3.71-1.92,5.73-2.43c2.02-0.52,4.1-0.71,6.18-0.58C192.4,254.44,193.26,254.58,194.09,254.85z"/>
		<path fill="#263238" d="M248.81,321c0.09,0.21,0.16,0.43,0.21,0.66c0.12,0.47,0.29,1.11,0.49,1.9l1.78,7.14
			c1.49,6.13,3.55,14.66,5.92,24.45l0.1,0.42l-0.41-0.12l-10.48-2.95l-30.62-8.7l0.22-0.08l-5.2,9l-1.44,2.44l-0.39,0.63
			c-0.04,0.07-0.09,0.14-0.14,0.2c0,0,0-0.08,0.1-0.23l0.33-0.65l1.36-2.49c1.21-2.19,2.93-5.29,5.05-9.1l0.07-0.13h0.15l30.65,8.61
			l10.44,3l-0.31,0.3c-2.3-9.8-4.3-18.35-5.74-24.49c-0.69-3-1.24-5.44-1.64-7.16l-0.41-1.93
			C248.85,321.48,248.82,321.24,248.81,321z"/>
		<path fill="#263238" d="M271.34,318.92c0.09,0.18,0.16,0.38,0.2,0.58c0.13,0.45,0.28,1,0.48,1.71c0.41,1.55,1,3.69,1.65,6.3
			c1.37,5.4,3.22,12.74,5.28,20.85c1,4.07,2,7.94,2.82,11.5c0.84,3.14,1.1,6.41,0.78,9.65c-0.26,2.19-1.04,4.28-2.29,6.1
			c-0.45,0.67-1,1.26-1.64,1.75c0.53-0.59,1.02-1.21,1.47-1.86c1.15-1.81,1.87-3.87,2.1-6c0.27-3.19-0.04-6.41-0.89-9.5
			c-0.88-3.53-1.84-7.41-2.86-11.48c-2-8.12-3.8-15.48-5.12-20.88l-1.5-6.34c-0.15-0.71-0.28-1.28-0.38-1.73
			C271.39,319.36,271.36,319.14,271.34,318.92z"/>
		<g opacity="0.3">
			<path d="M278.8,377.74c6,0.56,9.51-2.88,10.16-7.57c0.35-2.59-0.5-5.17-1.34-7.65c-3.69-10.81-7.43-21.72-13.28-31.54
				c2.21,9.82,5,19.25,7.24,29.08c0.7,2.73,1.02,5.54,0.94,8.36C282.39,371.86,281.07,375.15,278.8,377.74"/>
		</g>
		<path fill="#263238" d="M256.65,289.15c6.47,1.96,13.31-1.7,15.28-8.17c0.11-0.37,0.21-0.75,0.28-1.13c1.69,1.5,4,2.11,6.21,1.65
			c2.18-0.47,4.19-1.56,5.78-3.12c3.11-2.75,4.88-6.71,4.86-10.86c-0.11-4.19-2.69-7.93-6.57-9.52c-3.85-1.38-8.72,0.42-10.31,4.19
			c-0.72-2.14,1.12-5,0.68-7.25c-0.88-4.45-3.54-7.05-5.79-7.14"/>
		<path fill="#263238" d="M261.49,288c4.41-7.68,5.67-17.9,6.78-26.75c0.53-4.17,1.45-10.1-1.39-12.7c-3-2.79-3.33-7.09-6.83-9.25
			s-8.23-2.33-11.53,0.14"/>
		<path fill="#FFBE9D" d="M238.6,303.28v-12c0,0-12.55-2.28-13.29-12.28s-0.48-33.28-0.48-33.28l0,0
			c10.95-5.76,24.2-4.91,34.33,2.18l-0.5,35.4v11.53l-10.27,8.34l-9.81,7.72L238.6,303.28z"/>
		<path fill="#263238" d="M235,266.65c1.68-2.15,4.41-3,6.66-1.52c2.28,1.68,3.08,4.73,1.91,7.31c-1,1.86-2.73,3.22-4.78,3.74
			c0,0,4.52,8.24,7.4,10.43c3.42,2.6,5,3.88,9.25,4.38s3.66,0.54,6.06-3c1.62-2.41,2.45-5.27,2.35-8.17
			c0.13-7.42,0.26-14.84,0.38-22.25c0.16-2.68-0.01-5.36-0.51-8c-0.5-2.63-1.96-4.98-4.1-6.59c-2.38-1.6-5.38-1.73-8.08-2.63
			c-3.38-1.11-6.26-3.41-9.42-5.07s-7-2.64-10.21-1c-2.27,1.18-3.79,3.53-6,4.84c-3.14,1.86-7.44,1.45-9,6.24
			c-0.52,1.67-0.49,3.45,0.06,5.11c2.16,6.5,10,9.1,15.6,6.27c0.11,1.1-0.94,3.56,0.2,7c0.36,1.11,0.49,2.81,2.18,2.83"/>
		<path fill="#EB996E" d="M236.75,272.93c0,0,0,0.19,0.14,0.43c0.26,0.34,0.66,0.55,1.09,0.56c1.44-0.12,2.55-1.34,2.51-2.79
			c0.05-0.77-0.21-1.54-0.72-2.12c-0.4-0.46-0.94-0.78-1.53-0.91c-1-0.21-1.58,0.17-1.54,0.24s0.6,0,1.41,0.25
			c1.06,0.37,1.74,1.39,1.69,2.51c0.02,1.11-0.75,2.07-1.83,2.31C237.16,273.46,236.82,272.86,236.75,272.93z"/>
		<path fill="#455A64" d="M287.75,267.64c-0.05,0.33-0.15,0.65-0.29,0.95c-0.34,0.83-0.79,1.62-1.34,2.34
			c-1.8,2.44-4.47,4.08-7.46,4.58c-3.01,0.42-6.05-0.37-8.48-2.19c-0.72-0.54-1.38-1.17-1.94-1.87c-0.22-0.25-0.4-0.53-0.54-0.83
			c0.83,0.88,1.73,1.68,2.69,2.4c2.38,1.67,5.31,2.38,8.19,2c2.86-0.49,5.44-2.02,7.25-4.29
			C286.56,269.76,287.2,268.72,287.75,267.64z"/>
		<path fill="#455A64" d="M286.36,266c-0.08,0.27-0.2,0.53-0.35,0.77c-0.39,0.67-0.84,1.29-1.36,1.87c-1.71,1.93-3.99,3.29-6.5,3.88
			c-2.52,0.56-5.16,0.31-7.53-0.71c-0.71-0.31-1.38-0.69-2-1.14c-0.24-0.15-0.46-0.33-0.64-0.55c0.06-0.09,1,0.66,2.79,1.35
			c2.31,0.87,4.82,1.05,7.23,0.53c2.42-0.58,4.62-1.84,6.35-3.62C285.71,267,286.27,266,286.36,266z"/>
		<path fill="#455A64" d="M269.53,278.94c0,0-0.14,0.1-0.42,0.23c-0.42,0.18-0.86,0.3-1.32,0.35c-1.7,0.14-3.4-0.32-4.79-1.32
			c-2.01-1.51-3.56-3.53-4.51-5.86c-1.22-2.5-2.19-5.44-4.09-8c-0.89-1.24-2.07-2.25-3.43-2.93c-1.29-0.6-2.69-0.97-4.11-1.08
			c-2.73-0.28-5.25-0.1-7.36-0.39c-1.68-0.15-3.3-0.66-4.77-1.49c-0.39-0.24-0.75-0.51-1.09-0.82c-0.12-0.1-0.23-0.22-0.32-0.35
			c0,0,0.5,0.43,1.51,1c1.47,0.74,3.07,1.18,4.71,1.29c2.07,0.24,4.57,0,7.37,0.28c1.48,0.11,2.93,0.48,4.28,1.1
			c1.44,0.72,2.68,1.77,3.63,3.07c2,2.63,2.92,5.6,4.1,8.08c0.9,2.27,2.38,4.26,4.29,5.77c1.31,0.98,2.92,1.48,4.56,1.42
			C268.37,279.24,268.96,279.12,269.53,278.94z"/>
		<path fill="#455A64" d="M268.55,275.31c-0.15,0.04-0.3,0.06-0.45,0.05c-0.44,0-0.87-0.05-1.29-0.16c-1.53-0.48-2.89-1.4-3.9-2.65
			c-0.72-0.83-1.35-1.73-1.88-2.69c-0.58-1-1.1-2.17-1.68-3.35c-0.58-1.23-1.27-2.4-2.05-3.51c-0.42-0.58-0.9-1.1-1.43-1.58
			c-0.27-0.24-0.56-0.45-0.86-0.64c-0.29-0.23-0.61-0.42-0.94-0.58c-1.29-0.65-2.69-1.06-4.13-1.21c-1.35-0.16-2.72-0.23-4.08-0.21
			c-2.34,0.08-4.67,0.02-7-0.19c-1.58-0.16-3.12-0.62-4.53-1.35c-0.37-0.21-0.73-0.45-1.07-0.72c-0.13-0.08-0.24-0.18-0.34-0.29
			c0,0,0.53,0.32,1.5,0.83c1.41,0.65,2.93,1.04,4.48,1.17c2.33,0.15,4.67,0.18,7,0.07c1.39-0.03,2.77,0.03,4.15,0.18
			c1.5,0.15,2.96,0.58,4.31,1.26c0.36,0.16,0.69,0.37,1,0.61c0.33,0.2,0.63,0.43,0.92,0.69c0.55,0.5,1.05,1.05,1.49,1.65
			c0.8,1.14,1.49,2.35,2.07,3.61c0.57,1.19,1.08,2.33,1.63,3.35c0.5,0.95,1.09,1.84,1.78,2.66c0.95,1.23,2.22,2.16,3.68,2.69
			C267.46,275.15,268,275.25,268.55,275.31z"/>
		<linearGradient id="SVGID_1_" gradientUnits="userSpaceOnUse" x1="267.2803" y1="272.1334" x2="271.0025" y2="272.1334">
			<stop  offset="6.425827e-07" style="stop-color:#A770EF"/>
			<stop  offset="0.5139" style="stop-color:#CF8BF3"/>
			<stop  offset="1" style="stop-color:#FDB99B"/>
		</linearGradient>
		<path fill="url(#SVGID_1_)" d="M271,280.45c0,0-0.23-0.13-0.56-0.47c-0.45-0.47-0.86-0.99-1.21-1.54
			c-1.18-1.85-1.85-3.98-1.94-6.17c-0.09-2.19,0.41-4.37,1.45-6.3c0.3-0.59,0.66-1.14,1.08-1.65c0.3-0.35,0.49-0.53,0.52-0.5
			s-0.58,0.84-1.28,2.31c-1.84,3.87-1.66,8.4,0.48,12.11C270.33,279.65,271.05,280.39,271,280.45z"/>
	</g>
	<g id="freepik--Plant--inject-56">
		<linearGradient id="SVGID_2_" gradientUnits="userSpaceOnUse" x1="410.14" y1="399.59" x2="449.6781" y2="399.59">
			<stop  offset="6.425827e-07" style="stop-color:#A770EF"/>
			<stop  offset="0.5139" style="stop-color:#CF8BF3"/>
			<stop  offset="1" style="stop-color:#FDB99B"/>
		</linearGradient>
		<path fill="url(#SVGID_2_)" d="M410.14,418.9c6.9,2.41,15.9,0.25,21.8-4.06s10.15-10.48,13.91-16.74
			c1.61-2.68,3.18-5.46,3.68-8.54s-0.24-6.54-2.62-8.55c-3.71-3.12-9.39-1.53-13.6,0.87c-13.34,7.77-22.01,21.6-23.17,37"/>
		<linearGradient id="SVGID_3_" gradientUnits="userSpaceOnUse" x1="417.53" y1="434.0793" x2="461.5341" y2="434.0793">
			<stop  offset="6.425827e-07" style="stop-color:#A770EF"/>
			<stop  offset="0.5139" style="stop-color:#CF8BF3"/>
			<stop  offset="1" style="stop-color:#FDB99B"/>
		</linearGradient>
		<path fill="url(#SVGID_3_)" d="M417.55,435.41c4.14,5.47,11.26,7.9,18.11,8.22s13.62-1.58,20-4c2.33-0.89,4.87-2.11,5.67-4.47
			c0.51-1.85,0.05-3.83-1.22-5.27c-1.26-1.41-2.85-2.49-4.62-3.15c-6.42-2.56-13.5-2.94-20.16-1.09c-6.63,1.71-12.42,5.56-17.8,9.8"
			/>
		<linearGradient id="SVGID_4_" gradientUnits="userSpaceOnUse" x1="407.1403" y1="368.7331" x2="426.5804" y2="368.7331">
			<stop  offset="6.425827e-07" style="stop-color:#A770EF"/>
			<stop  offset="0.5139" style="stop-color:#CF8BF3"/>
			<stop  offset="1" style="stop-color:#FDB99B"/>
		</linearGradient>
		<path fill="url(#SVGID_4_)" d="M410,389.34c5.71,0.12,10-4.89,12.62-10c3.59-7.12,4.78-15.21,3.4-23.07
			c-0.52-2.92-1.63-6.06-4.24-7.47s-6.11-0.48-8.33,1.55s-3.45,4.93-4.33,7.81c-3.07,9.92-2.41,21.31,0.88,31.16"/>
		<linearGradient id="SVGID_5_" gradientUnits="userSpaceOnUse" x1="382.0193" y1="390.0455" x2="400.2113" y2="390.0455">
			<stop  offset="6.425827e-07" style="stop-color:#A770EF"/>
			<stop  offset="0.5139" style="stop-color:#CF8BF3"/>
			<stop  offset="1" style="stop-color:#FDB99B"/>
		</linearGradient>
		<path fill="url(#SVGID_5_)" d="M391.28,420.93c9.74-16.57,11.36-36.85,5.61-55.19c-0.94-3-2.7-6.38-5.81-6.57
			c-3.44-0.22-5.6,3.62-6.55,6.94c-3.34,11.64-2.63,24-1.9,36.11C383.09,409.67,385.63,416.03,391.28,420.93"/>
		<linearGradient id="SVGID_6_" gradientUnits="userSpaceOnUse" x1="348.4855" y1="415.5237" x2="381.15" y2="415.5237">
			<stop  offset="6.425827e-07" style="stop-color:#A770EF"/>
			<stop  offset="0.5139" style="stop-color:#CF8BF3"/>
			<stop  offset="1" style="stop-color:#FDB99B"/>
		</linearGradient>
		<path fill="url(#SVGID_6_)" d="M381.15,427.75c-3.67-11.5-12.35-20.72-23.62-25.06c-2.59-1-5.88-1.53-7.81,0.45
			s-1.31,5.18-0.09,7.61c2,3.91,5.14,7.06,8.31,10.07c2.89,2.75,5.88,5.5,9.53,7.1S377.82,429.92,381.15,427.75"/>
		<path fill="#263238" d="M441.52,385.17c0,0,0,0.06-0.17,0.15l-0.52,0.41l-2,1.53l-1.48,1.09c-0.54,0.41-1.09,0.89-1.7,1.38
			c-1.21,1-2.63,2.09-4.06,3.46l-2.3,2.08c-0.79,0.73-1.56,1.55-2.39,2.37c-1.67,1.61-3.29,3.49-5,5.43
			c-7.42,8.6-13.43,18.32-17.8,28.8c-0.95,2.43-1.91,4.72-2.6,6.94c-0.36,1.1-0.76,2.16-1.06,3.19s-0.57,2-0.84,3
			c-0.57,1.89-0.91,3.65-1.27,5.18c-0.17,0.76-0.35,1.47-0.48,2.13s-0.22,1.27-0.31,1.82c-0.19,1.06-0.34,1.9-0.45,2.5
			c-0.06,0.27-0.1,0.48-0.13,0.66l-0.06,0.22c-0.02-0.08-0.02-0.15,0-0.23c0-0.18,0.05-0.39,0.08-0.66
			c0.09-0.61,0.22-1.46,0.37-2.52c0.09-0.55,0.18-1.16,0.28-1.83s0.28-1.37,0.44-2.15c0.34-1.53,0.65-3.3,1.21-5.2
			c0.26-1,0.53-2,0.82-3s0.67-2.1,1-3.21c0.68-2.23,1.62-4.54,2.57-7c4.35-10.54,10.38-20.3,17.87-28.9c1.76-1.94,3.4-3.82,5.1-5.43
			c0.83-0.81,1.6-1.63,2.41-2.36l2.32-2.07c1.45-1.35,2.9-2.42,4.12-3.41c0.62-0.49,1.18-0.95,1.72-1.36l1.51-1.06
			c0.89-0.62,1.59-1.1,2.09-1.46l0.56-0.37C441.45,385.2,441.52,385.16,441.52,385.17z"/>
		<path fill="#263238" d="M454.42,431.11c-0.23-0.02-0.45-0.05-0.67-0.11c-0.44-0.08-1.07-0.25-1.9-0.39
			c-2.33-0.44-4.68-0.73-7.05-0.86c-15.87-0.98-31.3,5.44-41.8,17.38c-1.57,1.77-3.03,3.65-4.35,5.61
			c-0.49,0.68-0.81,1.25-1.07,1.61c-0.11,0.2-0.24,0.39-0.39,0.56c0.09-0.21,0.19-0.41,0.31-0.6c0.23-0.38,0.53-1,1-1.67
			c1.27-2.01,2.7-3.92,4.26-5.72c10.44-12.15,26.02-18.64,42-17.49c2.38,0.16,4.74,0.49,7.07,1c0.82,0.16,1.45,0.36,1.88,0.47
			C453.95,430.94,454.19,431.01,454.42,431.11z"/>
		<path fill="#263238" d="M418.46,355.44c0,0,0,0.09,0,0.26s-0.09,0.43-0.16,0.74c-0.15,0.68-0.36,1.64-0.64,2.85
			c-0.56,2.48-1.41,6-2.49,10.46c-2.14,8.82-5.26,21-8.51,34.43c-1.61,6.74-3.07,13.17-4.33,19s-2.29,11.17-3.07,15.64
			c-0.43,2.23-0.74,4.25-1,6s-0.54,3.31-0.73,4.57l-0.45,2.89l-0.12,0.74l-0.06,0.26c-0.02-0.09-0.02-0.17,0-0.26
			c0-0.2,0.05-0.45,0.08-0.76c0.09-0.69,0.21-1.66,0.37-2.9s0.36-2.8,0.65-4.58s0.57-3.81,1-6.05c0.74-4.48,1.76-9.79,3-15.67
			s2.69-12.32,4.3-19.05c3.25-13.47,6.42-25.61,8.65-34.41c1.1-4.37,2-7.92,2.63-10.42c0.31-1.2,0.55-2.15,0.72-2.83
			c0.09-0.3,0.15-0.54,0.2-0.73C418.48,355.56,418.47,355.5,418.46,355.44z"/>
		<path fill="#263238" d="M396.1,452c-0.03-0.07-0.06-0.14-0.07-0.21c0-0.16-0.08-0.35-0.13-0.59l-0.48-2.31
			c-0.41-2-1-4.91-1.58-8.52c-1.25-7.21-2.73-17.22-3.64-28.36c-0.44-5.57-0.69-10.89-0.8-15.73s0-9.2,0.12-12.86
			c0-1.82,0.16-3.48,0.24-4.93s0.18-2.7,0.27-3.72s0.16-1.77,0.22-2.34c0-0.25,0.05-0.45,0.07-0.61c-0.01-0.07-0.01-0.14,0-0.21
			c0.01,0.07,0.01,0.14,0,0.21c0,0.17,0,0.37,0,0.61c0,0.58-0.08,1.36-0.13,2.36s-0.14,2.26-0.19,3.72s-0.16,3.1-0.18,4.92
			c-0.11,3.66-0.12,8,0,12.84s0.38,10.14,0.82,15.7c0.91,11.12,2.34,21.13,3.51,28.35c0.58,3.61,1.08,6.52,1.44,8.54
			c0.16,1,0.29,1.75,0.39,2.32c0,0.24,0.07,0.44,0.09,0.61C396.09,451.86,396.1,451.93,396.1,452z"/>
		<path fill="#263238" d="M396.82,454.12c-0.11-0.18-0.2-0.37-0.26-0.57c-0.16-0.43-0.37-1-0.64-1.67l-0.46-1.2l-0.62-1.41
			l-0.71-1.61c-0.26-0.57-0.58-1.14-0.89-1.76l-1-1.93l-1.18-2c-0.78-1.43-1.79-2.85-2.77-4.39c-2.27-3.26-4.71-6.39-7.33-9.38
			c-2.66-2.95-5.47-5.76-8.42-8.42c-1.4-1.18-2.68-2.36-4-3.35l-1.85-1.47l-1.69-1.33c-1.1-0.84-2.14-1.54-3.05-2.15
			s-1.7-1.15-2.37-1.55l-1.5-1c-0.19-0.1-0.36-0.22-0.52-0.36c0.19,0.08,0.38,0.17,0.56,0.28l1.56,0.89
			c0.68,0.37,1.49,0.88,2.41,1.48s2,1.28,3.1,2.11l1.78,1.27l1.86,1.45c1.31,1,2.61,2.16,4,3.33c2.98,2.66,5.81,5.47,8.48,8.44
			c2.64,2.99,5.09,6.15,7.34,9.44c1,1.56,2,3,2.75,4.44l1.17,2.06c0.33,0.68,0.66,1.33,1,2s0.62,1.2,0.86,1.78s0.47,1.12,0.69,1.63
			s0.4,1,0.59,1.43l0.42,1.22l0.56,1.7C396.75,453.72,396.79,453.92,396.82,454.12z"/>
		<path fill="#263238" d="M437.91,404.39c0,0.07-1.18,0.08-3.08,0.18c-4.94,0.26-9.82,1.19-14.51,2.76c-1.8,0.59-2.9,1-2.93,1
			c0.22-0.17,0.47-0.3,0.73-0.4c0.49-0.23,1.2-0.53,2.09-0.87c2.34-0.87,4.74-1.54,7.19-2c2.45-0.46,4.93-0.72,7.42-0.76
			c1,0,1.73,0,2.26,0C437.36,404.29,437.64,404.32,437.91,404.39z"/>
		<path fill="#263238" d="M445.26,440.27c-2.01-4.47-5.43-8.16-9.74-10.49c0.71,0.18,1.38,0.47,2,0.87c3.05,1.76,5.49,4.4,7,7.58
			C444.87,438.87,445.12,439.56,445.26,440.27z"/>
		<path fill="#263238" d="M420.21,368.89c0.09,0.1-1.7,1.88-3.66,4.29s-3.35,4.51-3.46,4.44
			C414.83,374.25,417.26,371.27,420.21,368.89z"/>
		<path fill="#263238" d="M414.32,358.73c0.45,1.24,0.75,2.54,0.89,3.85c0.3,1.29,0.44,2.6,0.44,3.92
			c-0.45-1.24-0.75-2.54-0.89-3.85C414.46,361.36,414.32,360.05,414.32,358.73z"/>
		<path fill="#263238" d="M396.11,390.61c-0.81,2.06-1.76,4.07-2.85,6c-0.95,2-2.04,3.94-3.26,5.79c0.81-2.06,1.76-4.07,2.85-6
			C393.81,394.4,394.9,392.47,396.11,390.61z"/>
		<path fill="#263238" d="M385.27,379.79c0.93,1.37,1.74,2.82,2.41,4.34c0.8,1.45,1.47,2.97,2,4.54c-0.95-1.37-1.76-2.82-2.42-4.34
			C386.45,382.88,385.79,381.36,385.27,379.79z"/>
		<path fill="#263238" d="M369.33,416.81c0,0.13-2-0.25-4.37-0.41s-4.38-0.08-4.39-0.21C363.5,415.65,366.51,415.86,369.33,416.81z"
			/>
		<path fill="#263238" d="M380.22,449.53l5.42,28.47c0.36,1.88,2,3.25,3.92,3.25h16c1.95,0,3.62-1.41,3.94-3.34l4.71-28.42
			L380.22,449.53z"/>
		<polygon fill="#455A64" points="381.98,458.8 412.6,458.8 414.23,449.53 380.21,449.53 		"/>
		<polygon fill="#FAFAFA" points="381.98,458.8 382.62,462.18 412.13,462.18 412.6,458.8 		"/>
	</g>
</g>
</svg>
