<?xml version="1.0" encoding="utf-8"?>
<!-- Generator: Adobe Illustrator 25.0.0, SVG Export Plug-In . SVG Version: 6.00 Build 0)  -->
<svg version="1.1" id="Bold" xmlns="http://www.w3.org/2000/svg" xmlns:xlink="http://www.w3.org/1999/xlink" x="0px" y="0px"
	 viewBox="0 0 512 512" enable-background="new 0 0 512 512" xml:space="preserve">
<path fill="#587CF8" d="M17.66,284.5c-5.57,6.49-8.28,14.74-7.62,23.27c0.66,8.53,4.59,16.3,11.09,21.85L179.07,465
	c5.87,5.01,13.14,7.7,20.78,7.7c0.94,0,1.9-0.04,2.86-0.13c8.64-0.77,16.43-4.89,21.93-11.56l270.12-328.77
	c5.42-6.61,7.96-14.93,7.13-23.45c-0.85-8.51-4.93-16.19-11.54-21.63L440.9,46.55c-13.63-11.18-33.81-9.22-45.03,4.42L187.97,304
	l-83.54-71.57c-13.4-11.43-33.62-9.92-45.12,3.48L17.66,284.5z"/>
</svg>
