<?xml version="1.0" encoding="utf-8"?>
<!-- Generator: Adobe Illustrator 25.0.0, SVG Export Plug-In . SVG Version: 6.00 Build 0)  -->
<svg version="1.1" id="Capa_1" xmlns="http://www.w3.org/2000/svg" xmlns:xlink="http://www.w3.org/1999/xlink" x="0px" y="0px"
	 viewBox="0 0 512 512" style="enable-background:new 0 0 512 512;" xml:space="preserve">
<style type="text/css">
	.st0{fill:#587BF7;}
	.st1{fill:#FFFFFF;}
</style>
<g>
	<path class="st1" d="M287.7,113.6H99.1c-10.1,0-18.2,8.2-18.2,18.2s8.2,18.2,18.2,18.2h188.6c10.1,0,18.2-8.2,18.2-18.2
		S297.8,113.6,287.7,113.6z"/>
	<path class="st1" d="M490.4,462.2L416.2,388c17.5-30.8,12.4-70.1-13-95.5c-15-15-35-23.3-56.3-23.3s-41.3,8.3-56.3,23.3
		c-15,15-23.3,35-23.3,56.3c0,21.3,8.3,41.2,23.3,56.3c15,15,35,23.2,56.3,23.2c13.9,0,27.3-3.5,39.2-10.3l74.1,74.1
		c8.3,8.3,21.8,8.3,30.1,0C498.7,484,498.7,470.5,490.4,462.2z M380.4,382.3c-17.8,17.8-49.1,17.8-67,0c-18.5-18.5-18.5-48.5,0-67
		c8.9-8.9,20.8-13.8,33.5-13.8c12.7,0,24.5,4.9,33.5,13.8c8.9,8.9,13.9,20.8,13.9,33.5C394.3,361.5,389.4,373.4,380.4,382.3z"/>
	<path class="st1" d="M369.2,455.1l-311.7,0c-5,0-9-4-9-9v-392c0-5,4-9,9-9h313.8c5,0,9,4,9,9v187c0,9.9,8,17.9,17.9,17.9h0
		c9.9,0,17.9-8,17.9-17.9V54.1c0-24.7-20.1-44.8-44.8-44.8H57.5c-24.8,0-44.8,20.1-44.8,44.8v392c0,24.7,20.1,44.8,44.8,44.8h312.1
		c10.1,0,18.2-8.3,17.9-18.5C387.2,462.7,378.9,455.1,369.2,455.1z"/>
	<path class="st1" d="M287.7,216.5H99.1c-10.1,0-18.2,8.2-18.2,18.2c0,10.1,8.2,18.2,18.2,18.2h188.6c10.1,0,18.2-8.2,18.2-18.2
		C305.9,224.6,297.8,216.5,287.7,216.5z"/>
</g>
</svg>
