<?xml version="1.0" encoding="utf-8"?>
<!-- Generator: Adobe Illustrator 25.0.0, SVG Export Plug-In . SVG Version: 6.00 Build 0)  -->
<svg version="1.1" id="Capa_1" xmlns="http://www.w3.org/2000/svg" xmlns:xlink="http://www.w3.org/1999/xlink" x="0px" y="0px"
	 viewBox="0 0 512 512" style="enable-background:new 0 0 512 512;" xml:space="preserve">
<style type="text/css">
	.st0{fill:#587BF7;}
	.st1{fill:#FFFFFF;}
</style>
<path class="st0" d="M478.1,228.7c9.3-9,12.5-22.3,8.5-34.6c-4-12.3-14.4-21.1-27.3-23l-112-16.3c-2.2-0.3-4.1-1.7-5.1-3.7
	L292.2,49.6c-5.7-11.6-17.3-18.8-30.3-18.8c-12.9,0-24.5,7.2-30.3,18.8l-50.1,101.5c-1,2-2.9,3.4-5.1,3.7l-112,16.3
	c-12.8,1.9-23.3,10.7-27.3,23s-0.7,25.6,8.5,34.6l81.1,79c1.6,1.6,2.3,3.8,1.9,6l-19.1,111.6c-2.2,12.8,3,25.4,13.4,33
	c10.5,7.6,24.1,8.6,35.6,2.6l100.2-52.7c2-1,4.3-1,6.3,0l100.2,52.7c5,2.6,10.4,3.9,15.7,3.9c7,0,13.9-2.2,19.8-6.5
	c10.5-7.6,15.6-20.3,13.4-33l-19.1-111.6c-0.4-2.2,0.4-4.4,1.9-6L478.1,228.7z"/>
</svg>
