<?xml version="1.0" encoding="utf-8"?>
<!-- Generator: Adobe Illustrator 25.0.0, SVG Export Plug-In . SVG Version: 6.00 Build 0)  -->
<svg version="1.1" id="Capa_1" xmlns="http://www.w3.org/2000/svg" xmlns:xlink="http://www.w3.org/1999/xlink" x="0px" y="0px"
	 viewBox="0 0 512 512" style="enable-background:new 0 0 512 512;" xml:space="preserve">
<style type="text/css">
	.st0{fill:#587BF7;}
	.st1{fill:#FFFFFF;}
</style>
<g>
	<path class="st0" d="M196.8,390c-6.2-6.2-6.2-16.4,0-22.6L304.1,260V117.3c0-8.8,7.2-16,16-16s16,7.2,16,16v149.3
		c0,4.2-1.7,8.3-4.7,11.3l-112,112c-3.1,3.1-7.2,4.7-11.3,4.7S200,393.1,196.8,390z"/>
	<path class="st0" d="M320.1,0c12.3,0,24.4,0.9,36.3,2.6c7.9,1.1,13.8,7.9,13.8,15.8v0c0,9.7-8.6,17.2-18.2,15.8
		c-10.4-1.5-21-2.3-31.9-2.3C197,32,97.3,130.8,96.2,254C95,378.4,196,480,320.1,480c10.8,0,21.4-0.8,31.8-2.3
		c9.6-1.4,18.2,6.1,18.2,15.8v0c0,8-5.9,14.7-13.8,15.8c-11.8,1.7-24,2.6-36.3,2.6c-141.2,0-256-114.8-256-256S179,0,320.1,0z"/>
</g>
</svg>
