<?xml version="1.0" encoding="utf-8"?>
<!-- Generator: Adobe Illustrator 25.0.0, SVG Export Plug-In . SVG Version: 6.00 Build 0)  -->
<svg version="1.1" id="Layer_1" xmlns="http://www.w3.org/2000/svg" xmlns:xlink="http://www.w3.org/1999/xlink" x="0px" y="0px"
	 viewBox="0 0 467.6 334.8" style="enable-background:new 0 0 467.6 334.8;" xml:space="preserve">
<style type="text/css">
	.st0{fill:#EBEBEB;}
	.st1{fill:#E0E0E0;}
	.st2{fill:#F5F5F5;}
	.st3{fill:#263238;}
	.st4{fill:#455A64;}
	.st5{fill:#FFFFFF;}
	.st6{fill:#587BF7;}
	.st7{opacity:0.3;}
	.st8{opacity:0.5;}
	.st9{fill:url(#SVGID_1_);}
	.st10{fill:url(#SVGID_2_);}
	.st11{fill:#EB996E;}
	.st12{opacity:0.4;}
	.st13{fill:#FFBE9D;}
	.st14{fill:#FAFAFA;}
	.st15{opacity:0.2;}
	.st16{fill:url(#SVGID_3_);}
	.st17{fill:url(#SVGID_4_);}
	.st18{fill:url(#SVGID_5_);}
	.st19{fill:url(#SVGID_6_);}
</style>
<g id="freepik--background-complete--inject-2">
	<path class="st0" d="M408.3,25.6c0,0-7.2-5.6-17.8,12s-14.8,27.7-14.8,27.7s-2.7,3.6-5.2,1c-2.4-2.6-5.5-10-10.1-9.1
		c-4.7,1-6.6,6-6.3,13.7s0.5,24.4,0.5,25.9s-1,3.6-3,2s-12.8-15.6-19.2-10s-1.9,26.7-1.5,29s-0.1,3.2-1.2,3.7s-4.3-4.6-7.6-8.4
		s-7.7-7.8-11.1-4.2s-5.5,19,7.5,45.2l6.8,11.8l13.7,0.2c29.3-1.3,41.8-10.6,43.2-15.3s-4.1-6.7-9.1-7.7s-10.9-1.4-11-2.6
		s0.5-2.1,2.7-2.9s22.9-7,24.7-15.3s-15.7-11-18-12s-0.9-2.9,0.4-3.6s16.1-8.7,22.9-12.1s10.4-7.5,8.9-12.1
		c-1.4-4.4-9.3-3.6-12.8-4.4s-1.6-5-1.6-5s6.9-8.7,17.2-26.4s1.6-21.4,1.6-21.4"/>
	<path class="st1" d="M398.8,41.3c0,0-0.1,0.1-0.2,0.4l-0.6,1.1c-0.5,1-1.4,2.4-2.4,4.2c-2.1,3.6-5.1,8.9-8.9,15.4
		c-7.6,13-18.2,30.8-30,50.5s-22.5,37.5-30.1,50.5l-9,15.4l-2.5,4.2l-0.6,1.1c-0.1,0.2-0.2,0.4-0.2,0.4s0.1-0.1,0.2-0.4
		s0.4-0.6,0.6-1.1l2.4-4.2c2.1-3.6,5.1-8.9,8.9-15.4c7.6-13,18.2-30.8,30-50.5s22.5-37.5,30.1-50.5l9-15.3l2.5-4.2l0.6-1.1
		C398.7,41.4,398.8,41.3,398.8,41.3z"/>
	<path class="st1" d="M364.3,67.7c0.1,0.3,0.2,0.6,0.3,0.9c0.1,0.6,0.4,1.5,0.6,2.6c0.5,2.2,1,5.3,1.6,8.7s1,6.4,1.4,8.7
		c0.2,1.1,0.3,1.9,0.4,2.6c0.1,0.3,0.1,0.7,0.1,1c-0.1-0.3-0.2-0.6-0.3-0.9c-0.1-0.6-0.4-1.5-0.6-2.6c-0.4-2.2-1-5.3-1.5-8.7
		s-1.1-6.4-1.4-8.7c-0.2-1-0.3-1.9-0.5-2.6C364.4,68.3,364.3,68,364.3,67.7z"/>
	<path class="st1" d="M369.9,92.6c0-0.1,6.3-1.5,14-3.2s14.1-2.9,14.1-2.8s-6.3,1.5-14,3.2S369.9,92.7,369.9,92.6z"/>
	<path class="st1" d="M350.4,122c0.3,0,0.7,0,1,0l2.7,0.2c2.3,0.2,5.5,0.4,9,0.5s6.7,0.1,9,0.1h2.7c0.3,0,0.7,0,1,0
		c-0.3,0.1-0.7,0.1-1,0.1c-0.6,0-1.6,0.1-2.7,0.1c-2.3,0.1-5.5,0.1-9,0s-6.7-0.4-9-0.6c-1.1-0.1-2.1-0.2-2.7-0.3
		C351.1,122.1,350.8,122,350.4,122z"/>
	<path class="st1" d="M340.4,100.6c0.2,0.2,0.4,0.5,0.5,0.8c0.3,0.6,0.7,1.4,1.2,2.2c1,1.9,2.3,4.5,3.7,7.5s2.7,5.6,3.6,7.5
		c0.4,0.9,0.8,1.7,1,2.3c0.1,0.3,0.3,0.6,0.3,0.9c-0.2-0.2-0.4-0.5-0.5-0.8c-0.3-0.6-0.7-1.4-1.2-2.2c-1-1.9-2.3-4.5-3.7-7.5
		s-2.7-5.6-3.6-7.5l-1-2.3C340.6,101.2,340.5,100.9,340.4,100.6z"/>
	<path class="st1" d="M319.9,124.3c0.2,0.3,0.4,0.7,0.6,1l1.5,2.9c1.2,2.4,2.9,5.8,4.8,9.5s3.5,7.1,4.7,9.6l1.4,2.9
		c0.2,0.3,0.3,0.7,0.5,1.1c-0.2-0.3-0.4-0.7-0.6-1l-1.5-2.9c-1.2-2.4-3-5.8-4.8-9.5s-3.5-7.1-4.7-9.6l-1.4-2.9
		C320.2,125.1,320,124.7,319.9,124.3z"/>
	<path class="st1" d="M333.2,150.6c0.4,0,0.8,0,1.3,0l3.5,0.1c2.9,0.1,7,0.2,11.4,0.3s8.5,0,11.4-0.1l3.5-0.1c0.4,0,0.8,0,1.3,0
		c-0.4,0.1-0.8,0.1-1.3,0.1c-0.8,0.1-2,0.1-3.5,0.2c-2.9,0.1-7,0.3-11.4,0.2s-8.5-0.2-11.4-0.4c-1.5-0.1-2.6-0.2-3.5-0.3
		C334,150.8,333.6,150.7,333.2,150.6z"/>
	
		<rect x="40.3" y="59.1" transform="matrix(1 -5.410494e-03 5.410494e-03 1 -1.0104 0.2364)" class="st1" width="5.8" height="255.5"/>
	
		<rect x="54.1" y="59" transform="matrix(1 -5.410494e-03 5.410494e-03 1 -1.0098 0.3109)" class="st1" width="5.8" height="255.5"/>
	
		<rect x="174.4" y="58.4" transform="matrix(1 -5.410494e-03 5.410494e-03 1 -1.0046 0.9616)" class="st1" width="5.8" height="255.5"/>
	
		<rect x="188.1" y="58.3" transform="matrix(1 -5.410494e-03 5.410494e-03 1 -1.004 1.0361)" class="st1" width="5.8" height="255.5"/>
	
		<rect x="39.6" y="58.7" transform="matrix(1 -5.410494e-03 5.410494e-03 1 -0.3317 0.6308)" class="st1" width="153.5" height="5.8"/>
	
		<rect x="39.9" y="111.2" transform="matrix(1 -5.410494e-03 5.410494e-03 1 -0.6045 0.633)" class="st1" width="153.5" height="1.7"/>
	
		<rect x="40.2" y="160.6" transform="matrix(1 -5.410494e-03 5.410494e-03 1 -0.8721 0.6351)" class="st1" width="153.6" height="1.7"/>
	
		<rect x="40.4" y="210.1" transform="matrix(1 -5.410494e-03 5.410494e-03 1 -1.1395 0.6373)" class="st1" width="153.6" height="1.7"/>
	
		<rect x="40.7" y="259.5" transform="matrix(1 -5.410494e-03 5.410494e-03 1 -1.4071 0.6395)" class="st1" width="153.6" height="1.7"/>
	
		<rect x="104.6" y="230.1" transform="matrix(0.9999 -9.999500e-03 9.999500e-03 0.9999 -2.4388 1.1943)" class="st0" width="27.2" height="28.9"/>
	
		<rect x="130" y="230.5" transform="matrix(1 -5.410494e-03 5.410494e-03 1 -1.3231 0.7808)" class="st2" width="27.2" height="28.9"/>
	<path class="st1" d="M102.9,238.6c18.1,0.2,36.2,0,54.3-0.3c0.1,0,0.2-0.1,0.2-0.2c0-0.1-0.1-0.2-0.2-0.2
		c-18.1-0.1-36.2,0-54.3,0.3c-0.1,0-0.2,0.1-0.2,0.2C102.7,238.6,102.8,238.6,102.9,238.6L102.9,238.6z"/>
	
		<rect x="103.5" y="121.4" transform="matrix(0.9999 -9.999500e-03 9.999500e-03 0.9999 -1.3142 1.141)" class="st0" width="19.9" height="21.1"/>
	
		<rect x="123.3" y="121.2" transform="matrix(0.9999 -9.999500e-03 9.999500e-03 0.9999 -1.3112 1.3393)" class="st2" width="19.9" height="21.1"/>
	<path class="st1" d="M102.3,127.9c13.2,0.1,26.5,0,39.8-0.2c0.1,0,0.2-0.1,0.2-0.3c0-0.1-0.1-0.2-0.2-0.2
		c-13.2-0.1-26.5,0-39.8,0.2c-0.1,0-0.2,0.1-0.2,0.2C102.1,127.8,102.2,127.9,102.3,127.9L102.3,127.9L102.3,127.9z"/>
	
		<rect x="91.1" y="142.3" transform="matrix(0.9999 -9.999500e-03 9.999500e-03 0.9999 -1.5034 1.0999)" class="st0" width="36.2" height="17.2"/>
	
		<rect x="127.2" y="141.9" transform="matrix(0.9999 -9.999500e-03 9.999500e-03 0.9999 -1.4979 1.4601)" class="st2" width="36.2" height="17.2"/>
	<path class="st1" d="M89.9,147.7c24,0.3,48.2,0,72.2-0.4c0.1,0,0.2-0.1,0.2-0.3c0-0.1-0.1-0.2-0.2-0.2c-24.1-0.1-48.2-0.1-72.2,0.4
		c-0.1,0-0.2,0.1-0.2,0.2C89.7,147.7,89.8,147.7,89.9,147.7z"/>
	<rect x="91" y="75.9" transform="matrix(1 -5.410494e-03 5.410494e-03 1 -0.5053 0.5181)" class="st0" width="9.1" height="35.4"/>
	
		<rect x="81.7" y="85.6" transform="matrix(1 -5.410494e-03 5.410494e-03 1 -0.5314 0.4682)" class="st1" width="9.1" height="25.8"/>
	
		<rect x="100.2" y="82.5" transform="matrix(1 -5.410494e-03 5.410494e-03 1 -0.5226 0.5817)" class="st1" width="14.1" height="28.7"/>
	
		<rect x="115.1" y="81.8" transform="matrix(0.9999 -9.999500e-03 9.999500e-03 0.9999 -0.9562 1.1779)" class="st0" width="4.5" height="28.7"/>
	
		<rect x="118.6" y="89.1" transform="matrix(1 -5.410494e-03 5.410494e-03 1 -0.5399 0.6553)" class="st1" width="4.5" height="22.1"/>
	
		<rect x="70.9" y="188.8" transform="matrix(0.3793 -0.9253 0.9253 0.3793 -124.5984 201.0262)" class="st1" width="33.2" height="9.1"/>
	
		<rect x="96.9" y="174.9" transform="matrix(1 -5.410494e-03 5.410494e-03 1 -1.0408 0.5518)" class="st0" width="9.1" height="35.5"/>
	
		<rect x="110.7" y="181.5" transform="matrix(1 -5.410494e-03 5.410494e-03 1 -1.0578 0.64)" class="st1" width="14.1" height="28.7"/>
	
		<rect x="107.6" y="170.9" transform="matrix(1 -5.410494e-03 5.410494e-03 1 -1.0294 0.5931)" class="st0" width="3.1" height="39.4"/>
	<rect x="106" y="177" transform="matrix(1 -5.410494e-03 5.410494e-03 1 -1.0461 0.5807)" class="st2" width="1.6" height="33.2"/>
	
		<rect x="125" y="208.6" transform="matrix(1 -5.410451e-03 5.410451e-03 1 -1.1307 0.7694)" class="st2" width="33.2" height="1.6"/>
	
		<rect x="124.9" y="199.4" transform="matrix(1 -5.410494e-03 5.410494e-03 1 -1.1016 0.7765)" class="st0" width="36.2" height="9.2"/>
	
		<rect x="126.2" y="189.4" transform="matrix(0.9999 -9.999500e-03 9.999500e-03 0.9999 -1.9333 1.4174)" class="st1" width="29.1" height="9.2"/>
</g>
<g id="freepik--Floor--inject-2">
	<path class="st3" d="M460.5,314.7c0,0.1-101.3,0.3-226.3,0.3S7.8,314.8,7.8,314.7s101.3-0.3,226.4-0.3S460.5,314.5,460.5,314.7z"/>
</g>
<g id="freepik--Device--inject-2">
	<path class="st4" d="M149.8,24.7h164.5c6.4,0,11.5,5.2,11.5,11.6v266.5c0,6.4-5.2,11.5-11.5,11.5H149.8c-6.4,0-11.6-5.2-11.6-11.5
		V36.3C138.2,29.9,143.4,24.7,149.8,24.7z"/>
	<path class="st3" d="M237.8,300.9c-0.3,4-3.7,7-7.7,6.7c-4-0.3-7-3.7-6.7-7.7c0.3-3.8,3.4-6.7,7.2-6.7
		C234.7,293.3,237.9,296.8,237.8,300.9z"/>
	<path class="st3" d="M205,33.1h54.1c0.7,0,1.2,0.5,1.2,1.2v0.8c0,0.7-0.5,1.2-1.2,1.2H205c-0.7,0-1.2-0.5-1.2-1.2v-0.8
		C203.8,33.6,204.3,33.1,205,33.1z"/>
	<rect x="144.6" y="41.4" class="st3" width="175.8" height="244.4"/>
	<path class="st5" d="M274.8,260.5l0.6-0.1c0.6,0,1.3-0.1,1.9-0.2c1-0.2,2-0.5,2.9-1c1.3-0.6,2.4-1.4,3.4-2.4
		c1.3-1.2,2.2-2.7,2.9-4.4c0.7-1.9,1-4,0.8-6.1c-0.5-5.2-4.1-9.6-9.1-11c-0.7-0.2-1.4-0.3-2.1-0.4c-0.7,0-1.4-0.1-2.2-0.1h-4.6h-9.7
		h-21.4h-48.9c-2.1,0-4.2,0.6-6.1,1.6c-3.7,2.1-6.1,5.9-6.3,10.2c-0.2,2,0.1,4.1,0.9,6c0.8,1.8,2,3.5,3.5,4.8
		c1.5,1.3,3.3,2.1,5.2,2.6c1.9,0.3,3.8,0.5,5.8,0.4h5.7l39.9,0.1l26.9,0.1l7.3,0h1.9L274.8,260.5l-0.6,0h-1.9h-7.3l-26.9,0.1
		l-39.9,0.1h-8.6c-0.5,0-1,0-1.5-0.1c-0.5-0.1-1-0.1-1.5-0.3c-2-0.5-3.8-1.4-5.4-2.7c-1.6-1.3-2.8-3-3.6-5c-0.8-2-1.1-4.1-0.9-6.2
		c0.1-2.1,0.8-4.2,1.9-6c1.2-1.9,2.8-3.4,4.7-4.4c1.9-1.1,4.1-1.6,6.3-1.6h48.9h21.4h14.2c0.7,0,1.5,0,2.2,0.1
		c0.7,0.1,1.4,0.2,2.1,0.4c5.2,1.5,8.9,6.1,9.3,11.5c0.2,2.1-0.1,4.2-0.9,6.2c-0.7,1.7-1.7,3.2-2.9,4.4c-1,1-2.2,1.8-3.5,2.4
		c-0.9,0.5-1.9,0.8-3,1c-0.6,0.1-1.3,0.2-1.9,0.2C275,260.5,274.8,260.5,274.8,260.5z"/>
	<path class="st5" d="M210,245.9l-0.6,0.8c-0.4-0.5-1.1-0.8-1.8-0.8c-1.2-0.1-2.3,0.8-2.4,2.1c-0.1,1.2,0.8,2.3,2.1,2.4
		c0.1,0,0.2,0,0.3,0c0.7,0,1.3-0.3,1.8-0.7l0.6,0.7c-0.7,0.6-1.5,1-2.4,1c-1.8,0.1-3.3-1.2-3.4-3c-0.1-1.8,1.2-3.3,3-3.4
		c0.1,0,0.2,0,0.4,0C208.4,244.9,209.3,245.3,210,245.9z"/>
	<path class="st5" d="M217,248.1c0.1,1.8-1.3,3.4-3.2,3.5c-1.8,0.1-3.4-1.3-3.5-3.2c-0.1-1.8,1.3-3.4,3.2-3.5c0.1,0,0.1,0,0.2,0
		C215.5,244.9,217,246.3,217,248.1C217,248.1,217,248.1,217,248.1z M211.4,248.1c0,1.2,1,2.2,2.3,2.2c1.2,0,2.2-1,2.2-2.3
		s-1-2.2-2.3-2.2C212.4,245.9,211.4,246.9,211.4,248.1z"/>
	<path class="st5" d="M222.6,251.3l-3.4-4.5v4.5h-1.1V245h1l3.4,4.5V245h1v6.3H222.6z"/>
	<path class="st5" d="M226.4,245.9v1.8h2.9v1h-2.9v2.6h-1.1V245h4.2v1L226.4,245.9z"/>
	<path class="st5" d="M230.5,251.3V245h1.1v6.3H230.5z"/>
	<path class="st5" d="M236,249.3h-1.8v1.9h-1v-6.3h2.6c1.6,0,2.5,0.8,2.5,2.1c0.1,0.9-0.5,1.7-1.3,2l1.4,2.1h-1.2L236,249.3z
		 M235.7,248.4c1,0,1.5-0.4,1.5-1.3s-0.6-1.2-1.5-1.2h-1.5v2.5H235.7z"/>
	<path class="st5" d="M245.4,251.3v-4.7l-2,4h-0.7l-2-4v4.7h-1V245h1.3l2.1,4.2l2.1-4.2h1.3v6.3H245.4z"/>
	<path class="st5" d="M249.1,245.9v1.7h3.1v1h-3.1v1.7h3.5v1H248V245h4.5v1L249.1,245.9z"/>
	<path class="st5" d="M256.6,245c1.7,0,3.2,1.4,3.2,3.1s-1.4,3.2-3.1,3.2c0,0,0,0,0,0H254V245H256.6z M255,250.3h1.5
		c1.2,0,2.1-0.9,2.2-2.1c0,0,0-0.1,0-0.1c0-1.2-0.9-2.2-2.1-2.2c0,0-0.1,0-0.1,0H255V250.3z"/>
</g>
<g id="freepik--Envelope--inject-2">
	<polygon class="st6" points="164.6,126.5 297.7,125.6 301.5,216.1 163.6,214.8 	"/>
	<polyline class="st6" points="164.6,126.5 232.2,71.8 297.7,125.6 	"/>
	<g class="st7">
		<polyline points="164.6,126.5 232.2,71.8 297.7,125.6 		"/>
	</g>
	<path class="st3" d="M163.6,214.8c-0.2-0.1,10.5-11.8,23.8-26s24.2-25.6,24.4-25.4s-10.5,11.8-23.8,26S163.7,215,163.6,214.8z"/>
	<path class="st3" d="M301.5,216.1c-0.2,0.1-10.5-11.2-23.2-25.5s-22.7-25.9-22.6-26s10.5,11.2,23.2,25.5S301.6,216,301.5,216.1z"/>
	<g class="st8">
		<polyline points="297.7,125.6 230.9,179 164.6,126.5 		"/>
	</g>
	<polygon class="st0" points="171.3,131.5 171.1,92.8 287.7,89.9 289,132.3 230.9,178.3 	"/>
	<linearGradient id="SVGID_1_" gradientUnits="userSpaceOnUse" x1="203.427" y1="135.3736" x2="261.46" y2="135.3736">
		<stop  offset="6.425827e-07" style="stop-color:#A770EF"/>
		<stop  offset="0.3932" style="stop-color:#CF8BF3"/>
		<stop  offset="1" style="stop-color:#FDB99B"/>
	</linearGradient>
	<path class="st9" d="M232.5,164.4c-16,0-29-12.9-29.1-28.9c0-1.1,0.1-2.2,0.2-3.4c1.8-15.9,16.2-27.4,32.1-25.6
		c15.9,1.8,27.4,16.2,25.6,32.1l0,0l0,0C259.6,153.3,247.2,164.4,232.5,164.4L232.5,164.4z M232.4,107.4c-15.5,0-28,12.6-28,28
		c0,15.5,12.6,28,28,28c14.2,0,26.2-10.7,27.8-24.8l0,0c1.8-15.4-9.3-29.2-24.6-31c0,0,0,0,0,0C234.5,107.4,233.5,107.3,232.4,107.4
		L232.4,107.4z"/>
	<linearGradient id="SVGID_2_" gradientUnits="userSpaceOnUse" x1="212.7231" y1="136.0345" x2="252.9031" y2="136.0345">
		<stop  offset="6.425827e-07" style="stop-color:#A770EF"/>
		<stop  offset="0.3932" style="stop-color:#CF8BF3"/>
		<stop  offset="1" style="stop-color:#FDB99B"/>
	</linearGradient>
	<polygon class="st10" points="212.7,139.4 217.6,133.5 228.9,141.6 247.3,119.9 252.9,124.8 229.2,152.1 	"/>
</g>
<g id="freepik--Character--inject-2">
	<path class="st3" d="M358,178.7c0.2,0.6,0.8,1,1.5,0.8c0.1,0,0.2-0.1,0.3-0.1c0.6-0.5,0.9-1.2,0.8-2c-0.2-0.7-0.5-1.4-0.9-2.1
		c1.1,0.6,2.4,0.2,3-0.8s0.2-2.4-0.8-3c-0.3-0.2-0.7-0.3-1-0.3c1-0.1,1.9-0.5,2.6-1.1c0.8-0.6,1.1-1.7,0.7-2.6
		c-0.3-0.7-1.2-1.1-2-0.7c-0.1,0.1-0.3,0.2-0.4,0.3c0.5-0.3,1-0.7,1.3-1.1c0.4-0.5,0.4-1.1,0.1-1.7c-0.5-0.5-1.2-0.6-1.9-0.3
		c-0.6,0.3-1.2,0.6-1.8,1c-1.5,0.8-3.2,0.7-4.6-0.2l-3.7,3.1L358,178.7z"/>
	<path class="st3" d="M338,161.7c-2.1,0.7-3.6,2.6-3.9,4.8c-0.1,0.8,0.1,1.6,0.5,2.2c0.7,0.7,1.7,1,2.6,0.7c0.9-0.3,1.8-0.7,2.5-1.3
		c1.2-0.7,2-1.8,2.4-3.1c0.1-1.4-0.7-2.6-2-3.1c-1.3-0.5-2.6-0.4-3.8,0.2"/>
	<path class="st3" d="M341.3,180.2c-0.3,1.3-0.9,2.6-1.6,3.7c-0.8,1.1-2,1.9-3.4,2.1c-1.4,0.2-2.7-0.6-3.2-1.9
		c-0.2,0.8-0.9,1.4-1.7,1.6c-0.8,0.2-1.6-0.2-2.1-0.9c-0.4-0.7-0.1-1.7,0.6-2.1c-0.8,0.5-1.8,0.9-2.6,0.4c-0.3-0.2-0.6-0.5-0.7-0.9
		c-0.4-1.3,0.4-2.6,1.2-3.6s1.9-2,2.1-3.3c0.1-1.1-0.1-2.1-0.5-3.1c-0.3-1.1-0.4-2.3-0.1-3.5c0.2-1.2,1-2.2,2-2.8
		c1-0.6,2.4-0.5,3.3,0.2l0.2,1.7L341.3,180.2"/>
	<path class="st11" d="M356.8,200c0,0,2.3,24.6,0.4,27.9s-26,36.8-26,36.8h0.1c-0.5,0.2-1,0.4-1.5,0.6c-0.8,0.3-1.7,0.5-2.6,0.5
		c-1.1,0.1-2.2-0.1-3.3-0.3c-1-0.3-1.8,0.7-1.3,1.4s3.1,1.7,6.4,1.4s-0.4,3.3-1.7,4.6s-5.2,5.7-5.1,6.4c0.1,1.1,1.3,1.1,2.6-0.2
		s5.4-5.2,6.1-4.5s-6.1,7.5-6.1,7.5s-1.7,1.2-0.9,2.1c1.4,1.6,8-6.1,8.6-6.9c0.4-0.5,1.2,0.2,0.7,0.8s-6.9,6.6-5.5,8.2
		c1,1.2,5.5-6.3,7.6-6.8s-4,5.4-2.9,6.5c0.4,0.4,0.7,0.7,3.7-3.2c2.3-3.4,4.5-6.9,6.5-10.5c3.1-3.4,34.2-37.1,34.4-43.4
		c0.2-6.6,1.4-29.1,1.4-29.1L356.8,200z"/>
	<path class="st6" d="M319.8,309.7l-0.3-9.1l17.1-0.6l0.6,13.4l-1.1,0.1c-4.7,0.4-24,1.9-27.2,1.1
		C305.3,313.6,319.8,309.7,319.8,309.7z"/>
	<g class="st12">
		<path class="st5" d="M312.7,311.9c0,0-5,1.7-4.4,2.5s20.2,0.1,28.8-1l0-0.4l-22.8,1.1C314.3,314,313.7,311.9,312.7,311.9z"/>
	</g>
	<path class="st3" d="M337.4,312.9h-0.3l-0.8,0.1l-3.1,0.3c-2.6,0.2-6.3,0.4-10.3,0.6s-7.7,0.2-10.3,0.2h-3.1h-0.9
		c-0.1,0-0.2,0-0.3,0h0.3h0.9l3.1,0c2.6,0,6.3-0.1,10.3-0.3s7.6-0.4,10.3-0.5l3.1-0.2h0.9L337.4,312.9z"/>
	<path class="st3" d="M314.3,314.3c-0.2-0.5-0.4-1-0.6-1.5c-0.3-0.4-0.7-0.8-1.1-1.1c0.5,0.2,1,0.5,1.3,1
		C314.2,313.2,314.4,313.8,314.3,314.3z"/>
	<path class="st3" d="M319.3,311.5c0,0-0.3-0.2-0.6-0.6c-0.2-0.2-0.3-0.5-0.4-0.8c0,0,0.3,0.2,0.6,0.6S319.4,311.5,319.3,311.5z"/>
	<path class="st3" d="M320.7,310.7c0,0-0.3-0.1-0.6-0.4s-0.5-0.5-0.5-0.5s0.3,0.1,0.6,0.4S320.7,310.7,320.7,310.7z"/>
	<path class="st3" d="M321.5,309.1c-0.3,0.1-0.6,0.2-0.9,0.1c-0.1,0.2-0.3,0.4-0.5,0.3s-0.4-0.3-0.3-0.5s0.3-0.4,0.5-0.3
		c0.2,0,0.3,0.2,0.3,0.3C320.9,309,321.2,309,321.5,309.1z"/>
	<path class="st3" d="M321.7,307.9c-0.3,0.2-0.6,0.3-1,0.3c-0.3,0.1-0.7,0-1-0.1c0.3-0.1,0.7-0.1,1-0.1
		C321.1,308,321.4,307.9,321.7,307.9z"/>
	<path class="st3" d="M318.7,310.1c-0.4,0.1-0.7,0.1-1.1,0c-0.4,0-0.8-0.1-1.2-0.2c-0.2-0.1-0.5-0.1-0.7-0.2
		c-0.1-0.1-0.2-0.2-0.3-0.3c0-0.2,0-0.3,0.1-0.4c0.8-0.5,1.9-0.3,2.5,0.5c0.2,0.2,0.3,0.5,0.4,0.7c0,0.1,0,0.2,0,0.3
		c-0.1-0.3-0.3-0.6-0.5-0.9c-0.3-0.3-0.6-0.5-1-0.6c-0.4-0.1-0.9-0.1-1.3,0.1c-0.2,0.1-0.1,0.3,0.1,0.5c0.2,0.1,0.4,0.2,0.6,0.2
		c0.4,0.1,0.8,0.2,1.1,0.2C318.2,310,318.7,310,318.7,310.1z"/>
	<path class="st3" d="M318.4,310.1c-0.1-0.2-0.2-0.5-0.1-0.8c0-0.3,0.1-0.6,0.3-0.8c0.2-0.3,0.5-0.6,0.9-0.6c0.2,0,0.4,0.3,0.4,0.5
		c0,0.2-0.1,0.4-0.2,0.5c-0.1,0.2-0.3,0.5-0.5,0.7C318.8,310,318.5,310.1,318.4,310.1c0.1,0,0.3-0.2,0.6-0.6
		c0.2-0.2,0.3-0.4,0.4-0.7c0.1-0.2,0.2-0.7,0-0.7s-0.5,0.3-0.7,0.5c-0.1,0.2-0.2,0.5-0.3,0.7C318.4,309.6,318.4,309.9,318.4,310.1z"
		/>
	<path class="st3" d="M336.9,308.3c0,0-0.5,0-1.3,0.1c-1,0.2-1.9,0.6-2.7,1.2c-0.8,0.7-1.3,1.5-1.6,2.5c-0.2,0.8-0.2,1.2-0.3,1.2
		c0-0.1,0-0.2,0-0.4c0-0.3,0.1-0.6,0.1-0.9c0.5-2.1,2.3-3.6,4.5-3.9c0.3,0,0.6,0,0.9,0C336.7,308.2,336.8,308.2,336.9,308.3z"/>
	<path class="st3" d="M334.8,301.2c0.2,1.2,0.3,2.3,0.3,3.5c0.1,1.2,0.1,2.4,0.1,3.5c-0.2-1.2-0.2-2.3-0.3-3.5
		C334.8,303.5,334.8,302.4,334.8,301.2z"/>
	<path class="st3" d="M328.8,311.8c-0.8,0.2-1.6,0.3-2.5,0.3c-0.8,0.1-1.7,0-2.5-0.1c0-0.1,1.1,0,2.5-0.1S328.7,311.8,328.8,311.8z"
		/>
	<path class="st3" d="M332.1,311.7c0,0-0.1,0.2-0.2,0.5s-0.2,0.5-0.2,0.5s-0.1-0.3,0-0.6S332,311.7,332.1,311.7z"/>
	<path class="st3" d="M333.3,310.1c0,0-0.1,0.2-0.2,0.4s-0.3,0.3-0.4,0.3s0.1-0.2,0.2-0.4S333.3,310,333.3,310.1z"/>
	<path class="st3" d="M335.1,309.3c0,0.1-0.2,0.1-0.5,0.2s-0.4,0.2-0.5,0.2s0.1-0.3,0.4-0.4S335.1,309.2,335.1,309.3z"/>
	<path class="st3" d="M336.4,308.9c0,0-0.1,0.1-0.2,0.2s-0.3,0.1-0.3,0s0.1-0.1,0.2-0.2S336.4,308.9,336.4,308.9z"/>
	<g class="st7">
		<polygon points="336.8,307.8 319.7,308.2 319.7,306.1 336.9,306.7 		"/>
	</g>
	<path class="st3" d="M384.3,247.7l-54.2-0.7c0,0-15.1,1.4-15.1,21l1.9,38.7H340l-1.6-37.1c1.3,0,18.8,0.6,18.8,0.6L384.3,247.7z"/>
	<path class="st4" d="M317,306.6c0-0.2-0.1-0.4-0.1-0.7c0-0.5-0.1-1.1-0.1-1.9l-0.4-7.1c-0.4-6-1-14.2-1.5-23.3
		c-0.2-4.5-0.5-8.9,0-12.9c0.1-1,0.3-1.9,0.6-2.9c0.3-0.9,0.7-1.7,1.1-2.5c0.8-1.4,1.9-2.7,3.1-3.8c1-0.9,2.2-1.6,3.4-2.2
		c0.9-0.4,1.9-0.8,2.9-1l1.1-0.3l0.8-0.1c0.2,0,0.4-0.1,0.7-0.1c-0.2,0.1-0.4,0.1-0.6,0.2l-0.8,0.2l-1.1,0.3c-1,0.3-1.9,0.7-2.8,1.1
		c-1.2,0.6-2.3,1.4-3.3,2.2c-1.2,1.1-2.2,2.3-3,3.7c-0.4,0.8-0.7,1.6-1,2.5c-0.3,0.9-0.4,1.8-0.6,2.8c-0.5,3.9-0.1,8.2,0,12.8
		c0.5,9.1,1.1,17.3,1.3,23.3c0.1,3,0.2,5.4,0.2,7.1c0,0.8,0,1.4,0,1.9C317,306.2,317,306.4,317,306.6z"/>
	<path class="st6" d="M420.4,309.8l-9.1,0.6l-1.2-17.1l13.4-1l0.1,1c0.6,4.7,2.7,24,2,27.2C424.7,324.1,420.4,309.8,420.4,309.8z"/>
	<g class="st12">
		<path class="st5" d="M422.7,316.7c0,0,1.8,5,2.6,4.3s-0.6-20.2-2-28.8H423l1.9,22.8C424.9,315,422.7,315.7,422.7,316.7z"/>
	</g>
	<path class="st3" d="M422.9,292c0,0.1,0.1,0.2,0.1,0.3c0,0.2,0.1,0.5,0.1,0.8c0.1,0.8,0.2,1.9,0.4,3.1c0.3,2.6,0.6,6.2,0.9,10.2
		s0.5,7.6,0.6,10.3c0,1.2,0.1,2.3,0.1,3.1c0,0.3,0,0.6,0,0.9c0,0.1,0,0.2,0,0.3c0-0.1,0-0.2,0-0.3c0-0.2,0-0.5,0-0.8
		c0-0.9-0.1-1.9-0.2-3.1c-0.1-2.6-0.4-6.3-0.6-10.3s-0.6-7.6-0.9-10.2c-0.1-1.2-0.2-2.3-0.3-3.1c0-0.3,0-0.6-0.1-0.9
		S422.9,292,422.9,292z"/>
	<path class="st3" d="M425.1,315c-0.5,0.2-1,0.4-1.4,0.7c-0.4,0.3-0.8,0.7-1.1,1.1c0.2-0.5,0.5-1,1-1.3
		C424,315.2,424.5,315,425.1,315z"/>
	<path class="st3" d="M422.2,310.2c0,0-0.2,0.3-0.6,0.6s-0.7,0.5-0.8,0.4s0.2-0.3,0.6-0.6C421.6,310.4,421.9,310.3,422.2,310.2z"/>
	<path class="st3" d="M421.3,308.8c0,0-0.1,0.3-0.4,0.6s-0.5,0.5-0.5,0.5s0.1-0.3,0.4-0.6S421.3,308.8,421.3,308.8z"/>
	<path class="st3" d="M419.6,308.1c0.1,0,0.1,0.4,0.2,0.9c0.1,0.3,0.1,0.6,0,0.9c-0.1,0-0.1-0.4-0.2-0.9S419.6,308.1,419.6,308.1z"
		/>
	<path class="st3" d="M418.5,307.9c0.2,0.3,0.3,0.6,0.4,1c0.1,0.3,0.1,0.7-0.1,1c-0.1-0.3-0.1-0.7-0.1-1
		C418.6,308.5,418.5,308.2,418.5,307.9z"/>
	<path class="st3" d="M420.7,310.9c0.1,0.4,0.1,0.7,0.1,1.1c0,0.4-0.1,0.8-0.2,1.2c0,0.2-0.1,0.5-0.2,0.7c-0.1,0.1-0.2,0.2-0.3,0.3
		c-0.2,0-0.3,0-0.5-0.1c-0.5-0.8-0.3-1.9,0.4-2.5c0.2-0.2,0.4-0.3,0.7-0.4c0.1,0,0.2-0.1,0.3,0c-0.3,0.1-0.6,0.3-0.9,0.6
		c-0.3,0.3-0.5,0.6-0.5,1c-0.1,0.4-0.1,0.9,0.2,1.3c0.1,0.2,0.3,0.1,0.4-0.1c0.1-0.2,0.2-0.4,0.2-0.6c0.1-0.4,0.2-0.8,0.2-1.2
		C420.7,311.3,420.7,310.9,420.7,310.9z"/>
	<path class="st3" d="M420.8,311.1c-0.2,0.2-0.5,0.2-0.8,0.2c-0.3,0-0.6-0.1-0.8-0.2c-0.3-0.2-0.6-0.5-0.6-0.9
		c0-0.2,0.2-0.4,0.5-0.4c0.2,0,0.4,0.1,0.5,0.1c0.3,0.1,0.5,0.3,0.7,0.5C420.5,310.6,420.6,310.8,420.8,311.1c0-0.1-0.2-0.3-0.6-0.6
		c-0.2-0.2-0.4-0.3-0.7-0.4c-0.2-0.1-0.7-0.2-0.7,0.1s0.3,0.5,0.5,0.7c0.2,0.1,0.5,0.2,0.7,0.3C420.3,311.2,420.5,311.2,420.8,311.1
		z"/>
	<path class="st3" d="M418.3,292.7c0,0,0,0.5,0.1,1.3c0.2,1,0.7,1.9,1.3,2.7c0.7,0.7,1.6,1.3,2.6,1.5c0.8,0.2,1.2,0.2,1.2,0.2
		c-0.1,0-0.2,0-0.4,0c-0.3,0-0.6,0-0.9-0.1c-2.1-0.5-3.7-2.2-4-4.3c0-0.3,0-0.6,0-0.9C418.3,292.9,418.3,292.8,418.3,292.7z"/>
	<path class="st3" d="M411.3,295c1.2-0.2,2.3-0.3,3.5-0.4c1.2-0.1,2.3-0.2,3.5-0.2c-1.2,0.2-2.3,0.3-3.5,0.4
		C413.6,294.9,412.5,295,411.3,295z"/>
	<path class="st3" d="M422.1,300.7c0.2,0.8,0.4,1.6,0.4,2.5c0.1,0.8,0.1,1.7,0,2.5c-0.1,0-0.1-1.1-0.2-2.5S422.1,300.7,422.1,300.7z
		"/>
	<path class="st3" d="M421.9,297.3c0,0,0.2,0.1,0.5,0.2s0.5,0.1,0.5,0.2s-0.3,0.1-0.6,0S421.9,297.4,421.9,297.3z"/>
	<path class="st3" d="M420.2,296.2c0,0,0.2,0.1,0.4,0.2s0.3,0.3,0.3,0.4s-0.2-0.1-0.4-0.2S420.2,296.3,420.2,296.2z"/>
	<path class="st3" d="M419.4,294.5c0.1,0,0.1,0.2,0.2,0.5s0.3,0.4,0.2,0.5s-0.3-0.1-0.4-0.4S419.3,294.5,419.4,294.5z"/>
	<path class="st3" d="M418.9,293.2c0,0,0.1,0.1,0.2,0.2s0.1,0.3,0,0.3s-0.1-0.1-0.2-0.2S418.9,293.2,418.9,293.2z"/>
	<g class="st7">
		<polygon points="417.8,292.8 418.8,309.9 416.7,310 416.7,292.7 		"/>
	</g>
	<path class="st3" d="M364.3,292.8L364.3,292.8c0,0,46.2-25.2,51.4-33.4c3.2-4.9,3.8-11,1.5-16.4l-38.9,5.2l-27.6,27.7l0,0
		c-6,4.8-16.9,14.7-16.9,24.6c0,16.8,21.8,14.1,37.4,14.1c21.3,0,45.3,0.1,45.3,0.1l0.1-22.9L364.3,292.8z"/>
	<path class="st4" d="M353.4,297.6c1.9-0.6,3.8-1.4,5.7-2.2c1.9-0.7,3.7-1.6,5.5-2.6c-1.9,0.6-3.8,1.4-5.7,2.2
		C357,295.8,355.1,296.6,353.4,297.6z"/>
	<path class="st4" d="M357,292c1.3,0.3,2.7,0.4,4,0.4c1.4,0.1,2.7,0.1,4.1-0.1c-1.3-0.3-2.7-0.4-4-0.4
		C359.7,291.8,358.4,291.8,357,292z"/>
	<path class="st4" d="M375.4,252.1c-0.1,0.2-0.3,0.3-0.4,0.5l-1.3,1.3l-4.9,4.7l-16.3,15.5c-3.2,3-6.3,5.8-9,8.5
		c-2.4,2.3-4.6,4.9-6.4,7.8c-1.2,1.9-2.1,4-2.6,6.2l-0.2,1c0,0.3-0.1,0.5-0.1,0.8c0,0.2-0.1,0.4-0.1,0.6c0-0.2,0-0.4,0-0.6
		c0-0.2,0-0.5,0.1-0.8s0.1-0.7,0.2-1.1c0.5-2.2,1.3-4.4,2.5-6.4c1.8-2.9,3.9-5.5,6.3-7.9c2.7-2.7,5.8-5.5,9-8.5l16.4-15.3l5-4.6
		l1.4-1.2C375,252.3,375.2,252.2,375.4,252.1z"/>
	<path class="st13" d="M361.5,202L361.5,202c-3.8,2.1-8.6,0.6-10.7-3.2c-0.1-0.2-0.2-0.5-0.4-0.7l-1.8-4.3c0,0-6,2.1-9-3.4
		c-1.7-3.1-4.1-8.3-5.9-12.3c-1.5-3.4-1.1-7.3,1-10.4l0,0c4.9-6.2,8.8-5.1,16.5-3.9l1.2,0.2l12.5,27.8
		C366.7,195.6,365.2,200.1,361.5,202z"/>
	<path class="st3" d="M337.6,180.8c0.2-0.5-0.1-1-0.5-1.2c-0.5-0.2-1,0.1-1.2,0.5c-0.2,0.5,0.1,1,0.5,1.2c0,0,0,0,0,0
		C336.9,181.5,337.4,181.3,337.6,180.8C337.6,180.8,337.6,180.8,337.6,180.8z"/>
	<path class="st3" d="M335.2,179.9c0.1,0,0.5-0.7,1.2-1.1s1.5-0.3,1.5-0.5s-0.2-0.2-0.5-0.2c-0.4-0.1-0.9,0-1.3,0.2
		c-0.4,0.2-0.7,0.6-0.9,1C335,179.7,335.1,179.9,335.2,179.9z"/>
	<path class="st3" d="M344.2,176.3c-0.3,0.4-0.1,1,0.3,1.2c0.4,0.3,1,0.1,1.2-0.3c0.3-0.4,0.1-1-0.3-1.2c0,0,0,0,0,0
		C345,175.7,344.5,175.9,344.2,176.3C344.2,176.3,344.2,176.3,344.2,176.3z"/>
	<path class="st3" d="M343.4,176.1c0.1,0,0.5-0.7,1.2-1.1s1.5-0.3,1.5-0.5s-0.2-0.2-0.5-0.2c-0.4-0.1-0.9,0-1.3,0.2
		c-0.4,0.2-0.7,0.6-0.9,1C343.4,175.9,343.4,176.1,343.4,176.1z"/>
	<path class="st3" d="M344,184.2c-0.5,0-0.9,0.2-1.4,0.4c-0.2,0.1-0.4,0.1-0.5,0c-0.1-0.2-0.2-0.4-0.2-0.6c-0.1-0.6-0.1-1.2-0.2-1.9
		c-0.1-1.6-0.4-3.2-0.9-4.8c0,1.6,0.1,3.2,0.4,4.8c0.1,0.6,0.2,1.2,0.3,1.9c0,0.3,0.1,0.6,0.3,0.9c0.1,0.1,0.3,0.2,0.5,0.1
		c0.1,0,0.3-0.1,0.4-0.1C343.6,184.5,344.1,184.2,344,184.2z"/>
	<path class="st11" d="M348.6,193.7c2.6-1.3,4.7-3.4,6.1-5.9c0,0,0.4,4.9-5.3,7.3L348.6,193.7z"/>
	<path class="st13" d="M355,170.2c0.1-0.1,4.4-2.6,5.7,2c1.1,4.1-3.5,4.8-3.5,4.6S355,170.2,355,170.2z"/>
	<path class="st11" d="M357.9,174.5c0,0,0.1,0,0.2,0c0.2,0,0.4-0.1,0.5-0.2c0.4-0.5,0.5-1.2,0.2-1.8c-0.1-0.3-0.3-0.6-0.5-0.9
		c-0.2-0.2-0.4-0.3-0.7-0.3c-0.2,0-0.3,0.2-0.3,0.3c0,0.1,0,0.2,0,0.2s-0.1,0-0.1-0.2c0-0.1,0-0.2,0.1-0.3c0.1-0.1,0.2-0.2,0.3-0.2
		c0.3-0.1,0.7,0.1,0.9,0.3c0.3,0.3,0.5,0.6,0.6,1c0.3,0.7,0.1,1.5-0.4,2c-0.2,0.1-0.4,0.2-0.6,0.1
		C358,174.6,357.9,174.5,357.9,174.5z"/>
	<path class="st6" d="M353,201.3c0,0,10.8-18,27.4-2.9c10.9,9.9,28.5,30.3,34.9,38.3c1.4,1.8,3.6,4.5,2.1,6.2
		c-4.7,5.1-17.7,16.6-41.6,8L353,219.5C349.2,214.1,349.1,206.8,353,201.3L353,201.3z"/>
	<polygon class="st6" points="366.7,192.8 363.7,187.8 348.2,200.1 351.1,204.8 	"/>
	<g class="st7">
		<path d="M366.1,193.4c0,0-12.2,10.5-12.4,10.4s-4.9-3.6-4.9-3.6l4.3,2.4L366.1,193.4z"/>
	</g>
	<path class="st3" d="M366.9,192.7c-0.3,0.1-0.5,0.2-0.8,0.4c-0.5,0.3-1.2,0.8-2,1.3c-1.7,1.1-3.9,2.8-6.4,4.7
		c-1.7,1.2-3.3,2.4-4.6,3.3h0.2c-1.5-0.8-2.7-1.4-3.5-1.9c-0.4-0.3-0.9-0.5-1.4-0.6c0.4,0.3,0.8,0.6,1.3,0.8c0.8,0.5,2,1.2,3.4,2
		l0.1,0l0.1-0.1c1.4-0.9,3-2,4.7-3.3l6.3-4.8l1.9-1.4C366.4,193.1,366.7,192.9,366.9,192.7z"/>
	<path class="st13" d="M300.8,240l-2.9-1.2c-1.7-0.5-3.4-1.1-5-1.9c-0.8-0.4-1.5-0.9-2.1-1.5c-0.8-0.8-1.5-1.6-2.1-2.6
		c-0.2-0.5-0.7-0.8-1.2-0.7c-0.4,0.1-0.6,0.4-0.7,0.8c-0.2,0.9,1,3.5,3.5,5.6s-2.6,2-4.5,2s-7.7,0.3-8.1,0.9c-0.7,0.8,0.1,1.7,2,1.7
		s7.5,0.2,7.5,1.2s-9.6,0.9-9.6,0.9s-2-0.4-2.1,0.8c-0.2,2.1,10,1.4,11,1.3c0.7-0.1,0.7,1-0.1,1s-9.5-0.3-9.7,1.8
		c-0.1,1.6,8.4-0.5,10.1,0.6s-6.6,0.9-6.7,2.5c0,0.6,0,1,4.9,0.4s18.1-4.4,18.1-4.4l-2.2-9.2"/>
	<path class="st13" d="M358.2,207.6c0,0-15.8,21.8-19.5,22.6s-44.4,7.3-44.4,7.3l2,13.3c0,0,50.6-1.4,55.5-5.9s19.7-27.2,19.7-27.2
		L358.2,207.6z"/>
	<path class="st11" d="M347.1,244.5c0,0,0.1,0.2,0.4,0.4c0.5,0.3,1,0.4,1.5,0.3c0.8-0.1,1.5-0.5,2-1.2c0.6-0.8,0.6-1.9,0.1-2.8
		c-0.2-0.5-0.7-0.8-1.2-1c-0.5-0.2-1-0.1-1.4,0.1c-0.7,0.4-1,1.3-0.6,2.1c0,0,0,0.1,0,0.1c0.3,0.5,0.9,0.6,1.5,0.4
		c0.4-0.1,0.4-0.4,0.4-0.4s-0.2,0.1-0.5,0.2c-0.4,0.1-0.9-0.1-1.1-0.4c-0.3-0.6-0.1-1.3,0.5-1.6c0,0,0,0,0,0
		c0.3-0.2,0.7-0.2,1.1-0.1c0.4,0.1,0.7,0.4,0.9,0.8c0.6,1.2,0.2,2.6-1,3.2c-0.2,0.1-0.5,0.2-0.7,0.2
		C348.3,245,347.7,244.8,347.1,244.5z"/>
	<path class="st6" d="M376.3,214.2l-15,25.8L344,225.7c0,0,12-19.6,17.6-25.7L376.3,214.2z"/>
	<path class="st4" d="M333.3,263.4c2.8,1,4.8,3.6,5.1,6.6C337.4,267.3,335.6,265,333.3,263.4z"/>
	<path class="st3" d="M351.2,172.6c0.2,0.4,0.6,0.7,1.1,0.8c0.5,0.1,0.9,0.1,1.4,0.2c0.7,0.1,1.4,0.5,1.8,1.1
		c0.2,0.3,0.4,0.5,0.6,0.7c0.2,0.2,0.6,0.2,0.9,0.1c0.4-0.3,0.2-0.9,0-1.4c-0.9-1.9-1.9-3.7-2.8-5.6l-5.3,1.1l2.3,2.6"/>
	<path class="st3" d="M333.9,166.2c0.6-0.7,1.5-1.3,2.2-0.7c0.7,0.7,1.1,1.6,1.2,2.5c0.1,0.9,0.5,1.9,0.9,2.7c1,1.5,3.1,1.9,4.7,0.9
		c0.5-0.4,1-0.9,1.2-1.5c0.7,1.1,1.5,2.1,2.5,3c1,0.8,2.4,1.1,3.7,0.7c1.2-0.5,1.9-1.9,1.4-3.1c0,0,0,0,0-0.1
		c0.7,0.6,1.5,0.9,2.4,0.9c0.9,0,1.7-0.5,2.1-1.3c0.3-0.8-0.1-1.8-0.9-2.1c0,0-0.1,0-0.1,0c1,0.7,2.3,0.6,3.3-0.1
		c0.9-0.7,1.2-2.1,0.6-3.1c-0.7-1-2-1.3-3-0.6c0.7-0.3,1.3-0.9,1.7-1.5c0.4-0.7,0.2-1.6-0.5-2c-0.8-0.4-1.7,0.4-2.6,0.6
		c-1.5,0.3-2.7-1.1-3.9-2c-2.2-1.6-5.1-2.2-7.7-1.5c-2.7,0.6-5.1,1.9-7.1,3.8C334.6,162.8,333.3,164.5,333.9,166.2"/>
	<path class="st3" d="M337,177c0,0.4-0.4,0.8-0.9,1c-0.4,0.2-1,0.2-1.4-0.1c-0.3-0.3,0-1,0.8-1.4S337,176.6,337,177z"/>
	<path class="st3" d="M344.9,173.2c-0.1,0.4-0.6,0.7-1.1,1s-1.1,0.5-1.5,0.2c-0.2-0.2-0.2-0.5-0.1-0.7c0.2-0.4,0.5-0.7,0.9-0.9
		c0.4-0.2,0.9-0.2,1.3-0.1C344.8,172.8,344.9,173,344.9,173.2z"/>
	<path class="st3" d="M347.2,182.4c0.1,0,0.5,1,0,2.1s-1.5,1.6-1.5,1.5s0.6-0.7,1-1.7S347,182.4,347.2,182.4z"/>
	<path class="st4" d="M358.7,166.4c0,0-0.1,0.1-0.2,0.1c-0.2,0.1-0.5,0.2-0.8,0.2c-1,0-2-0.5-2.4-1.4l0.3,0.1
		c-0.9,0.8-2.1,1.3-3.3,1.3c-1.5,0.1-3-0.6-4-1.7l0.4-0.2c0,0.7-0.4,1.3-0.9,1.7c-0.6,0.4-1.3,0.6-1.9,0.5c-1.1-0.2-2-0.8-2.7-1.7
		c-0.7-0.8-1.2-1.5-1.9-2.1c-0.6-0.6-1.3-1-2.1-1.2c-0.7-0.1-1.4,0-2.1,0.3c-1,0.4-1.9,1.1-2.6,1.9c-0.3,0.3-0.6,0.6-0.9,0.8
		c0.2-0.4,0.4-0.7,0.7-1c0.7-0.9,1.6-1.6,2.6-2.1c0.7-0.3,1.5-0.5,2.3-0.4c0.9,0.2,1.7,0.6,2.4,1.3c0.7,0.6,1.3,1.4,1.9,2.1
		c0.6,0.8,1.5,1.3,2.4,1.5c1.1,0.2,2.4-0.6,2.3-1.6v-0.7l0.5,0.6c0.9,1,2.3,1.6,3.6,1.6c1.1,0,2.2-0.4,3.1-1.1l0.2-0.2l0.1,0.2
		c0.4,0.8,1.2,1.4,2.1,1.4C358.1,166.5,358.4,166.5,358.7,166.4z"/>
	<path class="st3" d="M378.8,210.3c0,0,0-0.6-0.2-1.6c-0.3-1.5-0.8-2.9-1.6-4.2c-1.2-1.9-2.9-3.4-5-4.2c-2.5-1-5.3-1.1-7.9-0.3
		c-1.3,0.5-2.5,1.1-3.6,2c-1,0.8-2,1.7-2.8,2.8c-1.4,1.7-2.7,3.6-3.8,5.5c-1,1.6-1.8,3-2.4,3.9c-0.3,0.5-0.5,0.8-0.7,1
		s-0.3,0.3-0.3,0.3c0.2-0.5,0.5-1,0.8-1.5c0.6-1,1.4-2.3,2.3-3.9c1.1-2,2.4-3.9,3.8-5.6c1.7-2.2,4-4,6.6-5c2.7-0.9,5.6-0.8,8.2,0.3
		c3.6,1.6,6.1,4.9,6.6,8.8c0.1,0.4,0.1,0.8,0.1,1.2C378.8,209.9,378.8,210.1,378.8,210.3z"/>
	<path class="st14" d="M374.4,219.7c0-0.3-0.2-0.6-0.4-0.8c-0.3-0.2-0.6-0.4-1-0.4c-0.5,0-1.1-0.1-1.6-0.3c-1.2-0.7-2.1-1.9-2.4-3.3
		c-0.2-0.7-0.4-1.5-0.6-2.3c-0.2-0.8-0.7-1.4-1.4-1.9c-0.7-0.4-1.5-0.7-2.3-0.8c-0.8-0.1-1.6-0.1-2.3,0c-1.4,0.2-2.7-0.1-4-0.6
		c-0.9-0.4-1.5-1.2-1.8-2.1c-0.1-0.2-0.1-0.5,0-0.8c0-0.1,0-0.2,0.1-0.2c0,0.3,0.1,0.7,0.2,1c0.3,0.8,0.9,1.5,1.7,1.8
		c1.2,0.5,2.6,0.6,3.9,0.4c1.5-0.1,3.3-0.2,4.9,0.9c0.7,0.5,1.3,1.3,1.5,2.2c0.3,0.8,0.4,1.6,0.6,2.3c0.2,1.3,0.9,2.4,2,3.1
		c0.5,0.2,1,0.3,1.5,0.3c0.4,0,0.8,0.2,1.1,0.5c0.2,0.2,0.3,0.4,0.3,0.7C374.4,219.6,374.4,219.7,374.4,219.7z"/>
	<path class="st14" d="M368.4,228.2c-0.1,0-0.1-0.3-0.4-0.8c-0.5-0.6-1.2-1.1-2-1.3c-1-0.3-2.3-0.3-3.7-0.8
		c-0.8-0.2-1.4-0.7-1.9-1.4c-0.5-0.7-0.7-1.5-1.2-2.1c-0.9-1.3-2.5-1.7-3.8-2c-1.3-0.2-2.5-0.7-3.6-1.4c-0.7-0.5-1.2-1.3-1.4-2.1
		c-0.1-0.3-0.1-0.7,0.1-1c0,0,0,0.3,0.1,0.9c0.2,0.8,0.7,1.4,1.4,1.9c1.1,0.6,2.2,1,3.5,1.2c0.7,0.1,1.5,0.4,2.2,0.7
		c0.8,0.3,1.5,0.9,2,1.5c0.5,0.7,0.7,1.5,1.1,2.1c0.4,0.6,1,1,1.6,1.2c1.3,0.5,2.6,0.5,3.6,0.9c0.8,0.2,1.6,0.8,2.1,1.5
		c0.1,0.2,0.2,0.4,0.2,0.7C368.4,228.2,368.4,228.2,368.4,228.2z"/>
	<path class="st14" d="M396,214.7c0,0.1,0,0.3,0,0.4c-0.1,0.4-0.2,0.8-0.4,1.1c-0.8,1.2-2,2.2-3.4,2.8c-0.8,0.4-1.8,0.7-2.8,1.2
		c-1,0.4-2,1-2.8,1.8c-1.7,1.7-2.5,4.3-3.7,6.8c-0.5,1.3-1.3,2.5-2.3,3.5c-0.2,0.2-0.5,0.5-0.8,0.6c-0.3,0.2-0.5,0.4-0.9,0.5
		c-0.6,0.3-1.2,0.5-1.8,0.6c-2.4,0.5-4.6,0.4-6.4,0.9c-1.4,0.3-2.6,1.2-3.4,2.4c-0.2,0.5-0.4,1-0.5,1.5c0,0,0-0.1,0-0.4
		c0-0.4,0.2-0.8,0.3-1.1c0.7-1.3,2-2.3,3.4-2.7c1.8-0.6,4-0.5,6.4-1c0.6-0.1,1.2-0.3,1.7-0.6c0.3-0.1,0.5-0.3,0.8-0.5
		c0.3-0.2,0.5-0.4,0.7-0.6c0.9-1,1.7-2.1,2.2-3.3c1.2-2.5,2-5.2,3.9-6.9c0.9-0.8,1.9-1.5,3-1.9c1-0.4,2-0.8,2.8-1.1
		c1.3-0.5,2.5-1.4,3.4-2.6C395.7,215.7,395.9,215.2,396,214.7z"/>
	<path class="st14" d="M406.1,227.1c-0.1,0.6-0.3,1.1-0.6,1.6c-0.9,1.3-2.2,2.2-3.6,2.8c-1.8,0.8-4.1,1.2-6.3,2.4
		c-1.1,0.6-2.1,1.5-2.7,2.7c-0.6,1.3-1.2,2.6-1.7,3.9c-1.1,2.6-3,4.8-5.5,6.2c-2,1.2-4.3,1.7-6.6,1.7c-1.5,0-3.1-0.3-4.5-0.9
		c-0.4-0.2-0.8-0.3-1.1-0.5c-0.2-0.1-0.4-0.2-0.4-0.2s0.5,0.2,1.6,0.6c1.4,0.5,2.9,0.7,4.4,0.7c2.2,0,4.4-0.6,6.3-1.7
		c2.3-1.4,4.2-3.5,5.3-6c0.5-1.4,1.1-2.7,1.7-4c0.7-1.2,1.7-2.2,2.9-2.8c2.3-1.2,4.6-1.5,6.4-2.3c1.4-0.5,2.7-1.4,3.6-2.5
		C405.6,228,405.9,227.6,406.1,227.1z"/>
	<path class="st14" d="M415.2,236.8c-1.4,0.6-2.8,1.5-4,2.4c-1.3,1.1-2.4,2.4-3.2,3.9c-0.5,0.8-0.8,1.8-1.2,2.8
		c-0.4,1.1-1.1,2-2,2.7c-1,0.6-2.1,0.9-3.2,1c-1.1,0.1-2.1,0.1-3,0.3c-1.7,0.3-3.3,0.8-4.8,1.5c-1.4,0.7-2.7,1.6-4,2.5
		c0.3-0.3,0.6-0.7,0.9-0.9c0.9-0.8,1.9-1.4,2.9-2c1.5-0.8,3.2-1.4,4.9-1.7c1-0.2,2-0.2,3-0.4c1.1-0.1,2.1-0.4,3-0.9
		c0.8-0.6,1.5-1.5,1.8-2.5c0.4-1,0.8-1.9,1.2-2.8c0.8-1.5,2-2.9,3.4-4c0.9-0.7,1.9-1.3,3-1.8c0.4-0.1,0.7-0.2,0.9-0.3
		S415.1,236.8,415.2,236.8z"/>
	<path class="st14" d="M375,218.3c0.9-0.3,1.6-0.8,2.3-1.4c0.7-0.7,1.2-1.5,1.6-2.5c0.5-1.1,0.8-2.3,1.1-3.5
		c0.3-1.2,0.7-2.4,1.2-3.5c0.4-0.9,1.1-1.8,1.9-2.5c0.5-0.5,1.2-0.8,1.8-1c0.2-0.1,0.5-0.1,0.8-0.1c-0.9,0.3-1.7,0.7-2.4,1.3
		c-0.7,0.7-1.3,1.5-1.7,2.4c-0.5,1.1-0.8,2.3-1.1,3.5c-0.3,1.2-0.7,2.4-1.1,3.6c-0.4,0.9-1,1.8-1.8,2.5c-0.5,0.5-1.1,0.8-1.8,1.1
		C375.5,218.3,375.3,218.4,375,218.3z"/>
	<path class="st14" d="M372.1,200.3c0.4-2.2,2-3.9,4.1-4.5c0.1,0.1-1.2,0.8-2.3,2S372.3,200.4,372.1,200.3z"/>
	<path class="st14" d="M365.1,190.1c-0.4,0.8-1,1.6-1.6,2.4c-0.6,0.8-1.2,1.7-1.9,2.4c-0.4,0.5-0.9,0.9-1.5,1.1
		c-0.6,0.2-1.3,0.4-2,0.3c-0.6,0-1.3,0-1.9,0c-0.6,0.1-1.1,0.3-1.6,0.5c-0.9,0.5-1.5,1.2-1.9,2.1c-0.3,0.9-0.5,1.8-0.4,2.7
		c-0.1-0.2-0.2-0.5-0.2-0.8c-0.1-0.7,0-1.4,0.3-2.1c0.4-1,1.1-1.9,2-2.4c0.5-0.3,1.2-0.5,1.8-0.6c0.7-0.1,1.3-0.1,2,0
		c1.2,0.1,2.4-0.4,3.2-1.3c0.8-0.8,1.4-1.7,1.9-2.3C363.8,191.4,364.4,190.7,365.1,190.1z"/>
	<g class="st15">
		<polygon points="378.4,213.5 370.8,244.2 364.2,235 		"/>
	</g>
	<path class="st4" d="M411.3,314.7c-0.1,0-0.3-5.1-0.3-11.4s0.1-11.4,0.3-11.4s0.3,5.1,0.3,11.4S411.5,314.7,411.3,314.7z"/>
</g>
<g id="freepik--Plant--inject-2">
	<linearGradient id="SVGID_3_" gradientUnits="userSpaceOnUse" x1="69.8907" y1="273.0645" x2="85.6653" y2="273.0645">
		<stop  offset="6.425827e-07" style="stop-color:#A770EF"/>
		<stop  offset="0.3932" style="stop-color:#CF8BF3"/>
		<stop  offset="1" style="stop-color:#FDB99B"/>
	</linearGradient>
	<path class="st16" d="M73.2,258.1c3,0.2,5.9,1.7,7.8,4.1c1.9,2.4,3.2,5.1,3.9,8.1c1.5,5.6,0.5,12.3-1.2,17.9
		c-6.1-2.2-9.8-8.8-11.5-12.2C69.7,270.4,68.2,259,73.2,258.1"/>
	<linearGradient id="SVGID_4_" gradientUnits="userSpaceOnUse" x1="90.9864" y1="286.9359" x2="105.9201" y2="286.9359">
		<stop  offset="6.425827e-07" style="stop-color:#A770EF"/>
		<stop  offset="0.3932" style="stop-color:#CF8BF3"/>
		<stop  offset="1" style="stop-color:#FDB99B"/>
	</linearGradient>
	<path class="st17" d="M92.5,295c-1.8-2.9-2-6.6-0.4-9.6c1.7-3,4.4-5.2,7.7-6.1c1.5-0.6,3.1-0.5,4.5,0.2c1.2,0.9,1.8,2.4,1.6,3.9
		c-0.2,1.4-0.9,2.8-1.8,3.9C101.1,291.3,97.5,294.6,92.5,295"/>
	<path class="st3" d="M93,313.8c-0.1-0.4-0.2-0.8-0.3-1.2c-0.2-0.8-0.3-1.9-0.6-3.2c-0.8-3.5-1-7.2-0.6-10.8c0.4-3.6,1.9-7.1,4.1-10
		c0.7-0.9,1.5-1.6,2.3-2.3c0.2-0.2,0.5-0.4,0.7-0.5c0.1-0.1,0.2-0.1,0.3-0.2c-1.1,1-2.2,2-3.1,3.2c-2.1,2.9-3.5,6.3-3.9,9.8
		c-0.4,3.6-0.2,7.2,0.4,10.7c0.2,1.4,0.4,2.5,0.5,3.2C93,313,93,313.4,93,313.8z"/>
	<path class="st3" d="M75.1,266.6c0.1,0.1,0.2,0.3,0.2,0.5l0.6,1.4c0.5,1.2,1.3,2.9,2.2,5c1.8,4.3,4.2,10.2,6.7,16.9
		s4.6,12.7,6.1,17.1c0.7,2.2,1.3,4,1.7,5.2c0.2,0.6,0.3,1.1,0.4,1.4c0.1,0.2,0.1,0.3,0.1,0.5c-0.1-0.2-0.2-0.3-0.2-0.5l-0.5-1.4
		c-0.4-1.3-1.1-3-1.8-5.2c-1.6-4.4-3.7-10.4-6.2-17s-4.9-12.6-6.6-16.9c-0.8-2.1-1.5-3.9-2-5.1l-0.5-1.4
		C75.2,267,75.2,266.8,75.1,266.6z"/>
	<linearGradient id="SVGID_5_" gradientUnits="userSpaceOnUse" x1="63.4861" y1="296.6507" x2="85.9131" y2="296.6507">
		<stop  offset="6.425827e-07" style="stop-color:#A770EF"/>
		<stop  offset="0.3932" style="stop-color:#CF8BF3"/>
		<stop  offset="1" style="stop-color:#FDB99B"/>
	</linearGradient>
	<path class="st18" d="M85.8,301.3c-3.7-6.2-10.1-10.3-17.3-11c-1.8-0.1-4,0.1-4.8,1.8s0.2,3.5,1.4,4.9c5.3,5.6,13.5,7.5,20.7,4.8"
		/>
	<path class="st3" d="M71.3,295.2c0.4,0,0.8,0,1.1,0.1c0.4,0,0.9,0.1,1.3,0.2c0.5,0.1,1.1,0.2,1.7,0.3c0.7,0.2,1.3,0.4,2,0.6
		c0.8,0.3,1.5,0.5,2.3,0.9c3.4,1.5,6.4,3.9,8.8,6.9c0.5,0.6,1,1.3,1.4,2c0.4,0.6,0.7,1.2,1,1.9c0.3,0.6,0.5,1.1,0.7,1.6
		c0.2,0.4,0.3,0.8,0.4,1.3c0.1,0.4,0.2,0.7,0.3,1.1c-0.1,0-0.5-1.5-1.7-3.8c-0.3-0.6-0.7-1.2-1.1-1.8c-0.4-0.7-0.9-1.4-1.4-2
		c-1.2-1.4-2.5-2.7-3.9-3.9c-1.5-1.1-3-2.1-4.7-2.9c-0.7-0.3-1.5-0.6-2.2-0.9c-0.7-0.2-1.3-0.5-2-0.6
		C72.9,295.4,71.2,295.3,71.3,295.2z"/>
</g>
</svg>
